<?xml version="1.0" standalone="no"?>
  <!DOCTYPE svg PUBLIC "-//W3C//DTD SVG 1.1//EN" "http://www.w3.org/Graphics/SVG/1.1/DTD/svg11.dtd" >
  <svg>
  <metadata>
  Created by font-carrier
  </metadata>
  <defs>
  <font id="FuturaPTCond-BookObl" horiz-adv-x="1000" vert-adv-y="1000" >
    <font-face
      
      font-family="Futura PT Cond Book Italic"
      
      font-weight="400"
      
      font-stretch="normal"
      
      units-per-em="1000"
      
      ascent="982"
      
      descent="-300"
      
    />
      <missing-glyph />

      

      
      <glyph glyph-name="uni21" unicode="&#x21;" d="M200 667L138 167L79 167L141 667L200 667M138 44Q138 24 123 8.50Q108-7 88-7Q71-7 60 4.50Q49 16 49 33Q49 53 64 68Q79 83 99 83Q116 83 127 71.50Q138 60 138 44Z"  horiz-adv-x="233" vert-adv-y="1000"  />

      
      <glyph glyph-name="uni22" unicode="&#x22;" d="M288 667L278 398L237 398L228 667L288 667M159 667L150 398L109 398L99 667L159 667Z"  horiz-adv-x="302" vert-adv-y="1000"  />

      
      <glyph glyph-name="uni23" unicode="&#x23;" d="M597 465L583 414L472 414L431 265L543 265L529 215L416 215L358 0L301 0L360 215L210 215L151 0L95 0L154 215L39 215L53 265L168 265L209 414L94 414L108 465L223 465L278 667L334 667L279 465L429 465L484 667L541 667L485 465L597 465M415 414L265 414L224 265L375 265L415 414Z"  horiz-adv-x="600" vert-adv-y="1000"  />

      
      <glyph glyph-name="uni24" unicode="&#x24;" d="M352 636L316 589Q273 619 233 619Q184 619 153.50 584.50Q123 550 123 500Q123 463 138 435.50Q153 408 176 392Q199 376 225 358Q251 340 274 322.50Q297 305 312 273.50Q327 242 327 201Q327 124 284.50 65Q242 6 174-6L163-91L116-91L126-8Q89-2 67.50 10Q46 22 22 49L63 92Q111 48 153 48Q203 48 236 89.50Q269 131 269 188Q269 222 255 247Q251 253 245.50 259.50Q240 266 234.50 271Q229 276 220 283Q211 290 206 293.50Q201 297 191 303.50Q181 310 178 312Q137 340 117.50 357Q98 374 81.50 407.50Q65 441 65 486Q65 556 101.50 606.50Q138 657 206 673L215 751L263 751L254 675Q306 672 352 636Z"  horiz-adv-x="366" vert-adv-y="1000"  />

      
      <glyph glyph-name="uni25" unicode="&#x25;" d="M477 667L106 0L60 0L431 667L477 667M173 629Q157 629 147 619Q133 606 120 526Q109 457 109 425Q109 398 116 385Q124 371 142 371Q160 371 171 388Q185 409 195 482Q204 545 204 585Q204 609 195 619Q187 629 173 629M249 576Q249 525 238 461Q225 381 198 352Q175 329 139 329Q103 329 84 349Q63 372 63 423Q63 473 77 550Q89 623 116 648Q141 671 178 671Q209 671 228 652Q249 631 249 576M392 295Q376 295 366 285Q352 272 339 192Q328 123 328 91Q328 64 335 51Q343 37 361 37Q379 37 390 54Q404 76 414 148Q423 211 423 251Q423 275 414 285Q406 295 392 295M468 242Q468 191 457 127Q444 47 417 18Q394-5 358-5Q322-5 303 15Q282 38 282 89Q282 139 296 216Q308 289 335 314Q360 337 397 337Q428 337 447 318Q468 297 468 242Z"  horiz-adv-x="511" vert-adv-y="1000"  />

      
      <glyph glyph-name="uni26" unicode="&#x26;" d="M376 192L411 150Q380 114 345 81L375 0L311 0L296 37Q242-9 181-9Q119-9 81.50 36Q44 81 44 145Q44 265 166 364Q125 461 125 526Q125 586 169 631Q213 676 273 676Q320 676 348.50 645.50Q377 615 377 568Q377 522 353 478.50Q329 435 303 409.50Q277 384 237 354L324 136Q342 154 376 192M319 561Q319 587 304.50 604Q290 621 265 621Q228 621 205.50 594Q183 567 183 529Q183 475 215 401Q318 478 319 561M274 90L187 310Q101 228 101 156Q101 114 123 82.50Q145 51 185 51Q226 51 274 90Z"  horiz-adv-x="437" vert-adv-y="1000"  />

      
      <glyph glyph-name="uni27" unicode="&#x27;" d="M159 667L150 398L109 398L99 667L159 667Z"  horiz-adv-x="174" vert-adv-y="1000"  />

      
      <glyph glyph-name="uni28" unicode="&#x28;" d="M232 737L277 714Q108 420 108 173Q108 13 170-158L119-181Q52-26 52 167Q52 313 100 462.50Q148 612 232 737Z"  horiz-adv-x="257" vert-adv-y="1000"  />

      
      <glyph glyph-name="uni29" unicode="&#x29;" d="M99 714L150 737Q217 582 217 390Q217 244 169 93.50Q121-57 37-181L-8-158Q161 136 161 384Q161 551 99 714Z"  horiz-adv-x="257" vert-adv-y="1000"  />

      
      <glyph glyph-name="uni2a" unicode="&#x2a;" d="M367 596L251 573L308 468L278 451L221 555L141 468L115 492L195 580L89 630L104 662L210 612L225 730L259 726L245 608L360 631L367 596Z"  horiz-adv-x="361" vert-adv-y="1000"  />

      
      <glyph glyph-name="uni2b" unicode="&#x2b;" d="M479 305L290 305L290 129L235 129L235 305L46 305L46 357L235 357L235 533L290 533L290 357L479 357L479 305Z"  horiz-adv-x="500" vert-adv-y="1000"  />

      
      <glyph glyph-name="uni2c" unicode="&#x2c;" d="M114 55L3-142L-37-122L56 83L114 55Z"  horiz-adv-x="174" vert-adv-y="1000"  />

      
      <glyph glyph-name="uni2d" unicode="&#x2d;" d="M189 233L51 233L58 291L196 291L189 233Z"  horiz-adv-x="238" vert-adv-y="1000"  />

      
      <glyph glyph-name="uni2e" unicode="&#x2e;" d="M108 44Q108 24 93 8.50Q78-7 58-7Q19-7 19 38Q19 55 35.50 69Q52 83 69 83Q86 83 97 72Q108 61 108 44Z"  horiz-adv-x="174" vert-adv-y="1000"  />

      
      <glyph glyph-name="uni2f" unicode="&#x2f;" d="M490 729L-5-173L-62-173L434 729L490 729Z"  horiz-adv-x="402" vert-adv-y="1000"  />

      
      <glyph glyph-name="uni30" unicode="&#x30;" d="M356 504Q356 458 352 402Q348 346 335 270Q322 194 301 134.50Q280 75 241.50 33Q203-9 153-9Q39-9 39 192Q39 237 43.50 291.50Q48 346 62.50 416.50Q77 487 99 542.50Q121 598 160 637Q199 676 249 676Q356 676 356 504M297 503Q297 619 239 619Q200 619 170 566Q140 513 126 437.50Q112 362 105 300Q98 238 98 199Q98 48 164 48Q202 48 227 98Q258 159 277.50 286.50Q297 414 297 503Z"  horiz-adv-x="366" vert-adv-y="1000"  />

      
      <glyph glyph-name="uni31" unicode="&#x31;" d="M277 667L195 0L134 0L209 609L124 609L132 667L277 667Z"  horiz-adv-x="366" vert-adv-y="1000"  />

      
      <glyph glyph-name="uni32" unicode="&#x32;" d="M141 485L81 485Q88 539 101.50 577.50Q115 616 149.50 646Q184 676 237 676Q293 676 324 642.50Q355 609 355 553Q355 507 335 451Q315 395 295 360Q275 325 240 269L109 59L288 59L281 0L12 0L189 295Q293 465 293 548Q293 580 278.50 599.50Q264 619 233 619Q153 619 141 485Z"  horiz-adv-x="366" vert-adv-y="1000"  />

      
      <glyph glyph-name="uni33" unicode="&#x33;" d="M144 511L87 511Q96 582 131.50 629Q167 676 233 676Q286 676 316.50 644.50Q347 613 347 559Q347 412 251 369Q289 352 302 319Q315 286 315 237Q315 192 307.50 152.50Q300 113 283 74.50Q266 36 232 13.50Q198-9 151-9Q33-9 33 119Q33 141 39 183L99 183Q99 177 97 158.50Q95 140 95 130Q95 51 159 51Q198 51 221 83Q237 106 246.50 150.50Q256 195 256 231Q256 338 161 338L132 338L139 393L152 393Q220 393 249 422Q268 441 277.50 476.50Q287 512 287 545Q287 616 225 616Q183 616 166.50 587.50Q150 559 144 511Z"  horiz-adv-x="366" vert-adv-y="1000"  />

      
      <glyph glyph-name="uni34" unicode="&#x34;" d="M326 667L273 236L322 236L316 179L266 179L244 0L184 0L206 179L33 179L41 242L266 667L326 667M213 236L239 446Q242 473 261 569Q243 521 209 454L98 236L213 236Z"  horiz-adv-x="366" vert-adv-y="1000"  />

      
      <glyph glyph-name="uni35" unicode="&#x35;" d="M351 667L344 609L202 609L153 405Q171 408 189 408Q255 408 285 359.50Q315 311 315 241Q315 183 297 128Q279 73 236 32Q193-9 133-9Q70-9 26 22L50 83Q90 51 135 51Q176 51 204 84Q232 117 242.50 156Q253 195 253 233Q253 348 147 348Q110 348 77 336L155 667L351 667Z"  horiz-adv-x="366" vert-adv-y="1000"  />

      
      <glyph glyph-name="uni36" unicode="&#x36;" d="M317 667L206 458Q199 444 183 418.50Q167 393 150 355Q181 378 218 378Q252 378 276 356Q316 318 316 231Q316 92 253 30Q214-9 155-9Q110-9 82 17Q40 54 40 147Q40 227 65 301Q84 357 133 448L253 667L317 667M99 144Q99 45 166 45Q193 45 212 64Q233 85 245.50 136.50Q258 188 258 232Q258 288 233 311Q219 325 194 325Q168 325 146 303Q123 281 111 235Q99 189 99 144Z"  horiz-adv-x="366" vert-adv-y="1000"  />

      
      <glyph glyph-name="uni37" unicode="&#x37;" d="M381 667L97 0L33 0L293 609L104 609L111 667L381 667Z"  horiz-adv-x="366" vert-adv-y="1000"  />

      
      <glyph glyph-name="uni38" unicode="&#x38;" d="M352 547Q352 419 264 369Q297 349 308.50 318.50Q320 288 320 244Q320 200 311.50 158.50Q303 117 285 78Q267 39 232 15Q197-9 150-9Q91-9 64 31Q37 71 37 133Q37 209 62 277.50Q87 346 145 369Q92 405 92 480Q92 558 132 617Q172 676 247 676Q352 676 352 547M293 539Q293 619 234 619Q209 619 192 605Q175 591 166.50 568Q158 545 155 523Q152 501 152 478Q152 397 208 397Q253 397 273 442Q293 487 293 539M262 242Q262 341 198 341Q169 341 148 320Q127 299 116.50 266Q106 233 101.50 203Q97 173 97 146Q97 48 160 48Q194 48 217 74Q239 99 250.50 149Q262 199 262 242Z"  horiz-adv-x="366" vert-adv-y="1000"  />

      
      <glyph glyph-name="uni39" unicode="&#x39;" d="M75 0L242 312Q207 289 174 289Q122 289 99 331Q76 373 76 430Q76 473 83 512.50Q90 552 106.50 590.50Q123 629 156 652.50Q189 676 235 676Q297 676 325 635.50Q353 595 353 530Q353 403 267 242L139 0L75 0M293 523Q293 623 227 623Q199 623 179.50 602Q160 581 151 548Q142 515 138.50 486.50Q135 458 135 432Q135 396 149.50 369Q164 342 197 342Q224 342 244.50 361.50Q265 381 274.50 411.50Q284 442 288.50 470Q293 498 293 523Z"  horiz-adv-x="366" vert-adv-y="1000"  />

      
      <glyph glyph-name="uni3a" unicode="&#x3a;" d="M155 415Q155 395 140 379.50Q125 364 105 364Q88 364 76.50 375.50Q65 387 65 404Q65 423 80.50 438.50Q96 454 116 454Q132 454 143.50 443Q155 432 155 415M108 44Q108 24 93 8.50Q78-7 58-7Q19-7 19 38Q19 55 35.50 69Q52 83 69 83Q86 83 97 72Q108 61 108 44Z"  horiz-adv-x="174" vert-adv-y="1000"  />

      
      <glyph glyph-name="uni3b" unicode="&#x3b;" d="M158 414Q158 394 143 379Q128 364 108 364Q69 364 69 409Q69 426 85 440Q101 454 119 454Q136 454 147 442.50Q158 431 158 414M114 55L3-142L-37-122L56 83L114 55Z"  horiz-adv-x="174" vert-adv-y="1000"  />

      
      <glyph glyph-name="uni3c" unicode="&#x3c;" d="M467 107L34 305L34 354L467 551L467 495L93 329L467 162L467 107Z"  horiz-adv-x="500" vert-adv-y="1000"  />

      
      <glyph glyph-name="uni3d" unicode="&#x3d;" d="M481 391L47 391L47 440L481 440L481 391M481 245L47 245L47 294L481 294L481 245Z"  horiz-adv-x="500" vert-adv-y="1000"  />

      
      <glyph glyph-name="uni3e" unicode="&#x3e;" d="M491 304L58 107L58 163L432 329L58 496L58 551L491 353L491 304Z"  horiz-adv-x="500" vert-adv-y="1000"  />

      
      <glyph glyph-name="uni3f" unicode="&#x3f;" d="M86 498L91 545Q97 606 129.50 641Q162 676 221 676Q267 676 291 651Q315 626 315 580Q315 551 310 514Q306 481 302 460Q298 439 288.50 412Q279 385 265.50 368.50Q252 352 228 340Q204 328 173 327L153 167L95 167L121 381L163 381Q194 381 210 392Q226 403 235 433Q254 495 254 566Q254 622 212 622Q202 622 194 619.50Q186 617 179.50 611Q173 605 168.50 599.50Q164 594 160.50 584.50Q157 575 154.50 568Q152 561 150 549Q148 537 147.50 531.50Q147 526 145.50 513.50Q144 501 144 498L86 498M156 44Q156 24 140.50 8.50Q125-7 105-7Q88-7 77 4.50Q66 16 66 33Q66 52 81 67.50Q96 83 116 83Q133 83 144.50 72Q156 61 156 44Z"  horiz-adv-x="327" vert-adv-y="1000"  />

      
      <glyph glyph-name="uni40" unicode="&#x40;" d="M589 77L597 40Q483-13 362-13Q219-13 131 67.50Q43 148 43 289Q43 446 159.50 560.50Q276 675 433 675Q554 675 634.50 605Q715 535 715 415Q715 341 678 267Q652 217 610.50 179Q569 141 521 141Q495 141 476.50 157.50Q458 174 458 200L458 212Q402 138 324 138Q267 138 235 177Q203 216 203 274Q203 360 261.50 432Q320 504 404 504Q490 504 508 420L531 491L572 491L504 275Q491 236 491 220Q491 177 528 177Q564 177 601 216Q636 253 656 306Q676 359 676 412Q676 516 605.50 576Q535 636 429 636Q289 636 186.50 533.50Q84 431 84 291Q84 167 161.50 96.50Q239 26 365 26Q478 26 589 77M484 376Q484 414 462.50 438Q441 462 404 462Q340 462 294.50 404.50Q249 347 249 281Q249 237 271 208.50Q293 180 336 180Q400 180 442 244Q484 308 484 376Z"  horiz-adv-x="733" vert-adv-y="1000"  />

      
      <glyph glyph-name="uni41" unicode="&#x41;" d="M291 0L226 0L218 137L79 137L38 0L-27 0L184 667L242 667L291 0M215 191L201 426Q198 466 198 506Q198 544 201 583Q193 536 179 480Q165 424 155 389Q145 354 124 284.50Q103 215 96 191L215 191Z"  horiz-adv-x="320" vert-adv-y="1000"  />

      
      <glyph glyph-name="uni42" unicode="&#x42;" d="M108 667L204 667Q276 667 304 637Q332 607 332 535Q332 469 309 419Q296 389 277.50 372Q259 355 229 342Q274 329 291.50 302.50Q309 276 309 228Q309 82 234 28Q196 0 127 0L26 0L108 667M133 372L166 372Q214 372 236 399Q270 439 270 541Q270 581 255 597Q240 613 201 613L162 613L133 372M93 53L126 53Q173 53 199 73Q223 91 234.50 133Q246 175 246 214Q246 317 161 317L126 317L93 53Z"  horiz-adv-x="346" vert-adv-y="1000"  />

      
      <glyph glyph-name="uni43" unicode="&#x43;" d="M350 655L342 587Q303 616 269 616Q210 616 173 555Q139 500 122.50 399Q106 298 106 211Q106 51 194 51Q233 51 279 81L272 19Q228-9 183-9Q129-9 95.50 27Q62 63 51.50 107.50Q41 152 41 205Q41 308 67 426.50Q93 545 143 609Q197 676 273 676Q321 676 350 655Z"  horiz-adv-x="315" vert-adv-y="1000"  />

      
      <glyph glyph-name="uni44" unicode="&#x44;" d="M108 667L184 667Q275 667 313 627Q351 587 351 496Q351 310 310 165Q287 81 239.50 40.50Q192 0 107 0L26 0L108 667M94 57L123 57Q173 57 202 85Q235 115 251 172Q287 301 287 486Q287 547 266.50 578.50Q246 610 188 610L162 610L94 57Z"  horiz-adv-x="365" vert-adv-y="1000"  />

      
      <glyph glyph-name="uni45" unicode="&#x45;" d="M313 667L306 610L162 610L133 375L273 375L267 318L126 318L94 57L238 57L231 0L26 0L108 667L313 667Z"  horiz-adv-x="297" vert-adv-y="1000"  />

      
      <glyph glyph-name="uni46" unicode="&#x46;" d="M317 667L310 610L162 610L133 375L273 375L267 318L126 318L87 0L26 0L108 667L317 667Z"  horiz-adv-x="291" vert-adv-y="1000"  />

      
      <glyph glyph-name="uni47" unicode="&#x47;" d="M369 550L306 526Q302 616 244 616Q166 616 134 466Q102 324 102 179Q102 154 104 137Q106 120 112 97.50Q118 75 133.50 63Q149 51 173 51Q221 51 244 100Q251 115 257.50 144Q264 173 266.50 192Q269 211 273.50 251.50Q278 292 278 295L189 295L196 352L346 352L330 218Q322 154 313 121Q297 62 258 26.50Q219-9 161-9Q40-9 40 160Q40 359 81 507Q101 580 142.50 628Q184 676 252 676Q309 676 335.50 643Q362 610 369 550Z"  horiz-adv-x="368" vert-adv-y="1000"  />

      
      <glyph glyph-name="uni48" unicode="&#x48;" d="M380 667L298 0L237 0L279 344L129 344L87 0L26 0L108 667L169 667L136 401L286 401L319 667L380 667Z"  horiz-adv-x="380" vert-adv-y="1000"  />

      
      <glyph glyph-name="uni49" unicode="&#x49;" d="M169 667L87 0L26 0L108 667L169 667Z"  horiz-adv-x="169" vert-adv-y="1000"  />

      
      <glyph glyph-name="uni4a" unicode="&#x4a;" d="M221 667L153 114Q153 112 151.50 101.50Q150 91 149.50 88Q149 85 148 76Q147 67 145.50 62.50Q144 58 141.50 50.50Q139 43 136.50 38.50Q134 34 130 28Q126 22 121 18Q92-10 42-10Q10-10-26 8L-18 72Q12 44 39 44Q51 44 60.50 48.50Q70 53 74.50 56.50Q79 60 83 72Q87 84 88 88Q89 92 91 108.50Q93 125 93 127L160 667L221 667Z"  horiz-adv-x="221" vert-adv-y="1000"  />

      
      <glyph glyph-name="uni4b" unicode="&#x4b;" d="M365 667L185 347L283 0L219 0L128 336L87 0L26 0L108 667L169 667L132 364L301 667L365 667Z"  horiz-adv-x="320" vert-adv-y="1000"  />

      
      <glyph glyph-name="uni4c" unicode="&#x4c;" d="M236 57L229 0L26 0L108 667L169 667L94 57L236 57Z"  horiz-adv-x="259" vert-adv-y="1000"  />

      
      <glyph glyph-name="uni4d" unicode="&#x4d;" d="M444 667L443 0L383 0L390 433Q392 494 399 554Q398 552 390 513Q383 475 370 433L244 0L194 0L177 434L177 498Q177 508 178.50 526Q180 544 180 554Q170 472 160 434L53 0L-7 0L167 667L220 667L234 209Q235 190 235 151Q235 120 234 104Q245 160 259 207L392 667L444 667Z"  horiz-adv-x="492" vert-adv-y="1000"  />

      
      <glyph glyph-name="uni4e" unicode="&#x4e;" d="M381 667L299 0L246 0L154 440Q151 455 146.50 487Q142 519 139 534Q135 454 130 416L79 0L26 0L108 667L161 667L255 214Q257 203 261 176Q265 149 268 135Q268 184 274 232L328 667L381 667Z"  horiz-adv-x="381" vert-adv-y="1000"  />

      
      <glyph glyph-name="uni4f" unicode="&#x4f;" d="M382 477Q382 285 335 147Q284-9 170-9Q42-9 42 206Q42 253 46.50 305.50Q51 358 65 426.50Q79 495 101 548.50Q123 602 163 639Q203 676 254 676Q382 676 382 477M321 482Q321 616 248 616Q202 616 172 564Q138 507 121 395Q104 283 104 191Q104 51 177 51Q227 51 258 109Q287 163 304 280Q321 397 321 482Z"  horiz-adv-x="398" vert-adv-y="1000"  />

      
      <glyph glyph-name="uni50" unicode="&#x50;" d="M108 667L187 667Q263 667 298.50 639Q334 611 334 537Q334 456 308 397Q295 369 276.50 352.50Q258 336 230 329Q202 322 182 320.50Q162 319 126 319L87 0L26 0L108 667M133 376L174 376Q210 376 231 392Q252 408 262 449.50Q272 491 272 529Q272 573 254 591.50Q236 610 192 610L162 610L133 376Z"  horiz-adv-x="324" vert-adv-y="1000"  />

      
      <glyph glyph-name="uni51" unicode="&#x51;" d="M278-49L247 13Q215-9 169-9Q42-9 42 206Q42 253 46.50 306Q51 359 65 427.50Q79 496 101 549Q123 602 163 639Q203 676 254 676Q382 676 382 465Q382 364 359 240.50Q336 117 291 58L330-18L278-49M225 188L262 116Q290 181 305.50 287.50Q321 394 321 483Q321 616 248 616Q202 616 172 564Q138 507 121 395Q104 283 104 191Q104 51 179 51Q203 51 220 64L173 156L225 188Z"  horiz-adv-x="398" vert-adv-y="1000"  />

      
      <glyph glyph-name="uni52" unicode="&#x52;" d="M112 667L195 667Q279 667 319 640Q359 613 359 533Q359 331 204 320L316 0L250 0L137 326L97 0L31 0L112 667M143 375L184 375Q231 375 254 397Q292 432 292 529Q292 575 272 592.50Q252 610 205 610L172 610L143 375Z"  horiz-adv-x="370" vert-adv-y="1000"  />

      
      <glyph glyph-name="uni53" unicode="&#x53;" d="M336 640L326 562Q286 616 235 616Q187 616 156.50 578Q126 540 126 491Q126 454 145.50 425Q165 396 192 375.50Q219 355 246.50 334Q274 313 293.50 280Q313 247 313 205Q313 122 258.50 56Q204-10 123-10Q67-10 24 25L34 105Q79 51 133 51Q185 51 217.50 93.50Q250 136 250 189Q250 223 230.50 250.50Q211 278 183.50 299Q156 320 128.50 342Q101 364 81.50 397Q62 430 62 471Q62 550 111 613Q160 676 237 676Q291 676 336 640Z"  horiz-adv-x="342" vert-adv-y="1000"  />

      
      <glyph glyph-name="uni54" unicode="&#x54;" d="M314 667L307 610L208 610L133 0L72 0L147 610L48 610L55 667L314 667Z"  horiz-adv-x="261" vert-adv-y="1000"  />

      
      <glyph glyph-name="uni55" unicode="&#x55;" d="M384 667L327 200Q316 116 304 84Q287 39 249 15Q211-9 162-9Q103-9 73 23.50Q43 56 43 116Q43 135 50 200L108 667L169 667L112 205Q105 144 105 127Q105 51 170 51Q184 51 195 53.50Q206 56 215 63.50Q224 71 230.50 76.50Q237 82 242 95.50Q247 109 250 115Q253 121 256 138.50Q259 156 260 160Q261 164 263.50 183.50Q266 203 266 205L323 667L384 667Z"  horiz-adv-x="384" vert-adv-y="1000"  />

      
      <glyph glyph-name="uni56" unicode="&#x56;" d="M374 667L159 0L105 0L55 667L118 667L146 225Q148 187 148 168Q148 156 147.50 143.50Q147 131 146 115.50Q145 100 145 91Q169 196 177 223L311 667L374 667Z"  horiz-adv-x="321" vert-adv-y="1000"  />

      
      <glyph glyph-name="uni57" unicode="&#x57;" d="M551 667L353 0L297 0L286 433L286 444Q286 481 290 557Q285 540 278.50 507Q272 474 270 466Q268 460 265 448.50Q262 437 260 431L134 0L78 0L55 667L118 667L126 247L126 235Q126 220 123.50 186.50Q121 153 122 135L122 122Q138 193 156 252L278 667L330 667Q341 167 341 122Q343 138 347.50 156.50Q352 175 358.50 197Q365 219 368 231Q370 241 372 248L488 667L551 667Z"  horiz-adv-x="498" vert-adv-y="1000"  />

      
      <glyph glyph-name="uni58" unicode="&#x58;" d="M366 667L201 339L284 0L219 0L178 189Q165 244 163 284Q159 267 124 187L39 0L-27 0L142 339L55 667L120 667L159 502Q173 443 176 385Q185 418 222 498L301 667L366 667Z"  horiz-adv-x="313" vert-adv-y="1000"  />

      
      <glyph glyph-name="uni59" unicode="&#x59;" d="M367 667L199 289L164 0L103 0L138 289L55 667L121 667L159 476Q173 403 176 353Q194 411 220 475L301 667L367 667Z"  horiz-adv-x="315" vert-adv-y="1000"  />

      
      <glyph glyph-name="uni5a" unicode="&#x5a;" d="M321 667L62 57L228 57L221 0L-20 0L237 610L72 610L79 667L321 667Z"  horiz-adv-x="275" vert-adv-y="1000"  />

      
      <glyph glyph-name="uni5b" unicode="&#x5b;" d="M292 729L286 683L186 683L87-127L187-127L181-173L23-173L134 729L292 729Z"  horiz-adv-x="263" vert-adv-y="1000"  />

      
      <glyph glyph-name="uni5c" unicode="&#x5c;" d="M63 729L119 729L504-173L447-173L63 729Z"  horiz-adv-x="513" vert-adv-y="1000"  />

      
      <glyph glyph-name="uni5d" unicode="&#x5d;" d="M253 729L142-173L-16-173L-11-127L90-127L189 683L89 683L94 729L253 729Z"  horiz-adv-x="263" vert-adv-y="1000"  />

      
      <glyph glyph-name="uni5e" unicode="&#x5e;" d="M486 373L425 373L267 623L111 373L50 373L232 667L304 667L486 373Z"  horiz-adv-x="500" vert-adv-y="1000"  />

      
      <glyph glyph-name="uni5f" unicode="&#x5f;" d="M472-124L-28-124L-28-74L472-74L472-124Z"  horiz-adv-x="500" vert-adv-y="1000"  />

      
      <glyph glyph-name="uni60" unicode="&#x60;" d="M319 533L280 507L180 610L238 653L319 533Z"  horiz-adv-x="493" vert-adv-y="1000"  />

      
      <glyph glyph-name="uni61" unicode="&#x61;" d="M300 447L245 0L190 0L194 36Q156-7 113-7Q31-7 31 113Q31 183 44 270.50Q57 358 83 401Q116 454 176 454Q217 454 241 417L245 447L300 447M231 327Q231 409 183 409Q151 409 130 372Q110 336 99 258.50Q88 181 88 124Q88 39 136 39Q155 39 168.50 48.50Q182 58 190 76Q198 94 201.50 108Q205 122 209 142Q231 254 231 327Z"  horiz-adv-x="322" vert-adv-y="1000"  />

      
      <glyph glyph-name="uni62" unicode="&#x62;" d="M166 729L128 417Q161 454 203 454Q291 454 291 335Q291 226 265 117Q233-7 152-7Q109-7 81 36L77 0L21 0L111 729L166 729M233 325Q233 409 185 409Q132 409 114 316Q91 211 91 118Q91 39 140 39Q171 39 190 71Q209 103 221 186.50Q233 270 233 325Z"  horiz-adv-x="317" vert-adv-y="1000"  />

      
      <glyph glyph-name="uni63" unicode="&#x63;" d="M249 437L241 371Q216 402 190 402Q163 402 141 373.50Q119 345 109 315Q99 285 95 256Q87 206 87 162Q87 144 89 127Q91 110 96.50 90Q102 70 114.50 58Q127 46 145 46Q173 46 205 86L197 16Q166-7 131-7Q93-7 68.50 21Q44 49 36 82.50Q28 116 28 154Q28 220 41 276Q57 345 94.50 399.50Q132 454 190 454Q221 454 249 437Z"  horiz-adv-x="242" vert-adv-y="1000"  />

      
      <glyph glyph-name="uni64" unicode="&#x64;" d="M331 729L240 0L185 0L189 36Q151-7 108-7Q26-7 26 113Q26 184 39 270.50Q52 357 78 401Q111 454 170 454Q193 454 207.50 445.50Q222 437 236 417L275 729L331 729M225 327Q225 409 178 409Q147 409 126 372Q106 336 94.50 259Q83 182 83 124Q83 39 131 39Q150 39 163.50 48.50Q177 58 185 76Q193 94 197 107.50Q201 121 205 142Q225 253 225 327Z"  horiz-adv-x="319" vert-adv-y="1000"  />

      
      <glyph glyph-name="uni65" unicode="&#x65;" d="M207 152L263 152Q253 86 222 39.50Q191-7 132-7Q28-7 28 153Q28 219 41 277Q49 318 65 355Q81 392 113 423Q145 454 185 454Q281 454 281 299Q281 258 273 212L88 212Q83 179 83 153Q83 46 137 46Q155 46 168 56Q181 66 188.50 85.50Q196 105 199.50 118.50Q203 132 207 152M94 260L225 260Q227 292 227 311Q227 402 180 402Q117 402 94 260Z"  horiz-adv-x="308" vert-adv-y="1000"  />

      
      <glyph glyph-name="uni66" unicode="&#x66;" d="M261 730L254 668Q232 688 216 688Q200 688 190 677Q180 666 178 656.50Q176 647 173 627L149 447L225 447L218 395L143 395L94 0L38 0L87 395L36 395L43 447L94 447L116 626Q130 740 214 740Q240 740 261 730Z"  horiz-adv-x="202" vert-adv-y="1000"  />

      
      <glyph glyph-name="uni67" unicode="&#x67;" d="M304 447L246-29Q245-33 243.50-46.50Q242-60 241.50-65Q241-70 238.50-80.50Q236-91 234-97.50Q232-104 227.50-112.50Q223-121 218-129Q187-180 111-180Q12-180 12-79Q12-65 16-39L71-39Q69-57 69-68Q69-127 121-127Q146-127 161.50-113Q177-99 181.50-83Q186-67 189-40Q190-28 192.50-4.50Q195 19 197 32Q163 0 122 0Q32 0 32 130Q32 174 37 220.50Q42 267 55.50 324.50Q69 382 100 418Q131 454 176 454Q218 454 245 416L249 447L304 447M234 321Q234 408 183 408Q161 408 145.50 392Q130 376 124 360Q118 344 112 319Q89 222 89 136Q89 46 141 46Q160 46 173.50 55.50Q187 65 195 84.50Q203 104 206.50 116Q210 128 214 150Q234 252 234 321Z"  horiz-adv-x="326" vert-adv-y="1000"  />

      
      <glyph glyph-name="uni68" unicode="&#x68;" d="M166 729L127 411Q170 454 218 454Q292 454 292 376Q292 352 289 331L249 0L193 0L232 321Q236 347 236 360Q236 381 225 394.50Q214 408 194 408Q125 408 114 301L77 0L21 0L111 729L166 729Z"  horiz-adv-x="325" vert-adv-y="1000"  />

      
      <glyph glyph-name="uni69" unicode="&#x69;" d="M163 593Q163 574 149 560Q135 546 116 546Q100 546 89.50 556.50Q79 567 79 582Q79 602 93.50 616Q108 630 127 630Q142 630 152.50 619.50Q163 609 163 593M131 447L77 0L21 0L76 447L131 447Z"  horiz-adv-x="154" vert-adv-y="1000"  />

      
      <glyph glyph-name="uni6a" unicode="&#x6a;" d="M168 593Q168 574 154.50 560Q141 546 122 546Q106 546 95.50 556.50Q85 567 85 582Q85 601 98.50 615.50Q112 630 131 630Q147 630 157.50 619.50Q168 609 168 593M137 447L59-180L3-180L81 447L137 447Z"  horiz-adv-x="159" vert-adv-y="1000"  />

      
      <glyph glyph-name="uni6b" unicode="&#x6b;" d="M304 447L149 240L277 0L214 0L103 214L77 0L21 0L111 729L166 729L110 265L241 447L304 447Z"  horiz-adv-x="305" vert-adv-y="1000"  />

      
      <glyph glyph-name="uni6c" unicode="&#x6c;" d="M166 729L77 0L21 0L111 729L166 729Z"  horiz-adv-x="154" vert-adv-y="1000"  />

      
      <glyph glyph-name="uni6d" unicode="&#x6d;" d="M132 447L128 410Q172 454 213 454Q270 454 288 402Q337 454 386 454Q468 454 468 374Q468 359 464 333L424 0L368 0L409 331Q411 347 411 358Q411 408 367 408Q346 408 327.50 395Q309 382 301 362Q292 339 285 286L250 0L195 0L235 330Q237 348 237 360Q237 408 198 408Q161 408 140 379Q120 352 111 277L77 0L21 0L76 447L132 447Z"  horiz-adv-x="500" vert-adv-y="1000"  />

      
      <glyph glyph-name="uni6e" unicode="&#x6e;" d="M131 447L127 411Q170 454 217 454Q254 454 273 431.50Q292 409 292 372Q292 350 289 331L249 0L193 0L232 321Q236 347 236 360Q236 381 225 394.50Q214 408 194 408Q125 408 114 301L77 0L21 0L76 447L131 447Z"  horiz-adv-x="325" vert-adv-y="1000"  />

      
      <glyph glyph-name="uni6f" unicode="&#x6f;" d="M290 328L290 311Q290 264 284 217.50Q278 171 263 116Q248 61 214.50 27Q181-7 133-7Q28-7 28 155Q28 198 35 244.50Q42 291 58.50 340.50Q75 390 109 422Q143 454 189 454Q240 454 265 417.50Q290 381 290 328M232 298Q232 402 182 402Q153 402 132.50 371.50Q112 341 102.50 295Q93 249 89 212Q85 175 85 147Q85 46 138 46Q166 46 186 76Q206 106 215 151.50Q224 197 228 233.50Q232 270 232 298Z"  horiz-adv-x="318" vert-adv-y="1000"  />

      
      <glyph glyph-name="uni70" unicode="&#x70;" d="M132 447L129 417Q163 454 203 454Q292 454 292 335Q292 224 265 117Q235-7 153-7Q110-7 82 36L55-180L0-180L77 447L132 447M234 325Q234 409 185 409Q134 409 114 316Q92 208 92 118Q92 39 141 39Q173 39 190 71Q210 103 222 186Q234 269 234 325Z"  horiz-adv-x="318" vert-adv-y="1000"  />

      
      <glyph glyph-name="uni71" unicode="&#x71;" d="M300 447L223-180L168-180L194 36Q156-7 113-7Q31-7 31 113Q31 183 44 270.50Q57 358 83 401Q116 454 176 454Q217 454 241 417L245 447L300 447M231 327Q231 409 183 409Q151 409 130 372Q110 336 99 258.50Q88 181 88 124Q88 39 136 39Q155 39 168.50 48.50Q182 58 190 76Q198 94 201.50 108Q205 122 209 142Q231 254 231 327Z"  horiz-adv-x="322" vert-adv-y="1000"  />

      
      <glyph glyph-name="uni72" unicode="&#x72;" d="M208 454L200 389Q178 389 162.50 382Q147 375 138.50 365.50Q130 356 124 337.50Q118 319 116 307Q114 295 111 271L77 0L21 0L77 447L132 447L125 389Q162 452 208 454Z"  horiz-adv-x="192" vert-adv-y="1000"  />

      
      <glyph glyph-name="uni73" unicode="&#x73;" d="M238 425L231 356Q198 402 161 402Q134 402 116 382Q98 362 98 334Q98 309 116.50 285Q135 261 156.50 244.50Q178 228 196.50 199.50Q215 171 215 138Q215 80 176 36.50Q137-7 81-7Q37-7 3 24L10 90Q45 46 83 46Q114 46 135 70Q156 94 156 125Q156 146 144 166Q132 186 115 203Q98 220 81 237.50Q64 255 52 278Q40 301 40 326Q40 379 75.50 416.50Q111 454 163 454Q204 454 238 425Z"  horiz-adv-x="243" vert-adv-y="1000"  />

      
      <glyph glyph-name="uni74" unicode="&#x74;" d="M222 447L216 395L142 395L93 0L38 0L87 395L40 395L46 447L94 447L109 574L164 574L149 447L222 447Z"  horiz-adv-x="196" vert-adv-y="1000"  />

      
      <glyph glyph-name="uni75" unicode="&#x75;" d="M305 447L264 109Q257 55 222.50 24Q188-7 134-7Q88-7 61 18.50Q34 44 34 90Q34 103 35 109L76 447L132 447L96 156Q92 122 92 105Q92 46 142 46Q163 46 177 55Q191 64 197.50 81Q204 98 207 112Q210 126 213 147Q213 150 213.50 152Q214 154 214 156L250 447L305 447Z"  horiz-adv-x="327" vert-adv-y="1000"  />

      
      <glyph glyph-name="uni76" unicode="&#x76;" d="M293 447L140 0L80 0L34 447L92 447L117 180Q121 128 121 103Q121 90 122 84Q128 118 148 178L235 447L293 447Z"  horiz-adv-x="271" vert-adv-y="1000"  />

      
      <glyph glyph-name="uni77" unicode="&#x77;" d="M450 447L299 0L242 0Q231 341 231 372Q225 343 213 302L129 0L71 0L38 447L94 447L111 176Q112 161 112 130Q112 98 111 82Q114 95 134 174L213 447L270 447Q281 181 281 82Q294 128 394 447L450 447Z"  horiz-adv-x="433" vert-adv-y="1000"  />

      
      <glyph glyph-name="uni78" unicode="&#x78;" d="M296 447L170 229L241 0L178 0L145 127Q133 171 132 193Q123 165 104 126L41 0L-21 0L108 229L44 447L105 447Q109 432 117 401.50Q125 371 129.50 352Q134 333 138.50 306.50Q143 280 144 258Q167 316 173 328Q180 341 192 365.50Q204 390 214.50 410Q225 430 234 447L296 447Z"  horiz-adv-x="275" vert-adv-y="1000"  />

      
      <glyph glyph-name="uni79" unicode="&#x79;" d="M312 447L80-180L21-180L92 12L40 447L97 447L122 199Q128 144 128 87Q134 107 163 190L254 447L312 447Z"  horiz-adv-x="291" vert-adv-y="1000"  />

      
      <glyph glyph-name="uni7a" unicode="&#x7a;" d="M290 447L63 52L212 52L206 0L-23 0L199 395L49 395L55 447L290 447Z"  horiz-adv-x="267" vert-adv-y="1000"  />

      
      <glyph glyph-name="uni7b" unicode="&#x7b;" d="M418 729L412 683Q358 681 335.50 662Q313 643 306 590L282 391Q279 363 266 332Q252 299 206 278Q256 252 256 194Q256 183 254 163L230-30Q228-43 228-68Q228-126 313-126L307-172Q302-173 291-173Q233-173 203-149.50Q173-126 173-70Q173-46 176-24L199 163Q201 181 201 191Q201 219 190.50 234.50Q180 250 153 258L158 301Q192 310 207 332.50Q222 355 227 393L252 594Q261 672 299.50 700.50Q338 729 418 729Z"  horiz-adv-x="502" vert-adv-y="1000"  />

      
      <glyph glyph-name="uni7c" unicode="&#x7c;" d="M280-250L225-250L225 750L280 750L280-250Z"  horiz-adv-x="500" vert-adv-y="1000"  />

      
      <glyph glyph-name="uni7d" unicode="&#x7d;" d="M361 299L356 257Q322 246 307 224Q292 202 287 164L262-37Q253-107 218-140Q183-173 113-173Q102-173 96-172L102-126Q156-124 178.50-105.50Q201-87 208-34L232 167Q238 212 254 237.50Q270 263 308 279Q280 294 269 313Q258 332 258 364Q258 375 260 395L283 586Q285 599 285 624Q285 659 262.50 670.50Q240 682 200 683L206 729L222 729Q281 729 310.50 705.50Q340 682 340 625Q340 602 337 580L315 395Q313 377 313 367Q313 314 361 299Z"  horiz-adv-x="502" vert-adv-y="1000"  />

      
      <glyph glyph-name="uni7e" unicode="&#x7e;" d="M590 721L625 700Q572 594 488 594Q451 594 378.50 629.50Q306 665 276 665Q224 665 181 589L146 611Q166 647 179.50 666Q193 685 219.50 702Q246 719 279 719Q316 719 389 683.50Q462 648 493 648Q526 648 547.50 666.50Q569 685 590 721Z"  horiz-adv-x="667" vert-adv-y="1000"  />

      
      <glyph glyph-name="unia1" unicode="&#xa1;" d="M189 415Q189 395 174 379.50Q159 364 139 364Q122 364 111 375.50Q100 387 100 404Q100 424 115 439Q130 454 150 454Q166 454 177.50 443Q189 432 189 415M158 280L97-220L37-220L99 280L158 280Z"  horiz-adv-x="233" vert-adv-y="1000"  />

      
      <glyph glyph-name="unia2" unicode="&#xa2;" d="M318 558L310 491Q287 521 259 521Q232 521 210.50 493.50Q189 466 179 436.50Q169 407 165 379Q156 330 156 282Q156 265 158 248Q160 231 165.50 211Q171 191 183.50 178.50Q196 166 214 166Q242 166 275 206L266 136Q245 121 225 117L213 25L164 25L174 117Q96 148 96 274Q96 366 125 450Q157 545 231 570L242 653L290 653L280 571Q301 568 318 558Z"  horiz-adv-x="366" vert-adv-y="1000"  />

      
      <glyph glyph-name="unia3" unicode="&#xa3;" d="M42 340L103 340Q75 404 75 470Q75 576 136 633Q181 676 247 676Q301 676 336 639Q368 605 368 550Q368 537 367 531L308 519Q309 524 309 536Q309 577 286 599Q267 616 239 616Q200 616 174 590Q138 556 138 481Q138 415 170 340L273 340L267 298L185 298Q213 249 213 202Q213 170 196 134Q182 104 162 81L186 62Q213 40 233 40Q250 40 260 55Q270 67 274 89L323 72Q314 31 288 6Q263-19 228-19Q197-19 170 1L148 17Q116 40 102 40Q85 40 72 27Q63 18 54 0L8 30Q22 53 38 69Q68 99 101 99Q110 99 116 97Q152 143 152 193Q152 240 119 298L37 298L42 340Z"  horiz-adv-x="366" vert-adv-y="1000"  />

      
      <glyph glyph-name="unia4" unicode="&#xa4;" d="M619 119L587 87L494 180Q429 126 350 126Q278 126 205 178L113 86L82 119L173 210Q119 278 119 355Q119 429 171 497L79 589L111 621L203 529Q272 583 349 583Q425 583 494 530L586 621L618 589L526 497Q578 429 578 354Q578 278 526 212L619 119M474.50 228Q474.50 228 500.75 254Q527 280 527 354Q527 428 475 480.50Q423 533 349 533Q275 533 223 480.50Q171 428 171 354Q171 280 223.50 228Q276 176 349 176Q422 176 474.50 228Z"  horiz-adv-x="667" vert-adv-y="1000"  />

      
      <glyph glyph-name="unia5" unicode="&#xa5;" d="M389 667L278 418L371 418L366 376L260 376L231 311L358 311L353 269L220 269L187 0L131 0L164 269L23 269L28 311L163 311L148 376L36 376L42 418L139 418L85 667L148 667L186 472Q197 418 202 353Q218 409 246 475L326 667L389 667Z"  horiz-adv-x="366" vert-adv-y="1000"  />

      
      <glyph glyph-name="unia6" unicode="&#xa6;" d="M280 337L225 337L225 749L280 749L280 337M280-250L225-250L225 153L280 153L280-250Z"  horiz-adv-x="500" vert-adv-y="1000"  />

      
      <glyph glyph-name="unia7" unicode="&#xa7;" d="M24-32L82-32Q81-40 81-55Q81-126 137-126Q176-126 196.50-92.50Q217-59 217-18Q217 12 204.50 33.50Q192 55 173 65.50Q154 76 131.50 90.50Q109 105 90 121Q71 137 58.50 169Q46 201 46 246Q46 318 76.50 379Q107 440 169 457Q104 503 104 581Q104 645 143.50 692.50Q183 740 246 740Q296 740 325 707Q354 674 354 624Q354 620 353.50 613Q353 606 353 603L295 603Q295 687 238 687Q201 687 180.50 654.50Q160 622 160 583Q160 551 179.50 525.50Q199 500 223.50 485.50Q248 471 275 449.50Q302 428 314 405Q329 375 329 321Q329 275 319.50 233.50Q310 192 282.50 154.50Q255 117 214 104Q273 64 273-14Q273-80 234.50-130Q196-180 132-180Q80-180 52-144.50Q24-109 24-56L24-32M273 325Q273 364 256.50 392Q240 420 204 420Q175 420 154 401Q133 382 122 352.50Q111 323 106 294Q101 265 101 239Q101 141 169 141Q201 141 223 159.50Q245 178 255 208.50Q265 239 269 266.50Q273 294 273 325Z"  horiz-adv-x="361" vert-adv-y="1000"  />

      
      <glyph glyph-name="unia8" unicode="&#xa8;" d="M393 562Q393 542 378.50 527.50Q364 513 344 513Q328 513 317.50 524.50Q307 536 307 552Q307 571 321.50 585.50Q336 600 355 600Q372 600 382.50 589Q393 578 393 562M267 562Q267 542 252.50 527.50Q238 513 218 513Q202 513 191.50 524.50Q181 536 181 552Q181 571 195.50 585.50Q210 600 229 600Q246 600 256.50 589Q267 578 267 562Z"  horiz-adv-x="493" vert-adv-y="1000"  />

      
      <glyph glyph-name="unia9" unicode="&#xa9;" d="M736 333Q736 190 635 89Q534-12 391-12Q248-12 147 89Q46 190 46 333Q46 476 147.50 577.50Q249 679 392 679Q534 679 635 577Q736 475 736 333M607 115Q607 115 651.50 160.50Q696 206 696 333Q696 460 607.50 551.50Q519 643 392 643Q264 643 175 552Q86 461 86 333Q86 206 175.50 115Q265 24 391 24Q518 24 607 115M447 199L447 147Q417 128 386 128Q338 128 305 169Q268 216 268 329Q268 539 390 539Q411 539 444 525L445 524Q446 524 447 524L447 469Q410 491 392 491Q321 491 321 335Q321 176 389 176Q409 176 447 199Z"  horiz-adv-x="756" vert-adv-y="1000"  />

      
      <glyph glyph-name="uniaa" unicode="&#xaa;" d="M244 667L208 372L166 372L168 390Q146 368 119 368Q62 368 62 448Q62 494 70.50 550.50Q79 607 97 635Q120 671 159 671Q184 671 200 652L202 667L244 667M202 330L198 297L43 297L47 330L202 330M192 586Q192 636 163 636Q144 636 132 614Q120 591 112.50 541Q105 491 105 455Q105 403 134 403Q149 403 159 415Q169 427 172 437.50Q175 448 179 466Q192 529 192 586Z"  horiz-adv-x="236" vert-adv-y="1000"  />

      
      <glyph glyph-name="uniab" unicode="&#xab;" d="M309 404L195 237L268 66L227 43L144 237L274 425L309 404M199 404L85 237L157 66L117 43L34 237L164 425L199 404Z"  horiz-adv-x="320" vert-adv-y="1000"  />

      
      <glyph glyph-name="uniac" unicode="&#xac;" d="M455 0L400 0L400 217L22 217L22 267L455 267L455 0Z"  horiz-adv-x="500" vert-adv-y="1000"  />

      
      <glyph glyph-name="uniad" unicode="&#xad;" d="M189 233L51 233L58 291L196 291L189 233Z"  horiz-adv-x="238" vert-adv-y="1000"  />

      
      <glyph glyph-name="uniae" unicode="&#xae;" d="M495 131L444 131L359 307L359 131L310 131L310 536L363 536Q426 536 453 511.50Q480 487 480 424Q480 381 462 352Q444 323 404 320L495 131M359 363L380 363Q410 363 419.50 378.50Q429 394 429 427Q429 462 418.50 477Q408 492 374 492L359 492L359 363M607 115Q607 115 651.50 160.50Q696 206 696 333Q696 460 607.50 551.50Q519 643 392 643Q264 643 175 552Q86 461 86 333Q86 206 175.50 115Q265 24 391 24Q518 24 607 115M736 333Q736 190 635 89Q534-12 391-12Q248-12 147 89Q46 190 46 333Q46 476 147.50 577.50Q249 679 392 679Q534 679 635 577Q736 475 736 333Z"  horiz-adv-x="756" vert-adv-y="1000"  />

      
      <glyph glyph-name="uniaf" unicode="&#xaf;" d="M400 575L393 520L172 520L178 575L400 575Z"  horiz-adv-x="493" vert-adv-y="1000"  />

      
      <glyph glyph-name="unib0" unicode="&#xb0;" d="M385 633Q385 633 405.50 613.50Q426 594 426 538Q426 482 385 442.50Q344 403 288 403Q232 403 191 442.50Q150 482 150 538Q150 594 191 633Q232 672 288 672Q344 672 385 633M358.50 468.50Q358.50 468.50 373.25 482.75Q388 497 388 538Q388 579 358.50 607.50Q329 636 288 636Q247 636 217.50 607.50Q188 579 188 538Q188 497 217.50 468.50Q247 440 288 440Q329 440 358.50 468.50Z"  horiz-adv-x="500" vert-adv-y="1000"  />

      
      <glyph glyph-name="unib1" unicode="&#xb1;" d="M467 342L278 342L278 166L223 166L223 342L34 342L34 393L223 393L223 570L278 570L278 393L467 393L467 342M467 71L34 71L34 123L467 123L467 71Z"  horiz-adv-x="500" vert-adv-y="1000"  />

      
      <glyph glyph-name="unib2" unicode="&#xb2;" d="M121 553L77 553Q93 673 178 673Q214 673 234.50 652.50Q255 632 255 596Q255 584 253 571.50Q251 559 248.50 549.50Q246 540 239.50 526Q233 512 230 505Q227 498 217.50 482.50Q208 467 205.50 462.50Q203 458 192 441Q181 424 179 422L105 307L215 307L210 266L34 266L142 438Q144 441 152.50 454.50Q161 468 164 473Q167 478 175 491.50Q183 505 186.50 512Q190 519 195.50 531.50Q201 544 203.50 553Q206 562 208 572.50Q210 583 210 593Q210 633 175 633Q128 633 121 553Z"  horiz-adv-x="248" vert-adv-y="1000"  />

      
      <glyph glyph-name="unib3" unicode="&#xb3;" d="M122 569L81 569Q86 614 108.50 643.50Q131 673 174 673Q209 673 229 654Q249 635 249 600Q249 560 237.50 533.50Q226 507 195 488Q217 474 224 456.50Q231 439 231 409Q231 347 206.50 304.50Q182 262 125 262Q89 262 69 281.50Q49 301 49 337Q49 353 53 381L96 381Q94 359 94 348Q94 303 130 303Q162 303 176 338Q188 369 188 404Q188 444 170 455.50Q152 467 110 467L114 505L133 505Q177 505 193 535Q205 558 205 591Q205 631 170 631Q144 631 135 615Q126 599 122 569Z"  horiz-adv-x="248" vert-adv-y="1000"  />

      
      <glyph glyph-name="unib4" unicode="&#xb4;" d="M407 610L281 507L249 533L359 653L407 610Z"  horiz-adv-x="493" vert-adv-y="1000"  />

      
      <glyph glyph-name="unib5" unicode="&#xb5;" d="M415 0L359 0L368 79Q341 30 306 9Q269-13 220-13Q166-13 131 17Q103 41 89 84L56-180L0-180L77 447L133 447L107 235Q101 193 101 167Q101 108 136 72Q173 35 228 35Q284 35 325 73Q373 119 387 231L414 447L470 447L415 0Z"  horiz-adv-x="492" vert-adv-y="1000"  />

      
      <glyph glyph-name="uni03BC" unicode="&#x03BC;" d="M415 0L359 0L368 79Q341 30 306 9Q269-13 220-13Q166-13 131 17Q103 41 89 84L56-180L0-180L77 447L133 447L107 235Q101 193 101 167Q101 108 136 72Q173 35 228 35Q284 35 325 73Q373 119 387 231L414 447L470 447L415 0Z"  horiz-adv-x="492" vert-adv-y="1000"  />

      
      <glyph glyph-name="unib6" unicode="&#xb6;" d="M538 667L533 623L477 623L388-100L340-100L428 623L317 623L228-100L179-100L230 313Q228 313 222 312.50Q216 312 214 312Q141 312 95.50 352.50Q50 393 50 465Q50 558 120 617Q180 667 290 667L538 667Z"  horiz-adv-x="554" vert-adv-y="1000"  />

      
      <glyph glyph-name="unib7" unicode="&#xb7;" d="M173 351Q173 325 153.50 305Q134 285 108 285Q83 285 70 301Q57 317 57 343Q57 366 78 384Q99 402 122 402Q144 402 158.50 387.50Q173 373 173 351Z"  horiz-adv-x="201" vert-adv-y="1000"  />

      
      <glyph glyph-name="unib8" unicode="&#xb8;" d="M269-62L170-196L138-175L227-37L269-62Z"  horiz-adv-x="493" vert-adv-y="1000"  />

      
      <glyph glyph-name="unib9" unicode="&#xb9;" d="M207 667L158 267L114 267L158 626L104 626L109 667L207 667Z"  horiz-adv-x="250" vert-adv-y="1000"  />

      
      <glyph glyph-name="uniba" unicode="&#xba;" d="M243 576Q243 545 239 514Q235 483 225 447.50Q215 412 192 390Q169 368 137 368Q66 368 66 475Q66 504 71 534.50Q76 565 87 597.50Q98 630 120.50 650.50Q143 671 174 671Q243 671 243 576M213 330L209 297L45 297L49 330L213 330M199 566Q199 631 168 631Q136 631 122 575Q108 519 108 471Q108 407 141 407Q158 407 170.50 426Q183 445 188.50 474Q194 503 196.50 526Q199 549 199 566Z"  horiz-adv-x="236" vert-adv-y="1000"  />

      
      <glyph glyph-name="unibb" unicode="&#xbb;" d="M289 237L158 43L123 66L238 237L165 404L205 425L289 237M178 237L48 43L13 66L127 237L54 404L95 425L178 237Z"  horiz-adv-x="320" vert-adv-y="1000"  />

      
      <glyph glyph-name="unibc" unicode="&#xbc;" d="M569 400L537 145L568 145L563 106L533 106L520 0L476 0L489 106L380 106L385 146L526 400L569 400M207 667L158 267L114 267L158 626L104 626L109 667L207 667M429 145L493 145Q512 292 515 310Q504 288 429 145M523 667L152 0L106 0L477 667L523 667Z"  horiz-adv-x="612" vert-adv-y="1000"  />

      
      <glyph glyph-name="unibd" unicode="&#xbd;" d="M452 287L409 287Q416 334 423 350Q447 406 509 406Q545 406 565.50 385.50Q586 365 586 329Q586 301 572 266Q558 231 546.50 211.50Q535 192 511 156L436 41L546 41L541 0L365 0L473 173Q474 175 484.50 191.50Q495 208 498.50 213.50Q502 219 510.50 234.50Q519 250 522.50 259Q526 268 531.50 281Q537 294 539 305Q541 316 541 327Q541 367 506 367Q459 367 452 287M207 667L158 267L114 267L158 626L104 626L110 667L207 667M523 667L152 0L106 0L477 667L523 667Z"  horiz-adv-x="612" vert-adv-y="1000"  />

      
      <glyph glyph-name="unibe" unicode="&#xbe;" d="M567 400L536 145L566 145L561 106L531 106L518 0L474 0L487 106L378 106L383 146L524 400L567 400M122 569L81 569Q86 614 108.50 643.50Q131 673 174 673Q209 673 229 654Q249 635 249 600Q249 560 237.50 533.50Q226 507 195 488Q217 474 224 456.50Q231 439 231 409Q231 347 206.50 304.50Q182 262 125 262Q89 262 69 281.50Q49 301 49 337Q49 353 53 381L96 381Q94 359 94 348Q94 303 130 303Q162 303 176 338Q188 369 188 404Q188 444 170 455.50Q152 467 110 467L114 505L133 505Q177 505 193 535Q205 558 205 591Q205 631 170 631Q144 631 135 615Q126 599 122 569M427 145L492 145Q503 252 514 310Q512 305 493 270L427 145M523 667L152 0L106 0L477 667L523 667Z"  horiz-adv-x="611" vert-adv-y="1000"  />

      
      <glyph glyph-name="unibf" unicode="&#xbf;" d="M265 415Q265 395 250 379.50Q235 364 215 364Q198 364 186.50 375.50Q175 387 175 404Q175 424 190.50 439Q206 454 226 454Q242 454 253.50 443Q265 432 265 415M245-51L239-98Q222-229 110-229Q65-229 40.50-203.50Q16-178 16-133Q16-111 22-67Q27-32 30.50-13Q34 6 43.50 34.50Q53 63 66 78.50Q79 94 102.50 106.50Q126 119 158 120L178 281L236 281L210 66L168 66Q136 66 121 55Q106 44 96 14Q77-46 77-119Q77-175 119-175Q132-175 142-171Q152-167 158.50-158Q165-149 169.50-140.50Q174-132 177-117.50Q180-103 181.50-95Q183-87 184.50-71Q186-55 187-51L245-51Z"  horiz-adv-x="326" vert-adv-y="1000"  />

      
      <glyph glyph-name="unic0" unicode="&#xc0;" d="M291 0L226 0L218 137L79 137L38 0L-27 0L184 667L242 667L291 0M215 191L201 426Q198 466 198 506Q198 544 201 583Q193 536 179 480Q165 424 155 389Q145 354 124 284.50Q103 215 96 191L215 191M239 740L200 714L100 817L158 860L239 740Z"  horiz-adv-x="320" vert-adv-y="1000"  />

      
      <glyph glyph-name="unic1" unicode="&#xc1;" d="M291 0L226 0L218 137L79 137L38 0L-27 0L184 667L242 667L291 0M215 191L201 426Q198 466 198 506Q198 544 201 583Q193 536 179 480Q165 424 155 389Q145 354 124 284.50Q103 215 96 191L215 191M347 817L221 714L189 740L299 860L347 817Z"  horiz-adv-x="320" vert-adv-y="1000"  />

      
      <glyph glyph-name="unic2" unicode="&#xc2;" d="M291 0L226 0L218 137L79 137L38 0L-27 0L184 667L242 667L291 0M215 191L201 426Q198 466 198 506Q198 544 201 583Q193 536 179 480Q165 424 155 389Q145 354 124 284.50Q103 215 96 191L215 191M331 752L287 714L223 783L141 714L109 752L232 859L331 752Z"  horiz-adv-x="320" vert-adv-y="1000"  />

      
      <glyph glyph-name="unic3" unicode="&#xc3;" d="M291 0L226 0L218 137L79 137L38 0L-27 0L184 667L242 667L291 0M215 191L201 426Q198 466 198 506Q198 544 201 583Q193 536 179 480Q165 424 155 389Q145 354 124 284.50Q103 215 96 191L215 191M278 802L335 802Q328 769 308 744.50Q288 720 258 720Q238 720 210 737Q182 754 173 754Q156 754 154 729L99 729Q107 762 126.50 784Q146 806 177 806Q194 806 222 790Q250 774 259 774Q275 774 278 802Z"  horiz-adv-x="320" vert-adv-y="1000"  />

      
      <glyph glyph-name="unic4" unicode="&#xc4;" d="M291 0L226 0L218 137L79 137L38 0L-27 0L184 667L242 667L291 0M215 191L201 426Q198 466 198 506Q198 544 201 583Q193 536 179 480Q165 424 155 389Q145 354 124 284.50Q103 215 96 191L215 191M323 769Q323 750 308.50 735Q294 720 274 720Q258 720 247.50 731.50Q237 743 237 759Q237 778 251.50 792.50Q266 807 285 807Q302 807 312.50 796.50Q323 786 323 769M197 769Q197 750 182.50 735Q168 720 148 720Q132 720 121.50 731.50Q111 743 111 759Q111 778 125.50 792.50Q140 807 159 807Q176 807 186.50 796.50Q197 786 197 769Z"  horiz-adv-x="320" vert-adv-y="1000"  />

      
      <glyph glyph-name="unic5" unicode="&#xc5;" d="M291 0L226 0L218 137L79 137L38 0L-27 0L184 667L242 667L291 0M215 191L201 426Q198 466 198 506Q198 544 201 583Q193 536 179 480Q165 424 155 389Q145 354 124 284.50Q103 215 96 191L215 191M271 850.50Q271 850.50 282.50 838.75Q294 827 294 794Q294 761 271 737.50Q248 714 215 714Q182 714 159 737.50Q136 761 136 794Q136 827 159 850.50Q182 874 215 874Q248 874 271 850.50M243 765.50Q243 765.50 248.50 771.25Q254 777 254 794Q254 811 242.50 822.50Q231 834 215 834Q198 834 186.50 822Q175 810 175 794Q175 778 186.50 766Q198 754 215 754Q232 754 243 765.50Z"  horiz-adv-x="320" vert-adv-y="1000"  />

      
      <glyph glyph-name="unic6" unicode="&#xc6;" d="M436 0L232 0L227 137L78 137L38 0L-27 0L184 667L403 667L406 610L265 610L278 375L411 375L414 318L281 318L296 57L434 57L436 0M225 190L213 472Q212 472 212 534L213 595Q197 531 180 473L95 190L225 190Z"  horiz-adv-x="455" vert-adv-y="1000"  />

      
      <glyph glyph-name="unic7" unicode="&#xc7;" d="M350 655L342 587Q303 616 269 616Q210 616 173 555Q139 500 122.50 399Q106 298 106 211Q106 51 194 51Q233 51 279 81L272 19Q228-9 183-9Q129-9 95.50 27Q62 63 51.50 107.50Q41 152 41 205Q41 308 67 426.50Q93 545 143 609Q197 676 273 676Q321 676 350 655M187-62L88-196L56-175L145-37L187-62Z"  horiz-adv-x="315" vert-adv-y="1000"  />

      
      <glyph glyph-name="unic8" unicode="&#xc8;" d="M313 667L306 610L162 610L133 375L273 375L267 318L126 318L94 57L238 57L231 0L26 0L108 667L313 667M259 740L220 714L120 817L178 860L259 740Z"  horiz-adv-x="297" vert-adv-y="1000"  />

      
      <glyph glyph-name="unic9" unicode="&#xc9;" d="M313 667L306 610L162 610L133 375L273 375L267 318L126 318L94 57L238 57L231 0L26 0L108 667L313 667M327 817L201 714L169 740L279 860L327 817Z"  horiz-adv-x="297" vert-adv-y="1000"  />

      
      <glyph glyph-name="unica" unicode="&#xca;" d="M313 667L306 610L162 610L133 375L273 375L267 318L126 318L94 57L238 57L231 0L26 0L108 667L313 667M336 752L292 714L228 783L146 714L114 752L237 859L336 752Z"  horiz-adv-x="297" vert-adv-y="1000"  />

      
      <glyph glyph-name="unicb" unicode="&#xcb;" d="M313 667L306 610L162 610L133 375L273 375L267 318L126 318L94 57L238 57L231 0L26 0L108 667L313 667M333 769Q333 750 318.50 735Q304 720 284 720Q268 720 257.50 731.50Q247 743 247 759Q247 778 261.50 792.50Q276 807 295 807Q312 807 322.50 796.50Q333 786 333 769M207 769Q207 750 192.50 735Q178 720 158 720Q142 720 131.50 731.50Q121 743 121 759Q121 778 135.50 792.50Q150 807 169 807Q186 807 196.50 796.50Q207 786 207 769Z"  horiz-adv-x="297" vert-adv-y="1000"  />

      
      <glyph glyph-name="unicc" unicode="&#xcc;" d="M169 667L87 0L26 0L108 667L169 667M189 740L150 714L50 817L108 860L189 740Z"  horiz-adv-x="169" vert-adv-y="1000"  />

      
      <glyph glyph-name="unicd" unicode="&#xcd;" d="M169 667L87 0L26 0L108 667L169 667M257 817L131 714L99 740L209 860L257 817Z"  horiz-adv-x="169" vert-adv-y="1000"  />

      
      <glyph glyph-name="unice" unicode="&#xce;" d="M169 667L87 0L26 0L108 667L169 667M256 752L212 714L148 783L66 714L34 752L157 859L256 752Z"  horiz-adv-x="169" vert-adv-y="1000"  />

      
      <glyph glyph-name="unicf" unicode="&#xcf;" d="M169 667L87 0L26 0L108 667L169 667M253 769Q253 750 238.50 735Q224 720 204 720Q188 720 177.50 731.50Q167 743 167 759Q167 778 181.50 792.50Q196 807 215 807Q232 807 242.50 796.50Q253 786 253 769M127 769Q127 750 112.50 735Q98 720 78 720Q62 720 51.50 731.50Q41 743 41 759Q41 778 55.50 792.50Q70 807 89 807Q106 807 116.50 796.50Q127 786 127 769Z"  horiz-adv-x="169" vert-adv-y="1000"  />

      
      <glyph glyph-name="unid0" unicode="&#xd0;" d="M108 667L185 667Q260 667 297 641Q351 601 351 499Q351 363 323 221Q312 167 298.50 130.50Q285 94 261 62.50Q237 31 199 15.50Q161 0 107 0L26 0L66 321L19 321L25 371L72 371L108 667M94 57L123 57Q167 57 194 78Q221 99 240 141Q262 189 274.50 300Q287 411 287 487Q287 546 266 578Q245 610 189 610L162 610L133 371L221 371L215 321L127 321L94 57Z"  horiz-adv-x="365" vert-adv-y="1000"  />

      
      <glyph glyph-name="unid1" unicode="&#xd1;" d="M381 667L299 0L246 0L154 440Q151 455 146.50 487Q142 519 139 534Q135 454 130 416L79 0L26 0L108 667L161 667L255 214Q257 203 261 176Q265 149 268 135Q268 184 274 232L328 667L381 667M312 802L369 802Q362 769 342 744.50Q322 720 292 720Q272 720 244 737Q216 754 207 754Q190 754 188 729L133 729Q141 762 160.50 784Q180 806 211 806Q228 806 256 790Q284 774 293 774Q309 774 312 802Z"  horiz-adv-x="381" vert-adv-y="1000"  />

      
      <glyph glyph-name="unid2" unicode="&#xd2;" d="M382 477Q382 285 335 147Q284-9 170-9Q42-9 42 206Q42 253 46.50 305.50Q51 358 65 426.50Q79 495 101 548.50Q123 602 163 639Q203 676 254 676Q382 676 382 477M321 482Q321 616 248 616Q202 616 172 564Q138 507 121 395Q104 283 104 191Q104 51 177 51Q227 51 258 109Q287 163 304 280Q321 397 321 482M282 740L243 714L143 817L201 860L282 740Z"  horiz-adv-x="398" vert-adv-y="1000"  />

      
      <glyph glyph-name="unid3" unicode="&#xd3;" d="M382 477Q382 285 335 147Q284-9 170-9Q42-9 42 206Q42 253 46.50 305.50Q51 358 65 426.50Q79 495 101 548.50Q123 602 163 639Q203 676 254 676Q382 676 382 477M321 482Q321 616 248 616Q202 616 172 564Q138 507 121 395Q104 283 104 191Q104 51 177 51Q227 51 258 109Q287 163 304 280Q321 397 321 482M380 817L254 714L222 740L332 860L380 817Z"  horiz-adv-x="398" vert-adv-y="1000"  />

      
      <glyph glyph-name="unid4" unicode="&#xd4;" d="M382 477Q382 285 335 147Q284-9 170-9Q42-9 42 206Q42 253 46.50 305.50Q51 358 65 426.50Q79 495 101 548.50Q123 602 163 639Q203 676 254 676Q382 676 382 477M321 482Q321 616 248 616Q202 616 172 564Q138 507 121 395Q104 283 104 191Q104 51 177 51Q227 51 258 109Q287 163 304 280Q321 397 321 482M369 752L325 714L261 783L179 714L147 752L270 859L369 752Z"  horiz-adv-x="398" vert-adv-y="1000"  />

      
      <glyph glyph-name="unid5" unicode="&#xd5;" d="M382 477Q382 285 335 147Q284-9 170-9Q42-9 42 206Q42 253 46.50 305.50Q51 358 65 426.50Q79 495 101 548.50Q123 602 163 639Q203 676 254 676Q382 676 382 477M321 482Q321 616 248 616Q202 616 172 564Q138 507 121 395Q104 283 104 191Q104 51 177 51Q227 51 258 109Q287 163 304 280Q321 397 321 482M321 802L378 802Q371 769 351 744.50Q331 720 301 720Q281 720 253 737Q225 754 216 754Q199 754 197 729L142 729Q150 762 169.50 784Q189 806 220 806Q237 806 265 790Q293 774 302 774Q318 774 321 802Z"  horiz-adv-x="398" vert-adv-y="1000"  />

      
      <glyph glyph-name="unid6" unicode="&#xd6;" d="M382 477Q382 285 335 147Q284-9 170-9Q42-9 42 206Q42 253 46.50 305.50Q51 358 65 426.50Q79 495 101 548.50Q123 602 163 639Q203 676 254 676Q382 676 382 477M321 482Q321 616 248 616Q202 616 172 564Q138 507 121 395Q104 283 104 191Q104 51 177 51Q227 51 258 109Q287 163 304 280Q321 397 321 482M371 769Q371 750 356.50 735Q342 720 322 720Q306 720 295.50 731.50Q285 743 285 759Q285 778 299.50 792.50Q314 807 333 807Q350 807 360.50 796.50Q371 786 371 769M245 769Q245 750 230.50 735Q216 720 196 720Q180 720 169.50 731.50Q159 743 159 759Q159 778 173.50 792.50Q188 807 207 807Q224 807 234.50 796.50Q245 786 245 769Z"  horiz-adv-x="398" vert-adv-y="1000"  />

      
      <glyph glyph-name="unid7" unicode="&#xd7;" d="M422 466L287 331L422 197L385 159L250 294L115 159L78 197L213 331L78 466L115 504L250 369L385 504L422 466Z"  horiz-adv-x="500" vert-adv-y="1000"  />

      
      <glyph glyph-name="unid8" unicode="&#xd8;" d="M436 656L385 567Q394 530 394 467Q394 294 347 147Q297-9 182-9Q114-9 83 51L47-8L11 11L64 100Q54 138 54 205Q54 252 58.50 305Q63 358 77 426.50Q91 495 113 548.50Q135 602 174.50 639Q214 676 265 676Q334 676 366 616L401 675L436 656M115 180L326 553Q310 616 259 616Q187 616 151 481Q115 345 115 180M333 486L124 114Q138 51 190 51Q265 51 298 192Q331 332 333 486Z"  horiz-adv-x="421" vert-adv-y="1000"  />

      
      <glyph glyph-name="unid9" unicode="&#xd9;" d="M384 667L327 200Q316 116 304 84Q287 39 249 15Q211-9 162-9Q103-9 73 23.50Q43 56 43 116Q43 135 50 200L108 667L169 667L112 205Q105 144 105 127Q105 51 170 51Q184 51 195 53.50Q206 56 215 63.50Q224 71 230.50 76.50Q237 82 242 95.50Q247 109 250 115Q253 121 256 138.50Q259 156 260 160Q261 164 263.50 183.50Q266 203 266 205L323 667L384 667M299 740L260 714L160 817L218 860L299 740Z"  horiz-adv-x="384" vert-adv-y="1000"  />

      
      <glyph glyph-name="unida" unicode="&#xda;" d="M384 667L327 200Q316 116 304 84Q287 39 249 15Q211-9 162-9Q103-9 73 23.50Q43 56 43 116Q43 135 50 200L108 667L169 667L112 205Q105 144 105 127Q105 51 170 51Q184 51 195 53.50Q206 56 215 63.50Q224 71 230.50 76.50Q237 82 242 95.50Q247 109 250 115Q253 121 256 138.50Q259 156 260 160Q261 164 263.50 183.50Q266 203 266 205L323 667L384 667M367 817L241 714L209 740L319 860L367 817Z"  horiz-adv-x="384" vert-adv-y="1000"  />

      
      <glyph glyph-name="unidb" unicode="&#xdb;" d="M384 667L327 200Q316 116 304 84Q287 39 249 15Q211-9 162-9Q103-9 73 23.50Q43 56 43 116Q43 135 50 200L108 667L169 667L112 205Q105 144 105 127Q105 51 170 51Q184 51 195 53.50Q206 56 215 63.50Q224 71 230.50 76.50Q237 82 242 95.50Q247 109 250 115Q253 121 256 138.50Q259 156 260 160Q261 164 263.50 183.50Q266 203 266 205L323 667L384 667M366 752L322 714L258 783L176 714L144 752L267 859L366 752Z"  horiz-adv-x="384" vert-adv-y="1000"  />

      
      <glyph glyph-name="unidc" unicode="&#xdc;" d="M384 667L327 200Q316 116 304 84Q287 39 249 15Q211-9 162-9Q103-9 73 23.50Q43 56 43 116Q43 135 50 200L108 667L169 667L112 205Q105 144 105 127Q105 51 170 51Q184 51 195 53.50Q206 56 215 63.50Q224 71 230.50 76.50Q237 82 242 95.50Q247 109 250 115Q253 121 256 138.50Q259 156 260 160Q261 164 263.50 183.50Q266 203 266 205L323 667L384 667M363 769Q363 750 348.50 735Q334 720 314 720Q298 720 287.50 731.50Q277 743 277 759Q277 778 291.50 792.50Q306 807 325 807Q342 807 352.50 796.50Q363 786 363 769M237 769Q237 750 222.50 735Q208 720 188 720Q172 720 161.50 731.50Q151 743 151 759Q151 778 165.50 792.50Q180 807 199 807Q216 807 226.50 796.50Q237 786 237 769Z"  horiz-adv-x="384" vert-adv-y="1000"  />

      
      <glyph glyph-name="unidd" unicode="&#xdd;" d="M367 667L199 289L164 0L103 0L138 289L55 667L121 667L159 476Q173 403 176 353Q194 411 220 475L301 667L367 667M327 817L201 714L169 740L279 860L327 817Z"  horiz-adv-x="315" vert-adv-y="1000"  />

      
      <glyph glyph-name="unide" unicode="&#xde;" d="M169 667L155 550Q227 550 258 538Q290 525 305 491Q320 457 320 418Q320 368 306 316.50Q292 265 262 238Q243 221 213.50 212.50Q184 204 167 203.50Q150 203 112 203L87 0L26 0L108 667L169 667M119 260L160 260Q216 260 237 301Q258 340 258 413Q258 455 238.50 474Q219 493 178 493L148 493L119 260Z"  horiz-adv-x="324" vert-adv-y="1000"  />

      
      <glyph glyph-name="unidf" unicode="&#xdf;" d="M84 447L99 560Q104 599 111 626Q118 653 132 681.50Q146 710 172.50 725Q199 740 236 740Q339 740 339 608Q339 457 254 418Q286 403 295.50 375.50Q305 348 305 304Q305 270 302.50 237.50Q300 205 291 159.50Q282 114 266 81Q250 48 219.50 24Q189 0 148 0L128 0L135 56L151 56Q184 56 200 76.50Q216 97 225 133Q249 223 249 305Q249 389 193 389L176 389L183 447L200 447Q278 447 278 597Q278 641 267.50 664.50Q257 688 227 688Q210 688 197 679Q184 670 177.50 660Q171 650 165.50 629.50Q160 609 158.50 598.50Q157 588 154 567L85 0L30 0L77 389L27 389L34 447L84 447Z"  horiz-adv-x="335" vert-adv-y="1000"  />

      
      <glyph glyph-name="unie0" unicode="&#xe0;" d="M300 447L245 0L190 0L194 36Q156-7 113-7Q31-7 31 113Q31 183 44 270.50Q57 358 83 401Q116 454 176 454Q217 454 241 417L245 447L300 447M231 327Q231 409 183 409Q151 409 130 372Q110 336 99 258.50Q88 181 88 124Q88 39 136 39Q155 39 168.50 48.50Q182 58 190 76Q198 94 201.50 108Q205 122 209 142Q231 254 231 327M224 533L185 507L85 610L143 653L224 533Z"  horiz-adv-x="322" vert-adv-y="1000"  />

      
      <glyph glyph-name="unie1" unicode="&#xe1;" d="M300 447L245 0L190 0L194 36Q156-7 113-7Q31-7 31 113Q31 183 44 270.50Q57 358 83 401Q116 454 176 454Q217 454 241 417L245 447L300 447M231 327Q231 409 183 409Q151 409 130 372Q110 336 99 258.50Q88 181 88 124Q88 39 136 39Q155 39 168.50 48.50Q182 58 190 76Q198 94 201.50 108Q205 122 209 142Q231 254 231 327M312 610L186 507L154 533L264 653L312 610Z"  horiz-adv-x="322" vert-adv-y="1000"  />

      
      <glyph glyph-name="unie2" unicode="&#xe2;" d="M300 447L245 0L190 0L194 36Q156-7 113-7Q31-7 31 113Q31 183 44 270.50Q57 358 83 401Q116 454 176 454Q217 454 241 417L245 447L300 447M231 327Q231 409 183 409Q151 409 130 372Q110 336 99 258.50Q88 181 88 124Q88 39 136 39Q155 39 168.50 48.50Q182 58 190 76Q198 94 201.50 108Q205 122 209 142Q231 254 231 327M306 545L262 507L198 576L116 507L84 545L207 652L306 545Z"  horiz-adv-x="322" vert-adv-y="1000"  />

      
      <glyph glyph-name="unie3" unicode="&#xe3;" d="M300 447L245 0L190 0L194 36Q156-7 113-7Q31-7 31 113Q31 183 44 270.50Q57 358 83 401Q116 454 176 454Q217 454 241 417L245 447L300 447M231 327Q231 409 183 409Q151 409 130 372Q110 336 99 258.50Q88 181 88 124Q88 39 136 39Q155 39 168.50 48.50Q182 58 190 76Q198 94 201.50 108Q205 122 209 142Q231 254 231 327M258 595L315 595Q308 562 288 537.50Q268 513 238 513Q218 513 190 530Q162 547 153 547Q136 547 134 522L79 522Q87 555 106.50 577Q126 599 157 599Q174 599 202 583Q230 567 239 567Q255 567 258 595Z"  horiz-adv-x="322" vert-adv-y="1000"  />

      
      <glyph glyph-name="unie4" unicode="&#xe4;" d="M300 447L245 0L190 0L194 36Q156-7 113-7Q31-7 31 113Q31 183 44 270.50Q57 358 83 401Q116 454 176 454Q217 454 241 417L245 447L300 447M231 327Q231 409 183 409Q151 409 130 372Q110 336 99 258.50Q88 181 88 124Q88 39 136 39Q155 39 168.50 48.50Q182 58 190 76Q198 94 201.50 108Q205 122 209 142Q231 254 231 327M303 562Q303 542 288.50 527.50Q274 513 254 513Q238 513 227.50 524.50Q217 536 217 552Q217 571 231.50 585.50Q246 600 265 600Q282 600 292.50 589Q303 578 303 562M177 562Q177 542 162.50 527.50Q148 513 128 513Q112 513 101.50 524.50Q91 536 91 552Q91 571 105.50 585.50Q120 600 139 600Q156 600 166.50 589Q177 578 177 562Z"  horiz-adv-x="322" vert-adv-y="1000"  />

      
      <glyph glyph-name="unie5" unicode="&#xe5;" d="M300 447L245 0L190 0L194 36Q156-7 113-7Q31-7 31 113Q31 183 44 270.50Q57 358 83 401Q116 454 176 454Q217 454 241 417L245 447L300 447M231 327Q231 409 183 409Q151 409 130 372Q110 336 99 258.50Q88 181 88 124Q88 39 136 39Q155 39 168.50 48.50Q182 58 190 76Q198 94 201.50 108Q205 122 209 142Q231 254 231 327M256 643.50Q256 643.50 267.50 631.75Q279 620 279 587Q279 554 256 530.50Q233 507 200 507Q167 507 144 530.50Q121 554 121 587Q121 620 144 643.50Q167 667 200 667Q233 667 256 643.50M228 558.50Q228 558.50 233.50 564.25Q239 570 239 587Q239 604 227.50 615.50Q216 627 200 627Q184 627 172 615.50Q160 604 160 587Q160 570 172 558.50Q184 547 200 547Q217 547 228 558.50Z"  horiz-adv-x="322" vert-adv-y="1000"  />

      
      <glyph glyph-name="unie6" unicode="&#xe6;" d="M76 366L83 428Q125 454 166 454Q246 454 271 379Q286 410 313.50 432Q341 454 373 454Q411 454 434.50 426Q458 398 465 365Q472 332 472 294Q472 268 466 214L272 214Q268 178 268 161Q268 45 328 45Q384 45 400 155L452 155Q442 91 407.50 42Q373-7 316-7Q257-7 232 67Q214 34 183.50 13.50Q153-7 117-7Q66-7 43.50 28Q21 63 21 117Q21 160 33.50 199.50Q46 239 77 268.50Q108 298 152 298Q201 298 226 261Q230 293 230 310Q230 349 212.50 375.50Q195 402 157 402Q124 402 76 366M280 261L416 261Q416 265 417 273Q418 281 418.50 287Q419 293 419 299Q419 322 415.50 342.50Q412 363 398.50 382.50Q385 402 363 402Q327 402 305.50 354.50Q284 307 280 261M214 167Q214 252 157 252Q114 252 94.50 211.50Q75 171 75 122Q75 46 131 46Q172 46 193 84Q214 122 214 167Z"  horiz-adv-x="500" vert-adv-y="1000"  />

      
      <glyph glyph-name="unie7" unicode="&#xe7;" d="M249 437L241 371Q216 402 190 402Q163 402 141 373.50Q119 345 109 315Q99 285 95 256Q87 206 87 162Q87 144 89 127Q91 110 96.50 90Q102 70 114.50 58Q127 46 145 46Q173 46 205 86L197 16Q166-7 131-7Q93-7 68.50 21Q44 49 36 82.50Q28 116 28 154Q28 220 41 276Q57 345 94.50 399.50Q132 454 190 454Q221 454 249 437M146-62L47-196L15-175L104-37L146-62Z"  horiz-adv-x="242" vert-adv-y="1000"  />

      
      <glyph glyph-name="unie8" unicode="&#xe8;" d="M207 152L263 152Q253 86 222 39.50Q191-7 132-7Q28-7 28 153Q28 219 41 277Q49 318 65 355Q81 392 113 423Q145 454 185 454Q281 454 281 299Q281 258 273 212L88 212Q83 179 83 153Q83 46 137 46Q155 46 168 56Q181 66 188.50 85.50Q196 105 199.50 118.50Q203 132 207 152M94 260L225 260Q227 292 227 311Q227 402 180 402Q117 402 94 260M229 533L190 507L90 610L148 653L229 533Z"  horiz-adv-x="308" vert-adv-y="1000"  />

      
      <glyph glyph-name="unie9" unicode="&#xe9;" d="M207 152L263 152Q253 86 222 39.50Q191-7 132-7Q28-7 28 153Q28 219 41 277Q49 318 65 355Q81 392 113 423Q145 454 185 454Q281 454 281 299Q281 258 273 212L88 212Q83 179 83 153Q83 46 137 46Q155 46 168 56Q181 66 188.50 85.50Q196 105 199.50 118.50Q203 132 207 152M94 260L225 260Q227 292 227 311Q227 402 180 402Q117 402 94 260M317 610L191 507L159 533L269 653L317 610Z"  horiz-adv-x="308" vert-adv-y="1000"  />

      
      <glyph glyph-name="uniea" unicode="&#xea;" d="M207 152L263 152Q253 86 222 39.50Q191-7 132-7Q28-7 28 153Q28 219 41 277Q49 318 65 355Q81 392 113 423Q145 454 185 454Q281 454 281 299Q281 258 273 212L88 212Q83 179 83 153Q83 46 137 46Q155 46 168 56Q181 66 188.50 85.50Q196 105 199.50 118.50Q203 132 207 152M94 260L225 260Q227 292 227 311Q227 402 180 402Q117 402 94 260M306 545L262 507L198 576L116 507L84 545L207 652L306 545Z"  horiz-adv-x="308" vert-adv-y="1000"  />

      
      <glyph glyph-name="unieb" unicode="&#xeb;" d="M207 152L263 152Q253 86 222 39.50Q191-7 132-7Q28-7 28 153Q28 219 41 277Q49 318 65 355Q81 392 113 423Q145 454 185 454Q281 454 281 299Q281 258 273 212L88 212Q83 179 83 153Q83 46 137 46Q155 46 168 56Q181 66 188.50 85.50Q196 105 199.50 118.50Q203 132 207 152M94 260L225 260Q227 292 227 311Q227 402 180 402Q117 402 94 260M303 562Q303 542 288.50 527.50Q274 513 254 513Q238 513 227.50 524.50Q217 536 217 552Q217 571 231.50 585.50Q246 600 265 600Q282 600 292.50 589Q303 578 303 562M177 562Q177 542 162.50 527.50Q148 513 128 513Q112 513 101.50 524.50Q91 536 91 552Q91 571 105.50 585.50Q120 600 139 600Q156 600 166.50 589Q177 578 177 562Z"  horiz-adv-x="308" vert-adv-y="1000"  />

      
      <glyph glyph-name="uniec" unicode="&#xec;" d="M131 447L77 0L21 0L76 447L131 447M150 533L111 507L11 610L69 653L150 533Z"  horiz-adv-x="154" vert-adv-y="1000"  />

      
      <glyph glyph-name="unied" unicode="&#xed;" d="M131 447L77 0L21 0L76 447L131 447M238 610L112 507L80 533L190 653L238 610Z"  horiz-adv-x="154" vert-adv-y="1000"  />

      
      <glyph glyph-name="uniee" unicode="&#xee;" d="M131 447L77 0L21 0L76 447L131 447M227 545L183 507L119 576L37 507L5 545L128 652L227 545Z"  horiz-adv-x="154" vert-adv-y="1000"  />

      
      <glyph glyph-name="unief" unicode="&#xef;" d="M131 447L77 0L21 0L76 447L131 447M224 562Q224 542 209 527.50Q194 513 175 513Q159 513 148.50 524.50Q138 536 138 552Q138 571 152.50 585.50Q167 600 186 600Q202 600 213 589Q224 578 224 562M98 562Q98 542 83 527.50Q68 513 49 513Q33 513 22.50 524.50Q12 536 12 552Q12 571 26.50 585.50Q41 600 60 600Q76 600 87 589Q98 578 98 562Z"  horiz-adv-x="154" vert-adv-y="1000"  />

      
      <glyph glyph-name="unif0" unicode="&#xf0;" d="M313 690L257 653Q284 617 293 576Q302 535 302 478Q302 357 285 224Q270 103 231 48Q190-7 134-7Q29-7 29 155Q29 187 33 223Q37 259 48.50 301.50Q60 344 77 377Q94 410 123 432Q152 454 188 454Q227 454 243 424Q246 484 246 502Q246 579 216 629L149 587L128 625L184 660Q157 681 104 708L129 740Q186 718 226 688L290 726L313 690M232 303Q232 402 181 402Q153 402 132.50 371Q112 340 102.50 294.50Q93 249 89 211.50Q85 174 85 147Q85 45 139 45Q167 45 186.50 76.50Q206 108 215 154.50Q224 201 228 238Q232 275 232 303Z"  horiz-adv-x="318" vert-adv-y="1000"  />

      
      <glyph glyph-name="unif1" unicode="&#xf1;" d="M131 447L127 411Q170 454 217 454Q254 454 273 431.50Q292 409 292 372Q292 350 289 331L249 0L193 0L232 321Q236 347 236 360Q236 381 225 394.50Q214 408 194 408Q125 408 114 301L77 0L21 0L76 447L131 447M270 595L327 595Q320 562 300 537.50Q280 513 250 513Q230 513 202 530Q174 547 165 547Q148 547 146 522L91 522Q99 555 118.50 577Q138 599 169 599Q186 599 214 583Q242 567 251 567Q267 567 270 595Z"  horiz-adv-x="325" vert-adv-y="1000"  />

      
      <glyph glyph-name="unif2" unicode="&#xf2;" d="M290 328L290 311Q290 264 284 217.50Q278 171 263 116Q248 61 214.50 27Q181-7 133-7Q28-7 28 155Q28 198 35 244.50Q42 291 58.50 340.50Q75 390 109 422Q143 454 189 454Q240 454 265 417.50Q290 381 290 328M232 298Q232 402 182 402Q153 402 132.50 371.50Q112 341 102.50 295Q93 249 89 212Q85 175 85 147Q85 46 138 46Q166 46 186 76Q206 106 215 151.50Q224 197 228 233.50Q232 270 232 298M234 533L195 507L95 610L153 653L234 533Z"  horiz-adv-x="318" vert-adv-y="1000"  />

      
      <glyph glyph-name="unif3" unicode="&#xf3;" d="M290 328L290 311Q290 264 284 217.50Q278 171 263 116Q248 61 214.50 27Q181-7 133-7Q28-7 28 155Q28 198 35 244.50Q42 291 58.50 340.50Q75 390 109 422Q143 454 189 454Q240 454 265 417.50Q290 381 290 328M232 298Q232 402 182 402Q153 402 132.50 371.50Q112 341 102.50 295Q93 249 89 212Q85 175 85 147Q85 46 138 46Q166 46 186 76Q206 106 215 151.50Q224 197 228 233.50Q232 270 232 298M322 610L196 507L164 533L274 653L322 610Z"  horiz-adv-x="318" vert-adv-y="1000"  />

      
      <glyph glyph-name="unif4" unicode="&#xf4;" d="M290 328L290 311Q290 264 284 217.50Q278 171 263 116Q248 61 214.50 27Q181-7 133-7Q28-7 28 155Q28 198 35 244.50Q42 291 58.50 340.50Q75 390 109 422Q143 454 189 454Q240 454 265 417.50Q290 381 290 328M232 298Q232 402 182 402Q153 402 132.50 371.50Q112 341 102.50 295Q93 249 89 212Q85 175 85 147Q85 46 138 46Q166 46 186 76Q206 106 215 151.50Q224 197 228 233.50Q232 270 232 298M311 545L267 507L203 576L121 507L89 545L212 652L311 545Z"  horiz-adv-x="318" vert-adv-y="1000"  />

      
      <glyph glyph-name="unif5" unicode="&#xf5;" d="M290 328L290 311Q290 264 284 217.50Q278 171 263 116Q248 61 214.50 27Q181-7 133-7Q28-7 28 155Q28 198 35 244.50Q42 291 58.50 340.50Q75 390 109 422Q143 454 189 454Q240 454 265 417.50Q290 381 290 328M232 298Q232 402 182 402Q153 402 132.50 371.50Q112 341 102.50 295Q93 249 89 212Q85 175 85 147Q85 46 138 46Q166 46 186 76Q206 106 215 151.50Q224 197 228 233.50Q232 270 232 298M263 595L320 595Q313 562 293 537.50Q273 513 243 513Q223 513 195 530Q167 547 158 547Q141 547 139 522L84 522Q92 555 111.50 577Q131 599 162 599Q179 599 207 583Q235 567 244 567Q260 567 263 595Z"  horiz-adv-x="318" vert-adv-y="1000"  />

      
      <glyph glyph-name="unif6" unicode="&#xf6;" d="M290 328L290 311Q290 264 284 217.50Q278 171 263 116Q248 61 214.50 27Q181-7 133-7Q28-7 28 155Q28 198 35 244.50Q42 291 58.50 340.50Q75 390 109 422Q143 454 189 454Q240 454 265 417.50Q290 381 290 328M232 298Q232 402 182 402Q153 402 132.50 371.50Q112 341 102.50 295Q93 249 89 212Q85 175 85 147Q85 46 138 46Q166 46 186 76Q206 106 215 151.50Q224 197 228 233.50Q232 270 232 298M308 562Q308 542 293 527.50Q278 513 259 513Q243 513 232.50 524.50Q222 536 222 552Q222 571 236.50 585.50Q251 600 270 600Q286 600 297 589Q308 578 308 562M182 562Q182 542 167 527.50Q152 513 133 513Q117 513 106.50 524.50Q96 536 96 552Q96 571 110.50 585.50Q125 600 144 600Q160 600 171 589Q182 578 182 562Z"  horiz-adv-x="318" vert-adv-y="1000"  />

      
      <glyph glyph-name="unif7" unicode="&#xf7;" d="M292 546Q292 546 298 540Q304 534 304 517Q304 500 292 487.50Q280 475 263 475Q246 475 233.50 487.50Q221 500 221 517Q221 534 233.50 546Q246 558 263 558Q280 558 292 546M479 305L46 305L46 357L479 357L479 305M292 174.50Q292 174.50 298 168.25Q304 162 304 145Q304 128 292 116Q280 104 263 104Q246 104 233.50 116Q221 128 221 145Q221 162 233.50 174.50Q246 187 263 187Q280 187 292 174.50Z"  horiz-adv-x="500" vert-adv-y="1000"  />

      
      <glyph glyph-name="unif8" unicode="&#xf8;" d="M339 435L297 375Q305 338 305 307Q305 261 299 214.50Q293 168 277.50 114Q262 60 228.50 26.50Q195-7 147-7Q93-7 64 37L36-3L7 15L50 77Q43 113 43 154Q43 197 50 243.50Q57 290 73.50 340Q90 390 124 422Q158 454 204 454Q254 454 282 412L311 454L339 435M99 141L240 359Q231 402 196 402Q167 402 146.50 371Q126 340 116.50 292Q107 244 103.50 208Q100 172 99 141M246 304L106 90Q117 46 152 46Q181 46 201 76.50Q221 107 230 155Q239 203 242 238Q245 273 246 304Z"  horiz-adv-x="346" vert-adv-y="1000"  />

      
      <glyph glyph-name="unif9" unicode="&#xf9;" d="M305 447L264 109Q257 55 222.50 24Q188-7 134-7Q88-7 61 18.50Q34 44 34 90Q34 103 35 109L76 447L132 447L96 156Q92 122 92 105Q92 46 142 46Q163 46 177 55Q191 64 197.50 81Q204 98 207 112Q210 126 213 147Q213 150 213.50 152Q214 154 214 156L250 447L305 447M238 533L199 507L99 610L157 653L238 533Z"  horiz-adv-x="327" vert-adv-y="1000"  />

      
      <glyph glyph-name="unifa" unicode="&#xfa;" d="M305 447L264 109Q257 55 222.50 24Q188-7 134-7Q88-7 61 18.50Q34 44 34 90Q34 103 35 109L76 447L132 447L96 156Q92 122 92 105Q92 46 142 46Q163 46 177 55Q191 64 197.50 81Q204 98 207 112Q210 126 213 147Q213 150 213.50 152Q214 154 214 156L250 447L305 447M317 610L191 507L159 533L269 653L317 610Z"  horiz-adv-x="327" vert-adv-y="1000"  />

      
      <glyph glyph-name="unifb" unicode="&#xfb;" d="M305 447L264 109Q257 55 222.50 24Q188-7 134-7Q88-7 61 18.50Q34 44 34 90Q34 103 35 109L76 447L132 447L96 156Q92 122 92 105Q92 46 142 46Q163 46 177 55Q191 64 197.50 81Q204 98 207 112Q210 126 213 147Q213 150 213.50 152Q214 154 214 156L250 447L305 447M315 545L271 507L207 576L125 507L93 545L216 652L315 545Z"  horiz-adv-x="327" vert-adv-y="1000"  />

      
      <glyph glyph-name="unifc" unicode="&#xfc;" d="M305 447L264 109Q257 55 222.50 24Q188-7 134-7Q88-7 61 18.50Q34 44 34 90Q34 103 35 109L76 447L132 447L96 156Q92 122 92 105Q92 46 142 46Q163 46 177 55Q191 64 197.50 81Q204 98 207 112Q210 126 213 147Q213 150 213.50 152Q214 154 214 156L250 447L305 447M307 562Q307 542 292.50 527.50Q278 513 258 513Q242 513 231.50 524.50Q221 536 221 552Q221 571 235.50 585.50Q250 600 269 600Q286 600 296.50 589Q307 578 307 562M181 562Q181 542 166.50 527.50Q152 513 132 513Q116 513 105.50 524.50Q95 536 95 552Q95 571 109.50 585.50Q124 600 143 600Q160 600 170.50 589Q181 578 181 562Z"  horiz-adv-x="327" vert-adv-y="1000"  />

      
      <glyph glyph-name="unifd" unicode="&#xfd;" d="M312 447L80-180L21-180L92 12L40 447L97 447L122 199Q128 144 128 87Q134 107 163 190L254 447L312 447M291 610L165 507L133 533L243 653L291 610Z"  horiz-adv-x="291" vert-adv-y="1000"  />

      
      <glyph glyph-name="unife" unicode="&#xfe;" d="M167 729L129 416Q164 454 203 454Q292 454 292 335Q292 270 280 188Q268 106 247 60Q214-7 151-7Q109-7 82 36L55-180L0-180L111 729L167 729M235 323Q235 408 184 408Q140 408 119 334Q92 238 92 113Q92 39 142 39Q162 39 176.50 53.50Q191 68 196.50 81.50Q202 95 209 119Q235 215 235 323Z"  horiz-adv-x="318" vert-adv-y="1000"  />

      
      <glyph glyph-name="uniff" unicode="&#xff;" d="M312 447L80-180L21-180L92 12L40 447L97 447L122 199Q128 144 128 87Q134 107 163 190L254 447L312 447M287 562Q287 542 272.50 527.50Q258 513 238 513Q222 513 211.50 524.50Q201 536 201 552Q201 571 215.50 585.50Q230 600 249 600Q266 600 276.50 589Q287 578 287 562M161 562Q161 542 146.50 527.50Q132 513 112 513Q96 513 85.50 524.50Q75 536 75 552Q75 571 89.50 585.50Q104 600 123 600Q140 600 150.50 589Q161 578 161 562Z"  horiz-adv-x="291" vert-adv-y="1000"  />

      
      <glyph glyph-name="uni0100" unicode="&#x0100;" d="M291 0L226 0L218 137L79 137L38 0L-27 0L184 667L242 667L291 0M215 191L201 426Q198 466 198 506Q198 544 201 583Q193 536 179 480Q165 424 155 389Q145 354 124 284.50Q103 215 96 191L215 191M330 782L323 727L102 727L108 782L330 782Z"  horiz-adv-x="320" vert-adv-y="1000"  />

      
      <glyph glyph-name="uni0101" unicode="&#x0101;" d="M300 447L245 0L190 0L194 36Q156-7 113-7Q31-7 31 113Q31 183 44 270.50Q57 358 83 401Q116 454 176 454Q217 454 241 417L245 447L300 447M231 327Q231 409 183 409Q151 409 130 372Q110 336 99 258.50Q88 181 88 124Q88 39 136 39Q155 39 168.50 48.50Q182 58 190 76Q198 94 201.50 108Q205 122 209 142Q231 254 231 327M310 575L303 520L82 520L88 575L310 575Z"  horiz-adv-x="322" vert-adv-y="1000"  />

      
      <glyph glyph-name="uni0102" unicode="&#x0102;" d="M291 0L226 0L218 137L79 137L38 0L-27 0L184 667L242 667L291 0M215 191L201 426Q198 466 198 506Q198 544 201 583Q193 536 179 480Q165 424 155 389Q145 354 124 284.50Q103 215 96 191L215 191M296 810L343 810Q333 765 296 741.50Q259 718 211 718Q164 718 132 741Q100 764 100 810L148 810Q158 769 217 769Q274 769 296 810Z"  horiz-adv-x="320" vert-adv-y="1000"  />

      
      <glyph glyph-name="uni0103" unicode="&#x0103;" d="M300 447L245 0L190 0L194 36Q156-7 113-7Q31-7 31 113Q31 183 44 270.50Q57 358 83 401Q116 454 176 454Q217 454 241 417L245 447L300 447M231 327Q231 409 183 409Q151 409 130 372Q110 336 99 258.50Q88 181 88 124Q88 39 136 39Q155 39 168.50 48.50Q182 58 190 76Q198 94 201.50 108Q205 122 209 142Q231 254 231 327M276 599L323 599Q313 554 276 530.50Q239 507 191 507Q144 507 112 530Q80 553 80 599L128 599Q138 558 197 558Q254 558 276 599Z"  horiz-adv-x="322" vert-adv-y="1000"  />

      
      <glyph glyph-name="uni0104" unicode="&#x0104;" d="M184 667L242 667L291 0L271 0L245-36Q230-61 230-77Q230-88 236-94Q245-103 265-103Q280-103 303-95L298-143Q277-152 253-152Q222-152 202-139Q179-125 179-96Q179-72 197-40Q202-33 226 0L218 137L79 137L38 0L-27 0L184 667M215 191L201 426Q198 463 198 506Q198 554 201 583Q187 511 164 423Q157 396 120 272L96 191L215 191Z"  horiz-adv-x="320" vert-adv-y="1000"  />

      
      <glyph glyph-name="uni0105" unicode="&#x0105;" d="M300 447L245 0L234 0Q219-18 207-38Q193-61 193-76Q193-89 202-95Q210-102 228-102Q243-102 266-94L261-141Q240-150 216-150Q186-150 166-137Q143-123 143-95Q143-69 160-41Q173-21 190 0L194 36Q184 19 163 7Q140-7 113-7Q79-7 58 14Q31 41 31 120Q31 181 45 275Q62 383 99 421Q130 454 178 454Q220 454 241 417L245 447L300 447M88 124Q88 69 105 52Q118 39 137 39Q158 39 174 54Q200 78 217 184Q231 274 231 326Q231 378 212 397Q200 409 183 409Q160 409 144 392Q111 357 97 242Q88 170 88 124Z"  horiz-adv-x="322" vert-adv-y="1000"  />

      
      <glyph glyph-name="uni0106" unicode="&#x0106;" d="M350 655L342 587Q303 616 269 616Q210 616 173 555Q139 500 122.50 399Q106 298 106 211Q106 51 194 51Q233 51 279 81L272 19Q228-9 183-9Q129-9 95.50 27Q62 63 51.50 107.50Q41 152 41 205Q41 308 67 426.50Q93 545 143 609Q197 676 273 676Q321 676 350 655M407 817L281 714L249 740L359 860L407 817Z"  horiz-adv-x="315" vert-adv-y="1000"  />

      
      <glyph glyph-name="uni0107" unicode="&#x0107;" d="M249 437L241 371Q216 402 190 402Q163 402 141 373.50Q119 345 109 315Q99 285 95 256Q87 206 87 162Q87 144 89 127Q91 110 96.50 90Q102 70 114.50 58Q127 46 145 46Q173 46 205 86L197 16Q166-7 131-7Q93-7 68.50 21Q44 49 36 82.50Q28 116 28 154Q28 220 41 276Q57 345 94.50 399.50Q132 454 190 454Q221 454 249 437M322 610L196 507L164 533L274 653L322 610Z"  horiz-adv-x="242" vert-adv-y="1000"  />

      
      <glyph glyph-name="uni0108" unicode="&#x0108;" d="M350 655L342 587Q303 616 269 616Q210 616 173 555Q139 500 122.50 399Q106 298 106 211Q106 51 194 51Q233 51 279 81L272 19Q228-9 183-9Q129-9 95.50 27Q62 63 51.50 107.50Q41 152 41 205Q41 308 67 426.50Q93 545 143 609Q197 676 273 676Q321 676 350 655M396 752L352 714L288 783L206 714L174 752L297 859L396 752Z"  horiz-adv-x="315" vert-adv-y="1000"  />

      
      <glyph glyph-name="uni0109" unicode="&#x0109;" d="M249 437L241 371Q216 402 190 402Q163 402 141 373.50Q119 345 109 315Q99 285 95 256Q87 206 87 162Q87 144 89 127Q91 110 96.50 90Q102 70 114.50 58Q127 46 145 46Q173 46 205 86L197 16Q166-7 131-7Q93-7 68.50 21Q44 49 36 82.50Q28 116 28 154Q28 220 41 276Q57 345 94.50 399.50Q132 454 190 454Q221 454 249 437M311 545L267 507L203 576L121 507L89 545L212 652L311 545Z"  horiz-adv-x="242" vert-adv-y="1000"  />

      
      <glyph glyph-name="uni010A" unicode="&#x010A;" d="M350 655L342 587Q303 616 269 616Q210 616 173 555Q139 500 122.50 399Q106 298 106 211Q106 51 194 51Q233 51 279 81L272 19Q228-9 183-9Q129-9 95.50 27Q62 63 51.50 107.50Q41 152 41 205Q41 308 67 426.50Q93 545 143 609Q197 676 273 676Q321 676 350 655M324 771Q324 751 308.50 735.50Q293 720 273 720Q257 720 245.50 731.50Q234 743 234 760Q234 780 249.50 795.50Q265 811 285 811Q302 811 313 799.50Q324 788 324 771Z"  horiz-adv-x="315" vert-adv-y="1000"  />

      
      <glyph glyph-name="uni010B" unicode="&#x010B;" d="M249 437L241 371Q216 402 190 402Q163 402 141 373.50Q119 345 109 315Q99 285 95 256Q87 206 87 162Q87 144 89 127Q91 110 96.50 90Q102 70 114.50 58Q127 46 145 46Q173 46 205 86L197 16Q166-7 131-7Q93-7 68.50 21Q44 49 36 82.50Q28 116 28 154Q28 220 41 276Q57 345 94.50 399.50Q132 454 190 454Q221 454 249 437M241 564Q241 544 225.50 528.50Q210 513 190 513Q174 513 162.50 524.50Q151 536 151 553Q151 573 166.50 588.50Q182 604 202 604Q219 604 230 592.50Q241 581 241 564Z"  horiz-adv-x="242" vert-adv-y="1000"  />

      
      <glyph glyph-name="uni010C" unicode="&#x010C;" d="M350 655L342 587Q303 616 269 616Q210 616 173 555Q139 500 122.50 399Q106 298 106 211Q106 51 194 51Q233 51 279 81L272 19Q228-9 183-9Q129-9 95.50 27Q62 63 51.50 107.50Q41 152 41 205Q41 308 67 426.50Q93 545 143 609Q197 676 273 676Q321 676 350 655M405 821L279 714L183 821L224 859L288 790L370 859L405 821Z"  horiz-adv-x="315" vert-adv-y="1000"  />

      
      <glyph glyph-name="uni010D" unicode="&#x010D;" d="M249 437L241 371Q216 402 190 402Q163 402 141 373.50Q119 345 109 315Q99 285 95 256Q87 206 87 162Q87 144 89 127Q91 110 96.50 90Q102 70 114.50 58Q127 46 145 46Q173 46 205 86L197 16Q166-7 131-7Q93-7 68.50 21Q44 49 36 82.50Q28 116 28 154Q28 220 41 276Q57 345 94.50 399.50Q132 454 190 454Q221 454 249 437M320 614L194 507L98 614L139 652L203 583L285 652L320 614Z"  horiz-adv-x="242" vert-adv-y="1000"  />

      
      <glyph glyph-name="uni010E" unicode="&#x010E;" d="M108 667L184 667Q275 667 313 627Q351 587 351 496Q351 310 310 165Q287 81 239.50 40.50Q192 0 107 0L26 0L108 667M94 57L123 57Q173 57 202 85Q235 115 251 172Q287 301 287 486Q287 547 266.50 578.50Q246 610 188 610L162 610L94 57M341 821L215 714L119 821L160 859L224 790L306 859L341 821Z"  horiz-adv-x="365" vert-adv-y="1000"  />

      
      <glyph glyph-name="uni010F" unicode="&#x010F;" d="M331 729L240 0L185 0L189 36Q151-7 108-7Q26-7 26 113Q26 184 39 270.50Q52 357 78 401Q111 454 170 454Q193 454 207.50 445.50Q222 437 236 417L275 729L331 729M225 327Q225 409 178 409Q147 409 126 372Q106 336 94.50 259Q83 182 83 124Q83 39 131 39Q150 39 163.50 48.50Q177 58 185 76Q193 94 197 107.50Q201 121 205 142Q225 253 225 327M472 648L366 462L329 481L417 676L472 648Z"  horiz-adv-x="397" vert-adv-y="1000"  />

      
      <glyph glyph-name="uni0110" unicode="&#x0110;" d="M108 667L185 667Q260 667 297 641Q351 601 351 499Q351 363 323 221Q312 167 298.50 130.50Q285 94 261 62.50Q237 31 199 15.50Q161 0 107 0L26 0L66 321L19 321L25 371L72 371L108 667M94 57L123 57Q167 57 194 78Q221 99 240 141Q262 189 274.50 300Q287 411 287 487Q287 546 266 578Q245 610 189 610L162 610L133 371L221 371L215 321L127 321L94 57Z"  horiz-adv-x="365" vert-adv-y="1000"  />

      
      <glyph glyph-name="uni0111" unicode="&#x0111;" d="M233 397L248 523L145 523L152 575L255 575L274 729L330 729L311 574L361 574L354 522L305 522L240 0L185 0L189 36Q157-7 110-7Q78-7 57 14Q26 45 26 124Q26 197 46 285Q66 370 102 406Q130 434 167 434Q212 434 233 397M176 389Q156 389 141 374Q112 342 96 257Q83 194 83 124Q83 70 102 51Q114 39 131 39Q154 39 168 53Q193 76 209 164Q224 252 224 296Q224 356 203 377Q191 389 176 389Z"  horiz-adv-x="323" vert-adv-y="1000"  />

      
      <glyph glyph-name="uni0112" unicode="&#x0112;" d="M313 667L306 610L162 610L133 375L273 375L267 318L126 318L94 57L238 57L231 0L26 0L108 667L313 667M335 782L328 727L107 727L113 782L335 782Z"  horiz-adv-x="297" vert-adv-y="1000"  />

      
      <glyph glyph-name="uni0113" unicode="&#x0113;" d="M207 152L263 152Q253 86 222 39.50Q191-7 132-7Q28-7 28 153Q28 219 41 277Q49 318 65 355Q81 392 113 423Q145 454 185 454Q281 454 281 299Q281 258 273 212L88 212Q83 179 83 153Q83 46 137 46Q155 46 168 56Q181 66 188.50 85.50Q196 105 199.50 118.50Q203 132 207 152M94 260L225 260Q227 292 227 311Q227 402 180 402Q117 402 94 260M310 575L303 520L82 520L88 575L310 575Z"  horiz-adv-x="308" vert-adv-y="1000"  />

      
      <glyph glyph-name="uni0116" unicode="&#x0116;" d="M313 667L306 610L162 610L133 375L273 375L267 318L126 318L94 57L238 57L231 0L26 0L108 667L313 667M267 771Q267 751 251.50 735.50Q236 720 216 720Q200 720 188.50 731.50Q177 743 177 760Q177 780 192.50 795.50Q208 811 228 811Q245 811 256 799.50Q267 788 267 771Z"  horiz-adv-x="297" vert-adv-y="1000"  />

      
      <glyph glyph-name="uni0117" unicode="&#x0117;" d="M207 152L263 152Q253 86 222 39.50Q191-7 132-7Q28-7 28 153Q28 219 41 277Q49 318 65 355Q81 392 113 423Q145 454 185 454Q281 454 281 299Q281 258 273 212L88 212Q83 179 83 153Q83 46 137 46Q155 46 168 56Q181 66 188.50 85.50Q196 105 199.50 118.50Q203 132 207 152M94 260L225 260Q227 292 227 311Q227 402 180 402Q117 402 94 260M242 564Q242 544 226.50 528.50Q211 513 191 513Q175 513 163.50 524.50Q152 536 152 553Q152 573 167.50 588.50Q183 604 203 604Q220 604 231 592.50Q242 581 242 564Z"  horiz-adv-x="308" vert-adv-y="1000"  />

      
      <glyph glyph-name="uni0118" unicode="&#x0118;" d="M313 667L306 610L162 610L133 375L273 375L267 318L126 318L94 57L238 57L231 0L203 0L177-36Q162-61 162-77Q162-88 168-94Q177-103 197-103Q212-103 235-95L230-143Q209-152 185-152Q154-152 134-139Q111-125 111-96Q111-72 129-40Q134-33 158 0L26 0L108 667L313 667Z"  horiz-adv-x="297" vert-adv-y="1000"  />

      
      <glyph glyph-name="uni0119" unicode="&#x0119;" d="M207 152L263 152Q256 113 244 80Q232 47 210 19Q176-27 172-33Q157-57 157-76Q157-89 166-95Q174-102 191-102Q211-102 229-94L224-141Q202-150 180-150Q150-150 129-137Q106-123 106-95Q106-55 147-7Q91-7 64 20Q28 56 28 154Q28 242 49 312Q70 381 108 419Q143 454 185 454Q219 454 243 432Q281 396 281 300Q281 260 273 212L88 212Q83 182 83 147Q83 86 103 62Q116 46 137 46Q158 46 173 62Q196 86 207 152M94 260L225 260Q225 263 226 282Q227 301 227 309Q227 371 207 391Q196 402 180 402Q159 402 141 384Q109 352 94 260Z"  horiz-adv-x="308" vert-adv-y="1000"  />

      
      <glyph glyph-name="uni011A" unicode="&#x011A;" d="M313 667L306 610L162 610L133 375L273 375L267 318L126 318L94 57L238 57L231 0L26 0L108 667L313 667M345 821L219 714L123 821L164 859L228 790L310 859L345 821Z"  horiz-adv-x="297" vert-adv-y="1000"  />

      
      <glyph glyph-name="uni011B" unicode="&#x011B;" d="M207 152L263 152Q253 86 222 39.50Q191-7 132-7Q28-7 28 153Q28 219 41 277Q49 318 65 355Q81 392 113 423Q145 454 185 454Q281 454 281 299Q281 258 273 212L88 212Q83 179 83 153Q83 46 137 46Q155 46 168 56Q181 66 188.50 85.50Q196 105 199.50 118.50Q203 132 207 152M94 260L225 260Q227 292 227 311Q227 402 180 402Q117 402 94 260M315 614L189 507L93 614L134 652L198 583L280 652L315 614Z"  horiz-adv-x="308" vert-adv-y="1000"  />

      
      <glyph glyph-name="uni011C" unicode="&#x011C;" d="M369 550L306 526Q302 616 244 616Q166 616 134 466Q102 324 102 179Q102 154 104 137Q106 120 112 97.50Q118 75 133.50 63Q149 51 173 51Q221 51 244 100Q251 115 257.50 144Q264 173 266.50 192Q269 211 273.50 251.50Q278 292 278 295L189 295L196 352L346 352L330 218Q322 154 313 121Q297 62 258 26.50Q219-9 161-9Q40-9 40 160Q40 359 81 507Q101 580 142.50 628Q184 676 252 676Q309 676 335.50 643Q362 610 369 550M376 752L332 714L268 783L186 714L154 752L277 859L376 752Z"  horiz-adv-x="368" vert-adv-y="1000"  />

      
      <glyph glyph-name="uni011D" unicode="&#x011D;" d="M304 447L246-29Q245-33 243.50-46.50Q242-60 241.50-65Q241-70 238.50-80.50Q236-91 234-97.50Q232-104 227.50-112.50Q223-121 218-129Q187-180 111-180Q12-180 12-79Q12-65 16-39L71-39Q69-57 69-68Q69-127 121-127Q146-127 161.50-113Q177-99 181.50-83Q186-67 189-40Q190-28 192.50-4.50Q195 19 197 32Q163 0 122 0Q32 0 32 130Q32 174 37 220.50Q42 267 55.50 324.50Q69 382 100 418Q131 454 176 454Q218 454 245 416L249 447L304 447M234 321Q234 408 183 408Q161 408 145.50 392Q130 376 124 360Q118 344 112 319Q89 222 89 136Q89 46 141 46Q160 46 173.50 55.50Q187 65 195 84.50Q203 104 206.50 116Q210 128 214 150Q234 252 234 321M306 545L262 507L198 576L116 507L84 545L207 652L306 545Z"  horiz-adv-x="326" vert-adv-y="1000"  />

      
      <glyph glyph-name="uni011E" unicode="&#x011E;" d="M369 550L306 526Q302 616 244 616Q166 616 134 466Q102 324 102 179Q102 154 104 137Q106 120 112 97.50Q118 75 133.50 63Q149 51 173 51Q221 51 244 100Q251 115 257.50 144Q264 173 266.50 192Q269 211 273.50 251.50Q278 292 278 295L189 295L196 352L346 352L330 218Q322 154 313 121Q297 62 258 26.50Q219-9 161-9Q40-9 40 160Q40 359 81 507Q101 580 142.50 628Q184 676 252 676Q309 676 335.50 643Q362 610 369 550M341 810L388 810Q378 765 341 741.50Q304 718 256 718Q209 718 177 741Q145 764 145 810L193 810Q203 769 262 769Q319 769 341 810Z"  horiz-adv-x="368" vert-adv-y="1000"  />

      
      <glyph glyph-name="uni011F" unicode="&#x011F;" d="M304 447L246-29Q245-33 243.50-46.50Q242-60 241.50-65Q241-70 238.50-80.50Q236-91 234-97.50Q232-104 227.50-112.50Q223-121 218-129Q187-180 111-180Q12-180 12-79Q12-65 16-39L71-39Q69-57 69-68Q69-127 121-127Q146-127 161.50-113Q177-99 181.50-83Q186-67 189-40Q190-28 192.50-4.50Q195 19 197 32Q163 0 122 0Q32 0 32 130Q32 174 37 220.50Q42 267 55.50 324.50Q69 382 100 418Q131 454 176 454Q218 454 245 416L249 447L304 447M234 321Q234 408 183 408Q161 408 145.50 392Q130 376 124 360Q118 344 112 319Q89 222 89 136Q89 46 141 46Q160 46 173.50 55.50Q187 65 195 84.50Q203 104 206.50 116Q210 128 214 150Q234 252 234 321M276 599L323 599Q313 554 276 530.50Q239 507 191 507Q144 507 112 530Q80 553 80 599L128 599Q138 558 197 558Q254 558 276 599Z"  horiz-adv-x="326" vert-adv-y="1000"  />

      
      <glyph glyph-name="uni0120" unicode="&#x0120;" d="M369 550L306 526Q302 616 244 616Q166 616 134 466Q102 324 102 179Q102 154 104 137Q106 120 112 97.50Q118 75 133.50 63Q149 51 173 51Q221 51 244 100Q251 115 257.50 144Q264 173 266.50 192Q269 211 273.50 251.50Q278 292 278 295L189 295L196 352L346 352L330 218Q322 154 313 121Q297 62 258 26.50Q219-9 161-9Q40-9 40 160Q40 359 81 507Q101 580 142.50 628Q184 676 252 676Q309 676 335.50 643Q362 610 369 550M307 771Q307 751 291.50 735.50Q276 720 256 720Q240 720 228.50 731.50Q217 743 217 760Q217 780 232.50 795.50Q248 811 268 811Q285 811 296 799.50Q307 788 307 771Z"  horiz-adv-x="368" vert-adv-y="1000"  />

      
      <glyph glyph-name="uni0121" unicode="&#x0121;" d="M304 447L246-29Q245-33 243.50-46.50Q242-60 241.50-65Q241-70 238.50-80.50Q236-91 234-97.50Q232-104 227.50-112.50Q223-121 218-129Q187-180 111-180Q12-180 12-79Q12-65 16-39L71-39Q69-57 69-68Q69-127 121-127Q146-127 161.50-113Q177-99 181.50-83Q186-67 189-40Q190-28 192.50-4.50Q195 19 197 32Q163 0 122 0Q32 0 32 130Q32 174 37 220.50Q42 267 55.50 324.50Q69 382 100 418Q131 454 176 454Q218 454 245 416L249 447L304 447M234 321Q234 408 183 408Q161 408 145.50 392Q130 376 124 360Q118 344 112 319Q89 222 89 136Q89 46 141 46Q160 46 173.50 55.50Q187 65 195 84.50Q203 104 206.50 116Q210 128 214 150Q234 252 234 321M242 564Q242 544 226.50 528.50Q211 513 191 513Q175 513 163.50 524.50Q152 536 152 553Q152 573 167.50 588.50Q183 604 203 604Q220 604 231 592.50Q242 581 242 564Z"  horiz-adv-x="326" vert-adv-y="1000"  />

      
      <glyph glyph-name="uni0122" unicode="&#x0122;" d="M369 550L306 526Q302 616 244 616Q166 616 134 466Q102 324 102 179Q102 154 104 137Q106 120 112 97.50Q118 75 133.50 63Q149 51 173 51Q221 51 244 100Q251 115 257.50 144Q264 173 266.50 192Q269 211 273.50 251.50Q278 292 278 295L189 295L196 352L346 352L330 218Q322 154 313 121Q297 62 258 26.50Q219-9 161-9Q40-9 40 160Q40 359 81 507Q101 580 142.50 628Q184 676 252 676Q309 676 335.50 643Q362 610 369 550M192-77L101-231L64-212L137-49L192-77Z"  horiz-adv-x="368" vert-adv-y="1000"  />

      
      <glyph glyph-name="uni0123" unicode="&#x0123;" d="M304 447L246-29Q245-33 243.50-46.50Q242-60 241.50-65Q241-70 238.50-80.50Q236-91 234-97.50Q232-104 227.50-112.50Q223-121 218-129Q187-180 111-180Q12-180 12-79Q12-65 16-39L71-39Q69-57 69-68Q69-127 121-127Q146-127 161.50-113Q177-99 181.50-83Q186-67 189-40Q190-28 192.50-4.50Q195 19 197 32Q163 0 122 0Q32 0 32 130Q32 174 37 220.50Q42 267 55.50 324.50Q69 382 100 418Q131 454 176 454Q218 454 245 416L249 447L304 447M234 321Q234 408 183 408Q161 408 145.50 392Q130 376 124 360Q118 344 112 319Q89 222 89 136Q89 46 141 46Q160 46 173.50 55.50Q187 65 195 84.50Q203 104 206.50 116Q210 128 214 150Q234 252 234 321M137 523L228 677L265 658L192 495L137 523Z"  horiz-adv-x="326" vert-adv-y="1000"  />

      
      <glyph glyph-name="uni0124" unicode="&#x0124;" d="M380 667L298 0L237 0L279 344L129 344L87 0L26 0L108 667L169 667L136 401L286 401L319 667L380 667M366 752L322 714L258 783L176 714L144 752L267 859L366 752Z"  horiz-adv-x="380" vert-adv-y="1000"  />

      
      <glyph glyph-name="uni0125" unicode="&#x0125;" d="M166 729L127 411Q170 454 218 454Q292 454 292 376Q292 352 289 331L249 0L193 0L232 321Q236 347 236 360Q236 381 225 394.50Q214 408 194 408Q125 408 114 301L77 0L21 0L111 729L166 729M256 795L212 757L148 826L66 757L34 795L157 902L256 795Z"  horiz-adv-x="325" vert-adv-y="1000"  />

      
      <glyph glyph-name="uni0126" unicode="&#x0126;" d="M129 344L87 0L26 0L95 562L45 562L51 609L101 609L108 667L169 667L162 609L312 609L319 667L380 667L373 609L423 609L417 562L367 562L298 0L237 0L279 344L129 344M306 562L156 562L136 401L286 401L306 562Z"  horiz-adv-x="380" vert-adv-y="1000"  />

      
      <glyph glyph-name="uni0127" unicode="&#x0127;" d="M21 0L85 522L36 522L43 574L92 574L110 729L166 729L147 574L251 574L244 522L140 522L124 391Q167 434 215 434Q289 434 289 356Q289 332 286 311L249 0L193 0L230 301Q234 327 234 340Q234 361 223 374.50Q212 388 192 388Q123 388 112 281L77 0L21 0Z"  horiz-adv-x="322" vert-adv-y="1000"  />

      
      <glyph glyph-name="uni012A" unicode="&#x012A;" d="M169 667L87 0L26 0L108 667L169 667M255 782L248 727L27 727L33 782L255 782Z"  horiz-adv-x="169" vert-adv-y="1000"  />

      
      <glyph glyph-name="uni012B" unicode="&#x012B;" d="M131 447L77 0L21 0L76 447L131 447M231 575L224 520L3 520L9 575L231 575Z"  horiz-adv-x="154" vert-adv-y="1000"  />

      
      <glyph glyph-name="uni012E" unicode="&#x012E;" d="M169 667L87 0Q75-16 61-36Q46-59 46-77Q46-88 52-94Q61-103 81-103Q96-103 119-95L114-143Q93-152 69-152Q38-152 18-139Q-5-125-5-96Q-5-72 13-40Q18-33 42 0L26 0L108 667L169 667Z"  horiz-adv-x="169" vert-adv-y="1000"  />

      
      <glyph glyph-name="uni012F" unicode="&#x012F;" d="M163 593Q163 574 149 560Q135 546 116 546Q100 546 89.50 556.50Q79 567 79 582Q79 602 93.50 616Q108 630 127 630Q142 630 152.50 619.50Q163 609 163 593M109-95L104-143Q83-152 59-152Q28-152 8-139Q-15-125-15-96Q-15-72 3-40Q8-33 32 0L21 0L76 447L131 447L77 0Q65-16 51-36Q36-59 36-77Q36-88 42-94Q51-103 71-103Q86-103 109-95Z"  horiz-adv-x="154" vert-adv-y="1000"  />

      
      <glyph glyph-name="uni0130" unicode="&#x0130;" d="M169 667L87 0L26 0L108 667L169 667M197 771Q197 751 181.50 735.50Q166 720 146 720Q130 720 118.50 731.50Q107 743 107 760Q107 780 122.50 795.50Q138 811 158 811Q175 811 186 799.50Q197 788 197 771Z"  horiz-adv-x="169" vert-adv-y="1000"  />

      
      <glyph glyph-name="uni0131" unicode="&#x0131;" d="M131 447L77 0L21 0L76 447L131 447Z"  horiz-adv-x="154" vert-adv-y="1000"  />

      
      <glyph glyph-name="uni0134" unicode="&#x0134;" d="M221 667L153 114Q153 112 151.50 101.50Q150 91 149.50 88Q149 85 148 76Q147 67 145.50 62.50Q144 58 141.50 50.50Q139 43 136.50 38.50Q134 34 130 28Q126 22 121 18Q92-10 42-10Q10-10-26 8L-18 72Q12 44 39 44Q51 44 60.50 48.50Q70 53 74.50 56.50Q79 60 83 72Q87 84 88 88Q89 92 91 108.50Q93 125 93 127L160 667L221 667M306 752L262 714L198 783L116 714L84 752L207 859L306 752Z"  horiz-adv-x="221" vert-adv-y="1000"  />

      
      <glyph glyph-name="uni0135" unicode="&#x0135;" d="M136 447L59-180L3-180L80 447L136 447M229 545L185 507L121 576L39 507L7 545L130 652L229 545Z"  horiz-adv-x="158" vert-adv-y="1000"  />

      
      <glyph glyph-name="uni0136" unicode="&#x0136;" d="M365 667L185 347L283 0L219 0L128 336L87 0L26 0L108 667L169 667L132 364L301 667L365 667M192-77L101-231L64-212L137-49L192-77Z"  horiz-adv-x="320" vert-adv-y="1000"  />

      
      <glyph glyph-name="uni0137" unicode="&#x0137;" d="M304 447L149 240L277 0L214 0L103 214L77 0L21 0L111 729L166 729L110 265L241 447L304 447M192-77L101-231L64-212L137-49L192-77Z"  horiz-adv-x="305" vert-adv-y="1000"  />

      
      <glyph glyph-name="uni0139" unicode="&#x0139;" d="M236 57L229 0L26 0L108 667L169 667L94 57L236 57M290 817L164 714L132 740L242 860L290 817Z"  horiz-adv-x="259" vert-adv-y="1000"  />

      
      <glyph glyph-name="uni013A" unicode="&#x013A;" d="M166 729L77 0L21 0L111 729L166 729M277 860L151 757L119 783L229 903L277 860Z"  horiz-adv-x="154" vert-adv-y="1000"  />

      
      <glyph glyph-name="uni013B" unicode="&#x013B;" d="M236 57L229 0L26 0L108 667L169 667L94 57L236 57M172-77L81-231L44-212L117-49L172-77Z"  horiz-adv-x="259" vert-adv-y="1000"  />

      
      <glyph glyph-name="uni013C" unicode="&#x013C;" d="M166 729L77 0L21 0L111 729L166 729M72-77L-19-231L-56-212L17-49L72-77Z"  horiz-adv-x="154" vert-adv-y="1000"  />

      
      <glyph glyph-name="uni013D" unicode="&#x013D;" d="M236 57L229 0L26 0L108 667L169 667L94 57L236 57M352 648L246 462L209 481L297 676L352 648Z"  horiz-adv-x="259" vert-adv-y="1000"  />

      
      <glyph glyph-name="uni013E" unicode="&#x013E;" d="M166 729L77 0L21 0L111 729L166 729M312 648L206 462L169 481L257 676L312 648Z"  horiz-adv-x="237" vert-adv-y="1000"  />

      
      <glyph glyph-name="uni013F" unicode="&#x013F;" d="M236 57L229 0L26 0L108 667L169 667L94 57L236 57M273 339Q273 319 257.50 303.50Q242 288 222 288Q206 288 194.50 299.50Q183 311 183 328Q183 348 198.50 363.50Q214 379 234 379Q251 379 262 367.50Q273 356 273 339Z"  horiz-adv-x="259" vert-adv-y="1000"  />

      
      <glyph glyph-name="uni0140" unicode="&#x0140;" d="M166 729L77 0L21 0L111 729L166 729M256 370Q256 350 240.50 334.50Q225 319 205 319Q189 319 177.50 330.50Q166 342 166 359Q166 379 181.50 394.50Q197 410 217 410Q234 410 245 398.50Q256 387 256 370Z"  horiz-adv-x="232" vert-adv-y="1000"  />

      
      <glyph glyph-name="uni0141" unicode="&#x0141;" d="M236 57L229 0L26 0L61 281L6 233L14 299L69 348L108 667L169 667L135 388L230 469L221 403L127 322L94 57L236 57Z"  horiz-adv-x="259" vert-adv-y="1000"  />

      
      <glyph glyph-name="uni0142" unicode="&#x0142;" d="M197 486L189 422L134 373L87 0L32 0L73 340L17 290L25 355L81 405L121 729L177 729L142 437L197 486Z"  horiz-adv-x="180" vert-adv-y="1000"  />

      
      <glyph glyph-name="uni0143" unicode="&#x0143;" d="M381 667L299 0L246 0L154 440Q151 455 146.50 487Q142 519 139 534Q135 454 130 416L79 0L26 0L108 667L161 667L255 214Q257 203 261 176Q265 149 268 135Q268 184 274 232L328 667L381 667M361 817L235 714L203 740L313 860L361 817Z"  horiz-adv-x="381" vert-adv-y="1000"  />

      
      <glyph glyph-name="uni0144" unicode="&#x0144;" d="M131 447L127 411Q170 454 217 454Q254 454 273 431.50Q292 409 292 372Q292 350 289 331L249 0L193 0L232 321Q236 347 236 360Q236 381 225 394.50Q214 408 194 408Q125 408 114 301L77 0L21 0L76 447L131 447M307 610L181 507L149 533L259 653L307 610Z"  horiz-adv-x="325" vert-adv-y="1000"  />

      
      <glyph glyph-name="uni0145" unicode="&#x0145;" d="M381 667L299 0L246 0L154 440Q151 455 146.50 487Q142 519 139 534Q135 454 130 416L79 0L26 0L108 667L161 667L255 214Q257 203 261 176Q265 149 268 135Q268 184 274 232L328 667L381 667M207-77L116-231L79-212L152-49L207-77Z"  horiz-adv-x="381" vert-adv-y="1000"  />

      
      <glyph glyph-name="uni0146" unicode="&#x0146;" d="M131 447L127 411Q170 454 217 454Q254 454 273 431.50Q292 409 292 372Q292 350 289 331L249 0L193 0L232 321Q236 347 236 360Q236 381 225 394.50Q214 408 194 408Q125 408 114 301L77 0L21 0L76 447L131 447M182-77L91-231L54-212L127-49L182-77Z"  horiz-adv-x="325" vert-adv-y="1000"  />

      
      <glyph glyph-name="uni0147" unicode="&#x0147;" d="M381 667L299 0L246 0L154 440Q151 455 146.50 487Q142 519 139 534Q135 454 130 416L79 0L26 0L108 667L161 667L255 214Q257 203 261 176Q265 149 268 135Q268 184 274 232L328 667L381 667M375 821L249 714L153 821L194 859L258 790L340 859L375 821Z"  horiz-adv-x="381" vert-adv-y="1000"  />

      
      <glyph glyph-name="uni0148" unicode="&#x0148;" d="M131 447L127 411Q170 454 217 454Q254 454 273 431.50Q292 409 292 372Q292 350 289 331L249 0L193 0L232 321Q236 347 236 360Q236 381 225 394.50Q214 408 194 408Q125 408 114 301L77 0L21 0L76 447L131 447M335 614L209 507L113 614L154 652L218 583L300 652L335 614Z"  horiz-adv-x="325" vert-adv-y="1000"  />

      
      <glyph glyph-name="uni014C" unicode="&#x014C;" d="M382 477Q382 285 335 147Q284-9 170-9Q42-9 42 206Q42 253 46.50 305.50Q51 358 65 426.50Q79 495 101 548.50Q123 602 163 639Q203 676 254 676Q382 676 382 477M321 482Q321 616 248 616Q202 616 172 564Q138 507 121 395Q104 283 104 191Q104 51 177 51Q227 51 258 109Q287 163 304 280Q321 397 321 482M378 782L371 727L150 727L156 782L378 782Z"  horiz-adv-x="398" vert-adv-y="1000"  />

      
      <glyph glyph-name="uni014D" unicode="&#x014D;" d="M290 328L290 311Q290 264 284 217.50Q278 171 263 116Q248 61 214.50 27Q181-7 133-7Q28-7 28 155Q28 198 35 244.50Q42 291 58.50 340.50Q75 390 109 422Q143 454 189 454Q240 454 265 417.50Q290 381 290 328M232 298Q232 402 182 402Q153 402 132.50 371.50Q112 341 102.50 295Q93 249 89 212Q85 175 85 147Q85 46 138 46Q166 46 186 76Q206 106 215 151.50Q224 197 228 233.50Q232 270 232 298M315 575L308 520L87 520L93 575L315 575Z"  horiz-adv-x="318" vert-adv-y="1000"  />

      
      <glyph glyph-name="uni014E" unicode="&#x014E;" d="M382 477Q382 285 335 147Q284-9 170-9Q42-9 42 206Q42 253 46.50 305.50Q51 358 65 426.50Q79 495 101 548.50Q123 602 163 639Q203 676 254 676Q382 676 382 477M321 482Q321 616 248 616Q202 616 172 564Q138 507 121 395Q104 283 104 191Q104 51 177 51Q227 51 258 109Q287 163 304 280Q321 397 321 482M344 810L391 810Q381 765 344 741.50Q307 718 259 718Q212 718 180 741Q148 764 148 810L196 810Q206 769 265 769Q322 769 344 810Z"  horiz-adv-x="398" vert-adv-y="1000"  />

      
      <glyph glyph-name="uni014F" unicode="&#x014F;" d="M290 328L290 311Q290 264 284 217.50Q278 171 263 116Q248 61 214.50 27Q181-7 133-7Q28-7 28 155Q28 198 35 244.50Q42 291 58.50 340.50Q75 390 109 422Q143 454 189 454Q240 454 265 417.50Q290 381 290 328M232 298Q232 402 182 402Q153 402 132.50 371.50Q112 341 102.50 295Q93 249 89 212Q85 175 85 147Q85 46 138 46Q166 46 186 76Q206 106 215 151.50Q224 197 228 233.50Q232 270 232 298M281 599L328 599Q318 554 281 530.50Q244 507 196 507Q149 507 117 530Q85 553 85 599L133 599Q143 558 202 558Q259 558 281 599Z"  horiz-adv-x="318" vert-adv-y="1000"  />

      
      <glyph glyph-name="uni0150" unicode="&#x0150;" d="M382 477Q382 285 335 147Q284-9 170-9Q42-9 42 206Q42 253 46.50 305.50Q51 358 65 426.50Q79 495 101 548.50Q123 602 163 639Q203 676 254 676Q382 676 382 477M321 482Q321 616 248 616Q202 616 172 564Q138 507 121 395Q104 283 104 191Q104 51 177 51Q227 51 258 109Q287 163 304 280Q321 397 321 482M409 830L326 714L291 727L356 852L409 830M308 830L225 714L190 727L255 852L308 830Z"  horiz-adv-x="398" vert-adv-y="1000"  />

      
      </font>
</defs>
</svg>
