<?xml version="1.0" standalone="no"?>
  <!DOCTYPE svg PUBLIC "-//W3C//DTD SVG 1.1//EN" "http://www.w3.org/Graphics/SVG/1.1/DTD/svg11.dtd" >
  <svg>
  <metadata>
  Created by font-carrier
  </metadata>
  <defs>
  <font id="FuturaPTCond-ExtraBold" horiz-adv-x="1061" vert-adv-y="1061" >
    <font-face
      
      font-family="Futura PT Cond Extra Bold"
      
      font-weight="400"
      
      font-stretch="normal"
      
      units-per-em="1000"
      
      ascent="982"
      
      descent="-300"
      
    />
      <missing-glyph />

      

      
      <glyph glyph-name="uni21" unicode="&#x21;" d="M251 240L75 240L75 690L251 690L251 240M232.50 163Q232.50 163 247.25 148Q262 133 262 91Q262 49 232.50 19.50Q203-10 161-10Q120-10 90 20Q60 50 60 91Q60 133 89.50 163Q119 193 161 193Q203 193 232.50 163Z"  horiz-adv-x="322" vert-adv-y="1000"  />

      
      <glyph glyph-name="uni22" unicode="&#x22;" d="M372 667L348 399L252 399L228 667L372 667M185 667L160 399L65 399L41 667L185 667Z"  horiz-adv-x="413" vert-adv-y="1000"  />

      
      <glyph glyph-name="uni23" unicode="&#x23;" d="M606 498L588 382L488 382L475 299L576 299L559 182L457 182L428 0L294 0L324 182L239 182L210 0L78 0L108 182L6 182L24 299L125 299L139 382L38 382L56 498L157 498L184 667L316 667L288 498L373 498L400 667L533 667L506 498L606 498M355 382L270 382L257 299L342 299L355 382Z"  horiz-adv-x="600" vert-adv-y="1000"  />

      
      <glyph glyph-name="uni24" unicode="&#x24;" d="M424 646L424 444Q368 515 315 515Q297 515 283.50 504.50Q270 494 270 476Q270 457 287.50 439.50Q305 422 330.50 404Q356 386 381 363Q406 340 423.50 301.50Q441 263 441 214Q441 136 396 74Q367 33 313 7L313-94L229-94L229-9Q184-7 157-1.50Q130 4 92 21L92 229Q140 154 207 154Q229 154 244.50 165Q260 176 260 197Q260 215 242.50 234Q225 253 200.50 273Q176 293 151.50 317.50Q127 342 109.50 379.50Q92 417 92 462Q92 550 146 613Q177 650 235 674L235 767L318 767L318 679Q373 672 424 646Z"  horiz-adv-x="532" vert-adv-y="1000"  />

      
      <glyph glyph-name="uni25" unicode="&#x25;" d="M278.50 623.50Q278.50 623.50 297.25 599.75Q316 576 316 502Q316 428 279.50 378.50Q243 329 175 329Q103 329 65 376.50Q27 424 27 503Q27 579 65 625Q103 671 173 671Q241 671 278.50 623.50M199 503Q199 573 172 573Q144 573 144 499Q144 426 172 426Q199 426 199 503M555 667L267 0L175 0L465 667L555 667M663.50 289.50Q663.50 289.50 682.25 265.75Q701 242 701 168Q701 94 664.50 44.50Q628-5 560-5Q488-5 450 42.50Q412 90 412 169Q412 245 450 291Q488 337 558 337Q626 337 663.50 289.50M584 169Q584 239 557 239Q529 239 529 165Q529 92 557 92Q584 92 584 169Z"  horiz-adv-x="727" vert-adv-y="1000"  />

      
      <glyph glyph-name="uni26" unicode="&#x26;" d="M620 0L425 0L399 36Q326-12 251-12Q164-12 102 48Q40 108 40 194Q40 307 155 371Q103 436 103 502Q103 577 158 628Q213 679 289 679Q368 679 429.50 627.50Q491 576 491 499Q491 399 378 325L443 239Q469 265 505 316L597 194Q558 152 528 124L620 0M339 507Q339 521 328 531.50Q317 542 303 542Q288 542 277 532Q266 522 266 507Q266 483 298 440Q339 479 339 507M308 160L242 247Q211 230 211 198Q211 176 225.50 159.50Q240 143 262 143Q284 143 308 160Z"  horiz-adv-x="630" vert-adv-y="1000"  />

      
      <glyph glyph-name="uni27" unicode="&#x27;" d="M185 667L160 399L65 399L41 667L185 667Z"  horiz-adv-x="225" vert-adv-y="1000"  />

      
      <glyph glyph-name="uni28" unicode="&#x28;" d="M301-148L172-217Q47 4 47 259Q47 514 172 737L301 668Q201 466 201 259Q201 54 301-148Z"  horiz-adv-x="335" vert-adv-y="1000"  />

      
      <glyph glyph-name="uni29" unicode="&#x29;" d="M162-217L33-148Q133 54 133 259Q133 466 33 668L162 737Q287 514 287 259Q287 4 162-217Z"  horiz-adv-x="334" vert-adv-y="1000"  />

      
      <glyph glyph-name="uni2a" unicode="&#x2a;" d="M454 552L348 524L418 439L326 373L267 466L208 373L116 439L186 524L79 552L114 660L217 619L210 729L323 729L317 619L419 660L454 552Z"  horiz-adv-x="533" vert-adv-y="1000"  />

      
      <glyph glyph-name="uni2b" unicode="&#x2b;" d="M467 280L315 280L315 127L185 127L185 280L33 280L33 400L185 400L185 553L315 553L315 400L467 400L467 280Z"  horiz-adv-x="500" vert-adv-y="1000"  />

      
      <glyph glyph-name="uni2c" unicode="&#x2c;" d="M263 159L146-161L4-161L86 159L263 159Z"  horiz-adv-x="293" vert-adv-y="1000"  />

      
      <glyph glyph-name="uni2d" unicode="&#x2d;" d="M267 186L50 186L50 320L267 320L267 186Z"  horiz-adv-x="317" vert-adv-y="1000"  />

      
      <glyph glyph-name="uni2e" unicode="&#x2e;" d="M248 90Q248 49 218 19.50Q188-10 147-10Q105-10 75 20Q45 50 45 92Q45 133 75 162.50Q105 192 146 192Q188 192 218 162Q248 132 248 90Z"  horiz-adv-x="294" vert-adv-y="1000"  />

      
      <glyph glyph-name="uni2f" unicode="&#x2f;" d="M583 729L75-216L-45-216L463 729L583 729Z"  horiz-adv-x="625" vert-adv-y="1000"  />

      
      <glyph glyph-name="uni30" unicode="&#x30;" d="M490.50 453Q490.50 453 496.25 425Q502 397 502 336Q502 275 491 219Q480 163 456 108.50Q432 54 385 21Q338-12 273-12Q218-12 175 10Q132 32 105.50 66.50Q79 101 61.50 148.50Q44 196 37.50 242.50Q31 289 31 339Q31 400 43 456.50Q55 513 81 564.50Q107 616 155.50 647.50Q204 679 269 679Q334 679 381.50 647Q429 615 454 562Q479 509 490.50 453M324 314L324 356Q324 523 264 523Q208 523 208 358Q208 310 212 271Q212 268 213 257.50Q214 247 214.50 241Q215 235 216.50 223.50Q218 212 220 204Q222 196 224.50 186Q227 176 231 169.50Q235 163 240 156.50Q245 150 251.50 147Q258 144 266 144Q324 144 324 314Z"  horiz-adv-x="532" vert-adv-y="1000"  />

      
      <glyph glyph-name="uni31" unicode="&#x31;" d="M386 0L206 0L206 510L134 510L134 667L386 667L386 0Z"  horiz-adv-x="532" vert-adv-y="1000"  />

      
      <glyph glyph-name="uni32" unicode="&#x32;" d="M236 425L61 425Q60 433 60 449Q60 548 121.50 613.50Q183 679 282 679Q377 679 436.50 617.50Q496 556 496 461Q496 309 321 148Q357 151 487 153L487 0L29 0L211 243Q244 287 262 314Q280 341 300 387Q320 433 320 471Q320 494 309.50 512.50Q299 531 278 531Q235 531 235 449Q235 433 236 425Z"  horiz-adv-x="532" vert-adv-y="1000"  />

      
      <glyph glyph-name="uni33" unicode="&#x33;" d="M226 477L52 477Q59 569 117.50 624Q176 679 268 679Q353 679 414.50 624Q476 569 476 485Q476 391 395 345Q484 293 484 190Q484 97 418.50 42.50Q353-12 258-12Q165-12 102 41.50Q39 95 39 186L39 196L215 196Q215 136 259 136Q283 136 295.50 154.50Q308 173 308 198Q308 231 288.50 249.50Q269 268 236 268Q226 268 204 266L204 408Q211 407 226 407Q264 407 282 422.50Q300 438 300 475Q300 530 261 530Q228 530 226 477Z"  horiz-adv-x="532" vert-adv-y="1000"  />

      
      <glyph glyph-name="uni34" unicode="&#x34;" d="M506 135L449 135L449 0L269 0L269 135L27 135L27 276L228 667L449 667L449 279L506 279L506 135M176 279L275 279Q277 412 282 479Q219 345 176 279Z"  horiz-adv-x="532" vert-adv-y="1000"  />

      
      <glyph glyph-name="uni35" unicode="&#x35;" d="M273 510L259 435Q269 436 289 436Q374 436 429 375.50Q484 315 484 230Q484 125 410.50 56.50Q337-12 231-12Q136-12 47 40L69 198Q145 152 211 152Q249 152 276.50 171Q304 190 304 227Q304 267 272.50 284Q241 301 197 301Q141 301 80 278L131 667L463 667L463 510L273 510Z"  horiz-adv-x="532" vert-adv-y="1000"  />

      
      <glyph glyph-name="uni36" unicode="&#x36;" d="M404 667L297 477Q283 452 264 425Q298 443 328 443Q404 443 448 376.50Q492 310 492 230Q492 124 428.50 56Q365-12 260-12Q159-12 100.50 57Q42 126 42 229Q42 269 51 311.50Q60 354 85.50 413Q111 472 121.50 495.50Q132 519 171.50 592.50Q211 666 211 667L404 667M319 227Q319 313 268 313Q218 313 218 224Q218 132 268 132Q319 132 319 227Z"  horiz-adv-x="532" vert-adv-y="1000"  />

      
      <glyph glyph-name="uni37" unicode="&#x37;" d="M533 667L233 0L39 0L200 355Q230 423 286 510L60 510L60 667L533 667Z"  horiz-adv-x="532" vert-adv-y="1000"  />

      
      <glyph glyph-name="uni38" unicode="&#x38;" d="M494 190Q494 99 426.50 43.50Q359-12 266-12Q176-12 107.50 44.50Q39 101 39 189Q39 301 152 347Q52 381 52 487Q52 573 114 626Q176 679 263 679Q351 679 416.50 627.50Q482 576 482 491Q482 391 390 347Q494 303 494 190M295.50 437Q295.50 437 299.75 446Q304 455 304 477Q304 499 295 517Q286 535 266 535Q230 535 230 479Q230 456 238.50 437.50Q247 419 267 419Q287 419 295.50 437M310 210Q310 235 299.50 256Q289 277 266 277Q244 277 233 255Q222 233 222 208Q222 183 233 162.50Q244 142 267 142Q290 142 300 163Q310 184 310 210Z"  horiz-adv-x="532" vert-adv-y="1000"  />

      
      <glyph glyph-name="uni39" unicode="&#x39;" d="M321 0L128 0Q233 189 267 242Q235 223 204 223Q128 223 84 289.50Q40 356 40 436Q40 541 103.50 610Q167 679 272 679Q373 679 431.50 610Q490 541 490 438Q490 398 481 355.50Q472 313 446.50 254Q421 195 410.50 171.50Q400 148 360.50 74.50Q321 1 321 0M314 443Q314 535 265 535Q213 535 213 440Q213 353 265 353Q314 353 314 443Z"  horiz-adv-x="532" vert-adv-y="1000"  />

      
      <glyph glyph-name="uni3a" unicode="&#x3a;" d="M248 375Q248 334 218 304.50Q188 275 147 275Q105 275 75 305Q45 335 45 377Q45 418 75 447.50Q105 477 146 477Q188 477 218 447Q248 417 248 375M248 90Q248 49 218 19.50Q188-10 147-10Q105-10 75 20Q45 50 45 92Q45 133 75 162.50Q105 192 146 192Q188 192 218 162Q248 132 248 90Z"  horiz-adv-x="294" vert-adv-y="1000"  />

      
      <glyph glyph-name="uni3b" unicode="&#x3b;" d="M251 447Q251 447 266 432Q281 417 281 375Q281 333 251.50 304Q222 275 180 275Q138 275 108.50 305Q79 335 79 377Q79 418 108.50 447.50Q138 477 179 477Q221 477 251 447M263 159L146-161L4-161L86 159L263 159Z"  horiz-adv-x="293" vert-adv-y="1000"  />

      
      <glyph glyph-name="uni3c" unicode="&#x3c;" d="M467 58L33 280L33 389L467 609L467 481L170 334L466 186L467 58Z"  horiz-adv-x="500" vert-adv-y="1000"  />

      
      <glyph glyph-name="uni3d" unicode="&#x3d;" d="M467 370L33 370L33 483L467 483L467 370M467 197L33 197L33 310L467 310L467 197Z"  horiz-adv-x="500" vert-adv-y="1000"  />

      
      <glyph glyph-name="uni3e" unicode="&#x3e;" d="M467 279L33 58L33 187L330 334L34 481L33 609L467 388L467 279Z"  horiz-adv-x="500" vert-adv-y="1000"  />

      
      <glyph glyph-name="uni3f" unicode="&#x3f;" d="M40 478Q40 523 45 549.50Q50 576 68 607Q94 652 144.50 677Q195 702 251 702Q347 702 407.50 640.50Q468 579 468 483Q468 418 435.50 369.50Q403 321 340 304L340 240L169 240L169 399Q187 397 196 397Q243 397 266 416.50Q289 436 289 480Q289 554 251 554Q213 554 213 478L40 478M184.50 20Q184.50 20 169.75 35Q155 50 155 92Q155 134 184.50 163.50Q214 193 256 193Q298 193 327.50 163.50Q357 134 357 92Q357 50 327.50 20Q298-10 256-10Q214-10 184.50 20Z"  horiz-adv-x="508" vert-adv-y="1000"  />

      
      <glyph glyph-name="uni40" unicode="&#x40;" d="M570 98L590 18Q501-12 391-12Q313-12 250 9Q151 42 92 131.50Q33 221 33 328Q33 475 135.50 576.50Q238 678 385 678Q517 678 608.50 596Q700 514 700 384Q700 334 683 286Q663 233 624 193.50Q585 154 536 154Q510 154 487.50 168.50Q465 183 458 208Q414 145 334 145Q272 145 232.50 192Q193 239 193 302Q193 378 243.50 440Q294 502 368 502Q434 502 465 454L472 492L561 491L524 302Q518 274 518 259Q518 227 540 227Q566 227 586 258.50Q606 290 614 324.50Q622 359 622 384Q622 482 555 540Q488 598 389 598Q275 598 197.50 519Q120 440 120 326Q120 215 194 138Q261 68 389 68Q482 68 570 98M443 340Q443 368 425.50 388.50Q408 409 380 409Q343 409 319 376.50Q295 344 295 306Q295 276 312 256Q329 236 358 236Q395 236 419 269Q443 302 443 340Z"  horiz-adv-x="733" vert-adv-y="1000"  />

      
      <glyph glyph-name="uni41" unicode="&#x41;" d="M527 0L341 0L327 85L206 85L191 0L5 0L166 667L386 667L527 0M230 227L306 227Q283 382 272 507Q270 492 266.50 460Q263 428 261 413Q246 310 230 227Z"  horiz-adv-x="532" vert-adv-y="1000"  />

      
      <glyph glyph-name="uni42" unicode="&#x42;" d="M47 667L256 667Q347 667 399 637Q441 613 464 570.50Q487 528 487 478Q487 353 363 342Q500 325 500 191Q500 104 443.50 52Q387 0 299 0L47 0L47 667M227 522L227 408Q231 407 238 407Q268 407 288.50 421.50Q309 436 309 465Q309 494 291.50 508.50Q274 523 245 523Q233 523 227 522M227 272L227 145Q232 144 242 144Q274 144 295 160.50Q316 177 316 209Q316 241 295 257Q274 273 241 273Q238 273 234 272.50Q230 272 227 272Z"  horiz-adv-x="530" vert-adv-y="1000"  />

      
      <glyph glyph-name="uni43" unicode="&#x43;" d="M422 205L411 12Q356-12 304-12Q235-12 181 17.50Q127 47 95 96.50Q63 146 46.50 205.50Q30 265 30 331Q30 426 61 503Q92 580 160.50 629.50Q229 679 325 679Q374 679 414 662L414 472Q376 512 331 512Q287 512 259 482Q231 452 222.50 415Q214 378 214 334Q214 291 222.50 255.50Q231 220 258 191Q285 162 328 162Q374 162 422 205Z"  horiz-adv-x="445" vert-adv-y="1000"  />

      
      <glyph glyph-name="uni44" unicode="&#x44;" d="M47 667L202 667Q350 667 428.50 575Q507 483 507 333Q507 209 461 128Q422 57 362 28.50Q302 0 215 0L47 0L47 667M227 500L227 161Q323 164 323 328Q323 356 319.50 382Q316 408 306.50 436.50Q297 465 276.50 482.50Q256 500 227 500Z"  horiz-adv-x="537" vert-adv-y="1000"  />

      
      <glyph glyph-name="uni45" unicode="&#x45;" d="M381 0L47 0L47 667L381 667L381 510L227 510L227 413L365 413L365 262L227 262L227 160L381 160L381 0Z"  horiz-adv-x="411" vert-adv-y="1000"  />

      
      <glyph glyph-name="uni46" unicode="&#x46;" d="M365 510L227 510L227 413L355 413L355 262L227 262L227 0L47 0L47 667L365 667L365 510Z"  horiz-adv-x="388" vert-adv-y="1000"  />

      
      <glyph glyph-name="uni47" unicode="&#x47;" d="M530 385L530 358Q530 188 486 103Q457 47 404 17.50Q351-12 287-12Q231-12 186.50 8Q142 28 113 61Q84 94 65 139Q46 184 38 231Q30 278 30 330Q30 396 43.50 454.50Q57 513 85.50 565Q114 617 165.50 648Q217 679 287 679Q444 679 516 514L341 450Q338 476 325 497Q312 518 288 518Q214 518 214 314Q214 149 282 149Q316 149 330.50 178.50Q345 208 345 245L279 245L279 385L530 385Z"  horiz-adv-x="560" vert-adv-y="1000"  />

      
      <glyph glyph-name="uni48" unicode="&#x48;" d="M493 0L313 0L313 268L227 268L227 0L47 0L47 667L227 667L227 431L313 431L313 667L493 667L493 0Z"  horiz-adv-x="539" vert-adv-y="1000"  />

      
      <glyph glyph-name="uni49" unicode="&#x49;" d="M227 0L47 0L47 667L227 667L227 0Z"  horiz-adv-x="273" vert-adv-y="1000"  />

      
      <glyph glyph-name="uni4a" unicode="&#x4a;" d="M307 667L307 204Q307 123 285 79Q240-12 118-12Q61-12 0 10L0 196Q31 157 72 157Q127 157 127 239L127 667L307 667Z"  horiz-adv-x="354" vert-adv-y="1000"  />

      
      <glyph glyph-name="uni4b" unicode="&#x4b;" d="M536 0L342 0L222 319L227 0L47 0L47 667L227 667L222 369L328 667L518 667L376 345L536 0Z"  horiz-adv-x="541" vert-adv-y="1000"  />

      
      <glyph glyph-name="uni4c" unicode="&#x4c;" d="M362 0L47 0L47 667L227 667L227 160L362 160L362 0Z"  horiz-adv-x="369" vert-adv-y="1000"  />

      
      <glyph glyph-name="uni4d" unicode="&#x4d;" d="M733 0L545 0L531 304Q530 324 529 364.50Q528 405 527 425Q521 360 509 297L453 0L306 0L254 321Q248 355 242 425Q242 409 241.50 378.50Q241 348 240.50 323.50Q240 299 239 277L223 0L30 0L108 667L332 667Q378 394 384 312Q390 366 399 421Q408 476 424.50 559Q441 642 446 667L668 667L733 0Z"  horiz-adv-x="766" vert-adv-y="1000"  />

      
      <glyph glyph-name="uni4e" unicode="&#x4e;" d="M516 0L344 0Q333 31 309 93Q285 155 271 192.50Q257 230 239 284Q221 338 208 384Q219 228 219 170L219 0L47 0L47 667L219 667L309 433Q329 382 364 265Q344 429 344 511L344 667L516 667L516 0Z"  horiz-adv-x="563" vert-adv-y="1000"  />

      
      <glyph glyph-name="uni4f" unicode="&#x4f;" d="M537 340Q537 277 523.50 218.50Q510 160 482.50 106.50Q455 53 404.50 20.50Q354-12 287-12Q179-12 105 77Q30 168 30 340Q30 402 45 460Q60 518 89 568Q118 618 169 648.50Q220 679 286 679Q339 679 382 658.50Q425 638 453 604.50Q481 571 500.50 526Q520 481 528.50 434.50Q537 388 537 340M350 333Q350 511 285 511Q263 511 248.50 490.50Q234 470 227.50 437.50Q221 405 219 381Q217 357 217 334Q217 310 219 287Q221 264 226.50 231Q232 198 246.50 177.50Q261 157 283 157Q305 157 319.50 177.50Q334 198 340 230Q346 262 348 286Q350 310 350 333Z"  horiz-adv-x="567" vert-adv-y="1000"  />

      
      <glyph glyph-name="uni50" unicode="&#x50;" d="M47 667L221 667Q312 667 369 642Q428 616 458.50 561.50Q489 507 489 440Q489 322 417.50 265Q346 208 227 219L227 0L47 0L47 667M227 368L236 368Q268 368 287.50 389Q307 410 307 443Q307 476 289 498.50Q271 521 239 521L227 521L227 368Z"  horiz-adv-x="505" vert-adv-y="1000"  />

      
      <glyph glyph-name="uni51" unicode="&#x51;" d="M544-14L399-93L338-4Q314-12 284-12Q230-12 186.50 9Q143 30 114 64Q85 98 66 143.50Q47 189 38.50 236Q30 283 30 332Q30 395 44 454Q58 513 86 564.50Q114 616 165.50 647.50Q217 679 284 679Q349 679 399.50 648.50Q450 618 479 567.50Q508 517 522.50 459.50Q537 402 537 341Q537 166 462 78L544-14M351 339Q351 362 349 386Q347 410 340.50 441Q334 472 318.50 491.50Q303 511 281 511Q261 511 247 490Q233 469 227 436Q221 403 219 378.50Q217 354 217 332Q217 157 284 157Q351 157 351 339Z"  horiz-adv-x="574" vert-adv-y="1000"  />

      
      <glyph glyph-name="uni52" unicode="&#x52;" d="M521 0L326 0Q233 252 224 277Q227 233 227 189L227 0L47 0L47 667L231 667Q315 667 370 644Q428 619 459 564.50Q490 510 490 444Q490 324 387 277L521 0M227 358L239 358Q272 358 291.50 383Q311 408 311 442Q311 517 227 517L227 358Z"  horiz-adv-x="533" vert-adv-y="1000"  />

      
      <glyph glyph-name="uni53" unicode="&#x53;" d="M362 645L362 441Q314 514 256 514Q238 514 223.50 503Q209 492 209 474Q209 456 226.50 438.50Q244 421 269.50 403Q295 385 320.50 362Q346 339 363.50 300.50Q381 262 381 214Q381 119 322 53.50Q263-12 169-12Q102-12 33 17L33 226Q86 153 147 153Q168 153 184 164.50Q200 176 200 197Q200 216 182.50 234.50Q165 253 140 272Q115 291 90 314Q65 337 47.50 375Q30 413 30 460Q30 549 87.50 614Q145 679 233 679Q297 679 362 645Z"  horiz-adv-x="404" vert-adv-y="1000"  />

      
      <glyph glyph-name="uni54" unicode="&#x54;" d="M378 507L279 507L279 0L99 0L99 507L0 507L0 667L378 667L378 507Z"  horiz-adv-x="378" vert-adv-y="1000"  />

      
      <glyph glyph-name="uni55" unicode="&#x55;" d="M499 667L499 195Q499 143 484.50 107.50Q470 72 432 40Q372-12 281-12Q177-12 112 46Q47 104 47 220L47 667L227 667L227 236Q227 213 228.50 199Q230 185 241 171Q252 157 273 157Q286 157 295.50 162.50Q305 168 309.50 174.50Q314 181 316 194Q318 207 318.50 214.50Q319 222 319 236L319 667L499 667Z"  horiz-adv-x="545" vert-adv-y="1000"  />

      
      <glyph glyph-name="uni56" unicode="&#x56;" d="M518 667L336 0L153 0L0 667L189 667Q241 369 252 232Q258 298 262 336Q270 393 280 446L322 667L518 667Z"  horiz-adv-x="518" vert-adv-y="1000"  />

      
      <glyph glyph-name="uni57" unicode="&#x57;" d="M753 667L618 0L445 0Q389 310 377 417Q374 394 368 334Q362 274 358 242L324 0L148 0L0 667L178 667Q189 599 215 426L224 369Q226 349 230 309.50Q234 270 237 250Q238 262 241.50 301Q245 340 248 361Q259 438 299 667L454 667L484 506Q505 392 522 242Q534 388 545 460L577 667L753 667Z"  horiz-adv-x="753" vert-adv-y="1000"  />

      
      <glyph glyph-name="uni58" unicode="&#x58;" d="M517 0L317 0Q308 24 293 70Q278 116 275 124Q260 168 258 179Q255 169 249 149.50Q243 130 240 120Q235 103 196 0L0 0L162 346L9 667L209 667Q212 656 231.50 598Q251 540 260 509Q267 541 303 667L505 667L353 346L517 0Z"  horiz-adv-x="517" vert-adv-y="1000"  />

      
      <glyph glyph-name="uni59" unicode="&#x59;" d="M500 667L346 282L346 0L166 0L166 282L0 667L188 667Q240 506 251 461Q280 567 314 667L500 667Z"  horiz-adv-x="500" vert-adv-y="1000"  />

      
      <glyph glyph-name="uni5a" unicode="&#x5a;" d="M498 667L498 648Q480 608 443.50 526.50Q407 445 385 396Q363 347 330.50 278Q298 209 270 152Q305 155 476 160L476 0L17 0L17 14L160 340Q203 437 250 510L56 510L56 667L498 667Z"  horiz-adv-x="515" vert-adv-y="1000"  />

      
      <glyph glyph-name="uni5b" unicode="&#x5b;" d="M315-209L60-209L60 729L315 729L315 610L213 610L213-89L315-89L315-209Z"  horiz-adv-x="349" vert-adv-y="1000"  />

      
      <glyph glyph-name="uni5c" unicode="&#x5c;" d="M42 729L162 729L670-216L550-216L42 729Z"  horiz-adv-x="625" vert-adv-y="1000"  />

      
      <glyph glyph-name="uni5d" unicode="&#x5d;" d="M289-209L33-209L33-89L136-89L136 610L33 610L33 729L289 729L289-209Z"  horiz-adv-x="349" vert-adv-y="1000"  />

      
      <glyph glyph-name="uni5e" unicode="&#x5e;" d="M496 330L360 330L250 563L140 330L5 330L165 667L335 667L496 330Z"  horiz-adv-x="500" vert-adv-y="1000"  />

      
      <glyph glyph-name="uni5f" unicode="&#x5f;" d="M500-166L0-166L0-46L500-46L500-166Z"  horiz-adv-x="500" vert-adv-y="1000"  />

      
      <glyph glyph-name="uni60" unicode="&#x60;" d="M304 530L204 530L117 678L256 678L304 530Z"  horiz-adv-x="500" vert-adv-y="1000"  />

      
      <glyph glyph-name="uni61" unicode="&#x61;" d="M457 0L283 0Q284 13 286 39.50Q288 66 289 79Q244-10 169-10Q127-10 97.50 15Q68 40 53.50 80.50Q39 121 33 159Q27 197 27 236Q27 276 33.50 314Q40 352 55 390.50Q70 429 100.50 453Q131 477 173 477Q246 477 285 393Q284 401 283 427Q282 453 280 467L457 467L457 0M281 254Q281 334 245 334Q201 334 201 217Q201 133 240 133Q247 133 253.50 136Q260 139 264 145Q268 151 271 157Q274 163 276 173.50Q278 184 279 190.50Q280 197 280.50 209Q281 221 281 226Q281 231 281 242Q281 253 281 254Z"  horiz-adv-x="497" vert-adv-y="1000"  />

      
      <glyph glyph-name="uni62" unicode="&#x62;" d="M213 729L213 474Q213 449 211 399Q252 477 322 477Q366 477 397.50 452.50Q429 428 443.50 388Q458 348 464 309.50Q470 271 470 229Q470 188 463.50 150Q457 112 441.50 74Q426 36 394.50 13Q363-10 320-10Q259-10 213 63Q217 21 217 0L40 0L40 729L213 729M291 234Q291 333 247 333Q208 333 208 238Q208 139 248 139Q291 139 291 234Z"  horiz-adv-x="497" vert-adv-y="1000"  />

      
      <glyph glyph-name="uni63" unicode="&#x63;" d="M283 152L283-7Q259-10 236-10Q138-10 82.50 63Q27 136 27 236Q27 336 88.50 406.50Q150 477 248 477Q259 477 283 475L283 323Q206 318 206 239Q206 207 223.50 179.50Q241 152 271 152L283 152Z"  horiz-adv-x="303" vert-adv-y="1000"  />

      
      <glyph glyph-name="uni64" unicode="&#x64;" d="M457 0L280 0L280 20Q280 21 283 63Q260 27 236.50 8.50Q213-10 177-10Q133-10 102 13Q71 36 55.50 74Q40 112 33.50 150Q27 188 27 229Q27 271 33 309.50Q39 348 53.50 388Q68 428 99.50 452.50Q131 477 175 477Q245 477 286 399L283 474L283 729L457 729L457 0M289 238Q289 333 249 333Q206 333 206 234Q206 139 249 139Q289 139 289 238Z"  horiz-adv-x="497" vert-adv-y="1000"  />

      
      <glyph glyph-name="uni65" unicode="&#x65;" d="M279 158L448 157Q430 76 376 33Q322-10 240-10Q136-10 81.50 54.50Q27 119 27 225Q27 330 85 403Q143 476 245 476Q347 476 401 405Q455 334 455 229Q455 224 454.50 213Q454 202 454 197L200 197Q200 125 240 125Q272 125 279 158M202 290L283 290Q281 349 242 349Q204 349 202 290Z"  horiz-adv-x="481" vert-adv-y="1000"  />

      
      <glyph glyph-name="uni66" unicode="&#x66;" d="M295 327L233 327L233 0L60 0L60 327L10 327L10 467L60 467Q60 478 59.50 501Q59 524 59 538Q59 608 74 648Q90 691 128.50 715.50Q167 740 214 740Q249 740 295 728L295 567Q276 584 260 584Q233 584 233 536L233 467L295 467L295 327Z"  horiz-adv-x="301" vert-adv-y="1000"  />

      
      <glyph glyph-name="uni67" unicode="&#x67;" d="M453 467L453-12Q453-92 418-140Q362-215 243-215Q57-215 33-46L210-46Q210-62 220-73Q230-84 246-84Q287-84 287-18L287 54Q242-7 178-7Q123-7 87 35.50Q51 78 39 129Q27 180 27 234Q27 272 34.50 311Q42 350 58 389Q74 428 104.50 452.50Q135 477 176 477Q233 477 281 406L278 467L453 467M285 235Q285 336 247 336Q206 336 206 238Q206 136 247 136Q285 136 285 235Z"  horiz-adv-x="493" vert-adv-y="1000"  />

      
      <glyph glyph-name="uni68" unicode="&#x68;" d="M451 0L277 0L277 247Q277 304 250 304Q213 304 213 235L213 0L40 0L40 729L213 729L213 468Q213 438 209 378Q251 477 332 477Q394 477 422.50 430.50Q451 384 451 318L451 0Z"  horiz-adv-x="491" vert-adv-y="1000"  />

      
      <glyph glyph-name="uni69" unicode="&#x69;" d="M228 613Q228 571 198.50 541Q169 511 127 511Q85 511 55.50 541Q26 571 26 613Q26 654 56 683.50Q86 713 127 713Q168 713 198 683.50Q228 654 228 613M213 0L40 0L40 467L213 467L213 0Z"  horiz-adv-x="253" vert-adv-y="1000"  />

      
      <glyph glyph-name="uni6a" unicode="&#x6a;" d="M198 684Q198 684 213 669.50Q228 655 228 613Q228 571 198.50 541Q169 511 127 511Q85 511 55.50 541Q26 571 26 613Q26 654 55.50 683.50Q85 713 126 713Q168 713 198 684M214-215L41-215L41 467L214 467L214-215Z"  horiz-adv-x="254" vert-adv-y="1000"  />

      
      <glyph glyph-name="uni6b" unicode="&#x6b;" d="M495 0L296 0Q286 26 268 70.50Q250 115 236.50 151.50Q223 188 213 224L213 0L40 0L40 729L213 729L213 263Q223 295 236 328Q249 361 268 403Q287 445 296 467L483 467L368 252L495 0Z"  horiz-adv-x="495" vert-adv-y="1000"  />

      
      <glyph glyph-name="uni6c" unicode="&#x6c;" d="M213 0L40 0L40 729L213 729L213 0Z"  horiz-adv-x="253" vert-adv-y="1000"  />

      
      <glyph glyph-name="uni6d" unicode="&#x6d;" d="M693 0L520 0L520 259Q520 309 493 309Q453 309 453 236L453 0L280 0L280 257Q280 305 252 305Q238 305 229 298.50Q220 292 217 278.50Q214 265 213.50 256.50Q213 248 213 232L213 0L40 0L40 467L213 467L213 443Q213 425 211 389Q234 433 260.50 455Q287 477 330 477Q376 477 405 452Q434 427 454 380Q488 477 570 477Q618 477 652 446Q693 408 693 320L693 0Z"  horiz-adv-x="733" vert-adv-y="1000"  />

      
      <glyph glyph-name="uni6e" unicode="&#x6e;" d="M451 0L277 0L277 247Q277 304 250 304Q213 304 213 235L213 0L40 0L40 467L213 467Q211 409 209 378Q251 477 332 477Q394 477 422.50 430.50Q451 384 451 318L451 0Z"  horiz-adv-x="491" vert-adv-y="1000"  />

      
      <glyph glyph-name="uni6f" unicode="&#x6f;" d="M461 229Q461 123 403.50 56.50Q346-10 241-10Q138-10 82.50 58.50Q27 127 27 232Q27 337 83.50 407Q140 477 242 477Q348 477 404.50 407.50Q461 338 461 229M293 233Q293 271 282 308.50Q271 346 243 346Q216 346 205.50 308.50Q195 271 195 233Q195 195 205.50 158Q216 121 244 121Q271 121 282 158.50Q293 196 293 233Z"  horiz-adv-x="487" vert-adv-y="1000"  />

      
      <glyph glyph-name="uni70" unicode="&#x70;" d="M213 467L209 401Q229 438 253.50 457.50Q278 477 316 477Q358 477 389.50 452.50Q421 428 437 389.50Q453 351 460.50 311.50Q468 272 468 233Q468 193 461.50 155Q455 117 439.50 77.50Q424 38 393 14Q362-10 320-10Q283-10 257.50 8.50Q232 27 209 63Q213 11 213-14L213-215L40-215L40 467L213 467M289 240Q289 334 248 334Q208 334 208 236Q208 136 247 136Q289 136 289 240Z"  horiz-adv-x="495" vert-adv-y="1000"  />

      
      <glyph glyph-name="uni71" unicode="&#x71;" d="M455-215L281-215L281-14Q281 1 283 27.50Q285 54 285 63Q262 27 237 8.50Q212-10 175-10Q133-10 102 14Q71 38 55.50 77.50Q40 117 33.50 155Q27 193 27 233Q27 272 34.50 311Q42 350 58 389Q74 428 105 452.50Q136 477 178 477Q249 477 285 401L281 467L455 467L455-215M287 236Q287 334 246 334Q206 334 206 233Q206 136 248 136Q271 136 279 169.50Q287 203 287 236Z"  horiz-adv-x="495" vert-adv-y="1000"  />

      
      <glyph glyph-name="uni72" unicode="&#x72;" d="M334 478L334 284Q309 299 286 299Q252 299 231 272Q213 249 213 200L213 0L40 0L40 467L213 467L204 376Q244 475 334 478Z"  horiz-adv-x="344" vert-adv-y="1000"  />

      
      <glyph glyph-name="uni73" unicode="&#x73;" d="M370 439L310 312Q269 353 239 353Q212 353 212 331Q212 313 238 299Q264 285 294.50 274.50Q325 264 351 233Q377 202 377 154Q377 78 322 34Q267-10 189-10Q114-10 23 39L86 168Q133 119 173 119Q186 119 196.50 125.50Q207 132 207 144Q207 159 180.50 172Q154 185 123 196.50Q92 208 65.50 239Q39 270 39 317Q39 391 97 434Q155 477 231 477Q294 477 370 439Z"  horiz-adv-x="395" vert-adv-y="1000"  />

      
      <glyph glyph-name="uni74" unicode="&#x74;" d="M294 327L237 327L237 0L64 0L64 327L14 327L14 467L64 467L64 604L237 604L237 467L294 467L294 327Z"  horiz-adv-x="301" vert-adv-y="1000"  />

      
      <glyph glyph-name="uni75" unicode="&#x75;" d="M459 467L459 180Q459 130 444.50 95Q430 60 392 33Q331-10 250-10Q169-10 108 33Q70 60 55 95Q40 130 40 180L40 467L213 467L213 193Q213 175 214.50 164.50Q216 154 225 144.50Q234 135 250 135Q267 135 275.50 146.50Q284 158 285 168.50Q286 179 286 198Q286 202 286 204L286 467L459 467Z"  horiz-adv-x="499" vert-adv-y="1000"  />

      
      <glyph glyph-name="uni76" unicode="&#x76;" d="M446 467L310 0L129 0L0 467L175 467Q178 450 190.50 388Q203 326 209 292Q211 279 222 172Q233 259 275 467L446 467Z"  horiz-adv-x="446" vert-adv-y="1000"  />

      
      <glyph glyph-name="uni77" unicode="&#x77;" d="M682 467L546 0L375 0L339 280L286 0L116 0L0 467L170 467Q209 250 214 185Q222 266 267 467L415 467Q449 266 456 185Q472 292 509 467L682 467Z"  horiz-adv-x="682" vert-adv-y="1000"  />

      
      <glyph glyph-name="uni78" unicode="&#x78;" d="M482 0L281 0Q250 79 243 110Q226 61 194 0L0 0L142 240L8 467L205 467Q217 434 239 366Q247 391 277 467L469 467L331 244L482 0Z"  horiz-adv-x="482" vert-adv-y="1000"  />

      
      <glyph glyph-name="uni79" unicode="&#x79;" d="M456 467L235-215L57-215L139 19L0 467L174 467Q222 277 229 202Q248 330 257 366L283 467L456 467Z"  horiz-adv-x="456" vert-adv-y="1000"  />

      
      <glyph glyph-name="uni7a" unicode="&#x7a;" d="M418 467L308 229Q286 182 262 141L391 141L391 0L17 0L130 242Q155 294 174 327L42 327L42 467L418 467Z"  horiz-adv-x="435" vert-adv-y="1000"  />

      
      <glyph glyph-name="uni7b" unicode="&#x7b;" d="M403-92L403-207Q351-209 326-209Q246-209 210-176.50Q174-144 174-65L174 124Q174 161 163 182.50Q152 204 119 210L119 320Q174 330 174 396L174 584Q174 664 209.50 696.50Q245 729 326 729Q338 729 350.50 728.50Q363 728 378.50 727Q394 726 403 726L403 612Q397 612 378 612.50Q359 613 353.50 612.50Q348 612 335 609Q322 606 317.50 600.50Q313 595 308.50 583.50Q304 572 304 555L304 386Q304 338 292 311Q280 284 244 260Q281 235 292.50 208Q304 181 304 133L304-36Q304-57 308.50-69.50Q313-82 326.50-87Q340-92 349-92.50Q358-93 383-93Q396-93 403-92Z"  horiz-adv-x="500" vert-adv-y="1000"  />

      
      <glyph glyph-name="uni7c" unicode="&#x7c;" d="M315-250L185-250L185 750L315 750L315-250Z"  horiz-adv-x="500" vert-adv-y="1000"  />

      
      <glyph glyph-name="uni7d" unicode="&#x7d;" d="M119-207L119-92Q126-93 139-93Q164-93 173-92.50Q182-92 195.50-87Q209-82 213.50-69.50Q218-57 218-36L218 133Q218 181 229.50 208Q241 235 278 260Q242 284 230 311Q218 338 218 386L218 555Q218 572 213.50 583.50Q209 595 204.50 600.50Q200 606 187 609Q174 612 168.50 612.50Q163 613 144 612.50Q125 612 119 612L119 726Q128 726 143.50 727Q159 728 171.50 728.50Q184 729 196 729Q277 729 312.50 696.50Q348 664 348 584L348 396Q348 330 403 320L403 210Q370 204 359 182.50Q348 161 348 124L348-65Q348-144 312-176.50Q276-209 196-209Q171-209 119-207Z"  horiz-adv-x="500" vert-adv-y="1000"  />

      
      <glyph glyph-name="uni7e" unicode="&#x7e;" d="M503 748L577 705Q548 643 512 607Q476 571 418 571Q387 571 325.50 596Q264 621 235 621Q215 621 200 611Q185 601 179.50 592Q174 583 161 560L90 607Q105 641 115 660Q125 679 143 702Q161 725 185.50 735.50Q210 746 242 746Q276 746 337.50 721.50Q399 697 432 697Q458 697 473.50 709.50Q489 722 503 748Z"  horiz-adv-x="667" vert-adv-y="1000"  />

      
      <glyph glyph-name="unia1" unicode="&#xa1;" d="M232.50 447.50Q232.50 447.50 247.25 432.75Q262 418 262 376Q262 334 232.50 304Q203 274 161 274Q119 274 89.50 304Q60 334 60 376Q60 418 89.50 447.50Q119 477 161 477Q203 477 232.50 447.50M247-223L71-223L71 227L247 227L247-223Z"  horiz-adv-x="322" vert-adv-y="1000"  />

      
      <glyph glyph-name="unia2" unicode="&#xa2;" d="M375 273L375 112Q366 110 350 110Q334 110 327 109L327 23L243 23L243 128Q197 154 171 188Q118 258 118 349Q118 442 166 509Q182 532 198 544.50Q214 557 243 571L243 679L327 679L327 593Q330 593 335 593.50Q340 594 342 594Q353 594 375 590L375 442Q338 440 318 417Q298 394 298 356Q298 324 315.50 298.50Q333 273 363 273L375 273Z"  horiz-adv-x="532" vert-adv-y="1000"  />

      
      <glyph glyph-name="unia3" unicode="&#xa3;" d="M409 159L498 111Q453-12 340-12Q301-12 255 5Q250 7 237 12.50Q224 18 218.50 20Q213 22 202 24Q191 26 181 26Q142 26 95-4L45 78Q91 111 123 126Q141 156 141 193Q141 234 124 288L62 288L62 381L95 381Q71 457 71 498Q71 577 128.50 627Q186 677 267 677Q374 677 462 584L366 488Q334 538 299 538Q277 538 264 521.50Q251 505 251 483Q251 467 262.50 431Q274 395 276 381L437 381L437 288L287 288Q287 214 244 159Q280 157 319 138Q341 127 355 127Q388 127 409 159Z"  horiz-adv-x="532" vert-adv-y="1000"  />

      
      <glyph glyph-name="unia4" unicode="&#xa4;" d="M647 138L578 67L475 170Q408 125 333 125Q265 125 193 169L90 67L20 137L123 240Q79 307 79 378Q79 448 124 515L19 619L90 690L194 586Q261 630 334 630Q405 630 471 587L574 689L644 619L542 517Q588 443 588 378Q588 306 544 241L647 138M469 377Q469 434 430 474Q391 514 334 514Q278 514 238 473.50Q198 433 198 377Q198 321 238 281Q278 241 334 241Q390 241 429.50 281Q469 321 469 377Z"  horiz-adv-x="667" vert-adv-y="1000"  />

      
      <glyph glyph-name="unia5" unicode="&#xa5;" d="M516 667L431 455L510 455L510 361L393 361L367 295L510 295L510 202L362 202L362 0L182 0L182 202L22 202L22 295L176 295L148 361L22 361L22 455L107 455L16 667L204 667Q256 506 267 461Q296 567 330 667L516 667Z"  horiz-adv-x="532" vert-adv-y="1000"  />

      
      <glyph glyph-name="unia6" unicode="&#xa6;" d="M315 335L185 335L185 750L315 750L315 335M315-250L185-250L185 165L315 165L315-250Z"  horiz-adv-x="500" vert-adv-y="1000"  />

      
      <glyph glyph-name="unia7" unicode="&#xa7;" d="M473 516L330 516Q330 540 328.50 554Q327 568 321.50 585Q316 602 301.50 610.50Q287 619 265 619Q241 619 226 606Q211 593 211 569Q211 552 216 539.50Q221 527 233 517Q245 507 252.50 502.50Q260 498 277 489Q286 484 311 471.50Q336 459 348 452.50Q360 446 382 433Q404 420 415.50 410Q427 400 443 384.50Q459 369 466.50 353.50Q474 338 480 318Q486 298 486 276Q486 194 421 141Q494 82 494-5Q494-99 428-157Q362-215 266-215Q209-215 158-193Q107-171 78-127Q58-97 52.50-68.50Q47-40 46 6L195 6Q196-39 210.50-63Q225-87 267-87Q293-87 309.50-70.50Q326-54 326-28Q326-1 297.50 21.50Q269 44 228.50 63.50Q188 83 147.50 107Q107 131 78.50 172.50Q50 214 50 269Q50 355 121 409Q91 446 78.50 475.50Q66 505 66 550Q66 637 128 688.50Q190 740 279 740Q341 740 389.50 712Q438 684 459 628Q473 591 473 516M334 270Q334 299 315.50 317.50Q297 336 268 336Q239 336 220.50 318.50Q202 301 202 272Q202 243 221 224Q240 205 269 205Q298 205 316 223.50Q334 242 334 270Z"  horiz-adv-x="533" vert-adv-y="1000"  />

      
      <glyph glyph-name="unia8" unicode="&#xa8;" d="M419 602Q419 573 397.50 551.50Q376 530 347 530Q317 530 295 551.50Q273 573 273 603Q273 633 294.50 653.50Q316 674 346 674Q376 674 397.50 653Q419 632 419 602M227 602Q227 573 205.50 551.50Q184 530 155 530Q125 530 103 551.50Q81 573 81 603Q81 633 102.50 653.50Q124 674 154 674Q184 674 205.50 653Q227 632 227 602Z"  horiz-adv-x="500" vert-adv-y="1000"  />

      
      <glyph glyph-name="unia9" unicode="&#xa9;" d="M727 333Q727 189 626 87Q525-15 381-15Q237-15 135 87.50Q33 190 33 334Q33 478 135.50 580Q238 682 382 682Q525 682 626 579Q727 476 727 333M570 138.50Q570 138.50 608.50 179.25Q647 220 647 333Q647 446 570 527.50Q493 609 381 609Q269 609 191 528Q113 447 113 334Q113 222 191 139.50Q269 57 381 57Q493 57 570 138.50M484 270L476 142Q437 126 402 126Q317 126 270 185Q223 244 223 332Q223 424 274 482Q325 540 416 540Q452 540 478 529L478 402Q474 405 465 413.50Q456 422 452 425Q448 428 439 431.50Q430 435 419 435Q383 435 367.50 404.50Q352 374 352 334Q352 295 367 265.50Q382 236 417 236Q423 236 428.50 237Q434 238 439.50 240Q445 242 448.50 243.50Q452 245 458 249.50Q464 254 466.50 255.50Q469 257 475.50 263Q482 269 484 270Z"  horiz-adv-x="760" vert-adv-y="1000"  />

      
      <glyph glyph-name="uniaa" unicode="&#xaa;" d="M261 372L162 372Q162 377 163 386Q164 395 164.50 402.50Q165 410 165 417Q140 366 96 366Q64 366 45 393Q26 420 20.50 451.50Q15 483 15 521Q15 583 34 628Q53 673 99 673Q140 673 163 624Q163 625 162 642Q161 659 160 667L261 667L261 372M261 297L19 297L19 345L261 345L261 297M161 517L161 545Q161 591 140 591Q115 591 115 510Q115 449 137 449Q161 449 161 517Z"  horiz-adv-x="284" vert-adv-y="1000"  />

      
      <glyph glyph-name="uniab" unicode="&#xab;" d="M256 71L178 13L27 239L178 465L256 407L143 239L256 71M452 71L374 13L223 239L374 465L452 407L339 239L452 71Z"  horiz-adv-x="479" vert-adv-y="1000"  />

      
      <glyph glyph-name="uniac" unicode="&#xac;" d="M467 0L337 0L337 150L33 150L33 267L467 267L467 0Z"  horiz-adv-x="500" vert-adv-y="1000"  />

      
      <glyph glyph-name="uniad" unicode="&#xad;" d="M267 186L50 186L50 320L267 320L267 186Z"  horiz-adv-x="317" vert-adv-y="1000"  />

      
      <glyph glyph-name="uniae" unicode="&#xae;" d="M530 154L413 154L359 297L359 154L250 154L250 529L359 529Q427 529 470 498.50Q513 468 513 402Q513 334 452 309L530 154M359 357L364 357Q382 357 393 370Q404 383 404 401Q404 441 359 441L359 357M570 138.50Q570 138.50 608.50 179.25Q647 220 647 333Q647 446 570 527.50Q493 609 381 609Q269 609 191 528Q113 447 113 334Q113 222 191 139.50Q269 57 381 57Q493 57 570 138.50M727 333Q727 189 626 87Q525-15 381-15Q237-15 135 87.50Q33 190 33 334Q33 478 135.50 580Q238 682 382 682Q525 682 626 579Q727 476 727 333Z"  horiz-adv-x="761" vert-adv-y="1000"  />

      
      <glyph glyph-name="uniaf" unicode="&#xaf;" d="M420 553L80 553L80 647L420 647L420 553Z"  horiz-adv-x="499" vert-adv-y="1000"  />

      
      <glyph glyph-name="unib0" unicode="&#xb0;" d="M358.50 616Q358.50 616 381.25 594Q404 572 404 509Q404 446 358.50 401Q313 356 250 356Q187 356 141.50 401Q96 446 96 509Q96 572 141.50 616Q187 660 250 660Q313 660 358.50 616M304.50 455.50Q304.50 455.50 315.75 466.75Q327 478 327 509Q327 540 304 562Q281 584 250 584Q219 584 196 562Q173 540 173 509Q173 477 195.50 455Q218 433 250 433Q282 433 304.50 455.50Z"  horiz-adv-x="500" vert-adv-y="1000"  />

      
      <glyph glyph-name="unib1" unicode="&#xb1;" d="M467 357L315 357L315 203L185 203L185 357L33 357L33 477L185 477L185 630L315 630L315 477L467 477L467 357M467 50L33 50L33 170L467 170L467 50Z"  horiz-adv-x="500" vert-adv-y="1000"  />

      
      <glyph glyph-name="unib2" unicode="&#xb2;" d="M48 519L48 536Q48 595 86 634.50Q124 674 183 674Q241 674 279 638Q317 602 317 545Q317 491 290 447.50Q263 404 214 359Q264 362 312 362L312 267L26 267L140 414Q160 440 171.50 456Q183 472 194.50 498.50Q206 525 206 549Q206 582 183 582Q179 582 175.50 580.50Q172 579 169.50 576Q167 573 165 570Q163 567 162 561.50Q161 556 160 552.50Q159 549 159 543Q159 537 159 534.50Q159 532 159 526Q159 520 159 519L48 519Z"  horiz-adv-x="352" vert-adv-y="1000"  />

      
      <glyph glyph-name="unib3" unicode="&#xb3;" d="M156 550L46 550Q50 606 85.50 640Q121 674 177 674Q229 674 268.50 642Q308 610 308 559Q308 502 261 473Q314 445 314 383Q314 327 274 293.50Q234 260 176 260Q119 260 78.50 290.50Q38 321 38 377L38 387L149 387Q151 352 175 352Q188 352 195.50 362Q203 372 203 386Q203 405 191.50 415.50Q180 426 161 426Q155 426 139 424L139 513Q144 512 154 512Q177 512 187 520.50Q197 529 197 551Q197 582 176 582Q173 582 170 581Q167 580 165.50 579Q164 578 162.50 575.50Q161 573 160 571.50Q159 570 158.50 566.50Q158 563 157.50 561.50Q157 560 156.50 555.50Q156 551 156 550Z"  horiz-adv-x="352" vert-adv-y="1000"  />

      
      <glyph glyph-name="unib4" unicode="&#xb4;" d="M384 678L296 530L197 530L244 678L384 678Z"  horiz-adv-x="500" vert-adv-y="1000"  />

      
      <glyph glyph-name="unib5" unicode="&#xb5;" d="M543 0L387 0L387 68Q378 32 353 11Q328-10 291-10Q255-10 232 9Q205 30 196 65L196-215L40-215L40 467L212 467L212 240Q212 165 239 138Q259 118 292 118Q325 118 344 138Q371 165 371 246L371 467L543 467L543 0Z"  horiz-adv-x="583" vert-adv-y="1000"  />

      
      <glyph glyph-name="uni03BC" unicode="&#x03BC;" d="M543 0L387 0L387 68Q378 32 353 11Q328-10 291-10Q255-10 232 9Q205 30 196 65L196-215L40-215L40 467L212 467L212 240Q212 165 239 138Q259 118 292 118Q325 118 344 138Q371 165 371 246L371 467L543 467L543 0Z"  horiz-adv-x="583" vert-adv-y="1000"  />

      
      <glyph glyph-name="unib6" unicode="&#xb6;" d="M594 567L520 567L520-100L410-100L410 567L327 567L327-100L217-100L217 321L205 321Q127 321 77 367.50Q27 414 27 491Q27 667 258 667L594 667L594 567Z"  horiz-adv-x="667" vert-adv-y="1000"  />

      
      <glyph glyph-name="unib7" unicode="&#xb7;" d="M281 339Q281 291 246 257Q211 223 163 223Q114 223 79.50 257.50Q45 292 45 341Q45 389 79.50 423Q114 457 162 457Q211 457 246 422.50Q281 388 281 339Z"  horiz-adv-x="327" vert-adv-y="1000"  />

      
      <glyph glyph-name="unib8" unicode="&#xb8;" d="M372-106L259-223L188-169L286-47L372-106Z"  horiz-adv-x="500" vert-adv-y="1000"  />

      
      <glyph glyph-name="unib9" unicode="&#xb9;" d="M249 267L136 267L136 570L92 570L92 667L249 667L249 267Z"  horiz-adv-x="352" vert-adv-y="1000"  />

      
      <glyph glyph-name="uniba" unicode="&#xba;" d="M265 525Q265 455 232.50 414.50Q200 374 139 374Q79 374 47 415.50Q15 457 15 526Q15 590 47.50 631.50Q80 673 139 673Q201 673 233 632.50Q265 592 265 525M261 297L19 297L19 345L261 345L261 297M168 527Q168 598 140 598Q112 598 112 527Q112 450 140 450Q168 450 168 527Z"  horiz-adv-x="280" vert-adv-y="1000"  />

      
      <glyph glyph-name="unibb" unicode="&#xbb;" d="M223 71L336 239L223 407L301 465L452 239L301 13L223 71M27 71L140 239L27 407L105 465L256 239L105 13L27 71Z"  horiz-adv-x="479" vert-adv-y="1000"  />

      
      <glyph glyph-name="unibc" unicode="&#xbc;" d="M815 80L781 80L781 0L667 0L667 80L519 80L519 166L643 400L781 400L781 169L815 169L815 80M249 267L136 267L136 570L92 570L92 667L249 667L249 267M616 169L671 169Q671 222 674 276Q633 194 616 169M614 667L326 0L234 0L524 667L614 667Z"  horiz-adv-x="844" vert-adv-y="1000"  />

      
      <glyph glyph-name="unibd" unicode="&#xbd;" d="M539 252L539 269Q539 328 577 367.50Q615 407 674 407Q732 407 770 371Q808 335 808 278Q808 224 781 180.50Q754 137 705 92Q754 95 803 95L803 0L517 0L631 147Q651 173 662.50 189Q674 205 685.50 231.50Q697 258 697 282Q697 315 674 315Q650 315 650 252L539 252M249 267L136 267L136 570L92 570L92 667L249 667L249 267M605 667L317 0L225 0L515 667L605 667Z"  horiz-adv-x="844" vert-adv-y="1000"  />

      
      <glyph glyph-name="unibe" unicode="&#xbe;" d="M815 80L781 80L781 0L667 0L667 80L519 80L519 166L643 400L781 400L781 169L815 169L815 80M156 550L46 550Q50 606 85.50 640Q121 674 177 674Q229 674 268.50 642Q308 610 308 559Q308 502 261 473Q314 445 314 383Q314 327 274 293.50Q234 260 176 260Q119 260 78.50 290.50Q38 321 38 377L38 387L149 387Q151 352 175 352Q188 352 195.50 362Q203 372 203 386Q203 405 191.50 415.50Q180 426 161 426Q155 426 139 424L139 513Q144 512 154 512Q177 512 187 520.50Q197 529 197 551Q197 582 176 582Q173 582 170 581Q167 580 165.50 579Q164 578 162.50 575.50Q161 573 160 571.50Q159 570 158.50 566.50Q158 563 157.50 561.50Q157 560 156.50 555.50Q156 551 156 550M616 169L671 169Q671 222 674 276Q633 194 616 169M631 667L343 0L251 0L541 667L631 667Z"  horiz-adv-x="844" vert-adv-y="1000"  />

      
      <glyph glyph-name="unibf" unicode="&#xbf;" d="M323.50 447Q323.50 447 338.25 432Q353 417 353 375Q353 333 323.50 303.50Q294 274 252 274Q210 274 180.50 303.50Q151 333 151 375Q151 417 180.50 447Q210 477 252 477Q294 477 323.50 447M468-11Q468-56 463-82.50Q458-109 440-140Q414-185 363.50-210Q313-235 257-235Q161-235 100.50-173.50Q40-112 40-16Q40 49 72.50 97.50Q105 146 168 163L168 227L339 227L339 68Q321 70 312 70Q265 70 242 50.50Q219 31 219-13Q219-87 257-87Q295-87 295-11L468-11Z"  horiz-adv-x="508" vert-adv-y="1000"  />

      
      <glyph glyph-name="unic0" unicode="&#xc0;" d="M527 0L341 0L327 85L206 85L191 0L5 0L166 667L386 667L527 0M230 227L306 227Q283 382 272 507Q270 492 266.50 460Q263 428 261 413Q246 310 230 227M344 720L244 720L157 868L296 868L344 720Z"  horiz-adv-x="532" vert-adv-y="1000"  />

      
      <glyph glyph-name="unic1" unicode="&#xc1;" d="M527 0L341 0L327 85L206 85L191 0L5 0L166 667L386 667L527 0M230 227L306 227Q283 382 272 507Q270 492 266.50 460Q263 428 261 413Q246 310 230 227M394 868L306 720L207 720L254 868L394 868Z"  horiz-adv-x="532" vert-adv-y="1000"  />

      
      <glyph glyph-name="unic2" unicode="&#xc2;" d="M527 0L341 0L327 85L206 85L191 0L5 0L166 667L386 667L527 0M230 227L306 227Q283 382 272 507Q270 492 266.50 460Q263 428 261 413Q246 310 230 227M282 870L419 772L362 706L279 762L197 704L136 770L282 870Z"  horiz-adv-x="532" vert-adv-y="1000"  />

      
      <glyph glyph-name="unic3" unicode="&#xc3;" d="M527 0L341 0L327 85L206 85L191 0L5 0L166 667L386 667L527 0M230 227L306 227Q283 382 272 507Q270 492 266.50 460Q263 428 261 413Q246 310 230 227M436 855L436 841Q436 791 408 756.50Q380 722 331 722Q305 722 266.50 738.50Q228 755 214 755Q187 755 187 720L96 720L96 722Q96 777 120 814.50Q144 852 197 852Q223 852 262.50 835.50Q302 819 318 819Q346 819 346 855L436 855Z"  horiz-adv-x="532" vert-adv-y="1000"  />

      
      <glyph glyph-name="unic4" unicode="&#xc4;" d="M527 0L341 0L327 85L206 85L191 0L5 0L166 667L386 667L527 0M230 227L306 227Q283 382 272 507Q270 492 266.50 460Q263 428 261 413Q246 310 230 227M435 792Q435 763 413.50 741.50Q392 720 363 720Q333 720 311 741.50Q289 763 289 793Q289 823 310.50 843.50Q332 864 362 864Q392 864 413.50 843Q435 822 435 792M243 792Q243 763 221.50 741.50Q200 720 171 720Q141 720 119 741.50Q97 763 97 793Q97 823 118.50 843.50Q140 864 170 864Q200 864 221.50 843Q243 822 243 792Z"  horiz-adv-x="532" vert-adv-y="1000"  />

      
      <glyph glyph-name="unic5" unicode="&#xc5;" d="M527 0L341 0L327 85L206 85L191 0L5 0L166 667L386 667L527 0M230 227L306 227Q283 382 272 507Q270 492 266.50 460Q263 428 261 413Q246 310 230 227M177 810Q177 850 205 878Q233 906 273 906Q313 906 341 878Q369 850 369 810Q369 770 340.50 742Q312 714 274 714Q234 714 205.50 742.50Q177 771 177 810M246.50 836.50Q246.50 836.50 241.25 831.25Q236 826 236 810Q236 794 246.50 783.50Q257 773 273 773Q289 773 299.50 783.50Q310 794 310 810Q310 826 299.50 836.50Q289 847 273 847Q257 847 246.50 836.50Z"  horiz-adv-x="532" vert-adv-y="1000"  />

      
      <glyph glyph-name="unic6" unicode="&#xc6;" d="M585 0L329 0L317 85L201 85L186 0L0 0L154 667L585 667L585 510L406 510L421 413L571 413L571 262L447 262L465 160L585 160L585 0M223 223L298 223Q269 429 263 506Q249 388 223 223Z"  horiz-adv-x="615" vert-adv-y="1000"  />

      
      <glyph glyph-name="unic7" unicode="&#xc7;" d="M422 205L411 12Q356-12 304-12Q235-12 181 17.50Q127 47 95 96.50Q63 146 46.50 205.50Q30 265 30 331Q30 426 61 503Q92 580 160.50 629.50Q229 679 325 679Q374 679 414 662L414 472Q376 512 331 512Q287 512 259 482Q231 452 222.50 415Q214 378 214 334Q214 291 222.50 255.50Q231 220 258 191Q285 162 328 162Q374 162 422 205M388-113L264-237L187-184L295-47L388-113Z"  horiz-adv-x="445" vert-adv-y="1000"  />

      
      <glyph glyph-name="unic8" unicode="&#xc8;" d="M381 0L47 0L47 667L381 667L381 510L227 510L227 413L365 413L365 262L227 262L227 160L381 160L381 0M294 720L194 720L107 868L246 868L294 720Z"  horiz-adv-x="411" vert-adv-y="1000"  />

      
      <glyph glyph-name="unic9" unicode="&#xc9;" d="M381 0L47 0L47 667L381 667L381 510L227 510L227 413L365 413L365 262L227 262L227 160L381 160L381 0M334 868L246 720L147 720L194 868L334 868Z"  horiz-adv-x="411" vert-adv-y="1000"  />

      
      <glyph glyph-name="unica" unicode="&#xca;" d="M381 0L47 0L47 667L381 667L381 510L227 510L227 413L365 413L365 262L227 262L227 160L381 160L381 0M222 870L359 772L302 706L219 762L137 704L76 770L222 870Z"  horiz-adv-x="411" vert-adv-y="1000"  />

      
      <glyph glyph-name="unicb" unicode="&#xcb;" d="M381 0L47 0L47 667L381 667L381 510L227 510L227 413L365 413L365 262L227 262L227 160L381 160L381 0M379 792Q379 763 357.50 741.50Q336 720 307 720Q277 720 255 741.50Q233 763 233 793Q233 823 254.50 843.50Q276 864 306 864Q336 864 357.50 843Q379 822 379 792M187 792Q187 763 165.50 741.50Q144 720 115 720Q85 720 63 741.50Q41 763 41 793Q41 823 62.50 843.50Q84 864 114 864Q144 864 165.50 843Q187 822 187 792Z"  horiz-adv-x="411" vert-adv-y="1000"  />

      
      <glyph glyph-name="unicc" unicode="&#xcc;" d="M227 0L47 0L47 667L227 667L227 0M204 720L104 720L17 868L156 868L204 720Z"  horiz-adv-x="273" vert-adv-y="1000"  />

      
      <glyph glyph-name="unicd" unicode="&#xcd;" d="M227 0L47 0L47 667L227 667L227 0M254 868L166 720L67 720L114 868L254 868Z"  horiz-adv-x="273" vert-adv-y="1000"  />

      
      <glyph glyph-name="unice" unicode="&#xce;" d="M227 0L47 0L47 667L227 667L227 0M144 870L281 772L224 706L141 762L59 704L-2 770L144 870Z"  horiz-adv-x="273" vert-adv-y="1000"  />

      
      <glyph glyph-name="unicf" unicode="&#xcf;" d="M227 0L47 0L47 667L227 667L227 0M306 792Q306 763 284.50 741.50Q263 720 234 720Q204 720 182 741.50Q160 763 160 793Q160 823 181.50 843.50Q203 864 233 864Q263 864 284.50 843Q306 822 306 792M114 792Q114 763 92.50 741.50Q71 720 42 720Q12 720-10 741.50Q-32 763-32 793Q-32 823-10.50 843.50Q11 864 41 864Q71 864 92.50 843Q114 822 114 792Z"  horiz-adv-x="273" vert-adv-y="1000"  />

      
      <glyph glyph-name="unid0" unicode="&#xd0;" d="M47 667L203 667Q351 667 430 573Q507 482 507 336Q507 162 420 72Q350 0 215 0L47 0L47 290L7 290L7 393L47 393L47 667M227 290L227 161Q323 167 323 327Q323 424 288 470Q265 500 232 500L227 500L227 393L280 393L280 290L227 290Z"  horiz-adv-x="537" vert-adv-y="1000"  />

      
      <glyph glyph-name="unid1" unicode="&#xd1;" d="M516 0L344 0Q333 31 309 93Q285 155 271 192.50Q257 230 239 284Q221 338 208 384Q219 228 219 170L219 0L47 0L47 667L219 667L309 433Q329 382 364 265Q344 429 344 511L344 667L516 667L516 0M460 855L460 841Q460 791 432 756.50Q404 722 355 722Q328 722 290 738.50Q252 755 238 755Q211 755 211 720L120 720L120 722Q120 777 144 814.50Q168 852 221 852Q247 852 286.50 835.50Q326 819 342 819Q370 819 370 855L460 855Z"  horiz-adv-x="563" vert-adv-y="1000"  />

      
      <glyph glyph-name="unid2" unicode="&#xd2;" d="M537 340Q537 277 523.50 218.50Q510 160 482.50 106.50Q455 53 404.50 20.50Q354-12 287-12Q179-12 105 77Q30 168 30 340Q30 402 45 460Q60 518 89 568Q118 618 169 648.50Q220 679 286 679Q339 679 382 658.50Q425 638 453 604.50Q481 571 500.50 526Q520 481 528.50 434.50Q537 388 537 340M350 333Q350 511 285 511Q263 511 248.50 490.50Q234 470 227.50 437.50Q221 405 219 381Q217 357 217 334Q217 310 219 287Q221 264 226.50 231Q232 198 246.50 177.50Q261 157 283 157Q305 157 319.50 177.50Q334 198 340 230Q346 262 348 286Q350 310 350 333M339 720L239 720L152 868L291 868L339 720Z"  horiz-adv-x="567" vert-adv-y="1000"  />

      
      <glyph glyph-name="unid3" unicode="&#xd3;" d="M537 340Q537 277 523.50 218.50Q510 160 482.50 106.50Q455 53 404.50 20.50Q354-12 287-12Q179-12 105 77Q30 168 30 340Q30 402 45 460Q60 518 89 568Q118 618 169 648.50Q220 679 286 679Q339 679 382 658.50Q425 638 453 604.50Q481 571 500.50 526Q520 481 528.50 434.50Q537 388 537 340M350 333Q350 511 285 511Q263 511 248.50 490.50Q234 470 227.50 437.50Q221 405 219 381Q217 357 217 334Q217 310 219 287Q221 264 226.50 231Q232 198 246.50 177.50Q261 157 283 157Q305 157 319.50 177.50Q334 198 340 230Q346 262 348 286Q350 310 350 333M419 868L331 720L232 720L279 868L419 868Z"  horiz-adv-x="567" vert-adv-y="1000"  />

      
      <glyph glyph-name="unid4" unicode="&#xd4;" d="M537 340Q537 277 523.50 218.50Q510 160 482.50 106.50Q455 53 404.50 20.50Q354-12 287-12Q179-12 105 77Q30 168 30 340Q30 402 45 460Q60 518 89 568Q118 618 169 648.50Q220 679 286 679Q339 679 382 658.50Q425 638 453 604.50Q481 571 500.50 526Q520 481 528.50 434.50Q537 388 537 340M350 333Q350 511 285 511Q263 511 248.50 490.50Q234 470 227.50 437.50Q221 405 219 381Q217 357 217 334Q217 310 219 287Q221 264 226.50 231Q232 198 246.50 177.50Q261 157 283 157Q305 157 319.50 177.50Q334 198 340 230Q346 262 348 286Q350 310 350 333M302 870L439 772L382 706L299 762L217 704L156 770L302 870Z"  horiz-adv-x="567" vert-adv-y="1000"  />

      
      <glyph glyph-name="unid5" unicode="&#xd5;" d="M537 340Q537 277 523.50 218.50Q510 160 482.50 106.50Q455 53 404.50 20.50Q354-12 287-12Q179-12 105 77Q30 168 30 340Q30 402 45 460Q60 518 89 568Q118 618 169 648.50Q220 679 286 679Q339 679 382 658.50Q425 638 453 604.50Q481 571 500.50 526Q520 481 528.50 434.50Q537 388 537 340M350 333Q350 511 285 511Q263 511 248.50 490.50Q234 470 227.50 437.50Q221 405 219 381Q217 357 217 334Q217 310 219 287Q221 264 226.50 231Q232 198 246.50 177.50Q261 157 283 157Q305 157 319.50 177.50Q334 198 340 230Q346 262 348 286Q350 310 350 333M453 855L453 841Q453 791 425 756.50Q397 722 348 722Q321 722 283.50 738.50Q246 755 231 755Q204 755 204 720L113 720L113 722Q113 777 137 814.50Q161 852 214 852Q240 852 279.50 835.50Q319 819 335 819Q363 819 363 855L453 855Z"  horiz-adv-x="567" vert-adv-y="1000"  />

      
      <glyph glyph-name="unid6" unicode="&#xd6;" d="M537 340Q537 277 523.50 218.50Q510 160 482.50 106.50Q455 53 404.50 20.50Q354-12 287-12Q179-12 105 77Q30 168 30 340Q30 402 45 460Q60 518 89 568Q118 618 169 648.50Q220 679 286 679Q339 679 382 658.50Q425 638 453 604.50Q481 571 500.50 526Q520 481 528.50 434.50Q537 388 537 340M350 333Q350 511 285 511Q263 511 248.50 490.50Q234 470 227.50 437.50Q221 405 219 381Q217 357 217 334Q217 310 219 287Q221 264 226.50 231Q232 198 246.50 177.50Q261 157 283 157Q305 157 319.50 177.50Q334 198 340 230Q346 262 348 286Q350 310 350 333M454 792Q454 763 432.50 741.50Q411 720 382 720Q352 720 330 741.50Q308 763 308 793Q308 823 329.50 843.50Q351 864 381 864Q411 864 432.50 843Q454 822 454 792M262 792Q262 763 240.50 741.50Q219 720 190 720Q160 720 138 741.50Q116 763 116 793Q116 823 137.50 843.50Q159 864 189 864Q219 864 240.50 843Q262 822 262 792Z"  horiz-adv-x="567" vert-adv-y="1000"  />

      
      <glyph glyph-name="unid7" unicode="&#xd7;" d="M361 144L250 255L139 144L54 229L165 340L54 451L139 536L250 425L361 536L446 451L335 340L446 229L361 144Z"  horiz-adv-x="500" vert-adv-y="1000"  />

      
      <glyph glyph-name="unid8" unicode="&#xd8;" d="M565 631L506 546Q550 451 550 340Q550 276 536 216.50Q522 157 493 104.50Q464 52 412.50 20Q361-12 293-12Q212-12 141 48L94-20L30 24L91 116Q88 122 81.50 134.50Q75 147 72 154Q43 221 43 329Q43 393 56 452Q69 511 97 563.50Q125 616 176.50 647.50Q228 679 296 679Q381 679 455 613L500 677L565 631M224 301L342 475Q327 516 294 516Q272 516 256.50 495.50Q241 475 234.50 442.50Q228 410 226 385.50Q224 361 224 338L224 301M368 364L250 190Q262 151 297 151Q319 151 335 171.50Q351 192 357.50 224.50Q364 257 366.50 282.50Q369 308 369 331Q369 353 368 364Z"  horiz-adv-x="595" vert-adv-y="1000"  />

      
      <glyph glyph-name="unid9" unicode="&#xd9;" d="M499 667L499 195Q499 143 484.50 107.50Q470 72 432 40Q372-12 281-12Q177-12 112 46Q47 104 47 220L47 667L227 667L227 236Q227 213 228.50 199Q230 185 241 171Q252 157 273 157Q286 157 295.50 162.50Q305 168 309.50 174.50Q314 181 316 194Q318 207 318.50 214.50Q319 222 319 236L319 667L499 667M324 720L224 720L137 868L276 868L324 720Z"  horiz-adv-x="545" vert-adv-y="1000"  />

      
      <glyph glyph-name="unida" unicode="&#xda;" d="M499 667L499 195Q499 143 484.50 107.50Q470 72 432 40Q372-12 281-12Q177-12 112 46Q47 104 47 220L47 667L227 667L227 236Q227 213 228.50 199Q230 185 241 171Q252 157 273 157Q286 157 295.50 162.50Q305 168 309.50 174.50Q314 181 316 194Q318 207 318.50 214.50Q319 222 319 236L319 667L499 667M409 868L321 720L222 720L269 868L409 868Z"  horiz-adv-x="545" vert-adv-y="1000"  />

      
      <glyph glyph-name="unidb" unicode="&#xdb;" d="M499 667L499 195Q499 143 484.50 107.50Q470 72 432 40Q372-12 281-12Q177-12 112 46Q47 104 47 220L47 667L227 667L227 236Q227 213 228.50 199Q230 185 241 171Q252 157 273 157Q286 157 295.50 162.50Q305 168 309.50 174.50Q314 181 316 194Q318 207 318.50 214.50Q319 222 319 236L319 667L499 667M279 870L416 772L359 706L276 762L194 704L133 770L279 870Z"  horiz-adv-x="545" vert-adv-y="1000"  />

      
      <glyph glyph-name="unidc" unicode="&#xdc;" d="M499 667L499 195Q499 143 484.50 107.50Q470 72 432 40Q372-12 281-12Q177-12 112 46Q47 104 47 220L47 667L227 667L227 236Q227 213 228.50 199Q230 185 241 171Q252 157 273 157Q286 157 295.50 162.50Q305 168 309.50 174.50Q314 181 316 194Q318 207 318.50 214.50Q319 222 319 236L319 667L499 667M441 792Q441 763 419.50 741.50Q398 720 369 720Q339 720 317 741.50Q295 763 295 793Q295 823 316.50 843.50Q338 864 368 864Q398 864 419.50 843Q441 822 441 792M249 792Q249 763 227.50 741.50Q206 720 177 720Q147 720 125 741.50Q103 763 103 793Q103 823 124.50 843.50Q146 864 176 864Q206 864 227.50 843Q249 822 249 792Z"  horiz-adv-x="545" vert-adv-y="1000"  />

      
      <glyph glyph-name="unidd" unicode="&#xdd;" d="M500 667L346 282L346 0L166 0L166 282L0 667L188 667Q240 506 251 461Q280 567 314 667L500 667M389 868L301 720L202 720L249 868L389 868Z"  horiz-adv-x="500" vert-adv-y="1000"  />

      
      <glyph glyph-name="unide" unicode="&#xde;" d="M227 667L227 574Q318 572 370 549Q429 523 459 468.50Q489 414 489 346Q489 251 437 191Q380 125 255 125L227 125L227 0L47 0L47 667L227 667M227 275L236 275Q269 275 288 296Q307 317 307 350Q307 382 289 405Q271 428 240 428Q231 428 227 427L227 275Z"  horiz-adv-x="505" vert-adv-y="1000"  />

      
      <glyph glyph-name="unidf" unicode="&#xdf;" d="M11 467L59 467Q59 554 70 596Q87 661 144 700.50Q201 740 269 740Q352 740 412.50 685.50Q473 631 473 549Q473 499 451 459.50Q429 420 383 409Q420 404 442 385Q499 335 499 237Q499 148 453 84Q395 3 276 0L276 143Q320 155 320 235Q320 322 276 327L276 467Q309 469 309 528Q309 586 270 586Q232 586 232 523L232 0L59 0L59 327L11 327L11 467Z"  horiz-adv-x="526" vert-adv-y="1000"  />

      
      <glyph glyph-name="unie0" unicode="&#xe0;" d="M457 0L283 0Q284 13 286 39.50Q288 66 289 79Q244-10 169-10Q127-10 97.50 15Q68 40 53.50 80.50Q39 121 33 159Q27 197 27 236Q27 276 33.50 314Q40 352 55 390.50Q70 429 100.50 453Q131 477 173 477Q246 477 285 393Q284 401 283 427Q282 453 280 467L457 467L457 0M281 254Q281 334 245 334Q201 334 201 217Q201 133 240 133Q247 133 253.50 136Q260 139 264 145Q268 151 271 157Q274 163 276 173.50Q278 184 279 190.50Q280 197 280.50 209Q281 221 281 226Q281 231 281 242Q281 253 281 254M329 530L229 530L142 678L281 678L329 530Z"  horiz-adv-x="497" vert-adv-y="1000"  />

      
      <glyph glyph-name="unie1" unicode="&#xe1;" d="M457 0L283 0Q284 13 286 39.50Q288 66 289 79Q244-10 169-10Q127-10 97.50 15Q68 40 53.50 80.50Q39 121 33 159Q27 197 27 236Q27 276 33.50 314Q40 352 55 390.50Q70 429 100.50 453Q131 477 173 477Q246 477 285 393Q284 401 283 427Q282 453 280 467L457 467L457 0M281 254Q281 334 245 334Q201 334 201 217Q201 133 240 133Q247 133 253.50 136Q260 139 264 145Q268 151 271 157Q274 163 276 173.50Q278 184 279 190.50Q280 197 280.50 209Q281 221 281 226Q281 231 281 242Q281 253 281 254M369 678L281 530L182 530L229 678L369 678Z"  horiz-adv-x="497" vert-adv-y="1000"  />

      
      <glyph glyph-name="unie2" unicode="&#xe2;" d="M457 0L283 0Q284 13 286 39.50Q288 66 289 79Q244-10 169-10Q127-10 97.50 15Q68 40 53.50 80.50Q39 121 33 159Q27 197 27 236Q27 276 33.50 314Q40 352 55 390.50Q70 429 100.50 453Q131 477 173 477Q246 477 285 393Q284 401 283 427Q282 453 280 467L457 467L457 0M281 254Q281 334 245 334Q201 334 201 217Q201 133 240 133Q247 133 253.50 136Q260 139 264 145Q268 151 271 157Q274 163 276 173.50Q278 184 279 190.50Q280 197 280.50 209Q281 221 281 226Q281 231 281 242Q281 253 281 254M264 690L393 573L335 510L261 576L181 506L121 573L264 690Z"  horiz-adv-x="497" vert-adv-y="1000"  />

      
      <glyph glyph-name="unie3" unicode="&#xe3;" d="M457 0L283 0Q284 13 286 39.50Q288 66 289 79Q244-10 169-10Q127-10 97.50 15Q68 40 53.50 80.50Q39 121 33 159Q27 197 27 236Q27 276 33.50 314Q40 352 55 390.50Q70 429 100.50 453Q131 477 173 477Q246 477 285 393Q284 401 283 427Q282 453 280 467L457 467L457 0M281 254Q281 334 245 334Q201 334 201 217Q201 133 240 133Q247 133 253.50 136Q260 139 264 145Q268 151 271 157Q274 163 276 173.50Q278 184 279 190.50Q280 197 280.50 209Q281 221 281 226Q281 231 281 242Q281 253 281 254M440 665L440 651Q440 601 412 566.50Q384 532 335 532Q308 532 270 548.50Q232 565 218 565Q191 565 191 530L100 530L100 532Q100 587 124 624.50Q148 662 201 662Q227 662 266.50 645.50Q306 629 322 629Q350 629 350 665L440 665Z"  horiz-adv-x="497" vert-adv-y="1000"  />

      
      <glyph glyph-name="unie4" unicode="&#xe4;" d="M457 0L283 0Q284 13 286 39.50Q288 66 289 79Q244-10 169-10Q127-10 97.50 15Q68 40 53.50 80.50Q39 121 33 159Q27 197 27 236Q27 276 33.50 314Q40 352 55 390.50Q70 429 100.50 453Q131 477 173 477Q246 477 285 393Q284 401 283 427Q282 453 280 467L457 467L457 0M281 254Q281 334 245 334Q201 334 201 217Q201 133 240 133Q247 133 253.50 136Q260 139 264 145Q268 151 271 157Q274 163 276 173.50Q278 184 279 190.50Q280 197 280.50 209Q281 221 281 226Q281 231 281 242Q281 253 281 254M434 602Q434 573 412.50 551.50Q391 530 362 530Q332 530 310 551.50Q288 573 288 603Q288 633 309.50 653.50Q331 674 361 674Q391 674 412.50 653Q434 632 434 602M242 602Q242 573 220.50 551.50Q199 530 170 530Q140 530 118 551.50Q96 573 96 603Q96 633 117.50 653.50Q139 674 169 674Q199 674 220.50 653Q242 632 242 602Z"  horiz-adv-x="497" vert-adv-y="1000"  />

      
      <glyph glyph-name="unie5" unicode="&#xe5;" d="M457 0L283 0Q284 13 286 39.50Q288 66 289 79Q244-10 169-10Q127-10 97.50 15Q68 40 53.50 80.50Q39 121 33 159Q27 197 27 236Q27 276 33.50 314Q40 352 55 390.50Q70 429 100.50 453Q131 477 173 477Q246 477 285 393Q284 401 283 427Q282 453 280 467L457 467L457 0M281 254Q281 334 245 334Q201 334 201 217Q201 133 240 133Q247 133 253.50 136Q260 139 264 145Q268 151 271 157Q274 163 276 173.50Q278 184 279 190.50Q280 197 280.50 209Q281 221 281 226Q281 231 281 242Q281 253 281 254M185 551Q185 551 171 565Q157 579 157 619Q157 659 185 687Q213 715 253 715Q293 715 321 687Q349 659 349 619Q349 579 321 551Q293 523 253 523Q213 523 185 551M226.50 645.50Q226.50 645.50 221.25 640.25Q216 635 216 619Q216 603 226.50 592.50Q237 582 253 582Q269 582 279.50 592.50Q290 603 290 619Q290 635 279.50 645.50Q269 656 253 656Q237 656 226.50 645.50Z"  horiz-adv-x="497" vert-adv-y="1000"  />

      
      <glyph glyph-name="unie6" unicode="&#xe6;" d="M78 321L78 456Q157 477 217 477Q306 477 361 431Q425 477 495 477Q597 477 652.50 406Q708 335 708 230Q708 209 707 198L452 198Q455 118 498 118Q525 118 537 153L702 150Q679 63 625 26Q574-10 493-10Q416-10 355 38Q285-10 204-10Q130-10 78.50 34.50Q27 79 27 152Q27 224 74.50 262.50Q122 301 196 301Q237 301 285 291Q277 348 192 348Q132 348 78 321M452 291L539 291Q532 356 494 356Q478 356 468.50 344Q459 332 456.50 320.50Q454 309 452 291M273.50 120Q273.50 120 279.75 125.50Q286 131 286 150Q286 169 273 180Q260 191 240 191Q221 191 208 179.50Q195 168 195 149Q195 129 208.50 119Q222 109 242 109Q261 109 273.50 120Z"  horiz-adv-x="735" vert-adv-y="1000"  />

      
      <glyph glyph-name="unie7" unicode="&#xe7;" d="M283 152L283-7Q259-10 236-10Q138-10 82.50 63Q27 136 27 236Q27 336 88.50 406.50Q150 477 248 477Q259 477 283 475L283 323Q206 318 206 239Q206 207 223.50 179.50Q241 152 271 152L283 152M277-106L164-223L93-169L191-47L277-106Z"  horiz-adv-x="303" vert-adv-y="1000"  />

      
      <glyph glyph-name="unie8" unicode="&#xe8;" d="M279 158L448 157Q430 76 376 33Q322-10 240-10Q136-10 81.50 54.50Q27 119 27 225Q27 330 85 403Q143 476 245 476Q347 476 401 405Q455 334 455 229Q455 224 454.50 213Q454 202 454 197L200 197Q200 125 240 125Q272 125 279 158M202 290L283 290Q281 349 242 349Q204 349 202 290M304 530L204 530L117 678L256 678L304 530Z"  horiz-adv-x="481" vert-adv-y="1000"  />

      
      <glyph glyph-name="unie9" unicode="&#xe9;" d="M279 158L448 157Q430 76 376 33Q322-10 240-10Q136-10 81.50 54.50Q27 119 27 225Q27 330 85 403Q143 476 245 476Q347 476 401 405Q455 334 455 229Q455 224 454.50 213Q454 202 454 197L200 197Q200 125 240 125Q272 125 279 158M202 290L283 290Q281 349 242 349Q204 349 202 290M375 678L287 530L188 530L235 678L375 678Z"  horiz-adv-x="481" vert-adv-y="1000"  />

      
      <glyph glyph-name="uniea" unicode="&#xea;" d="M279 158L448 157Q430 76 376 33Q322-10 240-10Q136-10 81.50 54.50Q27 119 27 225Q27 330 85 403Q143 476 245 476Q347 476 401 405Q455 334 455 229Q455 224 454.50 213Q454 202 454 197L200 197Q200 125 240 125Q272 125 279 158M202 290L283 290Q281 349 242 349Q204 349 202 290M256 690L385 573L327 510L253 576L173 506L113 573L256 690Z"  horiz-adv-x="481" vert-adv-y="1000"  />

      
      <glyph glyph-name="unieb" unicode="&#xeb;" d="M279 158L448 157Q430 76 376 33Q322-10 240-10Q136-10 81.50 54.50Q27 119 27 225Q27 330 85 403Q143 476 245 476Q347 476 401 405Q455 334 455 229Q455 224 454.50 213Q454 202 454 197L200 197Q200 125 240 125Q272 125 279 158M202 290L283 290Q281 349 242 349Q204 349 202 290M419 602Q419 573 397.50 551.50Q376 530 347 530Q317 530 295 551.50Q273 573 273 603Q273 633 294.50 653.50Q316 674 346 674Q376 674 397.50 653Q419 632 419 602M227 602Q227 573 205.50 551.50Q184 530 155 530Q125 530 103 551.50Q81 573 81 603Q81 633 102.50 653.50Q124 674 154 674Q184 674 205.50 653Q227 632 227 602Z"  horiz-adv-x="481" vert-adv-y="1000"  />

      
      <glyph glyph-name="uniec" unicode="&#xec;" d="M213 0L40 0L40 467L213 467L213 0M194 530L94 530L7 678L146 678L194 530Z"  horiz-adv-x="253" vert-adv-y="1000"  />

      
      <glyph glyph-name="unied" unicode="&#xed;" d="M213 0L40 0L40 467L213 467L213 0M244 678L156 530L57 530L104 678L244 678Z"  horiz-adv-x="253" vert-adv-y="1000"  />

      
      <glyph glyph-name="uniee" unicode="&#xee;" d="M213 0L40 0L40 467L213 467L213 0M132 690L261 573L203 510L129 576L49 506L-11 573L132 690Z"  horiz-adv-x="253" vert-adv-y="1000"  />

      
      <glyph glyph-name="unief" unicode="&#xef;" d="M213 0L40 0L40 467L213 467L213 0M295 602Q295 573 273.50 551.50Q252 530 223 530Q193 530 171 551.50Q149 573 149 603Q149 633 170.50 653.50Q192 674 222 674Q252 674 273.50 653Q295 632 295 602M103 602Q103 573 81.50 551.50Q60 530 31 530Q1 530-21 551.50Q-43 573-43 603Q-43 633-21.50 653.50Q0 674 30 674Q60 674 81.50 653Q103 632 103 602Z"  horiz-adv-x="253" vert-adv-y="1000"  />

      
      <glyph glyph-name="unif0" unicode="&#xf0;" d="M386 663L303 617Q381 548 421.50 453Q462 358 462 252Q462 122 404 57Q344-10 246-10Q140-10 83.50 57Q27 124 27 232Q27 334 81.50 404Q136 474 235 476Q216 524 189 556L80 496L45 559L136 609Q97 637 41 661L86 731Q165 709 236 665L351 728L386 663M293 233Q293 248 291 264Q289 280 284.50 300Q280 320 269 332.50Q258 345 243 345Q216 345 205 307Q194 269 194 233Q194 219 196 202.50Q198 186 202.50 166Q207 146 218 133Q229 120 244 120Q272 120 282.50 158Q293 196 293 233Z"  horiz-adv-x="488" vert-adv-y="1000"  />

      
      <glyph glyph-name="unif1" unicode="&#xf1;" d="M451 0L277 0L277 247Q277 304 250 304Q213 304 213 235L213 0L40 0L40 467L213 467Q211 409 209 378Q251 477 332 477Q394 477 422.50 430.50Q451 384 451 318L451 0M425 665L425 651Q425 601 397 566.50Q369 532 320 532Q294 532 256 548.50Q218 565 203 565Q176 565 176 530L85 530L85 532Q85 587 109 624.50Q133 662 186 662Q212 662 251.50 645.50Q291 629 307 629Q335 629 335 665L425 665Z"  horiz-adv-x="491" vert-adv-y="1000"  />

      
      <glyph glyph-name="unif2" unicode="&#xf2;" d="M461 229Q461 123 403.50 56.50Q346-10 241-10Q138-10 82.50 58.50Q27 127 27 232Q27 337 83.50 407Q140 477 242 477Q348 477 404.50 407.50Q461 338 461 229M293 233Q293 271 282 308.50Q271 346 243 346Q216 346 205.50 308.50Q195 271 195 233Q195 195 205.50 158Q216 121 244 121Q271 121 282 158.50Q293 196 293 233M298 530L198 530L111 678L250 678L298 530Z"  horiz-adv-x="487" vert-adv-y="1000"  />

      
      <glyph glyph-name="unif3" unicode="&#xf3;" d="M461 229Q461 123 403.50 56.50Q346-10 241-10Q138-10 82.50 58.50Q27 127 27 232Q27 337 83.50 407Q140 477 242 477Q348 477 404.50 407.50Q461 338 461 229M293 233Q293 271 282 308.50Q271 346 243 346Q216 346 205.50 308.50Q195 271 195 233Q195 195 205.50 158Q216 121 244 121Q271 121 282 158.50Q293 196 293 233M378 678L290 530L191 530L238 678L378 678Z"  horiz-adv-x="487" vert-adv-y="1000"  />

      
      <glyph glyph-name="unif4" unicode="&#xf4;" d="M461 229Q461 123 403.50 56.50Q346-10 241-10Q138-10 82.50 58.50Q27 127 27 232Q27 337 83.50 407Q140 477 242 477Q348 477 404.50 407.50Q461 338 461 229M293 233Q293 271 282 308.50Q271 346 243 346Q216 346 205.50 308.50Q195 271 195 233Q195 195 205.50 158Q216 121 244 121Q271 121 282 158.50Q293 196 293 233M258 690L387 573L329 510L255 576L175 506L115 573L258 690Z"  horiz-adv-x="487" vert-adv-y="1000"  />

      
      <glyph glyph-name="unif5" unicode="&#xf5;" d="M461 229Q461 123 403.50 56.50Q346-10 241-10Q138-10 82.50 58.50Q27 127 27 232Q27 337 83.50 407Q140 477 242 477Q348 477 404.50 407.50Q461 338 461 229M293 233Q293 271 282 308.50Q271 346 243 346Q216 346 205.50 308.50Q195 271 195 233Q195 195 205.50 158Q216 121 244 121Q271 121 282 158.50Q293 196 293 233M410 665L410 651Q410 601 382 566.50Q354 532 305 532Q278 532 240 548.50Q202 565 188 565Q161 565 161 530L70 530L70 532Q70 587 94 624.50Q118 662 171 662Q197 662 236.50 645.50Q276 629 292 629Q320 629 320 665L410 665Z"  horiz-adv-x="487" vert-adv-y="1000"  />

      
      <glyph glyph-name="unif6" unicode="&#xf6;" d="M461 229Q461 123 403.50 56.50Q346-10 241-10Q138-10 82.50 58.50Q27 127 27 232Q27 337 83.50 407Q140 477 242 477Q348 477 404.50 407.50Q461 338 461 229M293 233Q293 271 282 308.50Q271 346 243 346Q216 346 205.50 308.50Q195 271 195 233Q195 195 205.50 158Q216 121 244 121Q271 121 282 158.50Q293 196 293 233M409 602Q409 573 387.50 551.50Q366 530 337 530Q307 530 285 551.50Q263 573 263 603Q263 633 284.50 653.50Q306 674 336 674Q366 674 387.50 653Q409 632 409 602M217 602Q217 573 195.50 551.50Q174 530 145 530Q115 530 93 551.50Q71 573 71 603Q71 633 92.50 653.50Q114 674 144 674Q174 674 195.50 653Q217 632 217 602Z"  horiz-adv-x="487" vert-adv-y="1000"  />

      
      <glyph glyph-name="unif7" unicode="&#xf7;" d="M302.50 562.50Q302.50 562.50 313.25 551.75Q324 541 324 510Q324 479 302.50 457.50Q281 436 250 436Q219 436 197.50 457.50Q176 479 176 510Q176 541 197.50 562.50Q219 584 250 584Q281 584 302.50 562.50M467 280L33 280L33 400L467 400L467 280M302.50 222.50Q302.50 222.50 313.25 211.75Q324 201 324 170Q324 139 302.50 117.50Q281 96 250 96Q219 96 197.50 117.50Q176 139 176 170Q176 201 197.50 222.50Q219 244 250 244Q281 244 302.50 222.50Z"  horiz-adv-x="500" vert-adv-y="1000"  />

      
      <glyph glyph-name="unif8" unicode="&#xf8;" d="M461 472L411 400Q461 332 461 229Q461 123 403.50 56.50Q346-10 241-10Q188-10 141 11L94-56L27-8L77 65Q27 133 27 232Q27 337 83.50 407Q140 477 242 477Q299 477 347 453L393 519L461 472M293 233Q293 271 282 308.50Q271 346 243 346Q216 346 205.50 308.50Q195 271 195 233Q195 195 205.50 158Q216 121 244 121Q271 121 282 158.50Q293 196 293 233Z"  horiz-adv-x="487" vert-adv-y="1000"  />

      
      <glyph glyph-name="unif9" unicode="&#xf9;" d="M459 467L459 180Q459 130 444.50 95Q430 60 392 33Q331-10 250-10Q169-10 108 33Q70 60 55 95Q40 130 40 180L40 467L213 467L213 193Q213 175 214.50 164.50Q216 154 225 144.50Q234 135 250 135Q267 135 275.50 146.50Q284 158 285 168.50Q286 179 286 198Q286 202 286 204L286 467L459 467M294 530L194 530L107 678L246 678L294 530Z"  horiz-adv-x="499" vert-adv-y="1000"  />

      
      <glyph glyph-name="unifa" unicode="&#xfa;" d="M459 467L459 180Q459 130 444.50 95Q430 60 392 33Q331-10 250-10Q169-10 108 33Q70 60 55 95Q40 130 40 180L40 467L213 467L213 193Q213 175 214.50 164.50Q216 154 225 144.50Q234 135 250 135Q267 135 275.50 146.50Q284 158 285 168.50Q286 179 286 198Q286 202 286 204L286 467L459 467M389 678L301 530L202 530L249 678L389 678Z"  horiz-adv-x="499" vert-adv-y="1000"  />

      
      <glyph glyph-name="unifb" unicode="&#xfb;" d="M459 467L459 180Q459 130 444.50 95Q430 60 392 33Q331-10 250-10Q169-10 108 33Q70 60 55 95Q40 130 40 180L40 467L213 467L213 193Q213 175 214.50 164.50Q216 154 225 144.50Q234 135 250 135Q267 135 275.50 146.50Q284 158 285 168.50Q286 179 286 198Q286 202 286 204L286 467L459 467M259 690L388 573L330 510L256 576L176 506L116 573L259 690Z"  horiz-adv-x="499" vert-adv-y="1000"  />

      
      <glyph glyph-name="unifc" unicode="&#xfc;" d="M459 467L459 180Q459 130 444.50 95Q430 60 392 33Q331-10 250-10Q169-10 108 33Q70 60 55 95Q40 130 40 180L40 467L213 467L213 193Q213 175 214.50 164.50Q216 154 225 144.50Q234 135 250 135Q267 135 275.50 146.50Q284 158 285 168.50Q286 179 286 198Q286 202 286 204L286 467L459 467M422 602Q422 573 400.50 551.50Q379 530 350 530Q320 530 298 551.50Q276 573 276 603Q276 633 297.50 653.50Q319 674 349 674Q379 674 400.50 653Q422 632 422 602M230 602Q230 573 208.50 551.50Q187 530 158 530Q128 530 106 551.50Q84 573 84 603Q84 633 105.50 653.50Q127 674 157 674Q187 674 208.50 653Q230 632 230 602Z"  horiz-adv-x="499" vert-adv-y="1000"  />

      
      <glyph glyph-name="unifd" unicode="&#xfd;" d="M456 467L235-215L57-215L139 19L0 467L174 467Q222 277 229 202Q248 330 257 366L283 467L456 467M369 678L281 530L182 530L229 678L369 678Z"  horiz-adv-x="456" vert-adv-y="1000"  />

      
      <glyph glyph-name="unife" unicode="&#xfe;" d="M213 729L213 467Q213 445 209 401Q229 439 253.50 458Q278 477 316 477Q358 477 389.50 453Q421 429 437 390Q453 351 460.50 312Q468 273 468 234Q468 195 461.50 156.50Q455 118 439.50 78.50Q424 39 393.50 14.50Q363-10 321-10Q283-10 258 8.50Q233 27 209 63Q213 17 213-8L213-215L40-215L40 729L213 729M289 239Q289 334 248 334Q208 334 208 237Q208 136 247 136Q289 136 289 239Z"  horiz-adv-x="495" vert-adv-y="1000"  />

      
      <glyph glyph-name="uniff" unicode="&#xff;" d="M456 467L235-215L57-215L139 19L0 467L174 467Q222 277 229 202Q248 330 257 366L283 467L456 467M403 602Q403 573 381.50 551.50Q360 530 331 530Q301 530 279 551.50Q257 573 257 603Q257 633 278.50 653.50Q300 674 330 674Q360 674 381.50 653Q403 632 403 602M211 602Q211 573 189.50 551.50Q168 530 139 530Q109 530 87 551.50Q65 573 65 603Q65 633 86.50 653.50Q108 674 138 674Q168 674 189.50 653Q211 632 211 602Z"  horiz-adv-x="456" vert-adv-y="1000"  />

      
      <glyph glyph-name="uni0100" unicode="&#x0100;" d="M527 0L341 0L327 85L206 85L191 0L5 0L166 667L386 667L527 0M230 227L306 227Q283 382 272 507Q270 492 266.50 460Q263 428 261 413Q246 310 230 227M445 743L105 743L105 837L445 837L445 743Z"  horiz-adv-x="532" vert-adv-y="1000"  />

      
      <glyph glyph-name="uni0101" unicode="&#x0101;" d="M457 0L283 0Q284 13 286 39.50Q288 66 289 79Q244-10 169-10Q127-10 97.50 15Q68 40 53.50 80.50Q39 121 33 159Q27 197 27 236Q27 276 33.50 314Q40 352 55 390.50Q70 429 100.50 453Q131 477 173 477Q246 477 285 393Q284 401 283 427Q282 453 280 467L457 467L457 0M281 254Q281 334 245 334Q201 334 201 217Q201 133 240 133Q247 133 253.50 136Q260 139 264 145Q268 151 271 157Q274 163 276 173.50Q278 184 279 190.50Q280 197 280.50 209Q281 221 281 226Q281 231 281 242Q281 253 281 254M430 553L90 553L90 647L430 647L430 553Z"  horiz-adv-x="497" vert-adv-y="1000"  />

      
      <glyph glyph-name="uni0102" unicode="&#x0102;" d="M527 0L341 0L327 85L206 85L191 0L5 0L166 667L386 667L527 0M230 227L306 227Q283 382 272 507Q270 492 266.50 460Q263 428 261 413Q246 310 230 227M357 867L426 867Q420 798 377.50 758Q335 718 266 718Q197 718 154.50 758Q112 798 106 867L175 867Q188 836 209 825Q230 814 266 814Q302 814 323 825Q344 836 357 867Z"  horiz-adv-x="532" vert-adv-y="1000"  />

      
      <glyph glyph-name="uni0103" unicode="&#x0103;" d="M457 0L283 0Q284 13 286 39.50Q288 66 289 79Q244-10 169-10Q127-10 97.50 15Q68 40 53.50 80.50Q39 121 33 159Q27 197 27 236Q27 276 33.50 314Q40 352 55 390.50Q70 429 100.50 453Q131 477 173 477Q246 477 285 393Q284 401 283 427Q282 453 280 467L457 467L457 0M281 254Q281 334 245 334Q201 334 201 217Q201 133 240 133Q247 133 253.50 136Q260 139 264 145Q268 151 271 157Q274 163 276 173.50Q278 184 279 190.50Q280 197 280.50 209Q281 221 281 226Q281 231 281 242Q281 253 281 254M340 669L409 669Q403 600 360.50 560Q318 520 249 520Q180 520 137.50 560Q95 600 89 669L158 669Q171 638 192 627Q213 616 249 616Q285 616 306 627Q327 638 340 669Z"  horiz-adv-x="497" vert-adv-y="1000"  />

      
      <glyph glyph-name="uni0104" unicode="&#x0104;" d="M166 667L386 667L527 0L469 0Q441-38 441-66Q441-85 452-94Q462-103 481-103Q497-103 515-94L507-171Q473-183 443-183Q401-183 375-164Q345-142 345-103Q345-74 364-45Q379-22 404 0L341 0L327 85L206 85L191 0L5 0L166 667M230 227L306 227Q293 306 286 371Q275 482 272 507Q264 433 254 368Q244 299 230 227Z"  horiz-adv-x="532" vert-adv-y="1000"  />

      
      <glyph glyph-name="uni0105" unicode="&#x0105;" d="M280 467L457 467L457 0L403 0Q379-36 379-65Q379-81 389-90Q399-99 418-99Q434-99 450-90L442-163Q414-175 385-175Q334-175 307-151Q285-131 285-97Q285-69 302-42Q315-21 336 0L283 0L289 79Q272 44 250 23Q216-10 170-10Q120-10 86 27Q27 92 27 241Q27 304 43.50 359Q60 414 89 443Q123 477 172 477Q219 477 252 443Q273 420 285 393L280 467M201 230L201 217Q201 160 219 142Q227 133 240 133Q250 133 260 141Q281 161 281 223L281 254Q281 312 264 327Q255 334 246 334Q234 334 223 325Q201 304 201 230Z"  horiz-adv-x="497" vert-adv-y="1000"  />

      
      <glyph glyph-name="uni0106" unicode="&#x0106;" d="M422 205L411 12Q356-12 304-12Q235-12 181 17.50Q127 47 95 96.50Q63 146 46.50 205.50Q30 265 30 331Q30 426 61 503Q92 580 160.50 629.50Q229 679 325 679Q374 679 414 662L414 472Q376 512 331 512Q287 512 259 482Q231 452 222.50 415Q214 378 214 334Q214 291 222.50 255.50Q231 220 258 191Q285 162 328 162Q374 162 422 205M454 868L366 720L267 720L314 868L454 868Z"  horiz-adv-x="445" vert-adv-y="1000"  />

      
      <glyph glyph-name="uni0107" unicode="&#x0107;" d="M283 152L283-7Q259-10 236-10Q138-10 82.50 63Q27 136 27 236Q27 336 88.50 406.50Q150 477 248 477Q259 477 283 475L283 323Q206 318 206 239Q206 207 223.50 179.50Q241 152 271 152L283 152M344 678L256 530L157 530L204 678L344 678Z"  horiz-adv-x="303" vert-adv-y="1000"  />

      
      <glyph glyph-name="uni0108" unicode="&#x0108;" d="M422 205L411 12Q356-12 304-12Q235-12 181 17.50Q127 47 95 96.50Q63 146 46.50 205.50Q30 265 30 331Q30 426 61 503Q92 580 160.50 629.50Q229 679 325 679Q374 679 414 662L414 472Q376 512 331 512Q287 512 259 482Q231 452 222.50 415Q214 378 214 334Q214 291 222.50 255.50Q231 220 258 191Q285 162 328 162Q374 162 422 205M332 870L469 772L412 706L329 762L247 704L186 770L332 870Z"  horiz-adv-x="445" vert-adv-y="1000"  />

      
      <glyph glyph-name="uni0109" unicode="&#x0109;" d="M283 152L283-7Q259-10 236-10Q138-10 82.50 63Q27 136 27 236Q27 336 88.50 406.50Q150 477 248 477Q259 477 283 475L283 323Q206 318 206 239Q206 207 223.50 179.50Q241 152 271 152L283 152M226 690L355 573L297 510L223 576L143 506L83 573L226 690Z"  horiz-adv-x="303" vert-adv-y="1000"  />

      
      <glyph glyph-name="uni010A" unicode="&#x010A;" d="M422 205L411 12Q356-12 304-12Q235-12 181 17.50Q127 47 95 96.50Q63 146 46.50 205.50Q30 265 30 331Q30 426 61 503Q92 580 160.50 629.50Q229 679 325 679Q374 679 414 662L414 472Q376 512 331 512Q287 512 259 482Q231 452 222.50 415Q214 378 214 334Q214 291 222.50 255.50Q231 220 258 191Q285 162 328 162Q374 162 422 205M378 848.50Q378 848.50 389 837.25Q400 826 400 795Q400 764 378 742Q356 720 325 720Q293 720 270.50 742Q248 764 248 796Q248 827 270 849Q292 871 324 871Q356 871 378 848.50Z"  horiz-adv-x="445" vert-adv-y="1000"  />

      
      <glyph glyph-name="uni010B" unicode="&#x010B;" d="M283 152L283-7Q259-10 236-10Q138-10 82.50 63Q27 136 27 236Q27 336 88.50 406.50Q150 477 248 477Q259 477 283 475L283 323Q206 318 206 239Q206 207 223.50 179.50Q241 152 271 152L283 152M278.50 658.50Q278.50 658.50 289.75 647.25Q301 636 301 605Q301 574 279 552Q257 530 226 530Q194 530 171.50 552Q149 574 149 606Q149 637 171 659Q193 681 225 681Q256 681 278.50 658.50Z"  horiz-adv-x="303" vert-adv-y="1000"  />

      
      <glyph glyph-name="uni010C" unicode="&#x010C;" d="M422 205L411 12Q356-12 304-12Q235-12 181 17.50Q127 47 95 96.50Q63 146 46.50 205.50Q30 265 30 331Q30 426 61 503Q92 580 160.50 629.50Q229 679 325 679Q374 679 414 662L414 472Q376 512 331 512Q287 512 259 482Q231 452 222.50 415Q214 378 214 334Q214 291 222.50 255.50Q231 220 258 191Q285 162 328 162Q374 162 422 205M474 802L325 704L191 804L252 873L332 817L417 871L474 802Z"  horiz-adv-x="445" vert-adv-y="1000"  />

      
      <glyph glyph-name="uni010D" unicode="&#x010D;" d="M283 152L283-7Q259-10 236-10Q138-10 82.50 63Q27 136 27 236Q27 336 88.50 406.50Q150 477 248 477Q259 477 283 475L283 323Q206 318 206 239Q206 207 223.50 179.50Q241 152 271 152L283 152M355 623L217 506L83 623L143 690L223 620L297 686L355 623Z"  horiz-adv-x="303" vert-adv-y="1000"  />

      
      <glyph glyph-name="uni010E" unicode="&#x010E;" d="M47 667L202 667Q350 667 428.50 575Q507 483 507 333Q507 209 461 128Q422 57 362 28.50Q302 0 215 0L47 0L47 667M227 500L227 161Q323 164 323 328Q323 356 319.50 382Q316 408 306.50 436.50Q297 465 276.50 482.50Q256 500 227 500M394 802L245 704L111 804L172 873L252 817L337 871L394 802Z"  horiz-adv-x="537" vert-adv-y="1000"  />

      
      <glyph glyph-name="uni010F" unicode="&#x010F;" d="M457 0L280 0L280 20Q280 21 283 63Q260 27 236.50 8.50Q213-10 177-10Q133-10 102 13Q71 36 55.50 74Q40 112 33.50 150Q27 188 27 229Q27 271 33 309.50Q39 348 53.50 388Q68 428 99.50 452.50Q131 477 175 477Q245 477 286 399L283 474L283 729L457 729L457 0M289 238Q289 333 249 333Q206 333 206 234Q206 139 249 139Q289 139 289 238M698 667L606 446L503 446L550 667L698 667Z"  horiz-adv-x="692" vert-adv-y="1000"  />

      
      <glyph glyph-name="uni0110" unicode="&#x0110;" d="M47 667L203 667Q351 667 430 573Q507 482 507 336Q507 162 420 72Q350 0 215 0L47 0L47 290L7 290L7 393L47 393L47 667M227 290L227 161Q323 167 323 327Q323 424 288 470Q265 500 232 500L227 500L227 393L280 393L280 290L227 290Z"  horiz-adv-x="537" vert-adv-y="1000"  />

      
      <glyph glyph-name="uni0111" unicode="&#x0111;" d="M457 499L457 0L280 0L280 20L283 63Q262 28 241 11Q212-10 174-10Q122-10 86 27Q27 87 27 207Q27 339 87 399Q123 435 172 435Q212 435 243 412Q272 391 286 357Q284 421 283 432L283 499L163 499L163 604L284 604L284 729L457 729L457 604L518 604L518 499L457 499M250 307Q235 307 225 295Q206 273 206 210Q206 157 226 138Q236 129 249 129Q262 129 270 138Q289 158 289 217Q289 278 270 298Q261 307 250 307Z"  horiz-adv-x="528" vert-adv-y="1000"  />

      
      <glyph glyph-name="uni0112" unicode="&#x0112;" d="M381 0L47 0L47 667L381 667L381 510L227 510L227 413L365 413L365 262L227 262L227 160L381 160L381 0M385 743L45 743L45 837L385 837L385 743Z"  horiz-adv-x="411" vert-adv-y="1000"  />

      
      <glyph glyph-name="uni0113" unicode="&#x0113;" d="M279 158L448 157Q430 76 376 33Q322-10 240-10Q136-10 81.50 54.50Q27 119 27 225Q27 330 85 403Q143 476 245 476Q347 476 401 405Q455 334 455 229Q455 224 454.50 213Q454 202 454 197L200 197Q200 125 240 125Q272 125 279 158M202 290L283 290Q281 349 242 349Q204 349 202 290M411 553L71 553L71 647L411 647L411 553Z"  horiz-adv-x="481" vert-adv-y="1000"  />

      
      <glyph glyph-name="uni0116" unicode="&#x0116;" d="M381 0L47 0L47 667L381 667L381 510L227 510L227 413L365 413L365 262L227 262L227 160L381 160L381 0M268.50 848.50Q268.50 848.50 279.75 837.25Q291 826 291 795Q291 764 269 742Q247 720 216 720Q184 720 161.50 742Q139 764 139 796Q139 827 161 849Q183 871 215 871Q246 871 268.50 848.50Z"  horiz-adv-x="411" vert-adv-y="1000"  />

      
      <glyph glyph-name="uni0117" unicode="&#x0117;" d="M279 158L448 157Q430 76 376 33Q322-10 240-10Q136-10 81.50 54.50Q27 119 27 225Q27 330 85 403Q143 476 245 476Q347 476 401 405Q455 334 455 229Q455 224 454.50 213Q454 202 454 197L200 197Q200 125 240 125Q272 125 279 158M202 290L283 290Q281 349 242 349Q204 349 202 290M294.50 658.50Q294.50 658.50 305.75 647.25Q317 636 317 605Q317 574 295 552Q273 530 242 530Q210 530 187.50 552Q165 574 165 606Q165 637 187 659Q209 681 241 681Q272 681 294.50 658.50Z"  horiz-adv-x="481" vert-adv-y="1000"  />

      
      <glyph glyph-name="uni0118" unicode="&#x0118;" d="M47 667L381 667L381 510L227 510L227 413L365 413L365 262L227 262L227 160L381 160L381 0L325 0Q297-38 297-66Q297-85 308-94Q318-103 337-103Q353-103 371-94L363-171Q329-183 299-183Q257-183 231-164Q201-142 201-103Q201-74 220-45Q235-22 260 0L47 0L47 667Z"  horiz-adv-x="411" vert-adv-y="1000"  />

      
      <glyph glyph-name="uni0119" unicode="&#x0119;" d="M279 158L448 158Q434 78 369 27Q360 20 335.50 3.50Q311-13 301-23Q280-42 280-65Q280-82 290-90Q299-99 316-99Q333-99 351-90L343-163Q315-175 282-175Q237-175 214-155Q186-132 186-93Q186-45 236-10Q148-10 92 44Q27 107 27 225Q27 349 102 421Q158 476 244 476Q334 476 388 420Q455 349 455 226Q455 207 454 197L200 197Q200 152 216 135Q226 125 240 125Q256 125 267 136Q276 145 279 158M202 290L283 290Q283 321 268 337Q257 349 242 349Q228 349 218 339Q202 323 202 290Z"  horiz-adv-x="481" vert-adv-y="1000"  />

      
      <glyph glyph-name="uni011A" unicode="&#x011A;" d="M381 0L47 0L47 667L381 667L381 510L227 510L227 413L365 413L365 262L227 262L227 160L381 160L381 0M364 802L215 704L81 804L142 873L222 817L307 871L364 802Z"  horiz-adv-x="411" vert-adv-y="1000"  />

      
      <glyph glyph-name="uni011B" unicode="&#x011B;" d="M279 158L448 157Q430 76 376 33Q322-10 240-10Q136-10 81.50 54.50Q27 119 27 225Q27 330 85 403Q143 476 245 476Q347 476 401 405Q455 334 455 229Q455 224 454.50 213Q454 202 454 197L200 197Q200 125 240 125Q272 125 279 158M202 290L283 290Q281 349 242 349Q204 349 202 290M385 623L247 506L113 623L173 690L253 620L327 686L385 623Z"  horiz-adv-x="481" vert-adv-y="1000"  />

      
      <glyph glyph-name="uni011C" unicode="&#x011C;" d="M530 385L530 358Q530 188 486 103Q457 47 404 17.50Q351-12 287-12Q231-12 186.50 8Q142 28 113 61Q84 94 65 139Q46 184 38 231Q30 278 30 330Q30 396 43.50 454.50Q57 513 85.50 565Q114 617 165.50 648Q217 679 287 679Q444 679 516 514L341 450Q338 476 325 497Q312 518 288 518Q214 518 214 314Q214 149 282 149Q316 149 330.50 178.50Q345 208 345 245L279 245L279 385L530 385M307 870L444 772L387 706L304 762L222 704L161 770L307 870Z"  horiz-adv-x="560" vert-adv-y="1000"  />

      
      <glyph glyph-name="uni011D" unicode="&#x011D;" d="M453 467L453-12Q453-92 418-140Q362-215 243-215Q57-215 33-46L210-46Q210-62 220-73Q230-84 246-84Q287-84 287-18L287 54Q242-7 178-7Q123-7 87 35.50Q51 78 39 129Q27 180 27 234Q27 272 34.50 311Q42 350 58 389Q74 428 104.50 452.50Q135 477 176 477Q233 477 281 406L278 467L453 467M285 235Q285 336 247 336Q206 336 206 238Q206 136 247 136Q285 136 285 235M253 690L382 573L324 510L250 576L170 506L110 573L253 690Z"  horiz-adv-x="493" vert-adv-y="1000"  />

      
      <glyph glyph-name="uni011E" unicode="&#x011E;" d="M530 385L530 358Q530 188 486 103Q457 47 404 17.50Q351-12 287-12Q231-12 186.50 8Q142 28 113 61Q84 94 65 139Q46 184 38 231Q30 278 30 330Q30 396 43.50 454.50Q57 513 85.50 565Q114 617 165.50 648Q217 679 287 679Q444 679 516 514L341 450Q338 476 325 497Q312 518 288 518Q214 518 214 314Q214 149 282 149Q316 149 330.50 178.50Q345 208 345 245L279 245L279 385L530 385M381 867L450 867Q444 798 401.50 758Q359 718 290 718Q221 718 178.50 758Q136 798 130 867L199 867Q212 836 233 825Q254 814 290 814Q326 814 347 825Q368 836 381 867Z"  horiz-adv-x="560" vert-adv-y="1000"  />

      
      <glyph glyph-name="uni011F" unicode="&#x011F;" d="M453 467L453-12Q453-92 418-140Q362-215 243-215Q57-215 33-46L210-46Q210-62 220-73Q230-84 246-84Q287-84 287-18L287 54Q242-7 178-7Q123-7 87 35.50Q51 78 39 129Q27 180 27 234Q27 272 34.50 311Q42 350 58 389Q74 428 104.50 452.50Q135 477 176 477Q233 477 281 406L278 467L453 467M285 235Q285 336 247 336Q206 336 206 238Q206 136 247 136Q285 136 285 235M348 669L417 669Q411 600 368.50 560Q326 520 257 520Q188 520 145.50 560Q103 600 97 669L166 669Q179 638 200 627Q221 616 257 616Q293 616 314 627Q335 638 348 669Z"  horiz-adv-x="493" vert-adv-y="1000"  />

      
      <glyph glyph-name="uni0120" unicode="&#x0120;" d="M530 385L530 358Q530 188 486 103Q457 47 404 17.50Q351-12 287-12Q231-12 186.50 8Q142 28 113 61Q84 94 65 139Q46 184 38 231Q30 278 30 330Q30 396 43.50 454.50Q57 513 85.50 565Q114 617 165.50 648Q217 679 287 679Q444 679 516 514L341 450Q338 476 325 497Q312 518 288 518Q214 518 214 314Q214 149 282 149Q316 149 330.50 178.50Q345 208 345 245L279 245L279 385L530 385M340 848.50Q340 848.50 351 837.25Q362 826 362 795Q362 764 340 742Q318 720 287 720Q255 720 232.50 742Q210 764 210 796Q210 827 232 849Q254 871 286 871Q318 871 340 848.50Z"  horiz-adv-x="560" vert-adv-y="1000"  />

      
      <glyph glyph-name="uni0121" unicode="&#x0121;" d="M453 467L453-12Q453-92 418-140Q362-215 243-215Q57-215 33-46L210-46Q210-62 220-73Q230-84 246-84Q287-84 287-18L287 54Q242-7 178-7Q123-7 87 35.50Q51 78 39 129Q27 180 27 234Q27 272 34.50 311Q42 350 58 389Q74 428 104.50 452.50Q135 477 176 477Q233 477 281 406L278 467L453 467M285 235Q285 336 247 336Q206 336 206 238Q206 136 247 136Q285 136 285 235M288.50 658.50Q288.50 658.50 299.75 647.25Q311 636 311 605Q311 574 289 552Q267 530 236 530Q204 530 181.50 552Q159 574 159 606Q159 637 181 659Q203 681 235 681Q266 681 288.50 658.50Z"  horiz-adv-x="493" vert-adv-y="1000"  />

      
      <glyph glyph-name="uni0122" unicode="&#x0122;" d="M530 385L530 358Q530 188 486 103Q457 47 404 17.50Q351-12 287-12Q231-12 186.50 8Q142 28 113 61Q84 94 65 139Q46 184 38 231Q30 278 30 330Q30 396 43.50 454.50Q57 513 85.50 565Q114 617 165.50 648Q217 679 287 679Q444 679 516 514L341 450Q338 476 325 497Q312 518 288 518Q214 518 214 314Q214 149 282 149Q316 149 330.50 178.50Q345 208 345 245L279 245L279 385L530 385M368-45L288-234L186-234L221-45L368-45Z"  horiz-adv-x="560" vert-adv-y="1000"  />

      
      <glyph glyph-name="uni0123" unicode="&#x0123;" d="M453 467L453-12Q453-92 418-140Q362-215 243-215Q57-215 33-46L210-46Q210-62 220-73Q230-84 246-84Q287-84 287-18L287 54Q242-7 178-7Q123-7 87 35.50Q51 78 39 129Q27 180 27 234Q27 272 34.50 311Q42 350 58 389Q74 428 104.50 452.50Q135 477 176 477Q233 477 281 406L278 467L453 467M285 235Q285 336 247 336Q206 336 206 238Q206 136 247 136Q285 136 285 235M154 513L234 702L336 702L301 513L154 513Z"  horiz-adv-x="493" vert-adv-y="1000"  />

      
      <glyph glyph-name="uni0124" unicode="&#x0124;" d="M493 0L313 0L313 268L227 268L227 0L47 0L47 667L227 667L227 431L313 431L313 667L493 667L493 0M277 870L414 772L357 706L274 762L192 704L131 770L277 870Z"  horiz-adv-x="539" vert-adv-y="1000"  />

      
      <glyph glyph-name="uni0125" unicode="&#x0125;" d="M451 0L277 0L277 247Q277 304 250 304Q213 304 213 235L213 0L40 0L40 729L213 729L213 468Q213 438 209 378Q251 477 332 477Q394 477 422.50 430.50Q451 384 451 318L451 0M136 925L265 808L207 745L133 811L53 741L-7 808L136 925Z"  horiz-adv-x="491" vert-adv-y="1000"  />

      
      <glyph glyph-name="uni0126" unicode="&#x0126;" d="M47 0L47 505L-3 505L-3 626L47 626L47 667L227 667L227 626L313 626L313 667L493 667L493 626L543 626L543 505L493 505L493 0L313 0L313 268L227 268L227 0L47 0M313 505L227 505L227 421L313 421L313 505Z"  horiz-adv-x="539" vert-adv-y="1000"  />

      
      <glyph glyph-name="uni0127" unicode="&#x0127;" d="M482 0L308 0L308 205Q308 262 281 262Q244 262 244 193L244 0L71 0L71 499L10 499L10 604L71 604L71 729L244 729L244 604L365 604L365 499L245 499L244 442Q244 428 240 336Q282 435 363 435Q425 435 453.50 388.50Q482 342 482 276L482 0Z"  horiz-adv-x="522" vert-adv-y="1000"  />

      
      <glyph glyph-name="uni012A" unicode="&#x012A;" d="M227 0L47 0L47 667L227 667L227 0M307 743L-33 743L-33 837L307 837L307 743Z"  horiz-adv-x="273" vert-adv-y="1000"  />

      
      <glyph glyph-name="uni012B" unicode="&#x012B;" d="M213 0L40 0L40 467L213 467L213 0M297 553L-43 553L-43 647L297 647L297 553Z"  horiz-adv-x="253" vert-adv-y="1000"  />

      
      <glyph glyph-name="uni012E" unicode="&#x012E;" d="M47 667L227 667L227 0Q199-38 199-66Q199-85 210-94Q220-103 239-103Q255-103 273-94L265-171Q231-183 201-183Q159-183 133-164Q103-142 103-103Q103-74 122-45Q137-22 162 0L47 0L47 667Z"  horiz-adv-x="273" vert-adv-y="1000"  />

      
      <glyph glyph-name="uni012F" unicode="&#x012F;" d="M40 467L213 467L213 0Q197-12 183-31Q168-52 168-67Q168-82 179-91Q190-99 206-99Q221-99 239-90L231-163Q203-175 170-175Q128-175 103-157Q74-136 74-99Q74-66 96-41Q114-20 142 0L40 0L40 467M56 541Q56 541 41 556Q26 571 26 612Q26 653 56 683Q86 713 127 713Q168 713 198 683Q228 653 228 612Q228 571 198 541Q168 511 127 511Q86 511 56 541Z"  horiz-adv-x="253" vert-adv-y="1000"  />

      
      <glyph glyph-name="uni0130" unicode="&#x0130;" d="M227 0L47 0L47 667L227 667L227 0M188.50 848.50Q188.50 848.50 199.75 837.25Q211 826 211 795Q211 764 189 742Q167 720 136 720Q104 720 81.50 742Q59 764 59 796Q59 827 81 849Q103 871 135 871Q166 871 188.50 848.50Z"  horiz-adv-x="273" vert-adv-y="1000"  />

      
      <glyph glyph-name="uni0131" unicode="&#x0131;" d="M213 0L40 0L40 467L213 467L213 0Z"  horiz-adv-x="253" vert-adv-y="1000"  />

      
      <glyph glyph-name="uni0134" unicode="&#x0134;" d="M307 667L307 204Q307 123 285 79Q240-12 118-12Q61-12 0 10L0 196Q31 157 72 157Q127 157 127 239L127 667L307 667M217 870L354 772L297 706L214 762L132 704L71 770L217 870Z"  horiz-adv-x="354" vert-adv-y="1000"  />

      
      <glyph glyph-name="uni0135" unicode="&#x0135;" d="M214-215L41-215L40 467L214 467L214-215M126 690L255 573L197 510L123 576L43 506L-17 573L126 690Z"  horiz-adv-x="254" vert-adv-y="1000"  />

      
      <glyph glyph-name="uni0136" unicode="&#x0136;" d="M536 0L342 0L222 319L227 0L47 0L47 667L227 667L222 369L328 667L518 667L376 345L536 0M357-45L277-234L175-234L210-45L357-45Z"  horiz-adv-x="541" vert-adv-y="1000"  />

      
      <glyph glyph-name="uni0137" unicode="&#x0137;" d="M495 0L296 0Q286 26 268 70.50Q250 115 236.50 151.50Q223 188 213 224L213 0L40 0L40 729L213 729L213 263Q223 295 236 328Q249 361 268 403Q287 445 296 467L483 467L368 252L495 0M334-45L254-234L152-234L187-45L334-45Z"  horiz-adv-x="495" vert-adv-y="1000"  />

      
      <glyph glyph-name="uni0139" unicode="&#x0139;" d="M362 0L47 0L47 667L227 667L227 160L362 160L362 0M264 868L176 720L77 720L124 868L264 868Z"  horiz-adv-x="369" vert-adv-y="1000"  />

      
      <glyph glyph-name="uni013A" unicode="&#x013A;" d="M213 0L40 0L40 729L213 729L213 0M244 918L156 770L57 770L104 918L244 918Z"  horiz-adv-x="253" vert-adv-y="1000"  />

      
      <glyph glyph-name="uni013B" unicode="&#x013B;" d="M362 0L47 0L47 667L227 667L227 160L362 160L362 0M287-45L207-234L105-234L140-45L287-45Z"  horiz-adv-x="369" vert-adv-y="1000"  />

      
      <glyph glyph-name="uni013C" unicode="&#x013C;" d="M213 0L40 0L40 729L213 729L213 0M204-45L124-234L22-234L57-45L204-45Z"  horiz-adv-x="253" vert-adv-y="1000"  />

      
      <glyph glyph-name="uni013D" unicode="&#x013D;" d="M362 0L47 0L47 667L227 667L227 160L362 160L362 0M463 667L373 458L273 458L319 667L463 667Z"  horiz-adv-x="477" vert-adv-y="1000"  />

      
      <glyph glyph-name="uni013E" unicode="&#x013E;" d="M213 0L40 0L40 729L213 729L213 0M453 667L361 446L258 446L305 667L453 667Z"  horiz-adv-x="447" vert-adv-y="1000"  />

      
      <glyph glyph-name="uni013F" unicode="&#x013F;" d="M362 0L47 0L47 667L227 667L227 160L362 160L362 0M386.50 386.50Q386.50 386.50 397.75 375.25Q409 364 409 333Q409 302 387 280Q365 258 334 258Q302 258 279.50 280Q257 302 257 334Q257 365 279 387Q301 409 333 409Q364 409 386.50 386.50Z"  horiz-adv-x="392" vert-adv-y="1000"  />

      
      <glyph glyph-name="uni0140" unicode="&#x0140;" d="M213 0L40 0L40 729L213 729L213 0M395 364Q395 333 373 311Q351 289 320 289Q288 289 265.50 311Q243 333 243 365Q243 396 265 418Q287 440 319 440Q350 440 372.50 418Q395 396 395 364Z"  horiz-adv-x="385" vert-adv-y="1000"  />

      
      <glyph glyph-name="uni0141" unicode="&#x0141;" d="M369 0L53 0L53 217L0 155L0 276L53 337L53 667L233 667L233 453L322 549L322 425L233 331L233 160L369 160L369 0Z"  horiz-adv-x="375" vert-adv-y="1000"  />

      
      <glyph glyph-name="uni0142" unicode="&#x0142;" d="M233 729L233 492L280 538L280 426L233 379L233 0L60 0L60 243L13 196L13 309L60 355L60 729L233 729Z"  horiz-adv-x="293" vert-adv-y="1000"  />

      
      <glyph glyph-name="uni0143" unicode="&#x0143;" d="M516 0L344 0Q333 31 309 93Q285 155 271 192.50Q257 230 239 284Q221 338 208 384Q219 228 219 170L219 0L47 0L47 667L219 667L309 433Q329 382 364 265Q344 429 344 511L344 667L516 667L516 0M424 868L336 720L237 720L284 868L424 868Z"  horiz-adv-x="563" vert-adv-y="1000"  />

      
      <glyph glyph-name="uni0144" unicode="&#x0144;" d="M451 0L277 0L277 247Q277 304 250 304Q213 304 213 235L213 0L40 0L40 467L213 467Q211 409 209 378Q251 477 332 477Q394 477 422.50 430.50Q451 384 451 318L451 0M394 678L306 530L207 530L254 678L394 678Z"  horiz-adv-x="491" vert-adv-y="1000"  />

      
      <glyph glyph-name="uni0145" unicode="&#x0145;" d="M516 0L344 0Q333 31 309 93Q285 155 271 192.50Q257 230 239 284Q221 338 208 384Q219 228 219 170L219 0L47 0L47 667L219 667L309 433Q329 382 364 265Q344 429 344 511L344 667L516 667L516 0M357-45L277-234L175-234L210-45L357-45Z"  horiz-adv-x="563" vert-adv-y="1000"  />

      
      <glyph glyph-name="uni0146" unicode="&#x0146;" d="M451 0L277 0L277 247Q277 304 250 304Q213 304 213 235L213 0L40 0L40 467L213 467Q211 409 209 378Q251 477 332 477Q394 477 422.50 430.50Q451 384 451 318L451 0M329-45L249-234L147-234L182-45L329-45Z"  horiz-adv-x="491" vert-adv-y="1000"  />

      
      <glyph glyph-name="uni0147" unicode="&#x0147;" d="M516 0L344 0Q333 31 309 93Q285 155 271 192.50Q257 230 239 284Q221 338 208 384Q219 228 219 170L219 0L47 0L47 667L219 667L309 433Q329 382 364 265Q344 429 344 511L344 667L516 667L516 0M434 802L285 704L151 804L212 873L292 817L377 871L434 802Z"  horiz-adv-x="563" vert-adv-y="1000"  />

      
      <glyph glyph-name="uni0148" unicode="&#x0148;" d="M451 0L277 0L277 247Q277 304 250 304Q213 304 213 235L213 0L40 0L40 467L213 467Q211 409 209 378Q251 477 332 477Q394 477 422.50 430.50Q451 384 451 318L451 0M395 623L257 506L123 623L183 690L263 620L337 686L395 623Z"  horiz-adv-x="491" vert-adv-y="1000"  />

      
      <glyph glyph-name="uni014C" unicode="&#x014C;" d="M537 340Q537 277 523.50 218.50Q510 160 482.50 106.50Q455 53 404.50 20.50Q354-12 287-12Q179-12 105 77Q30 168 30 340Q30 402 45 460Q60 518 89 568Q118 618 169 648.50Q220 679 286 679Q339 679 382 658.50Q425 638 453 604.50Q481 571 500.50 526Q520 481 528.50 434.50Q537 388 537 340M350 333Q350 511 285 511Q263 511 248.50 490.50Q234 470 227.50 437.50Q221 405 219 381Q217 357 217 334Q217 310 219 287Q221 264 226.50 231Q232 198 246.50 177.50Q261 157 283 157Q305 157 319.50 177.50Q334 198 340 230Q346 262 348 286Q350 310 350 333M454 743L114 743L114 837L454 837L454 743Z"  horiz-adv-x="567" vert-adv-y="1000"  />

      
      <glyph glyph-name="uni014D" unicode="&#x014D;" d="M461 229Q461 123 403.50 56.50Q346-10 241-10Q138-10 82.50 58.50Q27 127 27 232Q27 337 83.50 407Q140 477 242 477Q348 477 404.50 407.50Q461 338 461 229M293 233Q293 271 282 308.50Q271 346 243 346Q216 346 205.50 308.50Q195 271 195 233Q195 195 205.50 158Q216 121 244 121Q271 121 282 158.50Q293 196 293 233M414 553L74 553L74 647L414 647L414 553Z"  horiz-adv-x="487" vert-adv-y="1000"  />

      
      <glyph glyph-name="uni014E" unicode="&#x014E;" d="M537 340Q537 277 523.50 218.50Q510 160 482.50 106.50Q455 53 404.50 20.50Q354-12 287-12Q179-12 105 77Q30 168 30 340Q30 402 45 460Q60 518 89 568Q118 618 169 648.50Q220 679 286 679Q339 679 382 658.50Q425 638 453 604.50Q481 571 500.50 526Q520 481 528.50 434.50Q537 388 537 340M350 333Q350 511 285 511Q263 511 248.50 490.50Q234 470 227.50 437.50Q221 405 219 381Q217 357 217 334Q217 310 219 287Q221 264 226.50 231Q232 198 246.50 177.50Q261 157 283 157Q305 157 319.50 177.50Q334 198 340 230Q346 262 348 286Q350 310 350 333M374 867L443 867Q437 798 394.50 758Q352 718 283 718Q214 718 171.50 758Q129 798 123 867L192 867Q205 836 226 825Q247 814 283 814Q319 814 340 825Q361 836 374 867Z"  horiz-adv-x="567" vert-adv-y="1000"  />

      
      <glyph glyph-name="uni014F" unicode="&#x014F;" d="M461 229Q461 123 403.50 56.50Q346-10 241-10Q138-10 82.50 58.50Q27 127 27 232Q27 337 83.50 407Q140 477 242 477Q348 477 404.50 407.50Q461 338 461 229M293 233Q293 271 282 308.50Q271 346 243 346Q216 346 205.50 308.50Q195 271 195 233Q195 195 205.50 158Q216 121 244 121Q271 121 282 158.50Q293 196 293 233M335 669L404 669Q398 600 355.50 560Q313 520 244 520Q175 520 132.50 560Q90 600 84 669L153 669Q166 638 187 627Q208 616 244 616Q280 616 301 627Q322 638 335 669Z"  horiz-adv-x="487" vert-adv-y="1000"  />

      
      <glyph glyph-name="uni0150" unicode="&#x0150;" d="M537 340Q537 277 523.50 218.50Q510 160 482.50 106.50Q455 53 404.50 20.50Q354-12 287-12Q179-12 105 77Q30 168 30 340Q30 402 45 460Q60 518 89 568Q118 618 169 648.50Q220 679 286 679Q339 679 382 658.50Q425 638 453 604.50Q481 571 500.50 526Q520 481 528.50 434.50Q537 388 537 340M350 333Q350 511 285 511Q263 511 248.50 490.50Q234 470 227.50 437.50Q221 405 219 381Q217 357 217 334Q217 310 219 287Q221 264 226.50 231Q232 198 246.50 177.50Q261 157 283 157Q305 157 319.50 177.50Q334 198 340 230Q346 262 348 286Q350 310 350 333M484 868L396 720L307 720L354 868L484 868M317 868L229 720L140 720L187 868L317 868Z"  horiz-adv-x="567" vert-adv-y="1000"  />

      
      <glyph glyph-name="uni0151" unicode="&#x0151;" d="M461 229Q461 123 403.50 56.50Q346-10 241-10Q138-10 82.50 58.50Q27 127 27 232Q27 337 83.50 407Q140 477 242 477Q348 477 404.50 407.50Q461 338 461 229M293 233Q293 271 282 308.50Q271 346 243 346Q216 346 205.50 308.50Q195 271 195 233Q195 195 205.50 158Q216 121 244 121Q271 121 282 158.50Q293 196 293 233M439 678L351 530L262 530L309 678L439 678M272 678L184 530L95 530L142 678L272 678Z"  horiz-adv-x="487" vert-adv-y="1000"  />

      
      </font>
</defs>
</svg>
