<?xml version="1.0" standalone="no"?>
  <!DOCTYPE svg PUBLIC "-//W3C//DTD SVG 1.1//EN" "http://www.w3.org/Graphics/SVG/1.1/DTD/svg11.dtd" >
  <svg>
  <metadata>
  Created by font-carrier
  </metadata>
  <defs>
  <font id="FuturaPT-MediumObl" horiz-adv-x="1203" vert-adv-y="1203" >
    <font-face
      
      font-family="Futura PT Medium Italic"
      
      font-weight="400"
      
      font-stretch="normal"
      
      units-per-em="1000"
      
      ascent="982"
      
      descent="-300"
      
    />
      <missing-glyph />

      

      
      <glyph glyph-name="uni21" unicode="&#x21;" d="M197 165L99 165L161 667L259 667L197 165M72 42Q72 68 90 88Q108 108 139 108Q163 108 178 93Q194 78 194 53Q194 26 174 6Q156-12 128-12Q102-12 88 2Q72 17 72 42Z"  horiz-adv-x="254" vert-adv-y="1000"  />

      
      <glyph glyph-name="uni22" unicode="&#x22;" d="M238 667L187 399L115 399L130 667L238 667M400 667L349 399L277 399L292 667L400 667Z"  horiz-adv-x="366" vert-adv-y="1000"  />

      
      <glyph glyph-name="uni23" unicode="&#x23;" d="M407 0L309 0L364 196L250 196L195 0L97 0L152 196L44 196L69 284L177 284L209 396L101 396L125 484L233 484L285 667L383 667L331 484L445 484L497 667L595 667L543 484L651 484L627 396L519 396L487 284L595 284L570 196L462 196L407 0M389 284L421 396L307 396L275 284L389 284Z"  horiz-adv-x="600" vert-adv-y="1000"  />

      
      <glyph glyph-name="uni24" unicode="&#x24;" d="M546 567L458 519Q450 549 428 566Q403 585 361 585Q316 585 286 559Q258 534 258 499Q258 470 282 448Q289 441 298 435.50Q307 430 312.50 427.50Q318 425 330 420Q342 415 347 413L401 389Q456 365 485 328Q520 285 520 219Q520 119 459 54Q405-3 325-10L312-110L238-110L251-11Q192-5 151 34Q92 91 89 184L192 206Q192 145 215 116Q243 81 292 81Q352 81 387 121Q417 156 417 208Q417 242 391 270Q372 290 323 312L272 335Q220 359 193 388Q156 430 156 486Q156 559 209 615Q260 668 335 677L345 765L419 765L409 676Q455 669 491 642Q530 614 546 567Z"  horiz-adv-x="568" vert-adv-y="1000"  />

      
      <glyph glyph-name="uni25" unicode="&#x25;" d="M193 18L655 678L699 651L237-11L193 18M644 307Q712 307 756 263Q796 223 796 161Q796 88 746 38Q700-7 627-7Q555-7 513 35Q471 77 471 139Q471 205 521 257Q569 307 644 307M629 65Q668 65 691 90Q718 117 718 159Q718 195 694 216Q673 235 641 235Q601 235 577 209Q551 183 551 142Q551 108 573 86Q594 65 629 65M268 673Q336 673 380 629Q420 587 420 527Q420 454 370 405Q323 359 250 359Q179 359 137 401Q95 443 95 505Q95 571 145 623Q193 673 268 673M253 431Q292 431 315 456Q342 483 342 525Q342 561 318 582Q297 601 265 601Q225 601 201 575Q175 549 175 508Q175 474 197 452Q218 431 253 431Z"  horiz-adv-x="810" vert-adv-y="1000"  />

      
      <glyph glyph-name="uni26" unicode="&#x26;" d="M575 313L632 245L542 154L646 0L522 0L466 82Q421 39 383 18Q327-13 259-13Q174-13 124 37Q75 86 75 163Q75 245 134 306Q159 331 230 374L251 387L230 419Q200 465 200 516Q200 582 245 629Q293 679 377 679Q441 679 482 639Q522 601 522 538Q522 491 494 454Q474 428 425 395L389 371L489 227L575 313M414 154L302 314Q247 288 217 259Q175 218 175 165Q175 129 200 102Q227 73 267 73Q306 73 346 98Q384 122 414 154M338 442L374 465Q400 481 414 501Q427 520 427 542Q427 567 408 582Q392 595 368 595Q336 595 315 574Q297 556 297 527Q297 499 313 478L338 442Z"  horiz-adv-x="646" vert-adv-y="1000"  />

      
      <glyph glyph-name="uni27" unicode="&#x27;" d="M238 667L187 399L115 399L130 667L238 667Z"  horiz-adv-x="204" vert-adv-y="1000"  />

      
      <glyph glyph-name="uni28" unicode="&#x28;" d="M249-142L154-177Q104-24 104 127Q104 331 168 520Q208 638 267 740L353 705Q296 590 265 497Q205 320 205 148Q205-4 249-142Z"  horiz-adv-x="329" vert-adv-y="1000"  />

      
      <glyph glyph-name="uni29" unicode="&#x29;" d="M146 705L240 740Q292 592 292 450Q292 241 226 40Q186-83 127-177L42-142Q95-48 131 63Q191 252 191 447Q191 565 146 705Z"  horiz-adv-x="329" vert-adv-y="1000"  />

      
      <glyph glyph-name="uni2a" unicode="&#x2a;" d="M216 655L317 610L326 729L404 729L380 611L494 655L509 583L391 555L452 465L386 418L335 515L258 418L204 465L291 553L181 581L216 655Z"  horiz-adv-x="550" vert-adv-y="1000"  />

      
      <glyph glyph-name="uni2b" unicode="&#x2b;" d="M75 291L75 381L245 381L245 551L339 551L339 381L509 381L509 291L339 291L339 121L245 121L245 291L75 291Z"  horiz-adv-x="500" vert-adv-y="1000"  />

      
      <glyph glyph-name="uni2c" unicode="&#x2c;" d="M-6-129L127 125L211 91L57-156L-6-129Z"  horiz-adv-x="320" vert-adv-y="1000"  />

      
      <glyph glyph-name="uni2d" unicode="&#x2d;" d="M70 162L82 264L322 264L310 162L70 162Z"  horiz-adv-x="340" vert-adv-y="1000"  />

      
      <glyph glyph-name="uni2e" unicode="&#x2e;" d="M71 42Q71 68 89 88Q107 108 138 108Q162 108 177 93Q193 78 193 53Q193 26 173 6Q155-12 127-12Q101-12 87 2Q71 17 71 42Z"  horiz-adv-x="252" vert-adv-y="1000"  />

      
      <glyph glyph-name="uni2f" unicode="&#x2f;" d="M-18-177L617 765L695 729L60-213L-18-177Z"  horiz-adv-x="687" vert-adv-y="1000"  />

      
      <glyph glyph-name="uni30" unicode="&#x30;" d="M287-11Q199-11 147 51Q84 125 84 256Q84 351 112 449Q140 547 206 611Q273 678 367 678Q439 678 491 629Q566 559 566 414Q566 177 448 57Q380-11 287-11M356 588Q308 588 274 552Q233 511 209 428.50Q185 346 185 264Q185 151 232 104Q256 80 293 80Q340 80 375 115Q420 161 442.50 243.50Q465 326 465 401Q465 521 416 566Q391 588 356 588Z"  horiz-adv-x="568" vert-adv-y="1000"  />

      
      <glyph glyph-name="uni31" unicode="&#x31;" d="M250 0L320 573L204 573L272 667L434 667L352 0L250 0Z"  horiz-adv-x="568" vert-adv-y="1000"  />

      
      <glyph glyph-name="uni32" unicode="&#x32;" d="M494 94L482 0L34 0L299 280Q377 363 392 381Q440 441 440 491Q440 536 408 563Q378 588 331 588Q281 588 249 558Q215 524 208 467L110 467Q123 557 174 613Q233 678 337 678Q430 678 485 629Q541 580 541 502Q541 427 486 353Q454 311 364 217L245 94L494 94Z"  horiz-adv-x="568" vert-adv-y="1000"  />

      
      <glyph glyph-name="uni33" unicode="&#x33;" d="M227 497L129 497Q142 572 187 620Q242 678 340 678Q429 678 479 629Q526 584 526 507Q526 448 499 407Q472 364 427 348Q462 331 482 299Q503 264 503 217Q503 111 440 48Q381-11 274-11Q176-11 125 42Q73 98 70 181L168 181Q170 134 199 106Q226 79 277 79Q332 79 363 109Q401 147 401 211Q401 269 362 294Q340 310 291 310L278 310L289 396L310 396Q373 396 400 423Q428 451 428 499Q428 543 398 568Q375 588 332 588Q287 588 261 564Q234 537 227 497Z"  horiz-adv-x="568" vert-adv-y="1000"  />

      
      <glyph glyph-name="uni34" unicode="&#x34;" d="M532 716L471 220L543 220L532 126L460 126L444 0L346 0L362 126L31 126L532 716M226 220L373 220L398 427L226 220Z"  horiz-adv-x="568" vert-adv-y="1000"  />

      
      <glyph glyph-name="uni35" unicode="&#x35;" d="M557 667L545 573L339 573L292 458Q312 460 322 460Q406 460 460 406Q517 350 517 253Q517 129 445 57Q378-11 260-11Q176-11 120 24Q74 53 46 100L121 160Q142 122 176 101Q212 79 261 79Q329 79 372 119Q415 162 415 237Q415 308 373 344Q340 374 278 374Q210 374 139 330L281 667L557 667Z"  horiz-adv-x="568" vert-adv-y="1000"  />

      
      <glyph glyph-name="uni36" unicode="&#x36;" d="M450 690L524 635L334 431Q352 433 361 433Q451 433 509 373Q563 319 563 231Q563 125 491 56Q421-11 313-11Q216-11 155 47Q89 110 89 204Q89 273 133 344Q160 387 233 462L450 690M339 351Q275 351 233 309Q192 266 192 204Q192 152 227 115Q261 79 317 79Q375 79 418 120Q463 165 463 231Q463 289 425 322Q393 351 339 351Z"  horiz-adv-x="568" vert-adv-y="1000"  />

      
      <glyph glyph-name="uni37" unicode="&#x37;" d="M81 27L450 573L124 573L136 667L632 667L157-23L81 27Z"  horiz-adv-x="568" vert-adv-y="1000"  />

      
      <glyph glyph-name="uni38" unicode="&#x38;" d="M435 347Q472 329 495 296Q519 260 519 211Q519 106 455 45Q397-11 292-11Q205-11 151 39Q95 92 95 182Q95 246 128 291Q162 338 219 355Q192 372 176 394Q150 428 150 480Q150 556 201 613Q260 678 358 678Q436 678 487 630Q539 581 539 501Q539 446 513 406Q485 364 435 347M336 387Q387 387 416 416Q446 446 446 497Q446 538 418 564Q392 588 352 588Q304 588 272 556Q242 526 242 479Q242 440 268 414Q294 387 336 387M297 79Q352 79 384 112Q417 147 417 203Q417 246 390 274Q363 303 315 303Q264 303 230 271Q196 238 196 184Q196 140 222 110Q250 79 297 79Z"  horiz-adv-x="568" vert-adv-y="1000"  />

      
      <glyph glyph-name="uni39" unicode="&#x39;" d="M251-23L177 32L362 232Q347 229 331 229Q253 229 196 288Q137 349 137 435Q137 536 206 605Q281 678 390 678Q499 678 559 615Q612 560 612 474Q612 400 568 330Q539 284 469 210L251-23M364 316Q425 316 465 353Q510 393 510 461Q510 519 473 554Q437 588 382 588Q324 588 284 551Q239 510 239 441Q239 384 275 350Q311 316 364 316Z"  horiz-adv-x="568" vert-adv-y="1000"  />

      
      <glyph glyph-name="uni3a" unicode="&#x3a;" d="M72 41Q72 67 90 87Q108 107 139 107Q163 107 178 92Q194 77 194 52Q194 25 174 5Q156-13 128-13Q102-13 88 1Q72 16 72 41M112 366Q112 392 130 412Q148 432 179 432Q203 432 218 417Q234 402 234 377Q234 350 214 330Q196 312 168 312Q142 312 128 326Q112 341 112 366Z"  horiz-adv-x="254" vert-adv-y="1000"  />

      
      <glyph glyph-name="uni3b" unicode="&#x3b;" d="M-6-129L127 125L211 91L57-156L-6-129M135 366Q135 392 153 412Q171 432 202 432Q226 432 241 417Q257 402 257 377Q257 350 237 330Q219 312 191 312Q165 312 151 326Q135 341 135 366Z"  horiz-adv-x="321" vert-adv-y="1000"  />

      
      <glyph glyph-name="uni3c" unicode="&#x3c;" d="M191 332L521 176L521 80L87 291L87 373L521 584L521 488L191 332Z"  horiz-adv-x="500" vert-adv-y="1000"  />

      
      <glyph glyph-name="uni3d" unicode="&#x3d;" d="M75 380L75 464L509 464L509 380L75 380M75 218L75 302L509 302L509 218L75 218Z"  horiz-adv-x="500" vert-adv-y="1000"  />

      
      <glyph glyph-name="uni3e" unicode="&#x3e;" d="M391 332L61 488L61 584L495 373L495 291L61 80L61 176L391 332Z"  horiz-adv-x="500" vert-adv-y="1000"  />

      
      <glyph glyph-name="uni3f" unicode="&#x3f;" d="M219 485L117 485L117 494Q117 582 169 634Q214 679 296 679Q368 679 409 639Q447 602 447 541Q447 484 421 446Q392 404 330 378L309 369Q289 361 279 358Q250 347 247 346Q203 326 203 289Q203 270 214 259Q226 246 250 246Q274 246 289 261Q305 278 307 314L405 314Q403 244 360 199Q318 156 244 156Q177 156 141 191Q103 227 103 285Q103 343 142 384Q172 416 241 440Q313 465 328 481Q347 502 347 533Q347 557 333 573Q320 589 290 589Q255 589 237 565Q219 542 219 493L219 485M164 41Q164 67 182 87Q200 107 231 107Q255 107 270 92Q286 77 286 52Q286 25 266 5Q248-13 220-13Q194-13 180 1Q164 16 164 41Z"  horiz-adv-x="436" vert-adv-y="1000"  />

      
      <glyph glyph-name="uni40" unicode="&#x40;" d="M528 439L544 491L612 491L545 278Q536 251 536 239Q536 225 544 215Q553 205 568 205Q596 205 621 227Q651 253 666.50 301.50Q682 350 682 396Q682 493 621 554Q556 617 450 617Q314 617 225 522Q184 479 160 416.50Q136 354 136 291Q136 184 202 118Q270 48 390 48Q496 48 598 89L607 27Q508-12 389-12Q243-12 157 69Q72 150 72 280Q72 455 185 570Q290 677 452 677Q590 677 670 599Q747 522 747 402Q747 271 674 198Q623 148 561 148Q526 148 505 168Q487 186 485 210Q469 182 440 164Q406 142 361 142Q304 142 269 177Q229 217 229 286Q229 385 295 450Q348 503 424 503Q466 503 494 482Q516 466 528 439M379 212Q421 212 449 239Q471 260 484 293Q497 326 497 355Q497 391 476 414Q459 433 426 433Q380 433 348 398Q307 354 307 290Q307 250 330 229Q348 212 379 212Z"  horiz-adv-x="732" vert-adv-y="1000"  />

      
      <glyph glyph-name="uni41" unicode="&#x41;" d="M544 0L494 161L209 161L116 0L4 0L423 706L652 0L544 0M263 257L465 257L393 483L263 257Z"  horiz-adv-x="656" vert-adv-y="1000"  />

      
      <glyph glyph-name="uni42" unicode="&#x42;" d="M162 667L263 667Q385 667 437 615Q479 572 479 502Q479 451 460 415Q440 378 401 357Q446 341 474 305Q503 267 503 213Q503 122 450 67Q386 0 236 0L179 0L80 0L162 667M252 571L229 380L260 380Q319 380 350 407Q383 437 383 488Q383 524 361 546Q336 571 280 571L252 571M218 296L194 96L256 96Q337 96 373 130Q404 159 404 207Q404 248 374 272Q344 296 282 296L218 296Z"  horiz-adv-x="526" vert-adv-y="1000"  />

      
      <glyph glyph-name="uni43" unicode="&#x43;" d="M653 631L639 511Q565 585 456 585Q346 585 275 517Q237 481 214 424Q191 367 191 301Q191 206 249 144Q307 81 406 81Q505 81 595 158L581 37Q489-13 397-13Q261-13 178 70Q89 159 89 301Q89 469 199 577Q304 679 463 679Q556 679 653 631Z"  horiz-adv-x="622" vert-adv-y="1000"  />

      
      <glyph glyph-name="uni44" unicode="&#x44;" d="M162 667L302 667Q471 667 558 584Q639 508 639 366Q639 200 545 106Q481 42 395 21Q309 0 204 0L182 0L80 0L162 667M252 571L194 96L238 96Q409 96 481 181Q537 246 537 352Q537 455 482 512Q424 571 296 571L252 571Z"  horiz-adv-x="646" vert-adv-y="1000"  />

      
      <glyph glyph-name="uni45" unicode="&#x45;" d="M530 667L518 571L252 571L232 402L490 402L478 306L220 306L194 96L460 96L448 0L80 0L162 667L530 667Z"  horiz-adv-x="500" vert-adv-y="1000"  />

      
      <glyph glyph-name="uni46" unicode="&#x46;" d="M496 667L484 571L252 571L232 402L456 402L444 306L220 306L182 0L80 0L162 667L496 667Z"  horiz-adv-x="450" vert-adv-y="1000"  />

      
      <glyph glyph-name="uni47" unicode="&#x47;" d="M459 253L471 347L746 347Q733 170 636 74Q548-13 398-13Q261-13 176 76Q89 165 89 298Q89 377 119 449.50Q149 522 202 574Q309 679 475 679Q568 679 637 638Q699 600 742 541L660 480Q627 525 587 551Q533 585 465 585Q349 585 274 510Q192 429 192 308Q192 206 255 141Q315 81 410 81Q500 81 558 134Q610 181 625 253L459 253Z"  horiz-adv-x="751" vert-adv-y="1000"  />

      
      <glyph glyph-name="uni48" unicode="&#x48;" d="M264 667L232 403L518 403L550 667L652 667L570 0L468 0L506 307L220 307L182 0L80 0L162 667L264 667Z"  horiz-adv-x="650" vert-adv-y="1000"  />

      
      <glyph glyph-name="uni49" unicode="&#x49;" d="M162 667L264 667L182 0L80 0L162 667Z"  horiz-adv-x="262" vert-adv-y="1000"  />

      
      <glyph glyph-name="uni4a" unicode="&#x4a;" d="M259 667L361 667L308 235Q302 184 297.50 157.50Q293 131 277.50 93Q262 55 238 32Q192-13 106-13Q33-13-15 23L42 107Q67 83 106 83Q141 83 165 105Q193 131 206 235L259 667Z"  horiz-adv-x="359" vert-adv-y="1000"  />

      
      <glyph glyph-name="uni4b" unicode="&#x4b;" d="M264 667L231 409L519 667L656 667L316 365L574 0L440 0L238 296L216 276L182 0L80 0L162 667L264 667Z"  horiz-adv-x="586" vert-adv-y="1000"  />

      
      <glyph glyph-name="uni4c" unicode="&#x4c;" d="M162 667L264 667L194 96L390 96L378 0L181 0L80 0L162 667Z"  horiz-adv-x="394" vert-adv-y="1000"  />

      
      <glyph glyph-name="uni4d" unicode="&#x4d;" d="M166 0L60 0L288 717L456 199L754 717L792 0L690 0L671 402L424-31L285 403L166 0Z"  horiz-adv-x="852" vert-adv-y="1000"  />

      
      <glyph glyph-name="uni4e" unicode="&#x4e;" d="M182 0L80 0L167 712L589 205L646 667L748 667L661-41L239 466L182 0Z"  horiz-adv-x="746" vert-adv-y="1000"  />

      
      <glyph glyph-name="uni4f" unicode="&#x4f;" d="M478 679Q616 679 703 592Q789 507 789 366Q789 197 684 90Q582-13 409-13Q261-13 178 73Q89 164 89 300Q89 379 118 451.50Q147 524 198 574Q303 679 478 679M410 81Q534 81 606 153Q644 190 665.50 245.50Q687 301 687 360Q687 455 627 517Q561 585 458 585Q348 585 273 511Q190 430 190 307Q190 209 252 145Q312 81 410 81Z"  horiz-adv-x="796" vert-adv-y="1000"  />

      
      <glyph glyph-name="uni50" unicode="&#x50;" d="M162 667L305 667Q412 667 466 615Q515 568 515 485Q515 392 458 335Q394 271 249 271L215 271L182 0L80 0L162 667M252 573L227 365L265 365Q348 365 383 396Q417 425 417 479Q417 524 386 550Q358 573 295 573L252 573Z"  horiz-adv-x="481" vert-adv-y="1000"  />

      
      <glyph glyph-name="uni51" unicode="&#x51;" d="M633-13L592 35Q516-13 399-13Q260-13 179 67Q89 155 89 299Q89 464 190 570Q292 679 457 679Q609 679 699 593Q789 506 789 369Q789 279 753 204Q721 138 665 91L756-13L633-13M511 264L603 162Q640 193 661 236Q687 290 687 353Q687 462 619 526Q556 585 458 585Q342 585 268 507Q191 425 191 300Q191 205 251 143Q310 81 406 81Q472 81 527 106L387 264L511 264Z"  horiz-adv-x="796" vert-adv-y="1000"  />

      
      <glyph glyph-name="uni52" unicode="&#x52;" d="M162 667L281 667Q396 667 449 626Q513 578 513 485Q513 395 455 341Q409 298 341 285L514 0L391 0L234 273L216 273L182 0L80 0L162 667M252 573L226 361L258 361Q334 361 374 393Q415 425 415 479Q415 529 378 554Q350 573 287 573L252 573Z"  horiz-adv-x="534" vert-adv-y="1000"  />

      
      <glyph glyph-name="uni53" unicode="&#x53;" d="M520 567L432 519Q424 549 402 566Q376 585 336 585Q288 585 260 559Q232 534 232 499Q232 470 256 448Q263 441 272 435.50Q281 430 286.50 427.50Q292 425 304 420Q316 415 321 413L375 389Q430 365 459 328Q494 285 494 219Q494 119 433 54Q368-13 259-13Q173-13 125 34Q66 91 63 184L166 206Q164 150 189 116Q216 81 274 81Q322 81 353 109Q391 143 391 207Q391 242 365 270Q346 290 297 312L246 335Q194 359 167 388Q130 430 130 486Q130 559 183 615Q244 679 342 679Q410 679 457 648Q502 618 520 567Z"  horiz-adv-x="516" vert-adv-y="1000"  />

      
      <glyph glyph-name="uni54" unicode="&#x54;" d="M488 571L335 571L265 0L163 0L233 571L80 571L92 667L500 667L488 571Z"  horiz-adv-x="428" vert-adv-y="1000"  />

      
      <glyph glyph-name="uni55" unicode="&#x55;" d="M164 667L266 667L220 292Q213 222 213 216Q213 152 248 117Q284 81 342 81Q408 81 453 124Q473 144 484.50 169.50Q496 195 499.50 213.50Q503 232 507 265L556 667L658 667L605 238Q589 110 511 44Q442-13 334-13Q215-13 153 65Q109 119 109 202Q109 227 120 313L164 667Z"  horiz-adv-x="656" vert-adv-y="1000"  />

      
      <glyph glyph-name="uni56" unicode="&#x56;" d="M86 667L194 667L323 202L566 667L678 667L295-43L86 667Z"  horiz-adv-x="600" vert-adv-y="1000"  />

      
      <glyph glyph-name="uni57" unicode="&#x57;" d="M86 667L194 667L315 221L554 699L669 221L906 667L1018 667L633-43L517 430L283-43L86 667Z"  horiz-adv-x="940" vert-adv-y="1000"  />

      
      <glyph glyph-name="uni58" unicode="&#x58;" d="M10 0L263 348L118 667L226 667L328 441L489 667L603 667L372 348L530 0L422 0L307 255L124 0L10 0Z"  horiz-adv-x="540" vert-adv-y="1000"  />

      
      <glyph glyph-name="uni59" unicode="&#x59;" d="M219 0L254 288L82 667L196 667L317 400L504 667L622 667L356 288L321 0L219 0Z"  horiz-adv-x="540" vert-adv-y="1000"  />

      
      <glyph glyph-name="uni5a" unicode="&#x5a;" d="M606 667L208 96L528 96L516 0L30 0L428 571L154 571L166 667L606 667Z"  horiz-adv-x="554" vert-adv-y="1000"  />

      
      <glyph glyph-name="uni5b" unicode="&#x5b;" d="M348 639L264 639L175-87L259-87L248-177L163-177L66-177L178 729L360 729L348 639Z"  horiz-adv-x="316" vert-adv-y="1000"  />

      
      <glyph glyph-name="uni5c" unicode="&#x5c;" d="M653-177L574-213L164 729L242 765L653-177Z"  horiz-adv-x="671" vert-adv-y="1000"  />

      
      <glyph glyph-name="uni5d" unicode="&#x5d;" d="M35-87L119-87L208 639L124 639L136 729L318 729L206-177L104-177L24-177L35-87Z"  horiz-adv-x="316" vert-adv-y="1000"  />

      
      <glyph glyph-name="uni5e" unicode="&#x5e;" d="M293 590L163 350L59 350L230 667L356 667L527 350L423 350L293 590Z"  horiz-adv-x="500" vert-adv-y="1000"  />

      
      <glyph glyph-name="uni5f" unicode="&#x5f;" d="M0-144L0-58L400-58L400-144L0-144Z"  horiz-adv-x="400" vert-adv-y="1000"  />

      
      <glyph glyph-name="uni60" unicode="&#x60;" d="M301 485L162 629L258 675L359 519L301 485Z"  horiz-adv-x="500" vert-adv-y="1000"  />

      
      <glyph glyph-name="uni61" unicode="&#x61;" d="M418 372L424 421L522 421L470 0L372 0L377 44Q349 14 321 2Q286-13 244-13Q172-13 124 33Q66 89 66 185Q66 300 139 373Q198 432 293 432Q337 432 370 414Q398 399 418 372M298 344Q249 344 214 311Q167 266 167 193Q167 140 200 105Q228 75 271 75Q326 75 363 112Q406 157 406 227Q406 283 373 316Q345 344 298 344Z"  horiz-adv-x="532" vert-adv-y="1000"  />

      
      <glyph glyph-name="uni62" unicode="&#x62;" d="M250 729L206 372Q227 399 255 414Q288 432 340 432Q417 432 465 384Q518 331 518 240Q518 125 449 51Q389-13 291-13Q243-13 208 7Q183 21 165 44L160 0L62 0L152 729L250 729M314 344Q257 344 222 306Q179 260 179 191Q179 137 213 103Q241 75 285 75Q337 75 374 113Q418 159 418 226Q418 283 385 316Q357 344 314 344Z"  horiz-adv-x="532" vert-adv-y="1000"  />

      
      <glyph glyph-name="uni63" unicode="&#x63;" d="M439 396L426 290Q401 315 376 328Q345 344 314 344Q247 344 207 302Q167 260 167 198Q167 140 203 106Q236 75 290 75Q326 75 358 90Q390 108 406 126L393 16Q349-13 268-13Q179-13 125 41Q66 98 66 194Q66 297 136 367Q202 432 308 432Q383 432 439 396Z"  horiz-adv-x="422" vert-adv-y="1000"  />

      
      <glyph glyph-name="uni64" unicode="&#x64;" d="M418 372L462 729L560 729L470 0L372 0L377 44Q353 16 323 2Q293-13 251-13Q174-13 126 35Q66 95 66 193Q66 245 86.50 296Q107 347 143 380Q200 432 287 432Q334 432 368 415Q396 402 418 372M296 344Q244 344 211 311Q166 267 166 197Q166 140 198 106Q226 75 274 75Q328 75 362 109Q405 152 405 225Q405 278 373 312Q342 344 296 344Z"  horiz-adv-x="532" vert-adv-y="1000"  />

      
      <glyph glyph-name="uni65" unicode="&#x65;" d="M377 142L454 96Q424 46 376 17Q325-13 258-13Q175-13 123 40Q66 97 66 190Q66 299 139 370Q203 432 293 432Q373 432 420 383Q472 329 472 236Q472 211 467 187L166 187Q166 135 197 102Q222 75 266 75Q303 75 333 94Q360 112 377 142M181 267L377 267Q372 304 352 325Q331 348 291 348Q251 348 220 323Q195 303 181 267Z"  horiz-adv-x="489" vert-adv-y="1000"  />

      
      <glyph glyph-name="uni66" unicode="&#x66;" d="M310 331L204 331L163 0L65 0L106 331L64 331L75 421L117 421L137 582Q147 663 184 700Q224 740 291 740Q326 740 358 726L346 630Q322 646 297 646Q243 646 233 567L215 421L321 421L310 331Z"  horiz-adv-x="263" vert-adv-y="1000"  />

      
      <glyph glyph-name="uni67" unicode="&#x67;" d="M415 375L421 421L519 421L468 11Q453-117 406-169Q351-230 244-230Q168-230 120-190Q60-139 56-47L151-47Q153-91 178-118Q202-142 249-142Q299-142 328-113Q358-83 368-7L375 47Q333-13 253-13Q174-13 120 41Q62 99 62 191Q62 301 137 374Q196 432 291 432Q371 432 415 375M297 344Q239 344 204 307Q164 265 164 196Q164 142 195 109Q227 75 272 75Q321 75 357 111Q402 156 402 228Q402 282 370 314Q340 344 297 344Z"  horiz-adv-x="529" vert-adv-y="1000"  />

      
      <glyph glyph-name="uni68" unicode="&#x68;" d="M62 0L152 729L250 729L207 385Q223 403 249 416Q281 432 321 432Q385 432 421 396Q459 358 459 294Q459 276 450 207L424 0L326 0L353 217Q358 254 358 273Q358 309 339 327Q321 344 289 344Q249 344 226 321Q196 292 185 203L160 0L62 0Z"  horiz-adv-x="486" vert-adv-y="1000"  />

      
      <glyph glyph-name="uni69" unicode="&#x69;" d="M114 421L212 421L160 0L62 0L114 421M120 585Q120 616 141 637Q162 658 192 658Q217 658 232 643Q248 627 248 605Q248 576 228 554Q208 532 175 532Q151 532 136 547Q120 561 120 585Z"  horiz-adv-x="223" vert-adv-y="1000"  />

      
      <glyph glyph-name="uni6a" unicode="&#x6a;" d="M114 421L212 421L132-229L34-229L114 421M120 585Q120 616 141 637Q162 658 192 658Q217 658 232 643Q248 627 248 605Q248 576 228 554Q208 532 175 532Q151 532 136 547Q120 561 120 585Z"  horiz-adv-x="223" vert-adv-y="1000"  />

      
      <glyph glyph-name="uni6b" unicode="&#x6b;" d="M152 729L250 729L194 280L349 421L479 421L274 245L438 0L316 0L200 180L180 162L160 0L62 0L152 729Z"  horiz-adv-x="442" vert-adv-y="1000"  />

      
      <glyph glyph-name="uni6c" unicode="&#x6c;" d="M152 729L250 729L160 0L62 0L152 729Z"  horiz-adv-x="222" vert-adv-y="1000"  />

      
      <glyph glyph-name="uni6d" unicode="&#x6d;" d="M62 0L114 421L212 421L207 382Q228 405 248 416Q277 432 317 432Q352 432 377 416Q403 400 418 370Q437 396 466 414Q496 432 537 432Q600 432 636 398Q674 363 674 297Q674 271 666 212L640 0L542 0L568 212Q574 266 574 271Q574 310 557 327Q542 344 514 344Q488 344 468 326Q437 297 427 217L400 0L302 0L329 221Q334 258 334 274Q334 311 317 328Q301 344 275 344Q244 344 223 323Q196 296 187 217L160 0L62 0Z"  horiz-adv-x="702" vert-adv-y="1000"  />

      
      <glyph glyph-name="uni6e" unicode="&#x6e;" d="M61 0L113 421L211 421L206 383Q222 403 248 416Q281 432 320 432Q384 432 420 396Q458 358 458 296Q458 278 449 207L423 0L325 0L352 217Q357 254 357 273Q357 309 338 327Q320 344 288 344Q248 344 225 321Q195 292 184 203L159 0L61 0Z"  horiz-adv-x="485" vert-adv-y="1000"  />

      
      <glyph glyph-name="uni6f" unicode="&#x6f;" d="M313 432Q407 432 463 376Q520 317 520 230Q520 123 447 52Q379-13 274-13Q180-13 124 44Q66 104 66 191Q66 297 139 367Q207 432 313 432M197 112Q231 75 287 75Q343 75 380 115Q420 158 420 224Q420 278 387 312Q356 344 307 344Q249 344 212 309Q166 266 166 199Q166 148 197 112Z"  horiz-adv-x="534" vert-adv-y="1000"  />

      
      <glyph glyph-name="uni70" unicode="&#x70;" d="M166 49L132-229L34-229L114 421L212 421L206 375Q225 401 256 415Q291 432 331 432Q413 432 465 378Q518 323 518 235Q518 182 498.50 131.50Q479 81 447 47Q389-14 307-14Q251-14 212 9Q187 24 166 49M308 344Q256 344 224 313Q178 269 178 191Q178 137 206 108Q237 75 286 75Q335 75 369 109Q417 157 417 227Q417 279 387 312Q358 344 308 344Z"  horiz-adv-x="532" vert-adv-y="1000"  />

      
      <glyph glyph-name="uni71" unicode="&#x71;" d="M418 375L424 421L522 421L442-229L344-229L378 47Q360 20 329 4Q296-13 256-13Q175-13 125 34Q66 90 66 180Q66 234 85.50 286Q105 338 140 373Q199 432 294 432Q331 432 367 416Q401 401 418 375M297 344Q246 344 213 311Q167 264 167 187Q167 134 199 103Q227 75 273 75Q326 75 359 108Q380 128 393 162Q406 196 406 227Q406 282 374 314Q344 344 297 344Z"  horiz-adv-x="532" vert-adv-y="1000"  />

      
      <glyph glyph-name="uni72" unicode="&#x72;" d="M62 0L114 421L212 421L207 383Q226 406 252 419Q278 432 316 432Q355 432 388 412L340 323Q317 338 288 338Q248 338 223 313Q197 286 187 218L160 0L62 0Z"  horiz-adv-x="332" vert-adv-y="1000"  />

      
      <glyph glyph-name="uni73" unicode="&#x73;" d="M354 358L278 310Q271 326 258 336Q245 346 228 346Q206 346 194 334Q185 325 185 312Q185 297 197 288Q201 284 238 266L266 252Q300 235 319 216Q351 182 351 129Q351 67 309 27Q266-13 191-13Q133-13 97 14Q60 42 45 91L130 129Q137 103 153 88Q170 73 194 73Q218 73 233 86Q249 99 249 123Q249 144 235 158Q227 166 195 182L168 196Q133 215 120 228Q91 255 91 301Q91 356 129 394Q167 432 233 432Q275 432 306 412Q334 393 354 358Z"  horiz-adv-x="364" vert-adv-y="1000"  />

      
      <glyph glyph-name="uni74" unicode="&#x74;" d="M279 331L204 331L163 0L65 0L106 331L65 331L76 421L117 421L136 575L234 575L215 421L290 421L279 331Z"  horiz-adv-x="242" vert-adv-y="1000"  />

      
      <glyph glyph-name="uni75" unicode="&#x75;" d="M115 421L213 421L186 202Q181 165 181 153Q181 115 201 95Q221 75 256 75Q293 75 317 97Q338 117 347 180L377 421L475 421L445 177Q433 75 388 32Q341-13 255-13Q165-13 121 33Q82 74 82 135Q82 149 87 192L115 421Z"  horiz-adv-x="485" vert-adv-y="1000"  />

      
      <glyph glyph-name="uni76" unicode="&#x76;" d="M58 421L166 421L244 181L382 421L494 421L220-30L58 421Z"  horiz-adv-x="448" vert-adv-y="1000"  />

      
      <glyph glyph-name="uni77" unicode="&#x77;" d="M58 421L166 421L245 180L397 457L481 180L620 421L732 421L457-30L372 239L221-30L58 421Z"  horiz-adv-x="686" vert-adv-y="1000"  />

      
      <glyph glyph-name="uni78" unicode="&#x78;" d="M6 0L220 228L94 421L208 421L286 298L395 421L517 421L338 228L490 0L374 0L272 157L128 0L6 0Z"  horiz-adv-x="496" vert-adv-y="1000"  />

      
      <glyph glyph-name="uni79" unicode="&#x79;" d="M3-229L203 78L58 421L174 421L269 184L416 421L528 421L113-229L3-229Z"  horiz-adv-x="482" vert-adv-y="1000"  />

      
      <glyph glyph-name="uni7a" unicode="&#x7a;" d="M524 421L212 90L462 90L451 0L8 0L322 331L107 331L118 421L524 421Z"  horiz-adv-x="480" vert-adv-y="1000"  />

      
      <glyph glyph-name="uni7b" unicode="&#x7b;" d="M353 565L333 397Q326 341 309 316Q291 289 256 276Q276 269 288 252Q310 222 303 155L283-13Q276-67 299-83Q314-93 361-93L369-93L359-177L312-177Q247-177 217-156Q172-124 182-38L205 153Q210 204 193 222Q181 236 159 236L169 316Q198 318 215 338Q231 355 235 399L258 590Q266 662 301 695Q338 729 422 729L469 729L459 645L445 645Q395 645 378 631Q359 615 353 565Z"  horiz-adv-x="502" vert-adv-y="1000"  />

      
      <glyph glyph-name="uni7c" unicode="&#x7c;" d="M171-250L171 750L267 750L267-250L171-250Z"  horiz-adv-x="377" vert-adv-y="1000"  />

      
      <glyph glyph-name="uni7d" unicode="&#x7d;" d="M227-13L248 155Q255 210 273 236Q291 263 325 276Q303 287 289 307Q271 333 278 397L298 565Q304 620 283 635Q266 645 220 645L212 645L222 729L269 729Q337 729 365 710Q410 680 399 590L376 399Q370 352 389 332Q402 319 422 316L412 236Q384 233 369 216Q351 197 346 153L322-38Q314-109 283-140Q247-177 169-177L111-177L121-93L135-93Q185-93 204-76Q222-60 227-13Z"  horiz-adv-x="502" vert-adv-y="1000"  />

      
      <glyph glyph-name="uni7e" unicode="&#x7e;" d="M477 361L530 328Q505 278 460 241Q417 207 370 207Q332 207 269 234L252 242Q236 249 227 253Q218 257 202.50 261Q187 265 175 265Q145 265 121 243Q99 223 86 198L35 234Q62 285 95 317Q137 359 194 359Q233 359 293 330Q357 300 389 300Q418 300 440 318Q460 334 477 361Z"  horiz-adv-x="500" vert-adv-y="1000"  />

      
      <glyph glyph-name="unia1" unicode="&#xa1;" d="M120 272L218 272L156-230L58-230L120 272M123 383Q123 409 141 429Q159 449 190 449Q214 449 229 434Q245 419 245 394Q245 367 225 347Q207 329 179 329Q153 329 139 343Q123 358 123 383Z"  horiz-adv-x="254" vert-adv-y="1000"  />

      
      <glyph glyph-name="unia2" unicode="&#xa2;" d="M503 524L490 417Q442 469 373 469Q312 469 275 434Q231 392 231 323Q231 262 267 230Q299 200 350 200Q419 200 469 249L456 143Q411 116 358 114L346 13L272 13L284 115Q224 126 184 168Q130 224 130 313Q130 422 200 492Q255 547 337 555L350 655L424 655L411 554Q460 551 503 524Z"  horiz-adv-x="568" vert-adv-y="1000"  />

      
      <glyph glyph-name="unia3" unicode="&#xa3;" d="M570 444L473 444Q475 456 475 476Q475 523 447 551Q414 584 362 584Q309 584 276 551Q241 516 241 461Q241 419 275 330L405 330L396 258L295 258Q300 237 300 217Q300 170 277 128L316 113Q379 89 403 89Q429 89 448 108Q466 128 478 152L554 104Q526 51 487 22Q448-9 392-9Q350-9 297 11L258 26Q210 44 194 44Q162 44 140 22Q125 8 114-15L33 29Q57 73 89 102Q124 133 175 138Q199 180 199 217Q199 237 190 258L76 258L85 330L163 330Q138 393 138 455Q138 555 203 618Q264 678 368 678Q467 678 519 627Q573 574 573 485Q573 474 570 444Z"  horiz-adv-x="568" vert-adv-y="1000"  />

      
      <glyph glyph-name="unia4" unicode="&#xa4;" d="M137 660L236 561Q295 609 379 609Q463 609 522 561L621 660L675 606L576 507Q621 449 621 367Q621 285 576 227L675 128L621 74L522 173Q463 125 379 125Q295 125 236 173L137 74L83 128L182 227Q137 285 137 367Q137 449 182 507L83 606L137 660M379 211Q444 211 488 256Q531 300 531 367Q531 434 487 479Q443 523 379 523Q315 523 271 479Q227 435 227 367Q227 301 270 256Q313 211 379 211Z"  horiz-adv-x="667" vert-adv-y="1000"  />

      
      <glyph glyph-name="unia5" unicode="&#xa5;" d="M569 377L426 377L376 303L560 303L552 233L360 233L331 0L237 0L266 233L74 233L82 303L266 303L234 377L91 377L100 447L204 447L110 667L218 667L331 400L510 667L622 667L474 447L578 447L569 377Z"  horiz-adv-x="568" vert-adv-y="1000"  />

      
      <glyph glyph-name="unia6" unicode="&#xa6;" d="M171 390L171 750L267 750L267 390L171 390M171-250L171 110L267 110L267-250L171-250Z"  horiz-adv-x="377" vert-adv-y="1000"  />

      
      <glyph glyph-name="unia7" unicode="&#xa7;" d="M548 525L454 525Q456 535 456 552Q456 596 432 620Q408 643 366 643Q321 643 296 618Q271 595 271 557Q271 516 301 492Q314 482 382 455Q447 430 479 395Q518 351 518 286Q518 226 483 182Q453 144 410 128Q464 84 464 8Q464-70 412-122Q357-177 267-177Q185-177 139-132Q85-80 85 14L85 18L179 18L179 13Q179-41 205-67Q229-91 273-91Q313-91 336-70Q364-46 364-3Q364 28 339 53Q332 60 321.50 67Q311 74 304.50 77Q298 80 284 86Q270 92 266 94L248 102Q184 130 160 156Q120 198 120 260Q120 322 151 366Q181 408 234 429Q175 472 175 545Q175 624 226 675Q280 729 367 729Q458 729 507 680Q550 637 550 561Q550 538 548 525M324 377Q281 377 251 347Q222 316 222 269Q222 228 246 205Q270 181 310 181Q359 181 387 210Q416 239 416 290Q416 332 389 355Q364 377 324 377Z"  horiz-adv-x="567" vert-adv-y="1000"  />

      
      <glyph glyph-name="unia8" unicode="&#xa8;" d="M165 569Q168 595 188.50 613Q209 631 234 631Q260 631 276 612.50Q292 594 289 569Q285 543 264.50 525Q244 507 219 507Q193 507 177 525.50Q161 544 165 569M345 569Q348 595 368.50 613Q389 631 414 631Q440 631 456 612.50Q472 594 469 569Q465 543 444.50 525Q424 507 399 507Q373 507 357 525.50Q341 544 345 569Z"  horiz-adv-x="500" vert-adv-y="1000"  />

      
      <glyph glyph-name="unia9" unicode="&#xa9;" d="M548 510L548 423Q496 473 431 473Q370 473 330 433Q291 394 291 331Q291 272 328 235Q369 194 434 194Q499 194 548 245L548 157Q492 126 427 126Q334 126 272 188Q215 247 215 333Q215 417 271 477Q333 541 432 541Q497 541 548 510M621 546Q621 546 579 588Q537 630 415 630Q293 630 209 546Q125 462 125 333Q125 204 209 120Q293 36 415 36Q537 36 621 120Q705 204 705 333Q705 462 621 546M663 582Q663 582 712 533Q761 484 761 333Q761 182 663 84Q565-14 415-14Q265-14 167 84Q69 182 69 333Q69 484 167 582Q265 680 415 680Q565 680 663 582Z"  horiz-adv-x="751" vert-adv-y="1000"  />

      
      <glyph glyph-name="uniaa" unicode="&#xaa;" d="M327 632L330 661L395 661L363 394L297 394L300 419Q268 387 221 387Q168 387 133 423Q100 457 100 510Q100 579 145 624Q188 667 248 667Q299 667 327 632M249 610Q218 610 195 587Q167 559 167 514Q167 481 187 461Q205 443 235 443Q268 443 290 465Q318 493 318 538Q318 572 300 590Q282 610 249 610M90 343L357 343L351 291L84 291L90 343Z"  horiz-adv-x="368" vert-adv-y="1000"  />

      
      <glyph glyph-name="uniab" unicode="&#xab;" d="M167 215L273 50L202 7L67 219L260 435L319 384L167 215M353 215L459 50L388 7L253 219L446 435L505 384L353 215Z"  horiz-adv-x="512" vert-adv-y="1000"  />

      
      <glyph glyph-name="uniac" unicode="&#xac;" d="M478 0L380 0L380 179L44 179L44 267L478 267L478 0Z"  horiz-adv-x="500" vert-adv-y="1000"  />

      
      <glyph glyph-name="uniad" unicode="&#xad;" d="M70 162L82 264L322 264L310 162L70 162Z"  horiz-adv-x="340" vert-adv-y="1000"  />

      
      <glyph glyph-name="uniae" unicode="&#xae;" d="M589 153L502 153L386 301L386 153L315 153L315 527L425 527Q489 527 520 496Q548 468 548 419Q548 372 521 342Q501 319 465 309L589 153M386 464L386 360L400 360Q442 360 460 375Q478 391 478 416Q478 444 459 455Q446 464 410 464L386 464M626 546Q626 546 584 588Q542 630 420 630Q298 630 214 546Q130 462 130 333Q130 204 214 120Q298 36 420 36Q542 36 626 120Q710 204 710 333Q710 462 626 546M668 582Q668 582 717 533Q766 484 766 333Q766 182 668 84Q570-14 420-14Q270-14 172 84Q74 182 74 333Q74 484 172 582Q270 680 420 680Q570 680 668 582Z"  horiz-adv-x="758" vert-adv-y="1000"  />

      
      <glyph glyph-name="uniaf" unicode="&#xaf;" d="M147 508L157 586L487 586L477 508L147 508Z"  horiz-adv-x="500" vert-adv-y="1000"  />

      
      <glyph glyph-name="unib0" unicode="&#xb0;" d="M168 510Q168 574 209 619Q253 667 324 667Q383 667 422 632Q462 596 462 534Q462 462 419 419Q377 377 307 377Q243 377 203 417Q168 452 168 510M230 515Q230 479 253 456Q274 435 309 435Q349 435 373 459Q400 485 400 529Q400 566 378 588Q357 609 321 609Q281 609 256 584Q230 558 230 515Z"  horiz-adv-x="502" vert-adv-y="1000"  />

      
      <glyph glyph-name="unib1" unicode="&#xb1;" d="M64 350L64 440L234 440L234 603L328 603L328 440L498 440L498 350L328 350L328 187L234 187L234 350L64 350M64 60L64 150L498 150L498 60L64 60Z"  horiz-adv-x="500" vert-adv-y="1000"  />

      
      <glyph glyph-name="unib2" unicode="&#xb2;" d="M355 333L347 267L57 267L223 429Q259 463 281 490Q309 525 309 553Q309 578 292 593Q276 608 247 608Q214 608 195 589Q175 569 171 535L101 535Q110 592 146 631Q185 674 252 674Q318 674 352 638Q382 608 382 560Q382 515 350 472Q328 444 281 398L214 333L355 333Z"  horiz-adv-x="371" vert-adv-y="1000"  />

      
      <glyph glyph-name="unib3" unicode="&#xb3;" d="M79 386L149 386Q151 358 167 342Q183 326 217 326Q249 326 268 343Q288 361 288 394Q288 423 267 436Q252 446 216 446L202 446L210 512L234 512Q271 512 287 525Q304 538 304 562Q304 584 289 596Q273 608 248 608Q217 608 202 592Q188 578 183 553L113 553Q121 605 156 639Q193 674 252 674Q315 674 348 641Q376 613 376 568Q376 530 356 506Q339 485 312 478Q333 472 347 454Q364 432 364 399Q364 340 328 303Q288 260 215 260Q149 260 114 295Q79 330 79 386Z"  horiz-adv-x="372" vert-adv-y="1000"  />

      
      <glyph glyph-name="unib4" unicode="&#xb4;" d="M408 675L492 629L319 485L269 519L408 675Z"  horiz-adv-x="500" vert-adv-y="1000"  />

      
      <glyph glyph-name="unib5" unicode="&#xb5;" d="M132-230L34-230L114 421L212 421L190 240Q184 184 184 173Q184 127 210 100Q234 76 275 76Q322 76 350 104Q380 133 391 222L416 421L514 421L462 0L364 0L372 63Q359 29 329 6Q304-12 266-12Q224-12 200 13Q179 34 169 73L132-230Z"  horiz-adv-x="524" vert-adv-y="1000"  />

      
      <glyph glyph-name="uni03BC" unicode="&#x03BC;" d="M132-230L34-230L114 421L212 421L190 240Q184 184 184 173Q184 127 210 100Q234 76 275 76Q322 76 350 104Q380 133 391 222L416 421L514 421L462 0L364 0L372 63Q359 29 329 6Q304-12 266-12Q224-12 200 13Q179 34 169 73L132-230Z"  horiz-adv-x="524" vert-adv-y="1000"  />

      
      <glyph glyph-name="unib6" unicode="&#xb6;" d="M291-96L208-96L259 317L252 317Q168 317 124 362Q84 403 84 472Q84 555 133 608Q167 644 215 655.50Q263 667 332 667L629 667L620 591L554 591L469-96L387-96L472 591L376 591L291-96Z"  horiz-adv-x="618" vert-adv-y="1000"  />

      
      <glyph glyph-name="unib7" unicode="&#xb7;" d="M63 329Q63 367 92 394Q117 418 151 418Q182 418 202 398Q221 377 221 351Q221 315 195 287Q171 262 135 262Q103 262 83 281Q63 299 63 329Z"  horiz-adv-x="200" vert-adv-y="1000"  />

      
      <glyph glyph-name="unib8" unicode="&#xb8;" d="M251-53L330-85L211-219L151-187L251-53Z"  horiz-adv-x="500" vert-adv-y="1000"  />

      
      <glyph glyph-name="unib9" unicode="&#xb9;" d="M195 267L236 601L158 601L208 667L318 667L269 267L195 267Z"  horiz-adv-x="370" vert-adv-y="1000"  />

      
      <glyph glyph-name="uniba" unicode="&#xba;" d="M232 386Q168 386 132 423Q98 457 98 514Q98 579 142 623Q186 667 259 667Q320 667 356 632Q393 596 393 538Q393 472 351 430Q307 386 232 386M254 610Q215 610 191 586Q166 559 166 518Q166 483 187 462Q207 442 240 442Q277 442 301 466Q326 493 326 536Q326 570 306 590Q286 610 254 610M90 343L358 343L352 291L84 291L90 343Z"  horiz-adv-x="369" vert-adv-y="1000"  />

      
      <glyph glyph-name="unibb" unicode="&#xbb;" d="M207 222L98 387L169 431L308 219L123 7L64 57L207 222M394 222L285 387L356 431L495 219L310 7L251 57L394 222Z"  horiz-adv-x="512" vert-adv-y="1000"  />

      
      <glyph glyph-name="unibc" unicode="&#xbc;" d="M195 267L236 601L158 601L208 667L316 667L267 267L195 267M227 17L690 678L735 650L272-11L227 17M592 138L670 138L683 241L592 138M778 430L742 142L785 142L777 76L734 76L725 0L653 0L662 76L453 76L778 430Z"  horiz-adv-x="802" vert-adv-y="1000"  />

      
      <glyph glyph-name="unibd" unicode="&#xbd;" d="M195 267L236 601L158 601L208 667L316 667L267 267L195 267M167 17L630 678L675 650L212-11L167 17M752 66L744 0L454 0L620 162Q656 196 678 223Q706 258 706 286Q706 311 689 326Q672 341 644 341Q611 341 592 322Q572 302 568 268L498 268Q507 325 543 364Q582 407 649 407Q715 407 749 371Q779 341 779 293Q779 248 747 205Q725 177 678 131L611 66L752 66Z"  horiz-adv-x="800" vert-adv-y="1000"  />

      
      <glyph glyph-name="unibe" unicode="&#xbe;" d="M79 386L149 386Q151 358 167 342Q183 326 217 326Q249 326 268 343Q288 361 288 394Q288 423 267 436Q252 446 216 446L202 446L210 512L234 512Q271 512 287 525Q304 538 304 563Q304 584 289 596Q273 608 248 608Q217 608 202 592Q188 578 183 553L113 553Q121 605 156 639Q193 674 252 674Q315 674 348 641Q376 613 376 568Q376 530 356 506Q339 485 312 478Q333 472 347 454Q364 432 364 399Q364 340 328 303Q288 260 215 260Q149 260 114 295Q79 330 79 386M227 17L690 678L735 650L272-11L227 17M592 138L670 138L683 241L592 138M778 430L742 142L785 142L777 76L734 76L725 0L653 0L662 76L453 76L778 430Z"  horiz-adv-x="802" vert-adv-y="1000"  />

      
      <glyph glyph-name="unibf" unicode="&#xbf;" d="M280-48L382-48L382-53Q382-149 333-197Q286-242 203-242Q133-242 91-200Q52-161 52-101Q52-35 96 12Q129 47 202 73Q267 96 278 107Q296 122 296 146Q296 167 283 179Q270 191 248 191Q220 191 205 170Q194 153 192 123L94 123Q101 198 143 240Q184 281 255 281Q320 281 357 246Q395 212 395 149Q395 91 358 54Q327 23 276 4Q193-25 175-42Q152-64 152-95Q152-120 168-136Q184-152 213-152Q247-152 266-129Q272-122 275-110Q278-98 278.50-92Q279-86 279.50-68Q280-50 280-48M211 383Q211 409 229 429Q247 449 278 449Q302 449 317 434Q333 419 333 394Q333 367 313 347Q295 329 267 329Q241 329 227 343Q211 358 211 383Z"  horiz-adv-x="434" vert-adv-y="1000"  />

      
      <glyph glyph-name="unic0" unicode="&#xc0;" d="M544 0L494 161L209 161L116 0L4 0L423 706L652 0L544 0M263 257L465 257L393 483L263 257M453 727L292 846L385 906L506 767L453 727Z"  horiz-adv-x="656" vert-adv-y="1000"  />

      
      <glyph glyph-name="unic1" unicode="&#xc1;" d="M544 0L494 161L209 161L116 0L4 0L423 706L652 0L544 0M263 257L465 257L393 483L263 257M401 727L358 767L513 906L592 846L401 727Z"  horiz-adv-x="656" vert-adv-y="1000"  />

      
      <glyph glyph-name="unic2" unicode="&#xc2;" d="M544 0L494 161L209 161L116 0L4 0L423 706L652 0L544 0M263 257L465 257L393 483L263 257M429 812L320 730L258 786L439 920L588 786L518 730L429 812Z"  horiz-adv-x="656" vert-adv-y="1000"  />

      
      <glyph glyph-name="unic3" unicode="&#xc3;" d="M544 0L494 161L209 161L116 0L4 0L423 706L652 0L544 0M263 257L465 257L393 483L263 257M558 863L610 817Q588 780 562 759Q531 733 486 733Q461 733 425 749L404 759Q372 775 355 775Q337 775 321 761Q309 751 299 733L245 774Q271 809 294 828Q327 855 368 855Q400 855 428 840L447 830Q483 811 497 811Q518 811 535 830Q546 842 558 863Z"  horiz-adv-x="656" vert-adv-y="1000"  />

      
      <glyph glyph-name="unic4" unicode="&#xc4;" d="M544 0L494 161L209 161L116 0L4 0L423 706L652 0L544 0M263 257L465 257L393 483L263 257M463 788Q463 816 484 837Q504 857 534 857Q558 857 572 842Q588 826 588 801Q588 771 567 752Q546 733 518 733Q494 733 479 748Q463 763 463 788M268 788Q268 816 289 837Q309 857 339 857Q363 857 377 842Q393 826 393 801Q393 771 372 752Q351 733 323 733Q299 733 284 748Q268 763 268 788Z"  horiz-adv-x="656" vert-adv-y="1000"  />

      
      <glyph glyph-name="unic5" unicode="&#xc5;" d="M544 0L494 161L209 161L116 0L4 0L423 706L652 0L544 0M263 257L465 257L393 483L263 257M333 815Q333 857 360 886Q391 920 440 920Q480 920 504 896Q529 872 529 832Q529 785 500 756Q470 726 422 726Q383 726 359 750Q333 776 333 815M388 819Q388 801 399 790Q409 780 426 780Q447 780 461 794Q474 807 474 828Q474 844 463 855Q452 866 436 866Q417 866 402 853Q388 839 388 819Z"  horiz-adv-x="656" vert-adv-y="1000"  />

      
      <glyph glyph-name="unic6" unicode="&#xc6;" d="M546 0L496 159L213 159L120 0L10 0L412 667L707 667L737 571L472 571L523 412L781 412L811 316L553 316L621 96L886 96L916 0L546 0M269 255L467 255L399 472L269 255Z"  horiz-adv-x="926" vert-adv-y="1000"  />

      
      <glyph glyph-name="unic7" unicode="&#xc7;" d="M653 631L639 511Q565 585 456 585Q346 585 275 517Q237 481 214 424Q191 367 191 301Q191 206 249 144Q307 81 406 81Q505 81 595 158L581 37Q489-13 397-13Q261-13 178 70Q89 159 89 301Q89 469 199 577Q304 679 463 679Q556 679 653 631M373-53L455-91L326-224L266-192L373-53Z"  horiz-adv-x="622" vert-adv-y="1000"  />

      
      <glyph glyph-name="unic8" unicode="&#xc8;" d="M530 667L518 571L252 571L232 402L490 402L478 306L220 306L194 96L460 96L448 0L80 0L162 667L530 667M375 727L214 846L307 906L428 767L375 727Z"  horiz-adv-x="500" vert-adv-y="1000"  />

      
      <glyph glyph-name="unic9" unicode="&#xc9;" d="M530 667L518 571L252 571L232 402L490 402L478 306L220 306L194 96L460 96L448 0L80 0L162 667L530 667M323 727L280 767L435 906L514 846L323 727Z"  horiz-adv-x="500" vert-adv-y="1000"  />

      
      <glyph glyph-name="unica" unicode="&#xca;" d="M530 667L518 571L252 571L232 402L490 402L478 306L220 306L194 96L460 96L448 0L80 0L162 667L530 667M373 812L264 730L202 786L383 920L532 786L462 730L373 812Z"  horiz-adv-x="500" vert-adv-y="1000"  />

      
      <glyph glyph-name="unicb" unicode="&#xcb;" d="M530 667L518 571L252 571L232 402L490 402L478 306L220 306L194 96L460 96L448 0L80 0L162 667L530 667M403 788Q403 816 424 837Q444 857 474 857Q498 857 512 842Q528 826 528 801Q528 771 507 752Q486 733 458 733Q434 733 419 748Q403 763 403 788M208 788Q208 816 229 837Q249 857 279 857Q303 857 317 842Q333 826 333 801Q333 771 312 752Q291 733 263 733Q239 733 224 748Q208 763 208 788Z"  horiz-adv-x="500" vert-adv-y="1000"  />

      
      <glyph glyph-name="unicc" unicode="&#xcc;" d="M162 667L264 667L182 0L80 0L162 667M217 713L97 874L200 909L277 740L217 713Z"  horiz-adv-x="262" vert-adv-y="1000"  />

      
      <glyph glyph-name="unicd" unicode="&#xcd;" d="M162 667L264 667L182 0L80 0L162 667M286 909L379 874L221 713L167 740L286 909Z"  horiz-adv-x="262" vert-adv-y="1000"  />

      
      <glyph glyph-name="unice" unicode="&#xce;" d="M162 667L264 667L182 0L80 0L162 667M231 812L142 735L89 784L243 915L365 784L300 735L231 812Z"  horiz-adv-x="262" vert-adv-y="1000"  />

      
      <glyph glyph-name="unicf" unicode="&#xcf;" d="M162 667L264 667L182 0L80 0L162 667M245 789Q245 816 264 835Q282 851 302 851Q322 851 334 836Q346 822 346 803Q346 777 328 757Q313 739 290 739Q273 739 259 753Q245 769 245 789M112 788Q112 815 131 834Q147 851 169 851Q188 851 201 836Q213 822 213 803Q213 777 195 757Q180 739 157 739Q140 739 126 753Q112 769 112 788Z"  horiz-adv-x="262" vert-adv-y="1000"  />

      
      <glyph glyph-name="unid0" unicode="&#xd0;" d="M130 410L162 667L302 667Q471 667 558 584Q639 508 639 366Q639 200 545 106Q481 42 395 21Q309 0 204 0L179 0L80 0L120 324L40 324L50 410L130 410M252 571L232 410L372 410L362 324L222 324L194 96L238 96Q409 96 481 181Q537 246 537 352Q537 455 482 512Q424 571 296 571L252 571Z"  horiz-adv-x="646" vert-adv-y="1000"  />

      
      <glyph glyph-name="unid1" unicode="&#xd1;" d="M182 0L80 0L167 712L589 205L646 667L748 667L661-41L239 466L182 0M598 863L650 817Q628 780 602 759Q571 733 526 733Q501 733 465 749L444 759Q412 775 395 775Q377 775 361 761Q349 751 339 733L285 774Q311 809 334 828Q367 855 408 855Q440 855 468 840L487 830Q523 811 537 811Q558 811 575 830Q586 842 598 863Z"  horiz-adv-x="746" vert-adv-y="1000"  />

      
      <glyph glyph-name="unid2" unicode="&#xd2;" d="M478 679Q616 679 703 592Q789 507 789 366Q789 197 684 90Q582-13 409-13Q261-13 178 73Q89 164 89 300Q89 379 118 451.50Q147 524 198 574Q303 679 478 679M410 81Q534 81 606 153Q644 190 665.50 245.50Q687 301 687 360Q687 455 627 517Q561 585 458 585Q348 585 273 511Q190 430 190 307Q190 209 252 145Q312 81 410 81M525 727L364 846L457 906L578 767L525 727Z"  horiz-adv-x="796" vert-adv-y="1000"  />

      
      <glyph glyph-name="unid3" unicode="&#xd3;" d="M478 679Q616 679 703 592Q789 507 789 366Q789 197 684 90Q582-13 409-13Q261-13 178 73Q89 164 89 300Q89 379 118 451.50Q147 524 198 574Q303 679 478 679M410 81Q534 81 606 153Q644 190 665.50 245.50Q687 301 687 360Q687 455 627 517Q561 585 458 585Q348 585 273 511Q190 430 190 307Q190 209 252 145Q312 81 410 81M443 727L400 767L555 906L634 846L443 727Z"  horiz-adv-x="796" vert-adv-y="1000"  />

      
      <glyph glyph-name="unid4" unicode="&#xd4;" d="M478 679Q616 679 703 592Q789 507 789 366Q789 197 684 90Q582-13 409-13Q261-13 178 73Q89 164 89 300Q89 379 118 451.50Q147 524 198 574Q303 679 478 679M410 81Q534 81 606 153Q644 190 665.50 245.50Q687 301 687 360Q687 455 627 517Q561 585 458 585Q348 585 273 511Q190 430 190 307Q190 209 252 145Q312 81 410 81M498 812L389 730L327 786L508 920L657 786L587 730L498 812Z"  horiz-adv-x="796" vert-adv-y="1000"  />

      
      <glyph glyph-name="unid5" unicode="&#xd5;" d="M478 679Q616 679 703 592Q789 507 789 366Q789 197 684 90Q582-13 409-13Q261-13 178 73Q89 164 89 300Q89 379 118 451.50Q147 524 198 574Q303 679 478 679M410 81Q534 81 606 153Q644 190 665.50 245.50Q687 301 687 360Q687 455 627 517Q561 585 458 585Q348 585 273 511Q190 430 190 307Q190 209 252 145Q312 81 410 81M623 863L675 817Q653 780 627 759Q596 733 551 733Q526 733 490 749L469 759Q437 775 420 775Q402 775 386 761Q374 751 364 733L310 774Q336 809 359 828Q392 855 433 855Q464 855 493 840L512 830Q548 811 562 811Q583 811 600 830Q611 842 623 863Z"  horiz-adv-x="796" vert-adv-y="1000"  />

      
      <glyph glyph-name="unid6" unicode="&#xd6;" d="M478 679Q616 679 703 592Q789 507 789 366Q789 197 684 90Q582-13 409-13Q261-13 178 73Q89 164 89 300Q89 379 118 451.50Q147 524 198 574Q303 679 478 679M410 81Q534 81 606 153Q644 190 665.50 245.50Q687 301 687 360Q687 455 627 517Q561 585 458 585Q348 585 273 511Q190 430 190 307Q190 209 252 145Q312 81 410 81M523 788Q523 816 544 837Q564 857 594 857Q618 857 632 842Q648 826 648 801Q648 771 627 752Q606 733 578 733Q554 733 539 748Q523 763 523 788M328 788Q328 816 349 837Q369 857 399 857Q423 857 437 842Q453 826 453 801Q453 771 432 752Q411 733 383 733Q359 733 344 748Q328 763 328 788Z"  horiz-adv-x="796" vert-adv-y="1000"  />

      
      <glyph glyph-name="unid7" unicode="&#xd7;" d="M86 193L228 336L86 479L149 542L292 400L435 542L498 479L356 336L498 193L435 130L292 272L149 130L86 193Z"  horiz-adv-x="500" vert-adv-y="1000"  />

      
      <glyph glyph-name="unid8" unicode="&#xd8;" d="M26 27L133 122Q82 204 82 300Q82 379 111 451.50Q140 524 191 574Q298 679 466 679Q588 679 679 607L788 704L838 647L730 551Q782 470 782 367Q782 197 677 90Q575-13 402-13Q330-13 279 4.50Q228 22 181 64L76-30L26 27M649 479L258 132Q321 81 407 81Q527 81 599 153Q680 232 680 364Q680 428 649 479M212 192L599 536Q533 585 451 585Q341 585 266 511Q183 429 183 310Q183 248 212 192Z"  horiz-adv-x="796" vert-adv-y="1000"  />

      
      <glyph glyph-name="unid9" unicode="&#xd9;" d="M164 667L266 667L220 292Q213 222 213 216Q213 152 248 117Q284 81 342 81Q408 81 453 124Q473 144 484.50 169.50Q496 195 499.50 213.50Q503 232 507 265L556 667L658 667L605 238Q589 110 511 44Q442-13 334-13Q215-13 153 65Q109 119 109 202Q109 227 120 313L164 667M432 727L271 846L364 906L485 767L432 727Z"  horiz-adv-x="656" vert-adv-y="1000"  />

      
      <glyph glyph-name="unida" unicode="&#xda;" d="M164 667L266 667L220 292Q213 222 213 216Q213 152 248 117Q284 81 342 81Q408 81 453 124Q473 144 484.50 169.50Q496 195 499.50 213.50Q503 232 507 265L556 667L658 667L605 238Q589 110 511 44Q442-13 334-13Q215-13 153 65Q109 119 109 202Q109 227 120 313L164 667M400 727L357 767L512 906L591 846L400 727Z"  horiz-adv-x="656" vert-adv-y="1000"  />

      
      <glyph glyph-name="unidb" unicode="&#xdb;" d="M164 667L266 667L220 292Q213 222 213 216Q213 152 248 117Q284 81 342 81Q408 81 453 124Q473 144 484.50 169.50Q496 195 499.50 213.50Q503 232 507 265L556 667L658 667L605 238Q589 110 511 44Q442-13 334-13Q215-13 153 65Q109 119 109 202Q109 227 120 313L164 667M430 812L321 730L259 786L440 920L589 786L519 730L430 812Z"  horiz-adv-x="656" vert-adv-y="1000"  />

      
      <glyph glyph-name="unidc" unicode="&#xdc;" d="M164 667L266 667L220 292Q213 222 213 216Q213 152 248 117Q284 81 342 81Q408 81 453 124Q473 144 484.50 169.50Q496 195 499.50 213.50Q503 232 507 265L556 667L658 667L605 238Q589 110 511 44Q442-13 334-13Q215-13 153 65Q109 119 109 202Q109 227 120 313L164 667M460 788Q460 816 481 837Q501 857 531 857Q555 857 569 842Q585 826 585 801Q585 771 564 752Q543 733 515 733Q491 733 476 748Q460 763 460 788M265 788Q265 816 286 837Q306 857 336 857Q360 857 374 842Q390 826 390 801Q390 771 369 752Q348 733 320 733Q296 733 281 748Q265 763 265 788Z"  horiz-adv-x="656" vert-adv-y="1000"  />

      
      <glyph glyph-name="unidd" unicode="&#xdd;" d="M219 0L254 288L82 667L196 667L317 400L504 667L622 667L356 288L321 0L219 0M343 727L300 767L455 906L534 846L343 727Z"  horiz-adv-x="540" vert-adv-y="1000"  />

      
      <glyph glyph-name="unide" unicode="&#xde;" d="M162 667L264 667L252 567L293 567Q400 567 454 515Q503 468 503 385Q503 292 446 235Q382 171 237 171L203 171L182 0L80 0L162 667M240 473L215 265L253 265Q336 265 371 296Q405 325 405 379Q405 424 374 450Q346 473 283 473L240 473Z"  horiz-adv-x="482" vert-adv-y="1000"  />

      
      <glyph glyph-name="unidf" unicode="&#xdf;" d="M167 0L69 0L110 334L40 334L51 421L121 421L134 527Q147 630 198 682Q255 741 352 741Q437 741 486 693Q534 647 534 571Q534 521 509 478Q485 440 446 421Q487 400 510 372Q547 329 547 257Q547 147 476 73Q393-14 250-14L262 80Q345 80 398 130Q447 176 447 244Q447 298 413 330Q375 366 297 366L308 455L321 455Q380 455 411 489Q438 519 438 565Q438 604 412 630Q388 653 346 653Q301 653 272 625Q239 593 232 532L167 0Z"  horiz-adv-x="559" vert-adv-y="1000"  />

      
      <glyph glyph-name="unie0" unicode="&#xe0;" d="M418 372L424 421L522 421L470 0L372 0L377 44Q349 14 321 2Q286-13 244-13Q172-13 124 33Q66 89 66 185Q66 300 139 373Q198 432 293 432Q337 432 370 414Q398 399 418 372M298 344Q249 344 214 311Q167 266 167 193Q167 140 200 105Q228 75 271 75Q326 75 363 112Q406 157 406 227Q406 283 373 316Q345 344 298 344M326 485L187 629L283 675L384 519L326 485Z"  horiz-adv-x="532" vert-adv-y="1000"  />

      
      <glyph glyph-name="unie1" unicode="&#xe1;" d="M418 372L424 421L522 421L470 0L372 0L377 44Q349 14 321 2Q286-13 244-13Q172-13 124 33Q66 89 66 185Q66 300 139 373Q198 432 293 432Q337 432 370 414Q398 399 418 372M298 344Q249 344 214 311Q167 266 167 193Q167 140 200 105Q228 75 271 75Q326 75 363 112Q406 157 406 227Q406 283 373 316Q345 344 298 344M388 675L472 629L299 485L249 519L388 675Z"  horiz-adv-x="532" vert-adv-y="1000"  />

      
      <glyph glyph-name="unie2" unicode="&#xe2;" d="M418 372L424 421L522 421L470 0L372 0L377 44Q349 14 321 2Q286-13 244-13Q172-13 124 33Q66 89 66 185Q66 300 139 373Q198 432 293 432Q337 432 370 414Q398 399 418 372M298 344Q249 344 214 311Q167 266 167 193Q167 140 200 105Q228 75 271 75Q326 75 363 112Q406 157 406 227Q406 283 373 316Q345 344 298 344M322 571L224 485L162 537L333 675L470 537L400 485L322 571Z"  horiz-adv-x="532" vert-adv-y="1000"  />

      
      <glyph glyph-name="unie3" unicode="&#xe3;" d="M418 372L424 421L522 421L470 0L372 0L377 44Q349 14 321 2Q286-13 244-13Q172-13 124 33Q66 89 66 185Q66 300 139 373Q198 432 293 432Q337 432 370 414Q398 399 418 372M298 344Q249 344 214 311Q167 266 167 193Q167 140 200 105Q228 75 271 75Q326 75 363 112Q406 157 406 227Q406 283 373 316Q345 344 298 344M448 622L501 576Q483 544 456 521Q419 490 376 490Q346 490 316 508L296 520Q264 538 246 538Q225 538 210 521Q201 512 189 492L135 533Q161 569 184 587Q219 614 259 614Q294 614 326 594L341 584Q367 566 388 566Q410 566 427 587Q440 603 448 622Z"  horiz-adv-x="532" vert-adv-y="1000"  />

      
      <glyph glyph-name="unie4" unicode="&#xe4;" d="M418 372L424 421L522 421L470 0L372 0L377 44Q349 14 321 2Q286-13 244-13Q172-13 124 33Q66 89 66 185Q66 300 139 373Q198 432 293 432Q337 432 370 414Q398 399 418 372M298 344Q249 344 214 311Q167 266 167 193Q167 140 200 105Q228 75 271 75Q326 75 363 112Q406 157 406 227Q406 283 373 316Q345 344 298 344M165 569Q168 595 188.50 613Q209 631 234 631Q260 631 276 612.50Q292 594 289 569Q285 543 264.50 525Q244 507 219 507Q193 507 177 525.50Q161 544 165 569M345 569Q348 595 368.50 613Q389 631 414 631Q440 631 456 612.50Q472 594 469 569Q465 543 444.50 525Q424 507 399 507Q373 507 357 525.50Q341 544 345 569Z"  horiz-adv-x="532" vert-adv-y="1000"  />

      
      <glyph glyph-name="unie5" unicode="&#xe5;" d="M418 372L424 421L522 421L470 0L372 0L377 44Q349 14 321 2Q286-13 244-13Q172-13 124 33Q66 89 66 185Q66 300 139 373Q198 432 293 432Q337 432 370 414Q398 399 418 372M298 344Q249 344 214 311Q167 266 167 193Q167 140 200 105Q228 75 271 75Q326 75 363 112Q406 157 406 227Q406 283 373 316Q345 344 298 344M226 573Q226 615 252 643Q280 673 327 673Q366 673 391 650Q416 626 416 588Q416 542 387 513Q359 485 317 485Q276 485 250 511Q226 537 226 573M277 575Q277 558 288 547Q299 536 317 536Q338 536 350 548Q364 560 364 584Q364 602 351 613Q341 622 323 622Q303 622 289 608Q277 594 277 575Z"  horiz-adv-x="532" vert-adv-y="1000"  />

      
      <glyph glyph-name="unie6" unicode="&#xe6;" d="M140 328L151 419Q213 432 270 432Q326 432 361 417Q395 401 414 374Q440 399 471 412Q516 432 566 432Q645 432 693 383Q745 328 745 236Q745 211 740 187L439 187Q439 135 470 102Q495 75 539 75Q576 75 606 94Q633 112 650 142L727 96Q697 46 649 17Q599-13 531-13Q479-13 438 6Q404 22 379 55Q352 21 313 4Q275-13 216-13Q148-13 106 19Q56 56 56 124Q56 184 99 225Q147 271 234 271Q305 271 347 243Q349 252 349 267Q349 306 322 327Q299 344 252 344Q199 344 140 328M244 187Q196 187 169 164Q151 149 151 125Q151 102 175 86Q198 71 232 71Q274 71 299 87Q327 105 327 134Q327 157 305 172Q283 187 244 187M454 267L650 267Q645 304 625 325Q604 348 564 348Q524 348 493 323Q468 303 454 267Z"  horiz-adv-x="762" vert-adv-y="1000"  />

      
      <glyph glyph-name="unie7" unicode="&#xe7;" d="M439 396L426 290Q401 315 376 328Q345 344 314 344Q247 344 207 302Q167 260 167 198Q167 140 203 106Q236 75 290 75Q326 75 358 90Q390 108 406 126L393 16Q349-13 268-13Q179-13 125 41Q66 98 66 194Q66 297 136 367Q202 432 308 432Q383 432 439 396M241-53L320-85L201-219L141-187L241-53Z"  horiz-adv-x="422" vert-adv-y="1000"  />

      
      <glyph glyph-name="unie8" unicode="&#xe8;" d="M377 142L454 96Q424 46 376 17Q325-13 258-13Q175-13 123 40Q66 97 66 190Q66 299 139 370Q203 432 293 432Q373 432 420 383Q472 329 472 236Q472 211 467 187L166 187Q166 135 197 102Q222 75 266 75Q303 75 333 94Q360 112 377 142M181 267L377 267Q372 304 352 325Q331 348 291 348Q251 348 220 323Q195 303 181 267M331 485L192 629L288 675L389 519L331 485Z"  horiz-adv-x="489" vert-adv-y="1000"  />

      
      <glyph glyph-name="unie9" unicode="&#xe9;" d="M377 142L454 96Q424 46 376 17Q325-13 258-13Q175-13 123 40Q66 97 66 190Q66 299 139 370Q203 432 293 432Q373 432 420 383Q472 329 472 236Q472 211 467 187L166 187Q166 135 197 102Q222 75 266 75Q303 75 333 94Q360 112 377 142M181 267L377 267Q372 304 352 325Q331 348 291 348Q251 348 220 323Q195 303 181 267M388 675L472 629L299 485L249 519L388 675Z"  horiz-adv-x="489" vert-adv-y="1000"  />

      
      <glyph glyph-name="uniea" unicode="&#xea;" d="M377 142L454 96Q424 46 376 17Q325-13 258-13Q175-13 123 40Q66 97 66 190Q66 299 139 370Q203 432 293 432Q373 432 420 383Q472 329 472 236Q472 211 467 187L166 187Q166 135 197 102Q222 75 266 75Q303 75 333 94Q360 112 377 142M181 267L377 267Q372 304 352 325Q331 348 291 348Q251 348 220 323Q195 303 181 267M308 571L210 485L148 537L319 675L456 537L386 485L308 571Z"  horiz-adv-x="489" vert-adv-y="1000"  />

      
      <glyph glyph-name="unieb" unicode="&#xeb;" d="M377 142L454 96Q424 46 376 17Q325-13 258-13Q175-13 123 40Q66 97 66 190Q66 299 139 370Q203 432 293 432Q373 432 420 383Q472 329 472 236Q472 211 467 187L166 187Q166 135 197 102Q222 75 266 75Q303 75 333 94Q360 112 377 142M181 267L377 267Q372 304 352 325Q331 348 291 348Q251 348 220 323Q195 303 181 267M151 569Q154 595 174.50 613Q195 631 220 631Q246 631 262 612.50Q278 594 275 569Q271 543 250.50 525Q230 507 205 507Q179 507 163 525.50Q147 544 151 569M331 569Q334 595 354.50 613Q375 631 400 631Q426 631 442 612.50Q458 594 455 569Q451 543 430.50 525Q410 507 385 507Q359 507 343 525.50Q327 544 331 569Z"  horiz-adv-x="489" vert-adv-y="1000"  />

      
      <glyph glyph-name="uniec" unicode="&#xec;" d="M115 421L213 421L161 0L63 0L115 421M169 475L76 653L180 676L232 493L169 475Z"  horiz-adv-x="223" vert-adv-y="1000"  />

      
      <glyph glyph-name="unied" unicode="&#xed;" d="M115 421L213 421L161 0L63 0L115 421M210 676L308 653L171 475L114 493L210 676Z"  horiz-adv-x="223" vert-adv-y="1000"  />

      
      <glyph glyph-name="uniee" unicode="&#xee;" d="M115 421L213 421L161 0L63 0L115 421M182 568L103 495L54 541L194 666L302 541L243 495L182 568Z"  horiz-adv-x="223" vert-adv-y="1000"  />

      
      <glyph glyph-name="unief" unicode="&#xef;" d="M115 421L213 421L161 0L63 0L115 421M30 569Q33 595 53.50 613Q74 631 99 631Q125 631 141 612.50Q157 594 154 569Q150 543 129.50 525Q109 507 84 507Q58 507 42 525.50Q26 544 30 569M210 569Q213 595 233.50 613Q254 631 279 631Q305 631 321 612.50Q337 594 334 569Q330 543 309.50 525Q289 507 264 507Q238 507 222 525.50Q206 544 210 569Z"  horiz-adv-x="223" vert-adv-y="1000"  />

      
      <glyph glyph-name="unif0" unicode="&#xf0;" d="M156 593L196 670Q306 664 391 604L524 646L541 588L438 556Q479 518 502 462Q525 404 525 317Q525 129 439 47Q377-13 277-13Q175-13 120 43Q65 100 65 188Q65 294 131 364Q194 432 297 432Q379 432 424 385Q415 473 340 524L155 465L138 524L279 569Q220 594 156 593M273 75Q337 75 375 117Q415 160 415 226Q415 288 377 319Q346 344 300 344Q242 344 205 305Q165 262 165 192Q165 133 197 103Q225 75 273 75Z"  horiz-adv-x="527" vert-adv-y="1000"  />

      
      <glyph glyph-name="unif1" unicode="&#xf1;" d="M61 0L113 421L211 421L206 383Q222 403 248 416Q281 432 320 432Q384 432 420 396Q458 358 458 296Q458 278 449 207L423 0L325 0L352 217Q357 254 357 273Q357 309 338 327Q320 344 288 344Q248 344 225 321Q195 292 184 203L159 0L61 0M441 622L494 576Q476 544 449 521Q412 490 369 490Q339 490 309 508L289 520Q257 538 239 538Q218 538 203 521Q194 512 182 492L128 533Q154 569 177 587Q212 614 252 614Q286 614 319 594L334 584Q360 566 381 566Q402 566 420 587Q433 603 441 622Z"  horiz-adv-x="485" vert-adv-y="1000"  />

      
      <glyph glyph-name="unif2" unicode="&#xf2;" d="M313 432Q407 432 463 376Q520 317 520 230Q520 123 447 52Q379-13 274-13Q180-13 124 44Q66 104 66 191Q66 297 139 367Q207 432 313 432M197 112Q231 75 287 75Q343 75 380 115Q420 158 420 224Q420 278 387 312Q356 344 307 344Q249 344 212 309Q166 266 166 199Q166 148 197 112M331 485L192 629L288 675L389 519L331 485Z"  horiz-adv-x="534" vert-adv-y="1000"  />

      
      <glyph glyph-name="unif3" unicode="&#xf3;" d="M313 432Q407 432 463 376Q520 317 520 230Q520 123 447 52Q379-13 274-13Q180-13 124 44Q66 104 66 191Q66 297 139 367Q207 432 313 432M197 112Q231 75 287 75Q343 75 380 115Q420 158 420 224Q420 278 387 312Q356 344 307 344Q249 344 212 309Q166 266 166 199Q166 148 197 112M403 675L487 629L314 485L264 519L403 675Z"  horiz-adv-x="534" vert-adv-y="1000"  />

      
      <glyph glyph-name="unif4" unicode="&#xf4;" d="M313 432Q407 432 463 376Q520 317 520 230Q520 123 447 52Q379-13 274-13Q180-13 124 44Q66 104 66 191Q66 297 139 367Q207 432 313 432M197 112Q231 75 287 75Q343 75 380 115Q420 158 420 224Q420 278 387 312Q356 344 307 344Q249 344 212 309Q166 266 166 199Q166 148 197 112M327 571L229 485L167 537L338 675L475 537L405 485L327 571Z"  horiz-adv-x="534" vert-adv-y="1000"  />

      
      <glyph glyph-name="unif5" unicode="&#xf5;" d="M313 432Q407 432 463 376Q520 317 520 230Q520 123 447 52Q379-13 274-13Q180-13 124 44Q66 104 66 191Q66 297 139 367Q207 432 313 432M197 112Q231 75 287 75Q343 75 380 115Q420 158 420 224Q420 278 387 312Q356 344 307 344Q249 344 212 309Q166 266 166 199Q166 148 197 112M453 622L506 576Q488 544 461 521Q424 490 381 490Q351 490 321 508L301 520Q270 538 251 538Q230 538 215 521Q206 512 194 492L140 533Q166 569 189 587Q224 614 264 614Q298 614 331 594L346 584Q372 566 393 566Q414 566 432 587Q445 603 453 622Z"  horiz-adv-x="534" vert-adv-y="1000"  />

      
      <glyph glyph-name="unif6" unicode="&#xf6;" d="M313 432Q407 432 463 376Q520 317 520 230Q520 123 447 52Q379-13 274-13Q180-13 124 44Q66 104 66 191Q66 297 139 367Q207 432 313 432M197 112Q231 75 287 75Q343 75 380 115Q420 158 420 224Q420 278 387 312Q356 344 307 344Q249 344 212 309Q166 266 166 199Q166 148 197 112M170 569Q173 595 193.50 613Q214 631 239 631Q265 631 281 612.50Q297 594 294 569Q290 543 269.50 525Q249 507 224 507Q198 507 182 525.50Q166 544 170 569M350 569Q353 595 373.50 613Q394 631 419 631Q445 631 461 612.50Q477 594 474 569Q470 543 449.50 525Q429 507 404 507Q378 507 362 525.50Q346 544 350 569Z"  horiz-adv-x="534" vert-adv-y="1000"  />

      
      <glyph glyph-name="unif7" unicode="&#xf7;" d="M249.50 470.50Q249.50 470.50 240.75 479.25Q232 488 232 513Q232 538 249.50 555.50Q267 573 292 573Q317 573 334.50 555.50Q352 538 352 513Q352 488 334.50 470.50Q317 453 292 453Q267 453 249.50 470.50M249.50 116.50Q249.50 116.50 240.75 125.25Q232 134 232 159Q232 184 249.50 201.50Q267 219 292 219Q317 219 334.50 201.50Q352 184 352 159Q352 134 334.50 116.50Q317 99 292 99Q267 99 249.50 116.50M75 291L75 381L509 381L509 291L75 291Z"  horiz-adv-x="500" vert-adv-y="1000"  />

      
      <glyph glyph-name="unif8" unicode="&#xf8;" d="M15 7L96 80Q64 133 64 191Q64 297 137 367Q205 432 310 432Q390 432 447 389L529 461L567 415L487 343Q518 291 518 230Q518 123 445 52Q379-13 270-13Q191-13 137 30L59-39L15 7M409 274L211 97Q242 75 283 75Q341 75 378 115Q418 157 418 222Q418 252 409 274M174 147L372 323Q346 344 307 344Q248 344 210 309Q164 266 164 199Q164 172 174 147Z"  horiz-adv-x="534" vert-adv-y="1000"  />

      
      <glyph glyph-name="unif9" unicode="&#xf9;" d="M115 421L213 421L186 202Q181 165 181 153Q181 115 201 95Q221 75 256 75Q293 75 317 97Q338 117 347 180L377 421L475 421L445 177Q433 75 388 32Q341-13 255-13Q165-13 121 33Q82 74 82 135Q82 149 87 192L115 421M301 485L162 629L258 675L359 519L301 485Z"  horiz-adv-x="485" vert-adv-y="1000"  />

      
      <glyph glyph-name="unifa" unicode="&#xfa;" d="M115 421L213 421L186 202Q181 165 181 153Q181 115 201 95Q221 75 256 75Q293 75 317 97Q338 117 347 180L377 421L475 421L445 177Q433 75 388 32Q341-13 255-13Q165-13 121 33Q82 74 82 135Q82 149 87 192L115 421M388 675L472 629L299 485L249 519L388 675Z"  horiz-adv-x="485" vert-adv-y="1000"  />

      
      <glyph glyph-name="unifb" unicode="&#xfb;" d="M115 421L213 421L186 202Q181 165 181 153Q181 115 201 95Q221 75 256 75Q293 75 317 97Q338 117 347 180L377 421L475 421L445 177Q433 75 388 32Q341-13 255-13Q165-13 121 33Q82 74 82 135Q82 149 87 192L115 421M314 571L216 485L154 537L325 675L462 537L392 485L314 571Z"  horiz-adv-x="485" vert-adv-y="1000"  />

      
      <glyph glyph-name="unifc" unicode="&#xfc;" d="M115 421L213 421L186 202Q181 165 181 153Q181 115 201 95Q221 75 256 75Q293 75 317 97Q338 117 347 180L377 421L475 421L445 177Q433 75 388 32Q341-13 255-13Q165-13 121 33Q82 74 82 135Q82 149 87 192L115 421M157 569Q160 595 180.50 613Q201 631 226 631Q252 631 268 612.50Q284 594 281 569Q277 543 256.50 525Q236 507 211 507Q185 507 169 525.50Q153 544 157 569M337 569Q340 595 360.50 613Q381 631 406 631Q432 631 448 612.50Q464 594 461 569Q457 543 436.50 525Q416 507 391 507Q365 507 349 525.50Q333 544 337 569Z"  horiz-adv-x="485" vert-adv-y="1000"  />

      
      <glyph glyph-name="unifd" unicode="&#xfd;" d="M3-229L203 78L58 421L174 421L269 184L416 421L528 421L113-229L3-229M399 675L483 629L310 485L260 519L399 675Z"  horiz-adv-x="482" vert-adv-y="1000"  />

      
      <glyph glyph-name="unife" unicode="&#xfe;" d="M166 49L132-229L34-229L153 729L251 729L206 375Q225 401 256 415Q291 432 331 432Q413 432 465 378Q518 323 518 235Q518 182 498.50 131.50Q479 81 447 47Q389-14 307-14Q251-14 212 9Q187 24 166 49M308 344Q256 344 224 313Q178 269 178 191Q178 137 206 108Q237 75 286 75Q335 75 369 109Q417 157 417 227Q417 279 387 312Q358 344 308 344Z"  horiz-adv-x="532" vert-adv-y="1000"  />

      
      <glyph glyph-name="uniff" unicode="&#xff;" d="M3-229L203 78L58 421L174 421L269 184L416 421L528 421L113-229L3-229M156 569Q159 595 179.50 613Q200 631 225 631Q251 631 267 612.50Q283 594 280 569Q276 543 255.50 525Q235 507 210 507Q184 507 168 525.50Q152 544 156 569M336 569Q339 595 359.50 613Q380 631 405 631Q431 631 447 612.50Q463 594 460 569Q456 543 435.50 525Q415 507 390 507Q364 507 348 525.50Q332 544 336 569Z"  horiz-adv-x="482" vert-adv-y="1000"  />

      
      <glyph glyph-name="uni0100" unicode="&#x0100;" d="M544 0L494 161L209 161L116 0L4 0L423 706L652 0L544 0M263 257L465 257L393 483L263 257M240 733L250 813L610 813L600 733L240 733Z"  horiz-adv-x="656" vert-adv-y="1000"  />

      
      <glyph glyph-name="uni0101" unicode="&#x0101;" d="M418 372L424 421L522 421L470 0L372 0L377 44Q349 14 321 2Q286-13 244-13Q172-13 124 33Q66 89 66 185Q66 300 139 373Q198 432 293 432Q337 432 370 414Q398 399 418 372M298 344Q249 344 214 311Q167 266 167 193Q167 140 200 105Q228 75 271 75Q326 75 363 112Q406 157 406 227Q406 283 373 316Q345 344 298 344M147 508L157 586L487 586L477 508L147 508Z"  horiz-adv-x="532" vert-adv-y="1000"  />

      
      <glyph glyph-name="uni0102" unicode="&#x0102;" d="M544 0L494 161L209 161L116 0L4 0L423 706L652 0L544 0M263 257L465 257L393 483L263 257M525 874L607 874Q587 793 529 756Q487 730 425 730Q366 730 329 758Q275 798 267 874L349 874Q355 842 377 825Q397 810 429 810Q468 810 491 826Q514 842 525 874Z"  horiz-adv-x="656" vert-adv-y="1000"  />

      
      <glyph glyph-name="uni0103" unicode="&#x0103;" d="M418 372L424 421L522 421L470 0L372 0L377 44Q349 14 321 2Q286-13 244-13Q172-13 124 33Q66 89 66 185Q66 300 139 373Q198 432 293 432Q337 432 370 414Q398 399 418 372M298 344Q249 344 214 311Q167 266 167 193Q167 140 200 105Q228 75 271 75Q326 75 363 112Q406 157 406 227Q406 283 373 316Q345 344 298 344M408 638L489 638Q471 563 421 529Q384 503 324 503Q260 503 222 530Q171 567 165 638L242 638Q247 608 269 589Q288 573 321 573Q355 573 375 589Q399 607 408 638Z"  horiz-adv-x="532" vert-adv-y="1000"  />

      
      <glyph glyph-name="uni0104" unicode="&#x0104;" d="M4 0L423 706L652 0L622 0Q586-24 567-43Q544-66 544-89Q544-101 552-108Q561-115 580-115Q608-115 634-106L616-178Q580-193 546-193Q506-193 482-171Q459-150 459-116Q459-75 493-41Q516-18 544 0L494 161L209 161L116 0L4 0M263 257L465 257L393 483L263 257Z"  horiz-adv-x="656" vert-adv-y="1000"  />

      
      <glyph glyph-name="uni0105" unicode="&#x0105;" d="M418 374L424 421L522 421L470 0L445 0Q409-28 393-45Q370-71 370-89Q370-103 381-109Q390-115 409-115Q431-115 460-106L443-170Q410-189 375-189Q339-189 314-169Q289-148 289-115Q289-76 324-41Q343-21 372 0L377 44Q349 14 321 2Q286-13 244-13Q172-13 124 33Q66 90 66 187Q66 301 139 373Q198 432 293 432Q336 432 370 414Q395 401 418 374M298 344Q249 344 214 311Q167 266 167 193Q167 140 200 105Q228 75 271 75Q326 75 363 112Q406 157 406 227Q406 283 373 316Q345 344 298 344Z"  horiz-adv-x="532" vert-adv-y="1000"  />

      
      <glyph glyph-name="uni0106" unicode="&#x0106;" d="M653 631L639 511Q565 585 456 585Q346 585 275 517Q237 481 214 424Q191 367 191 301Q191 206 249 144Q307 81 406 81Q505 81 595 158L581 37Q489-13 397-13Q261-13 178 70Q89 159 89 301Q89 469 199 577Q304 679 463 679Q556 679 653 631M453 727L410 767L565 906L644 846L453 727Z"  horiz-adv-x="622" vert-adv-y="1000"  />

      
      <glyph glyph-name="uni0107" unicode="&#x0107;" d="M439 396L426 290Q401 315 376 328Q345 344 314 344Q247 344 207 302Q167 260 167 198Q167 140 203 106Q236 75 290 75Q326 75 358 90Q390 108 406 126L393 16Q349-13 268-13Q179-13 125 41Q66 98 66 194Q66 297 136 367Q202 432 308 432Q383 432 439 396M398 675L482 629L309 485L259 519L398 675Z"  horiz-adv-x="422" vert-adv-y="1000"  />

      
      <glyph glyph-name="uni0108" unicode="&#x0108;" d="M653 631L639 511Q565 585 456 585Q346 585 275 517Q237 481 214 424Q191 367 191 301Q191 206 249 144Q307 81 406 81Q505 81 595 158L581 37Q489-13 397-13Q261-13 178 70Q89 159 89 301Q89 469 199 577Q304 679 463 679Q556 679 653 631M473 812L364 730L302 786L483 920L632 786L562 730L473 812Z"  horiz-adv-x="622" vert-adv-y="1000"  />

      
      <glyph glyph-name="uni0109" unicode="&#x0109;" d="M439 396L426 290Q401 315 376 328Q345 344 314 344Q247 344 207 302Q167 260 167 198Q167 140 203 106Q236 75 290 75Q326 75 358 90Q390 108 406 126L393 16Q349-13 268-13Q179-13 125 41Q66 98 66 194Q66 297 136 367Q202 432 308 432Q383 432 439 396M332 571L234 485L172 537L343 675L480 537L410 485L332 571Z"  horiz-adv-x="422" vert-adv-y="1000"  />

      
      <glyph glyph-name="uni010A" unicode="&#x010A;" d="M653 631L639 511Q565 585 456 585Q346 585 275 517Q237 481 214 424Q191 367 191 301Q191 206 249 144Q307 81 406 81Q505 81 595 158L581 37Q489-13 397-13Q261-13 178 70Q89 159 89 301Q89 469 199 577Q304 679 463 679Q556 679 653 631M416 794Q416 825 438 847Q459 868 489 868Q517 868 535 850Q551 832 551 809Q551 778 531 756Q511 734 476 734Q450 734 434 750Q416 766 416 794Z"  horiz-adv-x="622" vert-adv-y="1000"  />

      
      <glyph glyph-name="uni010B" unicode="&#x010B;" d="M439 396L426 290Q401 315 376 328Q345 344 314 344Q247 344 207 302Q167 260 167 198Q167 140 203 106Q236 75 290 75Q326 75 358 90Q390 108 406 126L393 16Q349-13 268-13Q179-13 125 41Q66 98 66 194Q66 297 136 367Q202 432 308 432Q383 432 439 396M267 542Q267 574 289 596Q308 615 337 615Q363 615 379 600Q398 583 398 555Q398 526 376 504Q357 485 327 485Q301 485 285 500Q267 516 267 542Z"  horiz-adv-x="422" vert-adv-y="1000"  />

      
      <glyph glyph-name="uni010C" unicode="&#x010C;" d="M653 631L639 511Q565 585 456 585Q346 585 275 517Q237 481 214 424Q191 367 191 301Q191 206 249 144Q307 81 406 81Q505 81 595 158L581 37Q489-13 397-13Q261-13 178 70Q89 159 89 301Q89 469 199 577Q304 679 463 679Q556 679 653 631M481 838L590 920L651 864L470 730L321 864L392 920L481 838Z"  horiz-adv-x="622" vert-adv-y="1000"  />

      
      <glyph glyph-name="uni010D" unicode="&#x010D;" d="M439 396L426 290Q401 315 376 328Q345 344 314 344Q247 344 207 302Q167 260 167 198Q167 140 203 106Q236 75 290 75Q326 75 358 90Q390 108 406 126L393 16Q349-13 268-13Q179-13 125 41Q66 98 66 194Q66 297 136 367Q202 432 308 432Q383 432 439 396M324 589L423 675L485 623L315 485L177 623L247 675L324 589Z"  horiz-adv-x="422" vert-adv-y="1000"  />

      
      <glyph glyph-name="uni010E" unicode="&#x010E;" d="M162 667L302 667Q471 667 558 584Q639 508 639 366Q639 200 545 106Q481 42 395 21Q309 0 204 0L182 0L80 0L162 667M252 571L194 96L238 96Q409 96 481 181Q537 246 537 352Q537 455 482 512Q424 571 296 571L252 571M361 838L470 920L531 864L350 730L201 864L272 920L361 838Z"  horiz-adv-x="646" vert-adv-y="1000"  />

      
      <glyph glyph-name="uni010F" unicode="&#x010F;" d="M418 372L462 729L560 729L470 0L372 0L377 44Q353 16 323 2Q293-13 251-13Q174-13 126 35Q66 95 66 193Q66 245 86.50 296Q107 347 143 380Q200 432 287 432Q334 432 368 415Q396 402 418 372M296 344Q244 344 211 311Q166 267 166 197Q166 140 198 106Q226 75 274 75Q328 75 362 109Q405 152 405 225Q405 278 373 312Q342 344 296 344M559 484L673 690L759 646L625 450L559 484Z"  horiz-adv-x="660" vert-adv-y="1000"  />

      
      <glyph glyph-name="uni0110" unicode="&#x0110;" d="M130 410L162 667L302 667Q471 667 558 584Q639 508 639 366Q639 200 545 106Q481 42 395 21Q309 0 204 0L182 0L80 0L120 324L40 324L50 410L130 410M252 571L232 410L372 410L362 324L222 324L194 96L238 96Q409 96 481 181Q537 246 537 352Q537 455 482 512Q424 571 296 571L252 571Z"  horiz-adv-x="646" vert-adv-y="1000"  />

      
      <glyph glyph-name="uni0111" unicode="&#x0111;" d="M417 372L439 552L219 552L228 628L448 628L461 729L559 729L546 628L642 628L633 552L537 552L470 0L372 0L377 44Q353 16 323 2Q293-13 251-13Q174-13 126 35Q66 95 66 193Q66 245 86.50 296Q107 347 143 380Q198 432 287 432Q334 432 368 415Q398 400 417 372M296 344Q244 344 211 311Q166 267 166 197Q166 140 198 106Q226 75 274 75Q328 75 362 109Q405 152 405 225Q405 278 373 312Q342 344 296 344Z"  horiz-adv-x="531" vert-adv-y="1000"  />

      
      <glyph glyph-name="uni0112" unicode="&#x0112;" d="M530 667L518 571L252 571L232 402L490 402L478 306L220 306L194 96L460 96L448 0L80 0L162 667L530 667M170 733L180 813L540 813L530 733L170 733Z"  horiz-adv-x="500" vert-adv-y="1000"  />

      
      <glyph glyph-name="uni0113" unicode="&#x0113;" d="M377 142L454 96Q424 46 376 17Q325-13 258-13Q175-13 123 40Q66 97 66 190Q66 299 139 370Q203 432 293 432Q373 432 420 383Q472 329 472 236Q472 211 467 187L166 187Q166 135 197 102Q222 75 266 75Q303 75 333 94Q360 112 377 142M181 267L377 267Q372 304 352 325Q331 348 291 348Q251 348 220 323Q195 303 181 267M131 508L141 586L471 586L461 508L131 508Z"  horiz-adv-x="489" vert-adv-y="1000"  />

      
      <glyph glyph-name="uni0116" unicode="&#x0116;" d="M530 667L518 571L252 571L232 402L490 402L478 306L220 306L194 96L460 96L448 0L80 0L162 667L530 667M291 794Q291 825 313 847Q334 868 364 868Q392 868 410 850Q426 832 426 809Q426 778 406 756Q386 734 351 734Q325 734 309 750Q291 766 291 794Z"  horiz-adv-x="500" vert-adv-y="1000"  />

      
      <glyph glyph-name="uni0117" unicode="&#x0117;" d="M377 142L454 96Q424 46 376 17Q325-13 258-13Q175-13 123 40Q66 97 66 190Q66 299 139 370Q203 432 293 432Q373 432 420 383Q472 329 472 236Q472 211 467 187L166 187Q166 135 197 102Q222 75 266 75Q303 75 333 94Q360 112 377 142M181 267L377 267Q372 304 352 325Q331 348 291 348Q251 348 220 323Q195 303 181 267M246 542Q246 574 268 596Q287 615 316 615Q342 615 358 600Q377 583 377 555Q377 526 355 504Q336 485 306 485Q280 485 264 500Q246 516 246 542Z"  horiz-adv-x="489" vert-adv-y="1000"  />

      
      <glyph glyph-name="uni0118" unicode="&#x0118;" d="M530 667L518 571L252 571L233 412L491 412L479 316L221 316L194 96L460 96L448 0L408 0Q372-24 353-43Q330-66 330-89Q330-101 338-108Q347-115 366-115Q394-115 420-106L402-178Q366-193 332-193Q292-193 268-171Q245-150 245-116Q245-75 279-41Q302-18 330 0L80 0L162 667L530 667Z"  horiz-adv-x="500" vert-adv-y="1000"  />

      
      <glyph glyph-name="uni0119" unicode="&#x0119;" d="M385 156L462 110Q433 62 385 23Q324-28 309-45Q286-71 286-89Q286-102 297-109Q306-115 325-115Q347-115 376-106L359-170Q326-189 291-189Q255-189 230-169Q205-148 205-115Q205-83 229-54Q248-29 273-12Q184-22 123 38Q66 93 66 187Q66 301 142 374Q203 432 296 432Q377 432 423 385Q472 334 472 245Q472 237 467 187L166 187Q164 135 197 102Q224 75 268 75Q310 75 339 98Q368 120 385 156M183 267L377 267Q377 299 356 320Q332 344 291 344Q252 344 221 320Q197 300 183 267Z"  horiz-adv-x="489" vert-adv-y="1000"  />

      
      <glyph glyph-name="uni011A" unicode="&#x011A;" d="M530 667L518 571L252 571L232 402L490 402L478 306L220 306L194 96L460 96L448 0L80 0L162 667L530 667M371 838L480 920L541 864L360 730L211 864L282 920L371 838Z"  horiz-adv-x="500" vert-adv-y="1000"  />

      
      <glyph glyph-name="uni011B" unicode="&#x011B;" d="M377 142L454 96Q424 46 376 17Q325-13 258-13Q175-13 123 40Q66 97 66 190Q66 299 139 370Q203 432 293 432Q373 432 420 383Q472 329 472 236Q472 211 467 187L166 187Q166 135 197 102Q222 75 266 75Q303 75 333 94Q360 112 377 142M181 267L377 267Q372 304 352 325Q331 348 291 348Q251 348 220 323Q195 303 181 267M313 589L412 675L474 623L304 485L166 623L236 675L313 589Z"  horiz-adv-x="489" vert-adv-y="1000"  />

      
      <glyph glyph-name="uni011C" unicode="&#x011C;" d="M459 253L471 347L746 347Q733 170 636 74Q548-13 398-13Q261-13 176 76Q89 165 89 298Q89 377 119 449.50Q149 522 202 574Q309 679 475 679Q568 679 637 638Q699 600 742 541L660 480Q627 525 587 551Q533 585 465 585Q349 585 274 510Q192 429 192 308Q192 206 255 141Q315 81 410 81Q500 81 558 134Q610 181 625 253L459 253M497 812L388 730L326 786L507 920L656 786L586 730L497 812Z"  horiz-adv-x="751" vert-adv-y="1000"  />

      
      <glyph glyph-name="uni011D" unicode="&#x011D;" d="M415 375L421 421L519 421L468 11Q453-117 406-169Q351-230 244-230Q168-230 120-190Q60-139 56-47L151-47Q153-91 178-118Q202-142 249-142Q299-142 328-113Q358-83 368-7L375 47Q333-13 253-13Q174-13 120 41Q62 99 62 191Q62 301 137 374Q196 432 291 432Q371 432 415 375M297 344Q239 344 204 307Q164 265 164 196Q164 142 195 109Q227 75 272 75Q321 75 357 111Q402 156 402 228Q402 282 370 314Q340 344 297 344M322 571L224 485L162 537L333 675L470 537L400 485L322 571Z"  horiz-adv-x="529" vert-adv-y="1000"  />

      
      <glyph glyph-name="uni011E" unicode="&#x011E;" d="M459 253L471 347L746 347Q733 170 636 74Q548-13 398-13Q261-13 176 76Q89 165 89 298Q89 377 119 449.50Q149 522 202 574Q309 679 475 679Q568 679 637 638Q699 600 742 541L660 480Q627 525 587 551Q533 585 465 585Q349 585 274 510Q192 429 192 308Q192 206 255 141Q315 81 410 81Q500 81 558 134Q610 181 625 253L459 253M589 874L671 874Q651 793 593 756Q551 730 489 730Q430 730 393 758Q339 798 331 874L413 874Q419 842 441 825Q461 810 493 810Q532 810 555 826Q578 842 589 874Z"  horiz-adv-x="751" vert-adv-y="1000"  />

      
      <glyph glyph-name="uni011F" unicode="&#x011F;" d="M415 375L421 421L519 421L468 11Q453-117 406-169Q351-230 244-230Q168-230 120-190Q60-139 56-47L151-47Q153-91 178-118Q202-142 249-142Q299-142 328-113Q358-83 368-7L375 47Q333-13 253-13Q174-13 120 41Q62 99 62 191Q62 301 137 374Q196 432 291 432Q371 432 415 375M297 344Q239 344 204 307Q164 265 164 196Q164 142 195 109Q227 75 272 75Q321 75 357 111Q402 156 402 228Q402 282 370 314Q340 344 297 344M408 638L489 638Q471 563 421 529Q384 503 324 503Q260 503 222 530Q171 567 165 638L242 638Q247 608 269 589Q288 573 321 573Q355 573 375 589Q399 607 408 638Z"  horiz-adv-x="529" vert-adv-y="1000"  />

      
      <glyph glyph-name="uni0120" unicode="&#x0120;" d="M459 253L471 347L746 347Q733 170 636 74Q548-13 398-13Q261-13 176 76Q89 165 89 298Q89 377 119 449.50Q149 522 202 574Q309 679 475 679Q568 679 637 638Q699 600 742 541L660 480Q627 525 587 551Q533 585 465 585Q349 585 274 510Q192 429 192 308Q192 206 255 141Q315 81 410 81Q500 81 558 134Q610 181 625 253L459 253M416 794Q416 825 438 847Q459 868 489 868Q517 868 535 850Q551 832 551 809Q551 778 531 756Q511 734 476 734Q450 734 434 750Q416 766 416 794Z"  horiz-adv-x="751" vert-adv-y="1000"  />

      
      <glyph glyph-name="uni0121" unicode="&#x0121;" d="M415 375L421 421L519 421L468 11Q453-117 406-169Q351-230 244-230Q168-230 120-190Q60-139 56-47L151-47Q153-91 178-118Q202-142 249-142Q299-142 328-113Q358-83 368-7L375 47Q333-13 253-13Q174-13 120 41Q62 99 62 191Q62 301 137 374Q196 432 291 432Q371 432 415 375M297 344Q239 344 204 307Q164 265 164 196Q164 142 195 109Q227 75 272 75Q321 75 357 111Q402 156 402 228Q402 282 370 314Q340 344 297 344M238 542Q238 574 260 596Q279 615 308 615Q334 615 350 600Q369 583 369 555Q369 526 347 504Q328 485 298 485Q272 485 256 500Q238 516 238 542Z"  horiz-adv-x="529" vert-adv-y="1000"  />

      
      <glyph glyph-name="uni0122" unicode="&#x0122;" d="M459 253L471 347L746 347Q733 170 636 74Q548-13 398-13Q261-13 176 76Q89 165 89 298Q89 377 119 449.50Q149 522 202 574Q309 679 475 679Q568 679 637 638Q699 600 742 541L660 480Q627 525 587 551Q533 585 465 585Q349 585 274 510Q192 429 192 308Q192 206 255 141Q315 81 410 81Q500 81 558 134Q610 181 625 253L459 253M250-274L354-50L444-84L317-300L250-274Z"  horiz-adv-x="751" vert-adv-y="1000"  />

      
      <glyph glyph-name="uni0123" unicode="&#x0123;" d="M415 375L421 421L519 421L468 11Q453-117 406-169Q351-230 244-230Q168-230 120-190Q60-139 56-47L151-47Q153-91 178-118Q202-142 249-142Q299-142 328-113Q358-83 368-7L375 47Q333-13 253-13Q174-13 120 41Q62 99 62 191Q62 301 137 374Q196 432 291 432Q371 432 415 375M297 344Q239 344 204 307Q164 265 164 196Q164 142 195 109Q227 75 272 75Q321 75 357 111Q402 156 402 228Q402 282 370 314Q340 344 297 344M430 665L334 479L248 521L364 699L430 665Z"  horiz-adv-x="529" vert-adv-y="1000"  />

      
      <glyph glyph-name="uni0124" unicode="&#x0124;" d="M264 667L232 403L518 403L550 667L652 667L570 0L468 0L506 307L220 307L182 0L80 0L162 667L264 667M423 812L314 730L252 786L433 920L582 786L512 730L423 812Z"  horiz-adv-x="650" vert-adv-y="1000"  />

      
      <glyph glyph-name="uni0125" unicode="&#x0125;" d="M62 0L152 729L250 729L207 385Q223 403 249 416Q281 432 321 432Q385 432 421 396Q459 358 459 294Q459 276 450 207L424 0L326 0L353 217Q358 254 358 273Q358 309 339 327Q321 344 289 344Q249 344 226 321Q196 292 185 203L160 0L62 0M209 821L111 735L49 787L220 925L357 787L287 735L209 821Z"  horiz-adv-x="486" vert-adv-y="1000"  />

      
      <glyph glyph-name="uni0126" unicode="&#x0126;" d="M264 667L257 614L543 614L550 667L652 667L645 614L705 614L695 530L635 530L570 0L468 0L506 307L220 307L182 0L80 0L145 530L85 530L95 614L155 614L162 667L264 667M533 530L247 530L231 403L517 403L533 530Z"  horiz-adv-x="650" vert-adv-y="1000"  />

      
      <glyph glyph-name="uni0127" unicode="&#x0127;" d="M62 0L130 552L34 552L43 628L140 628L152 729L250 729L237 628L437 628L428 552L228 552L207 385Q223 403 249 416Q281 432 321 432Q385 432 421 396Q459 358 459 294Q459 276 450 207L424 0L326 0L353 217Q358 254 358 273Q358 309 339 327Q321 344 289 344Q249 344 226 321Q196 292 185 203L160 0L62 0Z"  horiz-adv-x="486" vert-adv-y="1000"  />

      
      <glyph glyph-name="uni012A" unicode="&#x012A;" d="M162 667L264 667L182 0L80 0L162 667M80 733L90 813L372 813L362 733L80 733Z"  horiz-adv-x="262" vert-adv-y="1000"  />

      
      <glyph glyph-name="uni012B" unicode="&#x012B;" d="M115 421L213 421L161 0L63 0L115 421M51 508L60 586L302 586L293 508L51 508Z"  horiz-adv-x="223" vert-adv-y="1000"  />

      
      <glyph glyph-name="uni012E" unicode="&#x012E;" d="M162 667L264 667L182 0Q144-26 127-43Q104-66 104-89Q104-101 112-108Q121-115 140-115Q168-115 194-106L176-178Q144-193 104-193Q65-193 42-171Q19-150 19-116Q19-75 53-41Q76-18 104 0L80 0L162 667Z"  horiz-adv-x="262" vert-adv-y="1000"  />

      
      <glyph glyph-name="uni012F" unicode="&#x012F;" d="M114 421L212 421L160 0Q124-28 108-45Q85-71 85-89Q85-103 96-109Q105-115 124-115Q146-115 175-106L158-170Q125-189 90-189Q54-189 29-169Q4-148 4-115Q4-76 39-41Q58-21 87 0L62 0L114 421M120 585Q120 616 141 637Q162 658 192 658Q217 658 232 643Q248 627 248 605Q248 576 228 554Q208 532 175 532Q151 532 136 547Q120 561 120 585Z"  horiz-adv-x="223" vert-adv-y="1000"  />

      
      <glyph glyph-name="uni0130" unicode="&#x0130;" d="M162 667L264 667L182 0L80 0L162 667M163 794Q163 825 185 847Q206 868 236 868Q264 868 282 850Q298 832 298 809Q298 778 278 756Q258 734 223 734Q197 734 181 750Q163 766 163 794Z"  horiz-adv-x="262" vert-adv-y="1000"  />

      
      <glyph glyph-name="uni0131" unicode="&#x0131;" d="M115 421L213 421L161 0L63 0L115 421Z"  horiz-adv-x="223" vert-adv-y="1000"  />

      
      <glyph glyph-name="uni0134" unicode="&#x0134;" d="M259 667L361 667L308 235Q302 184 297.50 157.50Q293 131 277.50 93Q262 55 238 32Q192-13 106-13Q33-13-15 23L42 107Q67 83 106 83Q141 83 165 105Q193 131 206 235L259 667M318 812L209 730L147 786L328 920L477 786L407 730L318 812Z"  horiz-adv-x="359" vert-adv-y="1000"  />

      
      <glyph glyph-name="uni0135" unicode="&#x0135;" d="M115 421L213 421L133-229L35-229L115 421M182 571L84 485L24 537L195 675L332 537L260 485L182 571Z"  horiz-adv-x="223" vert-adv-y="1000"  />

      
      <glyph glyph-name="uni0136" unicode="&#x0136;" d="M264 667L231 409L519 667L656 667L316 365L574 0L440 0L238 296L216 276L182 0L80 0L162 667L264 667M166-274L270-50L360-84L233-300L166-274Z"  horiz-adv-x="586" vert-adv-y="1000"  />

      
      <glyph glyph-name="uni0137" unicode="&#x0137;" d="M152 729L250 729L194 280L349 421L479 421L274 245L438 0L316 0L200 180L180 162L160 0L62 0L152 729M108-236L204-50L290-92L174-270L108-236Z"  horiz-adv-x="442" vert-adv-y="1000"  />

      
      <glyph glyph-name="uni0139" unicode="&#x0139;" d="M162 667L264 667L194 96L390 96L378 0L181 0L80 0L162 667M243 727L200 767L355 906L434 846L243 727Z"  horiz-adv-x="394" vert-adv-y="1000"  />

      
      <glyph glyph-name="uni013A" unicode="&#x013A;" d="M152 729L250 729L160 0L62 0L152 729M258 955L342 909L169 765L119 799L258 955Z"  horiz-adv-x="222" vert-adv-y="1000"  />

      
      <glyph glyph-name="uni013B" unicode="&#x013B;" d="M162 667L264 667L194 96L390 96L378 0L181 0L80 0L162 667M86-274L190-50L280-84L153-300L86-274Z"  horiz-adv-x="394" vert-adv-y="1000"  />

      
      <glyph glyph-name="uni013C" unicode="&#x013C;" d="M152 729L250 729L160 0L62 0L152 729M-1-236L95-50L181-92L65-270L-1-236Z"  horiz-adv-x="222" vert-adv-y="1000"  />

      
      <glyph glyph-name="uni013D" unicode="&#x013D;" d="M162 667L264 667L194 96L390 96L378 0L181 0L80 0L162 667M280 474L394 680L480 636L346 440L280 474Z"  horiz-adv-x="394" vert-adv-y="1000"  />

      
      <glyph glyph-name="uni013E" unicode="&#x013E;" d="M152 729L250 729L160 0L62 0L152 729M250 484L364 690L450 646L316 450L250 484Z"  horiz-adv-x="350" vert-adv-y="1000"  />

      
      <glyph glyph-name="uni013F" unicode="&#x013F;" d="M162 667L264 667L194 96L390 96L378 0L181 0L80 0L162 667M295 327Q295 358 317 380Q338 401 368 401Q396 401 414 383Q430 365 430 342Q430 311 410 289Q390 267 355 267Q329 267 313 283Q295 299 295 327Z"  horiz-adv-x="397" vert-adv-y="1000"  />

      
      <glyph glyph-name="uni0140" unicode="&#x0140;" d="M152 729L250 729L160 0L62 0L152 729M272 355Q272 387 294 409Q313 428 342 428Q368 428 384 413Q403 396 403 368Q403 339 381 317Q362 298 332 298Q306 298 290 313Q272 329 272 355Z"  horiz-adv-x="373" vert-adv-y="1000"  />

      
      <glyph glyph-name="uni0141" unicode="&#x0141;" d="M162 667L264 667L233 416L363 493L352 409L223 332L194 96L390 96L378 0L181 0L80 0L115 287L29 236L39 320L126 371L162 667Z"  horiz-adv-x="394" vert-adv-y="1000"  />

      
      <glyph glyph-name="uni0142" unicode="&#x0142;" d="M152 729L250 729L223 514L291 562L281 482L213 434L160 0L62 0L108 374L40 326L50 406L118 454L152 729Z"  horiz-adv-x="222" vert-adv-y="1000"  />

      
      <glyph glyph-name="uni0143" unicode="&#x0143;" d="M182 0L80 0L167 712L589 205L646 667L748 667L661-41L239 466L182 0M446 727L403 767L558 906L637 846L446 727Z"  horiz-adv-x="746" vert-adv-y="1000"  />

      
      <glyph glyph-name="uni0144" unicode="&#x0144;" d="M61 0L113 421L211 421L206 383Q222 403 248 416Q281 432 320 432Q384 432 420 396Q458 358 458 296Q458 278 449 207L423 0L325 0L352 217Q357 254 357 273Q357 309 338 327Q320 344 288 344Q248 344 225 321Q195 292 184 203L159 0L61 0M401 675L485 629L312 485L262 519L401 675Z"  horiz-adv-x="485" vert-adv-y="1000"  />

      
      <glyph glyph-name="uni0145" unicode="&#x0145;" d="M182 0L80 0L167 712L589 205L646 667L748 667L661-41L239 466L182 0M246-274L350-50L440-84L313-300L246-274Z"  horiz-adv-x="746" vert-adv-y="1000"  />

      
      <glyph glyph-name="uni0146" unicode="&#x0146;" d="M61 0L113 421L211 421L206 383Q222 403 248 416Q281 432 320 432Q384 432 420 396Q458 358 458 296Q458 278 449 207L423 0L325 0L352 217Q357 254 357 273Q357 309 338 327Q320 344 288 344Q248 344 225 321Q195 292 184 203L159 0L61 0M118-236L214-50L300-92L184-270L118-236Z"  horiz-adv-x="485" vert-adv-y="1000"  />

      
      <glyph glyph-name="uni0147" unicode="&#x0147;" d="M182 0L80 0L167 712L589 205L646 667L748 667L661-41L239 466L182 0M474 838L583 920L644 864L463 730L314 864L385 920L474 838Z"  horiz-adv-x="746" vert-adv-y="1000"  />

      
      <glyph glyph-name="uni0148" unicode="&#x0148;" d="M61 0L113 421L211 421L206 383Q222 403 248 416Q281 432 320 432Q384 432 420 396Q458 358 458 296Q458 278 449 207L423 0L325 0L352 217Q357 254 357 273Q357 309 338 327Q320 344 288 344Q248 344 225 321Q195 292 184 203L159 0L61 0M329 589L428 675L490 623L320 485L182 623L252 675L329 589Z"  horiz-adv-x="485" vert-adv-y="1000"  />

      
      <glyph glyph-name="uni014C" unicode="&#x014C;" d="M478 679Q616 679 703 592Q789 507 789 366Q789 197 684 90Q582-13 409-13Q261-13 178 73Q89 164 89 300Q89 379 118 451.50Q147 524 198 574Q303 679 478 679M410 81Q534 81 606 153Q644 190 665.50 245.50Q687 301 687 360Q687 455 627 517Q561 585 458 585Q348 585 273 511Q190 430 190 307Q190 209 252 145Q312 81 410 81M305 733L315 813L675 813L665 733L305 733Z"  horiz-adv-x="796" vert-adv-y="1000"  />

      
      <glyph glyph-name="uni014D" unicode="&#x014D;" d="M313 432Q407 432 463 376Q520 317 520 230Q520 123 447 52Q379-13 274-13Q180-13 124 44Q66 104 66 191Q66 297 139 367Q207 432 313 432M197 112Q231 75 287 75Q343 75 380 115Q420 158 420 224Q420 278 387 312Q356 344 307 344Q249 344 212 309Q166 266 166 199Q166 148 197 112M152 508L162 586L492 586L482 508L152 508Z"  horiz-adv-x="534" vert-adv-y="1000"  />

      
      <glyph glyph-name="uni014E" unicode="&#x014E;" d="M478 679Q616 679 703 592Q789 507 789 366Q789 197 684 90Q582-13 409-13Q261-13 178 73Q89 164 89 300Q89 379 118 451.50Q147 524 198 574Q303 679 478 679M410 81Q534 81 606 153Q644 190 665.50 245.50Q687 301 687 360Q687 455 627 517Q561 585 458 585Q348 585 273 511Q190 430 190 307Q190 209 252 145Q312 81 410 81M575 874L657 874Q637 793 579 756Q537 730 475 730Q416 730 379 758Q325 798 317 874L399 874Q405 842 427 825Q447 810 479 810Q518 810 541 826Q564 842 575 874Z"  horiz-adv-x="796" vert-adv-y="1000"  />

      
      <glyph glyph-name="uni014F" unicode="&#x014F;" d="M313 432Q407 432 463 376Q520 317 520 230Q520 123 447 52Q379-13 274-13Q180-13 124 44Q66 104 66 191Q66 297 139 367Q207 432 313 432M197 112Q231 75 287 75Q343 75 380 115Q420 158 420 224Q420 278 387 312Q356 344 307 344Q249 344 212 309Q166 266 166 199Q166 148 197 112M408 638L489 638Q471 563 421 529Q384 503 324 503Q260 503 222 530Q171 567 165 638L242 638Q247 608 269 589Q288 573 321 573Q355 573 375 589Q399 607 408 638Z"  horiz-adv-x="534" vert-adv-y="1000"  />

      
      <glyph glyph-name="uni0150" unicode="&#x0150;" d="M478 679Q616 679 703 592Q789 507 789 366Q789 197 684 90Q582-13 409-13Q261-13 178 73Q89 164 89 300Q89 379 118 451.50Q147 524 198 574Q303 679 478 679M410 81Q534 81 606 153Q644 190 665.50 245.50Q687 301 687 360Q687 455 627 517Q561 585 458 585Q348 585 273 511Q190 430 190 307Q190 209 252 145Q312 81 410 81M473 906L545 854L373 727L334 763L473 906M673 906L745 854L573 727L534 763L673 906Z"  horiz-adv-x="796" vert-adv-y="1000"  />

      
      <glyph glyph-name="uni0151" unicode="&#x0151;" d="M313 432Q407 432 463 376Q520 317 520 230Q520 123 447 52Q379-13 274-13Q180-13 124 44Q66 104 66 191Q66 297 139 367Q207 432 313 432M197 112Q231 75 287 75Q343 75 380 115Q420 158 420 224Q420 278 387 312Q356 344 307 344Q249 344 212 309Q166 266 166 199Q166 148 197 112M305 675L381 629L218 485L180 519L305 675M485 675L561 629L398 485L360 519L485 675Z"  horiz-adv-x="534" vert-adv-y="1000"  />

      
      <glyph glyph-name="uni0152" unicode="&#x0152;" d="M1091 667L1079 571L813 571L794 412L1052 412L1040 316L782 316L755 96L1021 96L1009 0L747 0L641 0L651 81Q606 36 557 14Q498-13 416-13Q344-13 286 4.50Q228 22 178 73Q89 164 89 300Q89 379 118 451.50Q147 524 198 574Q305 679 474 679Q553 679 620 644Q677 615 710 564L723 667L1091 667M413 81Q531 81 605 153Q643 190 664.50 245.50Q686 301 686 360Q686 455 626 517Q560 585 457 585Q349 585 275 511Q192 430 192 307Q192 209 254 145Q314 81 413 81Z"  horiz-adv-x="1061" vert-adv-y="1000"  />

      
      <glyph glyph-name="uni0153" unicode="&#x0153;" d="M733 142L810 96Q780 46 732 17Q681-13 612-13Q554-13 511 12Q476 33 453 70Q426 35 382 11Q332-13 272-13Q180-13 124 44Q66 102 66 191Q66 299 137 367Q204 432 313 432Q372 432 416 410Q457 390 482 354Q508 388 548 410Q590 432 649 432Q729 432 776 383Q828 328 828 236Q828 211 823 187L522 187Q522 135 553 102Q578 75 622 75Q659 75 689 94Q716 112 733 142M287 75Q343 75 380 115Q420 159 420 224Q420 278 387 312Q355 344 305 344Q250 344 213 309Q167 266 167 199Q167 148 198 112Q232 75 287 75M537 267L733 267Q730 305 703 329Q680 348 647 348Q604 348 576 323Q551 303 537 267Z"  horiz-adv-x="845" vert-adv-y="1000"  />

      
      <glyph glyph-name="uni0154" unicode="&#x0154;" d="M162 667L281 667Q396 667 449 626Q513 578 513 485Q513 395 455 341Q409 298 341 285L514 0L391 0L234 273L216 273L182 0L80 0L162 667M252 573L226 361L258 361Q334 361 374 393Q415 425 415 479Q415 529 378 554Q350 573 287 573L252 573M323 727L280 767L435 906L514 846L323 727Z"  horiz-adv-x="534" vert-adv-y="1000"  />

      
      <glyph glyph-name="uni0155" unicode="&#x0155;" d="M62 0L114 421L212 421L207 383Q226 406 252 419Q278 432 316 432Q355 432 388 412L340 323Q317 338 288 338Q248 338 223 313Q197 286 187 218L160 0L62 0M368 675L452 629L279 485L229 519L368 675Z"  horiz-adv-x="332" vert-adv-y="1000"  />

      
      <glyph glyph-name="uni0156" unicode="&#x0156;" d="M162 667L281 667Q396 667 449 626Q513 578 513 485Q513 395 455 341Q409 298 341 285L514 0L391 0L234 273L216 273L182 0L80 0L162 667M252 573L226 361L258 361Q334 361 374 393Q415 425 415 479Q415 529 378 554Q350 573 287 573L252 573M136-274L240-50L330-84L203-300L136-274Z"  horiz-adv-x="534" vert-adv-y="1000"  />

      
      <glyph glyph-name="uni0157" unicode="&#x0157;" d="M62 0L114 421L212 421L207 383Q226 406 252 419Q278 432 316 432Q355 432 388 412L340 323Q317 338 288 338Q248 338 223 313Q197 286 187 218L160 0L62 0M58-236L154-50L240-92L124-270L58-236Z"  horiz-adv-x="332" vert-adv-y="1000"  />

      
      <glyph glyph-name="uni0158" unicode="&#x0158;" d="M162 667L281 667Q396 667 449 626Q513 578 513 485Q513 395 455 341Q409 298 341 285L514 0L391 0L234 273L216 273L182 0L80 0L162 667M252 573L226 361L258 361Q334 361 374 393Q415 425 415 479Q415 529 378 554Q350 573 287 573L252 573M341 838L450 920L511 864L330 730L181 864L252 920L341 838Z"  horiz-adv-x="534" vert-adv-y="1000"  />

      
      <glyph glyph-name="uni0159" unicode="&#x0159;" d="M62 0L114 421L212 421L207 383Q226 406 252 419Q278 432 316 432Q355 432 388 412L340 323Q317 338 288 338Q248 338 223 313Q197 286 187 218L160 0L62 0M273 589L372 675L434 623L264 485L126 623L196 675L273 589Z"  horiz-adv-x="332" vert-adv-y="1000"  />

      
      <glyph glyph-name="uni015A" unicode="&#x015A;" d="M520 567L432 519Q424 549 402 566Q376 585 336 585Q288 585 260 559Q232 534 232 499Q232 470 256 448Q263 441 272 435.50Q281 430 286.50 427.50Q292 425 304 420Q316 415 321 413L375 389Q430 365 459 328Q494 285 494 219Q494 119 433 54Q368-13 259-13Q173-13 125 34Q66 91 63 184L166 206Q164 150 189 116Q216 81 274 81Q322 81 353 109Q391 143 391 207Q391 242 365 270Q346 290 297 312L246 335Q194 359 167 388Q130 430 130 486Q130 559 183 615Q244 679 342 679Q410 679 457 648Q502 618 520 567M331 727L288 767L443 906L522 846L331 727Z"  horiz-adv-x="516" vert-adv-y="1000"  />

      
      <glyph glyph-name="uni015B" unicode="&#x015B;" d="M354 358L278 310Q271 326 258 336Q245 346 228 346Q206 346 194 334Q185 325 185 312Q185 297 197 288Q201 284 238 266L266 252Q300 235 319 216Q351 182 351 129Q351 67 309 27Q266-13 191-13Q133-13 97 14Q60 42 45 91L130 129Q137 103 153 88Q170 73 194 73Q218 73 233 86Q249 99 249 123Q249 144 235 158Q227 166 195 182L168 196Q133 215 120 228Q91 255 91 301Q91 356 129 394Q167 432 233 432Q275 432 306 412Q334 393 354 358M338 675L422 629L249 485L199 519L338 675Z"  horiz-adv-x="364" vert-adv-y="1000"  />

      
      <glyph glyph-name="uni015C" unicode="&#x015C;" d="M520 567L432 519Q424 549 402 566Q376 585 336 585Q288 585 260 559Q232 534 232 499Q232 470 256 448Q263 441 272 435.50Q281 430 286.50 427.50Q292 425 304 420Q316 415 321 413L375 389Q430 365 459 328Q494 285 494 219Q494 119 433 54Q368-13 259-13Q173-13 125 34Q66 91 63 184L166 206Q164 150 189 116Q216 81 274 81Q322 81 353 109Q391 143 391 207Q391 242 365 270Q346 290 297 312L246 335Q194 359 167 388Q130 430 130 486Q130 559 183 615Q244 679 342 679Q410 679 457 648Q502 618 520 567M363 812L254 730L192 786L373 920L522 786L452 730L363 812Z"  horiz-adv-x="516" vert-adv-y="1000"  />

      
      <glyph glyph-name="uni015D" unicode="&#x015D;" d="M354 358L278 310Q271 326 258 336Q245 346 228 346Q206 346 194 334Q185 325 185 312Q185 297 197 288Q201 284 238 266L266 252Q300 235 319 216Q351 182 351 129Q351 67 309 27Q266-13 191-13Q133-13 97 14Q60 42 45 91L130 129Q137 103 153 88Q170 73 194 73Q218 73 233 86Q249 99 249 123Q249 144 235 158Q227 166 195 182L168 196Q133 215 120 228Q91 255 91 301Q91 356 129 394Q167 432 233 432Q275 432 306 412Q334 393 354 358M252 571L154 485L92 537L263 675L400 537L330 485L252 571Z"  horiz-adv-x="364" vert-adv-y="1000"  />

      
      <glyph glyph-name="uni015E" unicode="&#x015E;" d="M520 567L432 519Q424 549 402 566Q376 585 336 585Q288 585 260 559Q232 534 232 499Q232 470 256 448Q263 441 272 435.50Q281 430 286.50 427.50Q292 425 304 420Q316 415 321 413L375 389Q430 365 459 328Q494 285 494 219Q494 119 433 54Q368-13 259-13Q173-13 125 34Q66 91 63 184L166 206Q164 150 189 116Q216 81 274 81Q322 81 353 109Q391 143 391 207Q391 242 365 270Q346 290 297 312L246 335Q194 359 167 388Q130 430 130 486Q130 559 183 615Q244 679 342 679Q410 679 457 648Q502 618 520 567M233-53L315-91L186-224L126-192L233-53Z"  horiz-adv-x="516" vert-adv-y="1000"  />

      
      <glyph glyph-name="uni015F" unicode="&#x015F;" d="M354 358L278 310Q271 326 258 336Q245 346 228 346Q206 346 194 334Q185 325 185 312Q185 297 197 288Q201 284 238 266L266 252Q300 235 319 216Q351 182 351 129Q351 67 309 27Q266-13 191-13Q133-13 97 14Q60 42 45 91L130 129Q137 103 153 88Q170 73 194 73Q218 73 233 86Q249 99 249 123Q249 144 235 158Q227 166 195 182L168 196Q133 215 120 228Q91 255 91 301Q91 356 129 394Q167 432 233 432Q275 432 306 412Q334 393 354 358M161-53L240-85L121-219L61-187L161-53Z"  horiz-adv-x="364" vert-adv-y="1000"  />

      
      <glyph glyph-name="uni0160" unicode="&#x0160;" d="M520 567L432 519Q424 549 402 566Q376 585 336 585Q288 585 260 559Q232 534 232 499Q232 470 256 448Q263 441 272 435.50Q281 430 286.50 427.50Q292 425 304 420Q316 415 321 413L375 389Q430 365 459 328Q494 285 494 219Q494 119 433 54Q368-13 259-13Q173-13 125 34Q66 91 63 184L166 206Q164 150 189 116Q216 81 274 81Q322 81 353 109Q391 143 391 207Q391 242 365 270Q346 290 297 312L246 335Q194 359 167 388Q130 430 130 486Q130 559 183 615Q244 679 342 679Q410 679 457 648Q502 618 520 567M361 838L470 920L531 864L350 730L201 864L272 920L361 838Z"  horiz-adv-x="516" vert-adv-y="1000"  />

      
      </font>
</defs>
</svg>
