<?xml version="1.0" standalone="no"?>
  <!DOCTYPE svg PUBLIC "-//W3C//DTD SVG 1.1//EN" "http://www.w3.org/Graphics/SVG/1.1/DTD/svg11.dtd" >
  <svg>
  <metadata>
  Created by font-carrier
  </metadata>
  <defs>
  <font id="FuturaPT-ExtraBoldObl" horiz-adv-x="1538" vert-adv-y="1538" >
    <font-face
      
      font-family="Futura PT Extra Bold Italic"
      
      font-weight="400"
      
      font-stretch="normal"
      
      units-per-em="1000"
      
      ascent="982"
      
      descent="-300"
      
    />
      <missing-glyph />

      

      
      <glyph glyph-name="uni21" unicode="&#x21;" d="M140 667L382 667L333 262L91 262L140 667M95 180Q95 180 113.50 195.50Q132 211 188 211Q244 211 283 178.50Q322 146 322 99Q322 53 283.50 20.50Q245-12 191-12Q137-12 97.50 22Q58 56 58 103Q58 149 95 180Z"  horiz-adv-x="404" vert-adv-y="1000"  />

      
      <glyph glyph-name="uni22" unicode="&#x22;" d="M241 667L183 399L84 399L93 667L241 667M428 667L371 399L271 399L280 667L428 667Z"  horiz-adv-x="416" vert-adv-y="1000"  />

      
      <glyph glyph-name="uni23" unicode="&#x23;" d="M484 299L585 299L553 182L451 182L400 0L266 0L318 182L234 182L182 0L50 0L102 182L0 182L33 299L134 299L157 382L57 382L89 498L190 498L238 667L369 667L322 498L406 498L454 667L587 667L539 498L639 498L607 382L507 382L484 299M350 299L374 382L289 382L266 299L350 299Z"  horiz-adv-x="600" vert-adv-y="1000"  />

      
      <glyph glyph-name="uni24" unicode="&#x24;" d="M497 773L485 677Q565 669 658 628L581 451Q509 514 419 514Q337 514 337 469Q337 451 348 445Q359 439 411 429Q537 407 583 374Q651 324 651 231Q651 118 555 49Q520 24 488.50 13Q457 2 394-8L380-115L235-115L249-8Q185 1 135 20Q85 39 36 68L115 249Q159 207 208 186Q266 161 322 161Q366 161 390.50 174Q415 187 415 210Q415 229 400 239Q385 249 348 254Q232 269 174 304Q140 326 119.50 366Q99 406 99 451Q99 541 162.50 601.50Q226 662 337 677L349 773L497 773Z"  horiz-adv-x="707" vert-adv-y="1000"  />

      
      <glyph glyph-name="uni25" unicode="&#x25;" d="M267 683Q362 683 423 634.50Q484 586 484 509Q484 424 421.50 367Q359 310 266 310Q173 310 114.50 361Q56 412 56 494Q56 577 115 630Q174 683 267 683M312 507Q312 524 301.50 535.50Q291 547 277 547Q259 547 246 531.50Q233 516 233 496Q233 479 243.50 467Q254 455 268 455Q287 455 299.50 470Q312 485 312 507M720 667L840 667L370 0L249 0L720 667M812 357Q907 357 968.50 308Q1030 259 1030 182Q1030 97 966.50 40Q903-17 811-17Q718-17 659.50 34.50Q601 86 601 167Q601 250 660 303.50Q719 357 812 357M857 180Q857 198 847 209Q837 220 822 220Q804 220 791 205Q778 190 778 169Q778 153 788.50 141Q799 129 813 129Q832 129 844.50 143.50Q857 158 857 180Z"  horiz-adv-x="1059" vert-adv-y="1000"  />

      
      <glyph glyph-name="uni26" unicode="&#x26;" d="M805 220L694 145L837 0L544 0L509 42Q442 9 379-5Q328-17 286-17Q178-17 107.50 44.50Q37 106 37 199Q37 298 116 348Q155 370 220 385Q169 447 169 507Q169 591 240.50 644Q312 697 425 697Q533 697 602 645Q671 593 671 512Q671 397 515 337L566 276Q602 302 620.50 319.50Q639 337 679 385L805 220M390 503Q390 483 414 450Q465 475 465 508Q465 524 455 534.50Q445 545 430 545Q413 545 401.50 533.50Q390 522 390 503M389 179L320 257Q272 242 272 207Q272 188 288 176.50Q304 165 330 165Q355 165 389 179Z"  horiz-adv-x="869" vert-adv-y="1000"  />

      
      <glyph glyph-name="uni27" unicode="&#x27;" d="M243 667L185 399L84 399L93 667L243 667Z"  horiz-adv-x="231" vert-adv-y="1000"  />

      
      <glyph glyph-name="uni28" unicode="&#x28;" d="M318-160L127-230Q81-95 65 7Q53 87 53 158Q53 341 116 500Q140 563 167 612.50Q194 662 260 766L430 650Q339 505 301 387.50Q263 270 263 138Q263 81 272 15Q284-71 318-160Z"  horiz-adv-x="428" vert-adv-y="1000"  />

      
      <glyph glyph-name="uni29" unicode="&#x29;" d="M120 696L311 766Q357 631 373 529Q385 450 385 375Q385 195 323 36Q298-26 271.50-75Q245-124 178-230L8-114Q98 30 136.50 147Q175 264 175 394Q175 455 166 521Q154 607 120 696Z"  horiz-adv-x="428" vert-adv-y="1000"  />

      
      <glyph glyph-name="uni2a" unicode="&#x2a;" d="M253 663L349 619L353 729L473 729L449 619L556 663L579 549L468 524L531 441L426 371L380 465L313 371L224 441L307 524L202 549L253 663Z"  horiz-adv-x="710" vert-adv-y="1000"  />

      
      <glyph glyph-name="uni2b" unicode="&#x2b;" d="M47 280L47 400L199 400L199 553L329 553L329 400L480 400L480 280L329 280L329 127L199 127L199 280L47 280Z"  horiz-adv-x="500" vert-adv-y="1000"  />

      
      <glyph glyph-name="uni2c" unicode="&#x2c;" d="M75 183L308 183L121-160L-57-160L75 183Z"  horiz-adv-x="344" vert-adv-y="1000"  />

      
      <glyph glyph-name="uni2d" unicode="&#x2d;" d="M356 175L41 175L64 355L379 355L356 175Z"  horiz-adv-x="415" vert-adv-y="1000"  />

      
      <glyph glyph-name="uni2e" unicode="&#x2e;" d="M70 176Q70 176 90 193.50Q110 211 164 211Q218 211 255.50 178.50Q293 146 293 100Q293 53 254 20Q215-13 158-13Q103-13 66.50 17.50Q30 48 30 93Q30 141 70 176Z"  horiz-adv-x="355" vert-adv-y="1000"  />

      
      <glyph glyph-name="uni2f" unicode="&#x2f;" d="M-104-193L386 729L559 729L68-193L-104-193Z"  horiz-adv-x="639" vert-adv-y="1000"  />

      
      <glyph glyph-name="uni30" unicode="&#x30;" d="M373 683Q509 683 599 590Q689 497 689 357Q689 198 592 90.50Q495-17 351-17Q215-17 129 74.50Q43 166 43 310Q43 471 136.50 577Q230 683 373 683M350 183Q391 183 420 239Q449 295 449 375Q449 422 430 451Q411 480 380 480Q342 480 312.50 425Q283 370 283 298Q283 245 301 214Q319 183 350 183Z"  horiz-adv-x="707" vert-adv-y="1000"  />

      
      <glyph glyph-name="uni31" unicode="&#x31;" d="M215 667L570 667L488 0L242 0L298 461L189 453L215 667Z"  horiz-adv-x="707" vert-adv-y="1000"  />

      
      <glyph glyph-name="uni32" unicode="&#x32;" d="M551 190L640 190L617 0L3 0L334 299Q363 325 378 340.50Q393 356 408 381Q423 406 423 429Q423 459 406 474Q391 487 369 487Q336 487 318 457Q303 430 303 400L59 400Q76 526 150 600Q235 683 383 683Q520 683 596 612Q665 547 665 447Q665 351 593 282Q560 251 510 222Q471 200 415 181L418 170Q452 182 479 186Q504 190 551 190Z"  horiz-adv-x="707" vert-adv-y="1000"  />

      
      <glyph glyph-name="uni33" unicode="&#x33;" d="M84 100Q64 129 55.50 155Q47 181 41 231L287 231Q286 224 286 215Q286 187 303.50 169.50Q321 152 349 152Q379 152 400 172Q421 192 421 220Q421 246 403 263Q385 280 357 280Q344 280 334 278L351 415Q364 412 371 412Q396 412 412.50 427Q429 442 429 465Q429 487 414.50 501.50Q400 516 380 516Q334 516 328 461L96 461Q106 523 129 560Q156 603 196 629Q275 683 389 683Q508 683 585 627Q662 571 662 485Q662 433 630.50 396.50Q599 360 547 352L547 342Q597 333 626.50 294.50Q656 256 656 201Q656 103 573 43Q490-17 356-17Q265-17 194.50 13.50Q124 44 84 100Z"  horiz-adv-x="707" vert-adv-y="1000"  />

      
      <glyph glyph-name="uni34" unicode="&#x34;" d="M595 309L687 309L664 127L572 127L557 0L334 0L350 127L18 127L40 309L352 667L639 667L595 309M337 309L378 309L385 365Q392 424 425 497L415 498Q392 453 358 411L312 352Q290 326 250 295L254 288Q290 309 337 309Z"  horiz-adv-x="707" vert-adv-y="1000"  />

      
      <glyph glyph-name="uni35" unicode="&#x35;" d="M226 667L673 667L650 479L376 479L358 417Q401 429 442 429Q543 429 605 369Q660 314 660 235Q660 142 593 74Q503-17 308-17Q227-17 157-1Q103 11 50 34L100 211Q146 190 189 178Q237 165 296 165Q352 165 381 180Q416 198 416 226Q416 264 368 281Q336 293 276 293Q220 293 171 281Q135 271 114 264L226 667Z"  horiz-adv-x="707" vert-adv-y="1000"  />

      
      <glyph glyph-name="uni36" unicode="&#x36;" d="M341 667L680 667L494 519Q488 515 482 510Q476 505 473.50 502.50Q471 500 470 500Q459 492 440 482Q436 480 420 474L423 461Q446 468 467 468Q550 468 604.50 408.50Q659 349 659 259Q659 140 569 61.50Q479-17 342-17Q207-17 120 60.50Q33 138 33 258Q33 371 114 463Q146 498 186 532L341 667M343 171Q378 171 401.50 196Q425 221 425 259Q425 292 404 313Q383 334 350 334Q316 334 291.50 308.50Q267 283 267 248Q267 214 288 192.50Q309 171 343 171Z"  horiz-adv-x="707" vert-adv-y="1000"  />

      
      <glyph glyph-name="uni37" unicode="&#x37;" d="M131 667L768 667L324 0L49 0L309 372Q356 439 397 473L394 480Q369 473 353 473L321 473L107 473L131 667Z"  horiz-adv-x="707" vert-adv-y="1000"  />

      
      <glyph glyph-name="uni38" unicode="&#x38;" d="M539 338L538 330Q654 304 654 198Q654 106 569.50 44.50Q485-17 357-17Q225-17 136 47Q47 111 47 206Q47 271 86 311Q125 351 195 357L197 365Q104 392 104 485Q104 571 182.50 627Q261 683 380 683Q502 683 585.50 625Q669 567 669 482Q669 417 622 376Q593 350 539 338M384 412Q407 412 423 427.50Q439 443 439 466Q439 488 423.50 504Q408 520 385 520Q362 520 346.50 504Q331 488 331 466Q331 444 346.50 428Q362 412 384 412M302 165.50Q302 165.50 312 155.25Q322 145 351 145Q380 145 400 164.50Q420 184 420 212Q420 242 400.50 262Q381 282 352 282Q323 282 302.50 262Q282 242 282 214Q282 186 302 165.50Z"  horiz-adv-x="707" vert-adv-y="1000"  />

      
      <glyph glyph-name="uni39" unicode="&#x39;" d="M387 0L59 0L209 121Q273 171 316 190L311 201Q283 194 261 194Q176 194 118.50 255Q61 316 61 407Q61 527 153 605Q245 683 386 683Q518 683 604 606Q690 529 690 410Q690 362 673 312Q656 262 627 225Q601 193 552 148L387 0M372 324Q407 324 432.50 352Q458 380 458 417Q458 450 436.50 471.50Q415 493 382 493Q346 493 321 467.50Q296 442 296 405Q296 370 317.50 347Q339 324 372 324Z"  horiz-adv-x="707" vert-adv-y="1000"  />

      
      <glyph glyph-name="uni3a" unicode="&#x3a;" d="M103 458Q103 458 123 475.50Q143 493 197 493Q251 493 288.50 460.50Q326 428 326 382Q326 334 287 301Q248 268 191 268Q136 268 99.50 298.50Q63 329 63 375Q63 423 103 458M70 176Q70 176 90 193.50Q110 211 164 211Q218 211 255.50 178.50Q293 146 293 100Q293 53 254 20Q215-13 158-13Q103-13 66.50 17.50Q30 48 30 93Q30 141 70 176Z"  horiz-adv-x="355" vert-adv-y="1000"  />

      
      <glyph glyph-name="uni3b" unicode="&#x3b;" d="M75 183L308 183L121-160L-57-160L75 183M225 493Q279 493 316.50 460.50Q354 428 354 382Q354 334 314.50 301Q275 268 219 268Q164 268 127.50 298.50Q91 329 91 375Q91 423 130.50 458Q170 493 225 493Z"  horiz-adv-x="344" vert-adv-y="1000"  />

      
      <glyph glyph-name="uni3c" unicode="&#x3c;" d="M33 389L466 609L466 481L170 334L465 186L466 58L33 280L33 389Z"  horiz-adv-x="500" vert-adv-y="1000"  />

      
      <glyph glyph-name="uni3d" unicode="&#x3d;" d="M47 370L47 483L480 483L480 370L47 370M47 197L47 310L480 310L480 197L47 197Z"  horiz-adv-x="500" vert-adv-y="1000"  />

      
      <glyph glyph-name="uni3e" unicode="&#x3e;" d="M493 279L60 58L60 187L356 334L61 481L60 609L493 388L493 279Z"  horiz-adv-x="500" vert-adv-y="1000"  />

      
      <glyph glyph-name="uni3f" unicode="&#x3f;" d="M241 267L262 419Q283 411 306 411Q346 411 366 427Q389 445 389 475Q389 497 376 509Q362 521 344 521Q321 521 309 505Q297 491 297 461L73 461Q84 548 143 607Q217 682 349 682Q482 682 555 608Q612 550 612 467Q612 381 557 326Q490 258 336 258Q282 258 241 267M299 212Q359 212 394 176Q429 140 429 96Q429 49 389.50 18Q350-13 296-13Q237-13 201 21Q165 55 165 98Q165 141 201.50 176.50Q238 212 299 212Z"  horiz-adv-x="618" vert-adv-y="1000"  />

      
      <glyph glyph-name="uni40" unicode="&#x40;" d="M446 352Q446 378 433 393Q419 409 398 409Q368 409 343 386Q302 350 302 293Q302 268 316 252Q330 236 350 236Q376 236 400 255Q419 270 432.50 299Q446 328 446 352M488 454L499 492L588 492L529 302Q519 272 519 258Q519 246 526 240Q531 235 543 235Q558 235 573 247Q605 273 620.50 319Q636 365 636 404Q636 485 580 539Q522 594 436 594Q380 594 323.50 571Q267 548 226 509Q186 470 160.50 413Q135 356 135 296Q135 196 197 136Q261 74 374 74Q471 74 557 108L568 22Q474-12 368-12Q215-12 130 69Q43 153 43 290Q43 448 162 563Q282 678 443 678Q576 678 656 590Q721 519 721 417Q721 355 701 298Q681 241 643 205Q590 154 526 154Q486 154 463 175Q449 189 445 208Q421 180 393 164Q359 145 319 145Q268 145 234 179Q197 216 197 277Q197 369 264 439Q326 502 402 502Q434 502 456 489Q477 476 488 454Z"  horiz-adv-x="732" vert-adv-y="1000"  />

      
      <glyph glyph-name="uni41" unicode="&#x41;" d="M428 89L264 89L232 0L-28 0L280 667L556 667L680 0L433 0L428 89M365 362L320 241L412 241L402 362Q400 384 400 409Q400 429 403 462L395 462Q382 407 365 362Z"  horiz-adv-x="708" vert-adv-y="1000"  />

      
      <glyph glyph-name="uni42" unicode="&#x42;" d="M530 348L531 342Q583 331 611.50 293.50Q640 256 640 199Q640 111 576 55.50Q512 0 413 0L39 0L121 667L420 667Q576 667 624 569Q641 532 641 497Q641 438 612 399Q583 360 530 348M367 507L333 507L321 411L342 411Q381 411 399 423Q417 435 417 463Q417 507 367 507M345 271L304 271L290 156L306 156Q360 156 384 171.50Q408 187 408 225Q408 271 345 271Z"  horiz-adv-x="681" vert-adv-y="1000"  />

      
      <glyph glyph-name="uni43" unicode="&#x43;" d="M415 683Q502 683 588 652L568 415Q503 467 435 467Q375 467 331.50 423Q288 379 288 319Q288 268 325 233.50Q362 199 417 199Q488 199 548 256L519 13Q430-17 367-17Q228-17 137.50 77Q47 171 47 314Q47 473 152 578Q257 683 415 683Z"  horiz-adv-x="582" vert-adv-y="1000"  />

      
      <glyph glyph-name="uni44" unicode="&#x44;" d="M39 0L121 667L347 667Q523 667 622.50 581.50Q722 496 722 344Q722 264 690 195.50Q658 127 600 81Q545 37 478 18.50Q411 0 306 0L39 0M368 471L338 471L305 198L339 198Q399 198 441 242Q483 286 483 350Q483 402 450.50 436.50Q418 471 368 471Z"  horiz-adv-x="744" vert-adv-y="1000"  />

      
      <glyph glyph-name="uni45" unicode="&#x45;" d="M121 667L559 667L538 493L341 493L332 420L512 420L492 255L312 255L303 179L507 179L485 0L39 0L121 667Z"  horiz-adv-x="549" vert-adv-y="1000"  />

      
      <glyph glyph-name="uni46" unicode="&#x46;" d="M121 667L547 667L525 489L341 489L332 416L504 416L482 240L310 240L281 0L39 0L121 667Z"  horiz-adv-x="523" vert-adv-y="1000"  />

      
      <glyph glyph-name="uni47" unicode="&#x47;" d="M418 388L783 388L783 382Q783 190 673 81Q574-17 406-17Q327-17 264 3.50Q201 24 145 79Q47 175 47 317Q47 469 149 573Q257 684 443 684Q660 684 762 515L535 426Q507 482 446 482Q385 482 344 444Q289 392 289 307Q289 245 327 205Q362 169 421 169Q504 169 528 242L398 242L418 388Z"  horiz-adv-x="807" vert-adv-y="1000"  />

      
      <glyph glyph-name="uni48" unicode="&#x48;" d="M505 667L747 667L665 0L423 0L453 243L310 243L281 0L39 0L121 667L363 667L335 439L477 439L505 667Z"  horiz-adv-x="760" vert-adv-y="1000"  />

      
      <glyph glyph-name="uni49" unicode="&#x49;" d="M121 667L366 667L284 0L39 0L121 667Z"  horiz-adv-x="379" vert-adv-y="1000"  />

      
      <glyph glyph-name="uni4a" unicode="&#x4a;" d="M201 667L443 667L388 220Q383 182 378.50 158.50Q374 135 359.50 102.50Q345 70 322 46Q260-17 145-17Q36-17-34 35L44 251Q52 231 69 210Q85 191 108 191Q128 191 138 205Q146 218 150 251L201 667Z"  horiz-adv-x="456" vert-adv-y="1000"  />

      
      <glyph glyph-name="uni4b" unicode="&#x4b;" d="M121 667L363 667L341 494Q333 433 320 378L327 376Q347 427 369 461L392 498L498 667L780 667L520 329L690 0L435 0L350 192Q327 244 316 290L309 289L309 269Q309 230 304 192L281 0L39 0L121 667Z"  horiz-adv-x="732" vert-adv-y="1000"  />

      
      <glyph glyph-name="uni4c" unicode="&#x4c;" d="M121 667L366 667L309 201L514 207L489 0L39 0L121 667Z"  horiz-adv-x="530" vert-adv-y="1000"  />

      
      <glyph glyph-name="uni4d" unicode="&#x4d;" d="M623 667L878 667L880 0L645 0L658 197Q663 283 681 382L672 384L667 365Q646 280 613 202L528 0L376 0L350 211Q349 214 345 261Q342 298 342 321L342 334Q342 361 344 384L336 384L334 369Q324 288 306 211L257 0L12 0L206 667L462 667L488 459Q493 419 493 385Q493 347 487 312L497 312Q513 396 556 502L623 667Z"  horiz-adv-x="948" vert-adv-y="1000"  />

      
      <glyph glyph-name="uni4e" unicode="&#x4e;" d="M554 667L799 667L717 0L483 0L367 230Q333 299 314 365L310 377L302 377Q306 337 306 297Q306 256 303 230L282 0L39 0L121 667L364 667L482 416Q504 369 524 298L530 276L540 277L538 299Q533 361 533 391Q533 435 537 470L554 667Z"  horiz-adv-x="812" vert-adv-y="1000"  />

      
      <glyph glyph-name="uni4f" unicode="&#x4f;" d="M675 591Q786 500 786 339Q786 187 681.50 85Q577-17 421-17Q263-17 155.50 81Q48 179 48 324Q48 475 154.50 579Q261 683 416 683Q566 683 675 591M410 193Q467 193 504.50 233.50Q542 274 542 335Q542 388 508 425Q474 462 424 462Q369 462 330.50 421Q292 380 292 322Q292 266 325.50 229.50Q359 193 410 193Z"  horiz-adv-x="808" vert-adv-y="1000"  />

      
      <glyph glyph-name="uni50" unicode="&#x50;" d="M398 203L306 203L281 0L39 0L121 667L399 667Q526 667 591 616Q675 549 675 439Q675 392 656 346.50Q637 301 605 269Q568 234 520 218.50Q472 203 398 203M366 493L341 493L326 369L348 369Q440 369 440 440Q440 469 423.50 481Q407 493 366 493Z"  horiz-adv-x="665" vert-adv-y="1000"  />

      
      <glyph glyph-name="uni51" unicode="&#x51;" d="M720 139Q713 131 694 114L781-17L578-82L534 9Q466-17 403-17Q274-17 175 60Q49 156 49 324Q49 478 155.50 580.50Q262 683 423 683Q574 683 680 590Q738 539 764.50 478Q791 417 791 335Q791 210 720 139M373 275L543 293Q548 325 548 337Q548 387 511.50 424.50Q475 462 426 462Q370 462 331 417.50Q292 373 292 310Q292 255 326.50 217.50Q361 180 412 180Q422 180 442 183L373 275Z"  horiz-adv-x="811" vert-adv-y="1000"  />

      
      <glyph glyph-name="uni52" unicode="&#x52;" d="M607 300Q584 282 564.50 274Q545 266 508 261L653 0L391 0L331 161Q312 213 305 250L298 249Q299 227 299 200Q299 154 294 112L281 0L39 0L121 667L386 667Q467 667 512.50 655Q558 643 596 613Q674 548 674 447Q674 354 607 300M360 488L341 488L326 368L346 368Q388 368 412.50 386Q437 404 437 434Q437 488 360 488Z"  horiz-adv-x="701" vert-adv-y="1000"  />

      
      <glyph glyph-name="uni53" unicode="&#x53;" d="M556 636Q580 624 598 614L509 437Q443 497 363 497Q343 497 330 487Q317 477 317 462Q317 446 330.50 438Q344 430 390 419Q463 400 498 375Q532 353 551.50 312.50Q571 272 571 226Q571 125 486 54Q401-17 280-17Q182-17 78 31Q34 53 16 63L106 243Q136 206 181 185Q226 164 273 164Q299 164 314 174.50Q329 185 329 203Q329 236 266 250Q204 262 171 280Q75 327 75 444Q75 544 155 613.50Q235 683 349 683Q454 683 556 636Z"  horiz-adv-x="607" vert-adv-y="1000"  />

      
      <glyph glyph-name="uni54" unicode="&#x54;" d="M60 667L536 667L510 457L395 464L338 0L93 0L150 464L35 457L60 667Z"  horiz-adv-x="489" vert-adv-y="1000"  />

      
      <glyph glyph-name="uni55" unicode="&#x55;" d="M500 667L745 667L700 298Q686 191 668.50 146Q651 101 607 61Q520-17 381-17Q234-17 145 55Q70 116 70 230Q70 256 73 283L121 667L366 667L321 298Q316 258 316 249Q316 187 376 187Q410 187 428 210.50Q446 234 454 289L500 667Z"  horiz-adv-x="758" vert-adv-y="1000"  />

      
      <glyph glyph-name="uni56" unicode="&#x56;" d="M474 667L748 667L414 0L204 0L54 667L307 667L333 457Q339 410 339 358Q339 321 335 269L345 268Q359 387 397 479L474 667Z"  horiz-adv-x="694" vert-adv-y="1000"  />

      
      <glyph glyph-name="uni57" unicode="&#x57;" d="M820 667L1094 667L774 0L570 0L540 215Q532 269 532 325Q532 340 533 353L524 354L521 343Q508 278 494 243L472 183L404 0L188 0L54 667L304 667L326 408Q330 350 330 320Q330 317 328 267L338 267L341 286Q350 358 383 450L464 667L663 667L691 413Q698 349 698 293Q698 280 697 266L707 266Q714 335 721 367Q728 399 748 455L820 667Z"  horiz-adv-x="1040" vert-adv-y="1000"  />

      
      <glyph glyph-name="uni58" unicode="&#x58;" d="M765 667L512 346L712 0L451 0L400 109Q384 142 373 185L365 185Q356 154 343 133L329 109L265 0L-28 0L250 356L69 667L342 667L374 583Q391 540 394 515L400 515Q411 548 432 588L473 667L765 667Z"  horiz-adv-x="740" vert-adv-y="1000"  />

      
      <glyph glyph-name="uni59" unicode="&#x59;" d="M745 667L464 283L429 0L189 0L225 289L47 667L312 667L346 558Q356 525 359 482L368 482Q376 512 392 545L454 667L745 667Z"  horiz-adv-x="684" vert-adv-y="1000"  />

      
      <glyph glyph-name="uni5a" unicode="&#x5a;" d="M435 194L616 198L592 0L-15 0L-7 60L226 388Q253 425 267 440.50Q281 456 298 466L295 474Q262 464 208 461L55 457L81 667L663 667L655 608L408 260Q371 209 343 189L347 181Q383 192 435 194Z"  horiz-adv-x="633" vert-adv-y="1000"  />

      
      <glyph glyph-name="uni5b" unicode="&#x5b;" d="M325 646L232-110L362-110L352-193L220-193L22-193L135 729L465 729L455 646L325 646Z"  horiz-adv-x="430" vert-adv-y="1000"  />

      
      <glyph glyph-name="uni5c" unicode="&#x5c;" d="M-82-193L549 729L722 729L90-193L-82-193Z"  horiz-adv-x="740" vert-adv-y="1000"  />

      
      <glyph glyph-name="uni5d" unicode="&#x5d;" d="M115-110L208 646L78 646L88 729L418 729L305-193L105-193L-25-193L-15-110L115-110Z"  horiz-adv-x="430" vert-adv-y="1000"  />

      
      <glyph glyph-name="uni5e" unicode="&#x5e;" d="M263 549L162 330L18 330L178 667L348 667L509 330L365 330L263 549Z"  horiz-adv-x="500" vert-adv-y="1000"  />

      
      <glyph glyph-name="uni5f" unicode="&#x5f;" d="M-30-196L-30-46L470-46L470-196L-30-196Z"  horiz-adv-x="500" vert-adv-y="1000"  />

      
      <glyph glyph-name="uni60" unicode="&#x60;" d="M161 669L278 742L393 596L307 541L161 669Z"  horiz-adv-x="500" vert-adv-y="1000"  />

      
      <glyph glyph-name="uni61" unicode="&#x61;" d="M403 467L633 467L575 0L346 0Q353 30 371 83L364 86Q334 33 300 10Q266-13 220-13Q141-13 83 52Q25 117 25 205Q25 316 95.50 399.50Q166 483 259 483Q315 483 347.50 460Q380 437 400 383L408 386Q403 427 403 457L403 467M316 164Q344 164 362.50 185Q381 206 381 238Q381 264 365.50 281.50Q350 299 326 299Q299 299 279 276.50Q259 254 259 223Q259 197 275 180.50Q291 164 316 164Z"  horiz-adv-x="652" vert-adv-y="1000"  />

      
      <glyph glyph-name="uni62" unicode="&#x62;" d="M110 729L341 729L313 501Q306 446 285 389L291 385Q335 483 428 483Q507 483 560 416.50Q613 350 613 250Q613 140 548.50 63.50Q484-13 390-13Q293-13 246 81L239 79Q244 48 244 19L244 0L20 0L110 729M324 164Q350 164 367.50 185Q385 206 385 238Q385 266 369.50 283.50Q354 301 330 301Q304 301 286 280Q268 259 268 228Q268 201 284 182.50Q300 164 324 164Z"  horiz-adv-x="639" vert-adv-y="1000"  />

      
      <glyph glyph-name="uni63" unicode="&#x63;" d="M300 493Q359 493 439 467L410 271Q374 313 328 313Q295 313 275 291Q255 269 255 233Q255 201 273 182.50Q291 164 323 164Q364 164 401 197L367 5Q307-13 262-13Q158-13 92.50 52Q27 117 27 220Q27 342 102.50 417.50Q178 493 300 493Z"  horiz-adv-x="437" vert-adv-y="1000"  />

      
      <glyph glyph-name="uni64" unicode="&#x64;" d="M426 729L657 729L567 0L336 0Q346 40 359 78L351 82Q309-13 211-13Q131-13 78.50 49.50Q26 112 26 207Q26 321 91 402Q156 483 248 483Q353 483 388 381L397 383Q393 407 393 418Q393 466 400 519L426 729M311 169Q336 169 353.50 188.50Q371 208 373 239L373 244Q373 271 358 287.50Q343 304 318 304Q292 304 273.50 283Q255 262 255 231Q255 205 271.50 187Q288 169 311 169Z"  horiz-adv-x="643" vert-adv-y="1000"  />

      
      <glyph glyph-name="uni65" unicode="&#x65;" d="M587 202L256 202Q255 196 255 185Q255 156 269 139Q283 122 306 122Q340 122 356 162L578 162Q564 122 551 101Q538 80 513 58Q431-13 308-13Q183-13 105.50 54Q28 121 28 229Q28 342 110.50 418Q193 494 316 494Q432 494 511.50 423.50Q591 353 591 250Q591 244 587 202M322 360Q275 360 265 298L373 298Q372 360 322 360Z"  horiz-adv-x="618" vert-adv-y="1000"  />

      
      <glyph glyph-name="uni66" unicode="&#x66;" d="M372 288L306 294L270 0L39 0L75 294L15 288L38 471L95 461L105 542Q116 632 166 682Q224 740 331 740Q384 740 432 726L410 549Q392 557 381 557Q363 557 350 544Q336 530 331 489L327 461L394 467L372 288Z"  horiz-adv-x="382" vert-adv-y="1000"  />

      
      <glyph glyph-name="uni67" unicode="&#x67;" d="M397 467L625 467L573 46Q563-36 541.50-82Q520-128 476-161Q388-229 255-229Q149-229 42-188Q32-185 12-176L74-24Q156-74 224-74Q261-74 291-58.50Q321-43 335-17Q348 9 363 83L356 85Q334 37 303 17Q272-3 220-3Q137-3 82 60Q27 123 27 218Q27 329 93.50 406Q160 483 256 483Q359 483 394 388L401 390L399 417L398 451L397 467M312 163Q340 163 358.50 182.50Q377 202 377 232Q377 261 361.50 279.50Q346 298 322 298Q294 298 274.50 276.50Q255 255 255 225Q255 197 271 180Q287 163 312 163Z"  horiz-adv-x="644" vert-adv-y="1000"  />

      
      <glyph glyph-name="uni68" unicode="&#x68;" d="M110 729L341 729L315 518Q306 447 290 393L299 390Q352 483 447 483Q509 483 551.50 440Q594 397 594 334Q594 308 590 281L556 0L324 0L352 226Q355 246 355 257Q355 292 325 292Q303 292 292.50 276.50Q282 261 277 218L251 0L20 0L110 729Z"  horiz-adv-x="632" vert-adv-y="1000"  />

      
      <glyph glyph-name="uni69" unicode="&#x69;" d="M217 747Q269 747 307.50 714.50Q346 682 346 638Q346 591 307.50 558Q269 525 212 525Q159 525 122 556Q85 587 85 632Q85 678 124.50 712.50Q164 747 217 747M81 467L312 467L255 0L24 0L81 467Z"  horiz-adv-x="332" vert-adv-y="1000"  />

      
      <glyph glyph-name="uni6a" unicode="&#x6a;" d="M90 467L321 467L232-229L1-229L90 467M225 747Q277 747 316 714.50Q355 682 355 638Q355 591 316 558Q277 525 220 525Q167 525 130 556Q93 587 93 632Q93 678 132.50 712.50Q172 747 225 747Z"  horiz-adv-x="341" vert-adv-y="1000"  />

      
      <glyph glyph-name="uni6b" unicode="&#x6b;" d="M110 729L341 729L307 450Q298 380 278 275L285 274Q302 318 346 383L403 467L678 467L477 226L611 0L355 0L313 91Q284 154 273 205L264 204Q267 165 267 147Q267 130 265 108L251 0L20 0L110 729Z"  horiz-adv-x="650" vert-adv-y="1000"  />

      
      <glyph glyph-name="uni6c" unicode="&#x6c;" d="M110 729L341 729L251 0L20 0L110 729Z"  horiz-adv-x="327" vert-adv-y="1000"  />

      
      <glyph glyph-name="uni6d" unicode="&#x6d;" d="M77 467L302 467Q294 430 281 390L292 388Q322 440 355.50 461.50Q389 483 440 483Q544 483 560 385L568 385Q606 483 712 483Q782 483 823.50 442Q865 401 865 332Q865 309 860 267L827 0L602 0L631 236Q634 258 634 265Q634 280 626.50 290Q619 300 607 300Q587 300 578 284.50Q569 269 564 221L536 0L311 0L339 230L343 255L343 266Q343 299 317 299Q297 299 287.50 284Q278 269 273 227L245 0L20 0L77 467Z"  horiz-adv-x="903" vert-adv-y="1000"  />

      
      <glyph glyph-name="uni6e" unicode="&#x6e;" d="M77 467L309 467Q301 422 286 384L294 382Q329 438 362.50 461Q396 484 441 484Q507 484 550.50 440.50Q594 397 594 332Q594 308 589 261L557 0L325 0L353 226Q356 246 356 257Q356 292 326 292Q303 292 293 277Q283 262 278 218L251 0L20 0L77 467Z"  horiz-adv-x="633" vert-adv-y="1000"  />

      
      <glyph glyph-name="uni6f" unicode="&#x6f;" d="M320 493Q451 493 531 424.50Q611 356 611 244Q611 134 528 60.50Q445-13 321-13Q194-13 111.50 57.50Q29 128 29 236Q29 347 112 420Q195 493 320 493M318 169Q346 169 364 190.50Q382 212 382 244Q382 272 365.50 291Q349 310 324 310Q297 310 277.50 288Q258 266 258 235Q258 206 275 187.50Q292 169 318 169Z"  horiz-adv-x="637" vert-adv-y="1000"  />

      
      <glyph glyph-name="uni70" unicode="&#x70;" d="M82 467L314 467Q306 429 295 396L304 392Q332 443 361 463.50Q390 484 435 484Q512 484 566 416Q620 348 620 251Q620 145 556 66Q492-13 406-13Q293-13 260 83L252 80Q255 39 255 23Q255-7 250-54L228-229L-4-229L82 467M331 163Q358 163 375 184Q392 205 392 238Q392 266 376.50 284Q361 302 338 302Q313 302 294.50 279.50Q276 257 276 225Q276 197 291 180Q306 163 331 163Z"  horiz-adv-x="645" vert-adv-y="1000"  />

      
      <glyph glyph-name="uni71" unicode="&#x71;" d="M383 467L619 467L533-229L302-229L326-34Q334 27 358 85L349 89Q307-13 207-13Q129-13 77 50.50Q25 114 25 209Q25 320 91.50 401.50Q158 483 248 483Q346 483 385 385L394 388Q385 421 383 467M308 169Q334 169 352.50 189.50Q371 210 371 240Q371 268 356 285.50Q341 303 317 303Q290 303 272 282.50Q254 262 254 232Q254 204 269.50 186.50Q285 169 308 169Z"  horiz-adv-x="637" vert-adv-y="1000"  />

      
      <glyph glyph-name="uni72" unicode="&#x72;" d="M425 484Q435 484 454 480L426 250Q393 267 372 267Q287 267 270 137L253 0L20 0L77 467L311 467Q302 426 285 384L295 379Q327 437 356.50 460.50Q386 484 425 484Z"  horiz-adv-x="430" vert-adv-y="1000"  />

      
      <glyph glyph-name="uni73" unicode="&#x73;" d="M271 493Q362 493 469 451L412 310Q359 349 304 349Q264 349 264 325Q264 305 291 299L333 289Q385 278 415 243.50Q445 209 445 161Q445 84 380.50 35.50Q316-13 215-13Q137-13 48 21Q42 24 26 30.50Q10 37 0 41L56 182Q130 133 193 133Q230 133 230 158Q230 182 178 194Q108 210 79.50 237.50Q51 265 51 316Q51 393 113.50 443Q176 493 271 493Z"  horiz-adv-x="476" vert-adv-y="1000"  />

      
      <glyph glyph-name="uni74" unicode="&#x74;" d="M362 288L306 294L270 0L39 0L75 294L15 288L38 471L95 461L116 625L347 625L327 461L384 467L362 288Z"  horiz-adv-x="353" vert-adv-y="1000"  />

      
      <glyph glyph-name="uni75" unicode="&#x75;" d="M383 467L615 467L583 210Q575 144 558.50 108.50Q542 73 506 44Q433-13 315-13Q187-13 116.50 39Q46 91 46 186Q46 210 49 240L77 467L309 467L281 240Q277 209 277 199Q277 184 286.50 174Q296 164 311 164Q332 164 341 177.50Q350 191 354 231L383 467Z"  horiz-adv-x="633" vert-adv-y="1000"  />

      
      <glyph glyph-name="uni76" unicode="&#x76;" d="M344 467L604 467L333 0L138 0L19 467L251 467L262 329Q264 293 264 278Q264 262 261 213L270 213Q280 286 300 343L344 467Z"  horiz-adv-x="565" vert-adv-y="1000"  />

      
      <glyph glyph-name="uni77" unicode="&#x77;" d="M609 467L865 467L618 0L430 0L419 85Q410 154 410 197Q410 200 410.50 212Q411 224 411 232L403 234Q380 145 367 113L320 0L134 0L19 467L254 467L265 347Q268 320 268 291Q268 274 265 214L275 213Q282 252 289 279Q290 282 302 320L349 467L514 467L533 332Q539 283 542 216L551 216Q556 276 574 340L609 467Z"  horiz-adv-x="826" vert-adv-y="1000"  />

      
      <glyph glyph-name="uni78" unicode="&#x78;" d="M374 467L656 467L445 233L607 0L352 0L332 43Q317 75 315 102L308 103Q303 88 283 55L248 0L-30 0L187 246L32 467L295 467L311 418Q318 398 320 374L329 375Q336 398 347 418L374 467Z"  horiz-adv-x="633" vert-adv-y="1000"  />

      
      <glyph glyph-name="uni79" unicode="&#x79;" d="M381 467L630 467L267-229L19-229L107-60Q142 1 172 36L31 467L269 467L289 337Q296 294 296 262Q296 238 294 214L304 213Q319 291 338 344L381 467Z"  horiz-adv-x="591" vert-adv-y="1000"  />

      
      <glyph glyph-name="uni7a" unicode="&#x7a;" d="M62 467L523 467L519 437L375 233Q352 201 318 177L322 166Q344 177 380 177L487 177L465 0L-7 0L-3 35L136 242Q169 284 194 299L189 308Q162 293 125 293L41 293L62 467Z"  horiz-adv-x="515" vert-adv-y="1000"  />

      
      <glyph glyph-name="uni7b" unicode="&#x7b;" d="M324 420Q316 350 301 321Q286 292 246 267Q272 247 282 228Q292 209 292 176Q292 162 290 140L275 17L271-20Q270-28 270-40Q270-62 285-69.50Q300-77 344-77Q354-77 364-76L350-191L316-192L284-193L272-193Q199-193 167.50-167.50Q136-142 136-83Q136-62 140-24L159 131Q161 147 161 159Q161 207 115 217L128 327Q176 336 185 372L191 395L195 430L214 584Q224 662 263 695.50Q302 729 384 729Q386 729 390 728.50Q394 728 396 728L428 727L461 726L447 612L426 612Q376 612 360.50 602Q345 592 341 555L339 543L324 420Z"  horiz-adv-x="503" vert-adv-y="1000"  />

      
      <glyph glyph-name="uni7c" unicode="&#x7c;" d="M185-250L185 750L315 750L315-250L185-250Z"  horiz-adv-x="500" vert-adv-y="1000"  />

      
      <glyph glyph-name="uni7d" unicode="&#x7d;" d="M208 141Q214 192 229 217Q244 242 283 268Q256 287 246.50 306Q237 325 237 359Q237 374 239 394L257 543L258 555Q260 571 260 576Q260 598 245 605Q230 612 186 612L166 612L180 726L214 727L246 728Q248 728 251.50 728.50Q255 729 257 729Q330 729 362 703.50Q394 678 394 619Q394 610 392 584L370 404Q368 388 368 376Q368 327 414 318L401 208Q353 197 344 162L338 139L336 132L314-49Q304-127 265.50-160Q227-193 145-193L133-193L101-192L68-191L82-76Q92-77 103-77Q152-77 167.50-66.50Q183-56 188-20L190-8L208 141Z"  horiz-adv-x="503" vert-adv-y="1000"  />

      
      <glyph glyph-name="uni7e" unicode="&#x7e;" d="M158 256Q133 256 118.50 244Q104 232 85 195L14 242L21 259Q47 324 80.50 352.50Q114 381 165 381Q199 381 269 355Q331 332 355 332Q380 332 394.50 342.50Q409 353 427 383L500 340Q475 286 455.50 262Q436 238 406 222Q372 206 341 206Q318 206 239 234Q175 256 158 256Z"  horiz-adv-x="500" vert-adv-y="1000"  />

      
      <glyph glyph-name="unia1" unicode="&#xa1;" d="M277-230L35-230L85 175L327 175L277-230M236 226Q180 226 141 258.50Q102 291 102 338Q102 384 140.50 416.50Q179 449 233 449Q287 449 326.50 415.50Q366 382 366 335Q366 288 328.50 257Q291 226 236 226Z"  horiz-adv-x="411" vert-adv-y="1000"  />

      
      <glyph glyph-name="unia2" unicode="&#xa2;" d="M504 670L494 586Q532 583 565 567L537 374Q505 415 458 415Q426 415 405 394Q384 372 384 341Q384 312 403 295Q423 277 455 277Q498 277 534 311L500 120Q466 105 434 102L422 10L318 10L330 102Q271 114 227 155Q158 220 158 329Q158 446 235 521Q298 582 395 591L404 670L504 670Z"  horiz-adv-x="707" vert-adv-y="1000"  />

      
      <glyph glyph-name="unia3" unicode="&#xa3;" d="M474 162L600 162Q596 80 547 31Q503-13 416-13Q358-13 311 7L272 23Q233 39 218 39Q193 39 178 24Q169 15 164 0L51 0Q56 62 91 111Q123 156 175 176Q179 189 182 243L62 243L77 353L160 353Q140 406 140 458Q140 547 203 610Q275 682 391 682Q505 682 565 623Q616 572 616 487Q616 460 610 428L456 428Q459 440 459 460Q459 497 441 516Q424 533 398 533Q365 533 345 513Q323 491 323 455Q323 437 330.50 409.50Q338 382 341 353L474 353L459 243L341 243Q341 192 321 162Q329 158 345 151Q361 144 366.50 141.50Q372 139 383 134.50Q394 130 399.50 129Q405 128 412 126.50Q419 125 426 125Q448 125 459 135Q468 143 474 162Z"  horiz-adv-x="707" vert-adv-y="1000"  />

      
      <glyph glyph-name="unia4" unicode="&#xa4;" d="M109 67L39 137L142 240Q98 305 98 378Q98 450 142 515L38 619L109 690L213 586Q280 630 353 630Q423 630 490 587L593 689L663 619L561 517Q606 446 606 377Q606 306 563 241L666 138L596 67L493 170Q426 125 351 125Q281 125 211 169L109 67M488 377Q488 434 448 474Q408 514 352 514Q296 514 256 474Q216 434 216 377Q216 321 256 281Q296 241 352 241Q408 241 448 281Q488 321 488 377Z"  horiz-adv-x="667" vert-adv-y="1000"  />

      
      <glyph glyph-name="unia5" unicode="&#xa5;" d="M456 247L662 247L649 139L443 139L426 0L186 0L203 139L7 139L20 247L216 247L222 289L198 339L31 339L45 447L147 447L44 667L309 667L343 558Q352 525 356 482L364 482Q372 511 389 545L450 667L741 667L581 447L687 447L673 339L502 339L461 283L456 247Z"  horiz-adv-x="707" vert-adv-y="1000"  />

      
      <glyph glyph-name="unia6" unicode="&#xa6;" d="M185 337L185 750L315 750L315 337L185 337M185-250L185 163L315 163L315-250L185-250Z"  horiz-adv-x="500" vert-adv-y="1000"  />

      
      <glyph glyph-name="unia7" unicode="&#xa7;" d="M655 541Q655 526 654 513L484 513L484 524Q484 561 462.50 582.50Q441 604 405 604Q377 604 360 590.50Q343 577 343 554Q343 531 359.50 515Q376 499 416 485L463 469Q562 434 601 376Q630 332 630 286Q630 237 601 195.50Q572 154 522 134Q549 101 560 72Q571 43 571 3Q571-90 504-141.50Q437-193 317-193Q189-193 118.50-139Q48-85 42 18L231 18L231 11Q231-21 254-42.50Q277-64 311-64Q340-64 357-49Q374-34 374-7Q374 20 354.50 37Q335 54 288 69Q218 91 193.50 102.50Q169 114 146 136Q94 176 94 257Q94 352 200 408Q147 467 147 540Q147 628 218.50 678.50Q290 729 413 729Q532 729 593 676Q622 650 638.50 614Q655 578 655 541M432 271Q432 300 412.50 318.50Q393 337 362 337Q328 337 306.50 318.50Q285 300 285 271Q285 242 305.50 222.50Q326 203 356 203Q388 203 410 223Q432 243 432 271Z"  horiz-adv-x="707" vert-adv-y="1000"  />

      
      <glyph glyph-name="unia8" unicode="&#xa8;" d="M75 642Q75 685 105 715Q135 745 177 745Q220 745 250 715Q280 685 280 642Q280 600 250 570Q220 540 177 540Q135 540 105 570Q75 600 75 642M322 642Q322 685 352 715Q382 745 424 745Q467 745 497 715Q527 685 527 642Q527 600 497 570Q467 540 424 540Q382 540 352 570Q322 600 322 642Z"  horiz-adv-x="500" vert-adv-y="1000"  />

      
      <glyph glyph-name="unia9" unicode="&#xa9;" d="M46 334Q46 478 148 580Q250 682 395 682Q537 682 638.50 579.50Q740 477 740 333Q740 189 638.50 87Q537-15 394-15Q250-15 148 87Q46 189 46 334M660 334Q660 448 582 528.50Q504 609 394 609Q283 609 204.50 528.50Q126 448 126 333Q126 219 204.50 138Q283 57 394 57Q504 57 582 138Q660 219 660 334M526 303L523 145Q479 127 411 127Q322 127 260.50 186Q199 245 199 330Q199 418 261.50 478.50Q324 539 414 539Q468 539 519 524L523 522L526 362L516 370Q473 402 437 402Q407 402 386 382Q365 362 365 334Q365 305 386.50 285Q408 265 439 265Q479 265 516 294L526 303Z"  horiz-adv-x="760" vert-adv-y="1000"  />

      
      <glyph glyph-name="uniaa" unicode="&#xaa;" d="M249 427L245 427Q230 408 212 398Q191 386 156 386Q112 386 84 411Q48 443 48 504Q48 579 97 628Q136 667 195 667Q223 667 243 655Q260 644 270 628Q269 631 269 642L269 647L271 659L412 659L379 393L239 393L240 402Q241 411 249 427M364 267L25 267L36 359L375 359L364 267M192 520Q192 509 199 502Q207 494 223 494Q241 494 250 505Q260 515 260 531Q260 543 251 552Q242 559 229 559Q211 559 200 545Q192 534 192 520Z"  horiz-adv-x="381" vert-adv-y="1000"  />

      
      <glyph glyph-name="uniab" unicode="&#xab;" d="M276 67L180 5L36 227L228 457L313 386L171 225L276 67M487 67L391 5L247 227L439 457L524 386L382 225L487 67Z"  horiz-adv-x="544" vert-adv-y="1000"  />

      
      <glyph glyph-name="uniac" unicode="&#xac;" d="M455 0L325 0L325 150L22 150L22 267L455 267L455 0Z"  horiz-adv-x="500" vert-adv-y="1000"  />

      
      <glyph glyph-name="uniad" unicode="&#xad;" d="M356 175L41 175L64 355L379 355L356 175Z"  horiz-adv-x="415" vert-adv-y="1000"  />

      
      <glyph glyph-name="uniae" unicode="&#xae;" d="M426-22Q281-22 177.50 81Q74 184 74 331Q74 476 177 579Q280 682 426 682Q572 682 675.50 579.50Q779 477 779 331Q779 184 675.50 81Q572-22 426-22M427 610Q316 610 235 526.50Q154 443 154 330Q154 214 234.50 132Q315 50 427 50Q540 50 619.50 132Q699 214 699 330Q699 445 619 527.50Q539 610 427 610M396 158L258 158L258 511L428 511Q500 511 541 477.50Q582 444 582 386Q582 350 565.50 329Q549 308 513 294L518 288L528 280L615 158L452 158L396 260L396 158M395 409L395 357L410 357Q442 357 442 382Q442 394 434.50 401.50Q427 409 415 409L395 409Z"  horiz-adv-x="772" vert-adv-y="1000"  />

      
      <glyph glyph-name="uniaf" unicode="&#xaf;" d="M458 546L118 546L130 646L470 646L458 546Z"  horiz-adv-x="500" vert-adv-y="1000"  />

      
      <glyph glyph-name="unib0" unicode="&#xb0;" d="M286 363Q220 363 175 408Q130 453 130 516Q130 578 175 622Q221 667 283 667Q347 667 393 623Q438 580 438 516Q438 453 393 408Q348 363 286 363M234.50 563Q234.50 563 224.25 553Q214 543 214 515Q214 487 234.50 467Q255 447 284 447Q313 447 333.50 467Q354 487 354 515Q354 543 333.50 563Q313 583 284 583Q255 583 234.50 563Z"  horiz-adv-x="499" vert-adv-y="1000"  />

      
      <glyph glyph-name="unib1" unicode="&#xb1;" d="M38 357L38 477L189 477L189 630L319 630L319 477L471 477L471 357L319 357L319 203L189 203L189 357L38 357M38 50L38 170L471 170L471 50L38 50Z"  horiz-adv-x="500" vert-adv-y="1000"  />

      
      <glyph glyph-name="unib2" unicode="&#xb2;" d="M436 399L474 399L459 271L70 271L216 401Q284 460 293 469Q326 500 326 528Q326 543 318 553Q309 562 294 562Q272 562 261 545Q253 534 251 509L108 509Q113 584 167 632Q222 683 309 683Q384 683 433 646Q486 605 486 541Q486 492 451 457Q416 422 346 394L350 385Q393 399 436 399Z"  horiz-adv-x="506" vert-adv-y="1000"  />

      
      <glyph glyph-name="unib3" unicode="&#xb3;" d="M383 484L383 478Q407 469 422 453Q443 431 443 395Q443 343 407 308Q362 263 270 263Q156 263 110 306Q66 346 65 413L213 413Q213 390 221 382Q230 371 249 371Q267 371 277 382Q287 392 287 406Q287 421 277 430Q267 439 249 439Q241 439 238 438L248 521Q256 519 259 519Q275 519 283 529Q291 539 291 551Q291 565 282 574Q275 581 261 581Q249 581 241 573Q230 562 228 542L90 542Q100 602 146 644Q191 683 282 683Q361 683 403 650Q446 617 446 563Q446 529 423 506Q407 490 383 484Z"  horiz-adv-x="466" vert-adv-y="1000"  />

      
      <glyph glyph-name="unib4" unicode="&#xb4;" d="M231 596L347 742L464 669L318 541L231 596Z"  horiz-adv-x="500" vert-adv-y="1000"  />

      
      <glyph glyph-name="unib5" unicode="&#xb5;" d="M219-230L-4-230L81 467L313 467L279 189Q279 187 278.50 183Q278 179 278 176Q278 160 285 149Q296 132 320 132Q344 132 360 148Q373 161 377 191L411 467L643 467L586 0L363 0L364 9Q364 14 375 60L369 60Q360 28 344 11Q329-6 303-6Q279-6 266 12Q254 29 250 60L244 60Q247 39 247 13Q247-3 246-10L219-230Z"  horiz-adv-x="661" vert-adv-y="1000"  />

      
      <glyph glyph-name="uni03BC" unicode="&#x03BC;" d="M219-230L-4-230L81 467L313 467L279 189Q279 187 278.50 183Q278 179 278 176Q278 160 285 149Q296 132 320 132Q344 132 360 148Q373 161 377 191L411 467L643 467L586 0L363 0L364 9Q364 14 375 60L369 60Q360 28 344 11Q329-6 303-6Q279-6 266 12Q254 29 250 60L244 60Q247 39 247 13Q247-3 246-10L219-230Z"  horiz-adv-x="661" vert-adv-y="1000"  />

      
      <glyph glyph-name="unib6" unicode="&#xb6;" d="M302-95L180-95L231 314L226 314Q141 314 97 360Q58 399 58 469Q58 554 112 606Q176 667 323 667L671 667L657 557L587 557L507-95L385-95L465 557L382 557L302-95Z"  horiz-adv-x="691" vert-adv-y="1000"  />

      
      <glyph glyph-name="unib7" unicode="&#xb7;" d="M54 415Q54 415 75 433.50Q96 452 153 452Q210 452 249.50 418Q289 384 289 335Q289 285 247.50 250.50Q206 216 147 216Q89 216 50.50 248Q12 280 12 328Q12 378 54 415Z"  horiz-adv-x="275" vert-adv-y="1000"  />

      
      <glyph glyph-name="unib8" unicode="&#xb8;" d="M118-180L252-45L358-121L218-250L118-180Z"  horiz-adv-x="500" vert-adv-y="1000"  />

      
      <glyph glyph-name="unib9" unicode="&#xb9;" d="M96 674L300 674L251 274L107 274L141 550L80 546L96 674Z"  horiz-adv-x="320" vert-adv-y="1000"  />

      
      <glyph glyph-name="uniba" unicode="&#xba;" d="M260 667Q333 667 376 632Q418 598 418 541Q418 481 376 441Q323 388 222 388Q145 388 100 428Q62 463 62 512Q62 570 102 612Q155 667 260 667M41 359L401 359L389 267L28 267L41 359M206 522Q206 509 213 502Q221 494 237 494Q255 494 264 505Q274 515 274 531Q274 543 265 552Q256 559 243 559Q229 559 218 550Q206 540 206 522Z"  horiz-adv-x="396" vert-adv-y="1000"  />

      
      <glyph glyph-name="unibb" unicode="&#xbb;" d="M65 395L161 457L302 235L110 5L26 76L167 235L65 395M278 395L374 457L515 235L323 5L239 76L380 235L278 395Z"  horiz-adv-x="544" vert-adv-y="1000"  />

      
      <glyph glyph-name="unibc" unicode="&#xbc;" d="M72 667L276 667L227 267L83 267L117 543L56 539L72 667M568 667L698 667L228 0L97 0L568 667M637 186L680 186L686 237Q691 269 694 280L689 283Q664 252 657 245Q644 232 631.50 218Q619 204 613 198Q607 192 599 186L600 182Q617 186 637 186M799 81L792 0L646 0L660 81L454 76L467 182L660 400L841 400L815 186L867 191L853 77L799 81Z"  horiz-adv-x="917" vert-adv-y="1000"  />

      
      <glyph glyph-name="unibd" unicode="&#xbd;" d="M72 667L276 667L227 267L83 267L117 543L56 539L72 667M820 128L858 128L843 0L454 0L600 130Q668 189 677 198Q710 229 710 257Q710 272 702 282Q693 291 678 291Q656 291 645 274Q637 263 635 238L492 238Q497 313 551 361Q606 412 693 412Q768 412 817 375Q870 334 870 270Q870 221 835 186Q800 151 730 123L734 114Q777 128 820 128M568 667L698 667L228 0L97 0L568 667Z"  horiz-adv-x="920" vert-adv-y="1000"  />

      
      <glyph glyph-name="unibe" unicode="&#xbe;" d="M374 483L374 477Q398 468 413 452Q434 430 434 394Q434 342 398 307Q353 262 255 262Q147 262 101 305Q57 345 56 412L204 412Q204 389 212 381Q221 370 240 370Q258 370 268 381Q278 391 278 405Q278 420 268 429Q257 438 240 438Q232 438 229 437L239 520Q247 518 250 518Q266 518 274 528Q282 538 282 550Q282 564 273 573Q266 580 252 580Q240 580 232 572Q221 561 219 541L81 541Q91 601 137 643Q183 682 267 682Q350 682 394 649Q437 616 437 562Q437 528 414 505Q398 489 374 483M703 667L833 667L363 0L232 0L703 667M756 186L799 186L805 237Q810 269 813 280L808 283Q783 252 776 245Q763 232 750.50 218Q738 204 732 198Q726 192 718 186L719 182Q736 186 756 186M918 81L911 0L765 0L779 81L573 76L586 182L779 400L960 400L934 186L986 191L972 77L918 81Z"  horiz-adv-x="1036" vert-adv-y="1000"  />

      
      <glyph glyph-name="unibf" unicode="&#xbf;" d="M391 179L370 28Q346 36 322 36Q281 36 258 13Q238-7 238-37Q238-57 250-69Q262-81 284-81Q307-81 319-65Q330-50 330-24L559-24Q547-125 469-187Q398-242 273-242Q140-242 72-176Q15-121 15-30Q15 81 107 141Q175 186 305 186Q358 186 391 179M334 226Q275 226 239 260Q203 294 203 339Q203 382 239 415.50Q275 449 335 449Q395 449 431 415Q467 381 467 338Q467 294 429.50 260Q392 226 334 226Z"  horiz-adv-x="623" vert-adv-y="1000"  />

      
      <glyph glyph-name="unic0" unicode="&#xc0;" d="M428 89L264 89L232 0L-28 0L280 667L556 667L680 0L433 0L428 89M365 362L320 241L412 241L402 362Q400 384 400 409Q400 429 403 462L395 462Q382 407 365 362M280 843L397 916L523 779L437 724L280 843Z"  horiz-adv-x="708" vert-adv-y="1000"  />

      
      <glyph glyph-name="unic1" unicode="&#xc1;" d="M428 89L264 89L232 0L-28 0L280 667L556 667L680 0L433 0L428 89M365 362L320 241L412 241L402 362Q400 384 400 409Q400 429 403 462L395 462Q382 407 365 362M326 779L453 916L570 843L413 724L326 779Z"  horiz-adv-x="708" vert-adv-y="1000"  />

      
      <glyph glyph-name="unic2" unicode="&#xc2;" d="M428 89L264 89L232 0L-28 0L280 667L556 667L680 0L433 0L428 89M365 362L320 241L412 241L402 362Q400 384 400 409Q400 429 403 462L395 462Q382 407 365 362M295 716L240 817L427 918L588 803L522 716L424 786L295 716Z"  horiz-adv-x="708" vert-adv-y="1000"  />

      
      <glyph glyph-name="unic3" unicode="&#xc3;" d="M428 89L264 89L232 0L-28 0L280 667L556 667L680 0L433 0L428 89M365 362L320 241L412 241L402 362Q400 384 400 409Q400 429 403 462L395 462Q382 407 365 362M463 829Q475 829 482 834.50Q489 840 497 857L580 815Q546 764 522.50 745.50Q499 727 468 727Q449 727 410 740L376 752Q355 758 348 758Q321 758 309 727L219 755Q252 811 283.50 834Q315 857 358 857Q383 857 428 839Q454 829 463 829Z"  horiz-adv-x="708" vert-adv-y="1000"  />

      
      <glyph glyph-name="unic4" unicode="&#xc4;" d="M428 89L264 89L232 0L-28 0L280 667L556 667L680 0L433 0L428 89M365 362L320 241L412 241L402 362Q400 384 400 409Q400 429 403 462L395 462Q382 407 365 362M232 762Q232 762 217.50 776.50Q203 791 203 833Q203 875 232 904Q261 933 303 933Q345 933 374 904Q403 875 403 833Q403 791 374 762Q345 733 303 733Q261 733 232 762M479 762Q479 762 464.50 776.50Q450 791 450 833Q450 875 479 904Q508 933 550 933Q592 933 621 904Q650 875 650 833Q650 791 621 762Q592 733 550 733Q508 733 479 762Z"  horiz-adv-x="708" vert-adv-y="1000"  />

      
      <glyph glyph-name="unic5" unicode="&#xc5;" d="M428 89L264 89L232 0L-28 0L280 667L556 667L680 0L433 0L428 89M365 362L320 241L412 241L402 362Q400 384 400 409Q400 429 403 462L395 462Q382 407 365 362M564 826Q564 775 524 745Q488 717 420 717Q352 717 317 744Q276 775 276 826Q276 875 316 906Q352 934 420 934Q489 934 524 906Q564 874 564 826M420 860Q398 860 385 852Q370 842 370 824Q370 808 385 799Q398 791 420 791Q442 791 456 799Q470 807 470 826Q470 842 456 852Q443 860 420 860Z"  horiz-adv-x="708" vert-adv-y="1000"  />

      
      <glyph glyph-name="unic6" unicode="&#xc6;" d="M289 667L767 667L798 492L595 492L607 421L811 421L840 251L637 251L650 181L853 181L885 0L439 0L435 88L270 88L238 0L-21 0L289 667M375 370L327 239L420 239L408 370Q407 379 407 402Q407 427 411 459L400 461Q392 416 375 370Z"  horiz-adv-x="920" vert-adv-y="1000"  />

      
      <glyph glyph-name="unic7" unicode="&#xc7;" d="M415 683Q502 683 588 652L568 415Q503 467 435 467Q375 467 331.50 423Q288 379 288 319Q288 268 325 233.50Q362 199 417 199Q488 199 548 256L519 13Q430-17 367-17Q228-17 137.50 77Q47 171 47 314Q47 473 152 578Q257 683 415 683M198-190L350-43L466-125L308-268L198-190Z"  horiz-adv-x="582" vert-adv-y="1000"  />

      
      <glyph glyph-name="unic8" unicode="&#xc8;" d="M121 667L559 667L538 493L341 493L332 420L512 420L492 255L312 255L303 179L507 179L485 0L39 0L121 667M200 843L317 916L443 779L357 724L200 843Z"  horiz-adv-x="549" vert-adv-y="1000"  />

      
      <glyph glyph-name="unic9" unicode="&#xc9;" d="M121 667L559 667L538 493L341 493L332 420L512 420L492 255L312 255L303 179L507 179L485 0L39 0L121 667M266 779L393 916L510 843L353 724L266 779Z"  horiz-adv-x="549" vert-adv-y="1000"  />

      
      <glyph glyph-name="unica" unicode="&#xca;" d="M121 667L559 667L538 493L341 493L332 420L512 420L492 255L312 255L303 179L507 179L485 0L39 0L121 667M225 716L170 817L357 918L518 803L452 716L354 786L225 716Z"  horiz-adv-x="549" vert-adv-y="1000"  />

      
      <glyph glyph-name="unicb" unicode="&#xcb;" d="M121 667L559 667L538 493L341 493L332 420L512 420L492 255L312 255L303 179L507 179L485 0L39 0L121 667M167 762Q167 762 152.50 776.50Q138 791 138 833Q138 875 167 904Q196 933 238 933Q280 933 309 904Q338 875 338 833Q338 791 309 762Q280 733 238 733Q196 733 167 762M414 762Q414 762 399.50 776.50Q385 791 385 833Q385 875 414 904Q443 933 485 933Q527 933 556 904Q585 875 585 833Q585 791 556 762Q527 733 485 733Q443 733 414 762Z"  horiz-adv-x="549" vert-adv-y="1000"  />

      
      <glyph glyph-name="unicc" unicode="&#xcc;" d="M121 667L366 667L284 0L39 0L121 667M110 843L227 916L353 779L267 724L110 843Z"  horiz-adv-x="379" vert-adv-y="1000"  />

      
      <glyph glyph-name="unicd" unicode="&#xcd;" d="M121 667L366 667L284 0L39 0L121 667M166 779L293 916L410 843L253 724L166 779Z"  horiz-adv-x="379" vert-adv-y="1000"  />

      
      <glyph glyph-name="unice" unicode="&#xce;" d="M121 667L366 667L284 0L39 0L121 667M130 716L75 817L262 918L423 803L357 716L259 786L130 716Z"  horiz-adv-x="379" vert-adv-y="1000"  />

      
      <glyph glyph-name="unicf" unicode="&#xcf;" d="M121 667L366 667L284 0L39 0L121 667M67 762Q67 762 52.50 776.50Q38 791 38 833Q38 875 67 904Q96 933 138 933Q180 933 209 904Q238 875 238 833Q238 791 209 762Q180 733 138 733Q96 733 67 762M314 762Q314 762 299.50 776.50Q285 791 285 833Q285 875 314 904Q343 933 385 933Q427 933 456 904Q485 875 485 833Q485 791 456 762Q427 733 385 733Q343 733 314 762Z"  horiz-adv-x="379" vert-adv-y="1000"  />

      
      <glyph glyph-name="unid0" unicode="&#xd0;" d="M65 0L99 280L15 280L29 400L114 400L147 667L373 667Q549 667 648.50 581.50Q748 496 748 344Q748 264 716 195.50Q684 127 626 81Q571 37 504 18.50Q437 0 332 0L65 0M394 471L364 471L354 400L438 400L424 280L341 280L331 198L365 198Q425 198 467 242Q509 286 509 350Q509 402 476.50 436.50Q444 471 394 471Z"  horiz-adv-x="770" vert-adv-y="1000"  />

      
      <glyph glyph-name="unid1" unicode="&#xd1;" d="M554 667L799 667L717 0L483 0L367 230Q333 299 314 365L310 377L302 377Q306 337 306 297Q306 256 303 230L282 0L39 0L121 667L364 667L482 416Q504 369 524 298L530 276L540 277L538 299Q533 361 533 391Q533 435 537 470L554 667M501 829Q513 829 520 834.50Q527 840 535 857L618 815Q584 764 560.50 745.50Q537 727 506 727Q487 727 448 740L414 752Q393 758 386 758Q359 758 347 727L257 755Q290 811 321.50 834Q353 857 396 857Q421 857 466 839Q492 829 501 829Z"  horiz-adv-x="812" vert-adv-y="1000"  />

      
      <glyph glyph-name="unid2" unicode="&#xd2;" d="M675 591Q786 500 786 339Q786 187 681.50 85Q577-17 421-17Q263-17 155.50 81Q48 179 48 324Q48 475 154.50 579Q261 683 416 683Q566 683 675 591M410 193Q467 193 504.50 233.50Q542 274 542 335Q542 388 508 425Q474 462 424 462Q369 462 330.50 421Q292 380 292 322Q292 266 325.50 229.50Q359 193 410 193M280 843L397 916L523 779L437 724L280 843Z"  horiz-adv-x="808" vert-adv-y="1000"  />

      
      <glyph glyph-name="unid3" unicode="&#xd3;" d="M675 591Q786 500 786 339Q786 187 681.50 85Q577-17 421-17Q263-17 155.50 81Q48 179 48 324Q48 475 154.50 579Q261 683 416 683Q566 683 675 591M410 193Q467 193 504.50 233.50Q542 274 542 335Q542 388 508 425Q474 462 424 462Q369 462 330.50 421Q292 380 292 322Q292 266 325.50 229.50Q359 193 410 193M346 779L473 916L590 843L433 724L346 779Z"  horiz-adv-x="808" vert-adv-y="1000"  />

      
      <glyph glyph-name="unid4" unicode="&#xd4;" d="M675 591Q786 500 786 339Q786 187 681.50 85Q577-17 421-17Q263-17 155.50 81Q48 179 48 324Q48 475 154.50 579Q261 683 416 683Q566 683 675 591M410 193Q467 193 504.50 233.50Q542 274 542 335Q542 388 508 425Q474 462 424 462Q369 462 330.50 421Q292 380 292 322Q292 266 325.50 229.50Q359 193 410 193M305 716L250 817L437 918L598 803L532 716L434 786L305 716Z"  horiz-adv-x="808" vert-adv-y="1000"  />

      
      <glyph glyph-name="unid5" unicode="&#xd5;" d="M675 591Q786 500 786 339Q786 187 681.50 85Q577-17 421-17Q263-17 155.50 81Q48 179 48 324Q48 475 154.50 579Q261 683 416 683Q566 683 675 591M410 193Q467 193 504.50 233.50Q542 274 542 335Q542 388 508 425Q474 462 424 462Q369 462 330.50 421Q292 380 292 322Q292 266 325.50 229.50Q359 193 410 193M473 829Q485 829 492 834.50Q499 840 507 857L590 815Q556 764 532.50 745.50Q509 727 478 727Q459 727 420 740L386 752Q365 758 358 758Q331 758 319 727L229 755Q262 811 293.50 834Q325 857 368 857Q393 857 438 839Q464 829 473 829Z"  horiz-adv-x="808" vert-adv-y="1000"  />

      
      <glyph glyph-name="unid6" unicode="&#xd6;" d="M675 591Q786 500 786 339Q786 187 681.50 85Q577-17 421-17Q263-17 155.50 81Q48 179 48 324Q48 475 154.50 579Q261 683 416 683Q566 683 675 591M410 193Q467 193 504.50 233.50Q542 274 542 335Q542 388 508 425Q474 462 424 462Q369 462 330.50 421Q292 380 292 322Q292 266 325.50 229.50Q359 193 410 193M237 762Q237 762 222.50 776.50Q208 791 208 833Q208 875 237 904Q266 933 308 933Q350 933 379 904Q408 875 408 833Q408 791 379 762Q350 733 308 733Q266 733 237 762M484 762Q484 762 469.50 776.50Q455 791 455 833Q455 875 484 904Q513 933 555 933Q597 933 626 904Q655 875 655 833Q655 791 626 762Q597 733 555 733Q513 733 484 762Z"  horiz-adv-x="808" vert-adv-y="1000"  />

      
      <glyph glyph-name="unid7" unicode="&#xd7;" d="M132 173L47 258L172 382L47 507L139 599L264 474L388 598L472 513L349 389L475 263L383 171L257 297L132 173Z"  horiz-adv-x="500" vert-adv-y="1000"  />

      
      <glyph glyph-name="unid8" unicode="&#xd8;" d="M3 34L123 141Q68 219 68 324Q68 473 173 577Q281 683 436 683Q562 683 659 619L783 726L871 631L753 527Q806 444 806 339Q806 190 703 87Q599-17 441-17Q309-17 214 50L95-61L3 34M430 193Q485 193 520 228Q539 247 550.50 277Q562 307 562 335Q562 392 525 429Q492 462 444 462Q390 462 352 422Q312 382 312 322Q312 258 353 222Q385 193 430 193Z"  horiz-adv-x="848" vert-adv-y="1000"  />

      
      <glyph glyph-name="unid9" unicode="&#xd9;" d="M500 667L745 667L700 298Q686 191 668.50 146Q651 101 607 61Q520-17 381-17Q234-17 145 55Q70 116 70 230Q70 256 73 283L121 667L366 667L321 298Q316 258 316 249Q316 187 376 187Q410 187 428 210.50Q446 234 454 289L500 667M270 843L387 916L513 779L427 724L270 843Z"  horiz-adv-x="758" vert-adv-y="1000"  />

      
      <glyph glyph-name="unida" unicode="&#xda;" d="M500 667L745 667L700 298Q686 191 668.50 146Q651 101 607 61Q520-17 381-17Q234-17 145 55Q70 116 70 230Q70 256 73 283L121 667L366 667L321 298Q316 258 316 249Q316 187 376 187Q410 187 428 210.50Q446 234 454 289L500 667M366 779L493 916L610 843L453 724L366 779Z"  horiz-adv-x="758" vert-adv-y="1000"  />

      
      <glyph glyph-name="unidb" unicode="&#xdb;" d="M500 667L745 667L700 298Q686 191 668.50 146Q651 101 607 61Q520-17 381-17Q234-17 145 55Q70 116 70 230Q70 256 73 283L121 667L366 667L321 298Q316 258 316 249Q316 187 376 187Q410 187 428 210.50Q446 234 454 289L500 667M320 716L265 817L452 918L613 803L547 716L449 786L320 716Z"  horiz-adv-x="758" vert-adv-y="1000"  />

      
      <glyph glyph-name="unidc" unicode="&#xdc;" d="M500 667L745 667L700 298Q686 191 668.50 146Q651 101 607 61Q520-17 381-17Q234-17 145 55Q70 116 70 230Q70 256 73 283L121 667L366 667L321 298Q316 258 316 249Q316 187 376 187Q410 187 428 210.50Q446 234 454 289L500 667M242 762Q242 762 227.50 776.50Q213 791 213 833Q213 875 242 904Q271 933 313 933Q355 933 384 904Q413 875 413 833Q413 791 384 762Q355 733 313 733Q271 733 242 762M489 762Q489 762 474.50 776.50Q460 791 460 833Q460 875 489 904Q518 933 560 933Q602 933 631 904Q660 875 660 833Q660 791 631 762Q602 733 560 733Q518 733 489 762Z"  horiz-adv-x="758" vert-adv-y="1000"  />

      
      <glyph glyph-name="unidd" unicode="&#xdd;" d="M745 667L464 283L429 0L189 0L225 289L47 667L312 667L346 558Q356 525 359 482L368 482Q376 512 392 545L454 667L745 667M326 779L453 916L570 843L413 724L326 779Z"  horiz-adv-x="684" vert-adv-y="1000"  />

      
      <glyph glyph-name="unide" unicode="&#xde;" d="M388 116L296 116L281 0L39 0L121 667L363 667L352 580L389 580Q533 580 603 510Q665 448 665 354Q665 303 645.50 257.50Q626 212 595 182Q527 116 388 116M355 406L330 406L315 282L337 282Q389 282 412 305Q429 322 429 355Q429 379 415 392Q399 406 355 406Z"  horiz-adv-x="655" vert-adv-y="1000"  />

      
      <glyph glyph-name="unidf" unicode="&#xdf;" d="M612 541Q612 441 513 391Q621 350 621 232Q621 158 591.50 104Q562 50 508 26Q446-1 341-1Q336-1 317-0.50Q298 0 285 0L300 122Q309 121 324 121Q363 121 380 155Q397 189 397 266Q397 301 382 315.50Q367 330 326 336L342 463Q362 460 371 460Q393 460 407 472Q421 484 421 504Q421 526 407 539.50Q393 553 372 553Q341 553 327.50 531.50Q314 510 306 447L251 0L20 0L79 480Q89 559 104.50 601Q120 643 152 672Q226 740 359 740Q475 740 543.50 686.50Q612 633 612 541Z"  horiz-adv-x="648" vert-adv-y="1000"  />

      
      <glyph glyph-name="unie0" unicode="&#xe0;" d="M403 467L633 467L575 0L346 0Q353 30 371 83L364 86Q334 33 300 10Q266-13 220-13Q141-13 83 52Q25 117 25 205Q25 316 95.50 399.50Q166 483 259 483Q315 483 347.50 460Q380 437 400 383L408 386Q403 427 403 457L403 467M316 164Q344 164 362.50 185Q381 206 381 238Q381 264 365.50 281.50Q350 299 326 299Q299 299 279 276.50Q259 254 259 223Q259 197 275 180.50Q291 164 316 164M251 669L368 742L483 596L397 541L251 669Z"  horiz-adv-x="652" vert-adv-y="1000"  />

      
      <glyph glyph-name="unie1" unicode="&#xe1;" d="M403 467L633 467L575 0L346 0Q353 30 371 83L364 86Q334 33 300 10Q266-13 220-13Q141-13 83 52Q25 117 25 205Q25 316 95.50 399.50Q166 483 259 483Q315 483 347.50 460Q380 437 400 383L408 386Q403 427 403 457L403 467M316 164Q344 164 362.50 185Q381 206 381 238Q381 264 365.50 281.50Q350 299 326 299Q299 299 279 276.50Q259 254 259 223Q259 197 275 180.50Q291 164 316 164M281 596L397 742L514 669L368 541L281 596Z"  horiz-adv-x="652" vert-adv-y="1000"  />

      
      <glyph glyph-name="unie2" unicode="&#xe2;" d="M403 467L633 467L575 0L346 0Q353 30 371 83L364 86Q334 33 300 10Q266-13 220-13Q141-13 83 52Q25 117 25 205Q25 316 95.50 399.50Q166 483 259 483Q315 483 347.50 460Q380 437 400 383L408 386Q403 427 403 457L403 467M316 164Q344 164 362.50 185Q381 206 381 238Q381 264 365.50 281.50Q350 299 326 299Q299 299 279 276.50Q259 254 259 223Q259 197 275 180.50Q291 164 316 164M261 533L206 634L393 735L554 620L488 533L390 603L261 533Z"  horiz-adv-x="652" vert-adv-y="1000"  />

      
      <glyph glyph-name="unie3" unicode="&#xe3;" d="M403 467L633 467L575 0L346 0Q353 30 371 83L364 86Q334 33 300 10Q266-13 220-13Q141-13 83 52Q25 117 25 205Q25 316 95.50 399.50Q166 483 259 483Q315 483 347.50 460Q380 437 400 383L408 386Q403 427 403 457L403 467M316 164Q344 164 362.50 185Q381 206 381 238Q381 264 365.50 281.50Q350 299 326 299Q299 299 279 276.50Q259 254 259 223Q259 197 275 180.50Q291 164 316 164M458 673L532 635Q484 544 423 544Q401 544 366 561Q344 572 329 572Q302 572 283 540L206 580Q244 630 269.50 648.50Q295 667 323 667Q345 667 375 654L398 644Q411 639 418 639Q435 639 452 664L458 673Z"  horiz-adv-x="652" vert-adv-y="1000"  />

      
      <glyph glyph-name="unie4" unicode="&#xe4;" d="M403 467L633 467L575 0L346 0Q353 30 371 83L364 86Q334 33 300 10Q266-13 220-13Q141-13 83 52Q25 117 25 205Q25 316 95.50 399.50Q166 483 259 483Q315 483 347.50 460Q380 437 400 383L408 386Q403 427 403 457L403 467M316 164Q344 164 362.50 185Q381 206 381 238Q381 264 365.50 281.50Q350 299 326 299Q299 299 279 276.50Q259 254 259 223Q259 197 275 180.50Q291 164 316 164M145 642Q145 685 175 715Q205 745 247 745Q290 745 320 715Q350 685 350 642Q350 600 320 570Q290 540 247 540Q205 540 175 570Q145 600 145 642M392 642Q392 685 422 715Q452 745 494 745Q537 745 567 715Q597 685 597 642Q597 600 567 570Q537 540 494 540Q452 540 422 570Q392 600 392 642Z"  horiz-adv-x="652" vert-adv-y="1000"  />

      
      <glyph glyph-name="unie5" unicode="&#xe5;" d="M403 467L633 467L575 0L346 0Q353 30 371 83L364 86Q334 33 300 10Q266-13 220-13Q141-13 83 52Q25 117 25 205Q25 316 95.50 399.50Q166 483 259 483Q315 483 347.50 460Q380 437 400 383L408 386Q403 427 403 457L403 467M316 164Q344 164 362.50 185Q381 206 381 238Q381 264 365.50 281.50Q350 299 326 299Q299 299 279 276.50Q259 254 259 223Q259 197 275 180.50Q291 164 316 164M510 645Q510 594 470 564Q434 536 366 536Q298 536 263 563Q222 594 222 645Q222 694 262 725Q298 753 366 753Q435 753 470 725Q510 693 510 645M366 679Q344 679 331 671Q316 661 316 643Q316 627 331 618Q344 610 366 610Q388 610 402 618Q416 626 416 645Q416 661 402 671Q389 679 366 679Z"  horiz-adv-x="652" vert-adv-y="1000"  />

      
      <glyph glyph-name="unie6" unicode="&#xe6;" d="M913 203L582 203Q581 198 581 187Q581 159 595.50 142Q610 125 633 125Q654 125 667 136Q676 145 683 163L905 163Q880 83 810 36Q738-13 638-13Q506-13 430 60Q391 19 347 3Q304-13 237-13Q135-13 79 30Q19 76 19 154Q19 216 63 258Q116 309 216 309Q265 309 301 295Q340 279 364 254Q367 269 367 285Q367 328 329 351Q298 370 240 370Q152 370 62 324L79 457Q163 493 259 493Q389 493 450 426Q520 493 644 493Q771 493 847 415Q917 342 917 244Q917 222 913 203M295 97Q329 97 350 111Q373 126 373 151Q373 175 353 189Q333 203 293 203Q255 203 237 190Q217 175 217 150Q217 126 238 111Q257 97 295 97M592 299L700 299Q700 324 687 342.50Q674 361 650 361Q626 361 610 343.50Q594 326 592 299Z"  horiz-adv-x="945" vert-adv-y="1000"  />

      
      <glyph glyph-name="unie7" unicode="&#xe7;" d="M300 493Q359 493 439 467L410 271Q374 313 328 313Q295 313 275 291Q255 269 255 233Q255 201 273 182.50Q291 164 323 164Q364 164 401 197L367 5Q307-13 262-13Q158-13 92.50 52Q27 117 27 220Q27 342 102.50 417.50Q178 493 300 493M118-180L252-45L358-121L218-250L118-180Z"  horiz-adv-x="437" vert-adv-y="1000"  />

      
      <glyph glyph-name="unie8" unicode="&#xe8;" d="M587 202L256 202Q255 196 255 185Q255 156 269 139Q283 122 306 122Q340 122 356 162L578 162Q564 122 551 101Q538 80 513 58Q431-13 308-13Q183-13 105.50 54Q28 121 28 229Q28 342 110.50 418Q193 494 316 494Q432 494 511.50 423.50Q591 353 591 250Q591 244 587 202M322 360Q275 360 265 298L373 298Q372 360 322 360M191 669L308 742L423 596L337 541L191 669Z"  horiz-adv-x="618" vert-adv-y="1000"  />

      
      <glyph glyph-name="unie9" unicode="&#xe9;" d="M587 202L256 202Q255 196 255 185Q255 156 269 139Q283 122 306 122Q340 122 356 162L578 162Q564 122 551 101Q538 80 513 58Q431-13 308-13Q183-13 105.50 54Q28 121 28 229Q28 342 110.50 418Q193 494 316 494Q432 494 511.50 423.50Q591 353 591 250Q591 244 587 202M322 360Q275 360 265 298L373 298Q372 360 322 360M241 596L357 742L474 669L328 541L241 596Z"  horiz-adv-x="618" vert-adv-y="1000"  />

      
      <glyph glyph-name="uniea" unicode="&#xea;" d="M587 202L256 202Q255 196 255 185Q255 156 269 139Q283 122 306 122Q340 122 356 162L578 162Q564 122 551 101Q538 80 513 58Q431-13 308-13Q183-13 105.50 54Q28 121 28 229Q28 342 110.50 418Q193 494 316 494Q432 494 511.50 423.50Q591 353 591 250Q591 244 587 202M322 360Q275 360 265 298L373 298Q372 360 322 360M200 533L145 634L332 735L493 620L427 533L329 603L200 533Z"  horiz-adv-x="618" vert-adv-y="1000"  />

      
      <glyph glyph-name="unieb" unicode="&#xeb;" d="M587 202L256 202Q255 196 255 185Q255 156 269 139Q283 122 306 122Q340 122 356 162L578 162Q564 122 551 101Q538 80 513 58Q431-13 308-13Q183-13 105.50 54Q28 121 28 229Q28 342 110.50 418Q193 494 316 494Q432 494 511.50 423.50Q591 353 591 250Q591 244 587 202M322 360Q275 360 265 298L373 298Q372 360 322 360M95 642Q95 685 125 715Q155 745 197 745Q240 745 270 715Q300 685 300 642Q300 600 270 570Q240 540 197 540Q155 540 125 570Q95 600 95 642M342 642Q342 685 372 715Q402 745 444 745Q487 745 517 715Q547 685 547 642Q547 600 517 570Q487 540 444 540Q402 540 372 570Q342 600 342 642Z"  horiz-adv-x="618" vert-adv-y="1000"  />

      
      <glyph glyph-name="uniec" unicode="&#xec;" d="M81 467L312 467L255 0L24 0L81 467M91 669L208 742L323 596L237 541L91 669Z"  horiz-adv-x="332" vert-adv-y="1000"  />

      
      <glyph glyph-name="unied" unicode="&#xed;" d="M81 467L312 467L255 0L24 0L81 467M111 596L227 742L344 669L198 541L111 596Z"  horiz-adv-x="332" vert-adv-y="1000"  />

      
      <glyph glyph-name="uniee" unicode="&#xee;" d="M81 467L312 467L255 0L24 0L81 467M86 533L31 634L218 735L379 620L313 533L215 603L86 533Z"  horiz-adv-x="332" vert-adv-y="1000"  />

      
      <glyph glyph-name="unief" unicode="&#xef;" d="M81 467L312 467L255 0L24 0L81 467M-9 642Q-9 685 21 715Q51 745 93 745Q136 745 166 715Q196 685 196 642Q196 600 166 570Q136 540 93 540Q51 540 21 570Q-9 600-9 642M238 642Q238 685 268 715Q298 745 340 745Q383 745 413 715Q443 685 443 642Q443 600 413 570Q383 540 340 540Q298 540 268 570Q238 600 238 642Z"  horiz-adv-x="332" vert-adv-y="1000"  />

      
      <glyph glyph-name="unif0" unicode="&#xf0;" d="M163 633L192 744Q335 733 436 677L567 733L600 639L514 603Q564 563 591 500Q621 430 621 340Q621 161 533 68Q457-13 319-13Q194-13 119 42Q29 107 29 220Q29 314 99 381Q176 454 303 454Q391 454 458 408Q445 495 373 542L174 464L144 560L281 612Q228 633 163 633M315 163Q340 163 357 178Q379 198 379 229Q379 260 359 280Q344 295 320 295Q295 295 278 278Q255 255 255 223Q255 194 275 177Q292 163 315 163Z"  horiz-adv-x="647" vert-adv-y="1000"  />

      
      <glyph glyph-name="unif1" unicode="&#xf1;" d="M77 467L309 467Q301 422 286 384L294 382Q329 438 362.50 461Q396 484 441 484Q507 484 550.50 440.50Q594 397 594 332Q594 308 589 261L557 0L325 0L353 226Q356 246 356 257Q356 292 326 292Q303 292 293 277Q283 262 278 218L251 0L20 0L77 467M439 673L513 635Q465 544 404 544Q382 544 347 561Q325 572 310 572Q283 572 264 540L187 580Q225 630 250.50 648.50Q276 667 304 667Q326 667 356 654L379 644Q392 639 399 639Q416 639 433 664L439 673Z"  horiz-adv-x="633" vert-adv-y="1000"  />

      
      <glyph glyph-name="unif2" unicode="&#xf2;" d="M320 493Q451 493 531 424.50Q611 356 611 244Q611 134 528 60.50Q445-13 321-13Q194-13 111.50 57.50Q29 128 29 236Q29 347 112 420Q195 493 320 493M318 169Q346 169 364 190.50Q382 212 382 244Q382 272 365.50 291Q349 310 324 310Q297 310 277.50 288Q258 266 258 235Q258 206 275 187.50Q292 169 318 169M230 669L347 742L462 596L376 541L230 669Z"  horiz-adv-x="637" vert-adv-y="1000"  />

      
      <glyph glyph-name="unif3" unicode="&#xf3;" d="M320 493Q451 493 531 424.50Q611 356 611 244Q611 134 528 60.50Q445-13 321-13Q194-13 111.50 57.50Q29 128 29 236Q29 347 112 420Q195 493 320 493M318 169Q346 169 364 190.50Q382 212 382 244Q382 272 365.50 291Q349 310 324 310Q297 310 277.50 288Q258 266 258 235Q258 206 275 187.50Q292 169 318 169M231 596L347 742L464 669L318 541L231 596Z"  horiz-adv-x="637" vert-adv-y="1000"  />

      
      <glyph glyph-name="unif4" unicode="&#xf4;" d="M320 493Q451 493 531 424.50Q611 356 611 244Q611 134 528 60.50Q445-13 321-13Q194-13 111.50 57.50Q29 128 29 236Q29 347 112 420Q195 493 320 493M318 169Q346 169 364 190.50Q382 212 382 244Q382 272 365.50 291Q349 310 324 310Q297 310 277.50 288Q258 266 258 235Q258 206 275 187.50Q292 169 318 169M210 533L155 634L342 735L503 620L437 533L339 603L210 533Z"  horiz-adv-x="637" vert-adv-y="1000"  />

      
      <glyph glyph-name="unif5" unicode="&#xf5;" d="M320 493Q451 493 531 424.50Q611 356 611 244Q611 134 528 60.50Q445-13 321-13Q194-13 111.50 57.50Q29 128 29 236Q29 347 112 420Q195 493 320 493M318 169Q346 169 364 190.50Q382 212 382 244Q382 272 365.50 291Q349 310 324 310Q297 310 277.50 288Q258 266 258 235Q258 206 275 187.50Q292 169 318 169M419 673L493 635Q445 544 384 544Q362 544 327 561Q305 572 290 572Q263 572 244 540L167 580Q205 630 230.50 648.50Q256 667 284 667Q306 667 336 654L359 644Q372 639 379 639Q396 639 413 664L419 673Z"  horiz-adv-x="637" vert-adv-y="1000"  />

      
      <glyph glyph-name="unif6" unicode="&#xf6;" d="M320 493Q451 493 531 424.50Q611 356 611 244Q611 134 528 60.50Q445-13 321-13Q194-13 111.50 57.50Q29 128 29 236Q29 347 112 420Q195 493 320 493M318 169Q346 169 364 190.50Q382 212 382 244Q382 272 365.50 291Q349 310 324 310Q297 310 277.50 288Q258 266 258 235Q258 206 275 187.50Q292 169 318 169M110 642Q110 685 140 715Q170 745 212 745Q255 745 285 715Q315 685 315 642Q315 600 285 570Q255 540 212 540Q170 540 140 570Q110 600 110 642M357 642Q357 685 387 715Q417 745 459 745Q502 745 532 715Q562 685 562 642Q562 600 532 570Q502 540 459 540Q417 540 387 570Q357 600 357 642Z"  horiz-adv-x="637" vert-adv-y="1000"  />

      
      <glyph glyph-name="unif7" unicode="&#xf7;" d="M211 457.50Q211 457.50 200 468.25Q189 479 189 510Q189 541 210.50 562.50Q232 584 263 584Q294 584 316 562.50Q338 541 338 510Q338 479 316 457Q294 435 263 436Q233 436 211 457.50M211 117.50Q211 117.50 200 128.25Q189 139 189 170Q189 201 210.50 222.50Q232 244 263 244Q294 244 316 222.50Q338 201 338 170Q338 139 316 117Q294 95 263 96Q233 96 211 117.50M47 280L47 400L480 400L480 280L47 280Z"  horiz-adv-x="500" vert-adv-y="1000"  />

      
      <glyph glyph-name="unif8" unicode="&#xf8;" d="M649 459L569 388Q614 328 614 244Q614 143 543 72Q458-13 320-13Q233-13 163 24L70-58L-2 21L80 95Q32 155 32 235Q32 340 105 411Q189 493 329 493Q413 493 485 457L577 539L649 459M280 186Q296 169 321 169Q346 169 363 186Q385 208 385 244Q385 275 367 293Q351 310 328 310Q302 310 284 292Q261 271 261 236Q261 207 280 186Z"  horiz-adv-x="643" vert-adv-y="1000"  />

      
      <glyph glyph-name="unif9" unicode="&#xf9;" d="M383 467L615 467L583 210Q575 144 558.50 108.50Q542 73 506 44Q433-13 315-13Q187-13 116.50 39Q46 91 46 186Q46 210 49 240L77 467L309 467L281 240Q277 209 277 199Q277 184 286.50 174Q296 164 311 164Q332 164 341 177.50Q350 191 354 231L383 467M221 669L338 742L453 596L367 541L221 669Z"  horiz-adv-x="633" vert-adv-y="1000"  />

      
      <glyph glyph-name="unifa" unicode="&#xfa;" d="M383 467L615 467L583 210Q575 144 558.50 108.50Q542 73 506 44Q433-13 315-13Q187-13 116.50 39Q46 91 46 186Q46 210 49 240L77 467L309 467L281 240Q277 209 277 199Q277 184 286.50 174Q296 164 311 164Q332 164 341 177.50Q350 191 354 231L383 467M271 596L387 742L504 669L358 541L271 596Z"  horiz-adv-x="633" vert-adv-y="1000"  />

      
      <glyph glyph-name="unifb" unicode="&#xfb;" d="M383 467L615 467L583 210Q575 144 558.50 108.50Q542 73 506 44Q433-13 315-13Q187-13 116.50 39Q46 91 46 186Q46 210 49 240L77 467L309 467L281 240Q277 209 277 199Q277 184 286.50 174Q296 164 311 164Q332 164 341 177.50Q350 191 354 231L383 467M240 533L185 634L372 735L533 620L467 533L369 603L240 533Z"  horiz-adv-x="633" vert-adv-y="1000"  />

      
      <glyph glyph-name="unifc" unicode="&#xfc;" d="M383 467L615 467L583 210Q575 144 558.50 108.50Q542 73 506 44Q433-13 315-13Q187-13 116.50 39Q46 91 46 186Q46 210 49 240L77 467L309 467L281 240Q277 209 277 199Q277 184 286.50 174Q296 164 311 164Q332 164 341 177.50Q350 191 354 231L383 467M130 642Q130 685 160 715Q190 745 232 745Q275 745 305 715Q335 685 335 642Q335 600 305 570Q275 540 232 540Q190 540 160 570Q130 600 130 642M377 642Q377 685 407 715Q437 745 479 745Q522 745 552 715Q582 685 582 642Q582 600 552 570Q522 540 479 540Q437 540 407 570Q377 600 377 642Z"  horiz-adv-x="633" vert-adv-y="1000"  />

      
      <glyph glyph-name="unifd" unicode="&#xfd;" d="M381 467L630 467L267-229L19-229L107-60Q142 1 172 36L31 467L269 467L289 337Q296 294 296 262Q296 238 294 214L304 213Q319 291 338 344L381 467M241 596L357 742L474 669L328 541L241 596Z"  horiz-adv-x="591" vert-adv-y="1000"  />

      
      <glyph glyph-name="unife" unicode="&#xfe;" d="M115 729L347 729L317 493Q307 431 295 396L304 392Q332 443 361 463.50Q390 484 435 484Q512 484 566 416Q620 348 620 251Q620 145 556 66Q492-13 406-13Q293-13 260 83L252 80Q255 39 255 23Q255-7 250-54L228-229L-4-229L115 729M331 163Q358 163 375 184Q392 205 392 238Q392 266 376.50 284Q361 302 338 302Q313 302 294.50 279.50Q276 257 276 225Q276 197 291 180Q306 163 331 163Z"  horiz-adv-x="645" vert-adv-y="1000"  />

      
      <glyph glyph-name="uniff" unicode="&#xff;" d="M381 467L630 467L267-229L19-229L107-60Q142 1 172 36L31 467L269 467L289 337Q296 294 296 262Q296 238 294 214L304 213Q319 291 338 344L381 467M100 642Q100 685 130 715Q160 745 202 745Q245 745 275 715Q305 685 305 642Q305 600 275 570Q245 540 202 540Q160 540 130 570Q100 600 100 642M347 642Q347 685 377 715Q407 745 449 745Q492 745 522 715Q552 685 552 642Q552 600 522 570Q492 540 449 540Q407 540 377 570Q347 600 347 642Z"  horiz-adv-x="591" vert-adv-y="1000"  />

      
      <glyph glyph-name="uni0100" unicode="&#x0100;" d="M428 89L264 89L232 0L-28 0L280 667L556 667L680 0L433 0L428 89M365 362L320 241L412 241L402 362Q400 384 400 409Q400 429 403 462L395 462Q382 407 365 362M600 746L236 746L248 850L612 850L600 746Z"  horiz-adv-x="708" vert-adv-y="1000"  />

      
      <glyph glyph-name="uni0101" unicode="&#x0101;" d="M403 467L633 467L575 0L346 0Q353 30 371 83L364 86Q334 33 300 10Q266-13 220-13Q141-13 83 52Q25 117 25 205Q25 316 95.50 399.50Q166 483 259 483Q315 483 347.50 460Q380 437 400 383L408 386Q403 427 403 457L403 467M316 164Q344 164 362.50 185Q381 206 381 238Q381 264 365.50 281.50Q350 299 326 299Q299 299 279 276.50Q259 254 259 223Q259 197 275 180.50Q291 164 316 164M563 546L223 546L235 646L575 646L563 546Z"  horiz-adv-x="652" vert-adv-y="1000"  />

      
      <glyph glyph-name="uni0102" unicode="&#x0102;" d="M428 89L264 89L232 0L-28 0L280 667L556 667L680 0L433 0L428 89M365 362L320 241L412 241L402 362Q400 384 400 409Q400 429 403 462L395 462Q382 407 365 362M502 875L604 875Q593 814 551 772Q501 723 418 723Q348 723 306 754Q252 793 250 875L352 875Q356 849 371 835Q387 819 423 819Q454 819 474 834Q494 849 502 875Z"  horiz-adv-x="708" vert-adv-y="1000"  />

      
      <glyph glyph-name="uni0103" unicode="&#x0103;" d="M403 467L633 467L575 0L346 0Q353 30 371 83L364 86Q334 33 300 10Q266-13 220-13Q141-13 83 52Q25 117 25 205Q25 316 95.50 399.50Q166 483 259 483Q315 483 347.50 460Q380 437 400 383L408 386Q403 427 403 457L403 467M316 164Q344 164 362.50 185Q381 206 381 238Q381 264 365.50 281.50Q350 299 326 299Q299 299 279 276.50Q259 254 259 223Q259 197 275 180.50Q291 164 316 164M458 691L560 691Q549 630 507 588Q458 539 373 539Q304 539 262 570Q208 609 206 691L308 691Q312 665 327 651Q343 635 379 635Q410 635 430 650Q450 665 458 691Z"  horiz-adv-x="652" vert-adv-y="1000"  />

      
      <glyph glyph-name="uni0104" unicode="&#x0104;" d="M428 89L264 89L232 0L-28 0L280 667L556 667L680 0L523 0Q503-14 483-34Q463-56 463-77Q463-90 473-100Q482-109 501-109Q537-109 564-84L531-179Q489-202 436-202Q387-202 363-180Q339-159 339-121Q339-78 378-41Q401-19 433 0L428 89M402 362Q400 392 400 414Q400 432 402 454L403 462L395 462Q389 425 365 362L320 241L412 241L402 362Z"  horiz-adv-x="708" vert-adv-y="1000"  />

      
      <glyph glyph-name="uni0105" unicode="&#x0105;" d="M403 467L633 467L575 0L515 0Q486-23 479-31Q461-51 461-71Q461-83 470-91Q479-99 497-99Q526-99 552-76L523-163Q486-184 436-184Q390-184 367-161Q348-144 348-112Q348-70 383-37Q403-19 433 0L346 0Q352 31 368 75L371 83L364 86Q343 42 313 18Q276-13 223-13Q148-13 91 44Q25 110 25 208Q25 266 49 323.50Q73 381 112 419Q178 483 267 483Q324 483 360 449Q387 425 400 383L408 386Q403 422 403 457L403 467M316 164Q343 164 360 183Q381 206 381 238Q381 268 361 286Q346 299 326 299Q302 299 284 281Q259 257 259 223Q259 199 275 181Q290 164 316 164Z"  horiz-adv-x="652" vert-adv-y="1000"  />

      
      <glyph glyph-name="uni0106" unicode="&#x0106;" d="M415 683Q502 683 588 652L568 415Q503 467 435 467Q375 467 331.50 423Q288 379 288 319Q288 268 325 233.50Q362 199 417 199Q488 199 548 256L519 13Q430-17 367-17Q228-17 137.50 77Q47 171 47 314Q47 473 152 578Q257 683 415 683M326 779L453 916L570 843L413 724L326 779Z"  horiz-adv-x="582" vert-adv-y="1000"  />

      
      <glyph glyph-name="uni0107" unicode="&#x0107;" d="M300 493Q359 493 439 467L410 271Q374 313 328 313Q295 313 275 291Q255 269 255 233Q255 201 273 182.50Q291 164 323 164Q364 164 401 197L367 5Q307-13 262-13Q158-13 92.50 52Q27 117 27 220Q27 342 102.50 417.50Q178 493 300 493M231 596L347 742L464 669L318 541L231 596Z"  horiz-adv-x="437" vert-adv-y="1000"  />

      
      <glyph glyph-name="uni0108" unicode="&#x0108;" d="M415 683Q502 683 588 652L568 415Q503 467 435 467Q375 467 331.50 423Q288 379 288 319Q288 268 325 233.50Q362 199 417 199Q488 199 548 256L519 13Q430-17 367-17Q228-17 137.50 77Q47 171 47 314Q47 473 152 578Q257 683 415 683M320 716L265 817L452 918L613 803L547 716L449 786L320 716Z"  horiz-adv-x="582" vert-adv-y="1000"  />

      
      <glyph glyph-name="uni0109" unicode="&#x0109;" d="M300 493Q359 493 439 467L410 271Q374 313 328 313Q295 313 275 291Q255 269 255 233Q255 201 273 182.50Q291 164 323 164Q364 164 401 197L367 5Q307-13 262-13Q158-13 92.50 52Q27 117 27 220Q27 342 102.50 417.50Q178 493 300 493M200 533L145 634L332 735L493 620L427 533L329 603L200 533Z"  horiz-adv-x="437" vert-adv-y="1000"  />

      
      <glyph glyph-name="uni010A" unicode="&#x010A;" d="M415 683Q502 683 588 652L568 415Q503 467 435 467Q375 467 331.50 423Q288 379 288 319Q288 268 325 233.50Q362 199 417 199Q488 199 548 256L519 13Q430-17 367-17Q228-17 137.50 77Q47 171 47 314Q47 473 152 578Q257 683 415 683M335 825Q335 868 365 898Q395 928 438 928Q480 928 510 898Q540 868 540 825Q540 783 510 753Q480 723 438 723Q395 723 365 753Q335 783 335 825Z"  horiz-adv-x="582" vert-adv-y="1000"  />

      
      <glyph glyph-name="uni010B" unicode="&#x010B;" d="M300 493Q359 493 439 467L410 271Q374 313 328 313Q295 313 275 291Q255 269 255 233Q255 201 273 182.50Q291 164 323 164Q364 164 401 197L367 5Q307-13 262-13Q158-13 92.50 52Q27 117 27 220Q27 342 102.50 417.50Q178 493 300 493M218 642Q218 685 248 715Q278 745 321 745Q363 745 393 715Q423 685 423 642Q423 600 393 570Q363 540 321 540Q278 540 248 570Q218 600 218 642Z"  horiz-adv-x="437" vert-adv-y="1000"  />

      
      <glyph glyph-name="uni010C" unicode="&#x010C;" d="M415 683Q502 683 588 652L568 415Q503 467 435 467Q375 467 331.50 423Q288 379 288 319Q288 268 325 233.50Q362 199 417 199Q488 199 548 256L519 13Q430-17 367-17Q228-17 137.50 77Q47 171 47 314Q47 473 152 578Q257 683 415 683M548 918L603 817L416 716L255 831L322 918L419 848L548 918Z"  horiz-adv-x="582" vert-adv-y="1000"  />

      
      <glyph glyph-name="uni010D" unicode="&#x010D;" d="M300 493Q359 493 439 467L410 271Q374 313 328 313Q295 313 275 291Q255 269 255 233Q255 201 273 182.50Q291 164 323 164Q364 164 401 197L367 5Q307-13 262-13Q158-13 92.50 52Q27 117 27 220Q27 342 102.50 417.50Q178 493 300 493M438 735L493 634L306 533L145 648L212 735L309 665L438 735Z"  horiz-adv-x="437" vert-adv-y="1000"  />

      
      <glyph glyph-name="uni010E" unicode="&#x010E;" d="M39 0L121 667L347 667Q523 667 622.50 581.50Q722 496 722 344Q722 264 690 195.50Q658 127 600 81Q545 37 478 18.50Q411 0 306 0L39 0M368 471L338 471L305 198L339 198Q399 198 441 242Q483 286 483 350Q483 402 450.50 436.50Q418 471 368 471M498 918L553 817L366 716L205 831L272 918L369 848L498 918Z"  horiz-adv-x="744" vert-adv-y="1000"  />

      
      <glyph glyph-name="uni010F" unicode="&#x010F;" d="M426 729L657 729L567 0L336 0Q346 40 359 78L351 82Q309-13 211-13Q131-13 78.50 49.50Q26 112 26 207Q26 321 91 402Q156 483 248 483Q353 483 388 381L397 383Q393 407 393 418Q393 466 400 519L426 729M311 169Q336 169 353.50 188.50Q371 208 373 239L373 244Q373 271 358 287.50Q343 304 318 304Q292 304 273.50 283Q255 262 255 231Q255 205 271.50 187Q288 169 311 169M946 667L820 449L668 449L753 667L946 667Z"  horiz-adv-x="876" vert-adv-y="1000"  />

      
      <glyph glyph-name="uni0110" unicode="&#x0110;" d="M65 0L99 280L15 280L29 400L114 400L147 667L373 667Q549 667 648.50 581.50Q748 496 748 344Q748 264 716 195.50Q684 127 626 81Q571 37 504 18.50Q437 0 332 0L65 0M394 471L364 471L354 400L438 400L424 280L341 280L331 198L365 198Q425 198 467 242Q509 286 509 350Q509 402 476.50 436.50Q444 471 394 471Z"  horiz-adv-x="770" vert-adv-y="1000"  />

      
      <glyph glyph-name="uni0111" unicode="&#x0111;" d="M426 729L657 729L646 642L730 642L716 522L631 522L567 0L336 0Q346 40 359 78L351 82Q309-13 211-13Q131-13 78.50 49.50Q26 112 26 207Q26 321 91 402Q156 483 248 483Q353 483 388 381L397 383Q393 407 393 418Q393 466 400 519L400 522L234 522L249 642L415 642L426 729M311 169Q336 169 353.50 188.50Q371 208 373 239L373 244Q373 271 358 287.50Q343 304 318 304Q292 304 273.50 283Q255 262 255 231Q255 205 271.50 187Q288 169 311 169Z"  horiz-adv-x="660" vert-adv-y="1000"  />

      
      <glyph glyph-name="uni0112" unicode="&#x0112;" d="M121 667L559 667L538 493L341 493L332 420L512 420L492 255L312 255L303 179L507 179L485 0L39 0L121 667M520 746L156 746L168 850L532 850L520 746Z"  horiz-adv-x="549" vert-adv-y="1000"  />

      
      <glyph glyph-name="uni0113" unicode="&#x0113;" d="M587 202L256 202Q255 196 255 185Q255 156 269 139Q283 122 306 122Q340 122 356 162L578 162Q564 122 551 101Q538 80 513 58Q431-13 308-13Q183-13 105.50 54Q28 121 28 229Q28 342 110.50 418Q193 494 316 494Q432 494 511.50 423.50Q591 353 591 250Q591 244 587 202M322 360Q275 360 265 298L373 298Q372 360 322 360M498 546L158 546L170 646L510 646L498 546Z"  horiz-adv-x="618" vert-adv-y="1000"  />

      
      <glyph glyph-name="uni0116" unicode="&#x0116;" d="M121 667L559 667L538 493L341 493L332 420L512 420L492 255L312 255L303 179L507 179L485 0L39 0L121 667M248 825Q248 868 278 898Q308 928 351 928Q393 928 423 898Q453 868 453 825Q453 783 423 753Q393 723 351 723Q308 723 278 753Q248 783 248 825Z"  horiz-adv-x="549" vert-adv-y="1000"  />

      
      <glyph glyph-name="uni0117" unicode="&#x0117;" d="M587 202L256 202Q255 196 255 185Q255 156 269 139Q283 122 306 122Q340 122 356 162L578 162Q564 122 551 101Q538 80 513 58Q431-13 308-13Q183-13 105.50 54Q28 121 28 229Q28 342 110.50 418Q193 494 316 494Q432 494 511.50 423.50Q591 353 591 250Q591 244 587 202M322 360Q275 360 265 298L373 298Q372 360 322 360M218 642Q218 685 248 715Q278 745 321 745Q363 745 393 715Q423 685 423 642Q423 600 393 570Q363 540 321 540Q278 540 248 570Q218 600 218 642Z"  horiz-adv-x="618" vert-adv-y="1000"  />

      
      <glyph glyph-name="uni0118" unicode="&#x0118;" d="M121 667L559 667L538 493L341 493L332 420L512 420L492 255L312 255L303 179L507 179L485 0L425 0Q406-14 385-34Q365-57 365-77Q365-90 375-100Q384-109 403-109Q439-109 466-84L433-179Q391-202 338-202Q289-202 265-180Q241-159 241-121Q241-78 280-41Q303-19 335 0L39 0L121 667Z"  horiz-adv-x="549" vert-adv-y="1000"  />

      
      <glyph glyph-name="uni0119" unicode="&#x0119;" d="M587 202L256 202Q255 197 255 186Q255 150 273 134Q285 122 306 122Q329 122 341 136Q345 140 356 162L578 162Q565 108 525 66Q497 37 448 9Q397-20 380-36Q358-56 358-77Q358-91 367-97Q376-105 394-105Q423-105 449-82L420-169Q383-190 333-190Q287-190 264-167Q245-150 245-118Q245-76 280-43Q296-28 320-13Q171-13 95 63Q28 128 28 227Q28 334 102 410Q184 494 316 494Q441 494 524 411Q591 343 591 259Q591 251 589.50 233.50Q588 216 587 202M265 298L373 298Q373 333 357 348Q344 360 322 360Q299 360 285 346Q269 330 265 298Z"  horiz-adv-x="618" vert-adv-y="1000"  />

      
      <glyph glyph-name="uni011A" unicode="&#x011A;" d="M121 667L559 667L538 493L341 493L332 420L512 420L492 255L312 255L303 179L507 179L485 0L39 0L121 667M473 918L528 817L341 716L180 831L247 918L344 848L473 918Z"  horiz-adv-x="549" vert-adv-y="1000"  />

      
      <glyph glyph-name="uni011B" unicode="&#x011B;" d="M587 202L256 202Q255 196 255 185Q255 156 269 139Q283 122 306 122Q340 122 356 162L578 162Q564 122 551 101Q538 80 513 58Q431-13 308-13Q183-13 105.50 54Q28 121 28 229Q28 342 110.50 418Q193 494 316 494Q432 494 511.50 423.50Q591 353 591 250Q591 244 587 202M322 360Q275 360 265 298L373 298Q372 360 322 360M458 735L513 634L326 533L165 648L232 735L329 665L458 735Z"  horiz-adv-x="618" vert-adv-y="1000"  />

      
      <glyph glyph-name="uni011C" unicode="&#x011C;" d="M418 388L783 388L783 382Q783 190 673 81Q574-17 406-17Q327-17 264 3.50Q201 24 145 79Q47 175 47 317Q47 469 149 573Q257 684 443 684Q660 684 762 515L535 426Q507 482 446 482Q385 482 344 444Q289 392 289 307Q289 245 327 205Q362 169 421 169Q504 169 528 242L398 242L418 388M320 716L265 817L452 918L613 803L547 716L449 786L320 716Z"  horiz-adv-x="807" vert-adv-y="1000"  />

      
      <glyph glyph-name="uni011D" unicode="&#x011D;" d="M397 467L625 467L573 46Q563-36 541.50-82Q520-128 476-161Q388-229 255-229Q149-229 42-188Q32-185 12-176L74-24Q156-74 224-74Q261-74 291-58.50Q321-43 335-17Q348 9 363 83L356 85Q334 37 303 17Q272-3 220-3Q137-3 82 60Q27 123 27 218Q27 329 93.50 406Q160 483 256 483Q359 483 394 388L401 390L399 417L398 451L397 467M312 163Q340 163 358.50 182.50Q377 202 377 232Q377 261 361.50 279.50Q346 298 322 298Q294 298 274.50 276.50Q255 255 255 225Q255 197 271 180Q287 163 312 163M252 533L197 634L384 735L545 620L479 533L381 603L252 533Z"  horiz-adv-x="644" vert-adv-y="1000"  />

      
      <glyph glyph-name="uni011E" unicode="&#x011E;" d="M418 388L783 388L783 382Q783 190 673 81Q574-17 406-17Q327-17 264 3.50Q201 24 145 79Q47 175 47 317Q47 469 149 573Q257 684 443 684Q660 684 762 515L535 426Q507 482 446 482Q385 482 344 444Q289 392 289 307Q289 245 327 205Q362 169 421 169Q504 169 528 242L398 242L418 388M527 875L629 875Q618 814 576 772Q526 723 443 723Q373 723 331 754Q277 793 275 875L377 875Q381 849 396 835Q412 819 448 819Q479 819 499 834Q519 849 527 875Z"  horiz-adv-x="807" vert-adv-y="1000"  />

      
      <glyph glyph-name="uni011F" unicode="&#x011F;" d="M397 467L625 467L573 46Q563-36 541.50-82Q520-128 476-161Q388-229 255-229Q149-229 42-188Q32-185 12-176L74-24Q156-74 224-74Q261-74 291-58.50Q321-43 335-17Q348 9 363 83L356 85Q334 37 303 17Q272-3 220-3Q137-3 82 60Q27 123 27 218Q27 329 93.50 406Q160 483 256 483Q359 483 394 388L401 390L399 417L398 451L397 467M312 163Q340 163 358.50 182.50Q377 202 377 232Q377 261 361.50 279.50Q346 298 322 298Q294 298 274.50 276.50Q255 255 255 225Q255 197 271 180Q287 163 312 163M442 691L544 691Q533 630 491 588Q442 539 357 539Q288 539 246 570Q192 609 190 691L292 691Q296 665 311 651Q327 635 363 635Q394 635 414 650Q434 665 442 691Z"  horiz-adv-x="644" vert-adv-y="1000"  />

      
      <glyph glyph-name="uni0120" unicode="&#x0120;" d="M418 388L783 388L783 382Q783 190 673 81Q574-17 406-17Q327-17 264 3.50Q201 24 145 79Q47 175 47 317Q47 469 149 573Q257 684 443 684Q660 684 762 515L535 426Q507 482 446 482Q385 482 344 444Q289 392 289 307Q289 245 327 205Q362 169 421 169Q504 169 528 242L398 242L418 388M378 825Q378 868 408 898Q438 928 481 928Q523 928 553 898Q583 868 583 825Q583 783 553 753Q523 723 481 723Q438 723 408 753Q378 783 378 825Z"  horiz-adv-x="807" vert-adv-y="1000"  />

      
      <glyph glyph-name="uni0121" unicode="&#x0121;" d="M397 467L625 467L573 46Q563-36 541.50-82Q520-128 476-161Q388-229 255-229Q149-229 42-188Q32-185 12-176L74-24Q156-74 224-74Q261-74 291-58.50Q321-43 335-17Q348 9 363 83L356 85Q334 37 303 17Q272-3 220-3Q137-3 82 60Q27 123 27 218Q27 329 93.50 406Q160 483 256 483Q359 483 394 388L401 390L399 417L398 451L397 467M312 163Q340 163 358.50 182.50Q377 202 377 232Q377 261 361.50 279.50Q346 298 322 298Q294 298 274.50 276.50Q255 255 255 225Q255 197 271 180Q287 163 312 163M267 642Q267 685 297 715Q327 745 370 745Q412 745 442 715Q472 685 472 642Q472 600 442 570Q412 540 370 540Q327 540 297 570Q267 600 267 642Z"  horiz-adv-x="644" vert-adv-y="1000"  />

      
      <glyph glyph-name="uni0122" unicode="&#x0122;" d="M418 388L783 388L783 382Q783 190 673 81Q574-17 406-17Q327-17 264 3.50Q201 24 145 79Q47 175 47 317Q47 469 149 573Q257 684 443 684Q660 684 762 515L535 426Q507 482 446 482Q385 482 344 444Q289 392 289 307Q289 245 327 205Q362 169 421 169Q504 169 528 242L398 242L418 388M527-62L402-274L247-274L331-62L527-62Z"  horiz-adv-x="807" vert-adv-y="1000"  />

      
      <glyph glyph-name="uni0123" unicode="&#x0123;" d="M397 467L625 467L573 46Q563-36 541.50-82Q520-128 476-161Q388-229 255-229Q149-229 42-188Q32-185 12-176L74-24Q156-74 224-74Q261-74 291-58.50Q321-43 335-17Q348 9 363 83L356 85Q334 37 303 17Q272-3 220-3Q137-3 82 60Q27 123 27 218Q27 329 93.50 406Q160 483 256 483Q359 483 394 388L401 390L399 417L398 451L397 467M312 163Q340 163 358.50 182.50Q377 202 377 232Q377 261 361.50 279.50Q346 298 322 298Q294 298 274.50 276.50Q255 255 255 225Q255 197 271 180Q287 163 312 163M232 531L357 743L512 743L428 531L232 531Z"  horiz-adv-x="644" vert-adv-y="1000"  />

      
      <glyph glyph-name="uni0124" unicode="&#x0124;" d="M505 667L747 667L665 0L423 0L453 243L310 243L281 0L39 0L121 667L363 667L335 439L477 439L505 667M350 716L295 817L482 918L643 803L577 716L479 786L350 716Z"  horiz-adv-x="760" vert-adv-y="1000"  />

      
      <glyph glyph-name="uni0125" unicode="&#x0125;" d="M110 729L341 729L315 518Q306 447 290 393L299 390Q352 483 447 483Q509 483 551.50 440Q594 397 594 334Q594 308 590 281L556 0L324 0L352 226Q355 246 355 257Q355 292 325 292Q303 292 292.50 276.50Q282 261 277 218L251 0L20 0L110 729M115 763L60 864L247 965L408 850L342 763L244 833L115 763Z"  horiz-adv-x="632" vert-adv-y="1000"  />

      
      <glyph glyph-name="uni0126" unicode="&#x0126;" d="M281 0L39 0L98 482L38 482L56 624L116 624L121 667L363 667L358 624L500 624L505 667L747 667L742 624L802 624L784 482L724 482L665 0L423 0L453 242L310 242L281 0M484 482L340 482L331 408L475 408L484 482Z"  horiz-adv-x="760" vert-adv-y="1000"  />

      
      <glyph glyph-name="uni0127" unicode="&#x0127;" d="M125 642L135 729L366 729L356 642L521 642L507 522L341 522L340 518Q331 447 315 393L324 390Q377 483 472 483Q534 483 576.50 440Q619 397 619 334Q619 308 615 281L581 0L349 0L377 226Q380 246 380 257Q380 292 350 292Q328 292 317.50 276.50Q307 261 302 218L276 0L45 0L110 522L25 522L40 642L125 642Z"  horiz-adv-x="657" vert-adv-y="1000"  />

      
      <glyph glyph-name="uni012A" unicode="&#x012A;" d="M121 667L366 667L284 0L39 0L121 667M425 746L61 746L73 850L437 850L425 746Z"  horiz-adv-x="379" vert-adv-y="1000"  />

      
      <glyph glyph-name="uni012B" unicode="&#x012B;" d="M81 467L312 467L255 0L24 0L81 467M368 546L28 546L40 646L380 646L368 546Z"  horiz-adv-x="332" vert-adv-y="1000"  />

      
      <glyph glyph-name="uni012E" unicode="&#x012E;" d="M121 667L366 667L284 0Q264-14 244-34Q224-57 224-77Q224-90 234-100Q243-109 262-109Q298-109 325-84L292-179Q250-202 197-202Q148-202 124-180Q100-159 100-121Q100-78 139-41Q162-19 194 0L39 0L121 667Z"  horiz-adv-x="379" vert-adv-y="1000"  />

      
      <glyph glyph-name="uni012F" unicode="&#x012F;" d="M217 747Q269 747 307.50 714.50Q346 682 346 638Q346 596 308.50 560.50Q271 525 212 525Q156 525 120.50 557Q85 589 85 632Q85 679 124.50 713Q164 747 217 747M81 467L312 467L255 0Q226-23 219-31Q201-51 201-71Q201-83 210-91Q219-99 237-99Q266-99 292-76L263-163Q226-184 176-184Q130-184 107-161Q88-144 88-112Q88-70 123-37Q143-19 173 0L24 0L81 467Z"  horiz-adv-x="332" vert-adv-y="1000"  />

      
      <glyph glyph-name="uni0130" unicode="&#x0130;" d="M121 667L366 667L284 0L39 0L121 667M143 825Q143 868 173 898Q203 928 246 928Q288 928 318 898Q348 868 348 825Q348 783 318 753Q288 723 246 723Q203 723 173 753Q143 783 143 825Z"  horiz-adv-x="379" vert-adv-y="1000"  />

      
      <glyph glyph-name="uni0131" unicode="&#x0131;" d="M81 467L312 467L255 0L24 0L81 467Z"  horiz-adv-x="332" vert-adv-y="1000"  />

      
      <glyph glyph-name="uni0134" unicode="&#x0134;" d="M201 667L443 667L388 220Q383 182 378.50 158.50Q374 135 359.50 102.50Q345 70 322 46Q260-17 145-17Q36-17-34 35L44 251Q52 231 69 210Q85 191 108 191Q128 191 138 205Q146 218 150 251L201 667M210 716L155 817L342 918L503 803L437 716L339 786L210 716Z"  horiz-adv-x="456" vert-adv-y="1000"  />

      
      <glyph glyph-name="uni0135" unicode="&#x0135;" d="M86 467L317 467L232-229L1-229L86 467M90 533L35 634L222 735L383 620L317 533L219 603L90 533Z"  horiz-adv-x="337" vert-adv-y="1000"  />

      
      <glyph glyph-name="uni0136" unicode="&#x0136;" d="M121 667L363 667L341 494Q333 433 320 378L327 376Q347 427 369 461L392 498L498 667L780 667L520 329L690 0L435 0L350 192Q327 244 316 290L309 289L309 269Q309 230 304 192L281 0L39 0L121 667M447-62L322-274L167-274L251-62L447-62Z"  horiz-adv-x="732" vert-adv-y="1000"  />

      
      <glyph glyph-name="uni0137" unicode="&#x0137;" d="M110 729L341 729L307 450Q298 380 278 275L285 274Q302 318 346 383L403 467L678 467L477 226L611 0L355 0L313 91Q284 154 273 205L264 204Q267 165 267 147Q267 130 265 108L251 0L20 0L110 729M407-62L282-274L127-274L211-62L407-62Z"  horiz-adv-x="650" vert-adv-y="1000"  />

      
      <glyph glyph-name="uni0139" unicode="&#x0139;" d="M121 667L366 667L309 201L514 207L489 0L39 0L121 667M186 779L313 916L430 843L273 724L186 779Z"  horiz-adv-x="530" vert-adv-y="1000"  />

      
      <glyph glyph-name="uni013A" unicode="&#x013A;" d="M110 729L341 729L251 0L20 0L110 729M141 836L257 982L374 909L228 781L141 836Z"  horiz-adv-x="327" vert-adv-y="1000"  />

      
      <glyph glyph-name="uni013B" unicode="&#x013B;" d="M121 667L366 667L309 201L514 207L489 0L39 0L121 667M387-62L262-274L107-274L191-62L387-62Z"  horiz-adv-x="530" vert-adv-y="1000"  />

      
      <glyph glyph-name="uni013C" unicode="&#x013C;" d="M110 729L341 729L251 0L20 0L110 729M235-62L110-274L-45-274L39-62L235-62Z"  horiz-adv-x="327" vert-adv-y="1000"  />

      
      <glyph glyph-name="uni013D" unicode="&#x013D;" d="M121 667L366 667L309 201L514 207L489 0L39 0L121 667M666 667L540 449L388 449L473 667L666 667Z"  horiz-adv-x="596" vert-adv-y="1000"  />

      
      <glyph glyph-name="uni013E" unicode="&#x013E;" d="M110 729L341 729L251 0L20 0L110 729M636 667L510 449L358 449L443 667L636 667Z"  horiz-adv-x="566" vert-adv-y="1000"  />

      
      <glyph glyph-name="uni013F" unicode="&#x013F;" d="M121 667L366 667L309 201L514 207L489 0L39 0L121 667M389 370Q389 413 419 443Q449 473 492 473Q534 473 564 443Q594 413 594 370Q594 328 564 298Q534 268 492 268Q449 268 419 298Q389 328 389 370Z"  horiz-adv-x="560" vert-adv-y="1000"  />

      
      <glyph glyph-name="uni0140" unicode="&#x0140;" d="M110 729L341 729L251 0L20 0L110 729M349 354Q349 397 379 427Q409 457 452 457Q494 457 524 427Q554 397 554 354Q554 312 524 282Q494 252 452 252Q409 252 379 282Q349 312 349 354Z"  horiz-adv-x="540" vert-adv-y="1000"  />

      
      <glyph glyph-name="uni0141" unicode="&#x0141;" d="M521 0L75 0L103 230L10 175L30 337L123 392L157 667L399 667L376 483L499 556L479 394L356 321L343 215L547 215L521 0Z"  horiz-adv-x="563" vert-adv-y="1000"  />

      
      <glyph glyph-name="uni0142" unicode="&#x0142;" d="M406 729L379 516L490 584L472 442L362 374L316 0L85 0L120 279L10 211L26 353L137 421L175 729L406 729Z"  horiz-adv-x="460" vert-adv-y="1000"  />

      
      <glyph glyph-name="uni0143" unicode="&#x0143;" d="M554 667L799 667L717 0L483 0L367 230Q333 299 314 365L310 377L302 377Q306 337 306 297Q306 256 303 230L282 0L39 0L121 667L364 667L482 416Q504 369 524 298L530 276L540 277L538 299Q533 361 533 391Q533 435 537 470L554 667M386 779L513 916L630 843L473 724L386 779Z"  horiz-adv-x="812" vert-adv-y="1000"  />

      
      <glyph glyph-name="uni0144" unicode="&#x0144;" d="M77 467L309 467Q301 422 286 384L294 382Q329 438 362.50 461Q396 484 441 484Q507 484 550.50 440.50Q594 397 594 332Q594 308 589 261L557 0L325 0L353 226Q356 246 356 257Q356 292 326 292Q303 292 293 277Q283 262 278 218L251 0L20 0L77 467M281 596L397 742L514 669L368 541L281 596Z"  horiz-adv-x="633" vert-adv-y="1000"  />

      
      <glyph glyph-name="uni0145" unicode="&#x0145;" d="M554 667L799 667L717 0L483 0L367 230Q333 299 314 365L310 377L302 377Q306 337 306 297Q306 256 303 230L282 0L39 0L121 667L364 667L482 416Q504 369 524 298L530 276L540 277L538 299Q533 361 533 391Q533 435 537 470L554 667M487-62L362-274L207-274L291-62L487-62Z"  horiz-adv-x="812" vert-adv-y="1000"  />

      
      <glyph glyph-name="uni0146" unicode="&#x0146;" d="M77 467L309 467Q301 422 286 384L294 382Q329 438 362.50 461Q396 484 441 484Q507 484 550.50 440.50Q594 397 594 332Q594 308 589 261L557 0L325 0L353 226Q356 246 356 257Q356 292 326 292Q303 292 293 277Q283 262 278 218L251 0L20 0L77 467M397-62L272-274L117-274L201-62L397-62Z"  horiz-adv-x="633" vert-adv-y="1000"  />

      
      <glyph glyph-name="uni0147" unicode="&#x0147;" d="M554 667L799 667L717 0L483 0L367 230Q333 299 314 365L310 377L302 377Q306 337 306 297Q306 256 303 230L282 0L39 0L121 667L364 667L482 416Q504 369 524 298L530 276L540 277L538 299Q533 361 533 391Q533 435 537 470L554 667M583 918L638 817L451 716L290 831L357 918L454 848L583 918Z"  horiz-adv-x="812" vert-adv-y="1000"  />

      
      <glyph glyph-name="uni0148" unicode="&#x0148;" d="M77 467L309 467Q301 422 286 384L294 382Q329 438 362.50 461Q396 484 441 484Q507 484 550.50 440.50Q594 397 594 332Q594 308 589 261L557 0L325 0L353 226Q356 246 356 257Q356 292 326 292Q303 292 293 277Q283 262 278 218L251 0L20 0L77 467M478 735L533 634L346 533L185 648L252 735L349 665L478 735Z"  horiz-adv-x="633" vert-adv-y="1000"  />

      
      <glyph glyph-name="uni014C" unicode="&#x014C;" d="M675 591Q786 500 786 339Q786 187 681.50 85Q577-17 421-17Q263-17 155.50 81Q48 179 48 324Q48 475 154.50 579Q261 683 416 683Q566 683 675 591M410 193Q467 193 504.50 233.50Q542 274 542 335Q542 388 508 425Q474 462 424 462Q369 462 330.50 421Q292 380 292 322Q292 266 325.50 229.50Q359 193 410 193M600 746L236 746L248 850L612 850L600 746Z"  horiz-adv-x="808" vert-adv-y="1000"  />

      
      <glyph glyph-name="uni014D" unicode="&#x014D;" d="M320 493Q451 493 531 424.50Q611 356 611 244Q611 134 528 60.50Q445-13 321-13Q194-13 111.50 57.50Q29 128 29 236Q29 347 112 420Q195 493 320 493M318 169Q346 169 364 190.50Q382 212 382 244Q382 272 365.50 291Q349 310 324 310Q297 310 277.50 288Q258 266 258 235Q258 206 275 187.50Q292 169 318 169M503 546L163 546L175 646L515 646L503 546Z"  horiz-adv-x="637" vert-adv-y="1000"  />

      
      <glyph glyph-name="uni014E" unicode="&#x014E;" d="M675 591Q786 500 786 339Q786 187 681.50 85Q577-17 421-17Q263-17 155.50 81Q48 179 48 324Q48 475 154.50 579Q261 683 416 683Q566 683 675 591M410 193Q467 193 504.50 233.50Q542 274 542 335Q542 388 508 425Q474 462 424 462Q369 462 330.50 421Q292 380 292 322Q292 266 325.50 229.50Q359 193 410 193M512 875L614 875Q603 814 561 772Q511 723 428 723Q358 723 316 754Q262 793 260 875L362 875Q366 849 381 835Q397 819 433 819Q464 819 484 834Q504 849 512 875Z"  horiz-adv-x="808" vert-adv-y="1000"  />

      
      <glyph glyph-name="uni014F" unicode="&#x014F;" d="M320 493Q451 493 531 424.50Q611 356 611 244Q611 134 528 60.50Q445-13 321-13Q194-13 111.50 57.50Q29 128 29 236Q29 347 112 420Q195 493 320 493M318 169Q346 169 364 190.50Q382 212 382 244Q382 272 365.50 291Q349 310 324 310Q297 310 277.50 288Q258 266 258 235Q258 206 275 187.50Q292 169 318 169M422 691L524 691Q513 630 471 588Q422 539 337 539Q268 539 226 570Q172 609 170 691L272 691Q276 665 291 651Q307 635 343 635Q374 635 394 650Q414 665 422 691Z"  horiz-adv-x="637" vert-adv-y="1000"  />

      
      <glyph glyph-name="uni0150" unicode="&#x0150;" d="M675 591Q786 500 786 339Q786 187 681.50 85Q577-17 421-17Q263-17 155.50 81Q48 179 48 324Q48 475 154.50 579Q261 683 416 683Q566 683 675 591M410 193Q467 193 504.50 233.50Q542 274 542 335Q542 388 508 425Q474 462 424 462Q369 462 330.50 421Q292 380 292 322Q292 266 325.50 229.50Q359 193 410 193M460 779L571 916L682 843L539 724L460 779M242 779L353 916L464 843L321 724L242 779Z"  horiz-adv-x="808" vert-adv-y="1000"  />

      
      <glyph glyph-name="uni0151" unicode="&#x0151;" d="M320 493Q451 493 531 424.50Q611 356 611 244Q611 134 528 60.50Q445-13 321-13Q194-13 111.50 57.50Q29 128 29 236Q29 347 112 420Q195 493 320 493M318 169Q346 169 364 190.50Q382 212 382 244Q382 272 365.50 291Q349 310 324 310Q297 310 277.50 288Q258 266 258 235Q258 206 275 187.50Q292 169 318 169M145 596L245 742L357 669L224 541L145 596M349 596L449 742L560 669L428 541L349 596Z"  horiz-adv-x="637" vert-adv-y="1000"  />

      
      <glyph glyph-name="uni0152" unicode="&#x0152;" d="M561 667L994 667L973 493L778 493L769 420L947 420L927 255L748 255L739 179L942 179L920 0L479 0L489 83Q458 48 437.50 31Q417 14 386 1Q344-17 303-17Q199-17 123.50 83Q48 183 48 321Q48 470 140 576.50Q232 683 361 683Q450 683 513 614Q522 604 549 571L561 667M326 238.50Q326 238.50 343 219.75Q360 201 412 201Q464 201 498 241.50Q532 282 532 344Q532 402 500 438.50Q468 475 418 475Q364 475 328 434.50Q292 394 292 334Q292 276 326 238.50Z"  horiz-adv-x="984" vert-adv-y="1000"  />

      
      <glyph glyph-name="uni0153" unicode="&#x0153;" d="M913 199L583 199Q583 157 600 140Q613 127 634 127Q652 127 663 138Q673 148 675 161L904 161Q884 76 809 28Q746-13 653-13Q579-13 530 11Q485 33 456 78Q419 31 375 10Q329-13 266-13Q167-13 102 52Q29 125 29 230Q29 340 108 419Q182 493 296 493Q357 493 404 465Q445 441 475 397Q504 439 548 464Q598 493 665 493Q778 493 847 420Q916 346 916 239Q916 218 913 199M309 171Q330 171 348 189Q371 214 371 248Q371 277 356 292Q341 307 319 307Q298 307 281 292Q257 271 257 231Q257 204 273 187Q289 171 309 171M593 300L702 300Q698 330 682 346Q669 359 648 359Q626 359 610 341Q595 323 593 300Z"  horiz-adv-x="945" vert-adv-y="1000"  />

      
      <glyph glyph-name="uni0154" unicode="&#x0154;" d="M607 300Q584 282 564.50 274Q545 266 508 261L653 0L391 0L331 161Q312 213 305 250L298 249Q299 227 299 200Q299 154 294 112L281 0L39 0L121 667L386 667Q467 667 512.50 655Q558 643 596 613Q674 548 674 447Q674 354 607 300M360 488L341 488L326 368L346 368Q388 368 412.50 386Q437 404 437 434Q437 488 360 488M276 779L403 916L520 843L363 724L276 779Z"  horiz-adv-x="701" vert-adv-y="1000"  />

      
      <glyph glyph-name="uni0155" unicode="&#x0155;" d="M425 484Q435 484 454 480L426 250Q393 267 372 267Q287 267 270 137L253 0L20 0L77 467L311 467Q302 426 285 384L295 379Q327 437 356.50 460.50Q386 484 425 484M176 596L292 742L409 669L263 541L176 596Z"  horiz-adv-x="430" vert-adv-y="1000"  />

      
      </font>
</defs>
</svg>
