<?xml version="1.0" standalone="no"?>
  <!DOCTYPE svg PUBLIC "-//W3C//DTD SVG 1.1//EN" "http://www.w3.org/Graphics/SVG/1.1/DTD/svg11.dtd" >
  <svg>
  <metadata>
  Created by font-carrier
  </metadata>
  <defs>
  <font id="FuturaPT-Demi" horiz-adv-x="1170" vert-adv-y="1170" >
    <font-face
      
      font-family="Futura PT Demi"
      
      font-weight="400"
      
      font-stretch="normal"
      
      units-per-em="1000"
      
      ascent="982"
      
      descent="-300"
      
    />
      <missing-glyph />

      

      
      <glyph glyph-name="uni21" unicode="&#x21;" d="M188 203L64 203L64 667L188 667L188 203M70.50 9.50Q70.50 9.50 59.25 20.75Q48 32 48 65Q48 98 70.50 120.50Q93 143 126 143Q159 143 181.50 120.50Q204 98 204 65Q204 32 181.50 9.50Q159-13 126-13Q93-13 70.50 9.50Z"  horiz-adv-x="252" vert-adv-y="1000"  />

      
      <glyph glyph-name="uni22" unicode="&#x22;" d="M172 667L149 399L65 399L42 667L172 667M346 667L323 399L239 399L216 667L346 667Z"  horiz-adv-x="388" vert-adv-y="1000"  />

      
      <glyph glyph-name="uni23" unicode="&#x23;" d="M420 0L298 0L328 186L234 186L204 0L82 0L112 186L10 186L27 290L129 290L145 391L43 391L60 495L162 495L190 667L312 667L284 495L378 495L406 667L528 667L500 495L602 495L585 391L483 391L467 290L569 290L552 186L450 186L420 0M345 290L361 391L267 391L251 290L345 290Z"  horiz-adv-x="600" vert-adv-y="1000"  />

      
      <glyph glyph-name="uni24" unicode="&#x24;" d="M248 765L330 765L330 665Q372 662 412 642Q453 620 480 590L414 506Q370 560 309 560Q264 560 241 536Q222 517 222 489Q222 461 248 442Q263 431 330 401Q335 399 353.50 391Q372 383 381 378.50Q390 374 404.50 366.50Q419 359 430 350.50Q441 342 451 333Q502 285 502 209Q502 118 442 60Q397 15 330 2L330-110L248-110L248 0Q178 8 121 46Q78 75 48 119L123 196Q150 156 180 136Q218 108 271 108Q320 108 347 134Q372 159 372 196Q372 226 349 251Q337 264 277 290Q187 326 144 367Q97 411 97 482Q97 553 142 604Q185 651 248 665L248 765Z"  horiz-adv-x="568" vert-adv-y="1000"  />

      
      <glyph glyph-name="uni25" unicode="&#x25;" d="M75.50 630.50Q75.50 630.50 98.25 652.75Q121 675 198 675Q275 675 320.50 630.50Q366 586 366 517Q366 448 320.50 403.50Q275 359 198 359Q121 359 75.50 403.50Q30 448 30 517Q30 586 75.50 630.50M137.50 455Q137.50 455 149.25 443Q161 431 198 431Q235 431 258.50 455Q282 479 282 517Q282 555 258.50 579Q235 603 198 603Q161 603 137.50 579Q114 555 114 517Q114 479 137.50 455M162 3L559 689L612 659L215-28L162 3M453.50 261.50Q453.50 261.50 476.25 283.75Q499 306 576 306Q653 306 698.50 261.50Q744 217 744 148Q744 79 698.50 34.50Q653-10 576-10Q499-10 453.50 34.50Q408 79 408 148Q408 217 453.50 261.50M515.50 86Q515.50 86 527.25 74Q539 62 576 62Q613 62 636.50 86Q660 110 660 148Q660 186 636.50 210Q613 234 576 234Q539 234 515.50 210Q492 186 492 148Q492 110 515.50 86Z"  horiz-adv-x="774" vert-adv-y="1000"  />

      
      <glyph glyph-name="uni26" unicode="&#x26;" d="M578 324L654 249Q618 204 582 168L567 153L702 0L541 0L476 75Q376-15 261-15Q164-15 108 42Q52 99 52 176Q52 281 159 345L211 376Q144 443 144 516Q144 584 192 633Q240 682 328 682Q411 682 459 635Q507 588 507 523Q507 432 413 375L385 358L495 232Q549 285 578 324M403 157L277 302Q182 252 182 187Q182 149 210 124Q238 99 280 99Q345 99 403 157M294 463L323 427L353 448Q399 480 399 522Q399 549 382.50 568.50Q366 588 334 588Q301 588 283.50 569.50Q266 551 266 526Q266 497 294 463Z"  horiz-adv-x="710" vert-adv-y="1000"  />

      
      <glyph glyph-name="uni27" unicode="&#x27;" d="M172 667L149 399L65 399L42 667L172 667Z"  horiz-adv-x="214" vert-adv-y="1000"  />

      
      <glyph glyph-name="uni28" unicode="&#x28;" d="M264-127L167-180Q119-90 93 26Q68 140 68 280Q68 411 91 520Q117 639 167 740L264 687Q231 619 209 519Q184 397 184 280Q184 152 209 37Q228-54 264-127Z"  horiz-adv-x="320" vert-adv-y="1000"  />

      
      <glyph glyph-name="uni29" unicode="&#x29;" d="M153-180L56-127Q92-54 111 37Q136 152 136 280Q136 397 111 519Q89 619 56 687L153 740Q203 639 229 520Q252 411 252 280Q252 140 227 26Q201-90 153-180Z"  horiz-adv-x="320" vert-adv-y="1000"  />

      
      <glyph glyph-name="uni2a" unicode="&#x2a;" d="M144 681L258 623L238 749L330 749L310 623L424 682L452 594L325 574L416 484L341 430L284 545L227 429L152 483L243 574L116 593L144 681Z"  horiz-adv-x="568" vert-adv-y="1000"  />

      
      <glyph glyph-name="uni2b" unicode="&#x2b;" d="M33 283L33 395L189 395L189 551L311 551L311 395L467 395L467 283L311 283L311 127L189 127L189 283L33 283Z"  horiz-adv-x="500" vert-adv-y="1000"  />

      
      <glyph glyph-name="uni2c" unicode="&#x2c;" d="M4-131L110 138L222 125L81-140L4-131Z"  horiz-adv-x="328" vert-adv-y="1000"  />

      
      <glyph glyph-name="uni2d" unicode="&#x2d;" d="M50 174L50 286L310 286L310 174L50 174Z"  horiz-adv-x="360" vert-adv-y="1000"  />

      
      <glyph glyph-name="uni2e" unicode="&#x2e;" d="M70.50 9.50Q70.50 9.50 59.25 20.75Q48 32 48 65Q48 98 70.50 120.50Q93 143 126 143Q159 143 181.50 120.50Q204 98 204 65Q204 32 181.50 9.50Q159-13 126-13Q93-13 70.50 9.50Z"  horiz-adv-x="252" vert-adv-y="1000"  />

      
      <glyph glyph-name="uni2f" unicode="&#x2f;" d="M-20-170L505 759L593 719L68-210L-20-170Z"  horiz-adv-x="653" vert-adv-y="1000"  />

      
      <glyph glyph-name="uni30" unicode="&#x30;" d="M466.50 77.50Q466.50 77.50 428.75 31.25Q391-15 284-15Q177-15 101.50 77.50Q26 170 26 334Q26 497 101.50 589.50Q177 682 284 682Q391 682 466.50 589.50Q542 497 542 333Q542 170 466.50 77.50M372.50 511.50Q372.50 511.50 352.75 540.75Q333 570 284 570Q235 570 195.50 511.50Q156 453 156 334Q156 215 195 156Q234 97 284 97Q334 97 373 156Q412 215 412 334Q412 453 372.50 511.50Z"  horiz-adv-x="568" vert-adv-y="1000"  />

      
      <glyph glyph-name="uni31" unicode="&#x31;" d="M228 0L228 555L132 555L132 667L358 667L358 0L228 0Z"  horiz-adv-x="568" vert-adv-y="1000"  />

      
      <glyph glyph-name="uni32" unicode="&#x32;" d="M18 0L214 223Q310 335 328 362Q367 420 367 469Q367 514 338.50 542Q310 570 268 570Q220 570 192 537.50Q164 505 162 459L28 459Q32 560 97 621Q162 682 262 682Q372 682 434.50 619Q497 556 497 470Q497 422 475 374Q453 326 433 301.50Q413 277 376 237L261 112L502 112L502 0L18 0Z"  horiz-adv-x="568" vert-adv-y="1000"  />

      
      <glyph glyph-name="uni33" unicode="&#x33;" d="M173 493L51 493Q60 582 120 632Q180 682 268 682Q364 682 420.50 632Q477 582 477 498Q477 401 400 358Q502 316 502 199Q502 99 434.50 42Q367-15 264-15Q166-15 99 41.50Q32 98 24 192L154 192Q160 149 189 123Q218 97 265 97Q317 97 344.50 128.50Q372 160 372 203Q372 245 344.50 276Q317 307 261 307L244 307L244 401L262 401Q307 401 330 427.50Q353 454 353 492Q353 532 329 556Q305 580 265 580Q228 580 201.50 557Q175 534 173 493Z"  horiz-adv-x="568" vert-adv-y="1000"  />

      
      <glyph glyph-name="uni34" unicode="&#x34;" d="M470 667L470 230L548 230L548 126L470 126L470 0L348 0L348 126L22 126L22 184L353 667L470 667M176 230L348 230L348 484L176 230Z"  horiz-adv-x="568" vert-adv-y="1000"  />

      
      <glyph glyph-name="uni35" unicode="&#x35;" d="M472 667L472 555L250 555L226 450Q252 454 271 454Q378 454 443 387Q502 327 502 227Q502 121 434 53Q366-15 251-15Q164-15 107 13Q64 34 26 70L69 182Q98 143 138 122Q184 97 235 97Q299 97 337 137Q372 174 372 234Q372 291 333 326Q294 360 229 360Q157 360 85 317L164 667L472 667Z"  horiz-adv-x="568" vert-adv-y="1000"  />

      
      <glyph glyph-name="uni36" unicode="&#x36;" d="M310 685L415 634L253 423Q289 439 326 439Q414 439 473 382Q536 323 536 222Q536 127 475 61Q405-15 285-15Q163-15 95 53Q30 118 30 215Q30 312 114 423L310 685M283 89Q336 89 370 123Q406 159 406 211Q406 268 369 303Q336 335 283 335Q230 335 196 299Q160 262 160 212Q160 156 197 122Q232 89 283 89Z"  horiz-adv-x="568" vert-adv-y="1000"  />

      
      <glyph glyph-name="uni37" unicode="&#x37;" d="M49 29L356 555L46 555L46 667L560 667L159-20L49 29Z"  horiz-adv-x="568" vert-adv-y="1000"  />

      
      <glyph glyph-name="uni38" unicode="&#x38;" d="M397 348Q452 330 484 285Q516 240 516 182Q516 97 452.50 41Q389-15 284-15Q179-15 115.50 41Q52 97 52 182Q52 240 84 285Q116 330 171 348Q129 369 102 406.50Q75 444 75 496Q75 574 130 628Q185 682 284 682Q383 682 438 628Q493 574 493 496Q493 444 466 406.50Q439 369 397 348M217 428Q217 428 230 415Q243 402 284 402Q325 402 351 428Q377 454 377 495Q377 536 351 562Q325 588 284 588Q243 588 217 562Q191 536 191 495Q191 454 217 428M211 116.50Q211 116.50 225.50 101.75Q240 87 284 87Q328 87 357 116.50Q386 146 386 191Q386 236 357 265.50Q328 295 284 295Q240 295 211 265.50Q182 236 182 191Q182 146 211 116.50Z"  horiz-adv-x="568" vert-adv-y="1000"  />

      
      <glyph glyph-name="uni39" unicode="&#x39;" d="M258-18L153 33L312 241Q273 228 241 228Q204 228 163.50 243Q123 258 95 285Q32 344 32 445Q32 540 93 606Q163 682 283 682Q405 682 473 614Q538 549 538 452Q538 355 454 244L258-18M285 578Q232 578 198 544Q162 508 162 456Q162 399 199 364Q232 332 285 332Q337 332 372 368Q408 406 408 455Q408 510 371 545Q336 578 285 578Z"  horiz-adv-x="568" vert-adv-y="1000"  />

      
      <glyph glyph-name="uni3a" unicode="&#x3a;" d="M70.50 313.50Q70.50 313.50 59.25 324.75Q48 336 48 369Q48 402 70.50 424.50Q93 447 126 447Q159 447 181.50 424.50Q204 402 204 369Q204 336 181.50 313.50Q159 291 126 291Q93 291 70.50 313.50M70.50 8.50Q70.50 8.50 59.25 19.75Q48 31 48 64Q48 97 70.50 119.50Q93 142 126 142Q159 142 181.50 119.50Q204 97 204 64Q204 31 181.50 8.50Q159-14 126-14Q93-14 70.50 8.50Z"  horiz-adv-x="252" vert-adv-y="1000"  />

      
      <glyph glyph-name="uni3b" unicode="&#x3b;" d="M106.50 313.50Q106.50 313.50 95.25 324.75Q84 336 84 369Q84 402 106.50 424.50Q129 447 162 447Q195 447 217.50 424.50Q240 402 240 369Q240 336 217.50 313.50Q195 291 162 291Q129 291 106.50 313.50M4-131L110 138L222 125L81-140L4-131Z"  horiz-adv-x="328" vert-adv-y="1000"  />

      
      <glyph glyph-name="uni3c" unicode="&#x3c;" d="M161 334L467 184L467 64L33 282L33 386L467 604L467 484L161 334Z"  horiz-adv-x="500" vert-adv-y="1000"  />

      
      <glyph glyph-name="uni3d" unicode="&#x3d;" d="M33 372L33 478L467 478L467 372L33 372M33 200L33 306L467 306L467 200L33 200Z"  horiz-adv-x="500" vert-adv-y="1000"  />

      
      <glyph glyph-name="uni3e" unicode="&#x3e;" d="M339 334L33 484L33 604L467 386L467 282L33 64L33 184L339 334Z"  horiz-adv-x="500" vert-adv-y="1000"  />

      
      <glyph glyph-name="uni3f" unicode="&#x3f;" d="M283 203L159 203L159 399Q175 395 198 395Q258 395 292 429Q318 457 318 496Q318 533 297 554Q277 574 245 574Q212 574 194 556Q172 536 172 491L42 491Q42 572 92 626Q146 682 250 682Q344 682 396 631Q448 581 448 493Q448 415 397 364Q350 317 283 308L283 203M165.50 7.50Q165.50 7.50 154.25 18.75Q143 30 143 63Q143 96 165.50 118.50Q188 141 221 141Q254 141 276.50 118.50Q299 96 299 63Q299 30 276.50 7.50Q254-15 221-15Q188-15 165.50 7.50Z"  horiz-adv-x="490" vert-adv-y="1000"  />

      
      <glyph glyph-name="uni40" unicode="&#x40;" d="M468 450L476 492L560 492L520 289Q516 269 516 255Q516 221 542 221Q564 221 588 254Q627 307 627 379Q627 469 565.50 536Q504 603 388 603Q301 603 237 559.50Q173 516 144 455Q115 394 115 327Q115 244 159 175.50Q203 107 276 80Q324 63 387 63Q483 63 574 96L593 20Q498-12 393-12Q233-12 138 76Q85 125 59 191.50Q33 258 33 328Q33 483 134.50 580.50Q236 678 388 678Q535 678 618 592Q701 506 701 386Q701 286 650.50 219.50Q600 153 536 153Q508 153 486.50 167.50Q465 182 459 209Q413 145 336 145Q276 145 235.50 186.50Q195 228 195 302Q195 394 248.50 448Q302 502 369 502Q438 502 468 450M358 230Q392 230 419 261Q446 292 446 341Q446 372 429.50 393.50Q413 415 381 415Q343 415 316.50 383.50Q290 352 290 306Q290 269 310.50 249.50Q331 230 358 230Z"  horiz-adv-x="734" vert-adv-y="1000"  />

      
      <glyph glyph-name="uni41" unicode="&#x41;" d="M530 0L471 140L202 140L143 0L2 0L289 667L391 667L670 0L530 0M243 246L433 246L338 486L243 246Z"  horiz-adv-x="672" vert-adv-y="1000"  />

      
      <glyph glyph-name="uni42" unicode="&#x42;" d="M76 667L241 667Q350 667 404 625Q466 577 466 487Q466 398 391 356Q442 348 478 314Q526 268 526 189Q526 105 469 54Q408 0 300 0L76 0L76 667M206 561L206 390L243 390Q253 390 261.50 390.50Q270 391 286.50 396Q303 401 314.50 409.50Q326 418 335 435.50Q344 453 344 477Q344 520 316 540.50Q288 561 244 561L206 561M206 290L206 106L262 106Q320 106 351 124Q392 148 392 201Q392 255 343 277Q315 290 254 290L206 290Z"  horiz-adv-x="570" vert-adv-y="1000"  />

      
      <glyph glyph-name="uni43" unicode="&#x43;" d="M560 176L560 24Q486-15 395-15Q249-15 151 78Q44 181 44 333Q44 495 151 594Q245 682 396 682Q484 682 560 641L560 489Q495 564 399 564Q301 564 239.50 495.50Q178 427 178 331Q178 226 246 164.50Q314 103 404 103Q498 103 560 176Z"  horiz-adv-x="604" vert-adv-y="1000"  />

      
      <glyph glyph-name="uni44" unicode="&#x44;" d="M76 667L250 667Q329 667 388 653.50Q447 640 498 602Q559 556 592.50 486Q626 416 626 333Q626 158 492 64Q438 26 382 13Q326 0 248 0L76 0L76 667M206 555L206 112L246 112Q348 112 409 156Q448 184 470 231.50Q492 279 492 333Q492 386 470.50 433.50Q449 481 410 511Q351 555 246 555L206 555Z"  horiz-adv-x="670" vert-adv-y="1000"  />

      
      <glyph glyph-name="uni45" unicode="&#x45;" d="M446 667L446 555L206 555L206 406L436 406L436 294L206 294L206 112L446 112L446 0L76 0L76 667L446 667Z"  horiz-adv-x="496" vert-adv-y="1000"  />

      
      <glyph glyph-name="uni46" unicode="&#x46;" d="M430 667L430 555L206 555L206 406L416 406L416 294L206 294L206 0L76 0L76 667L430 667Z"  horiz-adv-x="466" vert-adv-y="1000"  />

      
      <glyph glyph-name="uni47" unicode="&#x47;" d="M414 245L414 357L720 357L720 349Q720 170 622 73Q534-15 385-15Q233-15 143 75Q44 174 44 332Q44 482 142 580Q242 682 405 682Q493 682 559 647Q636 608 684 525L571 464Q544 516 493 543Q451 564 399 564Q305 564 245 505Q178 440 178 329Q178 224 244 160Q303 103 392 103Q470 103 523 143Q571 180 586 245L414 245Z"  horiz-adv-x="764" vert-adv-y="1000"  />

      
      <glyph glyph-name="uni48" unicode="&#x48;" d="M206 667L206 409L488 409L488 667L618 667L618 0L488 0L488 297L206 297L206 0L76 0L76 667L206 667Z"  horiz-adv-x="694" vert-adv-y="1000"  />

      
      <glyph glyph-name="uni49" unicode="&#x49;" d="M76 667L206 667L206 0L76 0L76 667Z"  horiz-adv-x="282" vert-adv-y="1000"  />

      
      <glyph glyph-name="uni4a" unicode="&#x4a;" d="M184 667L314 667L314 217Q314 68 236 15Q190-15 127-15Q39-15-26 47L53 142Q78 106 118 106Q154 106 169 129Q184 151 184 237L184 667Z"  horiz-adv-x="390" vert-adv-y="1000"  />

      
      <glyph glyph-name="uni4b" unicode="&#x4b;" d="M206 667L206 385L451 667L615 667L333 359L630 0L458 0L221 299L206 284L206 0L76 0L76 667L206 667Z"  horiz-adv-x="636" vert-adv-y="1000"  />

      
      <glyph glyph-name="uni4c" unicode="&#x4c;" d="M76 667L206 667L206 112L412 112L412 0L76 0L76 667Z"  horiz-adv-x="426" vert-adv-y="1000"  />

      
      <glyph glyph-name="uni4d" unicode="&#x4d;" d="M42 0L166 667L260 667L437 243L622 667L716 667L828 0L696 0L636 411L457 0L413 0L242 411L174 0L42 0Z"  horiz-adv-x="870" vert-adv-y="1000"  />

      
      <glyph glyph-name="uni4e" unicode="&#x4e;" d="M206 0L76 0L76 667L166 667L572 222L572 667L702 667L702 0L612 0L206 446L206 0Z"  horiz-adv-x="778" vert-adv-y="1000"  />

      
      <glyph glyph-name="uni4f" unicode="&#x4f;" d="M143.50 584Q143.50 584 193.25 633Q243 682 400 682Q557 682 656.50 584Q756 486 756 333Q756 180 656.50 82.50Q557-15 400-15Q243-15 143.50 82.50Q44 180 44 333Q44 486 143.50 584M240 167.50Q240 167.50 271 135.25Q302 103 400 103Q498 103 560 167.50Q622 232 622 333Q622 434 559.50 499Q497 564 400 564Q303 564 240.50 499Q178 434 178 333Q178 232 240 167.50Z"  horiz-adv-x="800" vert-adv-y="1000"  />

      
      <glyph glyph-name="uni50" unicode="&#x50;" d="M76 667L270 667Q332 667 371.50 656.50Q411 646 446 616Q514 556 514 455Q514 361 459 306Q400 247 290 247L206 247L206 0L76 0L76 667M206 555L206 359L259 359Q316 359 344 380Q380 408 380 458Q380 507 343 534Q313 555 251 555L206 555Z"  horiz-adv-x="534" vert-adv-y="1000"  />

      
      <glyph glyph-name="uni51" unicode="&#x51;" d="M645-26L590 33Q509-15 400-15Q243-15 143.50 82.50Q44 180 44 333Q44 486 143.50 584Q243 682 400 682Q557 682 656.50 584Q756 486 756 333Q756 194 668 96L776-13L645-26M501 268L578 189Q622 248 622 333Q622 434 559.50 499Q497 564 400 564Q303 564 240.50 499Q178 434 178 333Q178 232 240.50 167.50Q303 103 403 103Q458 103 502 125L366 257L501 268Z"  horiz-adv-x="800" vert-adv-y="1000"  />

      
      <glyph glyph-name="uni52" unicode="&#x52;" d="M76 667L269 667Q379 667 439 617Q505 561 505 467Q505 363 427 310Q397 289 354 281L562 0L400 0L222 268L206 268L206 0L76 0L76 667M206 561L206 360L243 360Q259 360 274.50 362.50Q290 365 315 373.50Q340 382 355.50 404.50Q371 427 371 461Q371 495 356 517.50Q341 540 316 548.50Q291 557 276 559Q261 561 245 561L206 561Z"  horiz-adv-x="574" vert-adv-y="1000"  />

      
      <glyph glyph-name="uni53" unicode="&#x53;" d="M472 604L404 515Q361 572 295 572Q247 572 225 548.50Q203 525 203 494Q203 467 224 449Q240 434 304 411Q403 377 439 344Q496 293 496 204Q496 106 431.50 45.50Q367-15 264-15Q120-15 34 111L119 192Q141 147 180 125Q219 103 259 103Q304 103 333 128.50Q362 154 362 195Q362 230 336 255Q312 277 233 304Q159 329 122 362Q69 408 69 486Q69 567 124 624.50Q179 682 283 682Q396 682 472 604Z"  horiz-adv-x="534" vert-adv-y="1000"  />

      
      <glyph glyph-name="uni54" unicode="&#x54;" d="M436 555L286 555L286 0L156 0L156 555L6 555L6 667L436 667L436 555Z"  horiz-adv-x="442" vert-adv-y="1000"  />

      
      <glyph glyph-name="uni55" unicode="&#x55;" d="M76 667L206 667L206 248Q206 185 238 149Q276 103 344 103Q412 103 450 149Q482 185 482 248L482 667L612 667L612 259Q612 145 562 81Q527 35 468.50 10Q410-15 344-15Q278-15 219.50 10Q161 35 126 81Q76 145 76 259L76 667Z"  horiz-adv-x="688" vert-adv-y="1000"  />

      
      <glyph glyph-name="uni56" unicode="&#x56;" d="M2 667L144 667L322 219L500 667L642 667L360 0L282 0L2 667Z"  horiz-adv-x="644" vert-adv-y="1000"  />

      
      <glyph glyph-name="uni57" unicode="&#x57;" d="M485 423L332 0L234 0L2 667L140 667L289 213L452 673L524 673L678 213L838 667L976 667L729 0L631 0L485 423Z"  horiz-adv-x="978" vert-adv-y="1000"  />

      
      <glyph glyph-name="uni58" unicode="&#x58;" d="M8 0L244 352L45 667L201 667L318 460L441 667L597 667L392 352L620 0L464 0L318 244L164 0L8 0Z"  horiz-adv-x="640" vert-adv-y="1000"  />

      
      <glyph glyph-name="uni59" unicode="&#x59;" d="M227 0L227 305L-2 667L152 667L295 435L438 667L592 667L357 305L357 0L227 0Z"  horiz-adv-x="590" vert-adv-y="1000"  />

      
      <glyph glyph-name="uni5a" unicode="&#x5a;" d="M562 667L238 112L546 112L546 0L22 0L346 555L73 555L73 667L562 667Z"  horiz-adv-x="584" vert-adv-y="1000"  />

      
      <glyph glyph-name="uni5b" unicode="&#x5b;" d="M300 625L206 625L206-76L300-76L300-180L90-180L90 729L300 729L300 625Z"  horiz-adv-x="350" vert-adv-y="1000"  />

      
      <glyph glyph-name="uni5c" unicode="&#x5c;" d="M673-170L585-210L60 719L148 759L673-170Z"  horiz-adv-x="653" vert-adv-y="1000"  />

      
      <glyph glyph-name="uni5d" unicode="&#x5d;" d="M50-76L144-76L144 625L50 625L50 729L260 729L260-180L50-180L50-76Z"  horiz-adv-x="350" vert-adv-y="1000"  />

      
      <glyph glyph-name="uni5e" unicode="&#x5e;" d="M250 577L135 336L8 336L170 667L330 667L492 336L365 336L250 577Z"  horiz-adv-x="500" vert-adv-y="1000"  />

      
      <glyph glyph-name="uni5f" unicode="&#x5f;" d="M0-158L0-54L500-54L500-158L0-158Z"  horiz-adv-x="500" vert-adv-y="1000"  />

      
      <glyph glyph-name="uni60" unicode="&#x60;" d="M244 510L94 644L182 700L300 550L244 510Z"  horiz-adv-x="500" vert-adv-y="1000"  />

      
      <glyph glyph-name="uni61" unicode="&#x61;" d="M390 377L390 433L512 433L512 0L390 0L390 56Q341-14 257-14Q159-14 97.50 53Q36 120 36 217Q36 315 96 381Q156 447 251 447Q345 447 390 377M368 304Q368 304 351 321.50Q334 339 282 339Q230 339 196 304Q162 269 162 217Q162 165 196 129.50Q230 94 282 94Q334 94 368 129.50Q402 165 402 217Q402 269 368 304Z"  horiz-adv-x="570" vert-adv-y="1000"  />

      
      <glyph glyph-name="uni62" unicode="&#x62;" d="M180 729L180 377Q230 447 321 447Q416 447 475 382Q534 317 534 217Q534 117 473.50 51.50Q413-14 318-14Q231-14 180 56L180 0L58 0L58 729L180 729M374 304Q374 304 357 321.50Q340 339 288 339Q236 339 202 304Q168 269 168 217Q168 165 202 129.50Q236 94 288 94Q340 94 374 129.50Q408 165 408 217Q408 269 374 304Z"  horiz-adv-x="570" vert-adv-y="1000"  />

      
      <glyph glyph-name="uni63" unicode="&#x63;" d="M384 421L384 301Q343 339 284 339Q226 339 194 303.50Q162 268 162 217Q162 164 197.50 129Q233 94 288 94Q342 94 384 132L384 13Q330-14 272-14Q171-14 105 49Q36 114 36 215Q36 325 111 391Q174 447 267 447Q330 447 384 421Z"  horiz-adv-x="418" vert-adv-y="1000"  />

      
      <glyph glyph-name="uni64" unicode="&#x64;" d="M390 377L390 729L512 729L512 0L390 0L390 56Q341-14 257-14Q159-14 97.50 53Q36 120 36 217Q36 315 96 381Q156 447 251 447Q345 447 390 377M368 304Q368 304 351 321.50Q334 339 282 339Q230 339 196 304Q162 269 162 217Q162 165 196 129.50Q230 94 282 94Q334 94 368 129.50Q402 165 402 217Q402 269 368 304Z"  horiz-adv-x="570" vert-adv-y="1000"  />

      
      <glyph glyph-name="uni65" unicode="&#x65;" d="M371 139L483 121Q476 103 464.50 85.50Q453 68 429 42.50Q405 17 364 1.50Q323-14 270-14Q168-14 104 47Q36 111 36 216Q36 320 102 386Q164 447 265 447Q375 447 434 376Q486 314 486 206L486 196L162 196Q162 152 183 123Q213 82 270 82Q338 82 371 139M166 274L371 274Q364 316 334.50 338.50Q305 361 268 361Q232 361 202.50 338Q173 315 166 274Z"  horiz-adv-x="522" vert-adv-y="1000"  />

      
      <glyph glyph-name="uni66" unicode="&#x66;" d="M294 329L182 329L182 0L60 0L60 329L14 329L14 433L60 433L60 552Q60 658 117 705Q160 741 224 741Q262 741 294 726L294 615Q270 633 239 633Q210 633 195 611Q182 590 182 536L182 433L294 433L294 329Z"  horiz-adv-x="292" vert-adv-y="1000"  />

      
      <glyph glyph-name="uni67" unicode="&#x67;" d="M388 377L388 433L510 433L510 20Q510-41 498.50-86.50Q487-132 450-169Q389-230 279-230Q173-230 117-180Q64-135 47-51L179-51Q187-84 209-103Q234-126 283-126Q328-126 357-99Q388-69 388-3L388 58Q341-14 255-14Q165-14 105 45Q36 114 36 217Q36 324 103 389Q163 447 252 447Q342 447 388 377M282 339Q233 339 201 309Q162 274 162 217Q162 166 194 132Q229 94 282 94Q330 94 363 124Q402 160 402 217Q402 267 367 304Q333 339 282 339Z"  horiz-adv-x="568" vert-adv-y="1000"  />

      
      <glyph glyph-name="uni68" unicode="&#x68;" d="M58 0L58 729L180 729L180 377Q230 447 314 447Q399 447 442 394Q476 352 476 272L476 0L354 0L354 236Q354 297 331 321Q310 343 274 343Q224 343 199 305Q180 275 180 221L180 0L58 0Z"  horiz-adv-x="534" vert-adv-y="1000"  />

      
      <glyph glyph-name="uni69" unicode="&#x69;" d="M58 433L180 433L180 0L58 0L58 433M67.50 564.50Q67.50 564.50 56.75 575.25Q46 586 46 616Q46 646 67.50 667.50Q89 689 119 689Q149 689 170.50 667.50Q192 646 192 616Q192 586 170.50 564.50Q149 543 119 543Q89 543 67.50 564.50Z"  horiz-adv-x="238" vert-adv-y="1000"  />

      
      <glyph glyph-name="uni6a" unicode="&#x6a;" d="M58 433L180 433L180-229L58-229L58 433M67.50 564.50Q67.50 564.50 56.75 575.25Q46 586 46 616Q46 646 67.50 667.50Q89 689 119 689Q149 689 170.50 667.50Q192 646 192 616Q192 586 170.50 564.50Q149 543 119 543Q89 543 67.50 564.50Z"  horiz-adv-x="238" vert-adv-y="1000"  />

      
      <glyph glyph-name="uni6b" unicode="&#x6b;" d="M58 729L180 729L180 275L342 433L500 433L297 243L516 0L354 0L193 185L180 173L180 0L58 0L58 729Z"  horiz-adv-x="512" vert-adv-y="1000"  />

      
      <glyph glyph-name="uni6c" unicode="&#x6c;" d="M58 729L180 729L180 0L58 0L58 729Z"  horiz-adv-x="238" vert-adv-y="1000"  />

      
      <glyph glyph-name="uni6d" unicode="&#x6d;" d="M58 0L58 433L180 433L180 384Q230 447 309 447Q406 447 446 368Q495 447 585 447Q661 447 702 394Q721 369 726.50 342Q732 315 732 272L732 0L610 0L610 236Q610 297 590 321Q572 343 540 343Q494 343 473 305Q456 277 456 221L456 0L334 0L334 236Q334 297 314 321Q296 343 264 343Q218 343 197 305Q180 277 180 221L180 0L58 0Z"  horiz-adv-x="790" vert-adv-y="1000"  />

      
      <glyph glyph-name="uni6e" unicode="&#x6e;" d="M58 0L58 433L180 433L180 377Q230 447 314 447Q399 447 442 394Q476 352 476 272L476 0L354 0L354 236Q354 297 331 321Q310 343 274 343Q224 343 199 305Q180 275 180 221L180 0L58 0Z"  horiz-adv-x="534" vert-adv-y="1000"  />

      
      <glyph glyph-name="uni6f" unicode="&#x6f;" d="M109 386Q175 447 284 447Q393 447 459 386Q532 320 532 216Q532 113 459 47Q393-14 284-14Q175-14 109 47Q36 113 36 216Q36 320 109 386M197 130Q197 130 214.50 112Q232 94 284 94Q336 94 371 130Q406 166 406 216Q406 267 371 303Q336 339 284 339Q232 339 197 303Q162 267 162 216Q162 166 197 130Z"  horiz-adv-x="568" vert-adv-y="1000"  />

      
      <glyph glyph-name="uni70" unicode="&#x70;" d="M180 56L180-229L58-229L58 433L180 433L180 377Q229 447 321 447Q411 447 469 389Q534 324 534 217Q534 107 466 42Q406-14 319-14Q232-14 180 56M288 339Q241 339 209 310Q168 275 168 217Q168 158 208 123Q241 94 288 94Q337 94 370 125Q408 160 408 217Q408 273 371 308Q337 339 288 339Z"  horiz-adv-x="570" vert-adv-y="1000"  />

      
      <glyph glyph-name="uni71" unicode="&#x71;" d="M390-229L390 56Q338-14 251-14Q164-14 104 42Q36 107 36 217Q36 324 101 389Q159 447 249 447Q341 447 390 377L390 433L512 433L512-229L390-229M282 339Q233 339 199 308Q162 273 162 217Q162 160 200 125Q233 94 282 94Q329 94 362 123Q402 158 402 217Q402 275 361 310Q329 339 282 339Z"  horiz-adv-x="570" vert-adv-y="1000"  />

      
      <glyph glyph-name="uni72" unicode="&#x72;" d="M58 0L58 433L180 433L180 368Q202 410 234 428Q264 447 306 447Q330 447 358 437L342 323Q319 339 285 339Q232 339 204 304Q180 274 180 208L180 0L58 0Z"  horiz-adv-x="360" vert-adv-y="1000"  />

      
      <glyph glyph-name="uni73" unicode="&#x73;" d="M354 401L294 330Q263 359 223 359Q201 359 188.50 349.50Q176 340 176 324Q176 298 215 285L244 276Q329 249 354 214Q376 184 376 142Q376 76 328 32Q278-14 198-14Q97-14 30 58L94 132Q137 82 190 82Q216 82 233 94.50Q250 107 250 129Q250 159 212 173L184 183Q119 206 91 235Q58 270 58 318Q58 378 103 416Q142 447 216 447Q294 447 354 401Z"  horiz-adv-x="404" vert-adv-y="1000"  />

      
      <glyph glyph-name="uni74" unicode="&#x74;" d="M264 329L180 329L180 0L58 0L58 329L10 329L10 433L58 433L58 581L180 581L180 433L264 433L264 329Z"  horiz-adv-x="270" vert-adv-y="1000"  />

      
      <glyph glyph-name="uni75" unicode="&#x75;" d="M58 433L180 433L180 188Q180 136 206 112Q231 90 268 90Q305 90 330 112Q356 136 356 188L356 433L478 433L478 168Q478 81 425 35Q369-14 268-14Q167-14 111 35Q58 81 58 168L58 433Z"  horiz-adv-x="536" vert-adv-y="1000"  />

      
      <glyph glyph-name="uni76" unicode="&#x76;" d="M2 433L138 433L252 189L366 433L502 433L284 0L220 0L2 433Z"  horiz-adv-x="504" vert-adv-y="1000"  />

      
      <glyph glyph-name="uni77" unicode="&#x77;" d="M396 255L282 0L222 0L2 433L138 433L252 183L368 433L424 433L540 183L654 433L790 433L570 0L510 0L396 255Z"  horiz-adv-x="792" vert-adv-y="1000"  />

      
      <glyph glyph-name="uni78" unicode="&#x78;" d="M2 0L208 236L42 433L196 433L284 321L374 433L528 433L359 236L564 0L408 0L284 151L158 0L2 0Z"  horiz-adv-x="566" vert-adv-y="1000"  />

      
      <glyph glyph-name="uni79" unicode="&#x79;" d="M49-229L208 65L2 433L144 433L278 187L398 433L536 433L187-229L49-229Z"  horiz-adv-x="538" vert-adv-y="1000"  />

      
      <glyph glyph-name="uni7a" unicode="&#x7a;" d="M472 433L226 104L455 104L455 0L12 0L258 329L50 329L50 433L472 433Z"  horiz-adv-x="484" vert-adv-y="1000"  />

      
      <glyph glyph-name="uni7b" unicode="&#x7b;" d="M295 562L295 399Q295 348 283 322.50Q271 297 235 274Q271 251 283 225.50Q295 200 295 149L295-13Q295-46 308-59Q323-74 376-74L400-74L400-178Q368-180 336-180Q253-180 218-151Q200-137 191-115.50Q182-94 180.50-78.50Q179-63 179-37L179 144Q179 184 162 204Q149 218 124 222L124 326Q149 330 162 344Q179 364 179 404L179 586Q179 612 180.50 627.50Q182 643 191 664.50Q200 686 218 700Q253 729 336 729Q368 729 400 727L400 623L376 623Q323 623 308 608Q295 595 295 562Z"  horiz-adv-x="500" vert-adv-y="1000"  />

      
      <glyph glyph-name="uni7c" unicode="&#x7c;" d="M189-250L189 750L311 750L311-250L189-250Z"  horiz-adv-x="500" vert-adv-y="1000"  />

      
      <glyph glyph-name="uni7d" unicode="&#x7d;" d="M205 399L205 562Q205 595 192 608Q177 623 124 623L100 623L100 727Q132 729 164 729Q247 729 282 700Q300 686 309 664.50Q318 643 319.50 627.50Q321 612 321 586L321 404Q321 364 338 344Q351 330 376 326L376 222Q351 218 338 204Q321 184 321 144L321-37Q321-63 319.50-78.50Q318-94 309-115.50Q300-137 282-151Q247-180 164-180Q132-180 100-178L100-74L124-74Q177-74 192-59Q205-46 205-13L205 149Q205 200 217 225.50Q229 251 265 274Q229 297 217 322.50Q205 348 205 399Z"  horiz-adv-x="500" vert-adv-y="1000"  />

      
      <glyph glyph-name="uni7e" unicode="&#x7e;" d="M424 370L494 330Q457 242 402 214Q372 199 343 199Q308 199 237 226Q170 251 147 251Q127 251 110 237Q93 223 86.50 211Q80 199 76 188L6 228Q36 314 83 347Q111 368 154 368Q189 368 262 341Q333 316 350 316Q396 316 424 370Z"  horiz-adv-x="500" vert-adv-y="1000"  />

      
      <glyph glyph-name="unia1" unicode="&#xa1;" d="M64 234L188 234L188-230L64-230L64 234M181.50 427.50Q181.50 427.50 192.75 416.25Q204 405 204 372Q204 339 181.50 316.50Q159 294 126 294Q93 294 70.50 316.50Q48 339 48 372Q48 405 70.50 427.50Q93 450 126 450Q159 450 181.50 427.50Z"  horiz-adv-x="251" vert-adv-y="1000"  />

      
      <glyph glyph-name="unia2" unicode="&#xa2;" d="M281 655L363 655L363 562Q406 560 444 540L444 417Q408 461 349 461Q299 461 265 429Q228 394 228 333Q228 272 265 238Q296 209 347 209Q411 209 444 253L444 129Q405 110 363 108L363 13L281 13L281 106Q209 116 160 167Q98 232 98 334Q98 437 164 503Q213 552 281 564L281 655Z"  horiz-adv-x="568" vert-adv-y="1000"  />

      
      <glyph glyph-name="unia3" unicode="&#xa3;" d="M160 246L47 246L47 334L112 334Q75 401 75 462Q75 556 138 616Q206 682 315 682Q424 682 487 619Q546 560 546 452L546 440L414 440Q415 445 415 457Q415 512 386 541Q359 568 314 568Q266 568 237 539Q205 507 205 455Q205 414 228 366L244 334L392 334L392 246L272 246Q279 220 279 196Q279 159 267 130L304 117Q384 89 410 89Q458 89 471 143L560 124Q540 40 488 6Q455-15 408-15Q363-15 290 10Q210 36 180 36Q128 36 112-9L18 8Q32 61 72 98Q108 131 159 138Q170 163 170 187Q170 214 160 246Z"  horiz-adv-x="568" vert-adv-y="1000"  />

      
      <glyph glyph-name="unia4" unicode="&#xa4;" d="M90 682L193 579Q252 624 334 624Q416 624 475 579L578 682L644 616L541 513Q586 456 586 374Q586 292 541 235L644 132L578 66L475 169Q416 124 334 124Q252 124 193 169L90 66L24 132L127 235Q82 292 82 374Q82 456 127 513L24 616L90 682M233 272.50Q233 272.50 252.50 252.25Q272 232 334 232Q396 232 435 272.50Q474 313 474 374Q474 435 435 475.50Q396 516 334 516Q272 516 233 475.50Q194 435 194 374Q194 313 233 272.50Z"  horiz-adv-x="668" vert-adv-y="1000"  />

      
      <glyph glyph-name="unia5" unicode="&#xa5;" d="M419 667L563 667L434 454L522 454L522 364L380 364L344 301L522 301L522 211L344 211L344 0L224 0L224 211L46 211L46 301L224 301L188 364L46 364L46 454L134 454L5 667L149 667L284 433L419 667Z"  horiz-adv-x="568" vert-adv-y="1000"  />

      
      <glyph glyph-name="unia6" unicode="&#xa6;" d="M189 390L189 750L311 750L311 390L189 390M189-250L189 110L311 110L311-250L189-250Z"  horiz-adv-x="500" vert-adv-y="1000"  />

      
      <glyph glyph-name="unia7" unicode="&#xa7;" d="M88 10L210 10Q210-33 234-57Q251-76 282-76Q314-76 334-56Q351-37 351-11Q351 17 324 38Q307 52 249 75Q213 89 195 97Q177 105 150 123.50Q123 142 106 165Q73 210 73 277Q73 323 93 360Q125 416 188 434Q146 453 122 487Q99 519 99 567Q99 631 139 674Q192 729 289 729Q382 729 429 677Q474 627 474 549L354 549L354 553Q354 588 333 611Q315 629 286 629Q256 629 235 611Q216 594 216 569Q216 538 245 515Q259 504 322 478Q415 439 450 403Q495 355 495 284Q495 229 467 186Q435 138 382 116Q417 99 437 73Q469 35 469-14Q469-82 417-131Q365-180 279-180Q190-180 140-128Q88-76 88 10M284 187Q319 187 344 212Q367 235 367 274Q367 313 340 339Q318 361 284 361Q250 361 225 336Q201 310 201 274Q201 238 224 213Q248 187 284 187Z"  horiz-adv-x="568" vert-adv-y="1000"  />

      
      <glyph glyph-name="unia8" unicode="&#xa8;" d="M95.50 535.50Q95.50 535.50 84.75 546.25Q74 557 74 586Q74 615 95.50 636.50Q117 658 146 658Q175 658 196.50 636.50Q218 615 218 586Q218 557 196.50 535.50Q175 514 146 514Q117 514 95.50 535.50M303.50 535.50Q303.50 535.50 292.75 546.25Q282 557 282 586Q282 615 303.50 636.50Q325 658 354 658Q383 658 404.50 636.50Q426 615 426 586Q426 557 404.50 535.50Q383 514 354 514Q325 514 303.50 535.50Z"  horiz-adv-x="500" vert-adv-y="1000"  />

      
      <glyph glyph-name="unia9" unicode="&#xa9;" d="M133.50 582Q133.50 582 183.75 632Q234 682 380 682Q526 682 626.50 582Q727 482 727 333Q727 184 626.50 84.50Q526-15 380-15Q234-15 133.50 84.50Q33 184 33 333Q33 482 133.50 582M576.50 536.50Q576.50 536.50 536.25 578.25Q496 620 380 620Q264 620 183.50 536.50Q103 453 103 333Q103 214 183.50 130.50Q264 47 380 47Q496 47 576.50 130.50Q657 214 657 333Q657 453 576.50 536.50M511 516L511 407L500 418Q458 460 405 460Q349 460 313.50 423.50Q278 387 278 332Q278 276 313.50 241Q349 206 407 206Q459 206 500 247L511 258L511 149Q463 124 404 124Q309 124 245.50 183.50Q182 243 182 331Q182 413 241 477.50Q300 542 401 542Q464 542 511 516Z"  horiz-adv-x="760" vert-adv-y="1000"  />

      
      <glyph glyph-name="uniaa" unicode="&#xaa;" d="M238 625L238 659L312 659L312 395L238 395L238 430Q224 410 205 399Q182 386 152 386Q100 386 64 420Q22 460 22 526Q22 591 64 633Q100 667 152 667Q180 667 202 656Q224 646 238 625M173 600Q140 600 121 579Q99 557 99 527Q99 496 121 474Q144 453 173 453Q204 453 224 473Q246 495 246 527Q246 560 223 581Q202 600 173 600M35 291L35 347L312 347L312 291L35 291Z"  horiz-adv-x="344" vert-adv-y="1000"  />

      
      <glyph glyph-name="uniab" unicode="&#xab;" d="M146 219L268 55L198 5L40 219L198 433L268 383L146 219M342 219L464 55L394 5L236 219L394 433L464 383L342 219Z"  horiz-adv-x="514" vert-adv-y="1000"  />

      
      <glyph glyph-name="uniac" unicode="&#xac;" d="M467 0L345 0L345 157L33 157L33 269L467 269L467 0Z"  horiz-adv-x="500" vert-adv-y="1000"  />

      
      <glyph glyph-name="uniad" unicode="&#xad;" d="M50 174L50 286L310 286L310 174L50 174Z"  horiz-adv-x="360" vert-adv-y="1000"  />

      
      <glyph glyph-name="uniae" unicode="&#xae;" d="M380 682Q525 682 625 583Q727 481 727 332Q727 189 633 90Q534-15 380-15Q231-15 131 86Q33 184 33 334Q33 489 140 589Q237 682 380 682M380 620Q267 620 188 540Q103 455 103 335Q103 273 126 218Q149 163 185 127Q221 91 273 69Q325 47 380 47Q490 47 571 126Q657 209 657 331Q657 455 571 541Q492 620 380 620M263 527L381 527Q446 527 478 495Q508 465 508 412Q508 367 482 340Q459 315 418 309L539 153L450 153L339 296L339 153L263 153L263 527M339 461L339 358L369 358Q400 358 415 373Q429 387 429 411Q429 437 415 449Q402 461 372 461L339 461Z"  horiz-adv-x="760" vert-adv-y="1000"  />

      
      <glyph glyph-name="uniaf" unicode="&#xaf;" d="M68 539L68 619L432 619L432 539L68 539Z"  horiz-adv-x="500" vert-adv-y="1000"  />

      
      <glyph glyph-name="unib0" unicode="&#xb0;" d="M141 624.50Q141 624.50 163 645.75Q185 667 250 667Q315 667 359 624.50Q403 582 403 517Q403 452 359 409.50Q315 367 250 367Q185 367 141 409.50Q97 452 97 517Q97 582 141 624.50M307 573Q307 573 296 584Q285 595 250 595Q215 595 193 573Q171 551 171 517Q171 483 193 461Q215 439 250 439Q285 439 307 461Q329 483 329 517Q329 551 307 573Z"  horiz-adv-x="500" vert-adv-y="1000"  />

      
      <glyph glyph-name="unib1" unicode="&#xb1;" d="M33 355L33 467L189 467L189 623L311 623L311 467L467 467L467 355L311 355L311 199L189 199L189 355L33 355M33 52L33 164L467 164L467 52L33 52Z"  horiz-adv-x="500" vert-adv-y="1000"  />

      
      <glyph glyph-name="unib2" unicode="&#xb2;" d="M24 267L143 401Q207 475 214 485Q237 518 237 549Q237 574 222 589Q207 604 180 604Q150 604 133 586.50Q116 569 116 542L32 542Q34 603 74 639.50Q114 676 176 676Q242 676 281.50 639.50Q321 603 321 549Q321 510 302.50 478.50Q284 447 250 409L188 339L324 339L324 267L24 267Z"  horiz-adv-x="380" vert-adv-y="1000"  />

      
      <glyph glyph-name="unib3" unicode="&#xb3;" d="M123 558L45 558Q51 615 87.50 645.50Q124 676 180 676Q245 676 278 644Q311 612 311 568Q311 508 261 482Q326 460 326 386Q326 332 287.50 295Q249 258 178 258Q117 258 75 292.50Q33 327 28 387L112 387Q115 361 132.50 345.50Q150 330 178 330Q210 330 226 347.50Q242 365 242 390Q242 412 226 428.50Q210 445 176 445L156 445L156 511L176 511Q203 511 217 526Q231 541 231 562Q231 581 217.50 595.50Q204 610 178 610Q154 610 139 595.50Q124 581 123 558Z"  horiz-adv-x="380" vert-adv-y="1000"  />

      
      <glyph glyph-name="unib4" unicode="&#xb4;" d="M318 700L406 644L256 510L200 550L318 700Z"  horiz-adv-x="500" vert-adv-y="1000"  />

      
      <glyph glyph-name="unib5" unicode="&#xb5;" d="M180-229L58-229L58 433L180 433L180 224Q180 209 181 196Q182 183 188 160.50Q194 138 204 123Q214 108 234 96Q254 84 282 84Q380 84 380 228L380 433L502 433L502 0L380 0L380 60Q368 28 341.50 7Q315-14 279-14Q212-14 180 52L180-229Z"  horiz-adv-x="560" vert-adv-y="1000"  />

      
      <glyph glyph-name="uni03BC" unicode="&#x03BC;" d="M180-229L58-229L58 433L180 433L180 224Q180 209 181 196Q182 183 188 160.50Q194 138 204 123Q214 108 234 96Q254 84 282 84Q380 84 380 228L380 433L502 433L502 0L380 0L380 60Q368 28 341.50 7Q315-14 279-14Q212-14 180 52L180-229Z"  horiz-adv-x="560" vert-adv-y="1000"  />

      
      <glyph glyph-name="unib6" unicode="&#xb6;" d="M322-93L218-93L218 320L205 320Q126 320 76 366.50Q26 413 26 490Q26 600 120 645Q167 667 256 667L582 667L582 573L512 573L512-93L408-93L408 573L322 573L322-93Z"  horiz-adv-x="654" vert-adv-y="1000"  />

      
      <glyph glyph-name="unib7" unicode="&#xb7;" d="M35 221Q35 221 21.50 234.50Q8 248 8 286Q8 324 35 351Q62 378 100 378Q138 378 165 351Q192 324 192 286Q192 248 165 221Q138 194 100 194Q62 194 35 221Z"  horiz-adv-x="200" vert-adv-y="1000"  />

      
      <glyph glyph-name="unib8" unicode="&#xb8;" d="M262-46L350-90L230-236L166-196L262-46Z"  horiz-adv-x="500" vert-adv-y="1000"  />

      
      <glyph glyph-name="unib9" unicode="&#xb9;" d="M166 267L166 595L86 595L86 667L250 667L250 267L166 267Z"  horiz-adv-x="380" vert-adv-y="1000"  />

      
      <glyph glyph-name="uniba" unicode="&#xba;" d="M168 386Q98 386 58 429Q21 470 21 529Q21 584 59 624Q100 667 168 667Q235 667 276 626Q315 587 315 527Q315 466 276 427Q236 386 168 386M31 347L305 347L305 291L31 291L31 347M219 580Q219 580 209 590Q199 600 168 600Q137 600 117 580Q97 560 97 527Q97 493 117 473Q137 453 168 453Q199 453 219 473Q239 493 239 527Q239 560 219 580Z"  horiz-adv-x="336" vert-adv-y="1000"  />

      
      <glyph glyph-name="unibb" unicode="&#xbb;" d="M172 219L50 383L120 433L278 219L120 5L50 55L172 219M368 219L246 383L316 433L474 219L316 5L246 55L368 219Z"  horiz-adv-x="514" vert-adv-y="1000"  />

      
      <glyph glyph-name="unibc" unicode="&#xbc;" d="M166 267L166 595L86 595L86 667L250 667L250 267L166 267M226 3L623 689L676 659L279-28L226 3M783 400L783 144L830 144L830 76L783 76L783 0L703 0L703 76L504 76L504 111L703 400L783 400M608 144L703 144L703 289L608 144Z"  horiz-adv-x="860" vert-adv-y="1000"  />

      
      <glyph glyph-name="unibd" unicode="&#xbd;" d="M166 267L166 595L86 595L86 667L250 667L250 267L166 267M186 3L583 689L636 659L239-28L186 3M504 0L623 134Q687 208 694 218Q717 251 717 282Q717 307 702 322Q687 337 660 337Q630 337 613 319.50Q596 302 596 275L512 275Q514 336 554 372.50Q594 409 656 409Q722 409 761.50 372.50Q801 336 801 282Q801 243 782.50 211.50Q764 180 730 142L668 72L804 72L804 0L504 0Z"  horiz-adv-x="860" vert-adv-y="1000"  />

      
      <glyph glyph-name="unibe" unicode="&#xbe;" d="M123 558L45 558Q50 612 87 644Q122 676 180 676Q243 676 277 645Q311 613 311 568Q311 536 296 513Q282 492 261 482Q283 475 298 460Q326 432 326 386Q326 333 290 297Q251 258 178 258Q110 258 69 299Q31 337 28 387L112 387Q116 362 130 348Q146 330 178 330Q209 330 226 347Q242 363 242 387Q242 414 224 430Q208 445 170 445L156 445L156 511L165 511Q200 511 216 526Q231 541 231 562Q231 584 215 598Q201 610 180 610Q153 610 138 594Q124 580 123 558M236 3L633 689L686 659L289-28L236 3M608 144L703 144L703 289L608 144M783 400L783 144L830 144L830 76L783 76L783 0L703 0L703 76L504 76L504 111L703 400L783 400Z"  horiz-adv-x="860" vert-adv-y="1000"  />

      
      <glyph glyph-name="unibf" unicode="&#xbf;" d="M207 237L331 237L331 41Q315 45 292 45Q232 45 198 11Q172-17 172-56Q172-93 193-114Q213-134 245-134Q278-134 296-116Q318-96 318-55L318-51L448-51Q448-132 398-186Q344-242 240-242Q146-242 94-191Q42-141 42-53Q42 25 93 76Q140 123 207 132L207 237M324.50 427.50Q324.50 427.50 335.75 416.25Q347 405 347 372Q347 339 324.50 316.50Q302 294 269 294Q236 294 213.50 316.50Q191 339 191 372Q191 405 213.50 427.50Q236 450 269 450Q302 450 324.50 427.50Z"  horiz-adv-x="490" vert-adv-y="1000"  />

      
      <glyph glyph-name="unic0" unicode="&#xc0;" d="M530 0L471 140L202 140L143 0L2 0L289 667L391 667L670 0L530 0M243 246L433 246L338 486L243 246M360 728L186 850L276 920L416 778L360 728Z"  horiz-adv-x="672" vert-adv-y="1000"  />

      
      <glyph glyph-name="unic1" unicode="&#xc1;" d="M530 0L471 140L202 140L143 0L2 0L289 667L391 667L670 0L530 0M243 246L433 246L338 486L243 246M312 728L256 778L396 920L486 850L312 728Z"  horiz-adv-x="672" vert-adv-y="1000"  />

      
      <glyph glyph-name="unic2" unicode="&#xc2;" d="M530 0L471 140L202 140L143 0L2 0L289 667L391 667L670 0L530 0M243 246L433 246L338 486L243 246M336 820L216 732L156 796L336 930L516 796L456 732L336 820Z"  horiz-adv-x="672" vert-adv-y="1000"  />

      
      <glyph glyph-name="unic3" unicode="&#xc3;" d="M530 0L471 140L202 140L143 0L2 0L289 667L391 667L670 0L530 0M243 246L433 246L338 486L243 246M463 869L528 821Q510 784 483 762Q452 734 414 734Q388 734 346 751L311 765Q271 780 261 780Q242 780 227 765Q217 755 211 741L144 789Q161 821 183 843Q216 876 259 876Q283 876 327 859L366 843Q397 830 414 830Q434 830 447 843Q455 851 463 869Z"  horiz-adv-x="672" vert-adv-y="1000"  />

      
      <glyph glyph-name="unic4" unicode="&#xc4;" d="M530 0L471 140L202 140L143 0L2 0L289 667L391 667L670 0L530 0M243 246L433 246L338 486L243 246M173.50 760.50Q173.50 760.50 162.75 771.25Q152 782 152 811Q152 840 173.50 861.50Q195 883 224 883Q253 883 274.50 861.50Q296 840 296 811Q296 782 274.50 760.50Q253 739 224 739Q195 739 173.50 760.50M397.50 760.50Q397.50 760.50 386.75 771.25Q376 782 376 811Q376 840 397.50 861.50Q419 883 448 883Q477 883 498.50 861.50Q520 840 520 811Q520 782 498.50 760.50Q477 739 448 739Q419 739 397.50 760.50Z"  horiz-adv-x="672" vert-adv-y="1000"  />

      
      <glyph glyph-name="unic5" unicode="&#xc5;" d="M530 0L471 140L202 140L143 0L2 0L289 667L391 667L670 0L530 0M243 246L433 246L338 486L243 246M307.50 854.50Q307.50 854.50 301.75 848.75Q296 843 296 826Q296 809 307.50 797.50Q319 786 336 786Q353 786 364.50 797.50Q376 809 376 826Q376 843 364.50 854.50Q353 866 336 866Q319 866 307.50 854.50M265.50 755.50Q265.50 755.50 251.25 769.75Q237 784 237 826Q237 868 265.50 896.50Q294 925 336 925Q378 925 406.50 896.50Q435 868 435 826Q435 784 406.50 755.50Q378 727 336 727Q294 727 265.50 755.50Z"  horiz-adv-x="672" vert-adv-y="1000"  />

      
      <glyph glyph-name="unic6" unicode="&#xc6;" d="M533 0L474 140L205 140L146 0L6 0L295 667L647 667L691 555L446 555L506 406L747 406L793 294L551 294L624 112L870 112L914 0L533 0M246 246L436 246L344 486L246 246Z"  horiz-adv-x="920" vert-adv-y="1000"  />

      
      <glyph glyph-name="unic7" unicode="&#xc7;" d="M560 176L560 24Q486-15 395-15Q249-15 151 78Q44 181 44 333Q44 495 151 594Q245 682 396 682Q484 682 560 641L560 489Q495 564 399 564Q301 564 239.50 495.50Q178 427 178 331Q178 226 246 164.50Q314 103 404 103Q498 103 560 176M358-46L454-90L332-244L266-208L358-46Z"  horiz-adv-x="604" vert-adv-y="1000"  />

      
      <glyph glyph-name="unic8" unicode="&#xc8;" d="M446 667L446 555L206 555L206 406L436 406L436 294L206 294L206 112L446 112L446 0L76 0L76 667L446 667M272 728L98 850L188 920L328 778L272 728Z"  horiz-adv-x="496" vert-adv-y="1000"  />

      
      <glyph glyph-name="unic9" unicode="&#xc9;" d="M446 667L446 555L206 555L206 406L436 406L436 294L206 294L206 112L446 112L446 0L76 0L76 667L446 667M246 728L190 778L330 920L420 850L246 728Z"  horiz-adv-x="496" vert-adv-y="1000"  />

      
      <glyph glyph-name="unica" unicode="&#xca;" d="M446 667L446 555L206 555L206 406L436 406L436 294L206 294L206 112L446 112L446 0L76 0L76 667L446 667M260 820L140 732L80 796L260 930L440 796L380 732L260 820Z"  horiz-adv-x="496" vert-adv-y="1000"  />

      
      <glyph glyph-name="unicb" unicode="&#xcb;" d="M446 667L446 555L206 555L206 406L436 406L436 294L206 294L206 112L446 112L446 0L76 0L76 667L446 667M97.50 760.50Q97.50 760.50 86.75 771.25Q76 782 76 811Q76 840 97.50 861.50Q119 883 148 883Q177 883 198.50 861.50Q220 840 220 811Q220 782 198.50 760.50Q177 739 148 739Q119 739 97.50 760.50M321.50 760.50Q321.50 760.50 310.75 771.25Q300 782 300 811Q300 840 321.50 861.50Q343 883 372 883Q401 883 422.50 861.50Q444 840 444 811Q444 782 422.50 760.50Q401 739 372 739Q343 739 321.50 760.50Z"  horiz-adv-x="496" vert-adv-y="1000"  />

      
      <glyph glyph-name="unicc" unicode="&#xcc;" d="M76 667L206 667L206 0L76 0L76 667M158 728L-10 842L76 910L212 776L158 728Z"  horiz-adv-x="282" vert-adv-y="1000"  />

      
      <glyph glyph-name="unicd" unicode="&#xcd;" d="M76 667L206 667L206 0L76 0L76 667M206 910L292 842L124 728L70 776L206 910Z"  horiz-adv-x="282" vert-adv-y="1000"  />

      
      <glyph glyph-name="unice" unicode="&#xce;" d="M76 667L206 667L206 0L76 0L76 667M141 822L49 742L-5 796L141 920L287 796L233 742L141 822Z"  horiz-adv-x="282" vert-adv-y="1000"  />

      
      <glyph glyph-name="unicf" unicode="&#xcf;" d="M76 667L206 667L206 0L76 0L76 667M23 760.50Q23 760.50 14.50 771.25Q6 782 6 811Q6 840 23 861.50Q40 883 64 883Q88 883 105 861.50Q122 840 122 811Q122 782 105 760.50Q88 739 64 739Q40 739 23 760.50M173 760.50Q173 760.50 164.50 771.25Q156 782 156 811Q156 840 173 861.50Q190 883 214 883Q238 883 255 861.50Q272 840 272 811Q272 782 255 760.50Q238 739 214 739Q190 739 173 760.50Z"  horiz-adv-x="282" vert-adv-y="1000"  />

      
      <glyph glyph-name="unid0" unicode="&#xd0;" d="M76 667L250 667Q329 667 388 653.50Q447 640 498 602Q558 557 591.50 486.50Q625 416 625 333Q625 160 492 64Q438 26 382 13Q326 0 248 0L76 0L76 316L-10 316L-10 416L76 416L76 667M206 555L206 416L328 416L328 316L206 316L206 112L246 112Q347 112 408 156Q447 184 469 231.50Q491 279 491 333Q491 391 467.50 437.50Q444 484 409 511Q352 555 246 555L206 555Z"  horiz-adv-x="669" vert-adv-y="1000"  />

      
      <glyph glyph-name="unid1" unicode="&#xd1;" d="M206 0L76 0L76 667L166 667L572 222L572 667L702 667L702 0L612 0L206 446L206 0M527 869L592 821Q574 784 547 762Q516 734 478 734Q452 734 410 751L375 765Q335 780 325 780Q306 780 291 765Q281 755 275 741L208 789Q225 821 247 843Q280 876 323 876Q347 876 391 859L430 843Q461 830 478 830Q498 830 511 843Q519 851 527 869Z"  horiz-adv-x="778" vert-adv-y="1000"  />

      
      <glyph glyph-name="unid2" unicode="&#xd2;" d="M143.50 584Q143.50 584 193.25 633Q243 682 400 682Q557 682 656.50 584Q756 486 756 333Q756 180 656.50 82.50Q557-15 400-15Q243-15 143.50 82.50Q44 180 44 333Q44 486 143.50 584M240 167.50Q240 167.50 271 135.25Q302 103 400 103Q498 103 560 167.50Q622 232 622 333Q622 434 559.50 499Q497 564 400 564Q303 564 240.50 499Q178 434 178 333Q178 232 240 167.50M424 728L250 850L340 920L480 778L424 728Z"  horiz-adv-x="800" vert-adv-y="1000"  />

      
      <glyph glyph-name="unid3" unicode="&#xd3;" d="M143.50 584Q143.50 584 193.25 633Q243 682 400 682Q557 682 656.50 584Q756 486 756 333Q756 180 656.50 82.50Q557-15 400-15Q243-15 143.50 82.50Q44 180 44 333Q44 486 143.50 584M240 167.50Q240 167.50 271 135.25Q302 103 400 103Q498 103 560 167.50Q622 232 622 333Q622 434 559.50 499Q497 564 400 564Q303 564 240.50 499Q178 434 178 333Q178 232 240 167.50M376 728L320 778L460 920L550 850L376 728Z"  horiz-adv-x="800" vert-adv-y="1000"  />

      
      <glyph glyph-name="unid4" unicode="&#xd4;" d="M143.50 584Q143.50 584 193.25 633Q243 682 400 682Q557 682 656.50 584Q756 486 756 333Q756 180 656.50 82.50Q557-15 400-15Q243-15 143.50 82.50Q44 180 44 333Q44 486 143.50 584M240 167.50Q240 167.50 271 135.25Q302 103 400 103Q498 103 560 167.50Q622 232 622 333Q622 434 559.50 499Q497 564 400 564Q303 564 240.50 499Q178 434 178 333Q178 232 240 167.50M400 820L280 732L220 796L400 930L580 796L520 732L400 820Z"  horiz-adv-x="800" vert-adv-y="1000"  />

      
      <glyph glyph-name="unid5" unicode="&#xd5;" d="M143.50 584Q143.50 584 193.25 633Q243 682 400 682Q557 682 656.50 584Q756 486 756 333Q756 180 656.50 82.50Q557-15 400-15Q243-15 143.50 82.50Q44 180 44 333Q44 486 143.50 584M240 167.50Q240 167.50 271 135.25Q302 103 400 103Q498 103 560 167.50Q622 232 622 333Q622 434 559.50 499Q497 564 400 564Q303 564 240.50 499Q178 434 178 333Q178 232 240 167.50M527 869L592 821Q574 784 547 762Q516 734 478 734Q452 734 410 751L375 765Q335 780 325 780Q306 780 291 765Q281 755 275 741L208 789Q225 821 247 843Q280 876 323 876Q347 876 391 859L430 843Q461 830 478 830Q498 830 511 843Q519 851 527 869Z"  horiz-adv-x="800" vert-adv-y="1000"  />

      
      <glyph glyph-name="unid6" unicode="&#xd6;" d="M143.50 584Q143.50 584 193.25 633Q243 682 400 682Q557 682 656.50 584Q756 486 756 333Q756 180 656.50 82.50Q557-15 400-15Q243-15 143.50 82.50Q44 180 44 333Q44 486 143.50 584M240 167.50Q240 167.50 271 135.25Q302 103 400 103Q498 103 560 167.50Q622 232 622 333Q622 434 559.50 499Q497 564 400 564Q303 564 240.50 499Q178 434 178 333Q178 232 240 167.50M237.50 760.50Q237.50 760.50 226.75 771.25Q216 782 216 811Q216 840 237.50 861.50Q259 883 288 883Q317 883 338.50 861.50Q360 840 360 811Q360 782 338.50 760.50Q317 739 288 739Q259 739 237.50 760.50M461.50 760.50Q461.50 760.50 450.75 771.25Q440 782 440 811Q440 840 461.50 861.50Q483 883 512 883Q541 883 562.50 861.50Q584 840 584 811Q584 782 562.50 760.50Q541 739 512 739Q483 739 461.50 760.50Z"  horiz-adv-x="800" vert-adv-y="1000"  />

      
      <glyph glyph-name="unid7" unicode="&#xd7;" d="M44 215L168 339L44 463L126 545L250 421L374 545L456 463L332 339L456 215L374 133L250 257L126 133L44 215Z"  horiz-adv-x="500" vert-adv-y="1000"  />

      
      <glyph glyph-name="unid8" unicode="&#xd8;" d="M30 31L118 119Q50 215 50 333Q50 484 150 584Q248 682 406 682Q528 682 620 620L709 708L782 635L694 547Q762 452 762 334Q762 184 665 84Q568-15 406-15Q280-15 192 47L103-42L30 31M599 453L283 137Q341 103 406 103Q503 103 564 166Q628 232 628 333Q628 397 599 453M213 213L530 529Q473 564 406 564Q313 564 252 505Q184 440 184 330Q184 265 213 213Z"  horiz-adv-x="812" vert-adv-y="1000"  />

      
      <glyph glyph-name="unid9" unicode="&#xd9;" d="M76 667L206 667L206 248Q206 185 238 149Q276 103 344 103Q412 103 450 149Q482 185 482 248L482 667L612 667L612 259Q612 145 562 81Q527 35 468.50 10Q410-15 344-15Q278-15 219.50 10Q161 35 126 81Q76 145 76 259L76 667M368 728L194 850L284 920L424 778L368 728Z"  horiz-adv-x="688" vert-adv-y="1000"  />

      
      <glyph glyph-name="unida" unicode="&#xda;" d="M76 667L206 667L206 248Q206 185 238 149Q276 103 344 103Q412 103 450 149Q482 185 482 248L482 667L612 667L612 259Q612 145 562 81Q527 35 468.50 10Q410-15 344-15Q278-15 219.50 10Q161 35 126 81Q76 145 76 259L76 667M320 728L264 778L404 920L494 850L320 728Z"  horiz-adv-x="688" vert-adv-y="1000"  />

      
      <glyph glyph-name="unidb" unicode="&#xdb;" d="M76 667L206 667L206 248Q206 185 238 149Q276 103 344 103Q412 103 450 149Q482 185 482 248L482 667L612 667L612 259Q612 145 562 81Q527 35 468.50 10Q410-15 344-15Q278-15 219.50 10Q161 35 126 81Q76 145 76 259L76 667M344 820L224 732L164 796L344 930L524 796L464 732L344 820Z"  horiz-adv-x="688" vert-adv-y="1000"  />

      
      <glyph glyph-name="unidc" unicode="&#xdc;" d="M76 667L206 667L206 248Q206 185 238 149Q276 103 344 103Q412 103 450 149Q482 185 482 248L482 667L612 667L612 259Q612 145 562 81Q527 35 468.50 10Q410-15 344-15Q278-15 219.50 10Q161 35 126 81Q76 145 76 259L76 667M181.50 760.50Q181.50 760.50 170.75 771.25Q160 782 160 811Q160 840 181.50 861.50Q203 883 232 883Q261 883 282.50 861.50Q304 840 304 811Q304 782 282.50 760.50Q261 739 232 739Q203 739 181.50 760.50M405.50 760.50Q405.50 760.50 394.75 771.25Q384 782 384 811Q384 840 405.50 861.50Q427 883 456 883Q485 883 506.50 861.50Q528 840 528 811Q528 782 506.50 760.50Q485 739 456 739Q427 739 405.50 760.50Z"  horiz-adv-x="688" vert-adv-y="1000"  />

      
      <glyph glyph-name="unidd" unicode="&#xdd;" d="M227 0L227 305L-2 667L152 667L295 435L438 667L592 667L357 305L357 0L227 0M271 728L215 778L355 920L445 850L271 728Z"  horiz-adv-x="590" vert-adv-y="1000"  />

      
      <glyph glyph-name="unide" unicode="&#xde;" d="M76 667L206 667L206 577L270 577Q332 577 371.50 566.50Q411 556 446 526Q514 466 514 365Q514 271 459 216Q400 157 290 157L206 157L206 0L76 0L76 667M206 465L206 269L259 269Q316 269 344 290Q380 318 380 368Q380 417 343 444Q313 465 251 465L206 465Z"  horiz-adv-x="534" vert-adv-y="1000"  />

      
      <glyph glyph-name="unidf" unicode="&#xdf;" d="M180 0L58 0L58 524Q58 629 115 686Q170 741 270 741Q368 741 425 685Q480 631 480 555Q480 504 453 465Q436 436 397 414Q440 402 475 366Q532 309 532 216Q532 173 514.50 127.50Q497 82 466 52Q398-14 270-14L258-14L258 94Q330 96 372 139Q406 176 406 225Q406 300 345 332Q308 352 258 352L258 456Q306 456 335 483Q362 508 362 547Q362 588 338 610Q313 633 273 633Q233 633 208 608Q180 579 180 505L180 0Z"  horiz-adv-x="568" vert-adv-y="1000"  />

      
      <glyph glyph-name="unie0" unicode="&#xe0;" d="M390 377L390 433L512 433L512 0L390 0L390 56Q341-14 257-14Q159-14 97.50 53Q36 120 36 217Q36 315 96 381Q156 447 251 447Q345 447 390 377M368 304Q368 304 351 321.50Q334 339 282 339Q230 339 196 304Q162 269 162 217Q162 165 196 129.50Q230 94 282 94Q334 94 368 129.50Q402 165 402 217Q402 269 368 304M309 510L159 644L247 700L365 550L309 510Z"  horiz-adv-x="570" vert-adv-y="1000"  />

      
      <glyph glyph-name="unie1" unicode="&#xe1;" d="M390 377L390 433L512 433L512 0L390 0L390 56Q341-14 257-14Q159-14 97.50 53Q36 120 36 217Q36 315 96 381Q156 447 251 447Q345 447 390 377M368 304Q368 304 351 321.50Q334 339 282 339Q230 339 196 304Q162 269 162 217Q162 165 196 129.50Q230 94 282 94Q334 94 368 129.50Q402 165 402 217Q402 269 368 304M353 700L441 644L291 510L235 550L353 700Z"  horiz-adv-x="570" vert-adv-y="1000"  />

      
      <glyph glyph-name="unie2" unicode="&#xe2;" d="M390 377L390 433L512 433L512 0L390 0L390 56Q341-14 257-14Q159-14 97.50 53Q36 120 36 217Q36 315 96 381Q156 447 251 447Q345 447 390 377M368 304Q368 304 351 321.50Q334 339 282 339Q230 339 196 304Q162 269 162 217Q162 165 196 129.50Q230 94 282 94Q334 94 368 129.50Q402 165 402 217Q402 269 368 304M285 602L175 510L115 570L285 708L455 570L395 510L285 602Z"  horiz-adv-x="570" vert-adv-y="1000"  />

      
      <glyph glyph-name="unie3" unicode="&#xe3;" d="M390 377L390 433L512 433L512 0L390 0L390 56Q341-14 257-14Q159-14 97.50 53Q36 120 36 217Q36 315 96 381Q156 447 251 447Q345 447 390 377M368 304Q368 304 351 321.50Q334 339 282 339Q230 339 196 304Q162 269 162 217Q162 165 196 129.50Q230 94 282 94Q334 94 368 129.50Q402 165 402 217Q402 269 368 304M424 647L483 599Q468 569 445 546Q416 520 379 520Q345 520 308 536L274 550Q245 562 228 562Q211 562 197 548Q186 537 180 523L119 571Q136 603 154 621Q183 650 226 650Q254 650 287 637L325 622Q360 608 375 608Q395 608 406 619Q416 629 424 647Z"  horiz-adv-x="570" vert-adv-y="1000"  />

      
      <glyph glyph-name="unie4" unicode="&#xe4;" d="M390 377L390 433L512 433L512 0L390 0L390 56Q341-14 257-14Q159-14 97.50 53Q36 120 36 217Q36 315 96 381Q156 447 251 447Q345 447 390 377M368 304Q368 304 351 321.50Q334 339 282 339Q230 339 196 304Q162 269 162 217Q162 165 196 129.50Q230 94 282 94Q334 94 368 129.50Q402 165 402 217Q402 269 368 304M147.50 535.50Q147.50 535.50 136.75 546.25Q126 557 126 586Q126 615 147.50 636.50Q169 658 198 658Q227 658 248.50 636.50Q270 615 270 586Q270 557 248.50 535.50Q227 514 198 514Q169 514 147.50 535.50M355.50 535.50Q355.50 535.50 344.75 546.25Q334 557 334 586Q334 615 355.50 636.50Q377 658 406 658Q435 658 456.50 636.50Q478 615 478 586Q478 557 456.50 535.50Q435 514 406 514Q377 514 355.50 535.50Z"  horiz-adv-x="570" vert-adv-y="1000"  />

      
      <glyph glyph-name="unie5" unicode="&#xe5;" d="M390 377L390 433L512 433L512 0L390 0L390 56Q341-14 257-14Q159-14 97.50 53Q36 120 36 217Q36 315 96 381Q156 447 251 447Q345 447 390 377M368 304Q368 304 351 321.50Q334 339 282 339Q230 339 196 304Q162 269 162 217Q162 165 196 129.50Q230 94 282 94Q334 94 368 129.50Q402 165 402 217Q402 269 368 304M217 534Q217 534 203 548Q189 562 189 600Q189 638 217 666Q245 694 283 694Q321 694 349 666Q377 638 377 600Q377 562 349 534Q321 506 283 506Q245 506 217 534M255 628Q255 628 249.50 622.50Q244 617 244 600Q244 583 255 572Q266 561 283 561Q300 561 311 572Q322 583 322 600Q322 617 311 628Q300 639 283 639Q266 639 255 628Z"  horiz-adv-x="570" vert-adv-y="1000"  />

      
      <glyph glyph-name="unie6" unicode="&#xe6;" d="M657 139L769 121Q751 75 719.50 45Q688 15 653 4Q618-7 597-10.50Q576-14 556-14Q443-14 388 68Q326-14 214-14Q129-14 82.50 26.50Q36 67 36 126Q36 187 80 226Q131 271 219 271Q278 271 331 241L332 262Q335 307 295 333Q267 351 214 351Q163 351 103 334L103 431Q174 447 223 447Q256 447 280.50 443.50Q305 440 336.50 423Q368 406 388 374Q446 447 552 447Q661 447 720 376Q772 314 772 206L772 196L448 196Q446 153 469 123Q499 82 556 82Q624 82 657 139M154 131Q154 109 175 90.50Q196 72 239 72Q285 72 308 91.50Q331 111 331 133Q331 153 309 169Q287 185 238 185Q194 185 174 168.50Q154 152 154 131M452 274L657 274Q650 316 620.50 338.50Q591 361 554 361Q518 361 488.50 338Q459 315 452 274Z"  horiz-adv-x="808" vert-adv-y="1000"  />

      
      <glyph glyph-name="unie7" unicode="&#xe7;" d="M384 421L384 301Q343 339 284 339Q226 339 194 303.50Q162 268 162 217Q162 164 197.50 129Q233 94 288 94Q342 94 384 132L384 13Q330-14 272-14Q171-14 105 49Q36 114 36 215Q36 325 111 391Q174 447 267 447Q330 447 384 421M222-46L310-90L190-236L126-196L222-46Z"  horiz-adv-x="418" vert-adv-y="1000"  />

      
      <glyph glyph-name="unie8" unicode="&#xe8;" d="M371 139L483 121Q476 103 464.50 85.50Q453 68 429 42.50Q405 17 364 1.50Q323-14 270-14Q168-14 104 47Q36 111 36 216Q36 320 102 386Q164 447 265 447Q375 447 434 376Q486 314 486 206L486 196L162 196Q162 152 183 123Q213 82 270 82Q338 82 371 139M166 274L371 274Q364 316 334.50 338.50Q305 361 268 361Q232 361 202.50 338Q173 315 166 274M284 510L134 644L222 700L340 550L284 510Z"  horiz-adv-x="522" vert-adv-y="1000"  />

      
      <glyph glyph-name="unie9" unicode="&#xe9;" d="M371 139L483 121Q476 103 464.50 85.50Q453 68 429 42.50Q405 17 364 1.50Q323-14 270-14Q168-14 104 47Q36 111 36 216Q36 320 102 386Q164 447 265 447Q375 447 434 376Q486 314 486 206L486 196L162 196Q162 152 183 123Q213 82 270 82Q338 82 371 139M166 274L371 274Q364 316 334.50 338.50Q305 361 268 361Q232 361 202.50 338Q173 315 166 274M328 700L416 644L266 510L210 550L328 700Z"  horiz-adv-x="522" vert-adv-y="1000"  />

      
      <glyph glyph-name="uniea" unicode="&#xea;" d="M371 139L483 121Q476 103 464.50 85.50Q453 68 429 42.50Q405 17 364 1.50Q323-14 270-14Q168-14 104 47Q36 111 36 216Q36 320 102 386Q164 447 265 447Q375 447 434 376Q486 314 486 206L486 196L162 196Q162 152 183 123Q213 82 270 82Q338 82 371 139M166 274L371 274Q364 316 334.50 338.50Q305 361 268 361Q232 361 202.50 338Q173 315 166 274M264 602L154 510L94 570L264 708L434 570L374 510L264 602Z"  horiz-adv-x="522" vert-adv-y="1000"  />

      
      <glyph glyph-name="unieb" unicode="&#xeb;" d="M371 139L483 121Q476 103 464.50 85.50Q453 68 429 42.50Q405 17 364 1.50Q323-14 270-14Q168-14 104 47Q36 111 36 216Q36 320 102 386Q164 447 265 447Q375 447 434 376Q486 314 486 206L486 196L162 196Q162 152 183 123Q213 82 270 82Q338 82 371 139M166 274L371 274Q364 316 334.50 338.50Q305 361 268 361Q232 361 202.50 338Q173 315 166 274M109.50 535.50Q109.50 535.50 98.75 546.25Q88 557 88 586Q88 615 109.50 636.50Q131 658 160 658Q189 658 210.50 636.50Q232 615 232 586Q232 557 210.50 535.50Q189 514 160 514Q131 514 109.50 535.50M317.50 535.50Q317.50 535.50 306.75 546.25Q296 557 296 586Q296 615 317.50 636.50Q339 658 368 658Q397 658 418.50 636.50Q440 615 440 586Q440 557 418.50 535.50Q397 514 368 514Q339 514 317.50 535.50Z"  horiz-adv-x="522" vert-adv-y="1000"  />

      
      <glyph glyph-name="uniec" unicode="&#xec;" d="M58 433L180 433L180 0L58 0L58 433M112 501L2 669L102 701L178 524L112 501Z"  horiz-adv-x="238" vert-adv-y="1000"  />

      
      <glyph glyph-name="unied" unicode="&#xed;" d="M58 433L180 433L180 0L58 0L58 433M136 701L236 669L126 501L60 524L136 701Z"  horiz-adv-x="238" vert-adv-y="1000"  />

      
      <glyph glyph-name="uniee" unicode="&#xee;" d="M58 433L180 433L180 0L58 0L58 433M119 602L32 524L-24 580L119 708L262 580L206 524L119 602Z"  horiz-adv-x="238" vert-adv-y="1000"  />

      
      <glyph glyph-name="unief" unicode="&#xef;" d="M58 433L180 433L180 0L58 0L58 433M-35.50 535.50Q-35.50 535.50-46.25 546.25Q-57 557-57 586Q-57 615-35.50 636.50Q-14 658 15 658Q44 658 65.50 636.50Q87 615 87 586Q87 557 65.50 535.50Q44 514 15 514Q-14 514-35.50 535.50M172.50 535.50Q172.50 535.50 161.75 546.25Q151 557 151 586Q151 615 172.50 636.50Q194 658 223 658Q252 658 273.50 636.50Q295 615 295 586Q295 557 273.50 535.50Q252 514 223 514Q194 514 172.50 535.50Z"  horiz-adv-x="238" vert-adv-y="1000"  />

      
      <glyph glyph-name="unif0" unicode="&#xf0;" d="M67 588L100 682Q234 672 328 616L478 665L501 594L400 562Q453 511 480 440Q510 363 510 267Q510 122 429 45Q367-14 270-14Q169-14 103 50Q36 117 36 215Q36 318 103 379Q160 433 246 433Q319 433 369 383Q356 478 275 523L79 450L57 514L196 562Q131 586 67 588M270 329Q226 329 196 299Q162 267 162 210Q162 157 195 124Q225 94 270 94Q319 94 348 127Q378 160 378 210Q378 264 347 297Q317 329 270 329Z"  horiz-adv-x="546" vert-adv-y="1000"  />

      
      <glyph glyph-name="unif1" unicode="&#xf1;" d="M58 0L58 433L180 433L180 377Q230 447 314 447Q399 447 442 394Q476 352 476 272L476 0L354 0L354 236Q354 297 331 321Q310 343 274 343Q224 343 199 305Q180 275 180 221L180 0L58 0M403 647L462 599Q447 569 424 546Q395 520 358 520Q324 520 287 536L253 550Q224 562 207 562Q190 562 176 548Q165 537 159 523L98 571Q115 603 133 621Q162 650 205 650Q233 650 266 637L304 622Q339 608 354 608Q374 608 385 619Q395 629 403 647Z"  horiz-adv-x="534" vert-adv-y="1000"  />

      
      <glyph glyph-name="unif2" unicode="&#xf2;" d="M109 386Q175 447 284 447Q393 447 459 386Q532 320 532 216Q532 113 459 47Q393-14 284-14Q175-14 109 47Q36 113 36 216Q36 320 109 386M197 130Q197 130 214.50 112Q232 94 284 94Q336 94 371 130Q406 166 406 216Q406 267 371 303Q336 339 284 339Q232 339 197 303Q162 267 162 216Q162 166 197 130M294 510L144 644L232 700L350 550L294 510Z"  horiz-adv-x="568" vert-adv-y="1000"  />

      
      <glyph glyph-name="unif3" unicode="&#xf3;" d="M109 386Q175 447 284 447Q393 447 459 386Q532 320 532 216Q532 113 459 47Q393-14 284-14Q175-14 109 47Q36 113 36 216Q36 320 109 386M197 130Q197 130 214.50 112Q232 94 284 94Q336 94 371 130Q406 166 406 216Q406 267 371 303Q336 339 284 339Q232 339 197 303Q162 267 162 216Q162 166 197 130M338 700L426 644L276 510L220 550L338 700Z"  horiz-adv-x="568" vert-adv-y="1000"  />

      
      <glyph glyph-name="unif4" unicode="&#xf4;" d="M109 386Q175 447 284 447Q393 447 459 386Q532 320 532 216Q532 113 459 47Q393-14 284-14Q175-14 109 47Q36 113 36 216Q36 320 109 386M197 130Q197 130 214.50 112Q232 94 284 94Q336 94 371 130Q406 166 406 216Q406 267 371 303Q336 339 284 339Q232 339 197 303Q162 267 162 216Q162 166 197 130M284 602L174 510L114 570L284 708L454 570L394 510L284 602Z"  horiz-adv-x="568" vert-adv-y="1000"  />

      
      <glyph glyph-name="unif5" unicode="&#xf5;" d="M109 386Q175 447 284 447Q393 447 459 386Q532 320 532 216Q532 113 459 47Q393-14 284-14Q175-14 109 47Q36 113 36 216Q36 320 109 386M197 130Q197 130 214.50 112Q232 94 284 94Q336 94 371 130Q406 166 406 216Q406 267 371 303Q336 339 284 339Q232 339 197 303Q162 267 162 216Q162 166 197 130M407 647L466 599Q451 569 428 546Q399 520 362 520Q328 520 291 536L257 550Q228 562 211 562Q194 562 180 548Q169 537 163 523L102 571Q119 603 137 621Q166 650 209 650Q237 650 270 637L308 622Q343 608 358 608Q378 608 389 619Q399 629 407 647Z"  horiz-adv-x="568" vert-adv-y="1000"  />

      
      <glyph glyph-name="unif6" unicode="&#xf6;" d="M109 386Q175 447 284 447Q393 447 459 386Q532 320 532 216Q532 113 459 47Q393-14 284-14Q175-14 109 47Q36 113 36 216Q36 320 109 386M197 130Q197 130 214.50 112Q232 94 284 94Q336 94 371 130Q406 166 406 216Q406 267 371 303Q336 339 284 339Q232 339 197 303Q162 267 162 216Q162 166 197 130M129.50 535.50Q129.50 535.50 118.75 546.25Q108 557 108 586Q108 615 129.50 636.50Q151 658 180 658Q209 658 230.50 636.50Q252 615 252 586Q252 557 230.50 535.50Q209 514 180 514Q151 514 129.50 535.50M337.50 535.50Q337.50 535.50 326.75 546.25Q316 557 316 586Q316 615 337.50 636.50Q359 658 388 658Q417 658 438.50 636.50Q460 615 460 586Q460 557 438.50 535.50Q417 514 388 514Q359 514 337.50 535.50Z"  horiz-adv-x="568" vert-adv-y="1000"  />

      
      <glyph glyph-name="unif7" unicode="&#xf7;" d="M200 461Q200 461 189.50 471.50Q179 482 179 511Q179 540 200 561Q221 582 250 582Q279 582 300 561Q321 540 321 511Q321 482 300 461Q279 440 250 440Q221 440 200 461M200 117Q200 117 189.50 127.50Q179 138 179 167Q179 196 200 217Q221 238 250 238Q279 238 300 217Q321 196 321 167Q321 138 300 117Q279 96 250 96Q221 96 200 117M33 283L33 395L467 395L467 283L33 283Z"  horiz-adv-x="500" vert-adv-y="1000"  />

      
      <glyph glyph-name="unif8" unicode="&#xf8;" d="M24 7L89 72Q40 135 40 216Q40 320 113 386Q181 447 288 447Q369 447 428 411L496 479L552 428L486 362Q536 298 536 216Q536 113 463 47Q397-14 288-14Q205-14 146 23L80-43L24 7M396 273L231 108Q258 94 289 94Q343 94 376 130Q410 165 410 218Q410 250 396 273M178 161L343 326Q318 339 291 339Q236 339 200 303Q166 269 166 215Q166 189 178 161Z"  horiz-adv-x="576" vert-adv-y="1000"  />

      
      <glyph glyph-name="unif9" unicode="&#xf9;" d="M58 433L180 433L180 188Q180 136 206 112Q231 90 268 90Q305 90 330 112Q356 136 356 188L356 433L478 433L478 168Q478 81 425 35Q369-14 268-14Q167-14 111 35Q58 81 58 168L58 433M262 510L112 644L200 700L318 550L262 510Z"  horiz-adv-x="536" vert-adv-y="1000"  />

      
      <glyph glyph-name="unifa" unicode="&#xfa;" d="M58 433L180 433L180 188Q180 136 206 112Q231 90 268 90Q305 90 330 112Q356 136 356 188L356 433L478 433L478 168Q478 81 425 35Q369-14 268-14Q167-14 111 35Q58 81 58 168L58 433M336 700L424 644L274 510L218 550L336 700Z"  horiz-adv-x="536" vert-adv-y="1000"  />

      
      <glyph glyph-name="unifb" unicode="&#xfb;" d="M58 433L180 433L180 188Q180 136 206 112Q231 90 268 90Q305 90 330 112Q356 136 356 188L356 433L478 433L478 168Q478 81 425 35Q369-14 268-14Q167-14 111 35Q58 81 58 168L58 433M268 602L158 510L98 570L268 708L438 570L378 510L268 602Z"  horiz-adv-x="536" vert-adv-y="1000"  />

      
      <glyph glyph-name="unifc" unicode="&#xfc;" d="M58 433L180 433L180 188Q180 136 206 112Q231 90 268 90Q305 90 330 112Q356 136 356 188L356 433L478 433L478 168Q478 81 425 35Q369-14 268-14Q167-14 111 35Q58 81 58 168L58 433M113.50 535.50Q113.50 535.50 102.75 546.25Q92 557 92 586Q92 615 113.50 636.50Q135 658 164 658Q193 658 214.50 636.50Q236 615 236 586Q236 557 214.50 535.50Q193 514 164 514Q135 514 113.50 535.50M321.50 535.50Q321.50 535.50 310.75 546.25Q300 557 300 586Q300 615 321.50 636.50Q343 658 372 658Q401 658 422.50 636.50Q444 615 444 586Q444 557 422.50 535.50Q401 514 372 514Q343 514 321.50 535.50Z"  horiz-adv-x="536" vert-adv-y="1000"  />

      
      <glyph glyph-name="unifd" unicode="&#xfd;" d="M49-229L208 65L2 433L144 433L278 187L398 433L536 433L187-229L49-229M337 700L425 644L275 510L219 550L337 700Z"  horiz-adv-x="538" vert-adv-y="1000"  />

      
      <glyph glyph-name="unife" unicode="&#xfe;" d="M58 729L180 729L180 377Q230 447 321 447Q416 447 475 382Q534 317 534 217Q534 117 473.50 51.50Q413-14 318-14Q231-14 180 56L180-230L58-230L58 729M202 129.50Q202 129.50 219 111.75Q236 94 288 94Q340 94 374 129.50Q408 165 408 217Q408 269 374 304Q340 339 288 339Q236 339 202 304Q168 269 168 217Q168 165 202 129.50Z"  horiz-adv-x="570" vert-adv-y="1000"  />

      
      <glyph glyph-name="uniff" unicode="&#xff;" d="M49-229L208 65L2 433L144 433L278 187L398 433L536 433L187-229L49-229M125.50 535.50Q125.50 535.50 114.75 546.25Q104 557 104 586Q104 615 125.50 636.50Q147 658 176 658Q205 658 226.50 636.50Q248 615 248 586Q248 557 226.50 535.50Q205 514 176 514Q147 514 125.50 535.50M333.50 535.50Q333.50 535.50 322.75 546.25Q312 557 312 586Q312 615 333.50 636.50Q355 658 384 658Q413 658 434.50 636.50Q456 615 456 586Q456 557 434.50 535.50Q413 514 384 514Q355 514 333.50 535.50Z"  horiz-adv-x="538" vert-adv-y="1000"  />

      
      <glyph glyph-name="uni0100" unicode="&#x0100;" d="M530 0L471 140L202 140L143 0L2 0L289 667L391 667L670 0L530 0M243 246L433 246L338 486L243 246M153 745L153 831L519 831L519 745L153 745Z"  horiz-adv-x="672" vert-adv-y="1000"  />

      
      <glyph glyph-name="uni0101" unicode="&#x0101;" d="M390 377L390 433L512 433L512 0L390 0L390 56Q341-14 257-14Q159-14 97.50 53Q36 120 36 217Q36 315 96 381Q156 447 251 447Q345 447 390 377M368 304Q368 304 351 321.50Q334 339 282 339Q230 339 196 304Q162 269 162 217Q162 165 196 129.50Q230 94 282 94Q334 94 368 129.50Q402 165 402 217Q402 269 368 304M116 539L116 619L480 619L480 539L116 539Z"  horiz-adv-x="570" vert-adv-y="1000"  />

      
      <glyph glyph-name="uni0102" unicode="&#x0102;" d="M530 0L471 140L202 140L143 0L2 0L289 667L391 667L670 0L530 0M243 246L433 246L338 486L243 246M416 870L506 870Q500 807 453 766.50Q406 726 336 726Q266 726 219 766.50Q172 807 166 870L256 870Q268 810 336 810Q404 810 416 870Z"  horiz-adv-x="672" vert-adv-y="1000"  />

      
      <glyph glyph-name="uni0103" unicode="&#x0103;" d="M390 377L390 433L512 433L512 0L390 0L390 56Q341-14 257-14Q159-14 97.50 53Q36 120 36 217Q36 315 96 381Q156 447 251 447Q345 447 390 377M368 304Q368 304 351 321.50Q334 339 282 339Q230 339 196 304Q162 269 162 217Q162 165 196 129.50Q230 94 282 94Q334 94 368 129.50Q402 165 402 217Q402 269 368 304M364 650L448 650Q442 601 411 563Q364 509 284 509Q204 509 157 563Q126 601 120 650L204 650Q209 624 226 608Q247 587 284 587Q321 587 342 608Q359 624 364 650Z"  horiz-adv-x="570" vert-adv-y="1000"  />

      
      <glyph glyph-name="uni0104" unicode="&#x0104;" d="M202 140L143 0L2 0L289 667L391 667L670 0L600 0Q575-18 560-36Q542-59 542-83Q542-98 552-108Q563-119 585-119Q606-119 632-107L618-176Q585-193 551-193Q508-193 480-167Q456-143 456-108Q456-74 479-44Q498-20 530 0L471 140L202 140M243 246L433 246L339 486L243 246Z"  horiz-adv-x="672" vert-adv-y="1000"  />

      
      <glyph glyph-name="uni0105" unicode="&#x0105;" d="M390 377L390 433L512 433L512 0L472 0Q445-17 430-36Q410-58 410-79Q410-96 425-108Q437-117 456-117Q480-117 502-105L488-172Q461-189 426-189Q382-189 357-165Q334-142 334-108Q334-72 360-40Q379-18 408 0L390 0L390 56Q341-14 257-14Q163-14 101 49Q36 116 36 217Q36 323 103 388Q164 447 251 447Q345 447 390 377M282 339Q229 339 196 304Q162 268 162 217Q162 163 196 129Q231 94 282 94Q335 94 368 129Q402 163 402 217Q402 272 367 305Q333 339 282 339Z"  horiz-adv-x="570" vert-adv-y="1000"  />

      
      <glyph glyph-name="uni0106" unicode="&#x0106;" d="M560 176L560 24Q486-15 395-15Q249-15 151 78Q44 181 44 333Q44 495 151 594Q245 682 396 682Q484 682 560 641L560 489Q495 564 399 564Q301 564 239.50 495.50Q178 427 178 331Q178 226 246 164.50Q314 103 404 103Q498 103 560 176M366 728L310 778L450 920L540 850L366 728Z"  horiz-adv-x="604" vert-adv-y="1000"  />

      
      <glyph glyph-name="uni0107" unicode="&#x0107;" d="M384 421L384 301Q343 339 284 339Q226 339 194 303.50Q162 268 162 217Q162 164 197.50 129Q233 94 288 94Q342 94 384 132L384 13Q330-14 272-14Q171-14 105 49Q36 114 36 215Q36 325 111 391Q174 447 267 447Q330 447 384 421M318 700L406 644L256 510L200 550L318 700Z"  horiz-adv-x="418" vert-adv-y="1000"  />

      
      <glyph glyph-name="uni0108" unicode="&#x0108;" d="M560 176L560 24Q486-15 395-15Q249-15 151 78Q44 181 44 333Q44 495 151 594Q245 682 396 682Q484 682 560 641L560 489Q495 564 399 564Q301 564 239.50 495.50Q178 427 178 331Q178 226 246 164.50Q314 103 404 103Q498 103 560 176M380 820L260 732L200 796L380 930L560 796L500 732L380 820Z"  horiz-adv-x="604" vert-adv-y="1000"  />

      
      <glyph glyph-name="uni0109" unicode="&#x0109;" d="M384 421L384 301Q343 339 284 339Q226 339 194 303.50Q162 268 162 217Q162 164 197.50 129Q233 94 288 94Q342 94 384 132L384 13Q330-14 272-14Q171-14 105 49Q36 114 36 215Q36 325 111 391Q174 447 267 447Q330 447 384 421M260 602L150 510L90 570L260 708L430 570L370 510L260 602Z"  horiz-adv-x="418" vert-adv-y="1000"  />

      
      <glyph glyph-name="uni010A" unicode="&#x010A;" d="M560 176L560 24Q486-15 395-15Q249-15 151 78Q44 181 44 333Q44 495 151 594Q245 682 396 682Q484 682 560 641L560 489Q495 564 399 564Q301 564 239.50 495.50Q178 427 178 331Q178 226 246 164.50Q314 103 404 103Q498 103 560 176M341.50 761.50Q341.50 761.50 330.25 772.75Q319 784 319 817Q319 850 341.50 872.50Q364 895 397 895Q430 895 452.50 872.50Q475 850 475 817Q475 784 452.50 761.50Q430 739 397 739Q364 739 341.50 761.50Z"  horiz-adv-x="604" vert-adv-y="1000"  />

      
      <glyph glyph-name="uni010B" unicode="&#x010B;" d="M384 421L384 301Q343 339 284 339Q226 339 194 303.50Q162 268 162 217Q162 164 197.50 129Q233 94 288 94Q342 94 384 132L384 13Q330-14 272-14Q171-14 105 49Q36 114 36 215Q36 325 111 391Q174 447 267 447Q330 447 384 421M218 536Q218 536 207 547Q196 558 196 590Q196 622 218 644Q240 666 272 666Q304 666 326 644Q348 622 348 590Q348 558 326 536Q304 514 272 514Q240 514 218 536Z"  horiz-adv-x="418" vert-adv-y="1000"  />

      
      <glyph glyph-name="uni010C" unicode="&#x010C;" d="M560 176L560 24Q486-15 395-15Q249-15 151 78Q44 181 44 333Q44 495 151 594Q245 682 396 682Q484 682 560 641L560 489Q495 564 399 564Q301 564 239.50 495.50Q178 427 178 331Q178 226 246 164.50Q314 103 404 103Q498 103 560 176M380 842L500 930L560 866L380 732L200 866L260 930L380 842Z"  horiz-adv-x="604" vert-adv-y="1000"  />

      
      <glyph glyph-name="uni010D" unicode="&#x010D;" d="M384 421L384 301Q343 339 284 339Q226 339 194 303.50Q162 268 162 217Q162 164 197.50 129Q233 94 288 94Q342 94 384 132L384 13Q330-14 272-14Q171-14 105 49Q36 114 36 215Q36 325 111 391Q174 447 267 447Q330 447 384 421M260 616L370 708L430 648L260 510L90 648L150 708L260 616Z"  horiz-adv-x="418" vert-adv-y="1000"  />

      
      <glyph glyph-name="uni010E" unicode="&#x010E;" d="M76 667L250 667Q329 667 388 653.50Q447 640 498 602Q559 556 592.50 486Q626 416 626 333Q626 158 492 64Q438 26 382 13Q326 0 248 0L76 0L76 667M206 555L206 112L246 112Q348 112 409 156Q448 184 470 231.50Q492 279 492 333Q492 386 470.50 433.50Q449 481 410 511Q351 555 246 555L206 555M290 842L410 930L470 866L290 732L110 866L170 930L290 842Z"  horiz-adv-x="670" vert-adv-y="1000"  />

      
      <glyph glyph-name="uni010F" unicode="&#x010F;" d="M390 377L390 729L512 729L512 0L390 0L390 56Q341-14 257-14Q159-14 97.50 53Q36 120 36 217Q36 315 96 381Q156 447 251 447Q345 447 390 377M368 304Q368 304 351 321.50Q334 339 282 339Q230 339 196 304Q162 269 162 217Q162 165 196 129.50Q230 94 282 94Q334 94 368 129.50Q402 165 402 217Q402 269 368 304M560 478L626 690L740 670L644 462L560 478Z"  horiz-adv-x="710" vert-adv-y="1000"  />

      
      <glyph glyph-name="uni0110" unicode="&#x0110;" d="M76 667L250 667Q329 667 388 653.50Q447 640 498 602Q558 557 591.50 486.50Q625 416 625 333Q625 160 492 64Q438 26 382 13Q326 0 248 0L76 0L76 316L-10 316L-10 416L76 416L76 667M206 555L206 416L328 416L328 316L206 316L206 112L246 112Q347 112 408 156Q447 184 469 231.50Q491 279 491 333Q491 391 467.50 437.50Q444 484 409 511Q352 555 246 555L206 555Z"  horiz-adv-x="669" vert-adv-y="1000"  />

      
      <glyph glyph-name="uni0111" unicode="&#x0111;" d="M390 377L390 559L170 559L170 637L390 637L390 729L512 729L512 637L590 637L590 559L512 559L512 0L390 0L390 56Q341-14 257-14Q159-14 97.50 53Q36 120 36 217Q36 315 96 381Q156 447 251 447Q345 447 390 377M368 304Q368 304 351 321.50Q334 339 282 339Q230 339 196 304Q162 269 162 217Q162 165 196 129.50Q230 94 282 94Q334 94 368 129.50Q402 165 402 217Q402 269 368 304Z"  horiz-adv-x="570" vert-adv-y="1000"  />

      
      <glyph glyph-name="uni0112" unicode="&#x0112;" d="M446 667L446 555L206 555L206 406L436 406L436 294L206 294L206 112L446 112L446 0L76 0L76 667L446 667M77 745L77 831L443 831L443 745L77 745Z"  horiz-adv-x="496" vert-adv-y="1000"  />

      
      <glyph glyph-name="uni0113" unicode="&#x0113;" d="M371 139L483 121Q476 103 464.50 85.50Q453 68 429 42.50Q405 17 364 1.50Q323-14 270-14Q168-14 104 47Q36 111 36 216Q36 320 102 386Q164 447 265 447Q375 447 434 376Q486 314 486 206L486 196L162 196Q162 152 183 123Q213 82 270 82Q338 82 371 139M166 274L371 274Q364 316 334.50 338.50Q305 361 268 361Q232 361 202.50 338Q173 315 166 274M78 539L78 619L442 619L442 539L78 539Z"  horiz-adv-x="522" vert-adv-y="1000"  />

      
      <glyph glyph-name="uni0116" unicode="&#x0116;" d="M446 667L446 555L206 555L206 406L436 406L436 294L206 294L206 112L446 112L446 0L76 0L76 667L446 667M204.50 761.50Q204.50 761.50 193.25 772.75Q182 784 182 817Q182 850 204.50 872.50Q227 895 260 895Q293 895 315.50 872.50Q338 850 338 817Q338 784 315.50 761.50Q293 739 260 739Q227 739 204.50 761.50Z"  horiz-adv-x="496" vert-adv-y="1000"  />

      
      <glyph glyph-name="uni0117" unicode="&#x0117;" d="M371 139L483 121Q476 103 464.50 85.50Q453 68 429 42.50Q405 17 364 1.50Q323-14 270-14Q168-14 104 47Q36 111 36 216Q36 320 102 386Q164 447 265 447Q375 447 434 376Q486 314 486 206L486 196L162 196Q162 152 183 123Q213 82 270 82Q338 82 371 139M166 274L371 274Q364 316 334.50 338.50Q305 361 268 361Q232 361 202.50 338Q173 315 166 274M212 536Q212 536 201 547Q190 558 190 590Q190 622 212 644Q234 666 266 666Q298 666 320 644Q342 622 342 590Q342 558 320 536Q298 514 266 514Q234 514 212 536Z"  horiz-adv-x="522" vert-adv-y="1000"  />

      
      <glyph glyph-name="uni0118" unicode="&#x0118;" d="M446 667L446 555L206 555L206 406L436 406L436 294L206 294L206 112L446 112L446 0L406 0Q381-18 366-36Q348-59 348-83Q348-98 358-108Q369-119 391-119Q412-119 438-107L424-176Q391-193 357-193Q314-193 286-167Q262-143 262-108Q262-74 285-44Q304-20 336 0L76 0L76 667L446 667Z"  horiz-adv-x="496" vert-adv-y="1000"  />

      
      <glyph glyph-name="uni0119" unicode="&#x0119;" d="M371 139L483 121Q468 81 443.50 58Q419 35 374 7Q336-16 319-36Q299-61 299-79Q299-96 314-108Q326-117 345-117Q369-117 391-105L377-172Q348-189 316-189Q270-189 246-165Q223-144 223-108Q223-76 241-51Q252-34 277-14Q169-14 104 47Q36 111 36 213Q36 320 102 386Q164 447 264 447Q375 447 434 376Q486 315 486 206L486 196L162 196Q160 154 183 123Q215 82 270 82Q308 82 337 101Q360 117 371 139M166 274L371 274Q364 314 335 338Q307 361 268 361Q229 361 202 338Q172 315 166 274Z"  horiz-adv-x="522" vert-adv-y="1000"  />

      
      <glyph glyph-name="uni011A" unicode="&#x011A;" d="M446 667L446 555L206 555L206 406L436 406L436 294L206 294L206 112L446 112L446 0L76 0L76 667L446 667M260 842L380 930L440 866L260 732L80 866L140 930L260 842Z"  horiz-adv-x="496" vert-adv-y="1000"  />

      
      <glyph glyph-name="uni011B" unicode="&#x011B;" d="M371 139L483 121Q476 103 464.50 85.50Q453 68 429 42.50Q405 17 364 1.50Q323-14 270-14Q168-14 104 47Q36 111 36 216Q36 320 102 386Q164 447 265 447Q375 447 434 376Q486 314 486 206L486 196L162 196Q162 152 183 123Q213 82 270 82Q338 82 371 139M166 274L371 274Q364 316 334.50 338.50Q305 361 268 361Q232 361 202.50 338Q173 315 166 274M264 616L374 708L434 648L264 510L94 648L154 708L264 616Z"  horiz-adv-x="522" vert-adv-y="1000"  />

      
      <glyph glyph-name="uni011C" unicode="&#x011C;" d="M414 245L414 357L720 357L720 349Q720 170 622 73Q534-15 385-15Q233-15 143 75Q44 174 44 332Q44 482 142 580Q242 682 405 682Q493 682 559 647Q636 608 684 525L571 464Q544 516 493 543Q451 564 399 564Q305 564 245 505Q178 440 178 329Q178 224 244 160Q303 103 392 103Q470 103 523 143Q571 180 586 245L414 245M390 820L270 732L210 796L390 930L570 796L510 732L390 820Z"  horiz-adv-x="764" vert-adv-y="1000"  />

      
      <glyph glyph-name="uni011D" unicode="&#x011D;" d="M388 377L388 433L510 433L510 20Q510-41 498.50-86.50Q487-132 450-169Q389-230 279-230Q173-230 117-180Q64-135 47-51L179-51Q187-84 209-103Q234-126 283-126Q328-126 357-99Q388-69 388-3L388 58Q341-14 255-14Q165-14 105 45Q36 114 36 217Q36 324 103 389Q163 447 252 447Q342 447 388 377M282 339Q233 339 201 309Q162 274 162 217Q162 166 194 132Q229 94 282 94Q330 94 363 124Q402 160 402 217Q402 267 367 304Q333 339 282 339M270 602L160 510L100 570L270 708L440 570L380 510L270 602Z"  horiz-adv-x="568" vert-adv-y="1000"  />

      
      <glyph glyph-name="uni011E" unicode="&#x011E;" d="M414 245L414 357L720 357L720 349Q720 170 622 73Q534-15 385-15Q233-15 143 75Q44 174 44 332Q44 482 142 580Q242 682 405 682Q493 682 559 647Q636 608 684 525L571 464Q544 516 493 543Q451 564 399 564Q305 564 245 505Q178 440 178 329Q178 224 244 160Q303 103 392 103Q470 103 523 143Q571 180 586 245L414 245M474 870L564 870Q558 807 511 766.50Q464 726 394 726Q324 726 277 766.50Q230 807 224 870L314 870Q326 810 394 810Q462 810 474 870Z"  horiz-adv-x="764" vert-adv-y="1000"  />

      
      <glyph glyph-name="uni011F" unicode="&#x011F;" d="M388 377L388 433L510 433L510 20Q510-41 498.50-86.50Q487-132 450-169Q389-230 279-230Q173-230 117-180Q64-135 47-51L179-51Q187-84 209-103Q234-126 283-126Q328-126 357-99Q388-69 388-3L388 58Q341-14 255-14Q165-14 105 45Q36 114 36 217Q36 324 103 389Q163 447 252 447Q342 447 388 377M282 339Q233 339 201 309Q162 274 162 217Q162 166 194 132Q229 94 282 94Q330 94 363 124Q402 160 402 217Q402 267 367 304Q333 339 282 339M350 650L434 650Q428 601 397 563Q350 509 270 509Q190 509 143 563Q112 601 106 650L190 650Q195 624 212 608Q233 587 270 587Q307 587 328 608Q345 624 350 650Z"  horiz-adv-x="568" vert-adv-y="1000"  />

      
      <glyph glyph-name="uni0120" unicode="&#x0120;" d="M414 245L414 357L720 357L720 349Q720 170 622 73Q534-15 385-15Q233-15 143 75Q44 174 44 332Q44 482 142 580Q242 682 405 682Q493 682 559 647Q636 608 684 525L571 464Q544 516 493 543Q451 564 399 564Q305 564 245 505Q178 440 178 329Q178 224 244 160Q303 103 392 103Q470 103 523 143Q571 180 586 245L414 245M351.50 761.50Q351.50 761.50 340.25 772.75Q329 784 329 817Q329 850 351.50 872.50Q374 895 407 895Q440 895 462.50 872.50Q485 850 485 817Q485 784 462.50 761.50Q440 739 407 739Q374 739 351.50 761.50Z"  horiz-adv-x="764" vert-adv-y="1000"  />

      
      <glyph glyph-name="uni0121" unicode="&#x0121;" d="M388 377L388 433L510 433L510 20Q510-41 498.50-86.50Q487-132 450-169Q389-230 279-230Q173-230 117-180Q64-135 47-51L179-51Q187-84 209-103Q234-126 283-126Q328-126 357-99Q388-69 388-3L388 58Q341-14 255-14Q165-14 105 45Q36 114 36 217Q36 324 103 389Q163 447 252 447Q342 447 388 377M282 339Q233 339 201 309Q162 274 162 217Q162 166 194 132Q229 94 282 94Q330 94 363 124Q402 160 402 217Q402 267 367 304Q333 339 282 339M216 536Q216 536 205 547Q194 558 194 590Q194 622 216 644Q238 666 270 666Q302 666 324 644Q346 622 346 590Q346 558 324 536Q302 514 270 514Q238 514 216 536Z"  horiz-adv-x="568" vert-adv-y="1000"  />

      
      <glyph glyph-name="uni0122" unicode="&#x0122;" d="M414 245L414 357L720 357L720 349Q720 170 622 73Q534-15 385-15Q233-15 143 75Q44 174 44 332Q44 482 142 580Q242 682 405 682Q493 682 559 647Q636 608 684 525L571 464Q544 516 493 543Q451 564 399 564Q305 564 245 505Q178 440 178 329Q178 224 244 160Q303 103 392 103Q470 103 523 143Q571 180 586 245L414 245M280-258L348-50L460-66L360-270L280-258Z"  horiz-adv-x="764" vert-adv-y="1000"  />

      
      <glyph glyph-name="uni0123" unicode="&#x0123;" d="M388 377L388 433L510 433L510 20Q510-41 498.50-86.50Q487-132 450-169Q389-230 279-230Q173-230 117-180Q64-135 47-51L179-51Q187-84 209-103Q234-126 283-126Q328-126 357-99Q388-69 388-3L388 58Q341-14 255-14Q165-14 105 45Q36 114 36 217Q36 324 103 389Q163 447 252 447Q342 447 388 377M282 339Q233 339 201 309Q162 274 162 217Q162 166 194 132Q229 94 282 94Q330 94 363 124Q402 160 402 217Q402 267 367 304Q333 339 282 339M374 690L306 482L194 498L294 702L374 690Z"  horiz-adv-x="568" vert-adv-y="1000"  />

      
      <glyph glyph-name="uni0124" unicode="&#x0124;" d="M206 667L206 409L488 409L488 667L618 667L618 0L488 0L488 297L206 297L206 0L76 0L76 667L206 667M347 820L227 732L167 796L347 930L527 796L467 732L347 820Z"  horiz-adv-x="694" vert-adv-y="1000"  />

      
      <glyph glyph-name="uni0125" unicode="&#x0125;" d="M58 0L58 729L180 729L180 377Q230 447 314 447Q399 447 442 394Q476 352 476 272L476 0L354 0L354 236Q354 297 331 321Q310 343 274 343Q224 343 199 305Q180 275 180 221L180 0L58 0M130 852L20 760L-40 820L130 958L300 820L240 760L130 852Z"  horiz-adv-x="534" vert-adv-y="1000"  />

      
      <glyph glyph-name="uni0126" unicode="&#x0126;" d="M206 667L206 614L488 614L488 667L618 667L618 614L678 614L678 518L618 518L618 0L488 0L488 297L206 297L206 0L76 0L76 518L16 518L16 614L76 614L76 667L206 667M488 518L206 518L206 409L488 409L488 518Z"  horiz-adv-x="694" vert-adv-y="1000"  />

      
      <glyph glyph-name="uni0127" unicode="&#x0127;" d="M68 0L68 559L-10 559L-10 637L68 637L68 729L190 729L190 637L390 637L390 559L190 559L190 377Q240 447 324 447Q409 447 452 394Q486 352 486 272L486 0L364 0L364 236Q364 297 341 321Q320 343 284 343Q234 343 209 305Q190 275 190 221L190 0L68 0Z"  horiz-adv-x="544" vert-adv-y="1000"  />

      
      <glyph glyph-name="uni012A" unicode="&#x012A;" d="M76 667L206 667L206 0L76 0L76 667M1 745L1 831L281 831L281 745L1 745Z"  horiz-adv-x="282" vert-adv-y="1000"  />

      
      <glyph glyph-name="uni012B" unicode="&#x012B;" d="M58 433L180 433L180 0L58 0L58 433M-3 539L-3 619L241 619L241 539L-3 539Z"  horiz-adv-x="238" vert-adv-y="1000"  />

      
      <glyph glyph-name="uni012E" unicode="&#x012E;" d="M76 667L206 667L206 0Q181-18 166-36Q148-59 148-83Q148-98 158-108Q169-119 191-119Q212-119 238-107L224-176Q191-193 157-193Q114-193 86-167Q62-143 62-108Q62-74 85-44Q104-20 136 0L76 0L76 667Z"  horiz-adv-x="282" vert-adv-y="1000"  />

      
      <glyph glyph-name="uni012F" unicode="&#x012F;" d="M58 433L180 433L180 0Q153-17 138-36Q118-58 118-79Q118-96 133-108Q145-117 164-117Q188-117 210-105L196-172Q169-189 134-189Q90-189 65-165Q42-142 42-108Q42-72 68-40Q87-18 116 0L58 0L58 433M67.50 564.50Q67.50 564.50 56.75 575.25Q46 586 46 616Q46 646 67.50 667.50Q89 689 119 689Q149 689 170.50 667.50Q192 646 192 616Q192 586 170.50 564.50Q149 543 119 543Q89 543 67.50 564.50Z"  horiz-adv-x="238" vert-adv-y="1000"  />

      
      <glyph glyph-name="uni0130" unicode="&#x0130;" d="M76 667L206 667L206 0L76 0L76 667M85.50 761.50Q85.50 761.50 74.25 772.75Q63 784 63 817Q63 850 85.50 872.50Q108 895 141 895Q174 895 196.50 872.50Q219 850 219 817Q219 784 196.50 761.50Q174 739 141 739Q108 739 85.50 761.50Z"  horiz-adv-x="282" vert-adv-y="1000"  />

      
      <glyph glyph-name="uni0131" unicode="&#x0131;" d="M58 433L180 433L180 0L58 0L58 433Z"  horiz-adv-x="238" vert-adv-y="1000"  />

      
      <glyph glyph-name="uni0134" unicode="&#x0134;" d="M184 667L314 667L314 217Q314 68 236 15Q190-15 127-15Q39-15-26 47L53 142Q78 106 118 106Q154 106 169 129Q184 151 184 237L184 667M240 820L120 732L60 796L240 930L420 796L360 732L240 820Z"  horiz-adv-x="390" vert-adv-y="1000"  />

      
      <glyph glyph-name="uni0135" unicode="&#x0135;" d="M58 433L180 433L180-229L58-229L58 433M119 602L32 524L-24 580L119 708L262 580L206 524L119 602Z"  horiz-adv-x="238" vert-adv-y="1000"  />

      
      <glyph glyph-name="uni0136" unicode="&#x0136;" d="M206 667L206 385L451 667L615 667L333 359L630 0L458 0L221 299L206 284L206 0L76 0L76 667L206 667M211-258L279-50L391-66L291-270L211-258Z"  horiz-adv-x="636" vert-adv-y="1000"  />

      
      <glyph glyph-name="uni0137" unicode="&#x0137;" d="M58 729L180 729L180 275L342 433L500 433L297 243L516 0L354 0L193 185L180 173L180 0L58 0L58 729M150-258L218-50L330-66L230-270L150-258Z"  horiz-adv-x="512" vert-adv-y="1000"  />

      
      <glyph glyph-name="uni0139" unicode="&#x0139;" d="M76 667L206 667L206 112L412 112L412 0L76 0L76 667M176 728L120 778L260 920L350 850L176 728Z"  horiz-adv-x="426" vert-adv-y="1000"  />

      
      <glyph glyph-name="uni013A" unicode="&#x013A;" d="M58 729L180 729L180 0L58 0L58 729M187 960L275 904L125 770L69 810L187 960Z"  horiz-adv-x="238" vert-adv-y="1000"  />

      
      <glyph glyph-name="uni013B" unicode="&#x013B;" d="M76 667L206 667L206 112L412 112L412 0L76 0L76 667M130-258L198-50L310-66L210-270L130-258Z"  horiz-adv-x="426" vert-adv-y="1000"  />

      
      <glyph glyph-name="uni013C" unicode="&#x013C;" d="M58 729L180 729L180 0L58 0L58 729M10-258L78-50L190-66L90-270L10-258Z"  horiz-adv-x="238" vert-adv-y="1000"  />

      
      <glyph glyph-name="uni013D" unicode="&#x013D;" d="M76 667L206 667L206 112L412 112L412 0L76 0L76 667M260 468L326 680L440 660L344 452L260 468Z"  horiz-adv-x="426" vert-adv-y="1000"  />

      
      <glyph glyph-name="uni013E" unicode="&#x013E;" d="M58 729L180 729L180 0L58 0L58 729M228 478L294 690L408 670L312 462L228 478Z"  horiz-adv-x="378" vert-adv-y="1000"  />

      
      <glyph glyph-name="uni013F" unicode="&#x013F;" d="M76 667L206 667L206 112L412 112L412 0L76 0L76 667M296.50 279.50Q296.50 279.50 285.25 290.75Q274 302 274 335Q274 368 296.50 390.50Q319 413 352 413Q385 413 407.50 390.50Q430 368 430 335Q430 302 407.50 279.50Q385 257 352 257Q319 257 296.50 279.50Z"  horiz-adv-x="426" vert-adv-y="1000"  />

      
      <glyph glyph-name="uni0140" unicode="&#x0140;" d="M58 729L180 729L180 0L58 0L58 729M258 311.50Q258 311.50 247 322.75Q236 334 236 365Q236 396 258 418.50Q280 441 312 441Q344 441 366 418.50Q388 396 388 365Q388 334 366 311.50Q344 289 312 289Q280 289 258 311.50Z"  horiz-adv-x="386" vert-adv-y="1000"  />

      
      <glyph glyph-name="uni0141" unicode="&#x0141;" d="M76 667L206 667L206 441L308 506L308 406L206 341L206 112L412 112L412 0L76 0L76 278L-10 223L-10 323L76 378L76 667Z"  horiz-adv-x="426" vert-adv-y="1000"  />

      
      <glyph glyph-name="uni0142" unicode="&#x0142;" d="M58 729L180 729L180 520L254 574L254 484L180 430L180 0L58 0L58 364L-16 310L-16 400L58 454L58 729Z"  horiz-adv-x="238" vert-adv-y="1000"  />

      
      <glyph glyph-name="uni0143" unicode="&#x0143;" d="M206 0L76 0L76 667L166 667L572 222L572 667L702 667L702 0L612 0L206 446L206 0M365 728L309 778L449 920L539 850L365 728Z"  horiz-adv-x="778" vert-adv-y="1000"  />

      
      <glyph glyph-name="uni0144" unicode="&#x0144;" d="M58 0L58 433L180 433L180 377Q230 447 314 447Q399 447 442 394Q476 352 476 272L476 0L354 0L354 236Q354 297 331 321Q310 343 274 343Q224 343 199 305Q180 275 180 221L180 0L58 0M335 700L423 644L273 510L217 550L335 700Z"  horiz-adv-x="534" vert-adv-y="1000"  />

      
      <glyph glyph-name="uni0145" unicode="&#x0145;" d="M206 0L76 0L76 667L166 667L572 222L572 667L702 667L702 0L612 0L206 446L206 0M279-258L347-50L459-66L359-270L279-258Z"  horiz-adv-x="778" vert-adv-y="1000"  />

      
      <glyph glyph-name="uni0146" unicode="&#x0146;" d="M58 0L58 433L180 433L180 377Q230 447 314 447Q399 447 442 394Q476 352 476 272L476 0L354 0L354 236Q354 297 331 321Q310 343 274 343Q224 343 199 305Q180 275 180 221L180 0L58 0M160-258L228-50L340-66L240-270L160-258Z"  horiz-adv-x="534" vert-adv-y="1000"  />

      
      <glyph glyph-name="uni0147" unicode="&#x0147;" d="M206 0L76 0L76 667L166 667L572 222L572 667L702 667L702 0L612 0L206 446L206 0M389 842L509 930L569 866L389 732L209 866L269 930L389 842Z"  horiz-adv-x="778" vert-adv-y="1000"  />

      
      <glyph glyph-name="uni0148" unicode="&#x0148;" d="M58 0L58 433L180 433L180 377Q230 447 314 447Q399 447 442 394Q476 352 476 272L476 0L354 0L354 236Q354 297 331 321Q310 343 274 343Q224 343 199 305Q180 275 180 221L180 0L58 0M290 616L400 708L460 648L290 510L120 648L180 708L290 616Z"  horiz-adv-x="534" vert-adv-y="1000"  />

      
      <glyph glyph-name="uni014C" unicode="&#x014C;" d="M143.50 584Q143.50 584 193.25 633Q243 682 400 682Q557 682 656.50 584Q756 486 756 333Q756 180 656.50 82.50Q557-15 400-15Q243-15 143.50 82.50Q44 180 44 333Q44 486 143.50 584M240 167.50Q240 167.50 271 135.25Q302 103 400 103Q498 103 560 167.50Q622 232 622 333Q622 434 559.50 499Q497 564 400 564Q303 564 240.50 499Q178 434 178 333Q178 232 240 167.50M217 745L217 831L583 831L583 745L217 745Z"  horiz-adv-x="800" vert-adv-y="1000"  />

      
      <glyph glyph-name="uni014D" unicode="&#x014D;" d="M109 386Q175 447 284 447Q393 447 459 386Q532 320 532 216Q532 113 459 47Q393-14 284-14Q175-14 109 47Q36 113 36 216Q36 320 109 386M197 130Q197 130 214.50 112Q232 94 284 94Q336 94 371 130Q406 166 406 216Q406 267 371 303Q336 339 284 339Q232 339 197 303Q162 267 162 216Q162 166 197 130M102 539L102 619L466 619L466 539L102 539Z"  horiz-adv-x="568" vert-adv-y="1000"  />

      
      <glyph glyph-name="uni014E" unicode="&#x014E;" d="M143.50 584Q143.50 584 193.25 633Q243 682 400 682Q557 682 656.50 584Q756 486 756 333Q756 180 656.50 82.50Q557-15 400-15Q243-15 143.50 82.50Q44 180 44 333Q44 486 143.50 584M240 167.50Q240 167.50 271 135.25Q302 103 400 103Q498 103 560 167.50Q622 232 622 333Q622 434 559.50 499Q497 564 400 564Q303 564 240.50 499Q178 434 178 333Q178 232 240 167.50M480 870L570 870Q564 807 517 766.50Q470 726 400 726Q330 726 283 766.50Q236 807 230 870L320 870Q332 810 400 810Q468 810 480 870Z"  horiz-adv-x="800" vert-adv-y="1000"  />

      
      <glyph glyph-name="uni014F" unicode="&#x014F;" d="M109 386Q175 447 284 447Q393 447 459 386Q532 320 532 216Q532 113 459 47Q393-14 284-14Q175-14 109 47Q36 113 36 216Q36 320 109 386M197 130Q197 130 214.50 112Q232 94 284 94Q336 94 371 130Q406 166 406 216Q406 267 371 303Q336 339 284 339Q232 339 197 303Q162 267 162 216Q162 166 197 130M364 650L448 650Q442 601 411 563Q364 509 284 509Q204 509 157 563Q126 601 120 650L204 650Q209 624 226 608Q247 587 284 587Q321 587 342 608Q359 624 364 650Z"  horiz-adv-x="568" vert-adv-y="1000"  />

      
      <glyph glyph-name="uni0150" unicode="&#x0150;" d="M143.50 584Q143.50 584 193.25 633Q243 682 400 682Q557 682 656.50 584Q756 486 756 333Q756 180 656.50 82.50Q557-15 400-15Q243-15 143.50 82.50Q44 180 44 333Q44 486 143.50 584M240 167.50Q240 167.50 271 135.25Q302 103 400 103Q498 103 560 167.50Q622 232 622 333Q622 434 559.50 499Q497 564 400 564Q303 564 240.50 499Q178 434 178 333Q178 232 240 167.50M348 921L438 862L294 728L238 768L348 921M548 920L638 862L494 728L438 768L548 920Z"  horiz-adv-x="800" vert-adv-y="1000"  />

      
      <glyph glyph-name="uni0151" unicode="&#x0151;" d="M109 386Q175 447 284 447Q393 447 459 386Q532 320 532 216Q532 113 459 47Q393-14 284-14Q175-14 109 47Q36 113 36 216Q36 320 109 386M197 130Q197 130 214.50 112Q232 94 284 94Q336 94 371 130Q406 166 406 216Q406 267 371 303Q336 339 284 339Q232 339 197 303Q162 267 162 216Q162 166 197 130M238 690L320 632L188 498L138 538L238 690M426 689L508 632L376 498L326 538L426 689Z"  horiz-adv-x="568" vert-adv-y="1000"  />

      
      <glyph glyph-name="uni0152" unicode="&#x0152;" d="M988 667L988 555L754 555L754 406L978 406L978 294L754 294L754 112L988 112L988 0L624 0L624 90Q538-15 394-15Q241-15 142.50 83.50Q44 182 44 333Q44 483 142.50 582.50Q241 682 392 682Q483 682 557 637Q597 613 624 577L624 667L988 667M239 167.50Q239 167.50 269.50 135.25Q300 103 395 103Q490 103 551 167.50Q612 232 612 333Q612 434 551 499Q490 564 395 564Q299 564 238.50 499Q178 434 178 333Q178 232 239 167.50Z"  horiz-adv-x="1038" vert-adv-y="1000"  />

      
      <glyph glyph-name="uni0153" unicode="&#x0153;" d="M729 139L841 121Q834 104 823 86.50Q812 69 788 43.50Q764 18 722.50 2Q681-14 628-14Q515-14 458 70Q439 46 408 24Q351-14 279-14Q177-14 108 47Q36 113 36 216Q36 320 108 386Q175 447 279 447Q393 447 457 368Q514 447 623 447Q731 447 792 376Q844 314 844 206L844 196L520 196Q518 153 541 123Q571 82 628 82Q696 82 729 139M198 127Q198 127 216 110.50Q234 94 279 94Q324 94 360 127Q396 160 396 216Q396 267 363 303Q330 339 279 339Q228 339 195 303Q162 267 162 216Q162 160 198 127M524 274L729 274Q722 316 692.50 338.50Q663 361 626 361Q590 361 560.50 338Q531 315 524 274Z"  horiz-adv-x="880" vert-adv-y="1000"  />

      
      <glyph glyph-name="uni0154" unicode="&#x0154;" d="M76 667L269 667Q379 667 439 617Q505 561 505 467Q505 363 427 310Q397 289 354 281L562 0L400 0L222 268L206 268L206 0L76 0L76 667M206 561L206 360L243 360Q259 360 274.50 362.50Q290 365 315 373.50Q340 382 355.50 404.50Q371 427 371 461Q371 495 356 517.50Q341 540 316 548.50Q291 557 276 559Q261 561 245 561L206 561M263 728L207 778L347 920L437 850L263 728Z"  horiz-adv-x="574" vert-adv-y="1000"  />

      
      <glyph glyph-name="uni0155" unicode="&#x0155;" d="M58 0L58 433L180 433L180 368Q202 410 234 428Q264 447 306 447Q330 447 358 437L342 323Q319 339 285 339Q232 339 204 304Q180 274 180 208L180 0L58 0M258 700L346 644L196 510L140 550L258 700Z"  horiz-adv-x="360" vert-adv-y="1000"  />

      
      <glyph glyph-name="uni0156" unicode="&#x0156;" d="M76 667L269 667Q379 667 439 617Q505 561 505 467Q505 363 427 310Q397 289 354 281L562 0L400 0L222 268L206 268L206 0L76 0L76 667M206 561L206 360L243 360Q259 360 274.50 362.50Q290 365 315 373.50Q340 382 355.50 404.50Q371 427 371 461Q371 495 356 517.50Q341 540 316 548.50Q291 557 276 559Q261 561 245 561L206 561M180-258L248-50L360-66L260-270L180-258Z"  horiz-adv-x="574" vert-adv-y="1000"  />

      
      <glyph glyph-name="uni0157" unicode="&#x0157;" d="M58 0L58 433L180 433L180 368Q202 410 234 428Q264 447 306 447Q330 447 358 437L342 323Q319 339 285 339Q232 339 204 304Q180 274 180 208L180 0L58 0M90-258L158-50L270-66L170-270L90-258Z"  horiz-adv-x="360" vert-adv-y="1000"  />

      
      <glyph glyph-name="uni0158" unicode="&#x0158;" d="M76 667L269 667Q379 667 439 617Q505 561 505 467Q505 363 427 310Q397 289 354 281L562 0L400 0L222 268L206 268L206 0L76 0L76 667M206 561L206 360L243 360Q259 360 274.50 362.50Q290 365 315 373.50Q340 382 355.50 404.50Q371 427 371 461Q371 495 356 517.50Q341 540 316 548.50Q291 557 276 559Q261 561 245 561L206 561M270 842L390 930L450 866L270 732L90 866L150 930L270 842Z"  horiz-adv-x="574" vert-adv-y="1000"  />

      
      <glyph glyph-name="uni0159" unicode="&#x0159;" d="M58 0L58 433L180 433L180 368Q202 410 234 428Q264 447 306 447Q330 447 358 437L342 323Q319 339 285 339Q232 339 204 304Q180 274 180 208L180 0L58 0M210 616L320 708L380 648L210 510L40 648L100 708L210 616Z"  horiz-adv-x="360" vert-adv-y="1000"  />

      
      <glyph glyph-name="uni015A" unicode="&#x015A;" d="M472 604L404 515Q361 572 295 572Q247 572 225 548.50Q203 525 203 494Q203 467 224 449Q240 434 304 411Q403 377 439 344Q496 293 496 204Q496 106 431.50 45.50Q367-15 264-15Q120-15 34 111L119 192Q141 147 180 125Q219 103 259 103Q304 103 333 128.50Q362 154 362 195Q362 230 336 255Q312 277 233 304Q159 329 122 362Q69 408 69 486Q69 567 124 624.50Q179 682 283 682Q396 682 472 604M266 728L210 778L350 920L440 850L266 728Z"  horiz-adv-x="534" vert-adv-y="1000"  />

      
      <glyph glyph-name="uni015B" unicode="&#x015B;" d="M354 401L294 330Q263 359 223 359Q201 359 188.50 349.50Q176 340 176 324Q176 298 215 285L244 276Q329 249 354 214Q376 184 376 142Q376 76 328 32Q278-14 198-14Q97-14 30 58L94 132Q137 82 190 82Q216 82 233 94.50Q250 107 250 129Q250 159 212 173L184 183Q119 206 91 235Q58 270 58 318Q58 378 103 416Q142 447 216 447Q294 447 354 401M270 700L358 644L208 510L152 550L270 700Z"  horiz-adv-x="404" vert-adv-y="1000"  />

      
      <glyph glyph-name="uni015C" unicode="&#x015C;" d="M472 604L404 515Q361 572 295 572Q247 572 225 548.50Q203 525 203 494Q203 467 224 449Q240 434 304 411Q403 377 439 344Q496 293 496 204Q496 106 431.50 45.50Q367-15 264-15Q120-15 34 111L119 192Q141 147 180 125Q219 103 259 103Q304 103 333 128.50Q362 154 362 195Q362 230 336 255Q312 277 233 304Q159 329 122 362Q69 408 69 486Q69 567 124 624.50Q179 682 283 682Q396 682 472 604M280 820L160 732L100 796L280 930L460 796L400 732L280 820Z"  horiz-adv-x="534" vert-adv-y="1000"  />

      
      <glyph glyph-name="uni015D" unicode="&#x015D;" d="M354 401L294 330Q263 359 223 359Q201 359 188.50 349.50Q176 340 176 324Q176 298 215 285L244 276Q329 249 354 214Q376 184 376 142Q376 76 328 32Q278-14 198-14Q97-14 30 58L94 132Q137 82 190 82Q216 82 233 94.50Q250 107 250 129Q250 159 212 173L184 183Q119 206 91 235Q58 270 58 318Q58 378 103 416Q142 447 216 447Q294 447 354 401M210 602L100 510L40 570L210 708L380 570L320 510L210 602Z"  horiz-adv-x="404" vert-adv-y="1000"  />

      
      </font>
</defs>
</svg>
