<?xml version="1.0" standalone="no"?>
  <!DOCTYPE svg PUBLIC "-//W3C//DTD SVG 1.1//EN" "http://www.w3.org/Graphics/SVG/1.1/DTD/svg11.dtd" >
  <svg>
  <metadata>
  Created by font-carrier
  </metadata>
  <defs>
  <font id="FuturaPT-BoldObl" horiz-adv-x="1289" vert-adv-y="1289" >
    <font-face
      
      font-family="Futura PT Bold Italic"
      
      font-weight="400"
      
      font-stretch="normal"
      
      units-per-em="1000"
      
      ascent="982"
      
      descent="-300"
      
    />
      <missing-glyph />

      

      
      <glyph glyph-name="uni21" unicode="&#x21;" d="M154 188Q197 188 225 160.50Q253 133 253 90Q253 46 224 16.50Q195-13 152-13Q108-13 79 16Q50 45 50 89Q50 133 79 160.50Q108 188 154 188M139 667L307 667L252 216L83 216L139 667Z"  horiz-adv-x="336" vert-adv-y="1000"  />

      
      <glyph glyph-name="uni22" unicode="&#x22;" d="M237 667L180 399L84 399L93 667L237 667M425 667L367 399L272 399L281 667L425 667Z"  horiz-adv-x="413" vert-adv-y="1000"  />

      
      <glyph glyph-name="uni23" unicode="&#x23;" d="M484 299L585 299L553 182L451 182L400 0L266 0L318 182L234 182L182 0L50 0L102 182L0 182L33 299L134 299L157 382L57 382L89 498L190 498L238 667L369 667L322 498L406 498L454 667L587 667L539 498L639 498L607 382L507 382L484 299M350 299L374 382L289 382L266 299L350 299Z"  horiz-adv-x="600" vert-adv-y="1000"  />

      
      <glyph glyph-name="uni24" unicode="&#x24;" d="M521 214Q521 128 467 69.50Q413 11 318-5L305-112L205-112L218-7Q141 3 46 63L121 189Q201 136 259 136Q300 136 324.50 154Q349 172 349 201Q349 223 334 238Q319 253 272 277Q213 307 187 326.50Q161 346 144 372Q119 411 119 468Q119 545 167 598.50Q215 652 302 671L314 775L414 775L402 674Q449 667 478 656Q507 645 554 616L481 489Q416 538 364 538Q330 538 310.50 522.50Q291 507 291 481Q291 456 308 440Q325 424 375 402Q456 365 488.50 323Q521 281 521 214Z"  horiz-adv-x="600" vert-adv-y="1000"  />

      
      <glyph glyph-name="uni25" unicode="&#x25;" d="M646 667L734 667L265 0L177 0L646 667M649-8Q570-8 525 36Q480 81 480 142Q480 216 534 269Q587 319 670 319Q754 319 799 274Q840 235 840 172Q840 99 791 48Q736-8 649-8M667 231Q634 231 612 209Q588 186 588 149Q588 119 607 100Q626 81 656 81Q687 81 709 103Q732 126 732 163Q732 194 713 213Q695 231 667 231M247 586Q214 586 192 564Q168 542 168 504Q168 474 187 455Q206 436 236 436Q267 436 289 458Q312 481 312 518Q312 549 293 568Q275 586 247 586M229 347Q150 347 105 391Q60 436 60 497Q60 571 114 624Q167 674 250 674Q334 674 379 629Q420 590 420 527Q420 454 371 403Q316 347 229 347Z"  horiz-adv-x="875" vert-adv-y="1000"  />

      
      <glyph glyph-name="uni26" unicode="&#x26;" d="M670 200Q633 167 593 139L692 0L511 0L472 56Q428 17 378-1Q329-19 266-19Q164-19 109 28Q46 81 46 171Q46 236 87 288Q137 349 241 379Q210 420 197 449Q184 478 184 511Q184 575 227 620Q283 680 388 680Q487 680 542 621Q586 574 586 505Q586 443 542 400Q510 370 446 342L521 238Q566 271 603 313L670 200M376 432Q413 443 434 466Q453 486 453 512Q453 533 439 547Q424 564 392 564Q364 564 346 546Q332 532 332 512Q332 490 348 468Q352 463 353.50 460.50Q355 458 356 457Q357 456 362 449.50Q367 443 376 432M395 165L313 279Q268 262 240 234Q214 210 214 178Q214 153 234 136Q254 120 288 120Q344 120 395 165Z"  horiz-adv-x="720" vert-adv-y="1000"  />

      
      <glyph glyph-name="uni27" unicode="&#x27;" d="M237 667L180 399L84 399L93 667L237 667Z"  horiz-adv-x="225" vert-adv-y="1000"  />

      
      <glyph glyph-name="uni28" unicode="&#x28;" d="M268-134L144-188Q68-2 68 179Q68 318 114.50 448.50Q161 579 264 729L373 664Q331 603 302 541Q270 475 248 402Q212 284 212 171Q212 11 255-100Q256-104 268-134Z"  horiz-adv-x="377" vert-adv-y="1000"  />

      
      <glyph glyph-name="uni29" unicode="&#x29;" d="M123 676L248 729Q295 614 310 518Q323 444 323 371Q323 226 277 94.50Q231-37 127-188L18-122Q179 113 179 380Q179 540 123 676Z"  horiz-adv-x="377" vert-adv-y="1000"  />

      
      <glyph glyph-name="uni2a" unicode="&#x2a;" d="M202 661L300 617L304 729L414 729L390 617L499 661L521 558L407 532L471 447L375 383L328 478L258 383L178 447L262 531L155 557L202 661Z"  horiz-adv-x="593" vert-adv-y="1000"  />

      
      <glyph glyph-name="uni2b" unicode="&#x2b;" d="M47 280L47 400L199 400L199 553L329 553L329 400L480 400L480 280L329 280L329 127L199 127L199 280L47 280Z"  horiz-adv-x="500" vert-adv-y="1000"  />

      
      <glyph glyph-name="uni2c" unicode="&#x2c;" d="M121 167L274 167L92-149L-30-149L121 167Z"  horiz-adv-x="307" vert-adv-y="1000"  />

      
      <glyph glyph-name="uni2d" unicode="&#x2d;" d="M45 202L61 335L314 335L298 202L45 202Z"  horiz-adv-x="353" vert-adv-y="1000"  />

      
      <glyph glyph-name="uni2e" unicode="&#x2e;" d="M134 190Q178 190 208 161Q238 132 238 90Q238 47 209 17Q180-13 138-13Q96-13 65.50 17.50Q35 48 35 89Q35 131 64 160.50Q93 190 134 190Z"  horiz-adv-x="307" vert-adv-y="1000"  />

      
      <glyph glyph-name="uni2f" unicode="&#x2f;" d="M-60-188L568 729L699 729L70-188L-60-188Z"  horiz-adv-x="729" vert-adv-y="1000"  />

      
      <glyph glyph-name="uni30" unicode="&#x30;" d="M339 682Q454 682 525 607.50Q596 533 601 405Q602 399 602 387Q602 218 518 99Q436-15 295-15Q170-15 97 67Q24 149 24 290Q24 463 112 572.50Q200 682 339 682M292 131Q354 131 392.50 202.50Q431 274 431 389Q431 458 407.50 496.50Q384 535 341 535Q279 535 236.50 465Q194 395 194 292Q194 218 220 174.50Q246 131 292 131Z"  horiz-adv-x="600" vert-adv-y="1000"  />

      
      <glyph glyph-name="uni31" unicode="&#x31;" d="M185 667L449 667L366 0L198 0L262 520L167 520L185 667Z"  horiz-adv-x="600" vert-adv-y="1000"  />

      
      <glyph glyph-name="uni32" unicode="&#x32;" d="M323 147L529 147L510 0L1 0Q113 102 184 177Q242 237 292 297Q382 405 382 460Q382 494 361 514.50Q340 535 306 535Q263 535 243.50 509.50Q224 484 219 425L47 425Q57 543 114 604Q187 682 313 682Q425 682 490 623.50Q555 565 555 465Q555 374 500 307Q479 281 446 249Q400 205 323 147Z"  horiz-adv-x="600" vert-adv-y="1000"  />

      
      <glyph glyph-name="uni33" unicode="&#x33;" d="M285-15Q158-15 89 47.50Q20 110 19 227L193 227L193 213Q193 172 217.50 149.50Q242 127 285 127Q328 127 353 149Q378 171 378 209Q378 244 354.50 265Q331 286 291 286Q280 286 270 285L286 411Q308 408 316 408Q351 408 373 428Q395 448 395 480Q395 509 375.50 527Q356 545 325 545Q291 545 273 526Q255 507 249 464L76 464Q92 579 158 632Q220 682 323 682Q434 682 497.50 630.50Q561 579 561 488Q561 437 541 404Q521 371 474 346Q515 324 533 291.50Q551 259 551 208Q551 109 477 47Q403-15 285-15Z"  horiz-adv-x="600" vert-adv-y="1000"  />

      
      <glyph glyph-name="uni34" unicode="&#x34;" d="M549 125L482 125L466 0L312 0L327 125L11 125L20 260L347 667L548 667L498 259L565 259L549 125M184 259L344 259L356 358Q365 433 382 518Q350 470 322 434L184 259Z"  horiz-adv-x="600" vert-adv-y="1000"  />

      
      <glyph glyph-name="uni35" unicode="&#x35;" d="M196 667L556 667L538 520L304 520L277 438Q303 441 329 441Q435 441 493.50 388.50Q552 336 552 241Q552 130 468 57.50Q384-15 254-15Q161-15 80 19Q66 25 3 57L51 210Q105 164 171 143Q216 131 249 131Q307 131 343 160Q379 189 379 236Q379 284 342 309.50Q305 335 237 335Q168 335 79 303L196 667Z"  horiz-adv-x="600" vert-adv-y="1000"  />

      
      <glyph glyph-name="uni36" unicode="&#x36;" d="M539 667L330 433Q358 437 375 437Q467 437 524.50 379Q582 321 582 228Q582 121 503 53Q424-15 300-15Q183-15 107 49.50Q31 114 31 212Q31 256 46 293Q74 366 161 463L340 667L539 667M409 224L409 228Q407 269 379 294.50Q351 320 307 320Q260 320 229 291.50Q198 263 198 219Q198 177 228 149Q258 121 303 121Q349 121 379 150Q409 179 409 224Z"  horiz-adv-x="600" vert-adv-y="1000"  />

      
      <glyph glyph-name="uni37" unicode="&#x37;" d="M118 667L630 667L261 0L76 0L280 367Q322 445 372 520L100 520L118 667Z"  horiz-adv-x="600" vert-adv-y="1000"  />

      
      <glyph glyph-name="uni38" unicode="&#x38;" d="M560 506Q560 450 532 417Q504 384 436 360Q487 341 512.50 320Q538 299 552 264Q566 230 566 189Q566 96 494.50 40.50Q423-15 304-15Q181-15 109.50 38Q38 91 38 183Q38 271 101 320Q130 342 190 360Q104 409 104 498Q104 578 171 630Q238 682 340 682Q443 682 501.50 635Q560 588 560 506M280 450.50Q280 450.50 290 441.25Q300 432 331 432Q362 432 382.50 451.50Q403 471 403 500Q403 530 384 548Q365 566 334 566Q303 566 281.50 546Q260 526 260 497Q260 469 280 450.50M393 205L393 210Q390 241 365.50 259.50Q341 278 303 278Q263 278 237 256.50Q211 235 211 202Q211 169 237 147.50Q263 126 303 126Q342 126 367.50 148.50Q393 171 393 205Z"  horiz-adv-x="600" vert-adv-y="1000"  />

      
      <glyph glyph-name="uni39" unicode="&#x39;" d="M88 0L299 234Q270 228 260 228Q168 228 106.50 289Q45 350 45 442Q45 548 125 615Q205 682 330 682Q448 682 522.50 619Q597 556 597 455Q597 350 494 234L287 0L88 0M430 451L430 457Q427 496 399 520.50Q371 545 329 545Q283 545 251 515.50Q219 486 219 442Q219 401 248.50 374Q278 347 322 347Q369 347 399.50 376Q430 405 430 451Z"  horiz-adv-x="600" vert-adv-y="1000"  />

      
      <glyph glyph-name="uni3a" unicode="&#x3a;" d="M134 190Q178 190 208 161Q238 132 238 90Q238 47 209 17Q180-13 138-13Q96-13 65.50 17Q35 47 35 89Q35 131 64 160.50Q93 190 134 190M167 460Q211 460 241 431Q271 402 271 360Q271 317 242 287Q213 257 171 257Q129 257 99 287Q69 317 69 359Q69 401 97.50 430.50Q126 460 167 460Z"  horiz-adv-x="307" vert-adv-y="1000"  />

      
      <glyph glyph-name="uni3b" unicode="&#x3b;" d="M184 460Q228 460 258 431Q288 402 288 360Q288 317 259 287Q230 257 188 257Q146 257 115.50 287.50Q85 318 85 359Q85 401 114 430.50Q143 460 184 460M115 167L268 167L86-149L-35-149L115 167Z"  horiz-adv-x="307" vert-adv-y="1000"  />

      
      <glyph glyph-name="uni3c" unicode="&#x3c;" d="M33 389L466 609L466 481L170 334L465 186L466 58L33 280L33 389Z"  horiz-adv-x="500" vert-adv-y="1000"  />

      
      <glyph glyph-name="uni3d" unicode="&#x3d;" d="M47 370L47 483L480 483L480 370L47 370M47 197L47 310L480 310L480 197L47 197Z"  horiz-adv-x="500" vert-adv-y="1000"  />

      
      <glyph glyph-name="uni3e" unicode="&#x3e;" d="M493 279L60 58L60 187L356 334L61 481L60 609L493 388L493 279Z"  horiz-adv-x="500" vert-adv-y="1000"  />

      
      <glyph glyph-name="uni3f" unicode="&#x3f;" d="M244 188Q287 188 315 160.50Q343 133 343 90Q343 46 314 16.50Q285-13 242-13Q198-13 169 16Q140 45 140 89Q140 132 169.50 160Q199 188 244 188M350 267L345 230L190 230L210 391Q235 389 257 389Q314 389 347 412Q380 435 380 475Q380 506 360.50 525Q341 544 309 544Q241 544 234 472L77 472Q85 536 101 570.50Q117 605 151 632Q211 680 305 680Q410 680 472 625Q534 570 534 476Q534 391 484.50 334.50Q435 278 350 267Z"  horiz-adv-x="548" vert-adv-y="1000"  />

      
      <glyph glyph-name="uni40" unicode="&#x40;" d="M493 454L505 491L593 491L533 302Q521 264 521 250Q521 227 540 227Q558 227 579 248Q600 269 617 303Q643 357 643 411Q643 496 586.50 547Q530 598 435 598Q311 598 220.50 507Q130 416 130 292Q130 218 165.50 161Q201 104 261 84Q308 68 370 68Q461 68 554 98L564 18Q468-12 358-12Q213-12 128 68.50Q43 149 43 285Q43 443 161.50 560.50Q280 678 440 678Q565 678 643.50 606.50Q722 535 722 421Q722 352 692 289Q662 226 611 186Q569 154 526 154Q499 154 479 169.50Q459 185 456 208Q404 145 323 145Q270 145 235.50 183Q201 221 201 279Q201 323 221.50 368.50Q242 414 278 448Q335 502 401 502Q432 502 457 489Q482 476 493 454M359 236Q395 236 426 270.50Q457 305 457 349Q457 377 442.50 393Q428 409 403 409Q365 409 334 373.50Q303 338 303 294Q303 268 318.50 252Q334 236 359 236Z"  horiz-adv-x="733" vert-adv-y="1000"  />

      
      <glyph glyph-name="uni41" unicode="&#x41;" d="M462 112L224 112L173 0L-15 0L316 667L506 667L667 0L490 0L462 112M353 393L286 244L430 244L402 371Q391 424 387 448Q384 465 383 472Q372 436 353 393Z"  horiz-adv-x="695" vert-adv-y="1000"  />

      
      <glyph glyph-name="uni42" unicode="&#x42;" d="M42 0L124 667L337 667Q401 667 436 659.50Q471 652 495 633Q548 592 548 512Q548 452 518 408Q492 370 439 347Q492 334 518 312Q563 273 563 201Q563 140 528.50 89.50Q494 39 436 17Q393 0 307 0L42 0M307 534L276 534L260 402L284 402Q339 402 363.50 419.50Q388 437 388 476Q388 510 371 522Q354 534 307 534M295 277L244 277L227 133L273 133Q335 133 361.50 152Q388 171 388 214Q388 251 369 264Q350 277 295 277Z"  horiz-adv-x="603" vert-adv-y="1000"  />

      
      <glyph glyph-name="uni43" unicode="&#x43;" d="M414 680Q517 680 616 624L596 459Q523 520 433 520Q341 520 282 465.50Q223 411 223 326Q223 246 275 196.50Q327 147 410 147Q488 147 563 189L542 19Q452-13 385-13Q237-13 143.50 79.50Q50 172 50 318Q50 470 155.50 575Q261 680 414 680Z"  horiz-adv-x="607" vert-adv-y="1000"  />

      
      <glyph glyph-name="uni44" unicode="&#x44;" d="M42 0L124 667L313 667Q491 667 580 584Q664 506 664 359Q664 179 552 86Q447 0 262 0L42 0M321 520L275 520L229 147L280 147Q376 147 430 198Q490 253 490 351Q490 437 442 482Q401 520 321 520Z"  horiz-adv-x="694" vert-adv-y="1000"  />

      
      <glyph glyph-name="uni45" unicode="&#x45;" d="M124 667L489 667L471 520L275 520L261 409L451 409L433 263L243 263L229 147L433 147L415 0L42 0L124 667Z"  horiz-adv-x="483" vert-adv-y="1000"  />

      
      <glyph glyph-name="uni46" unicode="&#x46;" d="M124 667L504 667L486 520L275 520L261 407L453 407L435 261L243 261L211 0L42 0L124 667Z"  horiz-adv-x="474" vert-adv-y="1000"  />

      
      <glyph glyph-name="uni47" unicode="&#x47;" d="M389 237L405 371L726 371Q723 263 693 186Q658 93 574.50 40Q491-13 382-13Q235-13 142.50 78.50Q50 170 50 315Q50 473 153.50 576.50Q257 680 415 680Q542 680 628 608Q660 581 677 556.50Q694 532 714 485L567 428Q518 537 411 537Q331 537 277.50 474.50Q224 412 224 318Q224 237 273 185Q322 133 399 133Q454 133 493.50 161.50Q533 190 544 237L389 237Z"  horiz-adv-x="752" vert-adv-y="1000"  />

      
      <glyph glyph-name="uni48" unicode="&#x48;" d="M539 667L708 667L626 0L457 0L490 273L245 273L211 0L42 0L124 667L293 667L263 420L508 420L539 667Z"  horiz-adv-x="724" vert-adv-y="1000"  />

      
      <glyph glyph-name="uni49" unicode="&#x49;" d="M124 667L293 667L211 0L42 0L124 667Z"  horiz-adv-x="309" vert-adv-y="1000"  />

      
      <glyph glyph-name="uni4a" unicode="&#x4a;" d="M296 667L465 667L408 208Q401 153 387.50 113.50Q374 74 340 40Q287-13 194-13Q113-13 62 24Q20 54-7 106L118 203Q124 175 139 158Q153 141 181 141Q203 141 218 157Q235 175 243 236L296 667Z"  horiz-adv-x="481" vert-adv-y="1000"  />

      
      <glyph glyph-name="uni4b" unicode="&#x4b;" d="M124 667L293 667L257 375L477 667L671 667L416 327L644 0L441 0L298 213Q274 249 248 301L211 0L42 0L124 667Z"  horiz-adv-x="672" vert-adv-y="1000"  />

      
      <glyph glyph-name="uni4c" unicode="&#x4c;" d="M124 667L293 667L229 147L442 147L423 0L42 0L124 667Z"  horiz-adv-x="472" vert-adv-y="1000"  />

      
      <glyph glyph-name="uni4d" unicode="&#x4d;" d="M675 667L850 667L871 0L702 0L694 299L694 320Q694 366 702 431Q681 374 655 321L491 0L402 0L345 258Q328 333 317 442Q299 348 282 289L196 0L22 0L233 667L400 667L450 442Q468 366 480 267Q500 324 518 358L675 667Z"  horiz-adv-x="939" vert-adv-y="1000"  />

      
      <glyph glyph-name="uni4e" unicode="&#x4e;" d="M613 667L782 667L700 0L515 0L338 299Q298 365 256 464L256 434Q256 365 249 308L211 0L42 0L124 667L306 667L496 345L525 291L551 240L564 215Q566 278 572 329L613 667Z"  horiz-adv-x="798" vert-adv-y="1000"  />

      
      <glyph glyph-name="uni4f" unicode="&#x4f;" d="M429 680Q581 680 676.50 594.50Q772 509 778 367L778 354Q778 190 678 88.50Q578-13 416-13Q253-13 152.50 80Q52 173 52 324Q52 481 157.50 580.50Q263 680 429 680M605 336Q605 344 604 348Q600 427 550.50 473.50Q501 520 422 520Q336 520 280.50 466Q225 412 225 330Q225 248 276.50 197.50Q328 147 412 147Q498 147 551.50 199.50Q605 252 605 336Z"  horiz-adv-x="805" vert-adv-y="1000"  />

      
      <glyph glyph-name="uni50" unicode="&#x50;" d="M42 0L124 667L347 667Q481 667 541 608Q597 553 597 455Q597 355 545 298Q474 221 313 221L238 221L211 0L42 0M323 527L276 527L256 361L309 361Q375 361 403 389Q424 410 424 448Q424 486 405 505Q384 527 323 527Z"  horiz-adv-x="577" vert-adv-y="1000"  />

      
      <glyph glyph-name="uni51" unicode="&#x51;" d="M727 153Q706 117 668 79L746-24L597-54L552 8Q488-13 414-13Q253-13 152.50 80.50Q52 174 52 324Q52 481 157.50 580.50Q263 680 429 680Q585 680 681.50 589.50Q778 499 778 352Q778 241 727 153M500 302L563 212Q605 266 605 335Q605 418 554.50 469Q504 520 422 520Q336 520 280.50 466Q225 412 225 330Q225 248 276.50 197.50Q328 147 412 147Q433 147 451 150L353 277L500 302Z"  horiz-adv-x="805" vert-adv-y="1000"  />

      
      <glyph glyph-name="uni52" unicode="&#x52;" d="M523 312Q493 279 435 259L591 0L395 0L243 265L211 0L42 0L124 667L341 667Q471 667 526 609Q577 555 577 460Q577 369 523 312M308 533L276 533L255 362L285 362Q403 362 403 455Q403 499 382 516Q361 533 308 533Z"  horiz-adv-x="620" vert-adv-y="1000"  />

      
      <glyph glyph-name="uni53" unicode="&#x53;" d="M335 680Q435 680 529 619L455 491Q390 540 338 540Q303 540 283 524.50Q263 509 263 482Q263 458 280 442Q297 426 348 402Q431 363 463.50 322Q496 281 496 215Q496 115 424.50 51Q353-13 241-13Q181-13 132 3Q83 19 16 60L92 188Q172 133 233 133Q273 133 297.50 151.50Q322 170 322 201Q322 223 306.50 238.50Q291 254 244 277Q155 322 122.50 362.50Q90 403 90 470Q90 561 159.50 620.50Q229 680 335 680Z"  horiz-adv-x="529" vert-adv-y="1000"  />

      
      <glyph glyph-name="uni54" unicode="&#x54;" d="M496 520L354 520L289 0L121 0L185 520L43 520L61 667L514 667L496 520Z"  horiz-adv-x="465" vert-adv-y="1000"  />

      
      <glyph glyph-name="uni55" unicode="&#x55;" d="M532 667L701 667L654 281Q642 184 626 138Q610 92 578 61Q501-13 350-13Q220-13 146 47.50Q72 108 72 215Q72 241 80 307L124 667L292 667L248 307Q245 277 245 251Q245 147 355 147Q420 147 450 180Q476 209 486 287L532 667Z"  horiz-adv-x="717" vert-adv-y="1000"  />

      
      <glyph glyph-name="uni56" unicode="&#x56;" d="M539 667L729 667L371 0L228 0L54 667L234 667L310 363Q325 303 331 241Q346 289 369 332L539 667Z"  horiz-adv-x="675" vert-adv-y="1000"  />

      
      <glyph glyph-name="uni57" unicode="&#x57;" d="M877 667L1060 667L773 0L583 0L538 266Q524 344 523 439Q497 352 468 280L354 0L173 0L54 667L224 667L266 417Q283 319 290 198Q307 261 318 290L344 354L470 667L630 667L679 380Q688 331 698 198Q718 267 731 297L751 347L877 667Z"  horiz-adv-x="1006" vert-adv-y="1000"  />

      
      <glyph glyph-name="uni58" unicode="&#x58;" d="M724 667L461 341L667 0L473 0L412 100Q380 154 350 226Q320 174 285 130L181 0L-29 0L262 351L71 667L267 667L311 589Q343 532 372 466Q418 537 439 563L520 667L724 667Z"  horiz-adv-x="687" vert-adv-y="1000"  />

      
      <glyph glyph-name="uni59" unicode="&#x59;" d="M676 667L385 292L349 0L180 0L217 297L47 667L234 667L280 560Q310 489 316 470Q317 467 319.50 459.50Q322 452 323 448Q334 469 356 501L471 667L676 667Z"  horiz-adv-x="623" vert-adv-y="1000"  />

      
      <glyph glyph-name="uni5a" unicode="&#x5a;" d="M298 147L597 147L579 0L2 0L364 520L101 520L119 667L655 667L298 147Z"  horiz-adv-x="631" vert-adv-y="1000"  />

      
      <glyph glyph-name="uni5b" unicode="&#x5b;" d="M292-188L33-188L145 729L403 729L392 636L272 636L183-95L303-95L292-188Z"  horiz-adv-x="382" vert-adv-y="1000"  />

      
      <glyph glyph-name="uni5c" unicode="&#x5c;" d="M76 729L203 729L603-188L476-188L76 729Z"  horiz-adv-x="627" vert-adv-y="1000"  />

      
      <glyph glyph-name="uni5d" unicode="&#x5d;" d="M106 729L364 729L251-188L-8-188L4-95L124-95L214 636L94 636L106 729Z"  horiz-adv-x="382" vert-adv-y="1000"  />

      
      <glyph glyph-name="uni5e" unicode="&#x5e;" d="M263 563L153 330L18 330L178 667L348 667L509 330L373 330L263 563Z"  horiz-adv-x="500" vert-adv-y="1000"  />

      
      <glyph glyph-name="uni5f" unicode="&#x5f;" d="M-30-178L-30-46L470-46L470-178L-30-178Z"  horiz-adv-x="500" vert-adv-y="1000"  />

      
      <glyph glyph-name="uni60" unicode="&#x60;" d="M232 527L143 698L307 698L345 527L232 527Z"  horiz-adv-x="500" vert-adv-y="1000"  />

      
      <glyph glyph-name="uni61" unicode="&#x61;" d="M414 447L579 447L524 0L359 0L371 49Q333 14 299 0.50Q265-13 219-13Q134-13 83.50 44Q33 101 33 198Q33 311 100 385.50Q167 460 268 460Q315 460 346 446.50Q377 433 413 396L414 447M291 116Q336 116 365.50 150.50Q395 185 395 237Q395 280 371 305Q347 330 307 330Q262 330 231.50 295.50Q201 261 201 210Q201 167 225.50 141.50Q250 116 291 116Z"  horiz-adv-x="612" vert-adv-y="1000"  />

      
      <glyph glyph-name="uni62" unicode="&#x62;" d="M122 729L287 729L245 391Q318 460 398 460Q480 460 531.50 400.50Q583 341 583 246Q583 132 518.50 59.50Q454-13 353-13Q302-13 269 2.50Q236 18 199 60L197 0L32 0L122 729M310 116Q356 116 385.50 150Q415 184 415 237Q415 280 391 305Q367 330 327 330Q281 330 251 295.50Q221 261 221 210Q221 167 245.50 141.50Q270 116 310 116Z"  horiz-adv-x="617" vert-adv-y="1000"  />

      
      <glyph glyph-name="uni63" unicode="&#x63;" d="M282 460Q354 460 417 429L400 290Q356 330 309 330Q263 330 233 297Q203 264 203 213Q203 169 227.50 143Q252 117 295 117Q336 117 383 151L366 11Q294-13 248-13Q154-13 94.50 49Q35 111 35 209Q35 318 105 389Q175 460 282 460Z"  horiz-adv-x="423" vert-adv-y="1000"  />

      
      <glyph glyph-name="uni64" unicode="&#x64;" d="M448 729L613 729L523 0L359 0L371 53Q331 17 295.50 2Q260-13 214-13Q132-13 82 43Q32 99 32 190Q32 305 97.50 382.50Q163 460 259 460Q306 460 339.50 444Q373 428 407 389L448 729M290 116Q335 116 364.50 150.50Q394 185 394 237Q394 280 370 305Q346 330 306 330Q260 330 230 295.50Q200 261 200 210Q200 167 224.50 141.50Q249 116 290 116Z"  horiz-adv-x="612" vert-adv-y="1000"  />

      
      <glyph glyph-name="uni65" unicode="&#x65;" d="M525 190L191 190Q191 135 214 114Q231 97 265 97Q290 97 307 109Q323 120 329 139L509 139Q493 91 460 58Q391-13 266-13Q159-13 95 46Q34 105 34 204Q34 318 107 389Q180 460 298 460Q405 460 467 398Q527 338 527 228Q527 214 525 190M202 283L358 283Q356 316 335 336Q315 354 283 354Q248 354 226 332Q208 314 202 283Z"  horiz-adv-x="561" vert-adv-y="1000"  />

      
      <glyph glyph-name="uni66" unicode="&#x66;" d="M367 320L255 320L215 0L50 0L90 320L21 320L36 447L106 447L119 554Q129 645 179 693Q229 741 311 741Q362 741 416 719L398 579Q371 601 343 601Q315 601 300 583Q285 565 280 526L270 447L382 447L367 320Z"  horiz-adv-x="359" vert-adv-y="1000"  />

      
      <glyph glyph-name="uni67" unicode="&#x67;" d="M411 447L575 447L526 55Q515-35 498.50-85Q482-135 451-166Q387-229 252-229Q134-229 76-175Q48-150 33.50-122Q19-94 11-50L168-50Q173-73 195-87Q217-101 252-101Q299-101 323-76.50Q347-52 354 4L359 46Q323 12 295-0.50Q267-13 228-13Q137-13 84 47Q31 107 31 209Q31 319 94 389.50Q157 460 256 460Q304 460 339 442.50Q374 425 408 382L411 447M289 117Q333 117 359 149.50Q385 182 385 236Q385 280 361.50 305Q338 330 298 330Q254 330 226.50 298Q199 266 199 216Q199 171 223.50 144Q248 117 289 117Z"  horiz-adv-x="608" vert-adv-y="1000"  />

      
      <glyph glyph-name="uni68" unicode="&#x68;" d="M122 729L287 729L247 407Q323 460 394 460Q464 460 501.50 419.50Q539 379 539 302Q539 274 533 228L505 0L340 0L362 179Q369 232 369 252Q369 323 309 323Q269 323 249.50 298Q230 273 223 212L197 0L32 0L122 729Z"  horiz-adv-x="593" vert-adv-y="1000"  />

      
      <glyph glyph-name="uni69" unicode="&#x69;" d="M87 447L252 447L197 0L32 0L87 447M121.50 569.50Q121.50 569.50 108.25 582.75Q95 596 95 633Q95 670 121.50 696.50Q148 723 185 723Q222 723 248.50 696.50Q275 670 275 633Q275 596 248.50 569.50Q222 543 185 543Q148 543 121.50 569.50Z"  horiz-adv-x="271" vert-adv-y="1000"  />

      
      <glyph glyph-name="uni6a" unicode="&#x6a;" d="M85 447L250 447L166-229L2-229L85 447M121.50 569.50Q121.50 569.50 108.25 582.75Q95 596 95 633Q95 670 121.50 696.50Q148 723 185 723Q222 723 248.50 696.50Q275 670 275 633Q275 596 248.50 569.50Q222 543 185 543Q148 543 121.50 569.50Z"  horiz-adv-x="276" vert-adv-y="1000"  />

      
      <glyph glyph-name="uni6b" unicode="&#x6b;" d="M122 729L287 729L232 287L375 447L583 447L388 243L597 0L396 0L330 75Q277 136 223 210L197 0L32 0L122 729Z"  horiz-adv-x="605" vert-adv-y="1000"  />

      
      <glyph glyph-name="uni6c" unicode="&#x6c;" d="M122 729L287 729L197 0L32 0L122 729Z"  horiz-adv-x="285" vert-adv-y="1000"  />

      
      <glyph glyph-name="uni6d" unicode="&#x6d;" d="M87 447L252 447L239 387Q275 427 309.50 443.50Q344 460 389 460Q439 460 468 443Q497 426 519 383Q589 460 685 460Q752 460 791 425Q830 390 830 330Q830 299 822 235L792 0L628 0L655 218Q659 252 659 265Q659 292 644.50 307.50Q630 323 604 323Q564 323 545.50 298.50Q527 274 519 213L493 0L328 0L357 233Q360 257 360 271Q360 295 345.50 309Q331 323 306 323Q236 323 223 213L197 0L32 0L87 447Z"  horiz-adv-x="881" vert-adv-y="1000"  />

      
      <glyph glyph-name="uni6e" unicode="&#x6e;" d="M87 447L252 447L238 389Q284 429 319 444.50Q354 460 400 460Q468 460 504.50 425Q541 390 541 324Q541 290 536 251L505 0L340 0L365 197Q369 232 369 252Q369 323 309 323Q269 323 249.50 296Q230 269 222 202L197 0L32 0L87 447Z"  horiz-adv-x="593" vert-adv-y="1000"  />

      
      <glyph glyph-name="uni6f" unicode="&#x6f;" d="M308 460Q426 460 496.50 397.50Q567 335 567 231Q567 123 493.50 55Q420-13 303-13Q183-13 109 51.50Q35 116 35 222Q35 326 111.50 393Q188 460 308 460M294 116Q340 116 369.50 150Q399 184 399 237Q399 280 375 305Q351 330 310 330Q264 330 233.50 295.50Q203 261 203 210Q203 167 228 141.50Q253 116 294 116Z"  horiz-adv-x="603" vert-adv-y="1000"  />

      
      <glyph glyph-name="uni70" unicode="&#x70;" d="M85 447L250 447L237 390Q280 429 315 444.50Q350 460 394 460Q479 460 528.50 402Q578 344 578 244Q578 128 519.50 57.50Q461-13 365-13Q267-13 204 76L166-229L2-229L85 447M305 116Q351 116 380.50 150Q410 184 410 237Q410 280 386 305Q362 330 322 330Q276 330 246 295.50Q216 261 216 210Q216 167 240.50 141.50Q265 116 305 116Z"  horiz-adv-x="615" vert-adv-y="1000"  />

      
      <glyph glyph-name="uni71" unicode="&#x71;" d="M415 447L580 447L497-229L332-229L365 41Q328 10 299-1.50Q270-13 229-13Q141-13 88 46.50Q35 106 35 204Q35 319 97.50 389.50Q160 460 262 460Q309 460 343 446Q377 432 414 397L415 447M291 116Q336 116 365 150Q394 184 394 237Q394 280 371 305Q348 330 308 330Q263 330 233 295.50Q203 261 203 210Q203 167 227 141.50Q251 116 291 116Z"  horiz-adv-x="613" vert-adv-y="1000"  />

      
      <glyph glyph-name="uni72" unicode="&#x72;" d="M87 447L252 447L239 386Q278 421 309.50 434Q341 447 388 447Q392 447 420 445L402 293Q365 313 327 313Q276 313 252.50 285.50Q229 258 220 190L197 0L32 0L87 447Z"  horiz-adv-x="407" vert-adv-y="1000"  />

      
      <glyph glyph-name="uni73" unicode="&#x73;" d="M273 462Q351 462 439 416L400 303Q338 341 291 341Q234 341 234 314Q234 299 260 292L314 278Q375 262 404 231.50Q433 201 433 153Q433 77 376.50 32Q320-13 225-13Q169-13 123 2.50Q77 18 19 55L80 163Q128 133 156.50 122Q185 111 219 111Q280 111 280 142Q280 159 255 166L201 178Q138 193 109.50 224Q81 255 81 308Q81 377 133.50 419.50Q186 462 273 462Z"  horiz-adv-x="470" vert-adv-y="1000"  />

      
      <glyph glyph-name="uni74" unicode="&#x74;" d="M344 320L256 320L216 0L52 0L91 320L21 320L36 447L107 447L124 594L289 594L271 447L359 447L344 320Z"  horiz-adv-x="333" vert-adv-y="1000"  />

      
      <glyph glyph-name="uni75" unicode="&#x75;" d="M399 447L563 447L535 211Q519 83 468 41Q405-13 279-13Q172-13 113.50 32.50Q55 78 55 163Q55 191 59 224L87 447L251 447L225 234Q220 189 220 182Q220 124 287 124Q326 124 345 144.50Q364 165 370 214L399 447Z"  horiz-adv-x="597" vert-adv-y="1000"  />

      
      <glyph glyph-name="uni76" unicode="&#x76;" d="M427 447L610 447L308 0L196 0L22 447L193 447L244 311Q255 282 276 200Q310 268 341 316L427 447Z"  horiz-adv-x="583" vert-adv-y="1000"  />

      
      <glyph glyph-name="uni77" unicode="&#x77;" d="M683 447L860 447L602 0L484 0L440 160Q426 208 420 260Q399 205 379 168L288 0L167 0L22 447L189 447L234 308Q250 256 259 205Q277 254 303 301L382 447L492 447L535 312Q552 259 560 215Q578 262 596 293L683 447Z"  horiz-adv-x="833" vert-adv-y="1000"  />

      
      <glyph glyph-name="uni78" unicode="&#x78;" d="M630 447L417 232L596 0L392 0L349 60Q322 98 305 129Q268 82 241 55L189 0L-21 0L209 236L47 447L253 447L286 395Q309 359 321 332Q340 361 352 375L369 395L415 447L630 447Z"  horiz-adv-x="625" vert-adv-y="1000"  />

      
      <glyph glyph-name="uni79" unicode="&#x79;" d="M427 447L615 447L197-229L12-229L172 35L14 447L197 447L245 326Q268 269 282 198Q305 248 341 306L427 447Z"  horiz-adv-x="588" vert-adv-y="1000"  />

      
      <glyph glyph-name="uni7a" unicode="&#x7a;" d="M293 127L509 127L488 0L-8 0L268 320L73 320L94 447L566 447L293 127Z"  horiz-adv-x="559" vert-adv-y="1000"  />

      
      <glyph glyph-name="uni7b" unicode="&#x7b;" d="M321 395Q315 344 300 319Q285 294 246 269Q272 249 282 230Q292 211 292 178Q292 164 290 142L269-15Q268-23 268-35Q268-55 280-63.50Q292-72 325-72L362-71L348-186Q295-188 282-188Q201-188 167.50-164Q134-140 134-78Q134-57 136-44L159 133Q161 149 161 161Q161 209 115 219L128 329Q176 338 185 374L191 397L214 584Q224 662 263 695.50Q302 729 384 729Q412 729 461 726L447 612Q381 612 363.50 603.50Q346 595 341 555L321 395Z"  horiz-adv-x="503" vert-adv-y="1000"  />

      
      <glyph glyph-name="uni7c" unicode="&#x7c;" d="M188-250L188 750L318 750L318-250L188-250Z"  horiz-adv-x="500" vert-adv-y="1000"  />

      
      <glyph glyph-name="uni7d" unicode="&#x7d;" d="M207 143Q213 194 228 219Q243 244 282 270Q255 289 245.50 308Q236 327 236 361Q236 376 238 396L258 555Q260 571 260 576Q260 600 242 606Q224 612 166 612L180 726Q197 727 208.50 727.50Q220 728 223 728.50Q226 729 234 729Q242 729 257 729Q330 729 362 703.50Q394 678 394 619Q394 597 392 584L369 406Q367 390 367 378Q367 329 413 320L400 210Q352 199 343 164L335 134L315-44Q306-127 270-157.50Q234-188 146-188L69-186L83-71Q93-72 104-72Q153-72 169-61.50Q185-51 189-15L207 143Z"  horiz-adv-x="503" vert-adv-y="1000"  />

      
      <glyph glyph-name="uni7e" unicode="&#x7e;" d="M158 256Q133 256 118.50 244Q104 232 85 195L14 242L21 259Q49 328 81 354.50Q113 381 165 381Q199 381 269 355Q331 332 355 332Q380 332 394.50 342.50Q409 353 427 383L500 340Q475 286 455.50 262Q436 238 406 222Q372 206 341 206Q318 206 239 234Q175 256 158 256Z"  horiz-adv-x="500" vert-adv-y="1000"  />

      
      <glyph glyph-name="unia1" unicode="&#xa1;" d="M190 254Q147 254 119 281.50Q91 309 91 352Q91 396 120 426Q149 456 192 456Q236 456 265 426.50Q294 397 294 353Q294 310 264.50 282Q235 254 190 254M205-230L37-230L91 210L259 210L205-230Z"  horiz-adv-x="336" vert-adv-y="1000"  />

      
      <glyph glyph-name="unia2" unicode="&#xa2;" d="M448 125Q394 104 348 101L337 10L243 10L255 114Q191 135 151.50 193Q112 251 112 325Q112 423 168 491Q224 559 320 575L329 660L423 660L413 576Q460 568 500 548L483 407Q439 442 391 442Q344 442 313 410Q282 378 282 329Q282 289 307.50 263Q333 237 373 237Q418 237 465 266L448 125Z"  horiz-adv-x="600" vert-adv-y="1000"  />

      
      <glyph glyph-name="unia3" unicode="&#xa3;" d="M164 252L39 252L51 348L123 348Q111 391 111 427Q111 530 178 601Q252 679 376 679Q481 679 539 617Q590 563 590 478Q590 448 586 428L421 428Q423 440 423 459Q423 503 406 522Q389 543 358 543Q318 543 296 509Q276 478 276 425Q276 384 290 348L443 348L431 252L306 252Q306 186 289 147L334 133Q344 130 361.50 124Q379 118 388.50 115.50Q398 113 408 113Q451 113 457 157L565 157Q557 72 512 27Q471-14 400-14Q359-14 299 6L264 18Q216 35 181 35Q139 35 128 0L13 0Q24 60 58 100Q97 147 158 157Q170 188 170 215Q170 236 164 252Z"  horiz-adv-x="600" vert-adv-y="1000"  />

      
      <glyph glyph-name="unia4" unicode="&#xa4;" d="M109 67L39 137L142 240Q98 305 98 378Q98 450 142 515L38 619L109 690L213 586Q280 630 353 630Q423 630 490 587L593 689L663 619L561 517Q606 446 606 377Q606 306 563 241L666 138L596 67L493 170Q426 125 351 125Q281 125 211 169L109 67M488 377Q488 434 448 474Q408 514 352 514Q296 514 256 474Q216 434 216 377Q216 321 256 281Q296 241 352 241Q408 241 448 281Q488 321 488 377Z"  horiz-adv-x="667" vert-adv-y="1000"  />

      
      <glyph glyph-name="unia5" unicode="&#xa5;" d="M226 329L63 329L76 434L176 434L64 667L261 667L337 475L457 667L657 667L481 434L586 434L573 329L402 329L395 320L389 267L566 267L553 163L376 163L356 0L192 0L212 163L43 163L56 267L225 267L231 320L226 329Z"  horiz-adv-x="600" vert-adv-y="1000"  />

      
      <glyph glyph-name="unia6" unicode="&#xa6;" d="M188 339L188 750L318 750L318 339L188 339M188-250L188 161L318 161L318-250L188-250Z"  horiz-adv-x="500" vert-adv-y="1000"  />

      
      <glyph glyph-name="unia7" unicode="&#xa7;" d="M523 542L387 542Q387 589 372 603Q359 616 334 616Q304 616 287 599Q269 582 269 556Q269 534 290 515Q304 503 360 477L397 460Q453 435 481 401Q514 359 514 297Q514 239 480.50 193.50Q447 148 389 123Q421 104 436 73Q450 45 450 9Q450-77 401-129Q344-188 247-188Q160-188 110-136Q61-85 61 8L197 8Q197-37 212-54Q228-72 255-72Q283-72 301-54Q318-37 318-6Q318 26 290 48Q279 57 204 90Q135 121 108 153Q72 195 72 259Q72 327 111 375Q142 413 191 431Q133 473 133 547Q133 628 193 680Q251 729 342 729Q435 729 482 682Q525 641 525 572Q525 558 523 542M364 279Q364 307 349 325Q329 348 297 348Q265 348 242 325Q219 300 219 270Q219 242 237 222Q256 203 286 203Q318 203 339 222Q364 244 364 279Z"  horiz-adv-x="574" vert-adv-y="1000"  />

      
      <glyph glyph-name="unia8" unicode="&#xa8;" d="M398 687Q430 687 454 663Q478 639 478 607Q478 573 455 550Q432 527 399 527Q365 527 341 550.50Q317 574 317 608Q317 640 341 663.50Q365 687 398 687M139 664Q139 664 150.50 675.50Q162 687 196 687Q230 687 253 663.50Q276 640 276 607Q276 573 253 550Q230 527 197 527Q162 527 139 550.50Q116 574 116 608Q116 641 139 664Z"  horiz-adv-x="500" vert-adv-y="1000"  />

      
      <glyph glyph-name="unia9" unicode="&#xa9;" d="M46 334Q46 478 148 580Q250 682 395 682Q537 682 638.50 579.50Q740 477 740 333Q740 189 638.50 87Q537-15 394-15Q250-15 148 87Q46 189 46 334M589 131Q589 131 629.50 173Q670 215 670 333Q670 451 589 535Q508 619 394 619Q278 619 197 535.50Q116 452 116 334Q116 216 197.50 131.50Q279 47 394 47Q508 47 589 131M510 521L514 520L514 377L503 391Q466 431 416 431Q372 431 344.50 403Q317 375 317 331Q317 288 344.50 261Q372 234 416 234Q464 234 503 272L514 283L514 144L510 142L498 139Q450 123 412 123Q320 123 255.50 183.50Q191 244 191 331Q191 419 255 480.50Q319 542 411 542Q455 542 510 521Z"  horiz-adv-x="760" vert-adv-y="1000"  />

      
      <glyph glyph-name="uniaa" unicode="&#xaa;" d="M286 632L289 658L383 658L350 393L256 393L260 423Q229 385 178 385Q122 385 88 422Q55 458 55 512Q55 578 103 624Q149 667 211 667Q260 667 286 632M32 267L41 343L344 343L335 267L32 267M220 586Q193 586 174 568Q154 548 154 521Q154 499 168 483Q184 465 211 465Q236 465 255 482Q276 501 276 531Q276 555 260 571Q245 586 220 586Z"  horiz-adv-x="346" vert-adv-y="1000"  />

      
      <glyph glyph-name="uniab" unicode="&#xab;" d="M297 379L170 219L260 67L163 10L38 228L217 445L297 379M507 379L380 219L470 67L373 10L248 220L427 445L507 379Z"  horiz-adv-x="544" vert-adv-y="1000"  />

      
      <glyph glyph-name="uniac" unicode="&#xac;" d="M455 0L325 0L325 150L22 150L22 267L455 267L455 0Z"  horiz-adv-x="500" vert-adv-y="1000"  />

      
      <glyph glyph-name="uniad" unicode="&#xad;" d="M45 202L61 335L314 335L298 202L45 202Z"  horiz-adv-x="353" vert-adv-y="1000"  />

      
      <glyph glyph-name="uniae" unicode="&#xae;" d="M46 334Q46 478 149.50 580Q253 682 399 682Q545 682 648 580.50Q751 479 751 334Q749 190 646.50 87.50Q544-15 399-15Q254-15 150 88Q46 191 46 334M681 334Q681 454 599.50 536.50Q518 619 399 619Q281 619 198.50 536Q116 453 116 334Q116 215 198.50 131Q281 47 399 47Q516 47 598.50 131Q681 215 681 334M465 304L461 302L580 150L431 150L358 262L358 150L241 150L241 529L399 529Q460 529 496.50 495.50Q533 462 533 407Q533 371 514.50 342.50Q496 314 465 304M358 441L358 364L365 364Q418 364 418 403Q418 441 365 441L358 441Z"  horiz-adv-x="771" vert-adv-y="1000"  />

      
      <glyph glyph-name="uniaf" unicode="&#xaf;" d="M83 539L95 637L491 637L479 539L83 539Z"  horiz-adv-x="500" vert-adv-y="1000"  />

      
      <glyph glyph-name="unib0" unicode="&#xb0;" d="M286 363Q220 363 175 408Q130 453 130 516Q130 578 175 622Q221 667 283 667Q347 667 393 623Q438 580 438 516Q438 453 393 408Q348 363 286 363M232.50 565Q232.50 565 222.25 555Q212 545 212 515Q212 485 232.50 465Q253 445 284 445Q315 445 335.50 465Q356 485 356 515Q356 545 335.50 565Q315 585 284 585Q253 585 232.50 565Z"  horiz-adv-x="499" vert-adv-y="1000"  />

      
      <glyph glyph-name="unib1" unicode="&#xb1;" d="M38 357L38 477L189 477L189 630L319 630L319 477L471 477L471 357L319 357L319 203L189 203L189 357L38 357M38 50L38 170L471 170L471 50L38 50Z"  horiz-adv-x="500" vert-adv-y="1000"  />

      
      <glyph glyph-name="unib2" unicode="&#xb2;" d="M258 365L380 365L368 272L55 272Q96 310 131 346Q160 375 220 440Q284 512 284 546Q284 566 273 578Q263 590 245 590Q221 590 208 570Q199 554 195 531L88 531Q98 597 139 639Q179 680 248 680Q316 680 357 643Q396 606 396 554Q396 507 366 463Q332 412 258 365Z"  horiz-adv-x="411" vert-adv-y="1000"  />

      
      <glyph glyph-name="unib3" unicode="&#xb3;" d="M193 553L89 553Q99 612 137 647Q173 680 243 680Q313 680 350 649Q387 618 387 566Q387 534 371 511Q355 489 328 479Q348 469 361 453Q380 430 380 398Q380 341 341 304Q298 264 219 264Q139 264 98 305Q59 344 55 405L163 405Q163 380 177 366Q191 352 214 352Q236 352 249 365Q264 380 264 403Q264 424 249 435Q236 445 210 445L205 445L215 518L223 518Q250 518 262 528Q275 538 275 555Q275 576 265 585Q256 594 238 594Q219 594 210 585Q197 573 193 553Z"  horiz-adv-x="402" vert-adv-y="1000"  />

      
      <glyph glyph-name="unib4" unicode="&#xb4;" d="M308 698L473 698L341 527L228 527L308 698Z"  horiz-adv-x="500" vert-adv-y="1000"  />

      
      <glyph glyph-name="unib5" unicode="&#xb5;" d="M162-230L2-230L85 447L245 447L219 243Q216 219 216 201Q216 156 237 135Q254 118 281 118Q311 118 332 137Q365 167 375 251L399 447L559 447L504 0L344 0L351 56Q338 31 318 12Q295-8 266-8Q237-8 219 10Q204 24 196 51L162-230Z"  horiz-adv-x="593" vert-adv-y="1000"  />

      
      <glyph glyph-name="uni03BC" unicode="&#x03BC;" d="M162-230L2-230L85 447L245 447L219 243Q216 219 216 201Q216 156 237 135Q254 118 281 118Q311 118 332 137Q365 167 375 251L399 447L559 447L504 0L344 0L351 56Q338 31 318 12Q295-8 266-8Q237-8 219 10Q204 24 196 51L162-230Z"  horiz-adv-x="593" vert-adv-y="1000"  />

      
      <glyph glyph-name="unib6" unicode="&#xb6;" d="M290-95L176-95L227 318Q144 318 97 365Q58 404 58 470Q58 550 109 603Q170 667 313 667L649 667L636 561L564 561L483-95L369-95L450 561L371 561L290-95Z"  horiz-adv-x="669" vert-adv-y="1000"  />

      
      <glyph glyph-name="unib7" unicode="&#xb7;" d="M128 457Q177 457 211.50 423.50Q246 390 246 342Q246 292 213 257.50Q180 223 131 223Q84 223 49 258Q14 293 14 341Q14 389 47.50 423Q81 457 128 457Z"  horiz-adv-x="232" vert-adv-y="1000"  />

      
      <glyph glyph-name="unib8" unicode="&#xb8;" d="M210-46L316-90L180-236L96-196L210-46Z"  horiz-adv-x="500" vert-adv-y="1000"  />

      
      <glyph glyph-name="unib9" unicode="&#xb9;" d="M95 667L248 667L198 260L98 260L137 583L85 583L95 667Z"  horiz-adv-x="263" vert-adv-y="1000"  />

      
      <glyph glyph-name="uniba" unicode="&#xba;" d="M212 667Q286 667 329 622Q364 584 364 531Q364 468 323 429Q276 384 201 384Q126 384 82 432Q48 469 48 524Q48 579 87 620Q134 667 212 667M36 343L339 343L331 267L28 267L36 343M202 465Q227 465 246 482Q265 501 265 527Q265 556 250 571Q235 586 210 586Q184 586 166 568Q147 549 147 522Q147 499 162 482Q178 465 202 465Z"  horiz-adv-x="339" vert-adv-y="1000"  />

      
      <glyph glyph-name="unibb" unicode="&#xbb;" d="M43 78L176 232L84 388L180 445L305 228L126 10L43 78M248 78L381 232L289 388L385 445L510 228L331 10L248 78Z"  horiz-adv-x="544" vert-adv-y="1000"  />

      
      <glyph glyph-name="unibc" unicode="&#xbc;" d="M108 667L261 667L211 260L111 260L150 583L98 583L108 667M551 667L641 667L170 0L80 0L551 667M485 153L569 153L588 307L485 153M693 400L663 153L710 153L700 76L653 76L644 0L550 0L559 76L373 76L381 139L562 400L693 400Z"  horiz-adv-x="750" vert-adv-y="1000"  />

      
      <glyph glyph-name="unibd" unicode="&#xbd;" d="M108 667L261 667L211 260L111 260L150 583L98 583L108 667M609 93L731 93L719 0L406 0Q447 38 482 74Q511 103 571 168Q635 240 635 274Q635 294 624 306Q614 318 596 318Q572 318 559 298Q550 282 546 259L439 259Q448 326 490 367Q530 408 599 408Q667 408 708 371Q747 334 747 282Q747 235 717 191Q683 140 609 93M551 667L641 667L170 0L80 0L551 667Z"  horiz-adv-x="782" vert-adv-y="1000"  />

      
      <glyph glyph-name="unibe" unicode="&#xbe;" d="M668 667L758 667L287 0L197 0L668 667M575 153L659 153L678 307L575 153M783 400L753 153L800 153L790 76L743 76L734 0L640 0L649 76L463 76L471 139L652 400L783 400M198 553L94 553Q104 612 142 647Q178 680 248 680Q318 680 355 649Q392 618 392 566Q392 534 376 511Q360 489 333 479Q353 469 366 453Q385 430 385 398Q385 341 346 304Q303 264 224 264Q144 264 103 305Q64 344 60 405L168 405Q168 380 182 366Q196 352 219 352Q241 352 254 365Q269 380 269 403Q269 424 254 435Q241 445 215 445L210 445L220 518L228 518Q255 518 267 528Q280 538 280 555Q280 576 270 585Q261 594 243 594Q224 594 215 585Q202 573 198 553Z"  horiz-adv-x="840" vert-adv-y="1000"  />

      
      <glyph glyph-name="unibf" unicode="&#xbf;" d="M311 254Q268 254 240 281.50Q212 309 212 352Q212 397 240.50 426.50Q269 456 313 456Q357 456 386 426.50Q415 397 415 353Q415 309 386 281.50Q357 254 311 254M205 166L211 213L366 213L345 42Q320 44 298 44Q242 44 208.50 21.50Q175-1 175-37Q175-68 194.50-87Q214-106 246-106Q314-106 321-34L479-34Q470-97 454-132Q438-167 404-194Q342-242 250-242Q146-242 83.50-186.50Q21-131 21-38Q21 43 71 99Q121 155 205 166Z"  horiz-adv-x="548" vert-adv-y="1000"  />

      
      <glyph glyph-name="unic0" unicode="&#xc0;" d="M462 112L224 112L173 0L-15 0L316 667L506 667L667 0L490 0L462 112M353 393L286 244L430 244L402 371Q391 424 387 448Q384 465 383 472Q372 436 353 393M357 727L268 898L432 898L470 727L357 727Z"  horiz-adv-x="695" vert-adv-y="1000"  />

      
      <glyph glyph-name="unic1" unicode="&#xc1;" d="M462 112L224 112L173 0L-15 0L316 667L506 667L667 0L490 0L462 112M353 393L286 244L430 244L402 371Q391 424 387 448Q384 465 383 472Q372 436 353 393M428 898L593 898L461 727L348 727L428 898Z"  horiz-adv-x="695" vert-adv-y="1000"  />

      
      <glyph glyph-name="unic2" unicode="&#xc2;" d="M462 112L224 112L173 0L-15 0L316 667L506 667L667 0L490 0L462 112M353 393L286 244L430 244L402 371Q391 424 387 448Q384 465 383 472Q372 436 353 393M435 777L328 711L258 780L450 902L600 783L518 711L435 777Z"  horiz-adv-x="695" vert-adv-y="1000"  />

      
      <glyph glyph-name="unic3" unicode="&#xc3;" d="M462 112L224 112L173 0L-15 0L316 667L506 667L667 0L490 0L462 112M353 393L286 244L430 244L402 371Q391 424 387 448Q384 465 383 472Q372 436 353 393M540 873L619 827Q596 783 567 758Q532 727 490 727Q463 727 424 742L388 756Q347 771 340 771Q307 771 293 729L215 775Q233 817 263 843Q298 873 348 873Q381 873 416 859L445 847Q491 829 495 829Q524 829 540 873Z"  horiz-adv-x="695" vert-adv-y="1000"  />

      
      <glyph glyph-name="unic4" unicode="&#xc4;" d="M462 112L224 112L173 0L-15 0L316 667L506 667L667 0L490 0L462 112M353 393L286 244L430 244L402 371Q391 424 387 448Q384 465 383 472Q372 436 353 393M518 887Q550 887 574 863Q598 839 598 807Q598 773 575 750Q552 727 519 727Q485 727 461 750.50Q437 774 437 808Q437 840 461 863.50Q485 887 518 887M259 864Q259 864 270.50 875.50Q282 887 316 887Q350 887 373 863.50Q396 840 396 807Q396 773 373 750Q350 727 317 727Q282 727 259 750.50Q236 774 236 808Q236 841 259 864Z"  horiz-adv-x="695" vert-adv-y="1000"  />

      
      <glyph glyph-name="unic5" unicode="&#xc5;" d="M462 112L224 112L173 0L-15 0L316 667L506 667L667 0L490 0L462 112M353 393L286 244L430 244L402 371Q391 424 387 448Q384 465 383 472Q372 436 353 393M412 727Q348 727 312.50 753Q277 779 277 826Q277 871 313 897.50Q349 924 410 924Q470 924 505 897.50Q540 871 540 825Q540 780 505.50 753.50Q471 727 412 727M459 825Q459 825 459 843.50Q459 862 409 862Q359 862 359 825Q359 808 372.50 798Q386 788 408 788Q459 788 459 825Z"  horiz-adv-x="695" vert-adv-y="1000"  />

      
      <glyph glyph-name="unic6" unicode="&#xc6;" d="M311 667L728 667L765 520L553 520L584 407L787 407L824 260L623 260L653 147L859 147L895 0L522 0L494 120L220 120L164 0L-15 0L311 667M360 421L282 253L464 253L420 431Q409 478 402 524Q374 452 360 421Z"  horiz-adv-x="923" vert-adv-y="1000"  />

      
      <glyph glyph-name="unic7" unicode="&#xc7;" d="M414 680Q517 680 616 624L596 459Q523 520 433 520Q341 520 282 465.50Q223 411 223 326Q223 246 275 196.50Q327 147 410 147Q488 147 563 189L542 19Q452-13 385-13Q237-13 143.50 79.50Q50 172 50 318Q50 470 155.50 575Q261 680 414 680M348-46L460-90L324-236L232-196L348-46Z"  horiz-adv-x="607" vert-adv-y="1000"  />

      
      <glyph glyph-name="unic8" unicode="&#xc8;" d="M124 667L489 667L471 520L275 520L261 409L451 409L433 263L243 263L229 147L433 147L415 0L42 0L124 667M267 727L178 898L342 898L380 727L267 727Z"  horiz-adv-x="483" vert-adv-y="1000"  />

      
      <glyph glyph-name="unic9" unicode="&#xc9;" d="M124 667L489 667L471 520L275 520L261 409L451 409L433 263L243 263L229 147L433 147L415 0L42 0L124 667M328 898L493 898L361 727L248 727L328 898Z"  horiz-adv-x="483" vert-adv-y="1000"  />

      
      <glyph glyph-name="unica" unicode="&#xca;" d="M124 667L489 667L471 520L275 520L261 409L451 409L433 263L243 263L229 147L433 147L415 0L42 0L124 667M340 777L233 711L163 780L355 902L505 783L423 711L340 777Z"  horiz-adv-x="483" vert-adv-y="1000"  />

      
      <glyph glyph-name="unicb" unicode="&#xcb;" d="M124 667L489 667L471 520L275 520L261 409L451 409L433 263L243 263L229 147L433 147L415 0L42 0L124 667M418 887Q450 887 474 863Q498 839 498 807Q498 773 475 750Q452 727 419 727Q385 727 361 750.50Q337 774 337 808Q337 840 361 863.50Q385 887 418 887M159 864Q159 864 170.50 875.50Q182 887 216 887Q250 887 273 863.50Q296 840 296 807Q296 773 273 750Q250 727 217 727Q182 727 159 750.50Q136 774 136 808Q136 841 159 864Z"  horiz-adv-x="483" vert-adv-y="1000"  />

      
      <glyph glyph-name="unicc" unicode="&#xcc;" d="M124 667L293 667L211 0L42 0L124 667M162 727L73 898L237 898L275 727L162 727Z"  horiz-adv-x="309" vert-adv-y="1000"  />

      
      <glyph glyph-name="unicd" unicode="&#xcd;" d="M124 667L293 667L211 0L42 0L124 667M228 898L393 898L261 727L148 727L228 898Z"  horiz-adv-x="309" vert-adv-y="1000"  />

      
      <glyph glyph-name="unice" unicode="&#xce;" d="M124 667L293 667L211 0L42 0L124 667M245 777L138 711L68 780L260 902L410 783L328 711L245 777Z"  horiz-adv-x="309" vert-adv-y="1000"  />

      
      <glyph glyph-name="unicf" unicode="&#xcf;" d="M124 667L293 667L211 0L42 0L124 667M328 887Q360 887 384 863Q408 839 408 807Q408 773 385 750Q362 727 329 727Q295 727 271 750.50Q247 774 247 808Q247 840 271 863.50Q295 887 328 887M69 864Q69 864 80.50 875.50Q92 887 126 887Q160 887 183 863.50Q206 840 206 807Q206 773 183 750Q160 727 127 727Q92 727 69 750.50Q46 774 46 808Q46 841 69 864Z"  horiz-adv-x="309" vert-adv-y="1000"  />

      
      <glyph glyph-name="unid0" unicode="&#xd0;" d="M84 0L121 296L30 296L45 416L135 416L166 667L372 667Q455 667 506 654Q557 641 595 612Q645 573 674 511Q706 441 706 358Q706 236 646.50 144Q587 52 489 22Q418 0 304 0L84 0M378 520L317 520L304 416L422 416L408 296L288 296L271 147L329 147Q392 147 427.50 161.50Q463 176 490 212Q532 269 532 358Q532 442 495 481Q458 520 378 520Z"  horiz-adv-x="736" vert-adv-y="1000"  />

      
      <glyph glyph-name="unid1" unicode="&#xd1;" d="M613 667L782 667L700 0L515 0L338 299Q298 365 256 464L256 434Q256 365 249 308L211 0L42 0L124 667L306 667L496 345L525 291L551 240L564 215Q566 278 572 329L613 667M585 873L664 827Q641 783 612 758Q577 727 535 727Q508 727 469 742L433 756Q392 771 385 771Q352 771 338 729L260 775Q278 817 308 843Q343 873 393 873Q426 873 461 859L490 847Q536 829 540 829Q568 829 585 873Z"  horiz-adv-x="798" vert-adv-y="1000"  />

      
      <glyph glyph-name="unid2" unicode="&#xd2;" d="M429 680Q581 680 676.50 594.50Q772 509 778 367L778 354Q778 190 678 88.50Q578-13 416-13Q253-13 152.50 80Q52 173 52 324Q52 481 157.50 580.50Q263 680 429 680M605 336Q605 344 604 348Q600 427 550.50 473.50Q501 520 422 520Q336 520 280.50 466Q225 412 225 330Q225 248 276.50 197.50Q328 147 412 147Q498 147 551.50 199.50Q605 252 605 336M384 727L295 898L459 898L497 727L384 727Z"  horiz-adv-x="805" vert-adv-y="1000"  />

      
      <glyph glyph-name="unid3" unicode="&#xd3;" d="M429 680Q581 680 676.50 594.50Q772 509 778 367L778 354Q778 190 678 88.50Q578-13 416-13Q253-13 152.50 80Q52 173 52 324Q52 481 157.50 580.50Q263 680 429 680M605 336Q605 344 604 348Q600 427 550.50 473.50Q501 520 422 520Q336 520 280.50 466Q225 412 225 330Q225 248 276.50 197.50Q328 147 412 147Q498 147 551.50 199.50Q605 252 605 336M448 898L613 898L481 727L368 727L448 898Z"  horiz-adv-x="805" vert-adv-y="1000"  />

      
      <glyph glyph-name="unid4" unicode="&#xd4;" d="M429 680Q581 680 676.50 594.50Q772 509 778 367L778 354Q778 190 678 88.50Q578-13 416-13Q253-13 152.50 80Q52 173 52 324Q52 481 157.50 580.50Q263 680 429 680M605 336Q605 344 604 348Q600 427 550.50 473.50Q501 520 422 520Q336 520 280.50 466Q225 412 225 330Q225 248 276.50 197.50Q328 147 412 147Q498 147 551.50 199.50Q605 252 605 336M460 777L353 711L283 780L475 902L625 783L543 711L460 777Z"  horiz-adv-x="805" vert-adv-y="1000"  />

      
      <glyph glyph-name="unid5" unicode="&#xd5;" d="M429 680Q581 680 676.50 594.50Q772 509 778 367L778 354Q778 190 678 88.50Q578-13 416-13Q253-13 152.50 80Q52 173 52 324Q52 481 157.50 580.50Q263 680 429 680M605 336Q605 344 604 348Q600 427 550.50 473.50Q501 520 422 520Q336 520 280.50 466Q225 412 225 330Q225 248 276.50 197.50Q328 147 412 147Q498 147 551.50 199.50Q605 252 605 336M550 873L629 827Q606 783 577 758Q542 727 500 727Q473 727 434 742L398 756Q357 771 350 771Q317 771 303 729L225 775Q243 817 273 843Q308 873 358 873Q391 873 426 859L455 847Q501 829 505 829Q534 829 550 873Z"  horiz-adv-x="805" vert-adv-y="1000"  />

      
      <glyph glyph-name="unid6" unicode="&#xd6;" d="M429 680Q581 680 676.50 594.50Q772 509 778 367L778 354Q778 190 678 88.50Q578-13 416-13Q253-13 152.50 80Q52 173 52 324Q52 481 157.50 580.50Q263 680 429 680M605 336Q605 344 604 348Q600 427 550.50 473.50Q501 520 422 520Q336 520 280.50 466Q225 412 225 330Q225 248 276.50 197.50Q328 147 412 147Q498 147 551.50 199.50Q605 252 605 336M528 887Q560 887 584 863Q608 839 608 807Q608 773 585 750Q562 727 529 727Q495 727 471 750.50Q447 774 447 808Q447 840 471 863.50Q495 887 528 887M269 864Q269 864 280.50 875.50Q292 887 326 887Q360 887 383 863.50Q406 840 406 807Q406 773 383 750Q360 727 327 727Q292 727 269 750.50Q246 774 246 808Q246 841 269 864Z"  horiz-adv-x="805" vert-adv-y="1000"  />

      
      <glyph glyph-name="unid7" unicode="&#xd7;" d="M133 126L49 211L171 333L48 456L140 548L263 425L385 548L470 463L348 340L471 217L379 125L256 248L133 126Z"  horiz-adv-x="500" vert-adv-y="1000"  />

      
      <glyph glyph-name="unid8" unicode="&#xd8;" d="M19 39L130 138Q78 218 78 324Q78 472 173 571Q277 680 455 680Q576 680 670 618L781 716L862 628L754 532Q804 453 804 353Q804 188 704 88Q605-13 444-13Q315-13 214 52L100-49L19 39M265 257L537 499Q496 520 448 520Q361 520 307 466Q251 411 251 327Q251 286 265 257M618 411L344 168Q392 147 438 147Q527 147 578 200Q630 254 630 338Q630 374 618 411Z"  horiz-adv-x="855" vert-adv-y="1000"  />

      
      <glyph glyph-name="unid9" unicode="&#xd9;" d="M532 667L701 667L654 281Q642 184 626 138Q610 92 578 61Q501-13 350-13Q220-13 146 47.50Q72 108 72 215Q72 241 80 307L124 667L292 667L248 307Q245 277 245 251Q245 147 355 147Q420 147 450 180Q476 209 486 287L532 667M362 727L273 898L437 898L475 727L362 727Z"  horiz-adv-x="717" vert-adv-y="1000"  />

      
      <glyph glyph-name="unida" unicode="&#xda;" d="M532 667L701 667L654 281Q642 184 626 138Q610 92 578 61Q501-13 350-13Q220-13 146 47.50Q72 108 72 215Q72 241 80 307L124 667L292 667L248 307Q245 277 245 251Q245 147 355 147Q420 147 450 180Q476 209 486 287L532 667M428 898L593 898L461 727L348 727L428 898Z"  horiz-adv-x="717" vert-adv-y="1000"  />

      
      <glyph glyph-name="unidb" unicode="&#xdb;" d="M532 667L701 667L654 281Q642 184 626 138Q610 92 578 61Q501-13 350-13Q220-13 146 47.50Q72 108 72 215Q72 241 80 307L124 667L292 667L248 307Q245 277 245 251Q245 147 355 147Q420 147 450 180Q476 209 486 287L532 667M440 777L333 711L263 780L455 902L605 783L523 711L440 777Z"  horiz-adv-x="717" vert-adv-y="1000"  />

      
      <glyph glyph-name="unidc" unicode="&#xdc;" d="M532 667L701 667L654 281Q642 184 626 138Q610 92 578 61Q501-13 350-13Q220-13 146 47.50Q72 108 72 215Q72 241 80 307L124 667L292 667L248 307Q245 277 245 251Q245 147 355 147Q420 147 450 180Q476 209 486 287L532 667M518 887Q550 887 574 863Q598 839 598 807Q598 773 575 750Q552 727 519 727Q485 727 461 750.50Q437 774 437 808Q437 840 461 863.50Q485 887 518 887M259 864Q259 864 270.50 875.50Q282 887 316 887Q350 887 373 863.50Q396 840 396 807Q396 773 373 750Q350 727 317 727Q282 727 259 750.50Q236 774 236 808Q236 841 259 864Z"  horiz-adv-x="717" vert-adv-y="1000"  />

      
      <glyph glyph-name="unidd" unicode="&#xdd;" d="M676 667L385 292L349 0L180 0L217 297L47 667L234 667L280 560Q310 489 316 470Q317 467 319.50 459.50Q322 452 323 448Q334 469 356 501L471 667L676 667M378 898L543 898L411 727L298 727L378 898Z"  horiz-adv-x="623" vert-adv-y="1000"  />

      
      <glyph glyph-name="unide" unicode="&#xde;" d="M42 0L124 667L293 667L280 568L336 568Q406 568 442 560.50Q478 553 507 533Q543 508 563.50 462Q584 416 584 360Q584 248 520 182Q485 146 438 132Q391 118 307 118L225 118L211 0L42 0M310 434L263 434L243 265L296 265Q411 265 411 356Q411 397 387 415.50Q363 434 310 434Z"  horiz-adv-x="668" vert-adv-y="1000"  />

      
      <glyph glyph-name="unidf" unicode="&#xdf;" d="M197 0L32 0L93 491Q103 570 117 609.50Q131 649 161 679Q223 741 329 741Q434 741 497 687.50Q560 634 560 544Q560 478 522 431Q495 397 442 379Q493 359 515 339Q568 291 568 205Q568 135 531 82.50Q494 30 433 12Q390 0 287 0L244 0L262 142Q280 140 298 140Q347 140 373.50 162.50Q400 185 400 227Q400 308 314 308Q300 308 282 307L300 455L324 453Q360 453 382.50 474.50Q405 496 405 531Q405 564 386 583.50Q367 603 335 603Q301 603 283.50 583Q266 563 261 517L197 0Z"  horiz-adv-x="608" vert-adv-y="1000"  />

      
      <glyph glyph-name="unie0" unicode="&#xe0;" d="M414 447L579 447L524 0L359 0L371 49Q333 14 299 0.50Q265-13 219-13Q134-13 83.50 44Q33 101 33 198Q33 311 100 385.50Q167 460 268 460Q315 460 346 446.50Q377 433 413 396L414 447M291 116Q336 116 365.50 150.50Q395 185 395 237Q395 280 371 305Q347 330 307 330Q262 330 231.50 295.50Q201 261 201 210Q201 167 225.50 141.50Q250 116 291 116M287 527L198 698L362 698L400 527L287 527Z"  horiz-adv-x="612" vert-adv-y="1000"  />

      
      <glyph glyph-name="unie1" unicode="&#xe1;" d="M414 447L579 447L524 0L359 0L371 49Q333 14 299 0.50Q265-13 219-13Q134-13 83.50 44Q33 101 33 198Q33 311 100 385.50Q167 460 268 460Q315 460 346 446.50Q377 433 413 396L414 447M291 116Q336 116 365.50 150.50Q395 185 395 237Q395 280 371 305Q347 330 307 330Q262 330 231.50 295.50Q201 261 201 210Q201 167 225.50 141.50Q250 116 291 116M343 698L508 698L376 527L263 527L343 698Z"  horiz-adv-x="612" vert-adv-y="1000"  />

      
      <glyph glyph-name="unie2" unicode="&#xe2;" d="M414 447L579 447L524 0L359 0L371 49Q333 14 299 0.50Q265-13 219-13Q134-13 83.50 44Q33 101 33 198Q33 311 100 385.50Q167 460 268 460Q315 460 346 446.50Q377 433 413 396L414 447M291 116Q336 116 365.50 150.50Q395 185 395 237Q395 280 371 305Q347 330 307 330Q262 330 231.50 295.50Q201 261 201 210Q201 167 225.50 141.50Q250 116 291 116M356 574L247 499L185 573L377 701L506 568L429 499L356 574Z"  horiz-adv-x="612" vert-adv-y="1000"  />

      
      <glyph glyph-name="unie3" unicode="&#xe3;" d="M414 447L579 447L524 0L359 0L371 49Q333 14 299 0.50Q265-13 219-13Q134-13 83.50 44Q33 101 33 198Q33 311 100 385.50Q167 460 268 460Q315 460 346 446.50Q377 433 413 396L414 447M291 116Q336 116 365.50 150.50Q395 185 395 237Q395 280 371 305Q347 330 307 330Q262 330 231.50 295.50Q201 261 201 210Q201 167 225.50 141.50Q250 116 291 116M470 671L549 625Q526 581 497 556Q462 525 420 525Q393 525 354 540L318 554Q277 569 270 569Q237 569 223 527L145 573Q163 615 193 641Q228 671 278 671Q311 671 346 657L375 645Q421 627 425 627Q454 627 470 671Z"  horiz-adv-x="612" vert-adv-y="1000"  />

      
      <glyph glyph-name="unie4" unicode="&#xe4;" d="M414 447L579 447L524 0L359 0L371 49Q333 14 299 0.50Q265-13 219-13Q134-13 83.50 44Q33 101 33 198Q33 311 100 385.50Q167 460 268 460Q315 460 346 446.50Q377 433 413 396L414 447M291 116Q336 116 365.50 150.50Q395 185 395 237Q395 280 371 305Q347 330 307 330Q262 330 231.50 295.50Q201 261 201 210Q201 167 225.50 141.50Q250 116 291 116M454 687Q486 687 510 663Q534 639 534 607Q534 573 511 550Q488 527 455 527Q421 527 397 550.50Q373 574 373 608Q373 640 397 663.50Q421 687 454 687M195 664Q195 664 206.50 675.50Q218 687 252 687Q286 687 309 663.50Q332 640 332 607Q332 573 309 550Q286 527 253 527Q218 527 195 550.50Q172 574 172 608Q172 641 195 664Z"  horiz-adv-x="612" vert-adv-y="1000"  />

      
      <glyph glyph-name="unie5" unicode="&#xe5;" d="M414 447L579 447L524 0L359 0L371 49Q333 14 299 0.50Q265-13 219-13Q134-13 83.50 44Q33 101 33 198Q33 311 100 385.50Q167 460 268 460Q315 460 346 446.50Q377 433 413 396L414 447M291 116Q336 116 365.50 150.50Q395 185 395 237Q395 280 371 305Q347 330 307 330Q262 330 231.50 295.50Q201 261 201 210Q201 167 225.50 141.50Q250 116 291 116M342 527Q278 527 242.50 553Q207 579 207 626Q207 671 243 697.50Q279 724 340 724Q400 724 435 697.50Q470 671 470 625Q470 580 435.50 553.50Q401 527 342 527M389 625Q389 625 389 643.50Q389 662 339 662Q289 662 289 625Q289 608 302.50 598Q316 588 338 588Q389 588 389 625Z"  horiz-adv-x="612" vert-adv-y="1000"  />

      
      <glyph glyph-name="unie6" unicode="&#xe6;" d="M827 197L493 197L493 192Q493 150 517 126Q540 103 578 103Q634 103 654 143L813 143Q797 72 736 30Q672-13 579-13Q513-13 471 3Q432 18 407 48Q369 16 322 2Q272-13 215-13Q120-13 70 33Q28 72 28 129Q28 189 65 226Q115 276 212 276Q287 276 343 234Q346 249 346 264Q346 310 323 332Q301 353 252 353Q191 353 111 320L119 437Q214 460 280 460Q331 460 373 447Q416 433 444 402Q469 427 508 443Q550 460 608 460Q703 460 757 411Q827 348 827 212L827 197M246 176Q216 176 196 164Q176 152 176 132Q176 112 194 100Q216 85 251 85Q282 85 302 99Q320 112 320 131Q320 151 297 165Q277 176 246 176M508 290L677 290Q675 322 649 341Q629 356 595 356Q557 356 534 337Q514 320 508 290Z"  horiz-adv-x="863" vert-adv-y="1000"  />

      
      <glyph glyph-name="unie7" unicode="&#xe7;" d="M282 460Q354 460 417 429L400 290Q356 330 309 330Q263 330 233 297Q203 264 203 213Q203 169 227.50 143Q252 117 295 117Q336 117 383 151L366 11Q294-13 248-13Q154-13 94.50 49Q35 111 35 209Q35 318 105 389Q175 460 282 460M222-46L328-90L192-236L108-196L222-46Z"  horiz-adv-x="423" vert-adv-y="1000"  />

      
      <glyph glyph-name="unie8" unicode="&#xe8;" d="M525 190L191 190Q191 135 214 114Q231 97 265 97Q290 97 307 109Q323 120 329 139L509 139Q493 91 460 58Q391-13 266-13Q159-13 95 46Q34 105 34 204Q34 318 107 389Q180 460 298 460Q405 460 467 398Q527 338 527 228Q527 214 525 190M202 283L358 283Q356 316 335 336Q315 354 283 354Q248 354 226 332Q208 314 202 283M252 527L163 698L327 698L365 527L252 527Z"  horiz-adv-x="561" vert-adv-y="1000"  />

      
      <glyph glyph-name="unie9" unicode="&#xe9;" d="M525 190L191 190Q191 135 214 114Q231 97 265 97Q290 97 307 109Q323 120 329 139L509 139Q493 91 460 58Q391-13 266-13Q159-13 95 46Q34 105 34 204Q34 318 107 389Q180 460 298 460Q405 460 467 398Q527 338 527 228Q527 214 525 190M202 283L358 283Q356 316 335 336Q315 354 283 354Q248 354 226 332Q208 314 202 283M318 698L483 698L351 527L238 527L318 698Z"  horiz-adv-x="561" vert-adv-y="1000"  />

      
      <glyph glyph-name="uniea" unicode="&#xea;" d="M525 190L191 190Q191 135 214 114Q231 97 265 97Q290 97 307 109Q323 120 329 139L509 139Q493 91 460 58Q391-13 266-13Q159-13 95 46Q34 105 34 204Q34 318 107 389Q180 460 298 460Q405 460 467 398Q527 338 527 228Q527 214 525 190M202 283L358 283Q356 316 335 336Q315 354 283 354Q248 354 226 332Q208 314 202 283M336 574L227 499L165 573L357 701L486 568L409 499L336 574Z"  horiz-adv-x="561" vert-adv-y="1000"  />

      
      <glyph glyph-name="unieb" unicode="&#xeb;" d="M525 190L191 190Q191 135 214 114Q231 97 265 97Q290 97 307 109Q323 120 329 139L509 139Q493 91 460 58Q391-13 266-13Q159-13 95 46Q34 105 34 204Q34 318 107 389Q180 460 298 460Q405 460 467 398Q527 338 527 228Q527 214 525 190M202 283L358 283Q356 316 335 336Q315 354 283 354Q248 354 226 332Q208 314 202 283M418 687Q450 687 474 663Q498 639 498 607Q498 573 475 550Q452 527 419 527Q385 527 361 550.50Q337 574 337 608Q337 640 361 663.50Q385 687 418 687M159 664Q159 664 170.50 675.50Q182 687 216 687Q250 687 273 663.50Q296 640 296 607Q296 573 273 550Q250 527 217 527Q182 527 159 550.50Q136 574 136 608Q136 641 159 664Z"  horiz-adv-x="561" vert-adv-y="1000"  />

      
      <glyph glyph-name="uniec" unicode="&#xec;" d="M87 447L252 447L197 0L32 0L87 447M142 527L53 698L217 698L255 527L142 527Z"  horiz-adv-x="285" vert-adv-y="1000"  />

      
      <glyph glyph-name="unied" unicode="&#xed;" d="M87 447L252 447L197 0L32 0L87 447M178 698L343 698L211 527L98 527L178 698Z"  horiz-adv-x="285" vert-adv-y="1000"  />

      
      <glyph glyph-name="uniee" unicode="&#xee;" d="M87 447L252 447L197 0L32 0L87 447M199 574L90 499L28 573L220 701L349 568L272 499L199 574Z"  horiz-adv-x="285" vert-adv-y="1000"  />

      
      <glyph glyph-name="unief" unicode="&#xef;" d="M87 447L252 447L197 0L32 0L87 447M291 687Q323 687 347 663Q371 639 371 607Q371 573 348 550Q325 527 292 527Q258 527 234 550.50Q210 574 210 608Q210 640 234 663.50Q258 687 291 687M32 664Q32 664 43.50 675.50Q55 687 89 687Q123 687 146 663.50Q169 640 169 607Q169 573 146 550Q123 527 90 527Q56 527 32.50 550.50Q9 574 9 608Q9 641 32 664Z"  horiz-adv-x="285" vert-adv-y="1000"  />

      
      <glyph glyph-name="unif0" unicode="&#xf0;" d="M136 613L176 729Q312 729 402 676L572 750L604 673L478 619Q528 579 556 511Q587 437 587 338Q587 151 502 63Q429-13 294-13Q169-13 99 57Q35 123 35 215Q35 315 103 385Q179 461 304 461Q386 461 445 411Q438 510 354 554L141 457L111 534L266 601Q227 616 180 616Q160 616 136 613M296 116Q339 116 367 145Q401 179 401 237Q401 284 374 308Q349 330 312 330Q269 330 239 299Q205 263 205 210Q205 169 230 142Q256 116 296 116Z"  horiz-adv-x="626" vert-adv-y="1000"  />

      
      <glyph glyph-name="unif1" unicode="&#xf1;" d="M87 447L252 447L238 389Q284 429 319 444.50Q354 460 400 460Q468 460 504.50 425Q541 390 541 324Q541 290 536 251L505 0L340 0L365 197Q369 232 369 252Q369 323 309 323Q269 323 249.50 296Q230 269 222 202L197 0L32 0L87 447M460 671L539 625Q516 581 487 556Q452 525 410 525Q383 525 344 540L308 554Q267 569 260 569Q227 569 213 527L135 573Q153 615 183 641Q218 671 268 671Q301 671 336 657L365 645Q411 627 415 627Q443 627 460 671Z"  horiz-adv-x="593" vert-adv-y="1000"  />

      
      <glyph glyph-name="unif2" unicode="&#xf2;" d="M308 460Q426 460 496.50 397.50Q567 335 567 231Q567 123 493.50 55Q420-13 303-13Q183-13 109 51.50Q35 116 35 222Q35 326 111.50 393Q188 460 308 460M294 116Q340 116 369.50 150Q399 184 399 237Q399 280 375 305Q351 330 310 330Q264 330 233.50 295.50Q203 261 203 210Q203 167 228 141.50Q253 116 294 116M252 527L163 698L327 698L365 527L252 527Z"  horiz-adv-x="603" vert-adv-y="1000"  />

      
      <glyph glyph-name="unif3" unicode="&#xf3;" d="M308 460Q426 460 496.50 397.50Q567 335 567 231Q567 123 493.50 55Q420-13 303-13Q183-13 109 51.50Q35 116 35 222Q35 326 111.50 393Q188 460 308 460M294 116Q340 116 369.50 150Q399 184 399 237Q399 280 375 305Q351 330 310 330Q264 330 233.50 295.50Q203 261 203 210Q203 167 228 141.50Q253 116 294 116M328 698L493 698L361 527L248 527L328 698Z"  horiz-adv-x="603" vert-adv-y="1000"  />

      
      <glyph glyph-name="unif4" unicode="&#xf4;" d="M308 460Q426 460 496.50 397.50Q567 335 567 231Q567 123 493.50 55Q420-13 303-13Q183-13 109 51.50Q35 116 35 222Q35 326 111.50 393Q188 460 308 460M294 116Q340 116 369.50 150Q399 184 399 237Q399 280 375 305Q351 330 310 330Q264 330 233.50 295.50Q203 261 203 210Q203 167 228 141.50Q253 116 294 116M336 574L227 499L165 573L357 701L486 568L409 499L336 574Z"  horiz-adv-x="603" vert-adv-y="1000"  />

      
      <glyph glyph-name="unif5" unicode="&#xf5;" d="M308 460Q426 460 496.50 397.50Q567 335 567 231Q567 123 493.50 55Q420-13 303-13Q183-13 109 51.50Q35 116 35 222Q35 326 111.50 393Q188 460 308 460M294 116Q340 116 369.50 150Q399 184 399 237Q399 280 375 305Q351 330 310 330Q264 330 233.50 295.50Q203 261 203 210Q203 167 228 141.50Q253 116 294 116M440 671L519 625Q496 581 467 556Q432 525 390 525Q363 525 324 540L288 554Q247 569 240 569Q207 569 193 527L115 573Q133 615 163 641Q198 671 248 671Q281 671 316 657L345 645Q391 627 395 627Q424 627 440 671Z"  horiz-adv-x="603" vert-adv-y="1000"  />

      
      <glyph glyph-name="unif6" unicode="&#xf6;" d="M308 460Q426 460 496.50 397.50Q567 335 567 231Q567 123 493.50 55Q420-13 303-13Q183-13 109 51.50Q35 116 35 222Q35 326 111.50 393Q188 460 308 460M294 116Q340 116 369.50 150Q399 184 399 237Q399 280 375 305Q351 330 310 330Q264 330 233.50 295.50Q203 261 203 210Q203 167 228 141.50Q253 116 294 116M418 687Q450 687 474 663Q498 639 498 607Q498 573 475 550Q452 527 419 527Q385 527 361 550.50Q337 574 337 608Q337 640 361 663.50Q385 687 418 687M159 664Q159 664 170.50 675.50Q182 687 216 687Q250 687 273 663.50Q296 640 296 607Q296 573 273 550Q250 527 217 527Q182 527 159 550.50Q136 574 136 608Q136 641 159 664Z"  horiz-adv-x="603" vert-adv-y="1000"  />

      
      <glyph glyph-name="unif7" unicode="&#xf7;" d="M211 457.50Q211 457.50 200 468.25Q189 479 189 510Q189 541 210.50 562.50Q232 584 263 584Q294 584 316 562.50Q338 541 338 510Q338 479 316 457Q294 435 263 436Q233 436 211 457.50M211 117.50Q211 117.50 200 128.25Q189 139 189 170Q189 201 210.50 222.50Q232 244 263 244Q294 244 316 222.50Q338 201 338 170Q338 139 316 117Q294 95 263 96Q233 96 211 117.50M47 280L47 400L480 400L480 280L47 280Z"  horiz-adv-x="500" vert-adv-y="1000"  />

      
      <glyph glyph-name="unif8" unicode="&#xf8;" d="M8 5L95 82Q47 140 47 220Q47 317 114 384Q190 460 314 460Q403 460 473 420L564 501L618 442L533 367Q579 308 579 227Q579 128 516 63Q441-13 306-13Q216-13 155 29L62-53L8 5M409 260L259 126Q279 115 305 115Q350 115 377 144Q411 179 411 236Q411 244 409 260M216 188L365 320Q349 331 328 331Q283 331 253 304Q215 270 215 207Q215 203 215.50 196.50Q216 190 216 188Z"  horiz-adv-x="626" vert-adv-y="1000"  />

      
      <glyph glyph-name="unif9" unicode="&#xf9;" d="M399 447L563 447L535 211Q519 83 468 41Q405-13 279-13Q172-13 113.50 32.50Q55 78 55 163Q55 191 59 224L87 447L251 447L225 234Q220 189 220 182Q220 124 287 124Q326 124 345 144.50Q364 165 370 214L399 447M280 527L191 698L355 698L393 527L280 527Z"  horiz-adv-x="597" vert-adv-y="1000"  />

      
      <glyph glyph-name="unifa" unicode="&#xfa;" d="M399 447L563 447L535 211Q519 83 468 41Q405-13 279-13Q172-13 113.50 32.50Q55 78 55 163Q55 191 59 224L87 447L251 447L225 234Q220 189 220 182Q220 124 287 124Q326 124 345 144.50Q364 165 370 214L399 447M356 698L521 698L389 527L276 527L356 698Z"  horiz-adv-x="597" vert-adv-y="1000"  />

      
      <glyph glyph-name="unifb" unicode="&#xfb;" d="M399 447L563 447L535 211Q519 83 468 41Q405-13 279-13Q172-13 113.50 32.50Q55 78 55 163Q55 191 59 224L87 447L251 447L225 234Q220 189 220 182Q220 124 287 124Q326 124 345 144.50Q364 165 370 214L399 447M350 574L241 499L179 573L371 701L500 568L423 499L350 574Z"  horiz-adv-x="597" vert-adv-y="1000"  />

      
      <glyph glyph-name="unifc" unicode="&#xfc;" d="M399 447L563 447L535 211Q519 83 468 41Q405-13 279-13Q172-13 113.50 32.50Q55 78 55 163Q55 191 59 224L87 447L251 447L225 234Q220 189 220 182Q220 124 287 124Q326 124 345 144.50Q364 165 370 214L399 447M432 687Q464 687 488 663Q512 639 512 607Q512 573 489 550Q466 527 433 527Q399 527 375 550.50Q351 574 351 608Q351 640 375 663.50Q399 687 432 687M173 664Q173 664 184.50 675.50Q196 687 230 687Q264 687 287 663.50Q310 640 310 607Q310 573 287 550Q264 527 231 527Q196 527 173 550.50Q150 574 150 608Q150 641 173 664Z"  horiz-adv-x="597" vert-adv-y="1000"  />

      
      <glyph glyph-name="unifd" unicode="&#xfd;" d="M427 447L615 447L197-229L12-229L172 35L14 447L197 447L245 326Q268 269 282 198Q305 248 341 306L427 447M348 698L513 698L381 527L268 527L348 698Z"  horiz-adv-x="588" vert-adv-y="1000"  />

      
      <glyph glyph-name="unife" unicode="&#xfe;" d="M119 729L284 729L249 445L236 390Q279 429 314 444.50Q349 460 393 460Q478 460 527.50 402Q577 344 577 244Q577 128 518.50 57.50Q460-13 364-13Q266-13 203 76L166-229L2-229L119 729M304 116Q350 116 379.50 150Q409 184 409 237Q409 280 385 305Q361 330 321 330Q275 330 245 295.50Q215 261 215 210Q215 167 239.50 141.50Q264 116 304 116Z"  horiz-adv-x="614" vert-adv-y="1000"  />

      
      <glyph glyph-name="uniff" unicode="&#xff;" d="M427 447L615 447L197-229L12-229L172 35L14 447L197 447L245 326Q268 269 282 198Q305 248 341 306L427 447M432 687Q464 687 488 663Q512 639 512 607Q512 573 489 550Q466 527 433 527Q399 527 375 550.50Q351 574 351 608Q351 640 375 663.50Q399 687 432 687M173 664Q173 664 184.50 675.50Q196 687 230 687Q264 687 287 663.50Q310 640 310 607Q310 573 287 550Q264 527 231 527Q196 527 173 550.50Q150 574 150 608Q150 641 173 664Z"  horiz-adv-x="588" vert-adv-y="1000"  />

      
      <glyph glyph-name="uni0100" unicode="&#x0100;" d="M462 112L224 112L173 0L-15 0L316 667L506 667L667 0L490 0L462 112M353 393L286 244L430 244L402 371Q391 424 387 448Q384 465 383 472Q372 436 353 393M214 749L226 847L602 847L590 749L214 749Z"  horiz-adv-x="695" vert-adv-y="1000"  />

      
      <glyph glyph-name="uni0101" unicode="&#x0101;" d="M414 447L579 447L524 0L359 0L371 49Q333 14 299 0.50Q265-13 219-13Q134-13 83.50 44Q33 101 33 198Q33 311 100 385.50Q167 460 268 460Q315 460 346 446.50Q377 433 413 396L414 447M291 116Q336 116 365.50 150.50Q395 185 395 237Q395 280 371 305Q347 330 307 330Q262 330 231.50 295.50Q201 261 201 210Q201 167 225.50 141.50Q250 116 291 116M133 539L145 637L541 637L529 539L133 539Z"  horiz-adv-x="612" vert-adv-y="1000"  />

      
      <glyph glyph-name="uni0102" unicode="&#x0102;" d="M462 112L224 112L173 0L-15 0L316 667L506 667L667 0L490 0L462 112M353 393L286 244L430 244L402 371Q391 424 387 448Q384 465 383 472Q372 436 353 393M251 861Q251 863 251.50 869.50Q252 876 252 881L351 881Q355 819 416 819Q476 819 497 881L599 881Q586 807 538.50 767Q491 727 415 727Q343 727 297 764.50Q251 802 251 861Z"  horiz-adv-x="695" vert-adv-y="1000"  />

      
      <glyph glyph-name="uni0103" unicode="&#x0103;" d="M414 447L579 447L524 0L359 0L371 49Q333 14 299 0.50Q265-13 219-13Q134-13 83.50 44Q33 101 33 198Q33 311 100 385.50Q167 460 268 460Q315 460 346 446.50Q377 433 413 396L414 447M291 116Q336 116 365.50 150.50Q395 185 395 237Q395 280 371 305Q347 330 307 330Q262 330 231.50 295.50Q201 261 201 210Q201 167 225.50 141.50Q250 116 291 116M171 661Q171 663 171.50 669.50Q172 676 172 681L271 681Q275 619 336 619Q396 619 417 681L519 681Q506 607 458.50 567Q411 527 335 527Q263 527 217 564.50Q171 602 171 661Z"  horiz-adv-x="612" vert-adv-y="1000"  />

      
      <glyph glyph-name="uni0104" unicode="&#x0104;" d="M460 122L228 122L173 0L-15 0L316 667L506 667L667 0L568 0Q548-15 530-33Q508-55 508-73Q508-89 518-98Q527-107 543-107Q568-107 592-89L560-175Q527-193 492-193Q452-193 430-170Q408-146 408-113Q408-76 436-44Q459-18 490 0L460 122M402 371Q389 433 383 472Q370 431 353 393L291 255L427 255L402 371Z"  horiz-adv-x="695" vert-adv-y="1000"  />

      
      <glyph glyph-name="uni0105" unicode="&#x0105;" d="M414 447L579 447L524 0L484 0Q466-12 446-34Q426-54 426-76Q426-91 435-98Q446-107 465-107Q481-107 513-89L481-177Q449-190 418-190Q374-190 351-168Q329-148 329-111Q329-80 355-47Q380-17 411 0L359 0L371 49Q337 19 313 7Q273-13 219-13Q142-13 95 32Q33 89 33 198Q33 317 107 393Q174 460 273 460Q325 460 359 440Q377 430 414 396L414 447M291 116Q334 116 362 147Q395 184 395 237Q395 280 368 307Q343 330 307 330Q266 330 237 301Q201 265 201 210Q201 168 226 142Q251 116 291 116Z"  horiz-adv-x="612" vert-adv-y="1000"  />

      
      <glyph glyph-name="uni0106" unicode="&#x0106;" d="M414 680Q517 680 616 624L596 459Q523 520 433 520Q341 520 282 465.50Q223 411 223 326Q223 246 275 196.50Q327 147 410 147Q488 147 563 189L542 19Q452-13 385-13Q237-13 143.50 79.50Q50 172 50 318Q50 470 155.50 575Q261 680 414 680M438 898L603 898L471 727L358 727L438 898Z"  horiz-adv-x="607" vert-adv-y="1000"  />

      
      <glyph glyph-name="uni0107" unicode="&#x0107;" d="M282 460Q354 460 417 429L400 290Q356 330 309 330Q263 330 233 297Q203 264 203 213Q203 169 227.50 143Q252 117 295 117Q336 117 383 151L366 11Q294-13 248-13Q154-13 94.50 49Q35 111 35 209Q35 318 105 389Q175 460 282 460M328 698L493 698L361 527L248 527L328 698Z"  horiz-adv-x="423" vert-adv-y="1000"  />

      
      <glyph glyph-name="uni0108" unicode="&#x0108;" d="M414 680Q517 680 616 624L596 459Q523 520 433 520Q341 520 282 465.50Q223 411 223 326Q223 246 275 196.50Q327 147 410 147Q488 147 563 189L542 19Q452-13 385-13Q237-13 143.50 79.50Q50 172 50 318Q50 470 155.50 575Q261 680 414 680M445 777L338 711L268 780L460 902L610 783L528 711L445 777Z"  horiz-adv-x="607" vert-adv-y="1000"  />

      
      <glyph glyph-name="uni0109" unicode="&#x0109;" d="M282 460Q354 460 417 429L400 290Q356 330 309 330Q263 330 233 297Q203 264 203 213Q203 169 227.50 143Q252 117 295 117Q336 117 383 151L366 11Q294-13 248-13Q154-13 94.50 49Q35 111 35 209Q35 318 105 389Q175 460 282 460M316 574L207 499L145 573L337 701L466 568L389 499L316 574Z"  horiz-adv-x="423" vert-adv-y="1000"  />

      
      <glyph glyph-name="uni010A" unicode="&#x010A;" d="M414 680Q517 680 616 624L596 459Q523 520 433 520Q341 520 282 465.50Q223 411 223 326Q223 246 275 196.50Q327 147 410 147Q488 147 563 189L542 19Q452-13 385-13Q237-13 143.50 79.50Q50 172 50 318Q50 470 155.50 575Q261 680 414 680M376.50 746.50Q376.50 746.50 363.25 759.75Q350 773 350 811Q350 849 376.50 875.50Q403 902 441 902Q479 902 505.50 875.50Q532 849 532 811Q532 773 505.50 746.50Q479 720 441 720Q403 720 376.50 746.50Z"  horiz-adv-x="607" vert-adv-y="1000"  />

      
      <glyph glyph-name="uni010B" unicode="&#x010B;" d="M282 460Q354 460 417 429L400 290Q356 330 309 330Q263 330 233 297Q203 264 203 213Q203 169 227.50 143Q252 117 295 117Q336 117 383 151L366 11Q294-13 248-13Q154-13 94.50 49Q35 111 35 209Q35 318 105 389Q175 460 282 460M238.50 546.50Q238.50 546.50 225.25 559.75Q212 573 212 611Q212 649 238.50 675.50Q265 702 303 702Q341 702 367.50 675.50Q394 649 394 611Q394 573 367.50 546.50Q341 520 303 520Q265 520 238.50 546.50Z"  horiz-adv-x="423" vert-adv-y="1000"  />

      
      <glyph glyph-name="uni010C" unicode="&#x010C;" d="M414 680Q517 680 616 624L596 459Q523 520 433 520Q341 520 282 465.50Q223 411 223 326Q223 246 275 196.50Q327 147 410 147Q488 147 563 189L542 19Q452-13 385-13Q237-13 143.50 79.50Q50 172 50 318Q50 470 155.50 575Q261 680 414 680M349 902L437 836L543 902L610 830L426 711L269 833L349 902Z"  horiz-adv-x="607" vert-adv-y="1000"  />

      
      <glyph glyph-name="uni010D" unicode="&#x010D;" d="M282 460Q354 460 417 429L400 290Q356 330 309 330Q263 330 233 297Q203 264 203 213Q203 169 227.50 143Q252 117 295 117Q336 117 383 151L366 11Q294-13 248-13Q154-13 94.50 49Q35 111 35 209Q35 318 105 389Q175 460 282 460M243 699L319 626L422 701L488 629L305 499L161 632L243 699Z"  horiz-adv-x="423" vert-adv-y="1000"  />

      
      <glyph glyph-name="uni010E" unicode="&#x010E;" d="M42 0L124 667L313 667Q491 667 580 584Q664 506 664 359Q664 179 552 86Q447 0 262 0L42 0M321 520L275 520L229 147L280 147Q376 147 430 198Q490 253 490 351Q490 437 442 482Q401 520 321 520M289 902L377 836L483 902L550 830L366 711L209 833L289 902Z"  horiz-adv-x="694" vert-adv-y="1000"  />

      
      <glyph glyph-name="uni010F" unicode="&#x010F;" d="M448 729L613 729L523 0L359 0L371 53Q331 17 295.50 2Q260-13 214-13Q132-13 82 43Q32 99 32 190Q32 305 97.50 382.50Q163 460 259 460Q306 460 339.50 444Q373 428 407 389L448 729M290 116Q335 116 364.50 150.50Q394 185 394 237Q394 280 370 305Q346 330 306 330Q260 330 230 295.50Q200 261 200 210Q200 167 224.50 141.50Q249 116 290 116M720 700L870 674L730 472L630 490L720 700Z"  horiz-adv-x="790" vert-adv-y="1000"  />

      
      <glyph glyph-name="uni0110" unicode="&#x0110;" d="M84 0L121 296L30 296L45 416L135 416L166 667L372 667Q455 667 506 654Q557 641 595 612Q645 573 674 511Q706 441 706 358Q706 236 646.50 144Q587 52 489 22Q418 0 304 0L84 0M378 520L317 520L304 416L422 416L408 296L288 296L271 147L329 147Q392 147 427.50 161.50Q463 176 490 212Q532 269 532 358Q532 442 495 481Q458 520 378 520Z"  horiz-adv-x="736" vert-adv-y="1000"  />

      
      <glyph glyph-name="uni0111" unicode="&#x0111;" d="M437 643L448 729L613 729L602 643L700 643L686 533L589 533L523 0L359 0L371 53Q331 17 295.50 2Q260-13 214-13Q132-13 82 43Q32 99 32 190Q32 305 97.50 382.50Q163 460 259 460Q306 460 339.50 444Q373 428 407 389L423 533L253 533L267 643L437 643M290 116Q335 116 364.50 150.50Q394 185 394 237Q394 280 370 305Q346 330 306 330Q260 330 230 295.50Q200 261 200 210Q200 167 224.50 141.50Q249 116 290 116Z"  horiz-adv-x="650" vert-adv-y="1000"  />

      
      <glyph glyph-name="uni0112" unicode="&#x0112;" d="M124 667L489 667L471 520L275 520L261 409L451 409L433 263L243 263L229 147L433 147L415 0L42 0L124 667M119 749L131 847L507 847L495 749L119 749Z"  horiz-adv-x="483" vert-adv-y="1000"  />

      
      <glyph glyph-name="uni0113" unicode="&#x0113;" d="M525 190L191 190Q191 135 214 114Q231 97 265 97Q290 97 307 109Q323 120 329 139L509 139Q493 91 460 58Q391-13 266-13Q159-13 95 46Q34 105 34 204Q34 318 107 389Q180 460 298 460Q405 460 467 398Q527 338 527 228Q527 214 525 190M202 283L358 283Q356 316 335 336Q315 354 283 354Q248 354 226 332Q208 314 202 283M93 539L105 637L501 637L489 539L93 539Z"  horiz-adv-x="561" vert-adv-y="1000"  />

      
      <glyph glyph-name="uni0116" unicode="&#x0116;" d="M124 667L489 667L471 520L275 520L261 409L451 409L433 263L243 263L229 147L433 147L415 0L42 0L124 667M252.50 746.50Q252.50 746.50 239.25 759.75Q226 773 226 811Q226 849 252.50 875.50Q279 902 317 902Q355 902 381.50 875.50Q408 849 408 811Q408 773 381.50 746.50Q355 720 317 720Q279 720 252.50 746.50Z"  horiz-adv-x="483" vert-adv-y="1000"  />

      
      <glyph glyph-name="uni0117" unicode="&#x0117;" d="M525 190L191 190Q191 135 214 114Q231 97 265 97Q290 97 307 109Q323 120 329 139L509 139Q493 91 460 58Q391-13 266-13Q159-13 95 46Q34 105 34 204Q34 318 107 389Q180 460 298 460Q405 460 467 398Q527 338 527 228Q527 214 525 190M202 283L358 283Q356 316 335 336Q315 354 283 354Q248 354 226 332Q208 314 202 283M237.50 546.50Q237.50 546.50 224.25 559.75Q211 573 211 611Q211 649 237.50 675.50Q264 702 302 702Q340 702 366.50 675.50Q393 649 393 611Q393 573 366.50 546.50Q340 520 302 520Q264 520 237.50 546.50Z"  horiz-adv-x="561" vert-adv-y="1000"  />

      
      <glyph glyph-name="uni0118" unicode="&#x0118;" d="M124 667L489 667L471 520L275 520L261 405L451 405L433 259L243 259L229 147L433 147L415 0L375 0Q355-15 337-33Q315-55 315-73Q315-89 325-98Q334-107 350-107Q375-107 399-89L367-175Q334-193 299-193Q259-193 237-170Q215-146 215-113Q215-76 243-44Q266-18 297 0L42 0L124 667Z"  horiz-adv-x="483" vert-adv-y="1000"  />

      
      <glyph glyph-name="uni0119" unicode="&#x0119;" d="M525 190L191 190Q193 147 209 125Q225 103 269 103Q300 103 315 117Q328 129 332 149L512 149Q502 98 463 60Q435 34 392 8Q344-24 332-36Q312-54 312-76Q312-90 321-98Q332-107 351-107Q368-107 399-89L367-177Q339-190 304-190Q261-190 237-168Q215-148 215-111Q215-81 235-55Q254-30 280-13Q156-13 95 46Q34 105 34 203Q34 316 104 386Q178 460 297 460Q405 460 466 399Q527 338 527 230Q527 204 525 190M202 283L358 283Q356 313 339 332Q321 352 284 352Q247 352 226 331Q207 310 202 283Z"  horiz-adv-x="561" vert-adv-y="1000"  />

      
      <glyph glyph-name="uni011A" unicode="&#x011A;" d="M124 667L489 667L471 520L275 520L261 409L451 409L433 263L243 263L229 147L433 147L415 0L42 0L124 667M239 902L327 836L433 902L500 830L316 711L159 833L239 902Z"  horiz-adv-x="483" vert-adv-y="1000"  />

      
      <glyph glyph-name="uni011B" unicode="&#x011B;" d="M525 190L191 190Q191 135 214 114Q231 97 265 97Q290 97 307 109Q323 120 329 139L509 139Q493 91 460 58Q391-13 266-13Q159-13 95 46Q34 105 34 204Q34 318 107 389Q180 460 298 460Q405 460 467 398Q527 338 527 228Q527 214 525 190M202 283L358 283Q356 316 335 336Q315 354 283 354Q248 354 226 332Q208 314 202 283M238 699L314 626L417 701L483 629L300 499L156 632L238 699Z"  horiz-adv-x="561" vert-adv-y="1000"  />

      
      <glyph glyph-name="uni011C" unicode="&#x011C;" d="M389 237L405 371L726 371Q723 263 693 186Q658 93 574.50 40Q491-13 382-13Q235-13 142.50 78.50Q50 170 50 315Q50 473 153.50 576.50Q257 680 415 680Q542 680 628 608Q660 581 677 556.50Q694 532 714 485L567 428Q518 537 411 537Q331 537 277.50 474.50Q224 412 224 318Q224 237 273 185Q322 133 399 133Q454 133 493.50 161.50Q533 190 544 237L389 237M445 777L338 711L268 780L460 902L610 783L528 711L445 777Z"  horiz-adv-x="752" vert-adv-y="1000"  />

      
      <glyph glyph-name="uni011D" unicode="&#x011D;" d="M411 447L575 447L526 55Q515-35 498.50-85Q482-135 451-166Q387-229 252-229Q134-229 76-175Q48-150 33.50-122Q19-94 11-50L168-50Q173-73 195-87Q217-101 252-101Q299-101 323-76.50Q347-52 354 4L359 46Q323 12 295-0.50Q267-13 228-13Q137-13 84 47Q31 107 31 209Q31 319 94 389.50Q157 460 256 460Q304 460 339 442.50Q374 425 408 382L411 447M289 117Q333 117 359 149.50Q385 182 385 236Q385 280 361.50 305Q338 330 298 330Q254 330 226.50 298Q199 266 199 216Q199 171 223.50 144Q248 117 289 117M366 574L257 499L195 573L387 701L516 568L439 499L366 574Z"  horiz-adv-x="608" vert-adv-y="1000"  />

      
      <glyph glyph-name="uni011E" unicode="&#x011E;" d="M389 237L405 371L726 371Q723 263 693 186Q658 93 574.50 40Q491-13 382-13Q235-13 142.50 78.50Q50 170 50 315Q50 473 153.50 576.50Q257 680 415 680Q542 680 628 608Q660 581 677 556.50Q694 532 714 485L567 428Q518 537 411 537Q331 537 277.50 474.50Q224 412 224 318Q224 237 273 185Q322 133 399 133Q454 133 493.50 161.50Q533 190 544 237L389 237M261 861Q261 863 261.50 869.50Q262 876 262 881L361 881Q365 819 426 819Q486 819 507 881L609 881Q596 807 548.50 767Q501 727 425 727Q353 727 307 764.50Q261 802 261 861Z"  horiz-adv-x="752" vert-adv-y="1000"  />

      
      <glyph glyph-name="uni011F" unicode="&#x011F;" d="M411 447L575 447L526 55Q515-35 498.50-85Q482-135 451-166Q387-229 252-229Q134-229 76-175Q48-150 33.50-122Q19-94 11-50L168-50Q173-73 195-87Q217-101 252-101Q299-101 323-76.50Q347-52 354 4L359 46Q323 12 295-0.50Q267-13 228-13Q137-13 84 47Q31 107 31 209Q31 319 94 389.50Q157 460 256 460Q304 460 339 442.50Q374 425 408 382L411 447M289 117Q333 117 359 149.50Q385 182 385 236Q385 280 361.50 305Q338 330 298 330Q254 330 226.50 298Q199 266 199 216Q199 171 223.50 144Q248 117 289 117M176 661Q176 663 176.50 669.50Q177 676 177 681L276 681Q280 619 341 619Q401 619 422 681L524 681Q511 607 463.50 567Q416 527 340 527Q268 527 222 564.50Q176 602 176 661Z"  horiz-adv-x="608" vert-adv-y="1000"  />

      
      <glyph glyph-name="uni0120" unicode="&#x0120;" d="M389 237L405 371L726 371Q723 263 693 186Q658 93 574.50 40Q491-13 382-13Q235-13 142.50 78.50Q50 170 50 315Q50 473 153.50 576.50Q257 680 415 680Q542 680 628 608Q660 581 677 556.50Q694 532 714 485L567 428Q518 537 411 537Q331 537 277.50 474.50Q224 412 224 318Q224 237 273 185Q322 133 399 133Q454 133 493.50 161.50Q533 190 544 237L389 237M360.50 772.50Q360.50 772.50 347.25 785.75Q334 799 334 837Q334 875 360.50 901.50Q387 928 425 928Q463 928 489.50 901.50Q516 875 516 837Q516 799 489.50 772.50Q463 746 425 746Q387 746 360.50 772.50Z"  horiz-adv-x="752" vert-adv-y="1000"  />

      
      <glyph glyph-name="uni0121" unicode="&#x0121;" d="M411 447L575 447L526 55Q515-35 498.50-85Q482-135 451-166Q387-229 252-229Q134-229 76-175Q48-150 33.50-122Q19-94 11-50L168-50Q173-73 195-87Q217-101 252-101Q299-101 323-76.50Q347-52 354 4L359 46Q323 12 295-0.50Q267-13 228-13Q137-13 84 47Q31 107 31 209Q31 319 94 389.50Q157 460 256 460Q304 460 339 442.50Q374 425 408 382L411 447M289 117Q333 117 359 149.50Q385 182 385 236Q385 280 361.50 305Q338 330 298 330Q254 330 226.50 298Q199 266 199 216Q199 171 223.50 144Q248 117 289 117M239.50 546.50Q239.50 546.50 226.25 559.75Q213 573 213 611Q213 649 239.50 675.50Q266 702 304 702Q342 702 368.50 675.50Q395 649 395 611Q395 573 368.50 546.50Q342 520 304 520Q266 520 239.50 546.50Z"  horiz-adv-x="608" vert-adv-y="1000"  />

      
      <glyph glyph-name="uni0122" unicode="&#x0122;" d="M389 237L405 371L726 371Q723 263 693 186Q658 93 574.50 40Q491-13 382-13Q235-13 142.50 78.50Q50 170 50 315Q50 473 153.50 576.50Q257 680 415 680Q542 680 628 608Q660 581 677 556.50Q694 532 714 485L567 428Q518 537 411 537Q331 537 277.50 474.50Q224 412 224 318Q224 237 273 185Q322 133 399 133Q454 133 493.50 161.50Q533 190 544 237L389 237M310-50L460-66L340-260L240-248L310-50Z"  horiz-adv-x="752" vert-adv-y="1000"  />

      
      <glyph glyph-name="uni0123" unicode="&#x0123;" d="M411 447L575 447L526 55Q515-35 498.50-85Q482-135 451-166Q387-229 252-229Q134-229 76-175Q48-150 33.50-122Q19-94 11-50L168-50Q173-73 195-87Q217-101 252-101Q299-101 323-76.50Q347-52 354 4L359 46Q323 12 295-0.50Q267-13 228-13Q137-13 84 47Q31 107 31 209Q31 319 94 389.50Q157 460 256 460Q304 460 339 442.50Q374 425 408 382L411 447M289 117Q333 117 359 149.50Q385 182 385 236Q385 280 361.50 305Q338 330 298 330Q254 330 226.50 298Q199 266 199 216Q199 171 223.50 144Q248 117 289 117M365 509L215 525L335 709L435 697L365 509Z"  horiz-adv-x="608" vert-adv-y="1000"  />

      
      <glyph glyph-name="uni0124" unicode="&#x0124;" d="M539 667L708 667L626 0L457 0L490 273L245 273L211 0L42 0L124 667L293 667L263 420L508 420L539 667M440 777L333 711L263 780L455 902L605 783L523 711L440 777Z"  horiz-adv-x="724" vert-adv-y="1000"  />

      
      <glyph glyph-name="uni0125" unicode="&#x0125;" d="M122 729L287 729L247 407Q323 460 394 460Q464 460 501.50 419.50Q539 379 539 302Q539 274 533 228L505 0L340 0L362 179Q369 232 369 252Q369 323 309 323Q269 323 249.50 298Q230 273 223 212L197 0L32 0L122 729M216 824L107 749L45 823L237 951L366 818L289 749L216 824Z"  horiz-adv-x="593" vert-adv-y="1000"  />

      
      <glyph glyph-name="uni0126" unicode="&#x0126;" d="M293 667L286 614L532 614L539 667L708 667L701 614L757 614L743 497L687 497L626 0L457 0L490 273L244 273L211 0L42 0L103 497L47 497L61 614L117 614L124 667L293 667M518 497L272 497L262 421L508 421L518 497Z"  horiz-adv-x="724" vert-adv-y="1000"  />

      
      <glyph glyph-name="uni0127" unicode="&#x0127;" d="M35 0L101 533L18 533L32 643L115 643L125 729L290 729L280 643L446 643L432 533L266 533L250 407Q326 460 397 460Q467 460 504.50 419.50Q542 379 542 302Q542 274 536 228L508 0L343 0L365 179Q372 232 372 252Q372 323 312 323Q272 323 252.50 298Q233 273 226 212L200 0L35 0Z"  horiz-adv-x="596" vert-adv-y="1000"  />

      
      <glyph glyph-name="uni012A" unicode="&#x012A;" d="M124 667L293 667L211 0L42 0L124 667M14 749L26 847L402 847L390 749L14 749Z"  horiz-adv-x="309" vert-adv-y="1000"  />

      
      <glyph glyph-name="uni012B" unicode="&#x012B;" d="M87 447L252 447L197 0L32 0L87 447M-30 539L-18 637L378 637L366 539L-30 539Z"  horiz-adv-x="285" vert-adv-y="1000"  />

      
      <glyph glyph-name="uni012E" unicode="&#x012E;" d="M124 667L293 667L211 0Q191-15 173-33Q151-55 151-73Q151-89 161-98Q170-107 186-107Q211-107 235-89L203-175Q170-193 135-193Q95-193 73-170Q51-146 51-113Q51-76 79-44Q102-18 133 0L42 0L124 667Z"  horiz-adv-x="309" vert-adv-y="1000"  />

      
      <glyph glyph-name="uni012F" unicode="&#x012F;" d="M194 713Q232 713 260.50 684.50Q289 656 289 617Q289 576 260.50 546.50Q232 517 192 517Q151 517 122 546Q93 575 93 616Q93 656 122.50 684.50Q152 713 194 713M87 447L252 447L197 0Q183-10 159-34Q139-57 139-73Q139-89 149-98Q158-107 174-107Q194-107 226-89L194-175Q166-190 131-190Q88-190 65-167Q42-144 42-110Q42-72 74-39Q95-18 124 0L32 0L87 447Z"  horiz-adv-x="285" vert-adv-y="1000"  />

      
      <glyph glyph-name="uni0130" unicode="&#x0130;" d="M124 667L293 667L211 0L42 0L124 667M152.50 746.50Q152.50 746.50 139.25 759.75Q126 773 126 811Q126 849 152.50 875.50Q179 902 217 902Q255 902 281.50 875.50Q308 849 308 811Q308 773 281.50 746.50Q255 720 217 720Q179 720 152.50 746.50Z"  horiz-adv-x="309" vert-adv-y="1000"  />

      
      <glyph glyph-name="uni0131" unicode="&#x0131;" d="M87 447L252 447L197 0L32 0L87 447Z"  horiz-adv-x="285" vert-adv-y="1000"  />

      
      <glyph glyph-name="uni0134" unicode="&#x0134;" d="M296 667L465 667L408 208Q401 153 387.50 113.50Q374 74 340 40Q287-13 194-13Q113-13 62 24Q20 54-7 106L118 203Q124 175 139 158Q153 141 181 141Q203 141 218 157Q235 175 243 236L296 667M415 777L308 711L238 780L430 902L580 783L498 711L415 777Z"  horiz-adv-x="481" vert-adv-y="1000"  />

      
      <glyph glyph-name="uni0135" unicode="&#x0135;" d="M85 447L250 447L166-229L2-229L85 447M199 574L90 499L28 573L220 701L349 568L272 499L199 574Z"  horiz-adv-x="276" vert-adv-y="1000"  />

      
      <glyph glyph-name="uni0136" unicode="&#x0136;" d="M124 667L293 667L257 375L477 667L671 667L416 327L644 0L441 0L298 213Q274 249 248 301L211 0L42 0L124 667M250-50L400-66L280-260L180-248L250-50Z"  horiz-adv-x="672" vert-adv-y="1000"  />

      
      <glyph glyph-name="uni0137" unicode="&#x0137;" d="M122 729L287 729L232 287L375 447L583 447L388 243L597 0L396 0L330 75Q277 136 223 210L197 0L32 0L122 729M220-50L370-66L250-250L150-238L220-50Z"  horiz-adv-x="605" vert-adv-y="1000"  />

      
      <glyph glyph-name="uni0139" unicode="&#x0139;" d="M124 667L293 667L229 147L442 147L423 0L42 0L124 667M228 898L393 898L261 727L148 727L228 898Z"  horiz-adv-x="472" vert-adv-y="1000"  />

      
      <glyph glyph-name="uni013A" unicode="&#x013A;" d="M122 729L287 729L197 0L32 0L122 729M213 948L378 948L246 777L133 777L213 948Z"  horiz-adv-x="285" vert-adv-y="1000"  />

      
      <glyph glyph-name="uni013B" unicode="&#x013B;" d="M124 667L293 667L229 147L442 147L423 0L42 0L124 667M180-50L330-66L210-260L110-248L180-50Z"  horiz-adv-x="472" vert-adv-y="1000"  />

      
      <glyph glyph-name="uni013C" unicode="&#x013C;" d="M122 729L287 729L197 0L32 0L122 729M80-50L230-66L110-250L10-238L80-50Z"  horiz-adv-x="285" vert-adv-y="1000"  />

      
      <glyph glyph-name="uni013D" unicode="&#x013D;" d="M124 667L293 667L229 147L442 147L423 0L42 0L124 667M420 680L570 654L430 452L330 470L420 680Z"  horiz-adv-x="472" vert-adv-y="1000"  />

      
      <glyph glyph-name="uni013E" unicode="&#x013E;" d="M122 729L287 729L197 0L32 0L122 729M400 700L550 674L410 472L310 490L400 700Z"  horiz-adv-x="470" vert-adv-y="1000"  />

      
      <glyph glyph-name="uni013F" unicode="&#x013F;" d="M124 667L293 667L229 147L442 147L423 0L42 0L124 667M341.50 281.50Q341.50 281.50 328.25 294.75Q315 308 315 346Q315 384 341.50 410.50Q368 437 406 437Q444 437 470.50 410.50Q497 384 497 346Q497 308 470.50 281.50Q444 255 406 255Q368 255 341.50 281.50Z"  horiz-adv-x="472" vert-adv-y="1000"  />

      
      <glyph glyph-name="uni0140" unicode="&#x0140;" d="M122 729L287 729L197 0L32 0L122 729M316.50 301.50Q316.50 301.50 303.25 314.75Q290 328 290 366Q290 404 316.50 430.50Q343 457 381 457Q419 457 445.50 430.50Q472 404 472 366Q472 328 445.50 301.50Q419 275 381 275Q343 275 316.50 301.50Z"  horiz-adv-x="442" vert-adv-y="1000"  />

      
      <glyph glyph-name="uni0141" unicode="&#x0141;" d="M138 382L173 667L342 667L315 445L425 510L408 372L298 307L278 147L486 147L468 0L91 0L121 244L28 189L45 327L138 382Z"  horiz-adv-x="516" vert-adv-y="1000"  />

      
      <glyph glyph-name="uni0142" unicode="&#x0142;" d="M97 449L132 729L292 729L265 516L352 570L337 452L251 398L202 0L42 0L83 331L-4 277L10 395L97 449Z"  horiz-adv-x="302" vert-adv-y="1000"  />

      
      <glyph glyph-name="uni0143" unicode="&#x0143;" d="M613 667L782 667L700 0L515 0L338 299Q298 365 256 464L256 434Q256 365 249 308L211 0L42 0L124 667L306 667L496 345L525 291L551 240L564 215Q566 278 572 329L613 667M473 898L638 898L506 727L393 727L473 898Z"  horiz-adv-x="798" vert-adv-y="1000"  />

      
      <glyph glyph-name="uni0144" unicode="&#x0144;" d="M87 447L252 447L238 389Q284 429 319 444.50Q354 460 400 460Q468 460 504.50 425Q541 390 541 324Q541 290 536 251L505 0L340 0L365 197Q369 232 369 252Q369 323 309 323Q269 323 249.50 296Q230 269 222 202L197 0L32 0L87 447M363 698L528 698L396 527L283 527L363 698Z"  horiz-adv-x="593" vert-adv-y="1000"  />

      
      <glyph glyph-name="uni0145" unicode="&#x0145;" d="M613 667L782 667L700 0L515 0L338 299Q298 365 256 464L256 434Q256 365 249 308L211 0L42 0L124 667L306 667L496 345L525 291L551 240L564 215Q566 278 572 329L613 667M290-50L440-66L320-260L220-248L290-50Z"  horiz-adv-x="798" vert-adv-y="1000"  />

      
      <glyph glyph-name="uni0146" unicode="&#x0146;" d="M87 447L252 447L238 389Q284 429 319 444.50Q354 460 400 460Q468 460 504.50 425Q541 390 541 324Q541 290 536 251L505 0L340 0L365 197Q369 232 369 252Q369 323 309 323Q269 323 249.50 296Q230 269 222 202L197 0L32 0L87 447M210-50L360-66L240-250L140-238L210-50Z"  horiz-adv-x="593" vert-adv-y="1000"  />

      
      <glyph glyph-name="uni0147" unicode="&#x0147;" d="M613 667L782 667L700 0L515 0L338 299Q298 365 256 464L256 434Q256 365 249 308L211 0L42 0L124 667L306 667L496 345L525 291L551 240L564 215Q566 278 572 329L613 667M374 902L462 836L568 902L635 830L451 711L294 833L374 902Z"  horiz-adv-x="798" vert-adv-y="1000"  />

      
      <glyph glyph-name="uni0148" unicode="&#x0148;" d="M87 447L252 447L238 389Q284 429 319 444.50Q354 460 400 460Q468 460 504.50 425Q541 390 541 324Q541 290 536 251L505 0L340 0L365 197Q369 232 369 252Q369 323 309 323Q269 323 249.50 296Q230 269 222 202L197 0L32 0L87 447M278 699L354 626L457 701L523 629L340 499L196 632L278 699Z"  horiz-adv-x="593" vert-adv-y="1000"  />

      
      <glyph glyph-name="uni014C" unicode="&#x014C;" d="M429 680Q581 680 676.50 594.50Q772 509 778 367L778 354Q778 190 678 88.50Q578-13 416-13Q253-13 152.50 80Q52 173 52 324Q52 481 157.50 580.50Q263 680 429 680M605 336Q605 344 604 348Q600 427 550.50 473.50Q501 520 422 520Q336 520 280.50 466Q225 412 225 330Q225 248 276.50 197.50Q328 147 412 147Q498 147 551.50 199.50Q605 252 605 336M234 749L246 847L622 847L610 749L234 749Z"  horiz-adv-x="805" vert-adv-y="1000"  />

      
      <glyph glyph-name="uni014D" unicode="&#x014D;" d="M308 460Q426 460 496.50 397.50Q567 335 567 231Q567 123 493.50 55Q420-13 303-13Q183-13 109 51.50Q35 116 35 222Q35 326 111.50 393Q188 460 308 460M294 116Q340 116 369.50 150Q399 184 399 237Q399 280 375 305Q351 330 310 330Q264 330 233.50 295.50Q203 261 203 210Q203 167 228 141.50Q253 116 294 116M123 539L135 637L531 637L519 539L123 539Z"  horiz-adv-x="603" vert-adv-y="1000"  />

      
      <glyph glyph-name="uni014E" unicode="&#x014E;" d="M429 680Q581 680 676.50 594.50Q772 509 778 367L778 354Q778 190 678 88.50Q578-13 416-13Q253-13 152.50 80Q52 173 52 324Q52 481 157.50 580.50Q263 680 429 680M605 336Q605 344 604 348Q600 427 550.50 473.50Q501 520 422 520Q336 520 280.50 466Q225 412 225 330Q225 248 276.50 197.50Q328 147 412 147Q498 147 551.50 199.50Q605 252 605 336M271 861Q271 863 271.50 869.50Q272 876 272 881L371 881Q375 819 436 819Q496 819 517 881L619 881Q606 807 558.50 767Q511 727 435 727Q363 727 317 764.50Q271 802 271 861Z"  horiz-adv-x="805" vert-adv-y="1000"  />

      
      <glyph glyph-name="uni014F" unicode="&#x014F;" d="M308 460Q426 460 496.50 397.50Q567 335 567 231Q567 123 493.50 55Q420-13 303-13Q183-13 109 51.50Q35 116 35 222Q35 326 111.50 393Q188 460 308 460M294 116Q340 116 369.50 150Q399 184 399 237Q399 280 375 305Q351 330 310 330Q264 330 233.50 295.50Q203 261 203 210Q203 167 228 141.50Q253 116 294 116M161 661Q161 663 161.50 669.50Q162 676 162 681L261 681Q265 619 326 619Q386 619 407 681L509 681Q496 607 448.50 567Q401 527 325 527Q253 527 207 564.50Q161 602 161 661Z"  horiz-adv-x="603" vert-adv-y="1000"  />

      
      <glyph glyph-name="uni0150" unicode="&#x0150;" d="M429 680Q581 680 676.50 594.50Q772 509 778 367L778 354Q778 190 678 88.50Q578-13 416-13Q253-13 152.50 80Q52 173 52 324Q52 481 157.50 580.50Q263 680 429 680M605 336Q605 344 604 348Q600 427 550.50 473.50Q501 520 422 520Q336 520 280.50 466Q225 412 225 330Q225 248 276.50 197.50Q328 147 412 147Q498 147 551.50 199.50Q605 252 605 336M340 898L491 898L374 727L274 727L340 898M540 898L691 898L574 727L475 727L540 898Z"  horiz-adv-x="805" vert-adv-y="1000"  />

      
      <glyph glyph-name="uni0151" unicode="&#x0151;" d="M308 460Q426 460 496.50 397.50Q567 335 567 231Q567 123 493.50 55Q420-13 303-13Q183-13 109 51.50Q35 116 35 222Q35 326 111.50 393Q188 460 308 460M294 116Q340 116 369.50 150Q399 184 399 237Q399 280 375 305Q351 330 310 330Q264 330 233.50 295.50Q203 261 203 210Q203 167 228 141.50Q253 116 294 116M228 698L379 698L262 527L162 527L228 698M428 698L579 698L462 527L363 527L428 698Z"  horiz-adv-x="603" vert-adv-y="1000"  />

      
      <glyph glyph-name="uni0152" unicode="&#x0152;" d="M637 667L999 667L981 520L774 520L760 405L946 405L928 259L742 259L728 147L935 147L917 0L561 0L570 75Q479-13 361-13Q226-13 138.50 81.50Q51 176 51 321Q51 475 149 577.50Q247 680 395 680Q486 680 556 634Q579 619 592 605.50Q605 592 625 564L637 667M275 195Q275 195 300.50 171Q326 147 409 147Q492 147 542.50 197.50Q593 248 593 331Q593 415 543.50 467.50Q494 520 415 520Q333 520 278.50 463Q224 406 224 321Q224 243 275 195Z"  horiz-adv-x="985" vert-adv-y="1000"  />

      
      <glyph glyph-name="uni0153" unicode="&#x0153;" d="M872 192L547 192Q552 145 573.50 123.50Q595 102 639 102Q688 102 710 136L862 136Q840 89 827.50 70.50Q815 52 793 33Q743-13 643-13Q570-13 513 12Q479 27 447 60Q403 20 360 3.50Q317-13 261-13Q159-13 97 50Q35 113 35 217Q35 326 103.50 393Q172 460 284 460Q340 460 380.50 444.50Q421 429 460 393Q543 460 643 460Q692 460 738 444Q784 428 813 401Q873 342 873 226Q873 224 872.50 212Q872 200 872 192M292 116Q338 116 367.50 150Q397 184 397 237Q397 280 373 305Q349 330 309 330Q264 330 233.50 295.50Q203 261 203 210Q203 167 227.50 141.50Q252 116 292 116M651 356Q577 356 563 285L733 285Q725 323 706 339.50Q687 356 651 356Z"  horiz-adv-x="908" vert-adv-y="1000"  />

      
      <glyph glyph-name="uni0154" unicode="&#x0154;" d="M523 312Q493 279 435 259L591 0L395 0L243 265L211 0L42 0L124 667L341 667Q471 667 526 609Q577 555 577 460Q577 369 523 312M308 533L276 533L255 362L285 362Q403 362 403 455Q403 499 382 516Q361 533 308 533M363 898L528 898L396 727L283 727L363 898Z"  horiz-adv-x="620" vert-adv-y="1000"  />

      
      <glyph glyph-name="uni0155" unicode="&#x0155;" d="M87 447L252 447L239 386Q278 421 309.50 434Q341 447 388 447Q392 447 420 445L402 293Q365 313 327 313Q276 313 252.50 285.50Q229 258 220 190L197 0L32 0L87 447M278 698L443 698L311 527L198 527L278 698Z"  horiz-adv-x="407" vert-adv-y="1000"  />

      
      <glyph glyph-name="uni0156" unicode="&#x0156;" d="M523 312Q493 279 435 259L591 0L395 0L243 265L211 0L42 0L124 667L341 667Q471 667 526 609Q577 555 577 460Q577 369 523 312M308 533L276 533L255 362L285 362Q403 362 403 455Q403 499 382 516Q361 533 308 533M230-50L380-66L260-260L160-248L230-50Z"  horiz-adv-x="620" vert-adv-y="1000"  />

      
      <glyph glyph-name="uni0157" unicode="&#x0157;" d="M87 447L252 447L239 386Q278 421 309.50 434Q341 447 388 447Q392 447 420 445L402 293Q365 313 327 313Q276 313 252.50 285.50Q229 258 220 190L197 0L32 0L87 447M140-50L290-66L170-250L70-238L140-50Z"  horiz-adv-x="407" vert-adv-y="1000"  />

      
      <glyph glyph-name="uni0158" unicode="&#x0158;" d="M523 312Q493 279 435 259L591 0L395 0L243 265L211 0L42 0L124 667L341 667Q471 667 526 609Q577 555 577 460Q577 369 523 312M308 533L276 533L255 362L285 362Q403 362 403 455Q403 499 382 516Q361 533 308 533M269 902L357 836L463 902L530 830L346 711L189 833L269 902Z"  horiz-adv-x="620" vert-adv-y="1000"  />

      
      <glyph glyph-name="uni0159" unicode="&#x0159;" d="M87 447L252 447L239 386Q278 421 309.50 434Q341 447 388 447Q392 447 420 445L402 293Q365 313 327 313Q276 313 252.50 285.50Q229 258 220 190L197 0L32 0L87 447M198 699L274 626L377 701L443 629L260 499L116 632L198 699Z"  horiz-adv-x="407" vert-adv-y="1000"  />

      
      <glyph glyph-name="uni015A" unicode="&#x015A;" d="M335 680Q435 680 529 619L455 491Q390 540 338 540Q303 540 283 524.50Q263 509 263 482Q263 458 280 442Q297 426 348 402Q431 363 463.50 322Q496 281 496 215Q496 115 424.50 51Q353-13 241-13Q181-13 132 3Q83 19 16 60L92 188Q172 133 233 133Q273 133 297.50 151.50Q322 170 322 201Q322 223 306.50 238.50Q291 254 244 277Q155 322 122.50 362.50Q90 403 90 470Q90 561 159.50 620.50Q229 680 335 680M358 898L523 898L391 727L278 727L358 898Z"  horiz-adv-x="529" vert-adv-y="1000"  />

      
      </font>
</defs>
</svg>
