<?xml version="1.0" standalone="no"?>
  <!DOCTYPE svg PUBLIC "-//W3C//DTD SVG 1.1//EN" "http://www.w3.org/Graphics/SVG/1.1/DTD/svg11.dtd" >
  <svg>
  <metadata>
  Created by font-carrier
  </metadata>
  <defs>
  <font id="FuturaPTCond-MediumObl" horiz-adv-x="1000" vert-adv-y="1000" >
    <font-face
      
      font-family="Futura PT Cond Medium Italic"
      
      font-weight="400"
      
      font-stretch="normal"
      
      units-per-em="1000"
      
      ascent="982"
      
      descent="-300"
      
    />
      <missing-glyph />

      

      
      <glyph glyph-name="uni21" unicode="&#x21;" d="M218 667L158 180L72 180L132 667L218 667M152 53Q152 29 134 11Q116-7 92-7Q73-7 59.50 6.50Q46 20 46 40Q46 64 64 82Q82 100 106 100Q125 100 138.50 86.50Q152 73 152 53Z"  horiz-adv-x="243" vert-adv-y="1000"  />

      
      <glyph glyph-name="uni22" unicode="&#x22;" d="M332 667L318 399L259 399L244 667L332 667M184 667L170 399L111 399L96 667L184 667Z"  horiz-adv-x="339" vert-adv-y="1000"  />

      
      <glyph glyph-name="uni23" unicode="&#x23;" d="M611 476L591 403L483 403L448 276L557 276L537 204L428 204L372 0L290 0L346 204L218 204L161 0L80 0L137 204L26 204L46 276L157 276L192 403L82 403L102 476L212 476L265 667L346 667L293 476L421 476L474 667L556 667L503 476L611 476M401 403L273 403L238 276L367 276L401 403Z"  horiz-adv-x="600" vert-adv-y="1000"  />

      
      <glyph glyph-name="uni24" unicode="&#x24;" d="M380 575L308 542Q302 604 240 604Q197 604 175.50 570Q154 536 154 491Q154 459 176.50 431Q199 403 227 386Q255 369 286 343.50Q317 318 329 292Q342 265 342 225Q342 116 290 50Q257 8 192-7L182-91L122-91L132-7Q86-1 62 22.50Q38 46 27 97L103 132Q110 100 125 86.50Q140 73 171 73Q215 73 235 110.50Q255 148 255 196Q255 229 243 248Q229 272 181 300Q122 335 96 371Q70 407 70 470Q70 548 108.50 609Q147 670 216 675L225 751L285 751L276 675Q366 664 380 575Z"  horiz-adv-x="380" vert-adv-y="1000"  />

      
      <glyph glyph-name="uni25" unicode="&#x25;" d="M234 557Q226 329 114 329Q37 329 37 434Q37 671 156 671Q234 671 234 557M461 667L90 0L36 0L407 667L461 667M177 559Q177 618 150 618Q124 618 112 571Q95 492 95 432Q95 382 122 382Q132 382 139.50 389Q147 396 152.50 410Q158 424 162 437Q166 450 168.50 471Q171 492 172.50 503.50Q174 515 175.50 535.50Q177 556 177 559M403 225Q403 284 376 284Q350 284 338 237Q321 158 321 98Q321 48 348 48Q358 48 365.50 55Q373 62 378.50 76Q384 90 388 103Q392 116 394.50 137Q397 158 398.50 169.50Q400 181 401.50 201.50Q403 222 403 225M460 223Q452-5 340-5Q263-5 263 100Q263 337 382 337Q460 337 460 223Z"  horiz-adv-x="470" vert-adv-y="1000"  />

      
      <glyph glyph-name="uni26" unicode="&#x26;" d="M396 0L307 0L282 52Q261 28 233 13Q202-4 165-4Q106-4 71 34Q29 78 29 147Q29 208 67 267Q99 317 155 360Q142 384 131 418Q118 461 118 499Q118 582 162 629Q203 675 265 675Q313 675 343 645Q373 614 373 562Q373 501 338 445Q305 391 245 347L316 178Q352 215 380 256L420 199Q391 159 345 113L396 0M219 408Q251 435 275 474Q300 516 300 555Q300 582 290 594Q280 607 261 607Q238 607 221 588Q197 562 197 513Q197 468 219 408M253 113L182 292Q147 262 132 230Q113 192 113 153Q113 118 129 97Q148 71 179 71Q218 71 253 113Z"  horiz-adv-x="442" vert-adv-y="1000"  />

      
      <glyph glyph-name="uni27" unicode="&#x27;" d="M184 667L170 399L111 399L96 667L184 667Z"  horiz-adv-x="191" vert-adv-y="1000"  />

      
      <glyph glyph-name="uni28" unicode="&#x28;" d="M200 740L284 719Q139 400 139 120Q139 6 174-171L85-194Q46-18 46 109Q46 416 200 740Z"  horiz-adv-x="263" vert-adv-y="1000"  />

      
      <glyph glyph-name="uni29" unicode="&#x29;" d="M100 717L189 740Q228 565 228 441Q228 292 187 124Q146-44 74-194L-10-173Q61-10 98 133.50Q135 277 135 431Q135 542 100 717Z"  horiz-adv-x="263" vert-adv-y="1000"  />

      
      <glyph glyph-name="uni2a" unicode="&#x2a;" d="M391 605L281 580L340 493L285 459L238 548L167 458L121 496L201 579L98 604L122 663L218 625L228 734L290 728L270 624L371 665L391 605Z"  horiz-adv-x="389" vert-adv-y="1000"  />

      
      <glyph glyph-name="uni2b" unicode="&#x2b;" d="M480 297L303 297L303 128L223 128L223 297L46 297L46 371L223 371L223 540L303 540L303 371L480 371L480 297Z"  horiz-adv-x="500" vert-adv-y="1000"  />

      
      <glyph glyph-name="uni2c" unicode="&#x2c;" d="M114 72L10-143L-33-130L46 93L114 72Z"  horiz-adv-x="175" vert-adv-y="1000"  />

      
      <glyph glyph-name="uni2d" unicode="&#x2d;" d="M213 295L204 217L49 217L58 295L213 295Z"  horiz-adv-x="255" vert-adv-y="1000"  />

      
      <glyph glyph-name="uni2e" unicode="&#x2e;" d="M123 53Q123 29 105 11Q87-7 63-7Q44-7 30.50 6.50Q17 20 17 40Q17 64 34.50 82Q52 100 76 100Q96 100 109.50 86.50Q123 73 123 53Z"  horiz-adv-x="184" vert-adv-y="1000"  />

      
      <glyph glyph-name="uni2f" unicode="&#x2f;" d="M478 729L-23-183L-93-183L410 729L478 729Z"  horiz-adv-x="390" vert-adv-y="1000"  />

      
      <glyph glyph-name="uni30" unicode="&#x30;" d="M364 497Q364 326 327 179Q280-8 163-8Q43-8 43 167Q43 322 81 487Q125 675 245 675Q364 675 364 497M276 509Q276 595 234 595Q189 595 165 475Q129 297 129 158Q129 70 171 70Q216 70 240 189Q276 371 276 509Z"  horiz-adv-x="380" vert-adv-y="1000"  />

      
      <glyph glyph-name="uni31" unicode="&#x31;" d="M292 667L210 0L125 0L198 590L133 590L142 667L292 667Z"  horiz-adv-x="380" vert-adv-y="1000"  />

      
      <glyph glyph-name="uni32" unicode="&#x32;" d="M166 450L79 450Q83 491 87.50 518Q92 545 103.50 577.50Q115 610 132 629Q149 648 179 661.50Q209 675 249 675Q314 675 344.50 643.50Q375 612 375 546Q375 420 226 194Q163 99 150 77L313 77L304 0L15 0Q37 38 79 108.50Q121 179 132 197Q138 207 157.50 239.50Q177 272 186 287.50Q195 303 210 330Q225 357 236.50 379.50Q248 402 258 425Q286 488 286 534Q286 597 237 597Q217 597 203 581.50Q189 566 185 552Q181 538 176 514Q173 496 166 450Z"  horiz-adv-x="380" vert-adv-y="1000"  />

      
      <glyph glyph-name="uni33" unicode="&#x33;" d="M174 488L90 488L92 504Q102 586 135.50 630.50Q169 675 244 675Q364 675 364 555Q364 488 347 431Q336 395 319.50 376Q303 357 269 344Q305 332 319.50 308.50Q334 285 334 246Q334 156 307 89Q266-8 151-8Q89-8 62 24Q35 56 35 119Q35 135 39 167L122 167Q122 163 120 151Q118 139 118 132Q118 71 166 71Q187 71 204 85Q224 102 234 150.50Q244 199 244 238Q244 310 177 310Q170 310 154 308L163 386L177 386Q225 386 247 408Q280 441 280 532Q280 597 238 597Q183 597 174 488Z"  horiz-adv-x="380" vert-adv-y="1000"  />

      
      <glyph glyph-name="uni34" unicode="&#x34;" d="M352 667L300 237L342 237L333 169L291 169L270 0L188 0L209 169L29 169L39 245L270 667L352 667M253 521L103 237L216 237L253 521Z"  horiz-adv-x="380" vert-adv-y="1000"  />

      
      <glyph glyph-name="uni35" unicode="&#x35;" d="M379 667L369 589L228 589L186 422Q337 422 337 273Q337 205 315.50 143Q294 81 243.50 36.50Q193-8 123-8Q76-8 22 20L54 99Q95 75 127 75Q165 75 192.50 106Q220 137 230.50 175Q241 213 241 250Q241 351 147 351Q121 351 92 343L170 667L379 667Z"  horiz-adv-x="380" vert-adv-y="1000"  />

      
      <glyph glyph-name="uni36" unicode="&#x36;" d="M236 667L330 667Q321 650 253 538Q214 473 167 380Q205 410 242 410Q289 410 311.50 374.50Q334 339 334 289Q334 181 311 107Q275-8 163-8Q43-8 43 132Q43 209 56.50 277.50Q70 346 101 416.50Q132 487 159 535.50Q186 584 236 667M247 260Q247 281 245 293.50Q243 306 232.50 317Q222 328 202 328Q174 328 158 298Q130 242 130 143Q130 70 172 70Q195 70 211.50 92Q228 114 235 148.50Q242 183 244.50 210Q247 237 247 260Z"  horiz-adv-x="380" vert-adv-y="1000"  />

      
      <glyph glyph-name="uni37" unicode="&#x37;" d="M400 667L119 0L24 0L280 591L97 591L106 667L400 667Z"  horiz-adv-x="380" vert-adv-y="1000"  />

      
      <glyph glyph-name="uni38" unicode="&#x38;" d="M364 552Q364 457 328 405Q308 376 272 362Q307 348 320 323.50Q333 299 333 259Q333 167 308 98Q270-8 161-8Q41-8 41 129Q41 269 89 328Q106 349 143 362Q109 377 98 401.50Q87 426 87 468Q87 536 108 588Q127 636 161.50 655.50Q196 675 251 675Q311 675 337.50 644Q364 613 364 552M275 534Q275 597 236 597Q212 597 197 571.50Q182 546 178 520.50Q174 495 174 470Q174 401 212 401Q245 401 260 446Q275 491 275 534M244 245Q244 313 199 313Q178 313 162.50 293Q147 273 140.50 242.50Q134 212 131 186.50Q128 161 128 140Q128 71 171 71Q194 71 210 90.50Q226 110 232.50 141.50Q239 173 241.50 197Q244 221 244 245Z"  horiz-adv-x="380" vert-adv-y="1000"  />

      
      <glyph glyph-name="uni39" unicode="&#x39;" d="M167 0L73 0L156 135Q199 205 238 280Q211 253 173 253Q136 253 110 281Q72 322 72 404Q72 463 89.50 531.50Q107 600 143 636Q182 675 246 675Q299 675 326 649Q364 614 364 534Q364 443 346 368Q322 265 276 186L167 0M159 405Q159 361 175 344Q186 333 202 333Q222 333 236 346Q255 363 266.50 414.50Q278 466 278 512Q278 561 265 578Q254 593 235 593Q215 593 199 576Q178 554 168.50 503Q159 452 159 405Z"  horiz-adv-x="380" vert-adv-y="1000"  />

      
      <glyph glyph-name="uni3a" unicode="&#x3a;" d="M166 406Q166 382 148 364.50Q130 347 106 347Q86 347 73 360.50Q60 374 60 393Q60 417 78 435Q96 453 120 453Q139 453 152.50 439.50Q166 426 166 406M123 53Q123 29 105 11Q87-7 63-7Q44-7 30.50 6.50Q17 20 17 40Q17 64 34.50 82Q52 100 76 100Q96 100 109.50 86.50Q123 73 123 53Z"  horiz-adv-x="184" vert-adv-y="1000"  />

      
      <glyph glyph-name="uni3b" unicode="&#x3b;" d="M159 406Q159 382 141 364.50Q123 347 99 347Q80 347 66.50 360.50Q53 374 53 393Q53 417 71 435Q89 453 113 453Q132 453 145.50 439.50Q159 426 159 406M114 72L10-143L-33-130L46 93L114 72Z"  horiz-adv-x="175" vert-adv-y="1000"  />

      
      <glyph glyph-name="uni3c" unicode="&#x3c;" d="M467 91L33 296L33 365L467 570L467 491L119 330L466 170L467 91Z"  horiz-adv-x="500" vert-adv-y="1000"  />

      
      <glyph glyph-name="uni3d" unicode="&#x3d;" d="M481 384L47 384L47 454L481 454L481 384M481 229L47 229L47 299L481 299L481 229Z"  horiz-adv-x="500" vert-adv-y="1000"  />

      
      <glyph glyph-name="uni3e" unicode="&#x3e;" d="M492 296L59 91L59 171L406 331L59 491L59 570L492 365L492 296Z"  horiz-adv-x="500" vert-adv-y="1000"  />

      
      <glyph glyph-name="uni3f" unicode="&#x3f;" d="M151 502L73 502Q77 537 81 558.50Q85 580 94.50 604.50Q104 629 118.50 643Q133 657 158 666Q183 675 217 675Q273 675 296.50 644Q320 613 320 555Q320 400 275 334Q261 313 245 305.50Q229 298 202 297L188 180L111 180L133 356Q136 356 142 355.50Q148 355 151 355Q178 355 193.50 364.50Q209 374 218 399Q238 452 238 541Q238 602 201 602Q189 602 180 595.50Q171 589 166 574.50Q161 560 158.50 551.50Q156 543 153.50 523Q151 503 151 502M186 53Q186 29 168 11Q150-7 126-7Q107-7 93.50 6.50Q80 20 80 40Q80 64 97.50 82Q115 100 139 100Q159 100 172.50 86.50Q186 73 186 53Z"  horiz-adv-x="324" vert-adv-y="1000"  />

      
      <glyph glyph-name="uni40" unicode="&#x40;" d="M577 84L586 32Q480-13 361-13Q219-13 131 67.50Q43 148 43 288Q43 446 160.50 561Q278 676 436 676Q556 676 636.50 606Q717 536 717 418Q717 336 677 264Q650 216 609.50 181Q569 146 522 146Q492 146 474 163.50Q456 181 457 211Q404 141 324 141Q267 141 234.50 180Q202 219 202 277Q202 361 261.50 432Q321 503 403 503Q485 503 503 431L522 491L579 491L514 284Q501 248 501 231Q501 194 532 194Q561 194 597 230Q628 262 646.50 313Q665 364 665 411Q665 511 598.50 567.50Q532 624 431 624Q296 624 197.50 525Q99 426 99 291Q99 173 172 106.50Q245 40 364 40Q482 40 577 84M475 368Q475 401 456 422.50Q437 444 404 444Q347 444 307 393.50Q267 343 267 285Q267 246 286.50 222.50Q306 199 344 199Q401 199 438 254Q475 309 475 368Z"  horiz-adv-x="733" vert-adv-y="1000"  />

      
      <glyph glyph-name="uni41" unicode="&#x41;" d="M326 0L238 0L230 130L99 130L59 0L-27 0L198 667L267 667L326 0M120 199L225 199Q215 375 215 463Q215 512 216 537Q212 521 204.50 490.50Q197 460 193 444Q172 361 120 199Z"  horiz-adv-x="355" vert-adv-y="1000"  />

      
      <glyph glyph-name="uni42" unicode="&#x42;" d="M104 667L224 667Q346 667 346 538Q346 433 306 380Q285 353 242 339Q287 320 302.50 295Q318 270 318 220Q318 116 267 53Q224 0 138 0L23 0L104 667M152 373L158 373Q201 373 224 396Q242 414 250.50 450Q259 486 259 518Q259 594 194 594L179 594L152 373M143 302L115 77Q135 77 146 78Q157 79 171.50 85.50Q186 92 197 105Q227 142 227 221Q227 266 208 284Q189 302 143 302Z"  horiz-adv-x="358" vert-adv-y="1000"  />

      
      <glyph glyph-name="uni43" unicode="&#x43;" d="M360 656L351 575Q322 592 296 592Q219 592 180 495Q160 446 148.50 371.50Q137 297 137 236Q137 79 238 79Q266 79 291 92L281 10Q249-9 208-9Q42-9 42 216Q42 386 95 522Q122 591 170.50 633Q219 675 288 675Q330 675 360 656Z"  horiz-adv-x="332" vert-adv-y="1000"  />

      
      <glyph glyph-name="uni44" unicode="&#x44;" d="M104 667L213 667Q276 667 307 651Q389 609 389 457Q389 375 373 275.50Q357 176 328 116Q289 39 220 15Q177 0 94 0L23 0L104 667M121 78L124 78Q163 78 189.50 89.50Q216 101 237 131Q266 172 281 276Q296 380 296 458Q296 528 273.50 559.50Q251 591 184 591L121 78Z"  horiz-adv-x="405" vert-adv-y="1000"  />

      
      <glyph glyph-name="uni45" unicode="&#x45;" d="M339 667L330 591L184 591L158 379L288 379L278 303L148 303L121 76L267 76L258 0L23 0L104 667L339 667Z"  horiz-adv-x="316" vert-adv-y="1000"  />

      
      <glyph glyph-name="uni46" unicode="&#x46;" d="M341 667L331 591L184 591L158 380L291 380L282 304L149 304L111 0L23 0L104 667L341 667Z"  horiz-adv-x="305" vert-adv-y="1000"  />

      
      <glyph glyph-name="uni47" unicode="&#x47;" d="M402 539L315 504Q313 532 309.50 548.50Q306 565 291.50 580.50Q277 596 251 596Q221 596 205 577.50Q189 559 178 526Q157 465 143.50 358.50Q130 252 130 176Q130 152 131 139.50Q132 127 137.50 109.50Q143 92 156 83.50Q169 75 191 75Q256 75 276 181Q285 220 290 275L214 275L223 351L384 351Q383 344 379.50 310Q376 276 374.50 263Q373 250 367.50 216.50Q362 183 357.50 167.50Q353 152 344 123Q335 94 325 79.50Q315 65 300.50 45Q286 25 269 15.50Q252 6 229.50-1.50Q207-9 181-9Q137-9 107.50 7Q78 23 64 53.50Q50 84 45 115.50Q40 147 40 190Q40 307 68 445Q76 485 83.50 513Q91 541 106.50 574Q122 607 141.50 627.50Q161 648 192 661.50Q223 675 263 675Q329 675 360.50 641Q392 607 402 539Z"  horiz-adv-x="406" vert-adv-y="1000"  />

      
      <glyph glyph-name="uni48" unicode="&#x48;" d="M411 667L329 0L241 0L281 330L152 330L111 0L23 0L104 667L193 667L161 406L290 406L322 667L411 667Z"  horiz-adv-x="408" vert-adv-y="1000"  />

      
      <glyph glyph-name="uni49" unicode="&#x49;" d="M193 667L111 0L23 0L104 667L193 667Z"  horiz-adv-x="190" vert-adv-y="1000"  />

      
      <glyph glyph-name="uni4a" unicode="&#x4a;" d="M258 667L195 155Q187 96 175 69Q158 31 123 11Q88-9 44-9Q1-9-29 9L-18 99Q18 76 38 76Q59 76 73 84.50Q87 93 93.50 108.50Q100 124 103.50 139.50Q107 155 109 175Q110 182 110 186L169 667L258 667Z"  horiz-adv-x="255" vert-adv-y="1000"  />

      
      <glyph glyph-name="uni4b" unicode="&#x4b;" d="M405 667L231 342L326 0L234 0L150 327L111 0L23 0L104 667L193 667L155 361L313 667L405 667Z"  horiz-adv-x="366" vert-adv-y="1000"  />

      
      <glyph glyph-name="uni4c" unicode="&#x4c;" d="M265 76L256 0L23 0L104 667L193 667L121 76L265 76Z"  horiz-adv-x="288" vert-adv-y="1000"  />

      
      <glyph glyph-name="uni4d" unicode="&#x4d;" d="M468 667L446 0L361 0Q373 217 378 277Q380 292 382.50 321.50Q385 351 386 366Q394 441 394 451L394 459L370 375L352 314Q341 278 254 0L194 0Q165 341 165 459L83 0L0 0L136 667L211 667Q213 642 220 574Q227 506 230 471.50Q233 437 237 381.50Q241 326 243 278.50Q245 231 245 185Q247 198 271 279Q275 291 281.50 315.50Q288 340 291 352Q293 360 298.50 375.50Q304 391 307 399L391 667L468 667Z"  horiz-adv-x="497" vert-adv-y="1000"  />

      
      <glyph glyph-name="uni4e" unicode="&#x4e;" d="M410 667L329 0L246 0L184 300Q171 361 164 413Q161 431 158.50 465.50Q156 500 154 513L154 497Q154 468 150 412Q142 297 110 0L23 0L104 667L187 667L242 400Q270 262 280 160L280 270Q280 328 291 418L322 667L410 667Z"  horiz-adv-x="407" vert-adv-y="1000"  />

      
      <glyph glyph-name="uni4f" unicode="&#x4f;" d="M403 489Q403 313 362 166Q339 85 298 38Q257-9 182-9Q41-9 41 171Q41 337 73 476Q93 566 136 620.50Q179 675 261 675Q403 675 403 489M311 495Q311 513 310.50 522.50Q310 532 307 548Q304 564 298.50 572.50Q293 581 281 587.50Q269 594 252 594Q201 594 178 528Q171 509 166 490Q161 471 156.50 444.50Q152 418 150.50 407.50Q149 397 145 361.50Q141 326 141 322Q130 232 130 175Q130 74 189 74Q224 74 241.50 97Q259 120 270 161Q287 228 298 325Q311 429 311 495Z"  horiz-adv-x="416" vert-adv-y="1000"  />

      
      <glyph glyph-name="uni50" unicode="&#x50;" d="M104 667L221 667Q297 667 329.50 634.50Q362 602 362 526Q362 467 343 410.50Q324 354 283 326Q240 296 147 296L111 0L23 0L104 667M157 373L165 373Q268 373 268 506Q268 548 252 569.50Q236 591 196 591L184 591L157 373Z"  horiz-adv-x="345" vert-adv-y="1000"  />

      
      <glyph glyph-name="uni51" unicode="&#x51;" d="M307-51L271 15Q227-9 182-9Q41-9 41 179Q41 340 72 477Q92 567 135 621Q178 675 259 675Q402 675 402 489Q402 317 363 165Q348 106 322 68L368-10L307-51M239 212L269 159Q287 226 298 326Q311 445 311 492Q311 515 309.50 528Q308 541 303 559Q298 577 284.50 585.50Q271 594 250 594Q202 594 178 528Q158 472 144.50 362Q131 252 131 177Q131 156 132.50 142Q134 128 139.50 110.50Q145 93 158 84Q171 75 191 75Q210 75 227 87L181 169L239 212Z"  horiz-adv-x="416" vert-adv-y="1000"  />

      
      <glyph glyph-name="uni52" unicode="&#x52;" d="M104 667L221 667Q292 667 323 634Q354 601 354 529Q354 487 343.50 446Q333 405 303.50 368.50Q274 332 231 324L321 0L231 0L149 311L111 0L23 0L104 667M184 593L157 371Q201 371 223 387Q266 419 266 512Q266 555 252 574Q238 593 197 593L184 593Z"  horiz-adv-x="367" vert-adv-y="1000"  />

      
      <glyph glyph-name="uni53" unicode="&#x53;" d="M322 653L310 565Q278 595 242 595Q201 595 176 564Q151 533 151 491Q151 463 166 436Q181 409 202 385.50Q223 362 244 336.50Q265 311 280 275Q295 239 295 198Q295 116 247 53.50Q199-9 119-9Q64-9 26 23L37 112Q79 77 118 77Q160 77 184 109.50Q208 142 208 186Q208 217 193 245.50Q178 274 157 297Q136 320 114.50 344Q93 368 78 402Q63 436 63 475Q63 557 108.50 616Q154 675 234 675Q285 675 322 653Z"  horiz-adv-x="325" vert-adv-y="1000"  />

      
      <glyph glyph-name="uni54" unicode="&#x54;" d="M342 667L332 588L230 588L158 0L71 0L144 588L42 588L52 667L342 667Z"  horiz-adv-x="284" vert-adv-y="1000"  />

      
      <glyph glyph-name="uni55" unicode="&#x55;" d="M406 667L347 183Q335 86 298.50 38.50Q262-9 171-9Q40-9 40 116Q40 133 47 196L104 667L191 667L133 196Q128 161 128 134Q128 76 187 76Q204 76 217 82.50Q230 89 237 96.50Q244 104 249 120Q254 136 255.50 145.50Q257 155 259 175Q260 180 260 183L320 667L406 667Z"  horiz-adv-x="403" vert-adv-y="1000"  />

      
      <glyph glyph-name="uni56" unicode="&#x56;" d="M378 667L167 0L97 0L52 667L139 667Q154 309 154 165Q160 197 169 231Q178 265 191.50 309.50Q205 354 210 374Q233 457 295 667L378 667Z"  horiz-adv-x="322" vert-adv-y="1000"  />

      
      <glyph glyph-name="uni57" unicode="&#x57;" d="M569 667L371 0L302 0Q289 351 289 405Q289 435 291 495Q290 490 276.50 429.50Q263 369 255 338Q238 273 202.50 152.50Q167 32 158 0L87 0L55 667L141 667L147 357Q147 350 148 334Q149 318 149 311Q149 230 145 165L163 246Q180 319 197 378L280 667L348 667L357 387Q357 372 358 345.50Q359 319 359.50 297.50Q360 276 360 256Q360 228 358 170Q401 354 403 361L484 667L569 667Z"  horiz-adv-x="516" vert-adv-y="1000"  />

      
      <glyph glyph-name="uni58" unicode="&#x58;" d="M383 667L221 339L301 0L212 0Q208 18 198 60Q188 102 183 125.50Q178 149 172.50 184Q167 219 166 249Q161 228 127 146Q117 121 95.50 73Q74 25 64 0L-30 0L136 339L60 667L146 667Q150 651 164 594Q178 537 185 500Q192 463 194 426Q211 479 226 510Q227 513 230 519.50Q233 526 235 529L294 667L383 667Z"  horiz-adv-x="327" vert-adv-y="1000"  />

      
      <glyph glyph-name="uni59" unicode="&#x59;" d="M392 667L231 287L196 0L107 0L142 287L52 667L146 667L178 488Q185 448 193 358Q210 420 235 490L300 667L392 667Z"  horiz-adv-x="336" vert-adv-y="1000"  />

      
      <glyph glyph-name="uni5a" unicode="&#x5a;" d="M378 667L108 79L295 79L285 0L-17 0L255 591L79 591L88 667L378 667Z"  horiz-adv-x="329" vert-adv-y="1000"  />

      
      <glyph glyph-name="uni5b" unicode="&#x5b;" d="M336 729L327 653L208 653L114-107L233-107L224-183L15-183L128 729L336 729Z"  horiz-adv-x="307" vert-adv-y="1000"  />

      
      <glyph glyph-name="uni5c" unicode="&#x5c;" d="M65 729L133 729L524-183L454-183L65 729Z"  horiz-adv-x="531" vert-adv-y="1000"  />

      
      <glyph glyph-name="uni5d" unicode="&#x5d;" d="M304 729L191-183L-18-183L-8-107L111-107L205 653L85 653L95 729L304 729Z"  horiz-adv-x="307" vert-adv-y="1000"  />

      
      <glyph glyph-name="uni5e" unicode="&#x5e;" d="M494 359L407 359L266 603L125 359L39 359L214 667L319 667L494 359Z"  horiz-adv-x="500" vert-adv-y="1000"  />

      
      <glyph glyph-name="uni5f" unicode="&#x5f;" d="M472-134L-28-134L-28-64L472-64L472-134Z"  horiz-adv-x="500" vert-adv-y="1000"  />

      
      <glyph glyph-name="uni60" unicode="&#x60;" d="M339 539L296 513L197 620L257 664L339 539Z"  horiz-adv-x="500" vert-adv-y="1000"  />

      
      <glyph glyph-name="uni61" unicode="&#x61;" d="M324 447L269 0L188 0L195 57Q177 25 157.50 9Q138-7 106-7Q23-7 23 123Q23 168 27.50 214.50Q32 261 45 320.50Q58 380 88.50 417Q119 454 163 454Q214 454 237 396L243 447L324 447M224 309Q224 379 186 379Q142 379 124 294Q106 211 106 139Q106 67 147 67Q186 67 204 143Q224 226 224 309Z"  horiz-adv-x="343" vert-adv-y="1000"  />

      
      <glyph glyph-name="uni62" unicode="&#x62;" d="M189 729L148 396Q166 425 185 439.50Q204 454 234 454Q282 454 301.50 417Q321 380 321 327Q321 221 294 119Q261-7 180-7Q149-7 133 8.50Q117 24 106 57L99 0L18 0L108 729L189 729M236 308Q236 379 195 379Q157 379 138 304Q118 219 118 136Q118 67 157 67Q199 67 218 152Q236 235 236 308Z"  horiz-adv-x="343" vert-adv-y="1000"  />

      
      <glyph glyph-name="uni63" unicode="&#x63;" d="M252 438L241 354Q230 375 203 375Q175 375 156 351Q137 327 128.50 289.50Q120 252 117 222.50Q114 193 114 165Q114 147 115.50 134Q117 121 121.50 104.50Q126 88 137 79.50Q148 71 166 71Q187 71 209 88L199 11Q166-7 131-7Q73-7 48 35Q23 77 23 140Q23 248 55 341Q94 454 190 454Q223 454 252 438Z"  horiz-adv-x="249" vert-adv-y="1000"  />

      
      <glyph glyph-name="uni64" unicode="&#x64;" d="M359 729L269 0L188 0L195 57Q177 25 157.50 9Q138-7 106-7Q23-7 23 123Q23 158 25 193Q27 228 35.50 278Q44 328 58.50 364.50Q73 401 100 427.50Q127 454 164 454Q194 454 209.50 440Q225 426 237 396L277 729L359 729M224 309Q224 379 186 379Q142 379 124 294Q106 211 106 139Q106 67 147 67Q186 67 204 143Q224 226 224 309Z"  horiz-adv-x="342" vert-adv-y="1000"  />

      
      <glyph glyph-name="uni65" unicode="&#x65;" d="M206 151L282 151Q273 94 254 61Q236 29 204.50 11Q173-7 136-7Q23-7 23 141Q23 223 45 309Q83 454 190 454Q250 454 274.50 409Q299 364 299 299Q299 259 292 207L107 207Q103 167 103 148Q103 131 104 121Q105 111 108.50 95.50Q112 80 121.50 72Q131 64 146 64Q196 64 206 151M218 300L218 315Q218 384 180 384Q172 384 165.50 381.50Q159 379 153.50 373Q148 367 143.50 361.50Q139 356 135 346.50Q131 337 128.50 330.50Q126 324 123.50 312.50Q121 301 119.50 296Q118 291 116 280Q114 269 114 267L217 267Q218 278 218 300Z"  horiz-adv-x="321" vert-adv-y="1000"  />

      
      <glyph glyph-name="uni66" unicode="&#x66;" d="M272 728L261 641Q243 652 228 652Q214 652 205 647Q196 642 191.50 630Q187 618 185 610Q183 602 181.50 585.50Q180 569 179 564L164 447L233 447L225 381L156 381L109 0L28 0L75 381L34 381L42 447L83 447L102 601Q110 668 134 704Q158 740 218 740Q245 740 272 728Z"  horiz-adv-x="213" vert-adv-y="1000"  />

      
      <glyph glyph-name="uni67" unicode="&#x67;" d="M325 447L268-14Q260-84 245-116Q210-188 112-188Q58-188 28.50-160.50Q-1-133-1-79Q-1-63 2-47L81-47Q79-61 79-68Q79-91 91-105Q103-119 125-119Q143-119 155-111.50Q167-104 172.50-89Q178-74 180.50-62.50Q183-51 185-32L195 55Q162-7 108-7Q61-7 41.50 30.50Q22 68 22 121Q22 234 52 342Q85 454 164 454Q193 454 209 438.50Q225 423 237 393L243 447L325 447M223 301Q223 379 182 379Q159 379 143 349Q127 319 120 275Q113 231 110 197Q107 163 107 139Q107 67 149 67Q179 67 193 103Q206 134 214.50 196Q223 258 223 301Z"  horiz-adv-x="344" vert-adv-y="1000"  />

      
      <glyph glyph-name="uni68" unicode="&#x68;" d="M189 729L148 395Q189 454 245 454Q282 454 302 433Q322 412 322 375Q322 356 318 318L279 0L197 0L234 299Q234 303 235 310.50Q236 318 236.50 324Q237 330 237 335Q237 382 197 382Q179 382 167 374Q155 366 149 349.50Q143 333 140.50 321Q138 309 135 289L99 0L18 0L108 729L189 729Z"  horiz-adv-x="353" vert-adv-y="1000"  />

      
      <glyph glyph-name="uni69" unicode="&#x69;" d="M182 587Q182 562 163 543.50Q144 525 119 525Q99 525 85 539.50Q71 554 71 574Q71 599 90 618Q109 637 134 637Q155 637 168.50 622.50Q182 608 182 587M154 447L99 0L18 0L73 447L154 447Z"  horiz-adv-x="173" vert-adv-y="1000"  />

      
      <glyph glyph-name="uni6a" unicode="&#x6a;" d="M183 587Q183 562 164 543.50Q145 525 120 525Q100 525 86 539.50Q72 554 72 574Q72 599 91 618Q110 637 135 637Q156 637 169.50 622.50Q183 608 183 587M155 447L77-188L-5-188L74 447L155 447Z"  horiz-adv-x="174" vert-adv-y="1000"  />

      
      <glyph glyph-name="uni6b" unicode="&#x6b;" d="M349 447L207 240L309 0L217 0L127 222L99 0L18 0L108 729L189 729L131 256L255 447L349 447Z"  horiz-adv-x="341" vert-adv-y="1000"  />

      
      <glyph glyph-name="uni6c" unicode="&#x6c;" d="M188 729L99 0L18 0L107 729L188 729Z"  horiz-adv-x="172" vert-adv-y="1000"  />

      
      <glyph glyph-name="uni6d" unicode="&#x6d;" d="M154 447L147 392Q190 454 244 454Q306 454 319 392Q359 454 419 454Q457 454 480 434Q503 414 503 377Q503 363 502 356L458 0L377 0L413 294Q416 315 416 336Q416 379 379 379Q364 379 353.50 373.50Q343 368 337 361Q331 354 327 340.50Q323 327 321.50 319Q320 311 318 294L282 0L198 0L234 294Q237 316 237 338Q237 379 197 379Q179 379 167 372Q155 365 149 350Q143 335 141 324.50Q139 314 136 294L99 0L18 0L73 447L154 447Z"  horiz-adv-x="532" vert-adv-y="1000"  />

      
      <glyph glyph-name="uni6e" unicode="&#x6e;" d="M154 447L148 395Q189 454 245 454Q282 454 302 433Q322 412 322 375Q322 356 318 318L279 0L197 0L234 299Q234 303 235 310.50Q236 318 236.50 324Q237 330 237 335Q237 382 197 382Q179 382 167 374Q155 366 149 349.50Q143 333 140.50 321Q138 309 135 289L99 0L18 0L73 447L154 447Z"  horiz-adv-x="353" vert-adv-y="1000"  />

      
      <glyph glyph-name="uni6f" unicode="&#x6f;" d="M311 306Q311 267 307.50 230Q304 193 293 148Q282 103 264 70.50Q246 38 213.50 15.50Q181-7 138-7Q24-7 24 144Q24 194 30.50 241Q37 288 54 339.50Q71 391 107.50 422.50Q144 454 196 454Q311 454 311 306M228 314Q228 379 187 379Q164 379 149 356Q130 328 120 257.50Q110 187 110 135Q110 70 150 70Q173 70 189 94Q208 122 218 192.50Q228 263 228 314Z"  horiz-adv-x="336" vert-adv-y="1000"  />

      
      <glyph glyph-name="uni70" unicode="&#x70;" d="M155 447L148 389Q167 421 186.50 437.50Q206 454 237 454Q320 454 320 323Q320 277 315.50 231Q311 185 298 126Q285 67 254.50 30Q224-7 179-7Q150-7 133.50 7Q117 21 107 50L77-188L-5-188L74 447L155 447M237 307Q237 379 196 379Q157 379 139 304Q119 221 119 138Q119 67 158 67Q200 67 219 152Q237 244 237 307Z"  horiz-adv-x="344" vert-adv-y="1000"  />

      
      <glyph glyph-name="uni71" unicode="&#x71;" d="M324 447L245-188L163-188L194 50Q159-7 108-7Q22-7 22 119Q22 163 27 210.50Q32 258 45 318Q58 378 88.50 416Q119 454 162 454Q193 454 209 438Q225 422 236 389L243 447L324 447M224 309Q224 379 186 379Q166 379 152 363Q138 347 133.50 332Q129 317 124 294Q106 211 106 139Q106 67 147 67Q186 67 204 143Q224 226 224 309Z"  horiz-adv-x="343" vert-adv-y="1000"  />

      
      <glyph glyph-name="uni72" unicode="&#x72;" d="M251 457L240 371Q235 372 226 372Q179 372 159 346.50Q139 321 133 271L99 0L18 0L73 447L154 447L147 391Q171 424 192.50 439Q214 454 251 457Z"  horiz-adv-x="233" vert-adv-y="1000"  />

      
      <glyph glyph-name="uni73" unicode="&#x73;" d="M242 438L232 361Q203 383 173 383Q150 383 132 366.50Q114 350 114 327Q114 310 125.50 294Q137 278 153.50 264.50Q170 251 186.50 235.50Q203 220 214.50 197Q226 174 226 145Q226 81 185.50 37Q145-7 82-7Q44-7 13 14L23 94Q55 67 87 67Q116 67 133 85Q150 103 150 132Q150 154 132 175Q114 196 93 212Q72 228 54 255.50Q36 283 36 315Q36 375 74 416Q112 457 172 457Q210 457 242 438Z"  horiz-adv-x="256" vert-adv-y="1000"  />

      
      <glyph glyph-name="uni74" unicode="&#x74;" d="M208 447L200 383L156 383L109 0L28 0L75 383L30 383L38 447L83 447L98 574L179 574L164 447L208 447Z"  horiz-adv-x="193" vert-adv-y="1000"  />

      
      <glyph glyph-name="uni75" unicode="&#x75;" d="M335 447L302 179Q296 130 289.50 103Q283 76 267 46.50Q251 17 221 4.50Q191-8 144-8Q33-8 33 102Q33 118 37 152L73 447L154 447L121 179Q116 144 116 117Q116 92 126.50 81.50Q137 71 162 71Q182 71 194 84Q206 97 209.50 109.50Q213 122 216 145Q220 166 221 179L253 447L335 447Z"  horiz-adv-x="354" vert-adv-y="1000"  />

      
      <glyph glyph-name="uni76" unicode="&#x76;" d="M319 447L149 0L94 0L30 447L117 447Q137 261 137 168Q137 129 136 109Q166 223 240 447L319 447Z"  horiz-adv-x="295" vert-adv-y="1000"  />

      
      <glyph glyph-name="uni77" unicode="&#x77;" d="M462 447L304 0L248 0Q246 22 241.50 76Q237 130 234.50 169.50Q232 209 232 246Q232 288 235 328Q230 298 205 205Q202 196 142 0L86 0L33 447L120 447Q130 261 130 169Q130 140 128 126Q156 239 221 447L280 447Q282 419 284 364Q286 309 288 282Q293 209 293 195Q293 172 291 126Q299 164 311 209.50Q323 255 332 285.50Q341 316 358 370Q375 424 382 447L462 447Z"  horiz-adv-x="442" vert-adv-y="1000"  />

      
      <glyph glyph-name="uni78" unicode="&#x78;" d="M330 447L205 236L296 0L199 0Q198 4 185.50 39.50Q173 75 167.50 92.50Q162 110 155.50 137Q149 164 149 181Q143 158 131.50 132.50Q120 107 110.50 89.50Q101 72 84.50 43Q68 14 60 0L-25 0L114 236L30 447L126 447Q164 329 169 294Q180 324 244 447L330 447Z"  horiz-adv-x="327" vert-adv-y="1000"  />

      
      <glyph glyph-name="uni79" unicode="&#x79;" d="M346 447L87-188L2-188L98 36L31 447L123 447L149 135L263 447L346 447Z"  horiz-adv-x="322" vert-adv-y="1000"  />

      
      <glyph glyph-name="uni7a" unicode="&#x7a;" d="M307 447L115 75L254 75L245 0L-15 0L183 374L43 374L52 447L307 447Z"  horiz-adv-x="294" vert-adv-y="1000"  />

      
      <glyph glyph-name="uni7b" unicode="&#x7b;" d="M433 728L424 659Q368 659 346 643.50Q324 628 318 575L295 390Q290 345 273.50 318.50Q257 292 219 273Q246 256 257 236.50Q268 217 268 186Q268 178 266 154L244-28Q242-52 242-64Q242-78 248-88Q254-98 261.50-103Q269-108 283.50-110.50Q298-113 306.50-113.50Q315-114 330-114L321-183L287-183Q225-183 193-159.50Q161-136 161-76Q161-49 163-36L185 151Q187 169 187 178Q187 231 140 243L148 308Q181 317 195.50 338Q210 359 215 395L240 591Q250 665 288 697Q326 729 401 729Q422 729 433 728Z"  horiz-adv-x="503" vert-adv-y="1000"  />

      
      <glyph glyph-name="uni7c" unicode="&#x7c;" d="M293-250L213-250L213 750L293 750L293-250Z"  horiz-adv-x="500" vert-adv-y="1000"  />

      
      <glyph glyph-name="uni7d" unicode="&#x7d;" d="M379 303L371 238Q344 233 327 214Q309 194 304 151L280-45Q272-111 240-144Q201-184 127-184Q117-184 87-182L95-114Q151-114 171-99Q195-82 202-29L225 155Q231 203 249 232Q266 259 300 273Q280 282 265 305Q252 327 252 356Q252 364 256 402L276 562Q276 565 277.50 572.50Q279 580 279.50 587Q280 594 280 600Q280 626 267 642Q251 660 209 660Q196 660 192 659L200 728Q222 730 234 730Q303 730 334 699Q361 672 361 622Q361 602 358 582L334 395Q332 375 332 366Q332 339 342 325Q354 308 379 303Z"  horiz-adv-x="503" vert-adv-y="1000"  />

      
      <glyph glyph-name="uni7e" unicode="&#x7e;" d="M579 730L627 702Q571 587 480 587Q444 587 377 618.50Q310 650 278 650Q230 650 192 579L145 610Q159 638 169.50 655Q180 672 196.50 691Q213 710 235 719Q257 728 284 728Q323 728 391 696Q459 664 490 664Q521 664 540.50 680.50Q560 697 579 730Z"  horiz-adv-x="667" vert-adv-y="1000"  />

      
      <glyph glyph-name="unia1" unicode="&#xa1;" d="M200 407Q200 383 182 365Q164 347 140 347Q121 347 107.50 360.50Q94 374 94 394Q94 418 112 436Q130 454 154 454Q173 454 186.50 440.50Q200 427 200 407M174 267L114-220L28-220L88 267L174 267Z"  horiz-adv-x="243" vert-adv-y="1000"  />

      
      <glyph glyph-name="unia2" unicode="&#xa2;" d="M325 550L316 471Q304 483 285 483Q255 483 234 456Q215 430 205 374Q195 318 195 272Q195 178 246 178Q256 178 281 187L272 114Q252 103 234 102L225 23L165 23L174 101Q172 102 164 107Q156 112 151 116Q146 120 138.50 129Q131 138 125 149Q106 186 106 247Q106 422 170 513Q193 545 231 561L242 653L302 653L291 559Q308 557 325 550Z"  horiz-adv-x="380" vert-adv-y="1000"  />

      
      <glyph glyph-name="unia3" unicode="&#xa3;" d="M42 353L100 353Q79 410 79 468Q79 569 137 625Q189 675 263 675Q321 675 353 643Q386 610 386 559Q386 548 385 543L312 510Q314 520 314 539Q314 571 300 586Q285 603 256 603Q217 603 191 577Q161 547 161 487Q161 440 185 353L275 353L267 292L198 292Q209 258 209 216Q209 183 198 148Q187 117 172 91L198 75Q214 66 230 66Q252 66 264 96L333 73Q319 42 298 21Q270-9 231-9Q204-9 170 7L142 21Q116 34 102 34Q88 34 81 25Q78 21 74 13L69 5L6 32Q16 64 36 84Q61 111 94 111Q99 111 109 109Q136 146 136 197Q136 240 116 292L34 292L42 353Z"  horiz-adv-x="380" vert-adv-y="1000"  />

      
      <glyph glyph-name="unia4" unicode="&#xa4;" d="M634 125L590 80L494 176Q427 126 351 126Q277 126 207 175L112 80L67 125L163 220Q112 285 112 362Q112 436 162 503L65 599L110 644L206 548Q276 598 350 598Q425 598 492 549L588 644L633 599L538 504Q587 434 587 362Q587 291 538 221L634 125M465.50 245.50Q465.50 245.50 489.75 269.75Q514 294 514 362Q514 430 466 478.50Q418 527 350 527Q282 527 234 478.50Q186 430 186 362Q186 294 234 245.50Q282 197 350 197Q417 197 465.50 245.50Z"  horiz-adv-x="667" vert-adv-y="1000"  />

      
      <glyph glyph-name="unia5" unicode="&#xa5;" d="M409 667L309 431L387 431L379 369L283 369L261 317L373 317L366 256L245 256L213 0L125 0L156 256L23 256L30 317L153 317L140 369L37 369L44 431L125 431L69 667L163 667Q183 549 194 490Q209 409 211 358Q230 428 317 667L409 667Z"  horiz-adv-x="380" vert-adv-y="1000"  />

      
      <glyph glyph-name="unia6" unicode="&#xa6;" d="M293 345L212 345L212 750L293 750L293 345M293-250L212-250L212 155L293 155L293-250Z"  horiz-adv-x="500" vert-adv-y="1000"  />

      
      <glyph glyph-name="unia7" unicode="&#xa7;" d="M366 593L294 593Q296 627 283 652Q270 677 241 677Q211 677 192 650Q173 622 173 582Q173 543 206 510Q220 496 256 472Q291 448 301 437Q345 393 345 316Q345 216 304 155Q277 114 235 99Q289 58 289-15Q289-102 236-151Q198-186 142-186Q85-186 52-147Q15-105 23-26L95-26Q90-77 108-102Q123-121 146-121Q172-121 190-102Q216-73 216-22Q216 14 188 44Q175 57 136 81Q96 107 82 121Q41 164 41 239Q41 319 76 381Q106 433 157 455Q99 507 99 573Q99 649 143 698Q183 742 247 742Q299 742 331 710Q366 675 366 603L366 593M115 239Q115 182 133 162Q148 143 177 143Q205 143 225 160Q270 197 270 317Q270 368 254 389Q238 410 209 410Q183 410 162 391Q137 369 126 324Q115 279 115 239Z"  horiz-adv-x="373" vert-adv-y="1000"  />

      
      <glyph glyph-name="unia8" unicode="&#xa8;" d="M408 569Q408 546 391 529.50Q374 513 352 513Q333 513 320.50 525.50Q308 538 308 557Q308 579 325 596Q342 613 365 613Q384 613 396 600.50Q408 588 408 569M262 569Q262 546 245 529.50Q228 513 206 513Q187 513 175 525.50Q163 538 163 557Q163 580 179.50 596.50Q196 613 219 613Q238 613 250 600.50Q262 588 262 569Z"  horiz-adv-x="490" vert-adv-y="1000"  />

      
      <glyph glyph-name="unia9" unicode="&#xa9;" d="M635.50 577.50Q635.50 577.50 686.25 526.75Q737 476 737 333Q737 190 636 88.50Q535-13 392-13Q249-13 147.50 88.50Q46 190 46 333Q46 476 147.50 577.50Q249 679 392 679Q534 679 635.50 577.50M598 123.50Q598 123.50 640.50 167.25Q683 211 683 333Q683 455 598.50 542.50Q514 630 392 630Q270 630 185 543Q100 456 100 334Q100 212 185.50 124Q271 36 392 36Q513 36 598 123.50M463 204L463 142Q445 128 412 128Q279 128 279 327Q279 538 410 538Q440 538 463 525L463 463Q441 477 421 477Q352 477 352 330Q352 192 424 192Q439 192 463 204Z"  horiz-adv-x="757" vert-adv-y="1000"  />

      
      <glyph glyph-name="uniaa" unicode="&#xaa;" d="M228 372L167 372L169 389Q152 368 125 368Q100 368 86 386Q67 409 67 468Q67 525 78 571Q91 625 116 651Q136 671 163 671Q187 671 201 650L203 667L264 667L228 372M218 297L45 297L50 337L223 337L218 297M133 528L132 518Q128 482 128 465Q128 422 149 422Q157 422 164 429Q177 442 186 504L189 525Q193 550 193 578Q193 601 186 610Q181 617 173 617Q164 617 155 608Q140 590 133 528Z"  horiz-adv-x="262" vert-adv-y="1000"  />

      
      <glyph glyph-name="uniab" unicode="&#xab;" d="M310 405L189 234L258 57L217 36L137 234L274 430L310 405M204 405L82 234L154 57L111 36L34 234L168 430L204 405Z"  horiz-adv-x="321" vert-adv-y="1000"  />

      
      <glyph glyph-name="uniac" unicode="&#xac;" d="M455 0L375 0L375 195L22 195L22 267L455 267L455 0Z"  horiz-adv-x="500" vert-adv-y="1000"  />

      
      <glyph glyph-name="uniad" unicode="&#xad;" d="M213 295L204 217L49 217L58 295L213 295Z"  horiz-adv-x="255" vert-adv-y="1000"  />

      
      <glyph glyph-name="uniae" unicode="&#xae;" d="M522 132L449 132L367 308L367 132L297 132L297 535L389 535Q452 535 478.50 510.50Q505 486 505 424Q505 382 487 353Q469 324 430 321L522 132M367 368L385 368Q416 368 426.50 382Q437 396 437 428Q437 460 425.50 473Q414 486 382 486L367 486L367 368M598 123.50Q598 123.50 640.50 167.25Q683 211 683 333Q683 455 598.50 542.50Q514 630 392 630Q270 630 185 543Q100 456 100 334Q100 212 185.50 124Q271 36 392 36Q513 36 598 123.50M635.50 577.50Q635.50 577.50 686.25 526.75Q737 476 737 333Q737 190 636 88.50Q535-13 392-13Q249-13 147.50 88.50Q46 190 46 333Q46 476 147.50 577.50Q249 679 392 679Q534 679 635.50 577.50Z"  horiz-adv-x="757" vert-adv-y="1000"  />

      
      <glyph glyph-name="uniaf" unicode="&#xaf;" d="M409 586L401 524L180 524L187 586L409 586Z"  horiz-adv-x="500" vert-adv-y="1000"  />

      
      <glyph glyph-name="unib0" unicode="&#xb0;" d="M430 528Q430 470 387.50 429Q345 388 287 388Q229 388 186.50 429Q144 470 144 528Q144 587 186 627.50Q228 668 287 668Q346 668 388 627.50Q430 587 430 528M352 464Q352 464 365.50 477Q379 490 379 528Q379 566 352 592Q325 618 287 618Q249 618 222 592Q195 566 195 528Q195 490 222 464Q249 438 287 438Q325 438 352 464Z"  horiz-adv-x="500" vert-adv-y="1000"  />

      
      <glyph glyph-name="unib1" unicode="&#xb1;" d="M468 347L292 347L292 178L212 178L212 347L35 347L35 421L212 421L212 590L292 590L292 421L468 421L468 347M468 64L35 64L35 139L468 139L468 64Z"  horiz-adv-x="500" vert-adv-y="1000"  />

      
      <glyph glyph-name="unib2" unicode="&#xb2;" d="M133 532L71 532Q74 564 78.50 586Q83 608 94.50 629.50Q106 651 127 661.50Q148 672 180 672Q264 672 264 591Q264 561 246.50 518.50Q229 476 215.50 453Q202 430 165.50 376Q129 322 127 319L228 319L221 267L31 267Q44 287 68.50 327.50Q93 368 106 388Q107 389 125.50 418.50Q144 448 152.50 462Q161 476 175 502.50Q189 529 195 548.50Q201 568 201 584Q201 619 173 619Q136 619 133 532Z"  horiz-adv-x="249" vert-adv-y="1000"  />

      
      <glyph glyph-name="unib3" unicode="&#xb3;" d="M137 555L78 555Q85 614 105.50 643Q126 672 179 672Q257 672 257 596Q257 499 204 473Q239 458 239 416Q239 262 124 262Q83 262 64 281Q45 300 45 341Q45 357 48 372L107 372Q104 358 104 346Q104 315 131 315Q176 315 176 412Q176 429 165.50 439.50Q155 450 138 450Q131 450 119 448L125 501L136 501Q157 501 168 505.50Q179 510 187 526Q197 547 197 582Q197 619 174 619Q143 619 137 555Z"  horiz-adv-x="249" vert-adv-y="1000"  />

      
      <glyph glyph-name="unib4" unicode="&#xb4;" d="M239 542L334 664L400 625L285 513L239 542Z"  horiz-adv-x="500" vert-adv-y="1000"  />

      
      <glyph glyph-name="unib5" unicode="&#xb5;" d="M430 0L350 0L358 67Q337 30 304 8Q273-12 225-12Q180-12 148 16Q122 39 109 75L77-188L-5-188L73 447L155 447L130 243Q124 194 124 174Q124 115 158 82Q188 53 235 53Q292 53 326 88Q344 107 355 132.50Q366 158 368.50 173.50Q371 189 375 219L403 447L485 447L430 0Z"  horiz-adv-x="504" vert-adv-y="1000"  />

      
      <glyph glyph-name="uni03BC" unicode="&#x03BC;" d="M430 0L350 0L358 67Q337 30 304 8Q273-12 225-12Q180-12 148 16Q122 39 109 75L77-188L-5-188L73 447L155 447L130 243Q124 194 124 174Q124 115 158 82Q188 53 235 53Q292 53 326 88Q344 107 355 132.50Q366 158 368.50 173.50Q371 189 375 219L403 447L485 447L430 0Z"  horiz-adv-x="504" vert-adv-y="1000"  />

      
      <glyph glyph-name="unib6" unicode="&#xb6;" d="M575 667L567 604L505 604L418-100L349-100L436 604L334 604L247-100L178-100L230 315L215 315Q143 315 97.50 355Q52 395 52 466Q52 555 120 615Q181 667 297 667L575 667Z"  horiz-adv-x="591" vert-adv-y="1000"  />

      
      <glyph glyph-name="unib7" unicode="&#xb7;" d="M175 341Q175 313 153.50 291.50Q132 270 103 270Q79 270 63 286Q47 302 47 326Q47 354 68.50 376Q90 398 119 398Q143 398 159 381.50Q175 365 175 341Z"  horiz-adv-x="206" vert-adv-y="1000"  />

      
      <glyph glyph-name="unib8" unicode="&#xb8;" d="M261-74L172-191L137-171L207-45L261-74Z"  horiz-adv-x="500" vert-adv-y="1000"  />

      
      <glyph glyph-name="unib9" unicode="&#xb9;" d="M223 667L173 267L113 267L156 615L115 615L121 667L223 667Z"  horiz-adv-x="249" vert-adv-y="1000"  />

      
      <glyph glyph-name="uniba" unicode="&#xba;" d="M189 671Q219 671 239 650Q267 620 267 560Q267 515 255 468Q243 421 216 394Q190 368 154 368Q124 368 103 387Q73 416 73 486Q73 589 122 642Q150 671 189 671M233 297L51 297L56 337L238 337L233 297M181 612Q172 612 164 603Q152 591 144 553Q136 513 136 475Q136 442 144 434Q150 427 158 427Q166 427 172 433Q185 445 195 485Q203 520 203 560Q203 597 193 607Q188 612 181 612Z"  horiz-adv-x="267" vert-adv-y="1000"  />

      
      <glyph glyph-name="unibb" unicode="&#xbb;" d="M289 234L163 36L125 57L240 234L161 405L203 430L289 234M185 234L57 36L21 57L134 234L55 405L97 430L185 234Z"  horiz-adv-x="321" vert-adv-y="1000"  />

      
      <glyph glyph-name="unibc" unicode="&#xbc;" d="M589 400L557 145L583 145L578 98L551 98L540 0L482 0L494 98L380 98L386 147L532 400L589 400M555 667L147 0L93 0L501 667L555 667M223 667L174 267L113 267L156 615L115 615L122 667L223 667M518 300L437 145L499 145L518 300Z"  horiz-adv-x="621" vert-adv-y="1000"  />

      
      <glyph glyph-name="unibd" unicode="&#xbd;" d="M473 265L411 265Q417 333 439 368.50Q461 404 521 404Q604 404 604 324Q604 293 587.50 251.50Q571 210 555 184.50Q539 159 506 110.50Q473 62 467 52L568 52L561 0L371 0Q377 10 388 27.50Q399 45 408 59.50Q417 74 425 87Q426 88 448.50 122.50Q471 157 481 173.50Q491 190 508.50 221Q526 252 533.50 275Q541 298 541 316Q541 351 513 351Q507 351 502 349Q497 347 493.50 343Q490 339 487 335Q484 331 482 323.50Q480 316 478.50 312Q477 308 476 299Q475 290 474.50 287Q474 284 473.50 275Q473 266 473 265M555 667L147 0L93 0L501 667L555 667M223 667L174 267L113 267L156 615L115 615L122 667L223 667Z"  horiz-adv-x="621" vert-adv-y="1000"  />

      
      <glyph glyph-name="unibe" unicode="&#xbe;" d="M554 667L147 0L93 0L500 667L554 667M137 555L78 555Q85 614 105.50 643Q126 672 179 672Q257 672 257 596Q257 499 204 473Q239 458 239 416Q239 262 124 262Q83 262 64 281Q45 300 45 341Q45 357 48 372L107 372Q104 358 104 346Q104 315 131 315Q176 315 176 412Q176 429 165.50 439.50Q155 450 138 450Q131 450 119 448L125 501L136 501Q157 501 168 505.50Q179 510 187 526Q197 547 197 582Q197 619 174 619Q143 619 137 555M518 300L437 145L499 145L518 300M589 400L557 145L583 145L578 98L551 98L540 0L482 0L494 98L380 98L386 147L532 400L589 400Z"  horiz-adv-x="621" vert-adv-y="1000"  />

      
      <glyph glyph-name="unibf" unicode="&#xbf;" d="M248 407Q248 383 230 365Q212 347 188 347Q169 347 155.50 360.50Q142 374 142 394Q142 418 160 436Q178 454 202 454Q221 454 234.50 440.50Q248 427 248 407M176-53L255-53Q251-88 247-109.50Q243-131 233.50-155.50Q224-180 209.50-194Q195-208 170-217Q145-226 111-226Q54-226 30.50-195.50Q7-165 7-106Q7-53 18.50 15Q30 83 52 114Q66 134 82 141.50Q98 149 125 151L139 267L217 267L195 91Q189 92 176 92Q149 92 133.50 82.50Q118 73 109 48Q90-4 90-92Q90-153 127-153Q136-153 143.50-149.50Q151-146 155.50-138.50Q160-131 163.50-123.50Q167-116 169-105Q171-94 172-87Q173-80 174.50-68Q176-56 176-53Z"  horiz-adv-x="324" vert-adv-y="1000"  />

      
      <glyph glyph-name="unic0" unicode="&#xc0;" d="M326 0L238 0L230 130L99 130L59 0L-27 0L198 667L267 667L326 0M120 199L225 199Q215 375 215 463Q215 512 216 537Q212 521 204.50 490.50Q197 460 193 444Q172 361 120 199M274 759L231 733L132 840L192 884L274 759Z"  horiz-adv-x="355" vert-adv-y="1000"  />

      
      <glyph glyph-name="unic1" unicode="&#xc1;" d="M326 0L238 0L230 130L99 130L59 0L-27 0L198 667L267 667L326 0M120 199L225 199Q215 375 215 463Q215 512 216 537Q212 521 204.50 490.50Q197 460 193 444Q172 361 120 199M199 762L294 884L360 845L245 733L199 762Z"  horiz-adv-x="355" vert-adv-y="1000"  />

      
      <glyph glyph-name="unic2" unicode="&#xc2;" d="M326 0L238 0L230 130L99 130L59 0L-27 0L198 667L267 667L326 0M120 199L225 199Q215 375 215 463Q215 512 216 537Q212 521 204.50 490.50Q197 460 193 444Q172 361 120 199M343 761L298 727L239 801L167 727L126 761L250 885L343 761Z"  horiz-adv-x="355" vert-adv-y="1000"  />

      
      <glyph glyph-name="unic3" unicode="&#xc3;" d="M326 0L238 0L230 130L99 130L59 0L-27 0L198 667L267 667L326 0M120 199L225 199Q215 375 215 463Q215 512 216 537Q212 521 204.50 490.50Q197 460 193 444Q172 361 120 199M297 815L345 815Q335 727 270 727Q255 727 230 741Q205 755 191 755Q170 755 170 731L116 731Q131 819 193 819Q212 819 238 804Q264 789 276 789Q284 789 287.50 792.50Q291 796 293 804Q295 812 297 815Z"  horiz-adv-x="355" vert-adv-y="1000"  />

      
      <glyph glyph-name="unic4" unicode="&#xc4;" d="M326 0L238 0L230 130L99 130L59 0L-27 0L198 667L267 667L326 0M120 199L225 199Q215 375 215 463Q215 512 216 537Q212 521 204.50 490.50Q197 460 193 444Q172 361 120 199M363 777Q363 754 346.50 737.50Q330 721 307 721Q288 721 275.50 733.50Q263 746 263 765Q263 787 280 804Q297 821 320 821Q339 821 351 808.50Q363 796 363 777M217 777Q217 754 200.50 737.50Q184 721 161 721Q142 721 130 733.50Q118 746 118 765Q118 788 135 804.50Q152 821 174 821Q193 821 205 808.50Q217 796 217 777Z"  horiz-adv-x="355" vert-adv-y="1000"  />

      
      <glyph glyph-name="unic5" unicode="&#xc5;" d="M326 0L238 0L230 130L99 130L59 0L-27 0L198 667L267 667L326 0M120 199L225 199Q215 375 215 463Q215 512 216 537Q212 521 204.50 490.50Q197 460 193 444Q172 361 120 199M196.50 738.50Q196.50 738.50 184.25 750.75Q172 763 172 799Q172 835 196.50 859.50Q221 884 257 884Q293 884 317.50 859.50Q342 835 342 799Q342 763 317.50 738.50Q293 714 257 714Q221 714 196.50 738.50M228.50 827.50Q228.50 827.50 222.75 821.75Q217 816 217 799Q217 782 228.50 770.50Q240 759 257 759Q274 759 285.50 770.50Q297 782 297 799Q297 816 285.50 827.50Q274 839 257 839Q240 839 228.50 827.50Z"  horiz-adv-x="355" vert-adv-y="1000"  />

      
      <glyph glyph-name="unic6" unicode="&#xc6;" d="M474 0L246 0L236 131L100 131L59 0L-27 0L194 667L412 667L420 591L277 591L296 379L425 379L433 303L304 303L326 76L466 76L474 0M232 199L219 350Q215 400 215 540Q209 498 181 397Q152 298 121 199L232 199Z"  horiz-adv-x="503" vert-adv-y="1000"  />

      
      <glyph glyph-name="unic7" unicode="&#xc7;" d="M360 656L351 575Q322 592 296 592Q219 592 180 495Q160 446 148.50 371.50Q137 297 137 236Q137 79 238 79Q266 79 291 92L281 10Q249-9 208-9Q42-9 42 216Q42 386 95 522Q122 591 170.50 633Q219 675 288 675Q330 675 360 656M244-75L158-193L106-167L171-42L244-75Z"  horiz-adv-x="332" vert-adv-y="1000"  />

      
      <glyph glyph-name="unic8" unicode="&#xc8;" d="M339 667L330 591L184 591L158 379L288 379L278 303L148 303L121 76L267 76L258 0L23 0L104 667L339 667M279 759L236 733L137 840L197 884L279 759Z"  horiz-adv-x="316" vert-adv-y="1000"  />

      
      <glyph glyph-name="unic9" unicode="&#xc9;" d="M339 667L330 591L184 591L158 379L288 379L278 303L148 303L121 76L267 76L258 0L23 0L104 667L339 667M179 762L274 884L340 845L225 733L179 762Z"  horiz-adv-x="316" vert-adv-y="1000"  />

      
      <glyph glyph-name="unica" unicode="&#xca;" d="M339 667L330 591L184 591L158 379L288 379L278 303L148 303L121 76L267 76L258 0L23 0L104 667L339 667M338 761L293 727L234 801L162 727L121 761L245 885L338 761Z"  horiz-adv-x="316" vert-adv-y="1000"  />

      
      <glyph glyph-name="unicb" unicode="&#xcb;" d="M339 667L330 591L184 591L158 379L288 379L278 303L148 303L121 76L267 76L258 0L23 0L104 667L339 667M348 777Q348 754 331 737.50Q314 721 292 721Q273 721 260.50 733.50Q248 746 248 765Q248 787 265 804Q282 821 305 821Q324 821 336 808.50Q348 796 348 777M202 777Q202 754 185 737.50Q168 721 146 721Q127 721 115 733.50Q103 746 103 765Q103 788 119.50 804.50Q136 821 159 821Q178 821 190 808.50Q202 796 202 777Z"  horiz-adv-x="316" vert-adv-y="1000"  />

      
      <glyph glyph-name="unicc" unicode="&#xcc;" d="M193 667L111 0L23 0L104 667L193 667M204 759L161 733L62 840L122 884L204 759Z"  horiz-adv-x="190" vert-adv-y="1000"  />

      
      <glyph glyph-name="unicd" unicode="&#xcd;" d="M193 667L111 0L23 0L104 667L193 667M109 762L204 884L270 845L155 733L109 762Z"  horiz-adv-x="190" vert-adv-y="1000"  />

      
      <glyph glyph-name="unice" unicode="&#xce;" d="M193 667L111 0L23 0L104 667L193 667M263 761L218 727L159 801L87 727L46 761L170 885L263 761Z"  horiz-adv-x="190" vert-adv-y="1000"  />

      
      <glyph glyph-name="unicf" unicode="&#xcf;" d="M193 667L111 0L23 0L104 667L193 667M278 777Q278 754 261 737.50Q244 721 222 721Q203 721 190.50 733.50Q178 746 178 765Q178 787 195 804Q212 821 235 821Q254 821 266 808.50Q278 796 278 777M132 777Q132 754 115 737.50Q98 721 76 721Q57 721 45 733.50Q33 746 33 765Q33 788 49.50 804.50Q66 821 89 821Q108 821 120 808.50Q132 796 132 777Z"  horiz-adv-x="190" vert-adv-y="1000"  />

      
      <glyph glyph-name="unid0" unicode="&#xd0;" d="M105 667L213 667Q258 667 288 659Q318 651 342 624Q389 572 389 457Q389 311 356 194Q319 64 243 24Q197 0 94 0L23 0L62 320L12 320L21 393L71 393L105 667M151 320L121 78Q203 78 237 131Q265 175 280.50 279Q296 383 296 458Q296 522 275 556.50Q254 591 194 591L184 591L160 393L245 393L236 320L151 320Z"  horiz-adv-x="405" vert-adv-y="1000"  />

      
      <glyph glyph-name="unid1" unicode="&#xd1;" d="M410 667L329 0L246 0L184 300Q171 361 164 413Q161 431 158.50 465.50Q156 500 154 513L154 497Q154 468 150 412Q142 297 110 0L23 0L104 667L187 667L242 400Q270 262 280 160L280 270Q280 328 291 418L322 667L410 667M331 815L379 815Q369 727 304 727Q289 727 264 741Q239 755 225 755Q204 755 204 731L150 731Q165 819 227 819Q246 819 272 804Q298 789 310 789Q318 789 321.50 792.50Q325 796 327 804Q329 812 331 815Z"  horiz-adv-x="407" vert-adv-y="1000"  />

      
      <glyph glyph-name="unid2" unicode="&#xd2;" d="M403 489Q403 313 362 166Q339 85 298 38Q257-9 182-9Q41-9 41 171Q41 337 73 476Q93 566 136 620.50Q179 675 261 675Q403 675 403 489M311 495Q311 513 310.50 522.50Q310 532 307 548Q304 564 298.50 572.50Q293 581 281 587.50Q269 594 252 594Q201 594 178 528Q171 509 166 490Q161 471 156.50 444.50Q152 418 150.50 407.50Q149 397 145 361.50Q141 326 141 322Q130 232 130 175Q130 74 189 74Q224 74 241.50 97Q259 120 270 161Q287 228 298 325Q311 429 311 495M309 759L266 733L167 840L227 884L309 759Z"  horiz-adv-x="416" vert-adv-y="1000"  />

      
      <glyph glyph-name="unid3" unicode="&#xd3;" d="M403 489Q403 313 362 166Q339 85 298 38Q257-9 182-9Q41-9 41 171Q41 337 73 476Q93 566 136 620.50Q179 675 261 675Q403 675 403 489M311 495Q311 513 310.50 522.50Q310 532 307 548Q304 564 298.50 572.50Q293 581 281 587.50Q269 594 252 594Q201 594 178 528Q171 509 166 490Q161 471 156.50 444.50Q152 418 150.50 407.50Q149 397 145 361.50Q141 326 141 322Q130 232 130 175Q130 74 189 74Q224 74 241.50 97Q259 120 270 161Q287 228 298 325Q311 429 311 495M209 762L304 884L370 845L255 733L209 762Z"  horiz-adv-x="416" vert-adv-y="1000"  />

      
      <glyph glyph-name="unid4" unicode="&#xd4;" d="M403 489Q403 313 362 166Q339 85 298 38Q257-9 182-9Q41-9 41 171Q41 337 73 476Q93 566 136 620.50Q179 675 261 675Q403 675 403 489M311 495Q311 513 310.50 522.50Q310 532 307 548Q304 564 298.50 572.50Q293 581 281 587.50Q269 594 252 594Q201 594 178 528Q171 509 166 490Q161 471 156.50 444.50Q152 418 150.50 407.50Q149 397 145 361.50Q141 326 141 322Q130 232 130 175Q130 74 189 74Q224 74 241.50 97Q259 120 270 161Q287 228 298 325Q311 429 311 495M368 761L323 727L264 801L192 727L151 761L275 885L368 761Z"  horiz-adv-x="416" vert-adv-y="1000"  />

      
      <glyph glyph-name="unid5" unicode="&#xd5;" d="M403 489Q403 313 362 166Q339 85 298 38Q257-9 182-9Q41-9 41 171Q41 337 73 476Q93 566 136 620.50Q179 675 261 675Q403 675 403 489M311 495Q311 513 310.50 522.50Q310 532 307 548Q304 564 298.50 572.50Q293 581 281 587.50Q269 594 252 594Q201 594 178 528Q171 509 166 490Q161 471 156.50 444.50Q152 418 150.50 407.50Q149 397 145 361.50Q141 326 141 322Q130 232 130 175Q130 74 189 74Q224 74 241.50 97Q259 120 270 161Q287 228 298 325Q311 429 311 495M327 815L375 815Q365 727 300 727Q285 727 260 741Q235 755 221 755Q200 755 200 731L146 731Q161 819 223 819Q242 819 268 804Q294 789 306 789Q314 789 317.50 792.50Q321 796 323 804Q325 812 327 815Z"  horiz-adv-x="416" vert-adv-y="1000"  />

      
      <glyph glyph-name="unid6" unicode="&#xd6;" d="M403 489Q403 313 362 166Q339 85 298 38Q257-9 182-9Q41-9 41 171Q41 337 73 476Q93 566 136 620.50Q179 675 261 675Q403 675 403 489M311 495Q311 513 310.50 522.50Q310 532 307 548Q304 564 298.50 572.50Q293 581 281 587.50Q269 594 252 594Q201 594 178 528Q171 509 166 490Q161 471 156.50 444.50Q152 418 150.50 407.50Q149 397 145 361.50Q141 326 141 322Q130 232 130 175Q130 74 189 74Q224 74 241.50 97Q259 120 270 161Q287 228 298 325Q311 429 311 495M382 777Q382 754 365 737.50Q348 721 326 721Q307 721 294.50 733.50Q282 746 282 765Q282 787 299 804Q316 821 339 821Q358 821 370 808.50Q382 796 382 777M236 777Q236 754 219 737.50Q202 721 180 721Q161 721 149 733.50Q137 746 137 765Q137 788 153.50 804.50Q170 821 193 821Q212 821 224 808.50Q236 796 236 777Z"  horiz-adv-x="416" vert-adv-y="1000"  />

      
      <glyph glyph-name="unid7" unicode="&#xd7;" d="M390 154L263 280L137 154L83 207L210 334L83 461L137 514L263 388L390 514L444 461L317 334L444 207L390 154Z"  horiz-adv-x="500" vert-adv-y="1000"  />

      
      <glyph glyph-name="unid8" unicode="&#xd8;" d="M9 3L66 96Q58 148 58 205Q58 310 81 432Q107 575 161 629Q207 675 276 675Q355 675 386 625L428 689L468 661L412 569Q420 520 420 465Q420 355 395 233Q366 88 315 37Q268-9 195-9Q124-9 90 40L49-28L9 3M149 233L327 524Q327 560 312 577Q297 594 269 594Q241 594 221 573Q192 542 171 427Q153 330 149 233M325 425L149 137Q151 106 169 88Q183 74 206 74Q233 74 254 93Q281 118 300 220Q320 328 325 425Z"  horiz-adv-x="452" vert-adv-y="1000"  />

      
      <glyph glyph-name="unid9" unicode="&#xd9;" d="M406 667L347 183Q335 86 298.50 38.50Q262-9 171-9Q40-9 40 116Q40 133 47 196L104 667L191 667L133 196Q128 161 128 134Q128 76 187 76Q204 76 217 82.50Q230 89 237 96.50Q244 104 249 120Q254 136 255.50 145.50Q257 155 259 175Q260 180 260 183L320 667L406 667M309 759L266 733L167 840L227 884L309 759Z"  horiz-adv-x="403" vert-adv-y="1000"  />

      
      <glyph glyph-name="unida" unicode="&#xda;" d="M406 667L347 183Q335 86 298.50 38.50Q262-9 171-9Q40-9 40 116Q40 133 47 196L104 667L191 667L133 196Q128 161 128 134Q128 76 187 76Q204 76 217 82.50Q230 89 237 96.50Q244 104 249 120Q254 136 255.50 145.50Q257 155 259 175Q260 180 260 183L320 667L406 667M209 762L304 884L370 845L255 733L209 762Z"  horiz-adv-x="403" vert-adv-y="1000"  />

      
      <glyph glyph-name="unidb" unicode="&#xdb;" d="M406 667L347 183Q335 86 298.50 38.50Q262-9 171-9Q40-9 40 116Q40 133 47 196L104 667L191 667L133 196Q128 161 128 134Q128 76 187 76Q204 76 217 82.50Q230 89 237 96.50Q244 104 249 120Q254 136 255.50 145.50Q257 155 259 175Q260 180 260 183L320 667L406 667M368 761L323 727L264 801L192 727L151 761L275 885L368 761Z"  horiz-adv-x="403" vert-adv-y="1000"  />

      
      <glyph glyph-name="unidc" unicode="&#xdc;" d="M406 667L347 183Q335 86 298.50 38.50Q262-9 171-9Q40-9 40 116Q40 133 47 196L104 667L191 667L133 196Q128 161 128 134Q128 76 187 76Q204 76 217 82.50Q230 89 237 96.50Q244 104 249 120Q254 136 255.50 145.50Q257 155 259 175Q260 180 260 183L320 667L406 667M388 777Q388 754 371 737.50Q354 721 332 721Q313 721 300.50 733.50Q288 746 288 765Q288 787 305 804Q322 821 345 821Q364 821 376 808.50Q388 796 388 777M242 777Q242 754 225 737.50Q208 721 186 721Q167 721 155 733.50Q143 746 143 765Q143 788 159.50 804.50Q176 821 199 821Q218 821 230 808.50Q242 796 242 777Z"  horiz-adv-x="403" vert-adv-y="1000"  />

      
      <glyph glyph-name="unidd" unicode="&#xdd;" d="M392 667L231 287L196 0L107 0L142 287L52 667L146 667L178 488Q185 448 193 358Q210 420 235 490L300 667L392 667M179 762L274 884L340 845L225 733L179 762Z"  horiz-adv-x="336" vert-adv-y="1000"  />

      
      <glyph glyph-name="unide" unicode="&#xde;" d="M181 567L209 567Q285 567 317.50 534.50Q350 502 350 426Q350 352 322.50 290Q295 228 234 207Q203 196 136 196L112 0L23 0L105 667L194 667L181 567M145 273L153 273Q190 273 209 285Q256 315 256 406Q256 447 240.50 469Q225 491 186 491L172 491L145 273Z"  horiz-adv-x="345" vert-adv-y="1000"  />

      
      <glyph glyph-name="unidf" unicode="&#xdf;" d="M22 0L68 372L18 372L27 447L77 447L94 582Q104 664 138 702Q172 740 251 740Q306 740 334.50 699Q363 658 363 587Q363 490 323 439Q308 418 281 410Q315 399 328 377.50Q341 356 341 318Q341 185 313 112Q298 52 266 25.50Q234-1 173-1Q152-1 142 0L152 76Q182 76 196.50 84.50Q211 93 223 120Q235 147 242 202Q249 257 249 295Q249 335 233.50 353.50Q218 372 179 372L188 447Q191 446 198 446Q275 446 275 570Q275 614 267.50 636.50Q260 659 236 659Q221 659 209.50 652.50Q198 646 192 638Q186 630 181.50 614Q177 598 175.50 589.50Q174 581 172 564L103 0L22 0Z"  horiz-adv-x="361" vert-adv-y="1000"  />

      
      <glyph glyph-name="unie0" unicode="&#xe0;" d="M324 447L269 0L188 0L195 57Q177 25 157.50 9Q138-7 106-7Q23-7 23 123Q23 168 27.50 214.50Q32 261 45 320.50Q58 380 88.50 417Q119 454 163 454Q214 454 237 396L243 447L324 447M224 309Q224 379 186 379Q142 379 124 294Q106 211 106 139Q106 67 147 67Q186 67 204 143Q224 226 224 309M264 539L221 513L122 620L182 664L264 539Z"  horiz-adv-x="343" vert-adv-y="1000"  />

      
      <glyph glyph-name="unie1" unicode="&#xe1;" d="M324 447L269 0L188 0L195 57Q177 25 157.50 9Q138-7 106-7Q23-7 23 123Q23 168 27.50 214.50Q32 261 45 320.50Q58 380 88.50 417Q119 454 163 454Q214 454 237 396L243 447L324 447M224 309Q224 379 186 379Q142 379 124 294Q106 211 106 139Q106 67 147 67Q186 67 204 143Q224 226 224 309M144 542L239 664L305 625L190 513L144 542Z"  horiz-adv-x="343" vert-adv-y="1000"  />

      
      <glyph glyph-name="unie2" unicode="&#xe2;" d="M324 447L269 0L188 0L195 57Q177 25 157.50 9Q138-7 106-7Q23-7 23 123Q23 168 27.50 214.50Q32 261 45 320.50Q58 380 88.50 417Q119 454 163 454Q214 454 237 396L243 447L324 447M224 309Q224 379 186 379Q142 379 124 294Q106 211 106 139Q106 67 147 67Q186 67 204 143Q224 226 224 309M313 547L268 513L209 587L137 513L96 547L220 671L313 547Z"  horiz-adv-x="343" vert-adv-y="1000"  />

      
      <glyph glyph-name="unie3" unicode="&#xe3;" d="M324 447L269 0L188 0L195 57Q177 25 157.50 9Q138-7 106-7Q23-7 23 123Q23 168 27.50 214.50Q32 261 45 320.50Q58 380 88.50 417Q119 454 163 454Q214 454 237 396L243 447L324 447M224 309Q224 379 186 379Q142 379 124 294Q106 211 106 139Q106 67 147 67Q186 67 204 143Q224 226 224 309M272 601L320 601Q310 513 245 513Q230 513 205 527Q180 541 166 541Q145 541 145 517L91 517Q106 605 168 605Q187 605 213 590Q239 575 251 575Q259 575 262.50 578.50Q266 582 268 590Q270 598 272 601Z"  horiz-adv-x="343" vert-adv-y="1000"  />

      
      <glyph glyph-name="unie4" unicode="&#xe4;" d="M324 447L269 0L188 0L195 57Q177 25 157.50 9Q138-7 106-7Q23-7 23 123Q23 168 27.50 214.50Q32 261 45 320.50Q58 380 88.50 417Q119 454 163 454Q214 454 237 396L243 447L324 447M224 309Q224 379 186 379Q142 379 124 294Q106 211 106 139Q106 67 147 67Q186 67 204 143Q224 226 224 309M323 569Q323 546 306.50 529.50Q290 513 267 513Q248 513 235.50 525.50Q223 538 223 557Q223 579 240 596Q257 613 280 613Q299 613 311 600.50Q323 588 323 569M177 569Q177 546 160.50 529.50Q144 513 121 513Q102 513 90 525.50Q78 538 78 557Q78 580 95 596.50Q112 613 134 613Q153 613 165 600.50Q177 588 177 569Z"  horiz-adv-x="343" vert-adv-y="1000"  />

      
      <glyph glyph-name="unie5" unicode="&#xe5;" d="M324 447L269 0L188 0L195 57Q177 25 157.50 9Q138-7 106-7Q23-7 23 123Q23 168 27.50 214.50Q32 261 45 320.50Q58 380 88.50 417Q119 454 163 454Q214 454 237 396L243 447L324 447M224 309Q224 379 186 379Q142 379 124 294Q106 211 106 139Q106 67 147 67Q186 67 204 143Q224 226 224 309M142.50 539.50Q142.50 539.50 130.25 551.75Q118 564 118 600Q118 636 142.50 660.50Q167 685 203 685Q239 685 263.50 660.50Q288 636 288 600Q288 564 263.50 539.50Q239 515 203 515Q167 515 142.50 539.50M174.50 628.50Q174.50 628.50 168.75 622.75Q163 617 163 600Q163 583 174.50 571.50Q186 560 203 560Q220 560 231.50 571.50Q243 583 243 600Q243 617 231.50 628.50Q220 640 203 640Q186 640 174.50 628.50Z"  horiz-adv-x="343" vert-adv-y="1000"  />

      
      <glyph glyph-name="unie6" unicode="&#xe6;" d="M66 348L76 432Q124 454 168 454Q243 454 265 397Q304 454 367 454Q473 454 473 303Q473 257 465 206L283 206Q279 173 279 132Q279 61 322 61Q351 61 365 89.50Q379 118 381 153L458 153Q446 79 413 36Q380-7 312-7Q234-7 216 63Q196 26 172 9.50Q148-7 109-7Q16-7 16 100Q16 132 23 163.50Q30 195 44 224Q58 253 84 270.50Q110 288 145 288Q190 288 211 259Q211 265 213 285.50Q215 306 215 317Q215 374 153 374Q112 374 66 348M293 266L390 266Q395 294 395 318Q395 386 356 386Q303 386 293 266M204 166Q204 223 161 223Q127 223 113 191.50Q99 160 99 121Q99 92 106.50 75.50Q114 59 140 59Q164 59 179.50 78.50Q195 98 199.50 120Q204 142 204 166Z"  horiz-adv-x="498" vert-adv-y="1000"  />

      
      <glyph glyph-name="unie7" unicode="&#xe7;" d="M252 438L241 354Q230 375 203 375Q175 375 156 351Q137 327 128.50 289.50Q120 252 117 222.50Q114 193 114 165Q114 147 115.50 134Q117 121 121.50 104.50Q126 88 137 79.50Q148 71 166 71Q187 71 209 88L199 11Q166-7 131-7Q73-7 48 35Q23 77 23 140Q23 248 55 341Q94 454 190 454Q223 454 252 438M170-74L81-191L46-171L116-45L170-74Z"  horiz-adv-x="249" vert-adv-y="1000"  />

      
      <glyph glyph-name="unie8" unicode="&#xe8;" d="M206 151L282 151Q273 94 254 61Q236 29 204.50 11Q173-7 136-7Q23-7 23 141Q23 223 45 309Q83 454 190 454Q250 454 274.50 409Q299 364 299 299Q299 259 292 207L107 207Q103 167 103 148Q103 131 104 121Q105 111 108.50 95.50Q112 80 121.50 72Q131 64 146 64Q196 64 206 151M218 300L218 315Q218 384 180 384Q172 384 165.50 381.50Q159 379 153.50 373Q148 367 143.50 361.50Q139 356 135 346.50Q131 337 128.50 330.50Q126 324 123.50 312.50Q121 301 119.50 296Q118 291 116 280Q114 269 114 267L217 267Q218 278 218 300M250 539L207 513L108 620L168 664L250 539Z"  horiz-adv-x="321" vert-adv-y="1000"  />

      
      <glyph glyph-name="unie9" unicode="&#xe9;" d="M206 151L282 151Q273 94 254 61Q236 29 204.50 11Q173-7 136-7Q23-7 23 141Q23 223 45 309Q83 454 190 454Q250 454 274.50 409Q299 364 299 299Q299 259 292 207L107 207Q103 167 103 148Q103 131 104 121Q105 111 108.50 95.50Q112 80 121.50 72Q131 64 146 64Q196 64 206 151M218 300L218 315Q218 384 180 384Q172 384 165.50 381.50Q159 379 153.50 373Q148 367 143.50 361.50Q139 356 135 346.50Q131 337 128.50 330.50Q126 324 123.50 312.50Q121 301 119.50 296Q118 291 116 280Q114 269 114 267L217 267Q218 278 218 300M150 542L245 664L311 625L196 513L150 542Z"  horiz-adv-x="321" vert-adv-y="1000"  />

      
      <glyph glyph-name="uniea" unicode="&#xea;" d="M206 151L282 151Q273 94 254 61Q236 29 204.50 11Q173-7 136-7Q23-7 23 141Q23 223 45 309Q83 454 190 454Q250 454 274.50 409Q299 364 299 299Q299 259 292 207L107 207Q103 167 103 148Q103 131 104 121Q105 111 108.50 95.50Q112 80 121.50 72Q131 64 146 64Q196 64 206 151M218 300L218 315Q218 384 180 384Q172 384 165.50 381.50Q159 379 153.50 373Q148 367 143.50 361.50Q139 356 135 346.50Q131 337 128.50 330.50Q126 324 123.50 312.50Q121 301 119.50 296Q118 291 116 280Q114 269 114 267L217 267Q218 278 218 300M309 547L264 513L205 587L133 513L92 547L216 671L309 547Z"  horiz-adv-x="321" vert-adv-y="1000"  />

      
      <glyph glyph-name="unieb" unicode="&#xeb;" d="M206 151L282 151Q273 94 254 61Q236 29 204.50 11Q173-7 136-7Q23-7 23 141Q23 223 45 309Q83 454 190 454Q250 454 274.50 409Q299 364 299 299Q299 259 292 207L107 207Q103 167 103 148Q103 131 104 121Q105 111 108.50 95.50Q112 80 121.50 72Q131 64 146 64Q196 64 206 151M218 300L218 315Q218 384 180 384Q172 384 165.50 381.50Q159 379 153.50 373Q148 367 143.50 361.50Q139 356 135 346.50Q131 337 128.50 330.50Q126 324 123.50 312.50Q121 301 119.50 296Q118 291 116 280Q114 269 114 267L217 267Q218 278 218 300M318 569Q318 546 301 529.50Q284 513 262 513Q243 513 230.50 525.50Q218 538 218 557Q218 579 235 596Q252 613 275 613Q294 613 306 600.50Q318 588 318 569M172 569Q172 546 155 529.50Q138 513 116 513Q97 513 85 525.50Q73 538 73 557Q73 580 89.50 596.50Q106 613 129 613Q148 613 160 600.50Q172 588 172 569Z"  horiz-adv-x="321" vert-adv-y="1000"  />

      
      <glyph glyph-name="uniec" unicode="&#xec;" d="M154 447L99 0L18 0L73 447L154 447M171 539L128 513L29 620L89 664L171 539Z"  horiz-adv-x="173" vert-adv-y="1000"  />

      
      <glyph glyph-name="unied" unicode="&#xed;" d="M154 447L99 0L18 0L73 447L154 447M76 542L171 664L237 625L122 513L76 542Z"  horiz-adv-x="173" vert-adv-y="1000"  />

      
      <glyph glyph-name="uniee" unicode="&#xee;" d="M154 447L99 0L18 0L73 447L154 447M228 547L183 513L124 587L52 513L11 547L135 671L228 547Z"  horiz-adv-x="173" vert-adv-y="1000"  />

      
      <glyph glyph-name="unief" unicode="&#xef;" d="M154 447L99 0L18 0L73 447L154 447M246 569Q246 546 229 529.50Q212 513 190 513Q171 513 158.50 525.50Q146 538 146 557Q146 579 163 596Q180 613 203 613Q222 613 234 600.50Q246 588 246 569M100 569Q100 546 83 529.50Q66 513 44 513Q25 513 13 525.50Q1 538 1 557Q1 580 17.50 596.50Q34 613 57 613Q76 613 88 600.50Q100 588 100 569Z"  horiz-adv-x="173" vert-adv-y="1000"  />

      
      <glyph glyph-name="unif0" unicode="&#xf0;" d="M323 679L248 627Q315 525 315 357Q315 285 303 202Q291 119 265 73Q220-7 139-7Q24-7 24 143Q24 189 30.50 235.50Q37 282 53 334Q69 386 103 419Q137 452 186 452Q214 452 232 434Q221 535 188 585L114 534L74 583L151 636Q128 665 93 690L140 740Q179 714 212 678L284 726L323 679M228 313Q228 378 189 378Q155 378 137 325Q126 293 118.50 232.50Q111 172 111 133Q111 68 151 68Q186 68 203 121Q214 153 221 212.50Q228 272 228 313Z"  horiz-adv-x="336" vert-adv-y="1000"  />

      
      <glyph glyph-name="unif1" unicode="&#xf1;" d="M154 447L148 395Q189 454 245 454Q282 454 302 433Q322 412 322 375Q322 356 318 318L279 0L197 0L234 299Q234 303 235 310.50Q236 318 236.50 324Q237 330 237 335Q237 382 197 382Q179 382 167 374Q155 366 149 349.50Q143 333 140.50 321Q138 309 135 289L99 0L18 0L73 447L154 447M279 601L327 601Q317 513 252 513Q237 513 212 527Q187 541 173 541Q152 541 152 517L98 517Q113 605 175 605Q194 605 220 590Q246 575 258 575Q266 575 269.50 578.50Q273 582 275 590Q277 598 279 601Z"  horiz-adv-x="353" vert-adv-y="1000"  />

      
      <glyph glyph-name="unif2" unicode="&#xf2;" d="M311 306Q311 267 307.50 230Q304 193 293 148Q282 103 264 70.50Q246 38 213.50 15.50Q181-7 138-7Q24-7 24 144Q24 194 30.50 241Q37 288 54 339.50Q71 391 107.50 422.50Q144 454 196 454Q311 454 311 306M228 314Q228 379 187 379Q164 379 149 356Q130 328 120 257.50Q110 187 110 135Q110 70 150 70Q173 70 189 94Q208 122 218 192.50Q228 263 228 314M257 539L214 513L115 620L175 664L257 539Z"  horiz-adv-x="336" vert-adv-y="1000"  />

      
      <glyph glyph-name="unif3" unicode="&#xf3;" d="M311 306Q311 267 307.50 230Q304 193 293 148Q282 103 264 70.50Q246 38 213.50 15.50Q181-7 138-7Q24-7 24 144Q24 194 30.50 241Q37 288 54 339.50Q71 391 107.50 422.50Q144 454 196 454Q311 454 311 306M228 314Q228 379 187 379Q164 379 149 356Q130 328 120 257.50Q110 187 110 135Q110 70 150 70Q173 70 189 94Q208 122 218 192.50Q228 263 228 314M157 542L252 664L318 625L203 513L157 542Z"  horiz-adv-x="336" vert-adv-y="1000"  />

      
      <glyph glyph-name="unif4" unicode="&#xf4;" d="M311 306Q311 267 307.50 230Q304 193 293 148Q282 103 264 70.50Q246 38 213.50 15.50Q181-7 138-7Q24-7 24 144Q24 194 30.50 241Q37 288 54 339.50Q71 391 107.50 422.50Q144 454 196 454Q311 454 311 306M228 314Q228 379 187 379Q164 379 149 356Q130 328 120 257.50Q110 187 110 135Q110 70 150 70Q173 70 189 94Q208 122 218 192.50Q228 263 228 314M316 547L271 513L212 587L140 513L99 547L223 671L316 547Z"  horiz-adv-x="336" vert-adv-y="1000"  />

      
      <glyph glyph-name="unif5" unicode="&#xf5;" d="M311 306Q311 267 307.50 230Q304 193 293 148Q282 103 264 70.50Q246 38 213.50 15.50Q181-7 138-7Q24-7 24 144Q24 194 30.50 241Q37 288 54 339.50Q71 391 107.50 422.50Q144 454 196 454Q311 454 311 306M228 314Q228 379 187 379Q164 379 149 356Q130 328 120 257.50Q110 187 110 135Q110 70 150 70Q173 70 189 94Q208 122 218 192.50Q228 263 228 314M275 601L323 601Q313 513 248 513Q233 513 208 527Q183 541 169 541Q148 541 148 517L94 517Q109 605 171 605Q190 605 216 590Q242 575 254 575Q262 575 265.50 578.50Q269 582 271 590Q273 598 275 601Z"  horiz-adv-x="336" vert-adv-y="1000"  />

      
      <glyph glyph-name="unif6" unicode="&#xf6;" d="M311 306Q311 267 307.50 230Q304 193 293 148Q282 103 264 70.50Q246 38 213.50 15.50Q181-7 138-7Q24-7 24 144Q24 194 30.50 241Q37 288 54 339.50Q71 391 107.50 422.50Q144 454 196 454Q311 454 311 306M228 314Q228 379 187 379Q164 379 149 356Q130 328 120 257.50Q110 187 110 135Q110 70 150 70Q173 70 189 94Q208 122 218 192.50Q228 263 228 314M331 569Q331 546 314.50 529.50Q298 513 275 513Q256 513 243.50 525.50Q231 538 231 557Q231 579 248 596Q265 613 288 613Q307 613 319 600.50Q331 588 331 569M185 569Q185 546 168.50 529.50Q152 513 129 513Q110 513 98 525.50Q86 538 86 557Q86 580 103 596.50Q120 613 142 613Q161 613 173 600.50Q185 588 185 569Z"  horiz-adv-x="336" vert-adv-y="1000"  />

      
      <glyph glyph-name="unif7" unicode="&#xf7;" d="M299.50 551Q299.50 551 307.25 543Q315 535 315 514Q315 493 299.50 477.50Q284 462 263 462Q242 462 226 477.50Q210 493 210 514Q210 536 225.50 551.50Q241 567 263 567Q284 567 299.50 551M480 297L46 297L46 371L480 371L480 297M299.50 190Q299.50 190 307.25 182Q315 174 315 153Q315 132 299.50 116.50Q284 101 263 101Q242 101 226 116.50Q210 132 210 153Q210 175 225.50 190.50Q241 206 263 206Q284 206 299.50 190Z"  horiz-adv-x="500" vert-adv-y="1000"  />

      
      <glyph glyph-name="unif8" unicode="&#xf8;" d="M356 441L310 377Q319 347 319 307Q319 267 316 230.50Q313 194 302.50 148.50Q292 103 274.50 70.50Q257 38 224.50 15.50Q192-7 148-7Q94-7 61 30L34-8L3 14L43 69Q33 102 33 139Q33 247 59 330Q97 454 204 454Q258 454 291 417L323 462L356 441M121 174L233 341Q229 360 220.50 369.50Q212 379 195 379Q171 379 155 354Q132 318 121 174M234 273L121 105Q127 64 159 64Q209 64 224 177Q231 220 234 273Z"  horiz-adv-x="359" vert-adv-y="1000"  />

      
      <glyph glyph-name="unif9" unicode="&#xf9;" d="M335 447L302 179Q296 130 289.50 103Q283 76 267 46.50Q251 17 221 4.50Q191-8 144-8Q33-8 33 102Q33 118 37 152L73 447L154 447L121 179Q116 144 116 117Q116 92 126.50 81.50Q137 71 162 71Q182 71 194 84Q206 97 209.50 109.50Q213 122 216 145Q220 166 221 179L253 447L335 447M259 539L216 513L117 620L177 664L259 539Z"  horiz-adv-x="354" vert-adv-y="1000"  />

      
      <glyph glyph-name="unifa" unicode="&#xfa;" d="M335 447L302 179Q296 130 289.50 103Q283 76 267 46.50Q251 17 221 4.50Q191-8 144-8Q33-8 33 102Q33 118 37 152L73 447L154 447L121 179Q116 144 116 117Q116 92 126.50 81.50Q137 71 162 71Q182 71 194 84Q206 97 209.50 109.50Q213 122 216 145Q220 166 221 179L253 447L335 447M166 542L261 664L327 625L212 513L166 542Z"  horiz-adv-x="354" vert-adv-y="1000"  />

      
      <glyph glyph-name="unifb" unicode="&#xfb;" d="M335 447L302 179Q296 130 289.50 103Q283 76 267 46.50Q251 17 221 4.50Q191-8 144-8Q33-8 33 102Q33 118 37 152L73 447L154 447L121 179Q116 144 116 117Q116 92 126.50 81.50Q137 71 162 71Q182 71 194 84Q206 97 209.50 109.50Q213 122 216 145Q220 166 221 179L253 447L335 447M325 547L280 513L221 587L149 513L108 547L232 671L325 547Z"  horiz-adv-x="354" vert-adv-y="1000"  />

      
      <glyph glyph-name="unifc" unicode="&#xfc;" d="M335 447L302 179Q296 130 289.50 103Q283 76 267 46.50Q251 17 221 4.50Q191-8 144-8Q33-8 33 102Q33 118 37 152L73 447L154 447L121 179Q116 144 116 117Q116 92 126.50 81.50Q137 71 162 71Q182 71 194 84Q206 97 209.50 109.50Q213 122 216 145Q220 166 221 179L253 447L335 447M334 569Q334 546 317 529.50Q300 513 278 513Q259 513 246.50 525.50Q234 538 234 557Q234 579 251 596Q268 613 291 613Q310 613 322 600.50Q334 588 334 569M188 569Q188 546 171 529.50Q154 513 132 513Q113 513 101 525.50Q89 538 89 557Q89 580 105.50 596.50Q122 613 145 613Q164 613 176 600.50Q188 588 188 569Z"  horiz-adv-x="354" vert-adv-y="1000"  />

      
      <glyph glyph-name="unifd" unicode="&#xfd;" d="M346 447L87-188L2-188L98 36L31 447L123 447L149 135L263 447L346 447M146 542L241 664L307 625L192 513L146 542Z"  horiz-adv-x="322" vert-adv-y="1000"  />

      
      <glyph glyph-name="unife" unicode="&#xfe;" d="M189 729L148 389Q167 422 186 438Q205 454 238 454Q320 454 320 328Q320 283 315.50 236.50Q311 190 298 129.50Q285 69 254.50 31Q224-7 179-7Q149-7 133.50 6Q118 19 106 50L76-188L-5-188L108 729L189 729M237 312Q237 379 196 379Q163 379 143 318Q119 236 119 138Q119 68 158 68Q196 68 215 136Q237 213 237 312Z"  horiz-adv-x="344" vert-adv-y="1000"  />

      
      <glyph glyph-name="uniff" unicode="&#xff;" d="M346 447L87-188L2-188L98 36L31 447L123 447L149 135L263 447L346 447M318 569Q318 546 301 529.50Q284 513 262 513Q243 513 230.50 525.50Q218 538 218 557Q218 579 235 596Q252 613 275 613Q294 613 306 600.50Q318 588 318 569M172 569Q172 546 155 529.50Q138 513 116 513Q97 513 85 525.50Q73 538 73 557Q73 580 89.50 596.50Q106 613 129 613Q148 613 160 600.50Q172 588 172 569Z"  horiz-adv-x="322" vert-adv-y="1000"  />

      
      <glyph glyph-name="uni0100" unicode="&#x0100;" d="M326 0L238 0L230 130L99 130L59 0L-27 0L198 667L267 667L326 0M120 199L225 199Q215 375 215 463Q215 512 216 537Q212 521 204.50 490.50Q197 460 193 444Q172 361 120 199M359 794L351 732L130 732L137 794L359 794Z"  horiz-adv-x="355" vert-adv-y="1000"  />

      
      <glyph glyph-name="uni0101" unicode="&#x0101;" d="M324 447L269 0L188 0L195 57Q177 25 157.50 9Q138-7 106-7Q23-7 23 123Q23 168 27.50 214.50Q32 261 45 320.50Q58 380 88.50 417Q119 454 163 454Q214 454 237 396L243 447L324 447M224 309Q224 379 186 379Q142 379 124 294Q106 211 106 139Q106 67 147 67Q186 67 204 143Q224 226 224 309M331 586L323 524L102 524L109 586L331 586Z"  horiz-adv-x="343" vert-adv-y="1000"  />

      
      <glyph glyph-name="uni0102" unicode="&#x0102;" d="M326 0L238 0L230 130L99 130L59 0L-27 0L198 667L267 667L326 0M120 199L225 199Q215 375 215 463Q215 512 216 537Q212 521 204.50 490.50Q197 460 193 444Q172 361 120 199M314 811L368 811Q358 766 321 742Q284 718 235 718Q187 718 156 741.50Q125 765 125 811L179 811Q189 776 242 776Q294 776 314 811Z"  horiz-adv-x="355" vert-adv-y="1000"  />

      
      <glyph glyph-name="uni0103" unicode="&#x0103;" d="M324 447L269 0L188 0L195 57Q177 25 157.50 9Q138-7 106-7Q23-7 23 123Q23 168 27.50 214.50Q32 261 45 320.50Q58 380 88.50 417Q119 454 163 454Q214 454 237 396L243 447L324 447M224 309Q224 379 186 379Q142 379 124 294Q106 211 106 139Q106 67 147 67Q186 67 204 143Q224 226 224 309M279 606L333 606Q323 561 286 537Q249 513 200 513Q152 513 121 536.50Q90 560 90 606L144 606Q154 571 207 571Q259 571 279 606Z"  horiz-adv-x="343" vert-adv-y="1000"  />

      
      <glyph glyph-name="uni0104" unicode="&#x0104;" d="M198 667L267 667L326 0L287 0Q281-7 262-36Q248-58 248-76Q248-92 258-98Q266-103 280-103Q304-103 322-95L315-146Q294-155 269-155Q230-155 210-136Q194-121 194-97Q194-71 210-42Q218-28 238 0L230 130L99 130L59 0L-27 0L198 667M120 199L225 199Q220 279 217 371Q215 441 215 469Q215 511 216 537Q192 440 169 357Q151 295 120 199Z"  horiz-adv-x="355" vert-adv-y="1000"  />

      
      <glyph glyph-name="uni0105" unicode="&#x0105;" d="M324 447L269 0L237 0Q231-7 212-36Q198-58 198-76Q198-92 208-98Q216-103 230-103Q254-103 272-95L265-146Q244-155 219-155Q180-155 160-136Q144-121 144-97Q144-71 160-42Q168-28 188 0L195 57Q181 29 162 13Q137-7 106-7Q76-7 57 10Q23 40 23 123Q23 202 33 263Q50 380 98 427Q125 454 163 454Q194 454 214 434Q229 419 237 396L243 447L324 447M186 379Q167 379 155 367Q132 346 118 264Q106 197 106 143Q106 92 121 77Q131 67 147 67Q163 67 174 78Q197 99 211 175Q224 245 224 304Q224 351 210 368Q200 379 186 379Z"  horiz-adv-x="343" vert-adv-y="1000"  />

      
      <glyph glyph-name="uni0106" unicode="&#x0106;" d="M360 656L351 575Q322 592 296 592Q219 592 180 495Q160 446 148.50 371.50Q137 297 137 236Q137 79 238 79Q266 79 291 92L281 10Q249-9 208-9Q42-9 42 216Q42 386 95 522Q122 591 170.50 633Q219 675 288 675Q330 675 360 656M239 762L334 884L400 845L285 733L239 762Z"  horiz-adv-x="332" vert-adv-y="1000"  />

      
      <glyph glyph-name="uni0107" unicode="&#x0107;" d="M252 438L241 354Q230 375 203 375Q175 375 156 351Q137 327 128.50 289.50Q120 252 117 222.50Q114 193 114 165Q114 147 115.50 134Q117 121 121.50 104.50Q126 88 137 79.50Q148 71 166 71Q187 71 209 88L199 11Q166-7 131-7Q73-7 48 35Q23 77 23 140Q23 248 55 341Q94 454 190 454Q223 454 252 438M149 542L244 664L310 625L195 513L149 542Z"  horiz-adv-x="249" vert-adv-y="1000"  />

      
      <glyph glyph-name="uni0108" unicode="&#x0108;" d="M360 656L351 575Q322 592 296 592Q219 592 180 495Q160 446 148.50 371.50Q137 297 137 236Q137 79 238 79Q266 79 291 92L281 10Q249-9 208-9Q42-9 42 216Q42 386 95 522Q122 591 170.50 633Q219 675 288 675Q330 675 360 656M398 761L353 727L294 801L222 727L181 761L305 885L398 761Z"  horiz-adv-x="332" vert-adv-y="1000"  />

      
      <glyph glyph-name="uni0109" unicode="&#x0109;" d="M252 438L241 354Q230 375 203 375Q175 375 156 351Q137 327 128.50 289.50Q120 252 117 222.50Q114 193 114 165Q114 147 115.50 134Q117 121 121.50 104.50Q126 88 137 79.50Q148 71 166 71Q187 71 209 88L199 11Q166-7 131-7Q73-7 48 35Q23 77 23 140Q23 248 55 341Q94 454 190 454Q223 454 252 438M308 547L263 513L204 587L132 513L91 547L215 671L308 547Z"  horiz-adv-x="249" vert-adv-y="1000"  />

      
      <glyph glyph-name="uni010A" unicode="&#x010A;" d="M360 656L351 575Q322 592 296 592Q219 592 180 495Q160 446 148.50 371.50Q137 297 137 236Q137 79 238 79Q266 79 291 92L281 10Q249-9 208-9Q42-9 42 216Q42 386 95 522Q122 591 170.50 633Q219 675 288 675Q330 675 360 656M351 780Q351 757 333 739Q315 721 292 721Q272 721 259 734.50Q246 748 246 767Q246 790 264 808Q282 826 305 826Q324 826 337.50 813Q351 800 351 780Z"  horiz-adv-x="332" vert-adv-y="1000"  />

      
      <glyph glyph-name="uni010B" unicode="&#x010B;" d="M252 438L241 354Q230 375 203 375Q175 375 156 351Q137 327 128.50 289.50Q120 252 117 222.50Q114 193 114 165Q114 147 115.50 134Q117 121 121.50 104.50Q126 88 137 79.50Q148 71 166 71Q187 71 209 88L199 11Q166-7 131-7Q73-7 48 35Q23 77 23 140Q23 248 55 341Q94 454 190 454Q223 454 252 438M253 572Q253 549 235 531Q217 513 194 513Q174 513 161 526.50Q148 540 148 559Q148 582 166 600Q184 618 207 618Q226 618 239.50 605Q253 592 253 572Z"  horiz-adv-x="249" vert-adv-y="1000"  />

      
      <glyph glyph-name="uni010C" unicode="&#x010C;" d="M360 656L351 575Q322 592 296 592Q219 592 180 495Q160 446 148.50 371.50Q137 297 137 236Q137 79 238 79Q266 79 291 92L281 10Q249-9 208-9Q42-9 42 216Q42 386 95 522Q122 591 170.50 633Q219 675 288 675Q330 675 360 656M419 851L296 727L202 851L251 885L305 811L382 885L419 851Z"  horiz-adv-x="332" vert-adv-y="1000"  />

      
      <glyph glyph-name="uni010D" unicode="&#x010D;" d="M252 438L241 354Q230 375 203 375Q175 375 156 351Q137 327 128.50 289.50Q120 252 117 222.50Q114 193 114 165Q114 147 115.50 134Q117 121 121.50 104.50Q126 88 137 79.50Q148 71 166 71Q187 71 209 88L199 11Q166-7 131-7Q73-7 48 35Q23 77 23 140Q23 248 55 341Q94 454 190 454Q223 454 252 438M319 637L196 513L102 637L151 671L205 597L282 671L319 637Z"  horiz-adv-x="249" vert-adv-y="1000"  />

      
      <glyph glyph-name="uni010E" unicode="&#x010E;" d="M104 667L213 667Q276 667 307 651Q389 609 389 457Q389 375 373 275.50Q357 176 328 116Q289 39 220 15Q177 0 94 0L23 0L104 667M121 78L124 78Q163 78 189.50 89.50Q216 101 237 131Q266 172 281 276Q296 380 296 458Q296 528 273.50 559.50Q251 591 184 591L121 78M355 851L232 727L138 851L187 885L241 811L318 885L355 851Z"  horiz-adv-x="405" vert-adv-y="1000"  />

      
      <glyph glyph-name="uni010F" unicode="&#x010F;" d="M359 729L269 0L188 0L195 57Q177 25 157.50 9Q138-7 106-7Q23-7 23 123Q23 158 25 193Q27 228 35.50 278Q44 328 58.50 364.50Q73 401 100 427.50Q127 454 164 454Q194 454 209.50 440Q225 426 237 396L277 729L359 729M224 309Q224 379 186 379Q142 379 124 294Q106 211 106 139Q106 67 147 67Q186 67 204 143Q224 226 224 309M506 667L414 478L371 495L438 688L506 667Z"  horiz-adv-x="496" vert-adv-y="1000"  />

      
      <glyph glyph-name="uni0110" unicode="&#x0110;" d="M105 667L213 667Q258 667 288 659Q318 651 342 624Q389 572 389 457Q389 311 356 194Q319 64 243 24Q197 0 94 0L23 0L62 320L12 320L21 393L71 393L105 667M151 320L121 78Q203 78 237 131Q265 175 280.50 279Q296 383 296 458Q296 522 275 556.50Q254 591 194 591L184 591L160 393L245 393L236 320L151 320Z"  horiz-adv-x="405" vert-adv-y="1000"  />

      
      <glyph glyph-name="uni0111" unicode="&#x0111;" d="M234 372L253 521L147 521L155 585L261 585L278 729L360 729L341 585L391 585L383 521L333 521L269 0L188 0L195 57Q183 30 162 12Q138-7 108-7Q75-7 55 13Q23 44 23 128Q23 209 41 284Q60 368 95 403Q122 430 159 430Q188 430 207 414Q224 398 234 372M184 354Q165 354 153 342Q135 324 121 260Q106 191 106 141Q106 92 121 77Q130 67 147 67Q164 67 177 80Q198 100 210 169Q222 247 222 282Q222 326 207 343Q196 354 184 354Z"  horiz-adv-x="358" vert-adv-y="1000"  />

      
      <glyph glyph-name="uni0112" unicode="&#x0112;" d="M339 667L330 591L184 591L158 379L288 379L278 303L148 303L121 76L267 76L258 0L23 0L104 667L339 667M349 794L341 732L120 732L127 794L349 794Z"  horiz-adv-x="316" vert-adv-y="1000"  />

      
      <glyph glyph-name="uni0113" unicode="&#x0113;" d="M206 151L282 151Q273 94 254 61Q236 29 204.50 11Q173-7 136-7Q23-7 23 141Q23 223 45 309Q83 454 190 454Q250 454 274.50 409Q299 364 299 299Q299 259 292 207L107 207Q103 167 103 148Q103 131 104 121Q105 111 108.50 95.50Q112 80 121.50 72Q131 64 146 64Q196 64 206 151M218 300L218 315Q218 384 180 384Q172 384 165.50 381.50Q159 379 153.50 373Q148 367 143.50 361.50Q139 356 135 346.50Q131 337 128.50 330.50Q126 324 123.50 312.50Q121 301 119.50 296Q118 291 116 280Q114 269 114 267L217 267Q218 278 218 300M314 586L306 524L85 524L92 586L314 586Z"  horiz-adv-x="321" vert-adv-y="1000"  />

      
      <glyph glyph-name="uni0116" unicode="&#x0116;" d="M339 667L330 591L184 591L158 379L288 379L278 303L148 303L121 76L267 76L258 0L23 0L104 667L339 667M283 780Q283 757 265 739Q247 721 224 721Q204 721 191 734.50Q178 748 178 767Q178 790 196 808Q214 826 237 826Q256 826 269.50 813Q283 800 283 780Z"  horiz-adv-x="316" vert-adv-y="1000"  />

      
      <glyph glyph-name="uni0117" unicode="&#x0117;" d="M206 151L282 151Q273 94 254 61Q236 29 204.50 11Q173-7 136-7Q23-7 23 141Q23 223 45 309Q83 454 190 454Q250 454 274.50 409Q299 364 299 299Q299 259 292 207L107 207Q103 167 103 148Q103 131 104 121Q105 111 108.50 95.50Q112 80 121.50 72Q131 64 146 64Q196 64 206 151M218 300L218 315Q218 384 180 384Q172 384 165.50 381.50Q159 379 153.50 373Q148 367 143.50 361.50Q139 356 135 346.50Q131 337 128.50 330.50Q126 324 123.50 312.50Q121 301 119.50 296Q118 291 116 280Q114 269 114 267L217 267Q218 278 218 300M254 572Q254 549 236 531Q218 513 195 513Q176 513 162.50 526.50Q149 540 149 559Q149 582 167 600Q185 618 208 618Q228 618 241 605Q254 592 254 572Z"  horiz-adv-x="321" vert-adv-y="1000"  />

      
      <glyph glyph-name="uni0118" unicode="&#x0118;" d="M339 667L330 591L184 591L158 379L288 379L278 303L148 303L121 76L267 76L258 0L222 0Q216-7 197-36Q183-58 183-76Q183-92 193-98Q200-103 215-103Q239-103 257-95L250-146Q229-155 204-155Q165-155 145-136Q129-121 129-97Q129-71 145-42Q153-28 173 0L23 0L104 667L339 667Z"  horiz-adv-x="316" vert-adv-y="1000"  />

      
      <glyph glyph-name="uni0119" unicode="&#x0119;" d="M206 151L282 151Q273 84 237 32Q226 16 210.50-4Q195-24 188-36Q174-62 174-76Q174-92 184-98Q192-103 206-103Q230-103 248-95L241-146Q220-155 195-155Q156-155 136-136Q120-121 120-97Q120-71 136-42Q150-19 162-5Q93-15 59 21Q23 57 23 143Q23 219 42 298Q63 383 104 421Q140 454 190 454Q237 454 264 423Q314 366 295 230L292 207L107 207Q103 187 103 149Q103 93 119 75Q129 64 147 64Q165 64 178 77Q200 97 206 151M114 267L217 267Q223 353 205 373Q197 384 182 384Q164 384 152 372Q136 356 126 322Q123 313 114 267Z"  horiz-adv-x="321" vert-adv-y="1000"  />

      
      <glyph glyph-name="uni011A" unicode="&#x011A;" d="M339 667L330 591L184 591L158 379L288 379L278 303L148 303L121 76L267 76L258 0L23 0L104 667L339 667M349 851L226 727L132 851L181 885L235 811L312 885L349 851Z"  horiz-adv-x="316" vert-adv-y="1000"  />

      
      <glyph glyph-name="uni011B" unicode="&#x011B;" d="M206 151L282 151Q273 94 254 61Q236 29 204.50 11Q173-7 136-7Q23-7 23 141Q23 223 45 309Q83 454 190 454Q250 454 274.50 409Q299 364 299 299Q299 259 292 207L107 207Q103 167 103 148Q103 131 104 121Q105 111 108.50 95.50Q112 80 121.50 72Q131 64 146 64Q196 64 206 151M218 300L218 315Q218 384 180 384Q172 384 165.50 381.50Q159 379 153.50 373Q148 367 143.50 361.50Q139 356 135 346.50Q131 337 128.50 330.50Q126 324 123.50 312.50Q121 301 119.50 296Q118 291 116 280Q114 269 114 267L217 267Q218 278 218 300M320 637L197 513L103 637L152 671L206 597L283 671L320 637Z"  horiz-adv-x="321" vert-adv-y="1000"  />

      
      <glyph glyph-name="uni011C" unicode="&#x011C;" d="M402 539L315 504Q313 532 309.50 548.50Q306 565 291.50 580.50Q277 596 251 596Q221 596 205 577.50Q189 559 178 526Q157 465 143.50 358.50Q130 252 130 176Q130 152 131 139.50Q132 127 137.50 109.50Q143 92 156 83.50Q169 75 191 75Q256 75 276 181Q285 220 290 275L214 275L223 351L384 351Q383 344 379.50 310Q376 276 374.50 263Q373 250 367.50 216.50Q362 183 357.50 167.50Q353 152 344 123Q335 94 325 79.50Q315 65 300.50 45Q286 25 269 15.50Q252 6 229.50-1.50Q207-9 181-9Q137-9 107.50 7Q78 23 64 53.50Q50 84 45 115.50Q40 147 40 190Q40 307 68 445Q76 485 83.50 513Q91 541 106.50 574Q122 607 141.50 627.50Q161 648 192 661.50Q223 675 263 675Q329 675 360.50 641Q392 607 402 539M378 761L333 727L274 801L202 727L161 761L285 885L378 761Z"  horiz-adv-x="406" vert-adv-y="1000"  />

      
      <glyph glyph-name="uni011D" unicode="&#x011D;" d="M325 447L268-14Q260-84 245-116Q210-188 112-188Q58-188 28.50-160.50Q-1-133-1-79Q-1-63 2-47L81-47Q79-61 79-68Q79-91 91-105Q103-119 125-119Q143-119 155-111.50Q167-104 172.50-89Q178-74 180.50-62.50Q183-51 185-32L195 55Q162-7 108-7Q61-7 41.50 30.50Q22 68 22 121Q22 234 52 342Q85 454 164 454Q193 454 209 438.50Q225 423 237 393L243 447L325 447M223 301Q223 379 182 379Q159 379 143 349Q127 319 120 275Q113 231 110 197Q107 163 107 139Q107 67 149 67Q179 67 193 103Q206 134 214.50 196Q223 258 223 301M314 547L269 513L210 587L138 513L97 547L221 671L314 547Z"  horiz-adv-x="344" vert-adv-y="1000"  />

      
      <glyph glyph-name="uni011E" unicode="&#x011E;" d="M402 539L315 504Q313 532 309.50 548.50Q306 565 291.50 580.50Q277 596 251 596Q221 596 205 577.50Q189 559 178 526Q157 465 143.50 358.50Q130 252 130 176Q130 152 131 139.50Q132 127 137.50 109.50Q143 92 156 83.50Q169 75 191 75Q256 75 276 181Q285 220 290 275L214 275L223 351L384 351Q383 344 379.50 310Q376 276 374.50 263Q373 250 367.50 216.50Q362 183 357.50 167.50Q353 152 344 123Q335 94 325 79.50Q315 65 300.50 45Q286 25 269 15.50Q252 6 229.50-1.50Q207-9 181-9Q137-9 107.50 7Q78 23 64 53.50Q50 84 45 115.50Q40 147 40 190Q40 307 68 445Q76 485 83.50 513Q91 541 106.50 574Q122 607 141.50 627.50Q161 648 192 661.50Q223 675 263 675Q329 675 360.50 641Q392 607 402 539M344 811L398 811Q388 766 351 742Q314 718 265 718Q217 718 186 741.50Q155 765 155 811L209 811Q219 776 272 776Q324 776 344 811Z"  horiz-adv-x="406" vert-adv-y="1000"  />

      
      <glyph glyph-name="uni011F" unicode="&#x011F;" d="M325 447L268-14Q260-84 245-116Q210-188 112-188Q58-188 28.50-160.50Q-1-133-1-79Q-1-63 2-47L81-47Q79-61 79-68Q79-91 91-105Q103-119 125-119Q143-119 155-111.50Q167-104 172.50-89Q178-74 180.50-62.50Q183-51 185-32L195 55Q162-7 108-7Q61-7 41.50 30.50Q22 68 22 121Q22 234 52 342Q85 454 164 454Q193 454 209 438.50Q225 423 237 393L243 447L325 447M223 301Q223 379 182 379Q159 379 143 349Q127 319 120 275Q113 231 110 197Q107 163 107 139Q107 67 149 67Q179 67 193 103Q206 134 214.50 196Q223 258 223 301M280 606L334 606Q324 561 287 537Q250 513 201 513Q153 513 122 536.50Q91 560 91 606L145 606Q155 571 208 571Q260 571 280 606Z"  horiz-adv-x="344" vert-adv-y="1000"  />

      
      <glyph glyph-name="uni0120" unicode="&#x0120;" d="M402 539L315 504Q313 532 309.50 548.50Q306 565 291.50 580.50Q277 596 251 596Q221 596 205 577.50Q189 559 178 526Q157 465 143.50 358.50Q130 252 130 176Q130 152 131 139.50Q132 127 137.50 109.50Q143 92 156 83.50Q169 75 191 75Q256 75 276 181Q285 220 290 275L214 275L223 351L384 351Q383 344 379.50 310Q376 276 374.50 263Q373 250 367.50 216.50Q362 183 357.50 167.50Q353 152 344 123Q335 94 325 79.50Q315 65 300.50 45Q286 25 269 15.50Q252 6 229.50-1.50Q207-9 181-9Q137-9 107.50 7Q78 23 64 53.50Q50 84 45 115.50Q40 147 40 190Q40 307 68 445Q76 485 83.50 513Q91 541 106.50 574Q122 607 141.50 627.50Q161 648 192 661.50Q223 675 263 675Q329 675 360.50 641Q392 607 402 539M327 780Q327 757 309 739Q291 721 268 721Q248 721 235 734.50Q222 748 222 767Q222 790 240 808Q258 826 281 826Q300 826 313.50 813Q327 800 327 780Z"  horiz-adv-x="406" vert-adv-y="1000"  />

      
      <glyph glyph-name="uni0121" unicode="&#x0121;" d="M325 447L268-14Q260-84 245-116Q210-188 112-188Q58-188 28.50-160.50Q-1-133-1-79Q-1-63 2-47L81-47Q79-61 79-68Q79-91 91-105Q103-119 125-119Q143-119 155-111.50Q167-104 172.50-89Q178-74 180.50-62.50Q183-51 185-32L195 55Q162-7 108-7Q61-7 41.50 30.50Q22 68 22 121Q22 234 52 342Q85 454 164 454Q193 454 209 438.50Q225 423 237 393L243 447L325 447M223 301Q223 379 182 379Q159 379 143 349Q127 319 120 275Q113 231 110 197Q107 163 107 139Q107 67 149 67Q179 67 193 103Q206 134 214.50 196Q223 258 223 301M235 572Q235 549 217 531Q199 513 176 513Q156 513 143 526.50Q130 540 130 559Q130 582 148 600Q166 618 189 618Q208 618 221.50 605Q235 592 235 572Z"  horiz-adv-x="344" vert-adv-y="1000"  />

      
      <glyph glyph-name="uni0122" unicode="&#x0122;" d="M402 539L315 504Q313 532 309.50 548.50Q306 565 291.50 580.50Q277 596 251 596Q221 596 205 577.50Q189 559 178 526Q157 465 143.50 358.50Q130 252 130 176Q130 152 131 139.50Q132 127 137.50 109.50Q143 92 156 83.50Q169 75 191 75Q256 75 276 181Q285 220 290 275L214 275L223 351L384 351Q383 344 379.50 310Q376 276 374.50 263Q373 250 367.50 216.50Q362 183 357.50 167.50Q353 152 344 123Q335 94 325 79.50Q315 65 300.50 45Q286 25 269 15.50Q252 6 229.50-1.50Q207-9 181-9Q137-9 107.50 7Q78 23 64 53.50Q50 84 45 115.50Q40 147 40 190Q40 307 68 445Q76 485 83.50 513Q91 541 106.50 574Q122 607 141.50 627.50Q161 648 192 661.50Q223 675 263 675Q329 675 360.50 641Q392 607 402 539M220-69L147-223L104-210L152-48L220-69Z"  horiz-adv-x="406" vert-adv-y="1000"  />

      
      <glyph glyph-name="uni0123" unicode="&#x0123;" d="M325 447L268-14Q260-84 245-116Q210-188 112-188Q58-188 28.50-160.50Q-1-133-1-79Q-1-63 2-47L81-47Q79-61 79-68Q79-91 91-105Q103-119 125-119Q143-119 155-111.50Q167-104 172.50-89Q178-74 180.50-62.50Q183-51 185-32L195 55Q162-7 108-7Q61-7 41.50 30.50Q22 68 22 121Q22 234 52 342Q85 454 164 454Q193 454 209 438.50Q225 423 237 393L243 447L325 447M223 301Q223 379 182 379Q159 379 143 349Q127 319 120 275Q113 231 110 197Q107 163 107 139Q107 67 149 67Q179 67 193 103Q206 134 214.50 196Q223 258 223 301M142 508L221 673L264 660L210 487L142 508Z"  horiz-adv-x="344" vert-adv-y="1000"  />

      
      <glyph glyph-name="uni0124" unicode="&#x0124;" d="M411 667L329 0L241 0L281 330L152 330L111 0L23 0L104 667L193 667L161 406L290 406L322 667L411 667M378 761L333 727L274 801L202 727L161 761L285 885L378 761Z"  horiz-adv-x="408" vert-adv-y="1000"  />

      
      <glyph glyph-name="uni0125" unicode="&#x0125;" d="M189 729L148 395Q189 454 245 454Q282 454 302 433Q322 412 322 375Q322 356 318 318L279 0L197 0L234 299Q234 303 235 310.50Q236 318 236.50 324Q237 330 237 335Q237 382 197 382Q179 382 167 374Q155 366 149 349.50Q143 333 140.50 321Q138 309 135 289L99 0L18 0L108 729L189 729M263 797L218 763L159 837L87 763L46 797L170 921L263 797Z"  horiz-adv-x="353" vert-adv-y="1000"  />

      
      <glyph glyph-name="uni0126" unicode="&#x0126;" d="M329 0L239 0L280 330L152 330L111 0L21 0L88 550L40 550L48 614L96 614L103 667L193 667L186 614L314 614L321 667L411 667L405 614L453 614L445 550L397 550L329 0M307 550L179 550L161 406L289 406L307 550Z"  horiz-adv-x="408" vert-adv-y="1000"  />

      
      <glyph glyph-name="uni0127" unicode="&#x0127;" d="M24 0L86 521L36 521L44 585L94 585L113 729L194 729L177 585L283 585L275 521L169 521L151 370Q192 429 248 429Q285 429 305 408Q325 387 325 350Q325 331 321 293L285 0L203 0L237 275Q237 279 238 286.50Q239 294 239.50 300Q240 306 240 311Q240 358 200 358Q182 358 170 350Q158 342 152 325.50Q146 309 143.50 297Q141 285 138 265L105 0L24 0Z"  horiz-adv-x="359" vert-adv-y="1000"  />

      
      <glyph glyph-name="uni012A" unicode="&#x012A;" d="M193 667L111 0L23 0L104 667L193 667M274 794L266 732L45 732L52 794L274 794Z"  horiz-adv-x="190" vert-adv-y="1000"  />

      
      <glyph glyph-name="uni012B" unicode="&#x012B;" d="M154 447L99 0L18 0L73 447L154 447M239 586L231 524L10 524L17 586L239 586Z"  horiz-adv-x="173" vert-adv-y="1000"  />

      
      <glyph glyph-name="uni012E" unicode="&#x012E;" d="M193 667L111 0Q109-2 80-36Q64-54 64-76Q64-91 74-98Q82-103 92-103Q115-103 134-95L127-146Q107-155 81-155Q47-155 26-136Q10-121 10-97Q10-70 28-42Q40-22 62 0L23 0L104 667L193 667Z"  horiz-adv-x="190" vert-adv-y="1000"  />

      
      <glyph glyph-name="uni012F" unicode="&#x012F;" d="M182 587Q182 562 163 543.50Q144 525 119 525Q99 525 85 539.50Q71 554 71 574Q71 599 90 618Q109 637 134 637Q155 637 168.50 622.50Q182 608 182 587M134-95L127-146Q106-155 81-155Q42-155 22-136Q6-121 6-97Q6-71 22-42Q30-28 50 0L18 0L73 447L154 447L99 0Q93-7 74-36Q60-58 60-76Q60-92 70-98Q78-103 92-103Q116-103 134-95Z"  horiz-adv-x="173" vert-adv-y="1000"  />

      
      <glyph glyph-name="uni0130" unicode="&#x0130;" d="M193 667L111 0L23 0L104 667L193 667M213 780Q213 757 195 739Q177 721 154 721Q134 721 121 734.50Q108 748 108 767Q108 790 126 808Q144 826 167 826Q186 826 199.50 813Q213 800 213 780Z"  horiz-adv-x="190" vert-adv-y="1000"  />

      
      <glyph glyph-name="uni0131" unicode="&#x0131;" d="M154 447L99 0L18 0L73 447L154 447Z"  horiz-adv-x="173" vert-adv-y="1000"  />

      
      <glyph glyph-name="uni0134" unicode="&#x0134;" d="M258 667L195 155Q187 96 175 69Q158 31 123 11Q88-9 44-9Q1-9-29 9L-18 99Q18 76 38 76Q59 76 73 84.50Q87 93 93.50 108.50Q100 124 103.50 139.50Q107 155 109 175Q110 182 110 186L169 667L258 667M328 761L283 727L224 801L152 727L111 761L235 885L328 761Z"  horiz-adv-x="255" vert-adv-y="1000"  />

      
      <glyph glyph-name="uni0135" unicode="&#x0135;" d="M155 447L77-188L-5-188L74 447L155 447M228 547L183 513L124 587L52 513L11 547L135 671L228 547Z"  horiz-adv-x="174" vert-adv-y="1000"  />

      
      <glyph glyph-name="uni0136" unicode="&#x0136;" d="M405 667L231 342L326 0L234 0L150 327L111 0L23 0L104 667L193 667L155 361L313 667L405 667M215-69L142-223L99-210L147-48L215-69Z"  horiz-adv-x="366" vert-adv-y="1000"  />

      
      <glyph glyph-name="uni0137" unicode="&#x0137;" d="M349 447L207 240L309 0L217 0L127 222L99 0L18 0L108 729L189 729L131 256L255 447L349 447M195-69L116-234L73-221L127-48L195-69Z"  horiz-adv-x="341" vert-adv-y="1000"  />

      
      <glyph glyph-name="uni0139" unicode="&#x0139;" d="M265 76L256 0L23 0L104 667L193 667L121 76L265 76M119 762L214 884L280 845L165 733L119 762Z"  horiz-adv-x="288" vert-adv-y="1000"  />

      
      <glyph glyph-name="uni013A" unicode="&#x013A;" d="M188 729L99 0L18 0L107 729L188 729M109 792L204 914L270 875L155 763L109 792Z"  horiz-adv-x="172" vert-adv-y="1000"  />

      
      <glyph glyph-name="uni013B" unicode="&#x013B;" d="M265 76L256 0L23 0L104 667L193 667L121 76L265 76M180-69L107-223L64-210L112-48L180-69Z"  horiz-adv-x="288" vert-adv-y="1000"  />

      
      <glyph glyph-name="uni013C" unicode="&#x013C;" d="M188 729L99 0L18 0L107 729L188 729M100-69L21-234L-22-221L32-48L100-69Z"  horiz-adv-x="172" vert-adv-y="1000"  />

      
      <glyph glyph-name="uni013D" unicode="&#x013D;" d="M265 76L256 0L23 0L104 667L193 667L121 76L265 76M376 667L282 478L239 491L308 688L376 667Z"  horiz-adv-x="366" vert-adv-y="1000"  />

      
      <glyph glyph-name="uni013E" unicode="&#x013E;" d="M188 729L99 0L18 0L107 729L188 729M336 667L244 478L201 495L268 688L336 667Z"  horiz-adv-x="326" vert-adv-y="1000"  />

      
      <glyph glyph-name="uni013F" unicode="&#x013F;" d="M265 76L256 0L23 0L104 667L193 667L121 76L265 76M306 341Q306 318 288 300Q270 282 247 282Q228 282 214.50 295Q201 308 201 328Q201 351 219 369Q237 387 260 387Q280 387 293 373.50Q306 360 306 341Z"  horiz-adv-x="288" vert-adv-y="1000"  />

      
      <glyph glyph-name="uni0140" unicode="&#x0140;" d="M188 729L99 0L18 0L107 729L188 729M296 372Q296 349 278 331Q260 313 237 313Q218 313 204.50 326.50Q191 340 191 359Q191 382 209 400Q227 418 250 418Q270 418 283 405Q296 392 296 372Z"  horiz-adv-x="276" vert-adv-y="1000"  />

      
      <glyph glyph-name="uni0141" unicode="&#x0141;" d="M265 76L256 0L23 0L54 257L-1 216L10 305L65 347L104 667L193 667L159 390L264 465L253 375L148 301L121 76L265 76Z"  horiz-adv-x="288" vert-adv-y="1000"  />

      
      <glyph glyph-name="uni0142" unicode="&#x0142;" d="M215 480L204 394L149 349L106 0L25 0L62 307L7 264L18 350L73 393L114 729L195 729L159 435L215 480Z"  horiz-adv-x="187" vert-adv-y="1000"  />

      
      <glyph glyph-name="uni0143" unicode="&#x0143;" d="M410 667L329 0L246 0L184 300Q171 361 164 413Q161 431 158.50 465.50Q156 500 154 513L154 497Q154 468 150 412Q142 297 110 0L23 0L104 667L187 667L242 400Q270 262 280 160L280 270Q280 328 291 418L322 667L410 667M214 762L309 884L375 845L260 733L214 762Z"  horiz-adv-x="407" vert-adv-y="1000"  />

      
      <glyph glyph-name="uni0144" unicode="&#x0144;" d="M154 447L148 395Q189 454 245 454Q282 454 302 433Q322 412 322 375Q322 356 318 318L279 0L197 0L234 299Q234 303 235 310.50Q236 318 236.50 324Q237 330 237 335Q237 382 197 382Q179 382 167 374Q155 366 149 349.50Q143 333 140.50 321Q138 309 135 289L99 0L18 0L73 447L154 447M154 542L249 664L315 625L200 513L154 542Z"  horiz-adv-x="353" vert-adv-y="1000"  />

      
      <glyph glyph-name="uni0145" unicode="&#x0145;" d="M410 667L329 0L246 0L184 300Q171 361 164 413Q161 431 158.50 465.50Q156 500 154 513L154 497Q154 468 150 412Q142 297 110 0L23 0L104 667L187 667L242 400Q270 262 280 160L280 270Q280 328 291 418L322 667L410 667M215-69L142-223L99-210L147-48L215-69Z"  horiz-adv-x="407" vert-adv-y="1000"  />

      
      <glyph glyph-name="uni0146" unicode="&#x0146;" d="M154 447L148 395Q189 454 245 454Q282 454 302 433Q322 412 322 375Q322 356 318 318L279 0L197 0L234 299Q234 303 235 310.50Q236 318 236.50 324Q237 330 237 335Q237 382 197 382Q179 382 167 374Q155 366 149 349.50Q143 333 140.50 321Q138 309 135 289L99 0L18 0L73 447L154 447M187-69L108-234L65-221L119-48L187-69Z"  horiz-adv-x="353" vert-adv-y="1000"  />

      
      <glyph glyph-name="uni0147" unicode="&#x0147;" d="M410 667L329 0L246 0L184 300Q171 361 164 413Q161 431 158.50 465.50Q156 500 154 513L154 497Q154 468 150 412Q142 297 110 0L23 0L104 667L187 667L242 400Q270 262 280 160L280 270Q280 328 291 418L322 667L410 667M383 851L260 727L166 851L215 885L269 811L346 885L383 851Z"  horiz-adv-x="407" vert-adv-y="1000"  />

      
      <glyph glyph-name="uni0148" unicode="&#x0148;" d="M154 447L148 395Q189 454 245 454Q282 454 302 433Q322 412 322 375Q322 356 318 318L279 0L197 0L234 299Q234 303 235 310.50Q236 318 236.50 324Q237 330 237 335Q237 382 197 382Q179 382 167 374Q155 366 149 349.50Q143 333 140.50 321Q138 309 135 289L99 0L18 0L73 447L154 447M344 637L221 513L127 637L176 671L230 597L307 671L344 637Z"  horiz-adv-x="353" vert-adv-y="1000"  />

      
      <glyph glyph-name="uni014C" unicode="&#x014C;" d="M403 489Q403 313 362 166Q339 85 298 38Q257-9 182-9Q41-9 41 171Q41 337 73 476Q93 566 136 620.50Q179 675 261 675Q403 675 403 489M311 495Q311 513 310.50 522.50Q310 532 307 548Q304 564 298.50 572.50Q293 581 281 587.50Q269 594 252 594Q201 594 178 528Q171 509 166 490Q161 471 156.50 444.50Q152 418 150.50 407.50Q149 397 145 361.50Q141 326 141 322Q130 232 130 175Q130 74 189 74Q224 74 241.50 97Q259 120 270 161Q287 228 298 325Q311 429 311 495M389 794L381 732L160 732L167 794L389 794Z"  horiz-adv-x="416" vert-adv-y="1000"  />

      
      </font>
</defs>
</svg>
