<?xml version="1.0" standalone="no"?>
  <!DOCTYPE svg PUBLIC "-//W3C//DTD SVG 1.1//EN" "http://www.w3.org/Graphics/SVG/1.1/DTD/svg11.dtd" >
  <svg>
  <metadata>
  Created by font-carrier
  </metadata>
  <defs>
  <font id="FuturaPT-LightObl" horiz-adv-x="1075" vert-adv-y="1075" >
    <font-face
      
      font-family="Futura PT Light Italic"
      
      font-weight="400"
      
      font-stretch="normal"
      
      units-per-em="1000"
      
      ascent="982"
      
      descent="-300"
      
    />
      <missing-glyph />

      

      
      <glyph glyph-name="uni21" unicode="&#x21;" d="M167 119L123 119L190 667L234 667L167 119M97 25Q97 45 110 56Q123 67 138 67Q151 67 161 59Q171 50 171 35Q171 17 159 5Q147-7 129-7Q118-7 107 1Q97 9 97 25Z"  horiz-adv-x="260" vert-adv-y="1000"  />

      
      <glyph glyph-name="uni22" unicode="&#x22;" d="M186 667L146 398L116 398L142 667L186 667M302 667L262 398L232 398L258 667L302 667Z"  horiz-adv-x="280" vert-adv-y="1000"  />

      
      <glyph glyph-name="uni23" unicode="&#x23;" d="M375 0L335 0L395 221L231 221L171 0L131 0L191 221L73 221L84 259L202 259L246 420L128 420L138 458L256 458L314 667L354 667L296 458L460 458L518 667L558 667L500 458L618 458L608 420L490 420L446 259L564 259L553 221L435 221L375 0M406 259L450 420L286 420L242 259L406 259Z"  horiz-adv-x="600" vert-adv-y="1000"  />

      
      <glyph glyph-name="uni24" unicode="&#x24;" d="M514 590L479 563Q466 594 442 612Q419 630 385 635L352 366L382 350Q433 323 459 295Q501 251 501 193Q501 151 484.50 110Q468 69 440 43Q387-8 306-8L294-107L254-107L266-11Q183-9 139 38Q103 76 87 132L127 150Q139 98 171 67Q211 29 271 29L309 339L285 352Q231 381 207 407Q172 445 172 503Q172 578 216 625Q266 678 350 676L361 765L401 765L390 675Q433 669 466 646Q494 626 514 590M346 319L311 32Q370 35 409 72Q429 92 441.50 124.50Q454 157 454 185Q454 233 419 271Q398 293 360 312L346 319M314 386L345 636Q287 640 250 598Q219 562 219 508Q219 460 250 429Q272 407 314 386Z"  horiz-adv-x="548" vert-adv-y="1000"  />

      
      <glyph glyph-name="uni25" unicode="&#x25;" d="M92 1L570 682L598 666L120-15L92 1M461 256Q520 256 558 218Q591 185 591 136Q591 72 552 33Q514-6 445-6Q386-6 353 26Q318 61 318 112Q318 172 357 213Q398 256 461 256M448 30Q492 30 520 57Q550 87 550 135Q550 172 529 194Q505 220 462 220Q417 220 388 191Q359 162 359 117Q359 80 382 55Q406 30 448 30M243 673Q302 673 340 635Q373 602 373 553Q373 489 334 450Q296 411 227 411Q168 411 135 443Q100 478 100 529Q100 589 139 630Q180 673 243 673M230 447Q274 447 302 474Q332 504 332 552Q332 589 311 611Q287 637 244 637Q199 637 170 608Q141 579 141 534Q141 497 164 472Q188 447 230 447Z"  horiz-adv-x="608" vert-adv-y="1000"  />

      
      <glyph glyph-name="uni26" unicode="&#x26;" d="M599 266L625 235Q590 194 531 138L616 0L560 0L496 105L469 77Q437 44 389 18Q328-13 259-13Q177-13 132 33Q86 81 86 155Q86 233 145 290Q171 315 258 367L316 402L295 444Q266 504 266 544Q266 602 305 641Q342 679 401 679Q461 679 493 645Q521 615 521 567Q521 509 475 463Q453 441 420 419L376 390L510 173Q554 213 599 266M475 140L336 368L272 331Q210 294 181 266Q132 217 132 153Q132 98 167 63Q203 27 269 27Q325 27 372 54Q422 85 445 109L475 140M333 466L355 424L401 453Q435 474 454 499Q477 527 477 567Q477 600 454 619Q432 637 399 637Q362 637 338 614Q311 587 311 543Q311 508 333 466Z"  horiz-adv-x="617" vert-adv-y="1000"  />

      
      <glyph glyph-name="uni27" unicode="&#x27;" d="M186 667L146 398L116 398L142 667L186 667Z"  horiz-adv-x="164" vert-adv-y="1000"  />

      
      <glyph glyph-name="uni28" unicode="&#x28;" d="M265 740L300 717Q254 599 230 504Q171 280 171 100Q171-24 193-137L151-160Q124-32 124 109Q124 306 188 527Q220 636 265 740Z"  horiz-adv-x="282" vert-adv-y="1000"  />

      
      <glyph glyph-name="uni29" unicode="&#x29;" d="M158 717L199 740Q227 600 227 470Q227 273 173 72Q139-53 89-160L51-137Q90-45 121 65Q181 280 181 468Q181 597 158 717Z"  horiz-adv-x="282" vert-adv-y="1000"  />

      
      <glyph glyph-name="uni2a" unicode="&#x2a;" d="M209 640L328 596L342 729L386 729L366 596L497 640L506 599L373 561L441 455L403 430L340 540L251 430L219 455L313 561L190 599L209 640Z"  horiz-adv-x="548" vert-adv-y="1000"  />

      
      <glyph glyph-name="uni2b" unicode="&#x2b;" d="M71 310L71 348L268 348L268 530L308 530L308 348L505 348L505 310L308 310L308 128L268 128L268 310L71 310Z"  horiz-adv-x="500" vert-adv-y="1000"  />

      
      <glyph glyph-name="uni2c" unicode="&#x2c;" d="M21-137L106 65L145 53L46-147L21-137Z"  horiz-adv-x="228" vert-adv-y="1000"  />

      
      <glyph glyph-name="uni2d" unicode="&#x2d;" d="M73 184L78 230L278 230L273 184L73 184Z"  horiz-adv-x="300" vert-adv-y="1000"  />

      
      <glyph glyph-name="uni2e" unicode="&#x2e;" d="M68 25Q68 45 81 56Q94 67 109 67Q122 67 132 59Q142 50 142 35Q142 17 130 5Q118-7 100-7Q89-7 78 1Q68 9 68 25Z"  horiz-adv-x="202" vert-adv-y="1000"  />

      
      <glyph glyph-name="uni2f" unicode="&#x2f;" d="M1-158L615 743L645 727L31-174L1-158Z"  horiz-adv-x="576" vert-adv-y="1000"  />

      
      <glyph glyph-name="uni30" unicode="&#x30;" d="M351 676Q430 676 482 622Q557 544 557 393Q557 310 529.50 215.50Q502 121 437 58Q368-11 271-11Q195-11 145 39Q108 76 87 137.50Q66 199 66 271Q66 362 95.50 451Q125 540 183 600Q256 676 351 676M272 29Q346 29 401 82Q458 138 484.50 227.50Q511 317 511 397Q511 525 449 593Q409 636 347 636Q274 636 219 579Q168 527 139.50 442.50Q111 358 111 272Q111 133 176 68Q215 29 272 29Z"  horiz-adv-x="548" vert-adv-y="1000"  />

      
      <glyph glyph-name="uni31" unicode="&#x31;" d="M272 0L349 627L245 627L270 667L398 667L316 0L272 0Z"  horiz-adv-x="548" vert-adv-y="1000"  />

      
      <glyph glyph-name="uni32" unicode="&#x32;" d="M471 0L60 0L351 282Q424 355 448 388Q489 445 489 506Q489 560 453 596Q413 636 345 636Q272 636 230 592Q187 547 182 478L138 478Q146 565 198 618Q254 676 347 676Q432 676 484 629Q535 583 535 511Q535 438 487 372Q465 338 378 254L158 40L476 40L471 0Z"  horiz-adv-x="548" vert-adv-y="1000"  />

      
      <glyph glyph-name="uni33" unicode="&#x33;" d="M94 162L138 162Q143 102 178 65Q213 29 274 29Q344 29 387 76Q432 126 432 201Q432 264 394 297Q358 329 300 326L305 366Q375 366 420 409Q462 449 462 517Q462 572 428 604Q394 636 339 636Q278 636 242 597Q211 563 203 508L161 508Q169 581 215 627Q264 676 344 676Q420 676 466 630Q509 587 509 520Q509 454 474 410Q441 368 383 348Q428 334 454 294Q479 256 479 206Q479 112 422 50Q365-11 271-11Q193-11 147 36Q101 83 94 162Z"  horiz-adv-x="548" vert-adv-y="1000"  />

      
      <glyph glyph-name="uni34" unicode="&#x34;" d="M500 689L436 167L529 167L524 127L431 127L415 0L371 0L387 127L28 127L500 689M113 167L392 167L440 557L113 167Z"  horiz-adv-x="548" vert-adv-y="1000"  />

      
      <glyph glyph-name="uni35" unicode="&#x35;" d="M552 667L547 627L323 627L245 447Q270 453 296 453Q387 453 440 402Q497 348 497 254Q497 132 423 58Q355-11 235-11Q164-11 113 22Q69 51 42 99L83 115Q106 74 142 53Q180 29 246 29Q334 29 391 87Q450 149 450 245Q450 322 406 366Q361 413 286 413Q227 413 176 384L297 667L552 667Z"  horiz-adv-x="548" vert-adv-y="1000"  />

      
      <glyph glyph-name="uni36" unicode="&#x36;" d="M382 676L413 650L239 440Q272 456 316 456Q415 456 477 396Q538 337 538 244Q538 192 518 141Q498 90 465 56Q399-11 286-11Q183-11 122 50Q59 113 59 209Q59 276 89 330Q109 366 187 455L382 676M288 29Q375 29 429 82Q491 144 491 240Q491 318 439 368Q387 416 304 416Q222 416 168 365Q106 307 106 212Q106 130 157 79Q207 29 288 29Z"  horiz-adv-x="548" vert-adv-y="1000"  />

      
      <glyph glyph-name="uni37" unicode="&#x37;" d="M56 14L529 627L126 627L131 667L614 667L88-11L56 14Z"  horiz-adv-x="548" vert-adv-y="1000"  />

      
      <glyph glyph-name="uni38" unicode="&#x38;" d="M399 344Q438 329 462 296Q490 257 490 198Q490 105 433 46Q378-11 282-11Q197-11 148 39Q100 89 100 158Q100 229 139 282Q175 331 231 346Q197 368 177 401Q155 436 155 478Q155 564 206 618Q261 676 348 676Q419 676 466 633Q512 589 512 517Q512 453 479 406Q450 365 399 344M322 365Q383 365 422 404Q466 446 466 516Q466 574 429 606Q396 636 342 636Q282 636 246 600Q202 558 202 483Q202 431 235 398Q270 365 322 365M280 29Q358 29 401 76Q444 122 444 197Q444 256 406 292Q369 327 307 327Q237 327 195 286Q147 240 147 164Q147 108 182 69Q218 29 280 29Z"  horiz-adv-x="548" vert-adv-y="1000"  />

      
      <glyph glyph-name="uni39" unicode="&#x39;" d="M243-11L212 15L383 222Q338 208 302 208Q208 208 147 270Q87 330 87 421Q87 532 161 606Q232 676 339 676Q438 676 499 621Q566 561 566 467Q566 413 545 365Q525 319 479 266L243-11M338 636Q254 636 196 581Q133 520 133 426Q133 351 180 300Q228 248 313 248Q399 248 456 304Q519 367 519 462Q519 539 470 586Q420 636 338 636Z"  horiz-adv-x="548" vert-adv-y="1000"  />

      
      <glyph glyph-name="uni3a" unicode="&#x3a;" d="M68 21Q68 41 81 52Q94 63 109 63Q122 63 132 55Q142 46 142 31Q142 13 130 1Q118-11 100-11Q89-11 78-3Q68 5 68 21M111 375Q111 395 124 406Q137 417 152 417Q165 417 175 409Q185 400 185 385Q185 367 173 355Q161 343 143 343Q132 343 121 351Q111 359 111 375Z"  horiz-adv-x="202" vert-adv-y="1000"  />

      
      <glyph glyph-name="uni3b" unicode="&#x3b;" d="M21-137L106 65L145 53L46-147L21-137M113 375Q113 395 126 406Q139 417 154 417Q167 417 177 409Q187 400 187 386Q187 367 175 355Q163 343 145 343Q134 343 123 351Q113 359 113 375Z"  horiz-adv-x="228" vert-adv-y="1000"  />

      
      <glyph glyph-name="uni3c" unicode="&#x3c;" d="M85 347L519 539L519 498L129 328L519 158L519 117L85 309L85 347Z"  horiz-adv-x="500" vert-adv-y="1000"  />

      
      <glyph glyph-name="uni3d" unicode="&#x3d;" d="M71 381L71 419L505 419L505 381L71 381M71 239L71 277L505 277L505 239L71 239Z"  horiz-adv-x="500" vert-adv-y="1000"  />

      
      <glyph glyph-name="uni3e" unicode="&#x3e;" d="M496 309L62 117L62 158L452 328L62 498L62 539L496 347L496 309Z"  horiz-adv-x="500" vert-adv-y="1000"  />

      
      <glyph glyph-name="uni3f" unicode="&#x3f;" d="M364 267L404 267Q398 180 352 148Q315 121 257 121Q195 121 158 158Q124 194 124 243Q124 303 166 345Q186 364 211 374Q236 384 287 398Q353 416 378 441Q412 477 412 537Q412 587 383 616Q356 643 304 643Q245 643 215 609Q182 574 182 510Q182 494 185 479L141 479Q138 496 138 513Q138 589 184 637Q228 683 308 683Q377 683 417 646Q459 606 459 539Q459 462 410 415Q373 380 312 364L282 356Q218 338 196 316Q169 289 169 244Q169 208 192 183Q216 159 261 159Q300 159 325 178Q362 206 364 267M203 21Q203 41 216 52Q229 63 244 63Q257 63 267 55Q277 46 277 31Q277 13 265 1Q253-11 235-11Q224-11 213-3Q203 5 203 21Z"  horiz-adv-x="470" vert-adv-y="1000"  />

      
      <glyph glyph-name="uni40" unicode="&#x40;" d="M543 413L567 491L599 491L529 269Q516 227 516 208Q516 189 527 178Q538 167 559 167Q602 167 637 198Q672 230 692.50 289Q713 348 713 403Q713 502 652 566Q577 644 444 644Q295 644 203 547Q159 502 133 433Q107 364 107 290Q107 175 178 99Q255 17 398 17Q463 17 533 35Q582 48 627 73L635 44Q582 15 528 3Q462-13 393-13Q236-13 149 81Q73 163 73 292Q73 375 103 448.50Q133 522 183 572Q285 674 449 674Q590 674 672 592Q744 518 744 405Q744 348 724.50 285.50Q705 223 661 181Q618 139 558 139Q523 139 506 156Q485 177 490 212Q470 180 441 160Q408 137 362 137Q307 137 272 172Q234 208 234 277Q234 328 255.50 376.50Q277 425 309 456Q358 504 432 504Q480 504 509 479Q539 453 543 413M364 169Q416 169 456 211Q488 245 503 291.50Q518 338 518 374Q518 419 493 446Q470 472 425 472Q371 472 331 432Q301 402 285 358.50Q269 315 269 280Q269 227 295 198Q319 169 364 169Z"  horiz-adv-x="738" vert-adv-y="1000"  />

      
      <glyph glyph-name="uni41" unicode="&#x41;" d="M526 0L464 219L180 219L64 0L14 0L379 687L572 0L526 0M201 259L453 259L367 575L201 259Z"  horiz-adv-x="586" vert-adv-y="1000"  />

      
      <glyph glyph-name="uni42" unicode="&#x42;" d="M90 0L172 667L300 667Q397 667 443 622Q483 584 483 517Q483 434 432 385Q412 365 385 354Q433 341 465 309Q505 268 505 200Q505 112 449 56Q414 22 364 11Q314 0 246 0L130 0L90 0M211 627L179 365L275 365Q358 365 398 405Q437 444 437 512Q437 568 402 598Q367 627 293 627L211 627M174 325L139 40L251 40Q312 40 351 49.50Q390 59 418 88Q458 130 458 198Q458 251 424 284Q381 325 278 325L174 325Z"  horiz-adv-x="536" vert-adv-y="1000"  />

      
      <glyph glyph-name="uni43" unicode="&#x43;" d="M700 589L693 531Q655 580 604 607Q548 636 480 636Q341 636 243 538Q195 490 169 425.50Q143 361 143 298Q143 185 220 106Q295 29 410 29Q478 29 539 57Q597 83 644 130L637 72Q590 32 541 12Q486-11 409-11Q274-11 187 76Q95 168 95 300Q95 458 213 570Q324 676 481 676Q554 676 617 649Q664 626 700 589Z"  horiz-adv-x="682" vert-adv-y="1000"  />

      
      <glyph glyph-name="uni44" unicode="&#x44;" d="M222 0L132 0L90 0L172 667L295 667Q456 667 538 574Q607 496 607 366Q607 193 503 94Q404 0 222 0M211 627L139 40L226 40Q382 40 469 127Q562 219 562 371Q562 480 497 549Q423 627 288 627L211 627Z"  horiz-adv-x="620" vert-adv-y="1000"  />

      
      <glyph glyph-name="uni45" unicode="&#x45;" d="M492 667L487 627L211 627L181 385L451 385L446 345L176 345L139 40L415 40L410 0L132 0L90 0L172 667L492 667Z"  horiz-adv-x="464" vert-adv-y="1000"  />

      
      <glyph glyph-name="uni46" unicode="&#x46;" d="M442 667L437 627L211 627L181 385L401 385L396 345L176 345L134 0L90 0L172 667L442 667Z"  horiz-adv-x="406" vert-adv-y="1000"  />

      
      <glyph glyph-name="uni47" unicode="&#x47;" d="M473 280L478 320L758 320Q744 173 654 84Q558-11 415-11Q274-11 185 78Q95 167 95 298Q95 462 206 569Q315 676 479 676Q578 676 655 627Q718 586 756 520L717 492Q681 555 633 589Q566 636 477 636Q409 636 346 610.50Q283 585 239 542Q192 496 166 432Q140 368 140 303Q140 190 216 110Q294 29 408 29Q541 29 628 119Q692 185 708 280L473 280Z"  horiz-adv-x="773" vert-adv-y="1000"  />

      
      <glyph glyph-name="uni48" unicode="&#x48;" d="M216 667L181 384L585 384L620 667L664 667L582 0L538 0L580 344L176 344L134 0L90 0L172 667L216 667Z"  horiz-adv-x="672" vert-adv-y="1000"  />

      
      <glyph glyph-name="uni49" unicode="&#x49;" d="M172 667L216 667L134 0L90 0L172 667Z"  horiz-adv-x="224" vert-adv-y="1000"  />

      
      <glyph glyph-name="uni4a" unicode="&#x4a;" d="M216 667L260 667L195 139Q184 51 153 20Q121-11 65-11Q22-11-6 12Q-29 30-42 61L-8 85Q1 59 18 45Q36 29 68 29Q102 29 121 49Q144 72 150 130L216 667Z"  horiz-adv-x="268" vert-adv-y="1000"  />

      
      <glyph glyph-name="uni4b" unicode="&#x4b;" d="M216 667L177 353L531 667L589 667L225 347L524 0L466 0L191 318L171 301L134 0L90 0L172 667L216 667Z"  horiz-adv-x="540" vert-adv-y="1000"  />

      
      <glyph glyph-name="uni4c" unicode="&#x4c;" d="M172 667L216 667L139 40L325 40L320 0L90 0L172 667Z"  horiz-adv-x="334" vert-adv-y="1000"  />

      
      <glyph glyph-name="uni4d" unicode="&#x4d;" d="M127 0L83 0L244 690L457 73L822 690L813 0L769 0L776 536L445-24L252 536L127 0Z"  horiz-adv-x="896" vert-adv-y="1000"  />

      
      <glyph glyph-name="uni4e" unicode="&#x4e;" d="M134 0L90 0L173 674L661 86L732 667L776 667L692-17L204 571L134 0Z"  horiz-adv-x="784" vert-adv-y="1000"  />

      
      <glyph glyph-name="uni4f" unicode="&#x4f;" d="M479 676Q620 676 710 584Q792 499 792 369Q792 201 680 92Q574-11 413-11Q272-11 186 74Q95 163 95 296Q95 367 124 438.50Q153 510 209 567Q317 676 479 676M407 29Q553 29 647 121Q695 169 721 235.50Q747 302 747 367Q747 483 671 559Q594 636 475 636Q338 636 243 543Q141 442 141 300Q141 187 214 109Q290 29 407 29Z"  horiz-adv-x="805" vert-adv-y="1000"  />

      
      <glyph glyph-name="uni50" unicode="&#x50;" d="M259 317L173 317L134 0L90 0L172 667L301 667Q390 667 436 620Q477 579 477 508Q477 424 428 373Q374 317 259 317M211 627L178 357L266 357Q348 357 389 396Q429 434 429 506Q429 557 400 588Q383 606 360.50 615Q338 624 323 625.50Q308 627 282 627L211 627Z"  horiz-adv-x="448" vert-adv-y="1000"  />

      
      <glyph glyph-name="uni51" unicode="&#x51;" d="M735 0L681 0L632 61Q542-11 414-11Q274-11 184 81Q95 172 95 304Q95 381 125 450Q155 519 206 568Q257 618 329 647Q401 676 480 676Q615 676 705 588Q792 503 792 371Q792 284 753 202Q720 132 663 87L735 0M515 273L638 122Q688 171 713 220Q747 285 747 365Q747 482 671 558Q592 637 469 637Q335 637 240 544Q196 501 168.50 438.50Q141 376 141 313Q141 255 164.50 198.50Q188 142 227 104Q304 29 416 29Q517 29 605 94L461 273L515 273Z"  horiz-adv-x="805" vert-adv-y="1000"  />

      
      <glyph glyph-name="uni52" unicode="&#x52;" d="M420 0L370 0L193 315L173 315L134 0L90 0L172 667L276 667Q369 667 417 621Q458 581 458 510Q458 421 405 370Q348 315 241 315L420 0M211 627L178 355L242 355Q330 355 372 395Q412 433 412 504Q412 562 376 594Q340 627 266 627L211 627Z"  horiz-adv-x="470" vert-adv-y="1000"  />

      
      <glyph glyph-name="uni53" unicode="&#x53;" d="M497 581L462 554Q452 582 434 600.50Q416 619 396 625.50Q376 632 364.50 634Q353 636 343 636Q280 636 240 596Q201 557 201 502Q201 462 229 432Q237 424 247.50 416Q258 408 265.50 403.50Q273 399 287.50 391.50Q302 384 309 380L342 362Q351 357 370.50 346.50Q390 336 399.50 330.50Q409 325 422 316Q435 307 444 297Q484 257 484 196Q484 106 422 47Q362-11 256-11Q171-11 122 38Q86 74 70 132L110 150Q124 100 154 70Q195 29 258 29Q343 29 390 73Q436 117 436 189Q436 238 404 270Q395 279 382 288Q369 297 361 301.50Q353 306 335.50 315Q318 324 314 326L268 351Q221 377 193 406Q155 446 155 500Q155 571 206 622Q262 676 345 676Q396 676 437 652Q478 628 497 581Z"  horiz-adv-x="514" vert-adv-y="1000"  />

      
      <glyph glyph-name="uni54" unicode="&#x54;" d="M481 627L308 627L231 0L187 0L264 627L91 627L96 667L486 667L481 627Z"  horiz-adv-x="418" vert-adv-y="1000"  />

      
      <glyph glyph-name="uni55" unicode="&#x55;" d="M171 667L215 667L164 250Q160 217 159 203.50Q158 190 159 161.50Q160 133 170 111.50Q180 90 199 72Q243 29 323 29Q416 29 468 81Q490 103 503 133.50Q516 164 520.50 186.50Q525 209 530 250L581 667L625 667L574 250Q569 207 564.50 183Q560 159 542.50 119.50Q525 80 496 51Q433-11 322-11Q218-11 163 44Q127 81 118 137Q109 193 120 250L171 667Z"  horiz-adv-x="633" vert-adv-y="1000"  />

      
      <glyph glyph-name="uni56" unicode="&#x56;" d="M96 667L144 667L270 99L530 667L578 667L255-27L96 667Z"  horiz-adv-x="510" vert-adv-y="1000"  />

      
      <glyph glyph-name="uni57" unicode="&#x57;" d="M96 667L142 667L256 101L571 703L723 101L1002 667L1052 667L710-25L558 581L236-25L96 667Z"  horiz-adv-x="984" vert-adv-y="1000"  />

      
      <glyph glyph-name="uni58" unicode="&#x58;" d="M23 0L248 340L113 667L159 667L275 382L462 667L512 667L298 340L439 0L393 0L269 300L73 0L23 0Z"  horiz-adv-x="470" vert-adv-y="1000"  />

      
      <glyph glyph-name="uni59" unicode="&#x59;" d="M233 0L268 285L96 667L144 667L295 330L532 667L584 667L312 285L277 0L233 0Z"  horiz-adv-x="516" vert-adv-y="1000"  />

      
      <glyph glyph-name="uni5a" unicode="&#x5a;" d="M599 667L116 40L511 40L506 0L37 0L520 627L153 627L158 667L599 667Z"  horiz-adv-x="554" vert-adv-y="1000"  />

      
      <glyph glyph-name="uni5b" unicode="&#x5b;" d="M323 689L217 689L117-120L223-120L218-160L115-160L68-160L178 729L328 729L323 689Z"  horiz-adv-x="278" vert-adv-y="1000"  />

      
      <glyph glyph-name="uni5c" unicode="&#x5c;" d="M537-158L503-174L109 727L143 743L537-158Z"  horiz-adv-x="576" vert-adv-y="1000"  />

      
      <glyph glyph-name="uni5d" unicode="&#x5d;" d="M25-120L131-120L231 689L125 689L130 729L280 729L170-160L125-160L20-160L25-120Z"  horiz-adv-x="278" vert-adv-y="1000"  />

      
      <glyph glyph-name="uni5e" unicode="&#x5e;" d="M297 636L130 382L84 382L270 667L324 667L510 382L464 382L297 636Z"  horiz-adv-x="500" vert-adv-y="1000"  />

      
      <glyph glyph-name="uni5f" unicode="&#x5f;" d="M0-116L0-78L500-78L500-116L0-116Z"  horiz-adv-x="500" vert-adv-y="1000"  />

      
      <glyph glyph-name="uni60" unicode="&#x60;" d="M305 467L216 595L262 620L337 483L305 467Z"  horiz-adv-x="500" vert-adv-y="1000"  />

      
      <glyph glyph-name="uni61" unicode="&#x61;" d="M446 328L456 408L496 408L446 0L406 0L414 63Q388 27 354 10Q312-11 260-11Q180-11 130 36Q71 90 71 184Q71 295 140 361Q198 417 291 417Q350 417 390 390Q426 366 446 328M283 379Q213 379 168 334Q113 279 113 187Q113 110 160 65Q200 27 264 27Q320 27 361 57Q401 87 418 133Q435 179 435 221Q435 296 393 338Q354 379 283 379Z"  horiz-adv-x="518" vert-adv-y="1000"  />

      
      <glyph glyph-name="uni62" unicode="&#x62;" d="M162 729L202 729L154 341Q178 374 211 393Q253 417 306 417Q392 417 444 365Q497 312 497 227Q497 116 428 47Q368-11 282-11Q223-11 182 18Q145 43 123 86L112 0L72 0L162 729M180 68Q221 27 288 27Q355 27 398 70Q424 95 439.50 138.50Q455 182 455 227Q455 292 413 336Q370 379 307 379Q239 379 190 332Q134 278 134 190Q134 114 180 68Z"  horiz-adv-x="518" vert-adv-y="1000"  />

      
      <glyph glyph-name="uni63" unicode="&#x63;" d="M446 365L439 312Q413 342 383 358Q344 379 302 379Q217 379 167 326Q113 272 113 186Q113 119 155 72Q196 27 270 27Q317 27 354 46Q392 66 418 100L411 42Q381 18 353 5Q315-11 268-11Q178-11 124 43Q71 98 71 186Q71 290 139 356Q202 417 301 417Q345 417 390 399Q416 388 446 365Z"  horiz-adv-x="444" vert-adv-y="1000"  />

      
      <glyph glyph-name="uni64" unicode="&#x64;" d="M447 326L497 729L537 729L447 0L407 0L414 58Q386 25 350 7Q313-11 265-11Q173-11 123 43Q71 99 71 191Q71 292 138 359Q197 417 288 417Q347 417 390 389Q427 365 447 326M285 379Q220 379 173 334Q115 278 115 190Q115 115 160 69Q199 27 265 27Q334 27 381 72Q436 126 436 224Q436 296 392 338Q351 379 285 379Z"  horiz-adv-x="519" vert-adv-y="1000"  />

      
      <glyph glyph-name="uni65" unicode="&#x65;" d="M463 199L115 199Q109 161 121 125.50Q133 90 156 67Q196 27 259 27Q315 27 356 56Q390 81 409 120L440 100Q410 47 367 19Q322-11 258-11Q172-11 122 43Q71 97 71 182Q71 290 139 358Q198 417 285 417Q364 417 413 370Q472 313 463 199M121 237L423 237Q422 300 382 341Q346 379 285 379Q215 379 168 330Q132 292 121 237Z"  horiz-adv-x="487" vert-adv-y="1000"  />

      
      <glyph glyph-name="uni66" unicode="&#x66;" d="M259 370L157 370L112 0L72 0L117 370L71 370L76 408L122 408L146 602Q155 682 186 713Q214 741 261 741Q282 741 304 735L300 698Q283 703 265 703Q233 703 214 684Q193 663 185 594L162 408L264 408L259 370Z"  horiz-adv-x="214" vert-adv-y="1000"  />

      
      <glyph glyph-name="uni67" unicode="&#x67;" d="M458 408L498 408L450 12Q434-116 383-169Q325-230 223-230Q136-230 88-182Q38-134 37-55L79-55Q81-115 115-151Q154-192 228-192Q306-192 351-147Q395-103 410 12L417 70Q391 32 351 12Q306-11 256-11Q168-11 119 41Q67 97 67 184Q67 289 133 356Q191 417 287 417Q354 417 398 389Q429 367 449 337L458 408M288 379Q217 379 169 334Q111 279 111 184Q111 117 154 70Q194 27 266 27Q337 27 383 74Q437 131 437 224Q437 298 394 339Q354 379 288 379Z"  horiz-adv-x="520" vert-adv-y="1000"  />

      
      <glyph glyph-name="uni68" unicode="&#x68;" d="M72 0L162 729L202 729L154 344Q172 375 199 393Q233 417 281 417Q338 417 371 386Q412 348 402 257L370 0L330 0L362 257Q370 326 341 355Q317 379 276 379Q225 379 190 344Q149 303 138 212L112 0L72 0Z"  horiz-adv-x="442" vert-adv-y="1000"  />

      
      <glyph glyph-name="uni69" unicode="&#x69;" d="M122 408L162 408L112 0L72 0L122 408M154 507Q140 507 131 516Q123 524 123 538Q123 559 136 570Q147 581 163 581Q177 581 186 572Q195 563 195 549Q195 531 183 519Q171 507 154 507Z"  horiz-adv-x="184" vert-adv-y="1000"  />

      
      <glyph glyph-name="uni6a" unicode="&#x6a;" d="M122 408L162 408L83-230L43-230L122 408M154 507Q140 507 131 516Q123 524 123 538Q123 559 136 570Q147 581 163 581Q177 581 186 572Q195 563 195 549Q195 531 183 519Q171 507 154 507Z"  horiz-adv-x="184" vert-adv-y="1000"  />

      
      <glyph glyph-name="uni6b" unicode="&#x6b;" d="M162 729L202 729L141 233L330 408L382 408L187 229L385 0L334 0L158 202L134 181L112 0L72 0L162 729Z"  horiz-adv-x="393" vert-adv-y="1000"  />

      
      <glyph glyph-name="uni6c" unicode="&#x6c;" d="M162 729L202 729L112 0L72 0L162 729Z"  horiz-adv-x="184" vert-adv-y="1000"  />

      
      <glyph glyph-name="uni6d" unicode="&#x6d;" d="M72 0L122 408L162 408L156 357Q171 384 196 399Q225 417 263 417Q310 417 338 396Q364 377 374 343Q388 376 417 395Q449 417 495 417Q553 417 586 384Q614 355 614 308Q614 282 609 240L580 0L540 0L569 237Q574 277 574 294Q574 332 552 356Q530 379 489 379Q445 379 418 353Q386 322 375 236L346 0L306 0L335 235Q340 275 340 293Q340 335 319 356Q296 379 256 379Q211 379 184 350Q150 314 140 229L112 0L72 0Z"  horiz-adv-x="653" vert-adv-y="1000"  />

      
      <glyph glyph-name="uni6e" unicode="&#x6e;" d="M72 0L122 408L162 408L154 344Q171 376 201 395Q234 417 282 417Q342 417 374 385Q405 354 405 304Q405 298 399 232L370 0L330 0L359 238Q364 285 364 292Q364 331 342 354Q319 379 273 379Q222 379 189 347Q151 310 138 212L112 0L72 0Z"  horiz-adv-x="442" vert-adv-y="1000"  />

      
      <glyph glyph-name="uni6f" unicode="&#x6f;" d="M300 417Q395 417 452 360Q503 309 503 219Q503 112 436 49Q372-11 269-11Q178-11 125 45Q71 101 71 187Q71 234 89.50 279.50Q108 325 139 356Q203 417 300 417M275 27Q351 27 401 73Q461 129 461 215Q461 284 418 331Q372 379 296 379Q223 379 172 333Q113 280 113 193Q113 120 159 72Q202 27 275 27Z"  horiz-adv-x="524" vert-adv-y="1000"  />

      
      <glyph glyph-name="uni70" unicode="&#x70;" d="M121 73L85-230L45-230L122 408L162 408L153 337Q175 370 214 392Q258 417 316 417Q398 417 448 367Q497 316 497 231Q497 115 428 48Q369-11 280-11Q221-11 175 18Q141 40 121 73M279 27Q352 27 396 67Q455 121 455 224Q455 298 410 341Q372 379 312 379Q239 379 190 330Q134 274 134 181Q134 110 179 65Q218 27 279 27Z"  horiz-adv-x="518" vert-adv-y="1000"  />

      
      <glyph glyph-name="uni71" unicode="&#x71;" d="M418-230L378-230L415 73Q386 29 344 9Q302-11 249-11Q167-11 120 40Q71 91 71 176Q71 287 142 358Q202 417 298 417Q354 417 393 392Q424 373 447 337L456 408L496 408L418-230M292 379Q217 379 167 327Q113 270 113 179Q113 106 158 63Q195 27 257 27Q325 27 373 69Q435 126 435 227Q435 298 393 340Q355 379 292 379Z"  horiz-adv-x="518" vert-adv-y="1000"  />

      
      <glyph glyph-name="uni72" unicode="&#x72;" d="M72 0L122 408L162 408L156 355Q171 384 195 399Q221 417 255 417Q276 417 295 407L271 371Q260 379 242 379Q210 379 186 353Q151 316 138 205L112 0L72 0Z"  horiz-adv-x="260" vert-adv-y="1000"  />

      
      <glyph glyph-name="uni73" unicode="&#x73;" d="M331 351L295 333Q288 354 272 366Q252 379 227 379Q192 379 170 357Q152 339 152 312Q152 290 168 273Q181 260 210 248L241 235Q282 218 301 199Q328 171 328 127Q328 71 292 32Q251-11 180-11Q121-11 86 24Q58 52 50 97L90 109Q96 73 117 52Q142 27 181 27Q228 27 256 53Q285 82 285 122Q285 152 266 171Q252 185 217 200L193 210Q154 226 134 247Q110 271 110 306Q110 351 140 381Q175 417 230 417Q270 417 296 399Q322 381 331 351Z"  horiz-adv-x="342" vert-adv-y="1000"  />

      
      <glyph glyph-name="uni74" unicode="&#x74;" d="M231 370L160 370L115 0L75 0L120 370L75 370L80 408L125 408L143 554L183 554L165 408L236 408L231 370Z"  horiz-adv-x="194" vert-adv-y="1000"  />

      
      <glyph glyph-name="uni75" unicode="&#x75;" d="M121 408L161 408L131 162Q121 83 156 51Q183 27 226 27Q279 27 309 59Q337 89 345 162L375 408L415 408L381 151Q369 65 340 32Q301-11 224-11Q158-11 122 26Q80 70 91 160L121 408Z"  horiz-adv-x="437" vert-adv-y="1000"  />

      
      <glyph glyph-name="uni76" unicode="&#x76;" d="M58 408L100 408L202 69L386 408L432 408L193-25L58 408Z"  horiz-adv-x="390" vert-adv-y="1000"  />

      
      <glyph glyph-name="uni77" unicode="&#x77;" d="M58 408L100 408L200 71L385 433L482 71L668 408L714 408L472-25L375 337L190-25L58 408Z"  horiz-adv-x="672" vert-adv-y="1000"  />

      
      <glyph glyph-name="uni78" unicode="&#x78;" d="M8 0L199 214L72 408L119 408L227 240L375 408L424 408L252 214L390 0L343 0L223 188L57 0L8 0Z"  horiz-adv-x="398" vert-adv-y="1000"  />

      
      <glyph glyph-name="uni79" unicode="&#x79;" d="M78-230L201-7L58 408L102 408L229 45L422 408L470 408L124-230L78-230Z"  horiz-adv-x="428" vert-adv-y="1000"  />

      
      <glyph glyph-name="uni7a" unicode="&#x7a;" d="M484 408L109 38L437 38L432 0L18 0L397 370L115 370L120 408L484 408Z"  horiz-adv-x="452" vert-adv-y="1000"  />

      
      <glyph glyph-name="uni7b" unicode="&#x7b;" d="M73 270L77 299Q104 306 120 322Q142 344 149 400L172 593Q181 662 209 692Q243 729 323 729L330 729L325 689L323 689Q264 689 241 666Q223 648 215 590L191 398Q183 335 161 311Q143 291 114 284Q137 275 150 254Q171 222 164 168L142-1Q139-22 139-48Q139-88 155-104Q171-120 216-120L225-120L220-160L211-160Q146-160 120-133Q95-108 95-50Q95-48 99 0L120 170Q127 230 106 252Q92 266 73 270Z"  horiz-adv-x="278" vert-adv-y="1000"  />

      
      <glyph glyph-name="uni7c" unicode="&#x7c;" d="M230-250L230 750L270 750L270-250L230-250Z"  horiz-adv-x="500" vert-adv-y="1000"  />

      
      <glyph glyph-name="uni7d" unicode="&#x7d;" d="M275 299L271 270Q247 264 230 247Q206 222 200 170L178-6Q168-94 134-127Q100-160 27-160L18-160L23-120L30-120Q81-120 104-97Q125-76 134-7L156 168Q165 230 192 258Q208 274 234 284Q214 292 201 305Q181 325 181 361Q181 372 186 412L204 564Q209 608 209 622Q209 658 190 674Q173 689 126 689L123 689L128 729L134 729Q203 729 232 699Q255 676 255 633Q255 625 248 562L231 425Q226 387 226 369Q226 334 243 316Q256 303 275 299Z"  horiz-adv-x="278" vert-adv-y="1000"  />

      
      <glyph glyph-name="uni7e" unicode="&#x7e;" d="M112 195L87 211Q116 255 141 278Q181 313 229 313Q267 313 338 274Q342 272 352 266Q362 260 366 258Q370 256 378 252Q386 248 389.50 246.50Q393 245 400 242Q407 239 412 238.50Q417 238 423.50 237Q430 236 436 236Q480 236 512 268Q528 284 548 314L574 298Q553 263 530 240Q489 198 433 198Q406 198 383.50 205.50Q361 213 314 240Q254 275 223 275Q185 275 155 248Q135 229 112 195Z"  horiz-adv-x="500" vert-adv-y="1000"  />

      
      <glyph glyph-name="unia1" unicode="&#xa1;" d="M156 318L200 318L132-230L88-230L156 318M152 402Q152 422 165 433Q178 444 193 444Q206 444 216 436Q226 427 226 412Q226 394 214 382Q202 370 184 370Q173 370 162 378Q152 386 152 402Z"  horiz-adv-x="260" vert-adv-y="1000"  />

      
      <glyph glyph-name="unia2" unicode="&#xa2;" d="M400 655L388 553Q428 550 459 536Q488 522 511 502L504 449Q482 481 452 497Q421 513 383 515L340 163Q380 161 418 178Q455 194 482 229L475 175Q450 151 413 138Q374 125 336 126L322 13L284 13L298 127Q231 137 189 181Q136 234 136 322Q136 427 201 492Q261 552 350 552L362 655L400 655M302 165L345 514Q279 513 233 467Q208 442 193.50 401.50Q179 361 179 320Q179 251 219 208Q253 172 302 165Z"  horiz-adv-x="548" vert-adv-y="1000"  />

      
      <glyph glyph-name="unia3" unicode="&#xa3;" d="M130 273L134 313L232 313L216 348Q215 350 205.50 370Q196 390 194.50 394.50Q193 399 186 416Q179 433 177.50 441.50Q176 450 173.50 463.50Q171 477 171 489Q171 567 226 622Q278 674 359 674Q439 674 484 627Q521 589 521 525Q521 504 518 489L474 489Q477 504 477 517Q477 566 448 598Q416 634 360 634Q301 634 262 595Q218 553 218 489Q218 454 234 418Q239 405 250.50 382.50Q262 360 267 349L284 313L405 313L401 273L294 273Q305 240 305 202Q305 133 244 70L306 48Q355 31 377 31Q436 31 478 100L512 78Q491 39 455 13Q419-13 375-13Q362-13 347-10Q332-7 322.50-4Q313-1 292.50 6.50Q272 14 264 17Q210 36 187 36Q146 36 91-10L71 22Q130 79 197 79Q260 139 260 204Q260 239 245 273L130 273Z"  horiz-adv-x="548" vert-adv-y="1000"  />

      
      <glyph glyph-name="unia4" unicode="&#xa4;" d="M84 90L60 115L150 204Q94 265 94 350Q94 434 147 493L57 583L81 607L171 518Q231 574 318 574Q401 574 465 518L555 607L579 583L489 493Q543 434 543 349Q543 266 488 206L579 115L555 91L464 182Q407 127 320 127Q233 127 174 180L84 90M505 349Q505 387 489.50 423.50Q474 460 451 483Q398 538 318 538Q242 538 188 484Q132 428 132 350Q132 274 186 218Q239 163 318 163Q396 163 450 218Q505 273 505 349Z"  horiz-adv-x="548" vert-adv-y="1000"  />

      
      <glyph glyph-name="unia5" unicode="&#xa5;" d="M548 391L403 391L329 288L535 288L530 248L323 248L293 0L249 0L279 248L79 248L84 288L282 288L236 391L97 391L102 431L218 431L113 667L162 667L311 332L546 667L599 667L431 431L553 431L548 391Z"  horiz-adv-x="548" vert-adv-y="1000"  />

      
      <glyph glyph-name="unia6" unicode="&#xa6;" d="M230 390L230 750L270 750L270 390L230 390M230-250L230 110L270 110L270-250L230-250Z"  horiz-adv-x="500" vert-adv-y="1000"  />

      
      <glyph glyph-name="unia7" unicode="&#xa7;" d="M114 13L158 13Q157 8 157-8Q157-64 184-91Q212-120 266-120Q327-120 357-86Q387-53 387 1Q387 46 350 79Q341 87 328.50 94Q316 101 308.50 104Q301 107 283.50 113.50Q266 120 262 121Q203 142 173 173Q131 218 131 285Q131 352 166 395Q199 438 258 452Q228 468 207 499Q184 534 184 575Q184 648 230 694Q276 740 354 740Q430 740 470 700Q488 682 497 657Q506 632 507.50 616Q509 600 509 573L509 568L465 568L465 575Q465 643 436 672Q408 700 351 700Q296 700 264 668Q231 635 231 583Q231 542 261 513Q285 490 349 465Q419 436 445 409Q483 370 483 303Q483 240 452 199Q417 152 354 134Q389 117 410 88Q434 54 434 5Q434-67 393-111Q348-160 266-160Q189-160 151-122Q113-86 113-13Q113 4 114 13M311 421Q255 421 216 384Q177 345 177 283Q177 229 211 197Q245 163 303 163Q363 163 399 201Q436 240 436 302Q436 357 399 390Q363 421 311 421Z"  horiz-adv-x="544" vert-adv-y="1000"  />

      
      <glyph glyph-name="unia8" unicode="&#xa8;" d="M361 523Q361 538 373 550Q385 562 402 562Q418 562 426 552Q434 542 434 530Q434 514 423 503Q411 490 393 490Q380 490 371 499Q361 509 361 523M195 523Q195 538 207 550Q219 562 236 562Q252 562 260 552Q268 542 268 530Q268 514 257 503Q245 490 227 490Q214 490 205 499Q195 509 195 523Z"  horiz-adv-x="500" vert-adv-y="1000"  />

      
      <glyph glyph-name="unia9" unicode="&#xa9;" d="M554 474L554 421Q502 489 425 489Q356 489 312 444Q266 396 266 328Q266 262 312 215Q356 170 425 170Q503 170 554 235L554 183Q494 134 425 134Q339 134 284 189Q228 243 228 326Q228 416 286 472Q340 525 424 525Q499 525 554 474M727 465.50Q727 465.50 740.50 432.25Q754 399 754 334Q754 269 727 202Q700 135 650 86Q552-10 411-10Q270-10 172 86Q122 135 95 202Q68 269 68 334Q68 399 95 465.50Q122 532 172 581Q270 677 411 677Q552 677 650 581Q700 532 727 465.50M621 563Q532 647 411 647Q290 647 201 563Q156 520 129 458.50Q102 397 102 334Q102 270 129 208.50Q156 147 201 104Q290 20 411 20Q532 20 621 104Q666 147 693 208.50Q720 270 720 334Q720 397 693 458.50Q666 520 621 563Z"  horiz-adv-x="740" vert-adv-y="1000"  />

      
      <glyph glyph-name="uniaa" unicode="&#xaa;" d="M344 612L349 661L375 661L342 393L316 393L321 436Q305 415 280 401Q255 387 218 387Q164 387 131 419Q95 454 95 514Q95 582 136 625Q176 667 241 667Q276 667 306 650Q331 635 344 612M238 643Q187 643 157 610Q124 574 124 516Q124 467 153 438Q180 411 224 411Q274 411 303 444Q336 479 336 539Q336 586 309 615Q283 643 238 643M78 325L333 325L328 291L73 291L78 325Z"  horiz-adv-x="340" vert-adv-y="1000"  />

      
      <glyph glyph-name="uniab" unicode="&#xab;" d="M105 207L198 81L169 57L57 207L206 357L229 333L105 207M211 207L304 81L275 57L163 207L312 357L335 333L211 207Z"  horiz-adv-x="348" vert-adv-y="1000"  />

      
      <glyph glyph-name="uniac" unicode="&#xac;" d="M480 0L440 0L440 229L46 229L46 267L480 267L480 0Z"  horiz-adv-x="500" vert-adv-y="1000"  />

      
      <glyph glyph-name="uniad" unicode="&#xad;" d="M73 184L78 230L278 230L273 184L73 184Z"  horiz-adv-x="300" vert-adv-y="1000"  />

      
      <glyph glyph-name="uniae" unicode="&#xae;" d="M536 135L496 135L379 306L372 306L372 135L338 135L338 505L409 505Q463 505 491 479Q518 452 518 408Q518 361 491 335Q462 306 418 305L536 135M372 474L372 337L408 337Q448 337 466 356Q483 373 483 406Q483 441 466 457Q449 474 410 474L372 474M727 465.50Q727 465.50 740.50 432.25Q754 399 754 334Q754 269 727 202Q700 135 650 86Q552-10 411-10Q270-10 172 86Q122 135 95 202Q68 269 68 334Q68 399 95 465.50Q122 532 172 581Q270 677 411 677Q552 677 650 581Q700 532 727 465.50M621 563Q532 647 411 647Q290 647 201 563Q156 520 129 458.50Q102 397 102 334Q102 270 129 208.50Q156 147 201 104Q290 20 411 20Q532 20 621 104Q666 147 693 208.50Q720 270 720 334Q720 397 693 458.50Q666 520 621 563Z"  horiz-adv-x="740" vert-adv-y="1000"  />

      
      <glyph glyph-name="uniaf" unicode="&#xaf;" d="M176 493L180 532L450 532L446 493L176 493Z"  horiz-adv-x="500" vert-adv-y="1000"  />

      
      <glyph glyph-name="unib0" unicode="&#xb0;" d="M326 667Q385 667 423 629Q454 597 454 549Q454 486 415 447Q373 405 309 405Q250 405 214 443Q182 477 182 526Q182 584 221 625Q263 667 326 667M313 441Q357 441 384 466Q414 493 414 544Q414 584 390 608Q365 631 323 631Q279 631 253 605Q222 576 222 526Q222 490 246 466Q271 441 313 441Z"  horiz-adv-x="502" vert-adv-y="1000"  />

      
      <glyph glyph-name="unib1" unicode="&#xb1;" d="M60 339L60 377L257 377L257 558L297 558L297 377L494 377L494 339L297 339L297 158L257 158L257 339L60 339M60 76L60 114L494 114L494 76L60 76Z"  horiz-adv-x="500" vert-adv-y="1000"  />

      
      <glyph glyph-name="unib2" unicode="&#xb2;" d="M316 266L70 266L237 435Q274 472 292 499Q314 530 314 565Q314 596 296 614Q275 635 237 635Q198 635 178 615Q154 591 150 553L114 553Q121 605 152 637Q185 671 240 671Q296 671 328 639Q355 612 355 568Q355 528 332 493Q320 474 280 432L154 302L320 302L316 266Z"  horiz-adv-x="331" vert-adv-y="1000"  />

      
      <glyph glyph-name="unib3" unicode="&#xb3;" d="M93 365L129 365Q129 335 147 317Q166 298 200 298Q234 298 258 318Q284 342 284 386Q284 421 262 439Q240 457 201 457L196 457L201 493Q256 493 282 519Q302 541 302 574Q302 602 286 618Q268 636 238 636Q206 636 188 614Q174 597 169 572L133 572Q140 616 168 644Q196 672 239 672Q284 672 314 644Q342 616 342 574Q342 531 314 503Q294 483 266 476Q290 468 305 449Q323 426 323 390Q323 331 288 296Q255 262 199 262Q148 262 119 293Q93 321 93 365Z"  horiz-adv-x="331" vert-adv-y="1000"  />

      
      <glyph glyph-name="unib4" unicode="&#xb4;" d="M381 620L421 595L300 467L272 483L381 620Z"  horiz-adv-x="500" vert-adv-y="1000"  />

      
      <glyph glyph-name="unib5" unicode="&#xb5;" d="M83-230L43-230L121 408L161 408L139 222Q133 174 133 152Q133 94 166 61Q200 27 256 27Q317 27 355 65Q399 108 413 218L437 408L477 408L427 0L387 0L396 74Q374 35 342 13Q306-11 253-11Q197-11 163 16Q135 38 121 78L83-230Z"  horiz-adv-x="499" vert-adv-y="1000"  />

      
      <glyph glyph-name="uni03BC" unicode="&#x03BC;" d="M83-230L43-230L121 408L161 408L139 222Q133 174 133 152Q133 94 166 61Q200 27 256 27Q317 27 355 65Q399 108 413 218L437 408L477 408L427 0L387 0L396 74Q374 35 342 13Q306-11 253-11Q197-11 163 16Q135 38 121 78L83-230Z"  horiz-adv-x="499" vert-adv-y="1000"  />

      
      <glyph glyph-name="unib6" unicode="&#xb6;" d="M247-95L211-95L261 311L258 311Q177 311 128 353Q78 396 78 470Q78 558 131 611Q187 667 316 667L547 667L543 634L490 634L399-95L363-95L454 634L337 634L247-95Z"  horiz-adv-x="533" vert-adv-y="1000"  />

      
      <glyph glyph-name="unib7" unicode="&#xb7;" d="M94 332Q94 355 109 372Q125 388 148 388Q167 388 179 376Q190 365 190 348Q190 326 175 309Q159 292 136 292Q117 292 105 304Q94 315 94 332Z"  horiz-adv-x="200" vert-adv-y="1000"  />

      
      <glyph glyph-name="unib8" unicode="&#xb8;" d="M263-50L307-70L188-194L162-178L263-50Z"  horiz-adv-x="500" vert-adv-y="1000"  />

      
      <glyph glyph-name="unib9" unicode="&#xb9;" d="M185 267L229 631L167 631L184 667L272 667L223 267L185 267Z"  horiz-adv-x="330" vert-adv-y="1000"  />

      
      <glyph glyph-name="uniba" unicode="&#xba;" d="M245 667Q305 667 341 634Q378 601 378 540Q378 472 336 430Q293 387 224 387Q168 387 131 422Q94 457 94 516Q94 584 139 627Q182 667 245 667M78 325L345 325L340 291L73 291L78 325M243 643Q192 643 158 610Q122 576 122 516Q122 471 150 441Q178 411 227 411Q281 411 315 445Q350 478 350 538Q350 585 322 613Q292 643 243 643Z"  horiz-adv-x="343" vert-adv-y="1000"  />

      
      <glyph glyph-name="unibb" unicode="&#xbb;" d="M187 207L95 333L124 357L235 207L87 57L64 81L187 207M293 207L201 333L230 357L341 207L193 57L170 81L293 207Z"  horiz-adv-x="348" vert-adv-y="1000"  />

      
      <glyph glyph-name="unibc" unicode="&#xbc;" d="M185 267L229 631L167 631L184 667L272 667L223 267L185 267M188 1L666 682L694 666L216-15L188 1M731 413L694 112L750 112L745 76L689 76L680 0L642 0L651 76L447 76L731 413M522 112L656 112L679 302L522 112Z"  horiz-adv-x="760" vert-adv-y="1000"  />

      
      <glyph glyph-name="unibd" unicode="&#xbd;" d="M185 267L229 631L167 631L184 667L272 667L223 267L185 267M158 1L636 682L664 666L186-15L158 1M713 0L467 0L634 169Q671 206 689 233Q711 264 711 299Q711 330 693 348Q672 369 634 369Q595 369 575 349Q551 325 547 287L511 287Q518 339 549 371Q582 405 637 405Q693 405 725 373Q752 346 752 302Q752 262 729 227Q717 208 677 166L551 36L717 36L713 0Z"  horiz-adv-x="761" vert-adv-y="1000"  />

      
      <glyph glyph-name="unibe" unicode="&#xbe;" d="M93 365L129 365Q129 335 147 317Q166 298 200 298Q234 298 258 318Q284 342 284 386Q284 421 262 439Q240 457 201 457L196 457L201 493Q256 493 282 519Q302 541 302 574Q302 602 286 618Q268 636 238 636Q206 636 188 614Q174 597 169 572L133 572Q140 616 168 644Q196 672 239 672Q284 672 314 644Q342 616 342 574Q342 531 314 503Q294 483 266 476Q290 468 305 449Q323 426 323 390Q323 331 288 296Q255 262 199 262Q148 262 119 293Q93 321 93 365M208 1L686 682L714 666L236-15L208 1M731 413L694 112L750 112L745 76L689 76L680 0L642 0L651 76L447 76L731 413M522 112L656 112L679 302L522 112Z"  horiz-adv-x="760" vert-adv-y="1000"  />

      
      <glyph glyph-name="unibf" unicode="&#xbf;" d="M169 174L129 174Q129 238 166 278Q206 320 275 320Q338 320 374 283Q407 249 407 195Q407 133 367 96Q339 70 270 50L232 39Q174 21 147-11Q120-44 120-96Q120-145 150-175Q178-202 227-202Q285-202 318-169Q351-135 351-74Q351-56 348-38L392-38Q394-56 394-71Q394-154 349-199Q306-242 229-242Q155-242 114-201Q74-161 74-97Q74-35 112 12Q149 57 220 77L263 89Q318 105 334 121Q363 147 363 196Q363 235 340 258Q314 282 272 282Q222 282 196 253Q169 223 169 174M256 402Q256 422 269 433Q282 444 297 444Q310 444 320 436Q330 427 330 412Q330 394 318 382Q306 370 288 370Q277 370 266 378Q256 386 256 402Z"  horiz-adv-x="469" vert-adv-y="1000"  />

      
      <glyph glyph-name="unic0" unicode="&#xc0;" d="M526 0L464 219L180 219L64 0L14 0L379 687L572 0L526 0M201 259L453 259L367 575L201 259M397 703L279 829L332 854L432 721L397 703Z"  horiz-adv-x="586" vert-adv-y="1000"  />

      
      <glyph glyph-name="unic1" unicode="&#xc1;" d="M526 0L464 219L180 219L64 0L14 0L379 687L572 0L526 0M201 259L453 259L367 575L201 259M464 854L511 829L361 703L332 721L464 854Z"  horiz-adv-x="586" vert-adv-y="1000"  />

      
      <glyph glyph-name="unic2" unicode="&#xc2;" d="M526 0L464 219L180 219L64 0L14 0L379 687L572 0L526 0M201 259L453 259L367 575L201 259M390 786L286 722L255 749L396 839L515 749L478 722L390 786Z"  horiz-adv-x="586" vert-adv-y="1000"  />

      
      <glyph glyph-name="unic3" unicode="&#xc3;" d="M526 0L464 219L180 219L64 0L14 0L379 687L572 0L526 0M201 259L453 259L367 575L201 259M280 717L254 739Q267 763 281 777Q303 799 334 799Q353 799 383 786L407 775Q431 764 448 764Q462 764 473 775Q482 782 492 802L519 780Q506 755 489 740Q466 720 441 720Q422 720 389 734L368 743Q338 755 327 755Q311 755 298 743Q288 734 280 717Z"  horiz-adv-x="586" vert-adv-y="1000"  />

      
      <glyph glyph-name="unic4" unicode="&#xc4;" d="M526 0L464 219L180 219L64 0L14 0L379 687L572 0L526 0M201 259L453 259L367 575L201 259M444 775Q444 793 457 806Q469 818 485 818Q501 818 511 808Q520 797 520 784Q520 767 507 754Q495 742 476 742Q462 742 453 751Q444 759 444 775M258 775Q258 793 271 806Q283 818 299 818Q315 818 325 808Q334 797 334 784Q334 767 321 754Q309 742 290 742Q276 742 267 751Q258 759 258 775Z"  horiz-adv-x="586" vert-adv-y="1000"  />

      
      <glyph glyph-name="unic5" unicode="&#xc5;" d="M526 0L464 219L180 219L64 0L14 0L379 687L572 0L526 0M201 259L453 259L367 575L201 259M309 779Q309 816 334 841Q360 867 396 867Q430 867 451 844Q471 822 471 792Q471 757 446 732Q421 707 384 707Q350 707 330 727Q309 748 309 779M349 783Q349 767 359 757Q370 746 388 746Q409 746 420 759Q431 770 431 789Q431 807 420 818Q408 828 392 828Q374 828 362 816Q349 803 349 783Z"  horiz-adv-x="586" vert-adv-y="1000"  />

      
      <glyph glyph-name="unic6" unicode="&#xc6;" d="M523 0L461 219L176 219L62 0L14 0L365 667L654 667L666 627L391 627L460 385L728 385L740 345L472 345L559 40L832 40L845 0L523 0M197 259L449 259L360 573L197 259Z"  horiz-adv-x="852" vert-adv-y="1000"  />

      
      <glyph glyph-name="unic7" unicode="&#xc7;" d="M700 589L693 531Q655 580 604 607Q548 636 480 636Q341 636 243 538Q195 490 169 425.50Q143 361 143 298Q143 185 220 106Q295 29 410 29Q478 29 539 57Q597 83 644 130L637 72Q590 32 541 12Q486-11 409-11Q274-11 187 76Q95 168 95 300Q95 458 213 570Q324 676 481 676Q554 676 617 649Q664 626 700 589M389-50L433-78L304-202L276-182L389-50Z"  horiz-adv-x="682" vert-adv-y="1000"  />

      
      <glyph glyph-name="unic8" unicode="&#xc8;" d="M492 667L487 627L211 627L181 385L451 385L446 345L176 345L139 40L415 40L410 0L132 0L90 0L172 667L492 667M364 703L246 829L299 854L399 721L364 703Z"  horiz-adv-x="464" vert-adv-y="1000"  />

      
      <glyph glyph-name="unic9" unicode="&#xc9;" d="M492 667L487 627L211 627L181 385L451 385L446 345L176 345L139 40L415 40L410 0L132 0L90 0L172 667L492 667M421 854L468 829L318 703L289 721L421 854Z"  horiz-adv-x="464" vert-adv-y="1000"  />

      
      <glyph glyph-name="unica" unicode="&#xca;" d="M492 667L487 627L211 627L181 385L451 385L446 345L176 345L139 40L415 40L410 0L132 0L90 0L172 667L492 667M347 786L243 722L212 749L353 839L472 749L435 722L347 786Z"  horiz-adv-x="464" vert-adv-y="1000"  />

      
      <glyph glyph-name="unicb" unicode="&#xcb;" d="M492 667L487 627L211 627L181 385L451 385L446 345L176 345L139 40L415 40L410 0L132 0L90 0L172 667L492 667M401 775Q401 793 414 806Q426 818 442 818Q458 818 468 808Q477 797 477 784Q477 767 464 754Q452 742 433 742Q419 742 410 751Q401 759 401 775M215 775Q215 793 228 806Q240 818 256 818Q272 818 282 808Q291 797 291 784Q291 767 278 754Q266 742 247 742Q233 742 224 751Q215 759 215 775Z"  horiz-adv-x="464" vert-adv-y="1000"  />

      
      <glyph glyph-name="unicc" unicode="&#xcc;" d="M172 667L216 667L134 0L90 0L172 667M196 703L108 837L166 854L239 718L196 703Z"  horiz-adv-x="224" vert-adv-y="1000"  />

      
      <glyph glyph-name="unicd" unicode="&#xcd;" d="M172 667L216 667L134 0L90 0L172 667M267 854L322 837L199 703L161 718L267 854Z"  horiz-adv-x="224" vert-adv-y="1000"  />

      
      <glyph glyph-name="unice" unicode="&#xce;" d="M172 667L216 667L134 0L90 0L172 667M208 782L121 722L89 750L215 839L319 750L281 723L208 782Z"  horiz-adv-x="224" vert-adv-y="1000"  />

      
      <glyph glyph-name="unicf" unicode="&#xcf;" d="M172 667L216 667L134 0L90 0L172 667M234 775Q234 793 247 806Q259 818 275 818Q291 818 301 808Q310 797 310 784Q310 767 297 754Q285 742 266 742Q252 742 243 751Q234 759 234 775M106 775Q106 793 119 806Q131 818 147 818Q163 818 173 808Q182 797 182 784Q182 767 169 754Q157 742 138 742Q124 742 115 751Q106 759 106 775Z"  horiz-adv-x="224" vert-adv-y="1000"  />

      
      <glyph glyph-name="unid0" unicode="&#xd0;" d="M221 0L134 0L89 0L132 345L42 345L47 385L137 385L171 667L294 667Q455 667 537 574Q606 496 606 366Q606 199 508 100Q408 0 221 0M210 627L181 385L317 385L312 345L176 345L138 40L225 40Q379 40 468 127Q561 218 561 371Q561 480 496 549Q422 627 287 627L210 627Z"  horiz-adv-x="620" vert-adv-y="1000"  />

      
      <glyph glyph-name="unid1" unicode="&#xd1;" d="M134 0L90 0L173 674L661 86L732 667L776 667L692-17L204 571L134 0M379 717L353 739Q366 763 380 777Q402 799 433 799Q452 799 482 786L506 775Q530 764 547 764Q561 764 572 775Q581 782 591 802L618 780Q605 755 588 740Q565 720 540 720Q521 720 488 734L467 743Q437 755 426 755Q410 755 397 743Q387 734 379 717Z"  horiz-adv-x="784" vert-adv-y="1000"  />

      
      <glyph glyph-name="unid2" unicode="&#xd2;" d="M479 676Q620 676 710 584Q792 499 792 369Q792 201 680 92Q574-11 413-11Q272-11 186 74Q95 163 95 296Q95 367 124 438.50Q153 510 209 567Q317 676 479 676M407 29Q553 29 647 121Q695 169 721 235.50Q747 302 747 367Q747 483 671 559Q594 636 475 636Q338 636 243 543Q141 442 141 300Q141 187 214 109Q290 29 407 29M504 703L386 829L439 854L539 721L504 703Z"  horiz-adv-x="805" vert-adv-y="1000"  />

      
      <glyph glyph-name="unid3" unicode="&#xd3;" d="M479 676Q620 676 710 584Q792 499 792 369Q792 201 680 92Q574-11 413-11Q272-11 186 74Q95 163 95 296Q95 367 124 438.50Q153 510 209 567Q317 676 479 676M407 29Q553 29 647 121Q695 169 721 235.50Q747 302 747 367Q747 483 671 559Q594 636 475 636Q338 636 243 543Q141 442 141 300Q141 187 214 109Q290 29 407 29M571 854L618 829L468 703L439 721L571 854Z"  horiz-adv-x="805" vert-adv-y="1000"  />

      
      <glyph glyph-name="unid4" unicode="&#xd4;" d="M479 676Q620 676 710 584Q792 499 792 369Q792 201 680 92Q574-11 413-11Q272-11 186 74Q95 163 95 296Q95 367 124 438.50Q153 510 209 567Q317 676 479 676M407 29Q553 29 647 121Q695 169 721 235.50Q747 302 747 367Q747 483 671 559Q594 636 475 636Q338 636 243 543Q141 442 141 300Q141 187 214 109Q290 29 407 29M497 786L393 722L362 749L503 839L622 749L585 722L497 786Z"  horiz-adv-x="805" vert-adv-y="1000"  />

      
      <glyph glyph-name="unid5" unicode="&#xd5;" d="M479 676Q620 676 710 584Q792 499 792 369Q792 201 680 92Q574-11 413-11Q272-11 186 74Q95 163 95 296Q95 367 124 438.50Q153 510 209 567Q317 676 479 676M407 29Q553 29 647 121Q695 169 721 235.50Q747 302 747 367Q747 483 671 559Q594 636 475 636Q338 636 243 543Q141 442 141 300Q141 187 214 109Q290 29 407 29M387 717L361 739Q374 763 388 777Q410 799 441 799Q460 799 490 786L514 775Q538 764 555 764Q569 764 580 775Q589 782 599 802L626 780Q613 755 596 740Q573 720 548 720Q529 720 496 734L475 743Q445 755 434 755Q418 755 405 743Q395 734 387 717Z"  horiz-adv-x="805" vert-adv-y="1000"  />

      
      <glyph glyph-name="unid6" unicode="&#xd6;" d="M479 676Q620 676 710 584Q792 499 792 369Q792 201 680 92Q574-11 413-11Q272-11 186 74Q95 163 95 296Q95 367 124 438.50Q153 510 209 567Q317 676 479 676M407 29Q553 29 647 121Q695 169 721 235.50Q747 302 747 367Q747 483 671 559Q594 636 475 636Q338 636 243 543Q141 442 141 300Q141 187 214 109Q290 29 407 29M551 775Q551 793 564 806Q576 818 592 818Q608 818 618 808Q627 797 627 784Q627 767 614 754Q602 742 583 742Q569 742 560 751Q551 759 551 775M365 775Q365 793 378 806Q390 818 406 818Q422 818 432 808Q441 797 441 784Q441 767 428 754Q416 742 397 742Q383 742 374 751Q365 759 365 775Z"  horiz-adv-x="805" vert-adv-y="1000"  />

      
      <glyph glyph-name="unid7" unicode="&#xd7;" d="M108 173L264 329L108 485L135 512L291 356L447 512L474 485L318 329L474 173L447 146L291 302L135 146L108 173Z"  horiz-adv-x="500" vert-adv-y="1000"  />

      
      <glyph glyph-name="unid8" unicode="&#xd8;" d="M473 676Q608 676 700 591L791 673L816 642L727 562Q790 479 790 369Q790 201 678 92Q572-11 411-11Q338-11 284 9Q230 29 182 76L91-5L67 25L157 105Q93 191 93 296Q93 366 122 438Q151 510 207 567Q314 676 473 676M407 29Q553 29 645 121Q693 169 719 235.50Q745 302 745 367Q745 457 692 531L215 106Q292 29 407 29M191 136L666 561Q586 636 473 636Q336 636 241 543Q139 442 139 300Q139 208 191 136Z"  horiz-adv-x="805" vert-adv-y="1000"  />

      
      <glyph glyph-name="unid9" unicode="&#xd9;" d="M171 667L215 667L164 250Q160 217 159 203.50Q158 190 159 161.50Q160 133 170 111.50Q180 90 199 72Q243 29 323 29Q416 29 468 81Q490 103 503 133.50Q516 164 520.50 186.50Q525 209 530 250L581 667L625 667L574 250Q569 207 564.50 183Q560 159 542.50 119.50Q525 80 496 51Q433-11 322-11Q218-11 163 44Q127 81 118 137Q109 193 120 250L171 667M421 703L303 829L356 854L456 721L421 703Z"  horiz-adv-x="633" vert-adv-y="1000"  />

      
      <glyph glyph-name="unida" unicode="&#xda;" d="M171 667L215 667L164 250Q160 217 159 203.50Q158 190 159 161.50Q160 133 170 111.50Q180 90 199 72Q243 29 323 29Q416 29 468 81Q490 103 503 133.50Q516 164 520.50 186.50Q525 209 530 250L581 667L625 667L574 250Q569 207 564.50 183Q560 159 542.50 119.50Q525 80 496 51Q433-11 322-11Q218-11 163 44Q127 81 118 137Q109 193 120 250L171 667M488 854L535 829L385 703L356 721L488 854Z"  horiz-adv-x="633" vert-adv-y="1000"  />

      
      <glyph glyph-name="unidb" unicode="&#xdb;" d="M171 667L215 667L164 250Q160 217 159 203.50Q158 190 159 161.50Q160 133 170 111.50Q180 90 199 72Q243 29 323 29Q416 29 468 81Q490 103 503 133.50Q516 164 520.50 186.50Q525 209 530 250L581 667L625 667L574 250Q569 207 564.50 183Q560 159 542.50 119.50Q525 80 496 51Q433-11 322-11Q218-11 163 44Q127 81 118 137Q109 193 120 250L171 667M414 786L310 722L279 749L420 839L539 749L502 722L414 786Z"  horiz-adv-x="633" vert-adv-y="1000"  />

      
      <glyph glyph-name="unidc" unicode="&#xdc;" d="M171 667L215 667L164 250Q160 217 159 203.50Q158 190 159 161.50Q160 133 170 111.50Q180 90 199 72Q243 29 323 29Q416 29 468 81Q490 103 503 133.50Q516 164 520.50 186.50Q525 209 530 250L581 667L625 667L574 250Q569 207 564.50 183Q560 159 542.50 119.50Q525 80 496 51Q433-11 322-11Q218-11 163 44Q127 81 118 137Q109 193 120 250L171 667M468 775Q468 793 481 806Q493 818 509 818Q525 818 535 808Q544 797 544 784Q544 767 531 754Q519 742 500 742Q486 742 477 751Q468 759 468 775M282 775Q282 793 295 806Q307 818 323 818Q339 818 349 808Q358 797 358 784Q358 767 345 754Q333 742 314 742Q300 742 291 751Q282 759 282 775Z"  horiz-adv-x="633" vert-adv-y="1000"  />

      
      <glyph glyph-name="unidd" unicode="&#xdd;" d="M233 0L268 285L96 667L144 667L295 330L532 667L584 667L312 285L277 0L233 0M429 854L476 829L326 703L297 721L429 854Z"  horiz-adv-x="516" vert-adv-y="1000"  />

      
      <glyph glyph-name="unide" unicode="&#xde;" d="M90 0L172 667L216 667L201 547L286 547Q375 547 421 500Q462 459 462 388Q462 304 413 253Q359 197 244 197L158 197L134 0L90 0M196 507L163 237L251 237Q333 237 374 276Q414 314 414 386Q414 437 385 468Q368 486 345.50 495Q323 504 308 505.50Q293 507 267 507L196 507Z"  horiz-adv-x="448" vert-adv-y="1000"  />

      
      <glyph glyph-name="unidf" unicode="&#xdf;" d="M114 0L74 0L119 370L50 370L55 408L124 408L144 572Q156 665 201 705Q242 741 303 741Q366 741 402 703Q437 667 437 600Q437 543 412 504Q386 463 340 446Q392 430 428 391Q476 338 476 256Q476 149 403 76Q331 4 210-5L215 35Q259 38 303.50 57Q348 76 377 106Q432 164 432 250Q432 331 384 377Q340 419 263 425L267 460Q322 462 358 494Q394 528 394 593Q394 648 369 675Q345 703 301 703Q256 703 227 676Q194 645 185 578L114 0Z"  horiz-adv-x="492" vert-adv-y="1000"  />

      
      <glyph glyph-name="unie0" unicode="&#xe0;" d="M446 328L456 408L496 408L446 0L406 0L414 63Q388 27 354 10Q312-11 260-11Q180-11 130 36Q71 90 71 184Q71 295 140 361Q198 417 291 417Q350 417 390 390Q426 366 446 328M283 379Q213 379 168 334Q113 279 113 187Q113 110 160 65Q200 27 264 27Q320 27 361 57Q401 87 418 133Q435 179 435 221Q435 296 393 338Q354 379 283 379M325 467L236 595L282 620L357 483L325 467Z"  horiz-adv-x="518" vert-adv-y="1000"  />

      
      <glyph glyph-name="unie1" unicode="&#xe1;" d="M446 328L456 408L496 408L446 0L406 0L414 63Q388 27 354 10Q312-11 260-11Q180-11 130 36Q71 90 71 184Q71 295 140 361Q198 417 291 417Q350 417 390 390Q426 366 446 328M283 379Q213 379 168 334Q113 279 113 187Q113 110 160 65Q200 27 264 27Q320 27 361 57Q401 87 418 133Q435 179 435 221Q435 296 393 338Q354 379 283 379M389 620L429 595L308 467L280 483L389 620Z"  horiz-adv-x="518" vert-adv-y="1000"  />

      
      <glyph glyph-name="unie2" unicode="&#xe2;" d="M446 328L456 408L496 408L446 0L406 0L414 63Q388 27 354 10Q312-11 260-11Q180-11 130 36Q71 90 71 184Q71 295 140 361Q198 417 291 417Q350 417 390 390Q426 366 446 328M283 379Q213 379 168 334Q113 279 113 187Q113 110 160 65Q200 27 264 27Q320 27 361 57Q401 87 418 133Q435 179 435 221Q435 296 393 338Q354 379 283 379M306 535L207 467L178 492L312 586L422 492L387 467L306 535Z"  horiz-adv-x="518" vert-adv-y="1000"  />

      
      <glyph glyph-name="unie3" unicode="&#xe3;" d="M446 328L456 408L496 408L446 0L406 0L414 63Q388 27 354 10Q312-11 260-11Q180-11 130 36Q71 90 71 184Q71 295 140 361Q198 417 291 417Q350 417 390 390Q426 366 446 328M283 379Q213 379 168 334Q113 279 113 187Q113 110 160 65Q200 27 264 27Q320 27 361 57Q401 87 418 133Q435 179 435 221Q435 296 393 338Q354 379 283 379M209 487L185 506Q195 526 212 543Q234 563 262 563Q281 563 311 550L335 539Q357 528 374 528Q392 528 404 540Q409 545 421 565L444 545Q433 522 412 504Q393 488 367 488Q347 488 321 500L297 511Q271 523 254 523Q238 523 226 512Q215 501 209 487Z"  horiz-adv-x="518" vert-adv-y="1000"  />

      
      <glyph glyph-name="unie4" unicode="&#xe4;" d="M446 328L456 408L496 408L446 0L406 0L414 63Q388 27 354 10Q312-11 260-11Q180-11 130 36Q71 90 71 184Q71 295 140 361Q198 417 291 417Q350 417 390 390Q426 366 446 328M283 379Q213 379 168 334Q113 279 113 187Q113 110 160 65Q200 27 264 27Q320 27 361 57Q401 87 418 133Q435 179 435 221Q435 296 393 338Q354 379 283 379M361 523Q361 538 373 550Q385 562 402 562Q418 562 426 552Q434 542 434 530Q434 514 423 503Q411 490 393 490Q380 490 371 499Q361 509 361 523M195 523Q195 538 207 550Q219 562 236 562Q252 562 260 552Q268 542 268 530Q268 514 257 503Q245 490 227 490Q214 490 205 499Q195 509 195 523Z"  horiz-adv-x="518" vert-adv-y="1000"  />

      
      <glyph glyph-name="unie5" unicode="&#xe5;" d="M446 328L456 408L496 408L446 0L406 0L414 63Q388 27 354 10Q312-11 260-11Q180-11 130 36Q71 90 71 184Q71 295 140 361Q198 417 291 417Q350 417 390 390Q426 366 446 328M283 379Q213 379 168 334Q113 279 113 187Q113 110 160 65Q200 27 264 27Q320 27 361 57Q401 87 418 133Q435 179 435 221Q435 296 393 338Q354 379 283 379M239 541Q239 575 264 600Q290 626 326 626Q355 626 376 607Q395 589 395 558Q395 522 371 496Q347 472 309 472Q279 472 259 491Q239 511 239 541M276 543Q276 528 285 519Q294 508 313 508Q333 508 346 521Q358 533 358 553Q358 570 349 579Q340 590 321 590Q303 590 290 578Q276 564 276 543Z"  horiz-adv-x="518" vert-adv-y="1000"  />

      
      <glyph glyph-name="unie6" unicode="&#xe6;" d="M116 340L121 383Q184 417 251 417Q329 417 372 377Q406 343 413 298Q438 349 481 380Q532 417 597 417Q677 417 724 372Q756 342 768 294.50Q780 247 774 198L425 198Q420 163 430 126.50Q440 90 463 66Q500 27 565 27Q621 27 662 57Q699 84 718 121L748 101Q712 45 668 17Q625-11 567-11Q505-11 461 16Q420 42 401 85Q377 32 329 9Q289-11 227-11Q154-11 111 17Q59 51 59 110Q59 174 111 211Q158 245 237 245Q328 245 380 201Q391 306 348 347Q313 379 246 379Q184 379 116 340M236 206Q162 206 128 174Q101 148 101 116Q101 71 141 46Q171 27 227 27Q293 27 330 54Q367 81 367 128Q367 167 326 189Q293 206 236 206M432 236L734 236Q732 308 690 347Q655 379 599 379Q532 379 486 333Q446 292 432 236Z"  horiz-adv-x="795" vert-adv-y="1000"  />

      
      <glyph glyph-name="unie7" unicode="&#xe7;" d="M446 365L439 312Q413 342 383 358Q344 379 302 379Q217 379 167 326Q113 272 113 186Q113 119 155 72Q196 27 270 27Q317 27 354 46Q392 66 418 100L411 42Q381 18 353 5Q315-11 268-11Q178-11 124 43Q71 98 71 186Q71 290 139 356Q202 417 301 417Q345 417 390 399Q416 388 446 365M263-50L307-70L188-194L162-178L263-50Z"  horiz-adv-x="444" vert-adv-y="1000"  />

      
      <glyph glyph-name="unie8" unicode="&#xe8;" d="M463 199L115 199Q109 161 121 125.50Q133 90 156 67Q196 27 259 27Q315 27 356 56Q390 81 409 120L440 100Q410 47 367 19Q322-11 258-11Q172-11 122 43Q71 97 71 182Q71 290 139 358Q198 417 285 417Q364 417 413 370Q472 313 463 199M121 237L423 237Q422 300 382 341Q346 379 285 379Q215 379 168 330Q132 292 121 237M305 467L216 595L262 620L337 483L305 467Z"  horiz-adv-x="487" vert-adv-y="1000"  />

      
      <glyph glyph-name="unie9" unicode="&#xe9;" d="M463 199L115 199Q109 161 121 125.50Q133 90 156 67Q196 27 259 27Q315 27 356 56Q390 81 409 120L440 100Q410 47 367 19Q322-11 258-11Q172-11 122 43Q71 97 71 182Q71 290 139 358Q198 417 285 417Q364 417 413 370Q472 313 463 199M121 237L423 237Q422 300 382 341Q346 379 285 379Q215 379 168 330Q132 292 121 237M374 620L414 595L293 467L265 483L374 620Z"  horiz-adv-x="487" vert-adv-y="1000"  />

      
      <glyph glyph-name="uniea" unicode="&#xea;" d="M463 199L115 199Q109 161 121 125.50Q133 90 156 67Q196 27 259 27Q315 27 356 56Q390 81 409 120L440 100Q410 47 367 19Q322-11 258-11Q172-11 122 43Q71 97 71 182Q71 290 139 358Q198 417 285 417Q364 417 413 370Q472 313 463 199M121 237L423 237Q422 300 382 341Q346 379 285 379Q215 379 168 330Q132 292 121 237M296 535L197 467L168 492L302 586L412 492L377 467L296 535Z"  horiz-adv-x="487" vert-adv-y="1000"  />

      
      <glyph glyph-name="unieb" unicode="&#xeb;" d="M463 199L115 199Q109 161 121 125.50Q133 90 156 67Q196 27 259 27Q315 27 356 56Q390 81 409 120L440 100Q410 47 367 19Q322-11 258-11Q172-11 122 43Q71 97 71 182Q71 290 139 358Q198 417 285 417Q364 417 413 370Q472 313 463 199M121 237L423 237Q422 300 382 341Q346 379 285 379Q215 379 168 330Q132 292 121 237M346 523Q346 538 358 550Q370 562 387 562Q403 562 411 552Q419 542 419 530Q419 514 408 503Q396 490 378 490Q365 490 356 499Q346 509 346 523M180 523Q180 538 192 550Q204 562 221 562Q237 562 245 552Q253 542 253 530Q253 514 242 503Q230 490 212 490Q199 490 190 499Q180 509 180 523Z"  horiz-adv-x="487" vert-adv-y="1000"  />

      
      <glyph glyph-name="uniec" unicode="&#xec;" d="M122 408L162 408L112 0L72 0L122 408M146 467L57 595L103 620L178 483L146 467Z"  horiz-adv-x="184" vert-adv-y="1000"  />

      
      <glyph glyph-name="unied" unicode="&#xed;" d="M122 408L162 408L112 0L72 0L122 408M215 620L255 595L134 467L106 483L215 620Z"  horiz-adv-x="184" vert-adv-y="1000"  />

      
      <glyph glyph-name="uniee" unicode="&#xee;" d="M122 408L162 408L112 0L72 0L122 408M157 531L80 471L53 497L164 583L253 497L220 471L157 531Z"  horiz-adv-x="184" vert-adv-y="1000"  />

      
      <glyph glyph-name="unief" unicode="&#xef;" d="M122 408L162 408L112 0L72 0L122 408M197 523Q197 538 209 550Q221 562 238 562Q254 562 262 552Q270 542 270 530Q270 514 259 503Q247 490 229 490Q216 490 207 499Q197 509 197 523M31 523Q31 538 43 550Q55 562 72 562Q88 562 96 552Q104 542 104 530Q104 514 93 503Q81 490 63 490Q50 490 41 499Q31 509 31 523Z"  horiz-adv-x="184" vert-adv-y="1000"  />

      
      <glyph glyph-name="unif0" unicode="&#xf0;" d="M185 636L195 673Q255 666 304 644Q352 623 387 592L535 639L546 606L414 564Q457 520 478 462Q505 390 505 300Q505 124 421 46Q361-11 268-11Q180-11 128 41Q72 95 72 188Q72 302 145 375Q207 437 300 437Q353 437 397 413Q432 394 455 359L457 359Q452 416 428 467Q406 515 368 549L187 492L179 529L338 576Q308 601 265 617Q227 632 185 636M460 238Q460 314 411 359Q369 399 298 399Q224 399 174 349Q114 291 114 193Q114 117 160 71Q203 27 274 27Q346 27 395 75Q424 104 442 149.50Q460 195 460 238Z"  horiz-adv-x="523" vert-adv-y="1000"  />

      
      <glyph glyph-name="unif1" unicode="&#xf1;" d="M72 0L122 408L162 408L154 344Q171 376 201 395Q234 417 282 417Q342 417 374 385Q405 354 405 304Q405 298 399 232L370 0L330 0L359 238Q364 285 364 292Q364 331 342 354Q319 379 273 379Q222 379 189 347Q151 310 138 212L112 0L72 0M180 487L156 506Q166 526 183 543Q205 563 233 563Q252 563 282 550L306 539Q328 528 345 528Q363 528 375 540Q380 545 392 565L415 545Q404 522 383 504Q364 488 338 488Q318 488 292 500L268 511Q242 523 225 523Q209 523 197 512Q186 501 180 487Z"  horiz-adv-x="442" vert-adv-y="1000"  />

      
      <glyph glyph-name="unif2" unicode="&#xf2;" d="M300 417Q395 417 452 360Q503 309 503 219Q503 112 436 49Q372-11 269-11Q178-11 125 45Q71 101 71 187Q71 234 89.50 279.50Q108 325 139 356Q203 417 300 417M275 27Q351 27 401 73Q461 129 461 215Q461 284 418 331Q372 379 296 379Q223 379 172 333Q113 280 113 193Q113 120 159 72Q202 27 275 27M335 467L246 595L292 620L367 483L335 467Z"  horiz-adv-x="524" vert-adv-y="1000"  />

      
      <glyph glyph-name="unif3" unicode="&#xf3;" d="M300 417Q395 417 452 360Q503 309 503 219Q503 112 436 49Q372-11 269-11Q178-11 125 45Q71 101 71 187Q71 234 89.50 279.50Q108 325 139 356Q203 417 300 417M275 27Q351 27 401 73Q461 129 461 215Q461 284 418 331Q372 379 296 379Q223 379 172 333Q113 280 113 193Q113 120 159 72Q202 27 275 27M381 620L421 595L300 467L272 483L381 620Z"  horiz-adv-x="524" vert-adv-y="1000"  />

      
      <glyph glyph-name="unif4" unicode="&#xf4;" d="M300 417Q395 417 452 360Q503 309 503 219Q503 112 436 49Q372-11 269-11Q178-11 125 45Q71 101 71 187Q71 234 89.50 279.50Q108 325 139 356Q203 417 300 417M275 27Q351 27 401 73Q461 129 461 215Q461 284 418 331Q372 379 296 379Q223 379 172 333Q113 280 113 193Q113 120 159 72Q202 27 275 27M316 535L217 467L188 492L322 586L432 492L397 467L316 535Z"  horiz-adv-x="524" vert-adv-y="1000"  />

      
      <glyph glyph-name="unif5" unicode="&#xf5;" d="M300 417Q395 417 452 360Q503 309 503 219Q503 112 436 49Q372-11 269-11Q178-11 125 45Q71 101 71 187Q71 234 89.50 279.50Q108 325 139 356Q203 417 300 417M275 27Q351 27 401 73Q461 129 461 215Q461 284 418 331Q372 379 296 379Q223 379 172 333Q113 280 113 193Q113 120 159 72Q202 27 275 27M209 487L185 506Q195 526 212 543Q234 563 262 563Q281 563 311 550L335 539Q357 528 374 528Q392 528 404 540Q409 545 421 565L444 545Q433 522 412 504Q393 488 367 488Q347 488 321 500L297 511Q271 523 254 523Q238 523 226 512Q215 501 209 487Z"  horiz-adv-x="524" vert-adv-y="1000"  />

      
      <glyph glyph-name="unif6" unicode="&#xf6;" d="M300 417Q395 417 452 360Q503 309 503 219Q503 112 436 49Q372-11 269-11Q178-11 125 45Q71 101 71 187Q71 234 89.50 279.50Q108 325 139 356Q203 417 300 417M275 27Q351 27 401 73Q461 129 461 215Q461 284 418 331Q372 379 296 379Q223 379 172 333Q113 280 113 193Q113 120 159 72Q202 27 275 27M361 523Q361 538 373 550Q385 562 402 562Q418 562 426 552Q434 542 434 530Q434 514 423 503Q411 490 393 490Q380 490 371 499Q361 509 361 523M195 523Q195 538 207 550Q219 562 236 562Q252 562 260 552Q268 542 268 530Q268 514 257 503Q245 490 227 490Q214 490 205 499Q195 509 195 523Z"  horiz-adv-x="524" vert-adv-y="1000"  />

      
      <glyph glyph-name="unif7" unicode="&#xf7;" d="M263.50 493.50Q263.50 493.50 258.25 498.75Q253 504 253 518Q253 532 263.50 542.50Q274 553 288 553Q302 553 312.50 542.50Q323 532 323 518Q323 504 312.50 493.50Q302 483 288 483Q274 483 263.50 493.50M263.50 115.50Q263.50 115.50 258.25 120.75Q253 126 253 140Q253 154 263.50 164.50Q274 175 288 175Q302 175 312.50 164.50Q323 154 323 140Q323 126 312.50 115.50Q302 105 288 105Q274 105 263.50 115.50M71 310L71 348L505 348L505 310L71 310Z"  horiz-adv-x="500" vert-adv-y="1000"  />

      
      <glyph glyph-name="unif8" unicode="&#xf8;" d="M296 417Q376 417 440 367L502 423L524 398L462 343Q499 289 499 219Q499 114 432 49Q370-11 265-11Q181-11 124 42L64-11L42 13L103 67Q67 125 67 187Q67 291 135 356Q200 417 296 417M271 27Q347 27 397 73Q457 129 457 215Q457 267 428 313L156 71Q203 27 271 27M136 97L407 338Q359 379 292 379Q219 379 168 333Q109 279 109 193Q109 143 136 97Z"  horiz-adv-x="524" vert-adv-y="1000"  />

      
      <glyph glyph-name="unif9" unicode="&#xf9;" d="M121 408L161 408L131 162Q121 83 156 51Q183 27 226 27Q279 27 309 59Q337 89 345 162L375 408L415 408L381 151Q369 65 340 32Q301-11 224-11Q158-11 122 26Q80 70 91 160L121 408M285 467L196 595L242 620L317 483L285 467Z"  horiz-adv-x="437" vert-adv-y="1000"  />

      
      <glyph glyph-name="unifa" unicode="&#xfa;" d="M121 408L161 408L131 162Q121 83 156 51Q183 27 226 27Q279 27 309 59Q337 89 345 162L375 408L415 408L381 151Q369 65 340 32Q301-11 224-11Q158-11 122 26Q80 70 91 160L121 408M350 620L390 595L269 467L241 483L350 620Z"  horiz-adv-x="437" vert-adv-y="1000"  />

      
      <glyph glyph-name="unifb" unicode="&#xfb;" d="M121 408L161 408L131 162Q121 83 156 51Q183 27 226 27Q279 27 309 59Q337 89 345 162L375 408L415 408L381 151Q369 65 340 32Q301-11 224-11Q158-11 122 26Q80 70 91 160L121 408M285 535L186 467L157 492L291 586L401 492L366 467L285 535Z"  horiz-adv-x="437" vert-adv-y="1000"  />

      
      <glyph glyph-name="unifc" unicode="&#xfc;" d="M121 408L161 408L131 162Q121 83 156 51Q183 27 226 27Q279 27 309 59Q337 89 345 162L375 408L415 408L381 151Q369 65 340 32Q301-11 224-11Q158-11 122 26Q80 70 91 160L121 408M330 523Q330 538 342 550Q354 562 371 562Q387 562 395 552Q403 542 403 530Q403 514 392 503Q380 490 362 490Q349 490 340 499Q330 509 330 523M164 523Q164 538 176 550Q188 562 205 562Q221 562 229 552Q237 542 237 530Q237 514 226 503Q214 490 196 490Q183 490 174 499Q164 509 164 523Z"  horiz-adv-x="437" vert-adv-y="1000"  />

      
      <glyph glyph-name="unifd" unicode="&#xfd;" d="M78-230L201-7L58 408L102 408L229 45L422 408L470 408L124-230L78-230M345 620L385 595L264 467L236 483L345 620Z"  horiz-adv-x="428" vert-adv-y="1000"  />

      
      <glyph glyph-name="unife" unicode="&#xfe;" d="M121 73L84-230L44-230L163 729L203 729L153 337Q175 370 214 392Q258 417 316 417Q398 417 448 367Q497 316 497 231Q497 115 428 48Q369-11 280-11Q221-11 175 18Q141 40 121 73M279 27Q352 27 396 67Q455 121 455 224Q455 298 410 341Q372 379 312 379Q239 379 190 330Q134 274 134 181Q134 110 179 65Q218 27 279 27Z"  horiz-adv-x="518" vert-adv-y="1000"  />

      
      <glyph glyph-name="uniff" unicode="&#xff;" d="M78-230L201-7L58 408L102 408L229 45L422 408L470 408L124-230L78-230M325 523Q325 538 337 550Q349 562 366 562Q382 562 390 552Q398 542 398 530Q398 514 387 503Q375 490 357 490Q344 490 335 499Q325 509 325 523M159 523Q159 538 171 550Q183 562 200 562Q216 562 224 552Q232 542 232 530Q232 514 221 503Q209 490 191 490Q178 490 169 499Q159 509 159 523Z"  horiz-adv-x="428" vert-adv-y="1000"  />

      
      <glyph glyph-name="uni0100" unicode="&#x0100;" d="M526 0L464 219L180 219L64 0L14 0L379 687L572 0L526 0M201 259L453 259L367 575L201 259M250 750L255 794L525 794L520 750L250 750Z"  horiz-adv-x="586" vert-adv-y="1000"  />

      
      <glyph glyph-name="uni0101" unicode="&#x0101;" d="M446 328L456 408L496 408L446 0L406 0L414 63Q388 27 354 10Q312-11 260-11Q180-11 130 36Q71 90 71 184Q71 295 140 361Q198 417 291 417Q350 417 390 390Q426 366 446 328M283 379Q213 379 168 334Q113 279 113 187Q113 110 160 65Q200 27 264 27Q320 27 361 57Q401 87 418 133Q435 179 435 221Q435 296 393 338Q354 379 283 379M182 493L186 532L456 532L452 493L182 493Z"  horiz-adv-x="518" vert-adv-y="1000"  />

      
      <glyph glyph-name="uni0102" unicode="&#x0102;" d="M526 0L464 219L180 219L64 0L14 0L379 687L572 0L526 0M201 259L453 259L367 575L201 259M259 826L299 826Q304 804 322 790Q343 774 380 774Q418 774 443 790Q464 804 473 826L513 826Q500 782 465 757Q428 732 376 732Q326 732 294 758Q264 784 259 826Z"  horiz-adv-x="586" vert-adv-y="1000"  />

      
      <glyph glyph-name="uni0103" unicode="&#x0103;" d="M446 328L456 408L496 408L446 0L406 0L414 63Q388 27 354 10Q312-11 260-11Q180-11 130 36Q71 90 71 184Q71 295 140 361Q198 417 291 417Q350 417 390 390Q426 366 446 328M283 379Q213 379 168 334Q113 279 113 187Q113 110 160 65Q200 27 264 27Q320 27 361 57Q401 87 418 133Q435 179 435 221Q435 296 393 338Q354 379 283 379M195 573L233 573Q238 547 257 533Q279 517 316 517Q353 517 377 533Q399 548 407 573L445 573Q436 539 411 515Q373 479 314 479Q260 479 228 507Q198 534 195 573Z"  horiz-adv-x="518" vert-adv-y="1000"  />

      
      <glyph glyph-name="uni0104" unicode="&#x0104;" d="M524 0L462 219L178 219L62 0L14 0L379 687L572 0Q538-27 522-47Q499-74 499-103Q499-126 516-137Q531-146 555-146Q585-146 606-135L593-174Q569-182 545-182Q506-182 482-164Q456-144 456-112Q456-75 482-43Q501-21 528 0L524 0M199 259L451 259L365 575L199 259Z"  horiz-adv-x="586" vert-adv-y="1000"  />

      
      <glyph glyph-name="uni0105" unicode="&#x0105;" d="M446 328L456 408L496 408L446 0Q419-22 402-42Q373-74 373-102Q373-126 393-137Q410-146 432-146Q453-146 475-137L462-174Q442-181 421-181Q384-181 360-163Q335-144 335-112Q335-79 358-46Q377-19 406 0L414 63Q388 27 354 10Q312-11 260-11Q180-11 130 36Q71 90 71 184Q71 295 140 361Q198 417 291 417Q350 417 390 390Q426 366 446 328M283 379Q213 379 168 334Q113 279 113 187Q113 110 160 65Q200 27 264 27Q320 27 361 57Q401 87 418 133Q435 179 435 221Q435 296 393 338Q354 379 283 379Z"  horiz-adv-x="518" vert-adv-y="1000"  />

      
      <glyph glyph-name="uni0106" unicode="&#x0106;" d="M700 589L693 531Q655 580 604 607Q548 636 480 636Q341 636 243 538Q195 490 169 425.50Q143 361 143 298Q143 185 220 106Q295 29 410 29Q478 29 539 57Q597 83 644 130L637 72Q590 32 541 12Q486-11 409-11Q274-11 187 76Q95 168 95 300Q95 458 213 570Q324 676 481 676Q554 676 617 649Q664 626 700 589M591 854L638 829L488 703L459 721L591 854Z"  horiz-adv-x="682" vert-adv-y="1000"  />

      
      <glyph glyph-name="uni0107" unicode="&#x0107;" d="M446 365L439 312Q413 342 383 358Q344 379 302 379Q217 379 167 326Q113 272 113 186Q113 119 155 72Q196 27 270 27Q317 27 354 46Q392 66 418 100L411 42Q381 18 353 5Q315-11 268-11Q178-11 124 43Q71 98 71 186Q71 290 139 356Q202 417 301 417Q345 417 390 399Q416 388 446 365M381 620L421 595L300 467L272 483L381 620Z"  horiz-adv-x="444" vert-adv-y="1000"  />

      
      <glyph glyph-name="uni0108" unicode="&#x0108;" d="M700 589L693 531Q655 580 604 607Q548 636 480 636Q341 636 243 538Q195 490 169 425.50Q143 361 143 298Q143 185 220 106Q295 29 410 29Q478 29 539 57Q597 83 644 130L637 72Q590 32 541 12Q486-11 409-11Q274-11 187 76Q95 168 95 300Q95 458 213 570Q324 676 481 676Q554 676 617 649Q664 626 700 589M507 786L403 722L372 749L513 839L632 749L595 722L507 786Z"  horiz-adv-x="682" vert-adv-y="1000"  />

      
      <glyph glyph-name="uni0109" unicode="&#x0109;" d="M446 365L439 312Q413 342 383 358Q344 379 302 379Q217 379 167 326Q113 272 113 186Q113 119 155 72Q196 27 270 27Q317 27 354 46Q392 66 418 100L411 42Q381 18 353 5Q315-11 268-11Q178-11 124 43Q71 98 71 186Q71 290 139 356Q202 417 301 417Q345 417 390 399Q416 388 446 365M316 535L217 467L188 492L322 586L432 492L397 467L316 535Z"  horiz-adv-x="444" vert-adv-y="1000"  />

      
      <glyph glyph-name="uni010A" unicode="&#x010A;" d="M700 589L693 531Q655 580 604 607Q548 636 480 636Q341 636 243 538Q195 490 169 425.50Q143 361 143 298Q143 185 220 106Q295 29 410 29Q478 29 539 57Q597 83 644 130L637 72Q590 32 541 12Q486-11 409-11Q274-11 187 76Q95 168 95 300Q95 458 213 570Q324 676 481 676Q554 676 617 649Q664 626 700 589M466 775Q466 796 478 808Q489 822 512 822Q528 822 538 812Q548 802 548 787Q548 766 536 754Q524 740 503 740Q486 740 476 750Q466 760 466 775Z"  horiz-adv-x="682" vert-adv-y="1000"  />

      
      <glyph glyph-name="uni010B" unicode="&#x010B;" d="M446 365L439 312Q413 342 383 358Q344 379 302 379Q217 379 167 326Q113 272 113 186Q113 119 155 72Q196 27 270 27Q317 27 354 46Q392 66 418 100L411 42Q381 18 353 5Q315-11 268-11Q178-11 124 43Q71 98 71 186Q71 290 139 356Q202 417 301 417Q345 417 390 399Q416 388 446 365M284 522Q284 540 297 553Q310 566 328 566Q342 566 353 557Q363 549 363 532Q363 513 349 500Q337 488 319 488Q305 488 294 497Q284 507 284 522Z"  horiz-adv-x="444" vert-adv-y="1000"  />

      
      <glyph glyph-name="uni010C" unicode="&#x010C;" d="M700 589L693 531Q655 580 604 607Q548 636 480 636Q341 636 243 538Q195 490 169 425.50Q143 361 143 298Q143 185 220 106Q295 29 410 29Q478 29 539 57Q597 83 644 130L637 72Q590 32 541 12Q486-11 409-11Q274-11 187 76Q95 168 95 300Q95 458 213 570Q324 676 481 676Q554 676 617 649Q664 626 700 589M495 775L599 839L630 812L489 722L370 812L407 839L495 775Z"  horiz-adv-x="682" vert-adv-y="1000"  />

      
      <glyph glyph-name="uni010D" unicode="&#x010D;" d="M446 365L439 312Q413 342 383 358Q344 379 302 379Q217 379 167 326Q113 272 113 186Q113 119 155 72Q196 27 270 27Q317 27 354 46Q392 66 418 100L411 42Q381 18 353 5Q315-11 268-11Q178-11 124 43Q71 98 71 186Q71 290 139 356Q202 417 301 417Q345 417 390 399Q416 388 446 365M313 517L412 585L441 559L307 465L197 559L232 585L313 517Z"  horiz-adv-x="444" vert-adv-y="1000"  />

      
      <glyph glyph-name="uni010E" unicode="&#x010E;" d="M222 0L132 0L90 0L172 667L295 667Q456 667 538 574Q607 496 607 366Q607 193 503 94Q404 0 222 0M211 627L139 40L226 40Q382 40 469 127Q562 219 562 371Q562 480 497 549Q423 627 288 627L211 627M335 775L439 839L470 812L329 722L210 812L247 839L335 775Z"  horiz-adv-x="620" vert-adv-y="1000"  />

      
      <glyph glyph-name="uni010F" unicode="&#x010F;" d="M447 326L497 729L537 729L447 0L407 0L414 58Q386 25 350 7Q313-11 265-11Q173-11 123 43Q71 99 71 191Q71 292 138 359Q197 417 288 417Q347 417 390 389Q427 365 447 326M285 379Q220 379 173 334Q115 278 115 190Q115 115 160 69Q199 27 265 27Q334 27 381 72Q436 126 436 224Q436 296 392 338Q351 379 285 379M545 522L613 680L655 664L571 510L545 522Z"  horiz-adv-x="555" vert-adv-y="1000"  />

      
      <glyph glyph-name="uni0110" unicode="&#x0110;" d="M221 0L134 0L89 0L132 345L42 345L47 385L137 385L171 667L294 667Q455 667 537 574Q606 496 606 366Q606 199 508 100Q408 0 221 0M210 627L181 385L317 385L312 345L176 345L138 40L225 40Q379 40 468 127Q561 218 561 371Q561 480 496 549Q422 627 287 627L210 627Z"  horiz-adv-x="620" vert-adv-y="1000"  />

      
      <glyph glyph-name="uni0111" unicode="&#x0111;" d="M447 326L476 562L296 562L301 600L481 600L497 729L537 729L521 600L620 600L615 562L516 562L447 0L407 0L414 58Q386 25 350 7Q313-11 265-11Q173-11 123 43Q71 99 71 190Q71 294 138 359Q197 417 286 417Q345 417 390 389Q427 366 447 326M284 379Q220 379 173 334Q115 278 115 190Q115 115 160 69Q199 27 265 27Q336 27 381 72Q436 127 436 219Q436 295 391 338Q350 379 284 379Z"  horiz-adv-x="519" vert-adv-y="1000"  />

      
      <glyph glyph-name="uni0112" unicode="&#x0112;" d="M492 667L487 627L211 627L181 385L451 385L446 345L176 345L139 40L415 40L410 0L132 0L90 0L172 667L492 667M207 750L212 794L482 794L477 750L207 750Z"  horiz-adv-x="464" vert-adv-y="1000"  />

      
      <glyph glyph-name="uni0113" unicode="&#x0113;" d="M463 199L115 199Q109 161 121 125.50Q133 90 156 67Q196 27 259 27Q315 27 356 56Q390 81 409 120L440 100Q410 47 367 19Q322-11 258-11Q172-11 122 43Q71 97 71 182Q71 290 139 358Q198 417 285 417Q364 417 413 370Q472 313 463 199M121 237L423 237Q422 300 382 341Q346 379 285 379Q215 379 168 330Q132 292 121 237M161 493L165 532L435 532L431 493L161 493Z"  horiz-adv-x="487" vert-adv-y="1000"  />

      
      <glyph glyph-name="uni0116" unicode="&#x0116;" d="M492 667L487 627L211 627L181 385L451 385L446 345L176 345L139 40L415 40L410 0L132 0L90 0L172 667L492 667M305 775Q305 796 317 808Q328 822 351 822Q367 822 377 812Q387 802 387 787Q387 766 375 754Q363 740 342 740Q325 740 315 750Q305 760 305 775Z"  horiz-adv-x="464" vert-adv-y="1000"  />

      
      <glyph glyph-name="uni0117" unicode="&#x0117;" d="M463 199L115 199Q109 161 121 125.50Q133 90 156 67Q196 27 259 27Q315 27 356 56Q390 81 409 120L440 100Q410 47 367 19Q322-11 258-11Q172-11 122 43Q71 97 71 182Q71 290 139 358Q198 417 285 417Q364 417 413 370Q472 313 463 199M121 237L423 237Q422 300 382 341Q346 379 285 379Q215 379 168 330Q132 292 121 237M260 522Q260 540 273 553Q286 566 304 566Q318 566 329 557Q339 549 339 532Q339 513 325 500Q313 488 295 488Q281 488 270 497Q260 507 260 522Z"  horiz-adv-x="487" vert-adv-y="1000"  />

      
      <glyph glyph-name="uni0118" unicode="&#x0118;" d="M492 667L487 627L211 627L181 385L451 385L446 345L176 345L139 40L415 40L410 0L360 0Q326-27 310-47Q287-76 287-102Q287-126 304-137Q318-146 343-146Q370-146 394-135L381-174Q358-182 333-182Q294-182 270-164Q244-144 244-110Q244-77 270-43Q289-21 316 0L134 0L90 0L172 667L492 667Z"  horiz-adv-x="464" vert-adv-y="1000"  />

      
      <glyph glyph-name="uni0119" unicode="&#x0119;" d="M463 199L115 199Q113 183 113 175Q113 110 156 67Q196 27 259 27Q315 27 356 56Q390 81 409 120L440 100Q407 44 338 0Q300-23 279-47Q256-74 256-101Q256-122 273-135Q288-146 313-146Q331-146 358-137L345-174Q325-181 304-181Q265-181 243-163Q218-144 218-108Q218-82 234-57Q249-34 276-11Q223-11 187.50 0Q152 11 122 43Q71 98 71 182Q71 290 139 358Q198 417 285 417Q364 417 411 372Q465 322 465 232Q465 219 463 199M122 237L423 237Q423 301 383 341Q347 379 287 379Q217 379 170 330Q135 294 122 237Z"  horiz-adv-x="487" vert-adv-y="1000"  />

      
      <glyph glyph-name="uni011A" unicode="&#x011A;" d="M492 667L487 627L211 627L181 385L451 385L446 345L176 345L139 40L415 40L410 0L132 0L90 0L172 667L492 667M345 775L449 839L480 812L339 722L220 812L257 839L345 775Z"  horiz-adv-x="464" vert-adv-y="1000"  />

      
      <glyph glyph-name="uni011B" unicode="&#x011B;" d="M463 199L115 199Q109 161 121 125.50Q133 90 156 67Q196 27 259 27Q315 27 356 56Q390 81 409 120L440 100Q410 47 367 19Q322-11 258-11Q172-11 122 43Q71 97 71 182Q71 290 139 358Q198 417 285 417Q364 417 413 370Q472 313 463 199M121 237L423 237Q422 300 382 341Q346 379 285 379Q215 379 168 330Q132 292 121 237M298 517L397 585L426 559L292 465L182 559L217 585L298 517Z"  horiz-adv-x="487" vert-adv-y="1000"  />

      
      <glyph glyph-name="uni011C" unicode="&#x011C;" d="M473 280L478 320L758 320Q744 173 654 84Q558-11 415-11Q274-11 185 78Q95 167 95 298Q95 462 206 569Q315 676 479 676Q578 676 655 627Q718 586 756 520L717 492Q681 555 633 589Q566 636 477 636Q409 636 346 610.50Q283 585 239 542Q192 496 166 432Q140 368 140 303Q140 190 216 110Q294 29 408 29Q541 29 628 119Q692 185 708 280L473 280M493 786L389 722L358 749L499 839L618 749L581 722L493 786Z"  horiz-adv-x="773" vert-adv-y="1000"  />

      
      <glyph glyph-name="uni011D" unicode="&#x011D;" d="M458 408L498 408L450 12Q434-116 383-169Q325-230 223-230Q136-230 88-182Q38-134 37-55L79-55Q81-115 115-151Q154-192 228-192Q306-192 351-147Q395-103 410 12L417 70Q391 32 351 12Q306-11 256-11Q168-11 119 41Q67 97 67 184Q67 289 133 356Q191 417 287 417Q354 417 398 389Q429 367 449 337L458 408M288 379Q217 379 169 334Q111 279 111 184Q111 117 154 70Q194 27 266 27Q337 27 383 74Q437 131 437 224Q437 298 394 339Q354 379 288 379M326 535L227 467L198 492L332 586L442 492L407 467L326 535Z"  horiz-adv-x="520" vert-adv-y="1000"  />

      
      <glyph glyph-name="uni011E" unicode="&#x011E;" d="M473 280L478 320L758 320Q744 173 654 84Q558-11 415-11Q274-11 185 78Q95 167 95 298Q95 462 206 569Q315 676 479 676Q578 676 655 627Q718 586 756 520L717 492Q681 555 633 589Q566 636 477 636Q409 636 346 610.50Q283 585 239 542Q192 496 166 432Q140 368 140 303Q140 190 216 110Q294 29 408 29Q541 29 628 119Q692 185 708 280L473 280M370 826L410 826Q415 804 433 790Q454 774 491 774Q529 774 554 790Q575 804 584 826L624 826Q611 782 576 757Q539 732 487 732Q437 732 405 758Q375 784 370 826Z"  horiz-adv-x="773" vert-adv-y="1000"  />

      
      <glyph glyph-name="uni011F" unicode="&#x011F;" d="M458 408L498 408L450 12Q434-116 383-169Q325-230 223-230Q136-230 88-182Q38-134 37-55L79-55Q81-115 115-151Q154-192 228-192Q306-192 351-147Q395-103 410 12L417 70Q391 32 351 12Q306-11 256-11Q168-11 119 41Q67 97 67 184Q67 289 133 356Q191 417 287 417Q354 417 398 389Q429 367 449 337L458 408M288 379Q217 379 169 334Q111 279 111 184Q111 117 154 70Q194 27 266 27Q337 27 383 74Q437 131 437 224Q437 298 394 339Q354 379 288 379M189 573L227 573Q232 547 251 533Q273 517 310 517Q347 517 371 533Q393 548 401 573L439 573Q430 539 405 515Q367 479 308 479Q254 479 222 507Q192 534 189 573Z"  horiz-adv-x="520" vert-adv-y="1000"  />

      
      <glyph glyph-name="uni0120" unicode="&#x0120;" d="M473 280L478 320L758 320Q744 173 654 84Q558-11 415-11Q274-11 185 78Q95 167 95 298Q95 462 206 569Q315 676 479 676Q578 676 655 627Q718 586 756 520L717 492Q681 555 633 589Q566 636 477 636Q409 636 346 610.50Q283 585 239 542Q192 496 166 432Q140 368 140 303Q140 190 216 110Q294 29 408 29Q541 29 628 119Q692 185 708 280L473 280M442 775Q442 796 454 808Q465 822 488 822Q504 822 514 812Q524 802 524 787Q524 766 512 754Q500 740 479 740Q462 740 452 750Q442 760 442 775Z"  horiz-adv-x="773" vert-adv-y="1000"  />

      
      <glyph glyph-name="uni0121" unicode="&#x0121;" d="M458 408L498 408L450 12Q434-116 383-169Q325-230 223-230Q136-230 88-182Q38-134 37-55L79-55Q81-115 115-151Q154-192 228-192Q306-192 351-147Q395-103 410 12L417 70Q391 32 351 12Q306-11 256-11Q168-11 119 41Q67 97 67 184Q67 289 133 356Q191 417 287 417Q354 417 398 389Q429 367 449 337L458 408M288 379Q217 379 169 334Q111 279 111 184Q111 117 154 70Q194 27 266 27Q337 27 383 74Q437 131 437 224Q437 298 394 339Q354 379 288 379M260 522Q260 540 273 553Q286 566 304 566Q318 566 329 557Q339 549 339 532Q339 513 325 500Q313 488 295 488Q281 488 270 497Q260 507 260 522Z"  horiz-adv-x="520" vert-adv-y="1000"  />

      
      <glyph glyph-name="uni0122" unicode="&#x0122;" d="M473 280L478 320L758 320Q744 173 654 84Q558-11 415-11Q274-11 185 78Q95 167 95 298Q95 462 206 569Q315 676 479 676Q578 676 655 627Q718 586 756 520L717 492Q681 555 633 589Q566 636 477 636Q409 636 346 610.50Q283 585 239 542Q192 496 166 432Q140 368 140 303Q140 190 216 110Q294 29 408 29Q541 29 628 119Q692 185 708 280L473 280M302-188L366-50L408-66L328-200L302-188Z"  horiz-adv-x="773" vert-adv-y="1000"  />

      
      <glyph glyph-name="uni0123" unicode="&#x0123;" d="M458 408L498 408L450 12Q434-116 383-169Q325-230 223-230Q136-230 88-182Q38-134 37-55L79-55Q81-115 115-151Q154-192 228-192Q306-192 351-147Q395-103 410 12L417 70Q391 32 351 12Q306-11 256-11Q168-11 119 41Q67 97 67 184Q67 289 133 356Q191 417 287 417Q354 417 398 389Q429 367 449 337L458 408M288 379Q217 379 169 334Q111 279 111 184Q111 117 154 70Q194 27 266 27Q337 27 383 74Q437 131 437 224Q437 298 394 339Q354 379 288 379M401 631L343 493L301 509L375 643L401 631Z"  horiz-adv-x="520" vert-adv-y="1000"  />

      
      <glyph glyph-name="uni0124" unicode="&#x0124;" d="M216 667L181 384L585 384L620 667L664 667L582 0L538 0L580 344L176 344L134 0L90 0L172 667L216 667M433 786L329 722L298 749L439 839L558 749L521 722L433 786Z"  horiz-adv-x="672" vert-adv-y="1000"  />

      
      <glyph glyph-name="uni0125" unicode="&#x0125;" d="M72 0L162 729L202 729L154 344Q172 375 199 393Q233 417 281 417Q338 417 371 386Q412 348 402 257L370 0L330 0L362 257Q370 326 341 355Q317 379 276 379Q225 379 190 344Q149 303 138 212L112 0L72 0M188 795L89 727L60 752L194 846L304 752L269 727L188 795Z"  horiz-adv-x="442" vert-adv-y="1000"  />

      
      <glyph glyph-name="uni0126" unicode="&#x0126;" d="M216 667L209 613L613 613L620 667L664 667L657 613L711 613L707 579L653 579L582 0L538 0L580 344L176 344L134 0L90 0L161 579L107 579L111 613L165 613L172 667L216 667M609 579L205 579L181 384L585 384L609 579Z"  horiz-adv-x="672" vert-adv-y="1000"  />

      
      <glyph glyph-name="uni0127" unicode="&#x0127;" d="M72 0L141 562L41 562L46 600L146 600L162 729L202 729L186 600L366 600L361 562L181 562L154 344Q206 417 288 417Q366 417 394 360Q411 324 402 257L370 0L330 0L362 257Q369 313 356 339Q336 379 281 379Q212 379 174 322Q146 280 138 212L112 0L72 0Z"  horiz-adv-x="442" vert-adv-y="1000"  />

      
      <glyph glyph-name="uni012A" unicode="&#x012A;" d="M172 667L216 667L134 0L90 0L172 667M102 750L107 794L311 794L306 750L102 750Z"  horiz-adv-x="224" vert-adv-y="1000"  />

      
      <glyph glyph-name="uni012B" unicode="&#x012B;" d="M122 408L162 408L112 0L72 0L122 408M73 493L77 532L237 532L233 493L73 493Z"  horiz-adv-x="184" vert-adv-y="1000"  />

      
      <glyph glyph-name="uni012E" unicode="&#x012E;" d="M172 667L216 667L134 0Q100-27 84-47Q61-74 61-103Q61-126 78-137Q93-146 117-146Q147-146 168-135L155-174Q131-182 107-182Q68-182 44-164Q18-144 18-112Q18-75 44-43Q63-21 90 0L172 667Z"  horiz-adv-x="224" vert-adv-y="1000"  />

      
      <glyph glyph-name="uni012F" unicode="&#x012F;" d="M122 408L162 408L112 0Q85-22 68-42Q39-74 39-102Q39-126 59-137Q76-146 98-146Q119-146 141-137L128-174Q108-181 87-181Q50-181 26-163Q1-144 1-112Q1-79 24-46Q43-19 72 0L122 408M154 507Q140 507 131 516Q123 524 123 538Q123 559 136 570Q147 581 163 581Q177 581 186 572Q195 563 195 549Q195 531 183 519Q171 507 154 507Z"  horiz-adv-x="184" vert-adv-y="1000"  />

      
      <glyph glyph-name="uni0130" unicode="&#x0130;" d="M172 667L216 667L134 0L90 0L172 667M157 775Q157 796 169 808Q180 822 203 822Q219 822 229 812Q239 802 239 787Q239 766 227 754Q215 740 194 740Q177 740 167 750Q157 760 157 775Z"  horiz-adv-x="224" vert-adv-y="1000"  />

      
      <glyph glyph-name="uni0131" unicode="&#x0131;" d="M122 408L162 408L112 0L72 0L122 408Z"  horiz-adv-x="184" vert-adv-y="1000"  />

      
      <glyph glyph-name="uni0134" unicode="&#x0134;" d="M216 667L260 667L195 139Q184 51 153 20Q121-11 65-11Q22-11-6 12Q-29 30-42 61L-8 85Q1 59 18 45Q36 29 68 29Q102 29 121 49Q144 72 150 130L216 667M267 786L163 722L132 749L273 839L392 749L355 722L267 786Z"  horiz-adv-x="268" vert-adv-y="1000"  />

      
      <glyph glyph-name="uni0135" unicode="&#x0135;" d="M122 408L162 408L84-230L44-230L122 408M157 531L80 471L53 497L164 583L253 497L220 471L157 531Z"  horiz-adv-x="184" vert-adv-y="1000"  />

      
      <glyph glyph-name="uni0136" unicode="&#x0136;" d="M216 667L177 353L531 667L589 667L225 347L524 0L466 0L191 318L171 301L134 0L90 0L172 667L216 667M190-188L254-50L296-66L216-200L190-188Z"  horiz-adv-x="540" vert-adv-y="1000"  />

      
      <glyph glyph-name="uni0137" unicode="&#x0137;" d="M162 729L202 729L141 233L330 408L382 408L187 229L385 0L334 0L158 202L134 181L112 0L72 0L162 729M125-188L183-50L225-66L151-200L125-188Z"  horiz-adv-x="393" vert-adv-y="1000"  />

      
      <glyph glyph-name="uni0139" unicode="&#x0139;" d="M172 667L216 667L139 40L325 40L320 0L90 0L172 667M338 854L385 829L235 703L206 721L338 854Z"  horiz-adv-x="334" vert-adv-y="1000"  />

      
      <glyph glyph-name="uni013A" unicode="&#x013A;" d="M162 729L202 729L112 0L72 0L162 729M223 900L263 875L142 747L114 763L223 900Z"  horiz-adv-x="184" vert-adv-y="1000"  />

      
      <glyph glyph-name="uni013B" unicode="&#x013B;" d="M172 667L216 667L139 40L325 40L320 0L90 0L172 667M130-188L194-50L236-66L156-200L130-188Z"  horiz-adv-x="334" vert-adv-y="1000"  />

      
      <glyph glyph-name="uni013C" unicode="&#x013C;" d="M162 729L202 729L112 0L72 0L162 729M12-188L70-50L112-66L38-200L12-188Z"  horiz-adv-x="184" vert-adv-y="1000"  />

      
      <glyph glyph-name="uni013D" unicode="&#x013D;" d="M172 667L216 667L139 40L325 40L320 0L90 0L172 667M296 522L364 680L406 664L322 510L296 522Z"  horiz-adv-x="334" vert-adv-y="1000"  />

      
      <glyph glyph-name="uni013E" unicode="&#x013E;" d="M162 729L202 729L112 0L72 0L162 729M214 522L282 680L324 664L240 510L214 522Z"  horiz-adv-x="224" vert-adv-y="1000"  />

      
      <glyph glyph-name="uni013F" unicode="&#x013F;" d="M172 667L216 667L139 40L325 40L320 0L90 0L172 667M280 326Q280 347 292 359Q303 373 326 373Q342 373 352 363Q362 353 362 338Q362 317 350 305Q338 291 317 291Q300 291 290 301Q280 311 280 326Z"  horiz-adv-x="350" vert-adv-y="1000"  />

      
      <glyph glyph-name="uni0140" unicode="&#x0140;" d="M162 729L202 729L112 0L72 0L162 729M283 359Q283 377 296 390Q309 403 327 403Q341 403 352 394Q362 386 362 369Q362 350 348 337Q336 325 318 325Q304 325 293 334Q283 344 283 359Z"  horiz-adv-x="366" vert-adv-y="1000"  />

      
      <glyph glyph-name="uni0141" unicode="&#x0141;" d="M172 667L216 667L181 386L289 450L284 406L176 342L139 40L325 40L320 0L132 0L90 0L129 318L32 260L37 304L134 362L172 667Z"  horiz-adv-x="331" vert-adv-y="1000"  />

      
      <glyph glyph-name="uni0142" unicode="&#x0142;" d="M162 729L202 729L171 480L250 536L244 492L166 436L112 0L72 0L123 412L44 356L49 400L128 456L162 729Z"  horiz-adv-x="184" vert-adv-y="1000"  />

      
      <glyph glyph-name="uni0143" unicode="&#x0143;" d="M134 0L90 0L173 674L661 86L732 667L776 667L692-17L204 571L134 0M563 854L610 829L460 703L431 721L563 854Z"  horiz-adv-x="784" vert-adv-y="1000"  />

      
      <glyph glyph-name="uni0144" unicode="&#x0144;" d="M72 0L122 408L162 408L154 344Q171 376 201 395Q234 417 282 417Q342 417 374 385Q405 354 405 304Q405 298 399 232L370 0L330 0L359 238Q364 285 364 292Q364 331 342 354Q319 379 273 379Q222 379 189 347Q151 310 138 212L112 0L72 0M352 620L392 595L271 467L243 483L352 620Z"  horiz-adv-x="442" vert-adv-y="1000"  />

      
      <glyph glyph-name="uni0145" unicode="&#x0145;" d="M134 0L90 0L173 674L661 86L732 667L776 667L692-17L204 571L134 0M312-188L376-50L418-66L338-200L312-188Z"  horiz-adv-x="784" vert-adv-y="1000"  />

      
      <glyph glyph-name="uni0146" unicode="&#x0146;" d="M72 0L122 408L162 408L154 344Q171 376 201 395Q234 417 282 417Q342 417 374 385Q405 354 405 304Q405 298 399 232L370 0L330 0L359 238Q364 285 364 292Q364 331 342 354Q319 379 273 379Q222 379 189 347Q151 310 138 212L112 0L72 0M141-188L199-50L241-66L167-200L141-188Z"  horiz-adv-x="442" vert-adv-y="1000"  />

      
      <glyph glyph-name="uni0147" unicode="&#x0147;" d="M134 0L90 0L173 674L661 86L732 667L776 667L692-17L204 571L134 0M487 775L591 839L622 812L481 722L362 812L399 839L487 775Z"  horiz-adv-x="784" vert-adv-y="1000"  />

      
      <glyph glyph-name="uni0148" unicode="&#x0148;" d="M72 0L122 408L162 408L154 344Q171 376 201 395Q234 417 282 417Q342 417 374 385Q405 354 405 304Q405 298 399 232L370 0L330 0L359 238Q364 285 364 292Q364 331 342 354Q319 379 273 379Q222 379 189 347Q151 310 138 212L112 0L72 0M293 517L392 585L421 559L287 465L177 559L212 585L293 517Z"  horiz-adv-x="442" vert-adv-y="1000"  />

      
      <glyph glyph-name="uni014C" unicode="&#x014C;" d="M479 676Q620 676 710 584Q792 499 792 369Q792 201 680 92Q574-11 413-11Q272-11 186 74Q95 163 95 296Q95 367 124 438.50Q153 510 209 567Q317 676 479 676M407 29Q553 29 647 121Q695 169 721 235.50Q747 302 747 367Q747 483 671 559Q594 636 475 636Q338 636 243 543Q141 442 141 300Q141 187 214 109Q290 29 407 29M357 750L362 794L632 794L627 750L357 750Z"  horiz-adv-x="805" vert-adv-y="1000"  />

      
      <glyph glyph-name="uni014D" unicode="&#x014D;" d="M300 417Q395 417 452 360Q503 309 503 219Q503 112 436 49Q372-11 269-11Q178-11 125 45Q71 101 71 187Q71 234 89.50 279.50Q108 325 139 356Q203 417 300 417M275 27Q351 27 401 73Q461 129 461 215Q461 284 418 331Q372 379 296 379Q223 379 172 333Q113 280 113 193Q113 120 159 72Q202 27 275 27M177 493L181 532L451 532L447 493L177 493Z"  horiz-adv-x="524" vert-adv-y="1000"  />

      
      <glyph glyph-name="uni014E" unicode="&#x014E;" d="M479 676Q620 676 710 584Q792 499 792 369Q792 201 680 92Q574-11 413-11Q272-11 186 74Q95 163 95 296Q95 367 124 438.50Q153 510 209 567Q317 676 479 676M407 29Q553 29 647 121Q695 169 721 235.50Q747 302 747 367Q747 483 671 559Q594 636 475 636Q338 636 243 543Q141 442 141 300Q141 187 214 109Q290 29 407 29M374 826L414 826Q420 804 437 790Q458 774 495 774Q533 774 558 790Q579 804 588 826L628 826Q615 782 580 757Q543 732 491 732Q441 732 409 758Q379 784 374 826Z"  horiz-adv-x="805" vert-adv-y="1000"  />

      
      <glyph glyph-name="uni014F" unicode="&#x014F;" d="M300 417Q395 417 452 360Q503 309 503 219Q503 112 436 49Q372-11 269-11Q178-11 125 45Q71 101 71 187Q71 234 89.50 279.50Q108 325 139 356Q203 417 300 417M275 27Q351 27 401 73Q461 129 461 215Q461 284 418 331Q372 379 296 379Q223 379 172 333Q113 280 113 193Q113 120 159 72Q202 27 275 27M196 573L234 573Q239 547 258 533Q280 517 317 517Q354 517 378 533Q400 548 408 573L446 573Q437 539 412 515Q374 479 315 479Q261 479 229 507Q199 534 196 573Z"  horiz-adv-x="524" vert-adv-y="1000"  />

      
      <glyph glyph-name="uni0150" unicode="&#x0150;" d="M479 676Q620 676 710 584Q792 499 792 369Q792 201 680 92Q574-11 413-11Q272-11 186 74Q95 163 95 296Q95 367 124 438.50Q153 510 209 567Q317 676 479 676M407 29Q553 29 647 121Q695 169 721 235.50Q747 302 747 367Q747 483 671 559Q594 636 475 636Q338 636 243 543Q141 442 141 300Q141 187 214 109Q290 29 407 29M495 854L544 828L428 703L394 718L495 854M616 854L665 828L549 703L515 718L616 854Z"  horiz-adv-x="805" vert-adv-y="1000"  />

      
      <glyph glyph-name="uni0151" unicode="&#x0151;" d="M300 417Q395 417 452 360Q503 309 503 219Q503 112 436 49Q372-11 269-11Q178-11 125 45Q71 101 71 187Q71 234 89.50 279.50Q108 325 139 356Q203 417 300 417M275 27Q351 27 401 73Q461 129 461 215Q461 284 418 331Q372 379 296 379Q223 379 172 333Q113 280 113 193Q113 120 159 72Q202 27 275 27M325 620L364 595L249 467L224 483L325 620M436 620L475 595L360 467L335 483L436 620Z"  horiz-adv-x="524" vert-adv-y="1000"  />

      
      <glyph glyph-name="uni0152" unicode="&#x0152;" d="M1103 667L1098 627L823 627L793 385L1061 385L1056 345L788 345L751 40L1026 40L1021 0L702 0L721 155Q666 75 593 32Q520-11 420-11Q274-11 186 77Q94 169 94 308Q94 380 122 451Q150 522 203 575Q304 676 467 676Q579 676 657 624Q730 575 763 493L784 667L1103 667M462 636Q322 636 233 547Q140 452 140 314Q140 258 160 202.50Q180 147 218 108Q295 29 421 29Q553 29 642 115Q691 161 718.50 227.50Q746 294 746 365Q746 425 723.50 477.50Q701 530 665 564Q589 636 462 636Z"  horiz-adv-x="1075" vert-adv-y="1000"  />

      
      <glyph glyph-name="uni0153" unicode="&#x0153;" d="M850 201L501 201Q496 164 506 126.50Q516 89 539 66Q576 27 641 27Q697 27 738 57Q775 84 794 121L824 101Q787 44 744 17Q700-11 637-11Q563-11 517 33Q488 55 469 110Q437 54 384 22Q329-11 262-11Q179-11 128 41Q71 100 71 181Q71 286 142 354Q206 417 306 417Q379 417 430 378Q471 347 489 297Q512 347 557 380Q608 417 672 417Q753 417 800 372Q829 344 843 298.50Q857 253 850 201M509 239L810 239Q808 308 766 347Q731 379 675 379Q608 379 562 333Q524 293 509 239M303 379Q222 379 171 328Q114 271 114 187Q114 115 160 69Q202 27 267 27Q346 27 401 81Q461 140 461 227Q461 295 416 338Q375 379 303 379Z"  horiz-adv-x="873" vert-adv-y="1000"  />

      
      <glyph glyph-name="uni0154" unicode="&#x0154;" d="M420 0L370 0L193 315L173 315L134 0L90 0L172 667L276 667Q369 667 417 621Q458 581 458 510Q458 421 405 370Q348 315 241 315L420 0M211 627L178 355L242 355Q330 355 372 395Q412 433 412 504Q412 562 376 594Q340 627 266 627L211 627M405 854L452 829L302 703L273 721L405 854Z"  horiz-adv-x="470" vert-adv-y="1000"  />

      
      <glyph glyph-name="uni0155" unicode="&#x0155;" d="M72 0L122 408L162 408L156 355Q171 384 195 399Q221 417 255 417Q276 417 295 407L271 371Q260 379 242 379Q210 379 186 353Q151 316 138 205L112 0L72 0M281 620L321 595L200 467L172 483L281 620Z"  horiz-adv-x="260" vert-adv-y="1000"  />

      
      <glyph glyph-name="uni0156" unicode="&#x0156;" d="M420 0L370 0L193 315L173 315L134 0L90 0L172 667L276 667Q369 667 417 621Q458 581 458 510Q458 421 405 370Q348 315 241 315L420 0M211 627L178 355L242 355Q330 355 372 395Q412 433 412 504Q412 562 376 594Q340 627 266 627L211 627M154-188L218-50L260-66L180-200L154-188Z"  horiz-adv-x="470" vert-adv-y="1000"  />

      
      <glyph glyph-name="uni0157" unicode="&#x0157;" d="M72 0L122 408L162 408L156 355Q171 384 195 399Q221 417 255 417Q276 417 295 407L271 371Q260 379 242 379Q210 379 186 353Q151 316 138 205L112 0L72 0M38-188L96-50L138-66L64-200L38-188Z"  horiz-adv-x="260" vert-adv-y="1000"  />

      
      <glyph glyph-name="uni0158" unicode="&#x0158;" d="M420 0L370 0L193 315L173 315L134 0L90 0L172 667L276 667Q369 667 417 621Q458 581 458 510Q458 421 405 370Q348 315 241 315L420 0M211 627L178 355L242 355Q330 355 372 395Q412 433 412 504Q412 562 376 594Q340 627 266 627L211 627M305 775L409 839L440 812L299 722L180 812L217 839L305 775Z"  horiz-adv-x="470" vert-adv-y="1000"  />

      
      <glyph glyph-name="uni0159" unicode="&#x0159;" d="M72 0L122 408L162 408L156 355Q171 384 195 399Q221 417 255 417Q276 417 295 407L271 371Q260 379 242 379Q210 379 186 353Q151 316 138 205L112 0L72 0M202 517L301 585L330 559L196 465L86 559L121 585L202 517Z"  horiz-adv-x="260" vert-adv-y="1000"  />

      
      <glyph glyph-name="uni015A" unicode="&#x015A;" d="M497 581L462 554Q452 582 434 600.50Q416 619 396 625.50Q376 632 364.50 634Q353 636 343 636Q280 636 240 596Q201 557 201 502Q201 462 229 432Q237 424 247.50 416Q258 408 265.50 403.50Q273 399 287.50 391.50Q302 384 309 380L342 362Q351 357 370.50 346.50Q390 336 399.50 330.50Q409 325 422 316Q435 307 444 297Q484 257 484 196Q484 106 422 47Q362-11 256-11Q171-11 122 38Q86 74 70 132L110 150Q124 100 154 70Q195 29 258 29Q343 29 390 73Q436 117 436 189Q436 238 404 270Q395 279 382 288Q369 297 361 301.50Q353 306 335.50 315Q318 324 314 326L268 351Q221 377 193 406Q155 446 155 500Q155 571 206 622Q262 676 345 676Q396 676 437 652Q478 628 497 581M441 854L488 829L338 703L309 721L441 854Z"  horiz-adv-x="514" vert-adv-y="1000"  />

      
      <glyph glyph-name="uni015B" unicode="&#x015B;" d="M331 351L295 333Q288 354 272 366Q252 379 227 379Q192 379 170 357Q152 339 152 312Q152 290 168 273Q181 260 210 248L241 235Q282 218 301 199Q328 171 328 127Q328 71 292 32Q251-11 180-11Q121-11 86 24Q58 52 50 97L90 109Q96 73 117 52Q142 27 181 27Q228 27 256 53Q285 82 285 122Q285 152 266 171Q252 185 217 200L193 210Q154 226 134 247Q110 271 110 306Q110 351 140 381Q175 417 230 417Q270 417 296 399Q322 381 331 351M301 620L341 595L220 467L192 483L301 620Z"  horiz-adv-x="342" vert-adv-y="1000"  />

      
      <glyph glyph-name="uni015C" unicode="&#x015C;" d="M497 581L462 554Q452 582 434 600.50Q416 619 396 625.50Q376 632 364.50 634Q353 636 343 636Q280 636 240 596Q201 557 201 502Q201 462 229 432Q237 424 247.50 416Q258 408 265.50 403.50Q273 399 287.50 391.50Q302 384 309 380L342 362Q351 357 370.50 346.50Q390 336 399.50 330.50Q409 325 422 316Q435 307 444 297Q484 257 484 196Q484 106 422 47Q362-11 256-11Q171-11 122 38Q86 74 70 132L110 150Q124 100 154 70Q195 29 258 29Q343 29 390 73Q436 117 436 189Q436 238 404 270Q395 279 382 288Q369 297 361 301.50Q353 306 335.50 315Q318 324 314 326L268 351Q221 377 193 406Q155 446 155 500Q155 571 206 622Q262 676 345 676Q396 676 437 652Q478 628 497 581M367 786L263 722L232 749L373 839L492 749L455 722L367 786Z"  horiz-adv-x="514" vert-adv-y="1000"  />

      
      </font>
</defs>
</svg>
